<svg width="97" height="81" viewBox="0 0 97 81" fill="none" xmlns="http://www.w3.org/2000/svg">
<g clip-path="url(#clip0_91_15965)">
<path d="M57.5333 43.4015H43.4522L39.8969 56.3977L32.8252 60.4747C32.8252 60.4747 33.8154 66.4183 38.7274 71.3465C42.9454 75.5719 50.0171 78.6491 58.9601 73.7287C66.1565 69.7611 68.7295 59.6624 68.7295 59.6624L60.9093 55.6323C60.9093 55.6323 59.8645 49.0795 57.5333 43.4093V43.4015Z" fill="#FEB28D"/>
<path style="mix-blend-mode:multiply" d="M57.5333 43.4015H43.4522L39.8969 56.3977L32.8252 60.4747C32.8252 60.4747 33.8154 66.4183 38.7274 71.3465C42.9454 75.5719 50.0171 78.6491 58.9601 73.7287C66.1565 69.7611 68.7295 59.6624 68.7295 59.6624L60.9093 55.6323C60.9093 55.6323 59.8645 49.0795 57.5333 43.4093V43.4015Z" fill="url(#paint0_linear_91_15965)"/>
<path d="M73.0482 24.4773C73.5628 17.2372 71.06 11.5982 67.645 7.34163C65.4853 4.6549 59.7469 0 52.3009 0C42.5627 0 38.828 4.39717 36.7229 6.97455C33.2065 11.2702 30.657 17.0966 31.1716 24.4773C31.9357 35.3413 33.152 42.0581 39.3192 47.6815C42.1807 50.2979 47.1862 52.602 52.1138 52.3677C57.0414 52.602 62.0391 50.2901 64.9083 47.6815C71.0756 42.0581 72.2919 35.3413 73.056 24.4773H73.0482Z" fill="#FEB28D"/>
<path d="M43.0771 38.6139C43.0771 38.6139 45.2524 44.5653 51.7706 44.7137C57.9846 44.8542 61.1735 38.0671 61.1735 38.0671C61.1735 38.0671 51.7706 43.5343 43.0693 38.6217L43.0771 38.6139Z" fill="#DA734A"/>
<path d="M67.6377 7.34943C67.3804 10.4579 69.7662 16.2062 68.6825 18.0416C67.6065 19.8771 70.0547 21.7671 69.9612 25.1333C69.8754 28.4996 69.1191 30.9676 69.1191 30.9676C69.1191 30.9676 70.5537 31.569 71.1229 29.2025C71.6843 26.8438 74.0623 25.1099 74.0623 25.1099C74.0623 25.1099 75.0447 19.8927 74.7328 14.5661C74.4209 9.2395 67.6377 7.34943 67.6377 7.34943Z" fill="#FFE4CF"/>
<path d="M70.8574 29.2962C71.2316 25.8988 71.871 22.5872 75.1612 22.142C78.9505 21.6266 78.7867 27.1875 77.6796 30.4209C76.5725 33.6543 76.6426 36.0443 74.0931 36.2161C71.5435 36.3879 70.8496 33.5294 70.8496 33.5294V29.304L70.8574 29.2962Z" fill="#FEB28D"/>
<path d="M76.1592 25.4535C74.709 25.2349 72.8066 28.3668 73.2744 30.538C73.7422 32.7014 75.5666 32.7561 75.6134 32.1782C75.6602 31.6002 74.1788 30.7098 75.0988 29.5227C76.0189 28.3433 76.167 25.4535 76.167 25.4535H76.1592Z" fill="#FA9E6D"/>
<path d="M36.1074 7.34943C36.3569 10.4579 33.9789 16.2062 35.0626 18.0416C36.1386 19.8771 34.4389 21.7671 34.5247 25.1333C34.6104 28.4996 34.626 30.9676 34.626 30.9676C34.626 30.9676 33.1914 31.569 32.6222 29.2025C32.0609 26.8438 29.6829 25.1099 29.6829 25.1099C29.6829 25.1099 28.7005 19.8927 29.0123 14.5661C29.3242 9.2395 36.1074 7.34943 36.1074 7.34943Z" fill="#FFE4CF"/>
<path d="M32.895 29.2962C32.5208 25.8988 31.8814 22.5872 28.5912 22.142C24.8019 21.6266 24.9657 27.1875 26.0728 30.4209C27.18 33.6465 27.1098 36.0443 29.6594 36.2161C32.2089 36.3879 32.9028 33.5294 32.9028 33.5294V29.304L32.895 29.2962Z" fill="#FEB28D"/>
<path d="M27.5849 25.4535C29.0352 25.2349 30.9376 28.3668 30.4698 30.538C30.002 32.7014 28.1775 32.7561 28.1307 32.1782C28.0839 31.6002 29.5653 30.7098 28.6453 29.5227C27.7253 28.3355 27.5771 25.4535 27.5771 25.4535H27.5849Z" fill="#FA9E6D"/>
<path d="M59.7316 23.1339C59.6225 24.4304 58.9909 25.4302 58.3204 25.3755C57.6499 25.3208 57.1821 24.2274 57.2912 22.9309C57.4004 21.6344 58.0319 20.6347 58.7024 20.6893C59.373 20.744 59.8408 21.8374 59.7316 23.1339Z" fill="#15252C"/>
<path d="M43.2258 22.9309C43.1166 24.2274 43.5844 25.3208 44.255 25.3755C44.9255 25.4301 45.5648 24.4226 45.6662 23.1339C45.7753 21.8374 45.3075 20.744 44.637 20.6893C43.9665 20.6346 43.3271 21.6422 43.2258 22.9309Z" fill="#15252C"/>
<path opacity="0.18" d="M49.9855 23.0324C49.9855 26.094 47.4984 28.5777 44.442 28.5699C41.3857 28.5699 38.9063 26.0784 38.9141 23.0168C38.9141 19.9552 41.4013 17.4715 44.4576 17.4793C47.514 17.4793 49.9933 19.9708 49.9855 23.0324Z" fill="white"/>
<path opacity="0.18" d="M63.4582 23.0558C63.4582 26.1175 60.971 28.6011 57.9147 28.5933C54.8583 28.5933 52.3789 26.1018 52.3867 23.0402C52.3867 19.9786 54.8739 17.495 57.9303 17.5028C60.9866 17.5028 63.466 19.9942 63.4582 23.0558Z" fill="white"/>
<path d="M49.9855 23.0324C49.9855 26.094 47.4984 28.5777 44.442 28.5699C41.3857 28.5699 38.9063 26.0784 38.9141 23.0168C38.9141 19.9552 41.4013 17.4715 44.4576 17.4793C47.514 17.4793 49.9933 19.9708 49.9855 23.0324Z" stroke="#231F20" stroke-width="0.7" stroke-linecap="round" stroke-linejoin="round"/>
<path d="M63.4582 23.0558C63.4582 26.1175 60.971 28.6011 57.9147 28.5933C54.8583 28.5933 52.3789 26.1018 52.3867 23.0402C52.3867 19.9786 54.8739 17.495 57.9303 17.5028C60.9866 17.5028 63.466 19.9942 63.4582 23.0558Z" stroke="#231F20" stroke-width="0.7" stroke-linecap="round" stroke-linejoin="round"/>
<path d="M49.915 22.1733C49.915 21.4625 50.492 20.8846 51.2015 20.8846C51.911 20.8846 52.488 21.4625 52.488 22.1733" stroke="#231F20" stroke-linecap="round" stroke-linejoin="round"/>
<path d="M49.0104 72.7602L44.2544 69.9017L39.1475 72.7602L43.9035 75.4938L49.0104 72.7602Z" fill="#E1D9DE"/>
<path d="M58.8034 72.7602L54.0473 69.9017L48.9404 72.7602L53.7043 75.4938L58.8034 72.7602Z" fill="#E1D9DE"/>
<path d="M68.6041 72.7602L63.8481 69.9017L58.7334 72.7602L63.4972 75.4938L68.6041 72.7602Z" fill="#E1D9DE"/>
<path d="M78.5915 72.7602L73.8354 69.9017L68.7285 72.7602L73.4924 75.4938L78.5915 72.7602Z" fill="#E1D9DE"/>
<path d="M88.0026 72.7602L83.2465 69.9017L78.1318 72.7602L82.8957 75.4938L88.0026 72.7602Z" fill="#E1D9DE"/>
<path d="M20.0456 72.7602L15.2895 69.9017L10.1826 72.7602L14.9465 75.4938L20.0456 72.7602Z" fill="#E1D9DE"/>
<path d="M30.0339 72.7602L25.2778 69.9017L20.1709 72.7602L24.9347 75.4938L30.0339 72.7602Z" fill="#E1D9DE"/>
<path d="M39.444 72.7602L34.688 69.9017L29.5811 72.7602L34.3449 75.4938L39.444 72.7602Z" fill="#E1D9DE"/>
<path d="M86.1863 65.6685H12.3818L12.413 64.3095H86.2175L86.1863 65.6685Z" fill="#E1D9DE"/>
<path d="M59.0761 33.131C55.5519 32.3656 52.3942 35.2476 51.6379 36.1224C50.9518 35.1695 48.2074 31.7799 44.6988 33.1232C40.6367 34.6775 38.4925 35.4038 38.1807 33.8964C38.1807 33.8964 40.3638 45.3541 51.7237 37.2236C61.7816 45.3384 64.7132 34.3572 64.7132 34.3572C64.1674 35.8646 62.3819 33.8574 59.0839 33.1388L59.0761 33.131Z" fill="#F7E9D7"/>
<path d="M43.085 7.22445C43.085 7.22445 49.3692 2.92882 60.2457 6.66211" stroke="#EA966C" stroke-width="0.75" stroke-miterlimit="10" stroke-linecap="round"/>
<path d="M45.8223 9.38007C45.8223 9.38007 50.2976 6.31846 58.0554 8.98175" stroke="#EA966C" stroke-width="0.75" stroke-miterlimit="10" stroke-linecap="round"/>
<g opacity="0.3">
<path d="M52.8621 30.3819C52.1604 29.8586 51.9733 25.8675 51.9343 24.1649L50.6244 24.1259C50.4685 26.1331 50.219 32.8499 51.0377 33.6387C52.7218 35.2554 54.8815 31.8814 52.8543 30.3819H52.8621Z" fill="#F16E21"/>
</g>
<path d="M48.8628 16.9638C48.6757 16.9872 48.4808 16.917 48.3482 16.7686C46.6563 14.8316 44.9878 13.9413 43.3817 14.1365C43.3817 14.1365 43.3739 14.1365 43.3661 14.1365C40.5826 14.4802 38.7582 17.9167 38.7426 17.9557C38.5944 18.2447 38.2358 18.354 37.9551 18.2056C37.6666 18.0572 37.5575 17.7058 37.7056 17.4168C37.7914 17.2528 39.8263 13.3945 43.2257 12.9728C43.2257 12.9728 43.2335 12.9728 43.2413 12.9728C45.2607 12.7307 47.2801 13.746 49.2371 16.0032C49.4476 16.2453 49.4242 16.6202 49.1825 16.831C49.0889 16.9091 48.9798 16.956 48.8706 16.9716L48.8628 16.9638Z" fill="#F7E9D7"/>
<path d="M52.6282 16.9873C52.8153 17.0107 53.0102 16.9404 53.1427 16.792C54.8346 14.8551 56.5032 13.9647 58.1093 14.1599C58.1093 14.1599 58.1171 14.1599 58.1249 14.1599C60.9084 14.5036 62.7328 17.9401 62.7484 17.9792C62.8965 18.2681 63.2552 18.3775 63.5359 18.2291C63.8244 18.0807 63.9335 17.7292 63.7854 17.4402C63.6996 17.2762 61.6646 13.418 58.2652 12.9962C58.2652 12.9962 58.2574 12.9962 58.2496 12.9962C56.2303 12.7541 54.2109 13.7694 52.2539 16.0266C52.0434 16.2687 52.0668 16.6436 52.3085 16.8545C52.402 16.9326 52.5112 16.9794 52.6204 16.9951L52.6282 16.9873Z" fill="#F7E9D7"/>
<path d="M98.5596 81C96.4778 75.4079 94.8171 71.1513 94.2089 69.847C92.0492 65.1921 85.3518 61.8571 84.9541 61.6619C84.6579 61.2714 84.2524 60.9433 83.7222 60.6153C81.5236 59.2798 64.1289 54.1094 64.1289 54.1094C52.535 77.8681 40.411 54.289 40.411 54.289C40.411 54.289 32.1542 54.7654 26.4781 56.2338C21.4492 57.5381 15.5626 59.5531 14.0812 61.6228C11.9059 62.8803 7.797 65.6061 6.19086 69.066C5.55931 70.4328 3.76605 75.0174 1.55176 81H98.5518H98.5596Z" fill="#AE8FF7"/>
<path d="M50.4844 67.3633L60.4565 52.4926L64.659 54.8044L63.7389 68.777L56.0591 64.1767L50.4844 67.3633Z" fill="#FFF4FA"/>
<path d="M50.0006 67.9413L40.6445 53.0706L35.7637 56.6633L36.6837 69.3549L44.5585 64.7547L50.0006 67.9413Z" fill="#FFF4FA"/>
</g>
<defs>
<linearGradient id="paint0_linear_91_15965" x1="49.947" y1="37.6375" x2="50.9562" y2="64.7467" gradientUnits="userSpaceOnUse">
<stop stop-color="#D9988F"/>
<stop offset="0.15" stop-color="#D99990" stop-opacity="0.98"/>
<stop offset="0.29" stop-color="#DB9E96" stop-opacity="0.93"/>
<stop offset="0.42" stop-color="#DEA79F" stop-opacity="0.85"/>
<stop offset="0.55" stop-color="#E3B3AD" stop-opacity="0.73"/>
<stop offset="0.68" stop-color="#E8C3BE" stop-opacity="0.58"/>
<stop offset="0.8" stop-color="#F0D6D3" stop-opacity="0.39"/>
<stop offset="0.92" stop-color="#F8ECEB" stop-opacity="0.18"/>
<stop offset="1" stop-color="white" stop-opacity="0"/>
</linearGradient>
<clipPath id="clip0_91_15965">
<rect width="97" height="81" fill="white"/>
</clipPath>
</defs>
</svg>
