<svg width="70" height="88" viewBox="0 0 70 88" fill="none" xmlns="http://www.w3.org/2000/svg">
<path d="M58.627 35.3788C58.627 52.7849 44.7135 62.0047 33.4701 62.0047C22.2268 62.0047 7.83599 52.7849 7.83599 35.3788C-0.443562 23.3903 15.7796 3.85693 33.0919 3.85693C50.4042 3.85693 68.0758 18.9008 58.6259 35.3788H58.627Z" fill="white"/>
<path d="M41.0228 65.0958V58.6885H27.8959V64.91L23.626 66.1281V77.2892H44.9813V66.1281L41.0228 65.0958Z" fill="#FFC79E"/>
<g style="mix-blend-mode:multiply">
<path d="M41.0224 62.8937V58.6897H27.8955V63.318C27.8955 63.318 30.7603 65.3199 34.4584 65.3199C38.1565 65.3199 41.0213 62.8937 41.0213 62.8937H41.0224Z" fill="#E2CBC9"/>
</g>
<path d="M29.3694 8.13721L51.4857 8.74514L62.1328 38.9795L54.4862 56.6151C54.4862 56.6151 10.672 55.1294 10.8011 54.9268C10.9301 54.7241 7.15527 23.9849 7.15527 23.9849L19.0606 11.1758L29.3683 8.13721H29.3694Z" fill="#CCCACA"/>
<path d="M55.9025 37.6046C55.9025 51.8065 45.33 63.7032 33.863 63.7032C23.4329 63.7032 11.0381 51.8065 11.0381 37.6046C11.0381 21.1613 18.0549 7.83044 33.3479 7.83044C48.641 7.83044 55.9037 21.1613 55.9037 37.6046H55.9025Z" fill="#FFC79E"/>
<path d="M42.356 2.76879C42.356 2.76879 37.3551 10.5667 37.0647 13.6052C36.7743 16.6438 39.5813 26.973 51.9706 29.8604C51.9706 29.8604 62.5208 47.364 51.9706 56.614C51.9706 56.614 53.9064 58.9774 58.1652 56.09C58.1652 56.09 64.1663 58.7736 68.9091 47.4312C73.6519 36.0887 61.9201 9.85798 52.9774 4.38882C44.0337 -1.08033 42.3571 2.76879 42.3571 2.76879H42.356Z" fill="#F4EDED"/>
<path d="M37.0451 12.7955C37.0451 12.7955 25.2566 29.5064 14.2224 32.2404C14.2224 32.2404 9.60201 49.4573 14.6229 56.0908C14.6229 56.0908 11.9962 57.8631 8.12455 53.508C8.12455 53.508 -3.78078 48.5896 3.18819 27.9076C10.1572 7.22556 28.5475 0.743179 30.5312 0.33789C32.5149 -0.0673985 38.2278 -0.864541 42.0015 3.33165L37.044 12.7944L37.0451 12.7955Z" fill="#F4EDED"/>
<path d="M41.1126 9.95984C43.0028 12.3513 44.8997 14.7248 46.85 17.0412C47.8346 18.1899 48.8214 19.333 49.8505 20.4291C50.8841 21.5162 51.9387 22.5842 53.0836 23.4956L53.968 24.1785L54.2106 24.3689C54.2918 24.4316 54.3608 24.5088 54.4364 24.5782L54.6578 24.7921C54.7301 24.8648 54.7924 24.9454 54.8603 25.0227C55.3954 25.6429 55.8126 26.3505 56.133 27.0872C56.7661 28.5695 57.0898 30.1392 57.2456 31.7044C57.3246 32.4869 57.3735 33.2707 57.3824 34.0544C57.3891 34.837 57.3713 35.6184 57.3279 36.3965C57.2256 37.9516 57.0587 39.5034 56.7216 41.017C56.8506 39.472 56.8907 37.9259 56.8629 36.3853C56.8406 34.8459 56.736 33.311 56.5124 31.8051C56.3967 31.0539 56.251 30.3094 56.0641 29.5816C55.8716 28.8561 55.6313 28.1486 55.3209 27.4858C55.0127 26.8241 54.6422 26.1994 54.1772 25.6765C54.1182 25.6116 54.0648 25.5422 54.0025 25.4817L53.8134 25.3037C53.7489 25.2466 53.691 25.1806 53.622 25.1291L53.4184 24.9734L52.5095 24.286C51.309 23.3053 50.2354 22.2092 49.203 21.0784C48.195 19.9264 47.2104 18.7564 46.2848 17.5394C44.4268 15.1122 42.6835 12.5942 41.1104 9.96096L41.1126 9.95984Z" fill="#CCCACA"/>
<path d="M49.5459 11.7825C50.5005 12.6938 51.3338 13.7384 52.1203 14.8154C52.8991 15.9003 53.6089 17.0411 54.2464 18.2268C54.8928 19.4079 55.4502 20.6406 55.9519 21.899C56.4426 23.1619 56.8509 24.4595 57.1991 25.775L57.4372 26.7681L57.6374 27.7701C57.7097 28.1026 57.7576 28.4407 57.8121 28.7766C57.8622 29.1136 57.93 29.4484 57.959 29.7887L58.0702 30.8053C58.1014 31.1445 58.1192 31.4849 58.1436 31.8252C58.2059 32.5037 58.1904 33.1878 58.2082 33.8673C58.1837 36.5902 57.8277 39.304 57.1056 41.8959C57.4405 39.2201 57.5818 36.5443 57.4683 33.8853C57.3226 31.2296 56.951 28.593 56.2846 26.0325C55.6371 23.4675 54.7237 20.9765 53.5956 18.5895C53.027 17.3983 52.4174 16.2239 51.7387 15.0908C51.0679 13.9522 50.3458 12.8427 49.547 11.7847L49.5459 11.7825Z" fill="#CCCACA"/>
<path d="M31.4995 12.6939C29.5347 14.8401 27.4398 16.8509 25.2626 18.7642C24.1801 19.7293 23.0508 20.6362 21.9138 21.5363C20.7601 22.4152 19.5763 23.2538 18.3403 24.0263L17.3857 24.5659C17.22 24.6622 17.0876 24.7271 16.9474 24.8167C16.8094 24.9029 16.6759 24.997 16.548 25.0977C16.0329 25.5019 15.6046 26.0259 15.2797 26.6125C15.1228 26.898 14.9738 27.2406 14.828 27.5686C14.6823 27.8989 14.5465 28.2348 14.4119 28.5718C14.1505 29.248 13.9113 29.9332 13.6899 30.6262C12.8321 33.4039 12.3926 36.3383 12.5907 39.3063C12.2881 37.8531 12.2102 36.3462 12.2814 34.8482C12.357 33.3479 12.6107 31.86 12.9812 30.4068C13.1703 29.6813 13.385 28.9614 13.6387 28.2572C13.7666 27.9056 13.8968 27.5541 14.0381 27.207C14.1805 26.8588 14.3129 26.5196 14.4976 26.1557C14.8625 25.4493 15.3754 24.8234 15.9873 24.3286C16.1408 24.2054 16.2999 24.0901 16.4657 23.9837C16.6259 23.8774 16.8139 23.7811 16.9563 23.6949L17.8664 23.1687C20.2728 21.6919 22.5491 19.9342 24.8042 18.1608C27.0538 16.3728 29.2722 14.5345 31.4995 12.6927V12.6939Z" fill="#CCCACA"/>
<g style="mix-blend-mode:multiply">
<path d="M37.7062 42.6516C37.2723 42.6516 36.8807 42.8296 36.5925 43.1174C35.9862 42.8296 35.1874 42.6516 34.3018 42.6516C33.4162 42.6516 32.6152 42.8307 32.0089 43.1174C31.7218 42.8296 31.3291 42.6516 30.8941 42.6516C30.0129 42.6516 29.2998 43.3793 29.2998 44.2795C29.2998 45.1796 30.0141 46.3496 30.8941 46.3496C31.2345 46.3496 31.5494 46.2376 31.8086 46.0518C32.4316 46.4 33.3139 46.6217 34.3018 46.6217C35.2897 46.6217 36.1709 46.4 36.7928 46.0529C37.0509 46.2388 37.3658 46.3507 37.7062 46.3507C38.5873 46.3507 39.3005 45.1796 39.3005 44.2806C39.3005 43.3816 38.5862 42.6527 37.7062 42.6527V42.6516Z" fill="#C1A6A3"/>
</g>
<path d="M37.4291 42.2117C37.0308 42.2117 36.6703 42.402 36.4066 42.7099C35.8493 42.4031 35.1161 42.2117 34.3028 42.2117C33.4895 42.2117 32.7542 42.4042 32.1968 42.711C31.9331 42.4031 31.5715 42.2117 31.1721 42.2117C30.3633 42.2117 29.708 42.992 29.708 43.9537C29.708 44.9155 30.3622 45.6958 31.1721 45.6958C31.4859 45.6958 31.774 45.576 32.0121 45.3778C32.5839 45.7507 33.395 45.9869 34.3028 45.9869C35.2107 45.9869 36.0195 45.7507 36.5913 45.379C36.8294 45.5771 37.1176 45.6958 37.4302 45.6958C38.239 45.6958 38.8943 44.9166 38.8943 43.9537C38.8943 42.9909 38.239 42.2117 37.4302 42.2117H37.4291Z" fill="#F8BA8C"/>
<path d="M61.0997 39.1216C60.7682 41.8209 58.6922 43.844 58.1615 45.1864C58.9425 47.2699 55.8707 48.7299 54.0818 47.729C53.1895 46.3418 50.5951 43.413 51.1346 39.9367C51.6709 36.4637 52.8902 35.867 55.8029 34.3029C59.4075 32.3683 61.4335 36.4212 61.1008 39.1216H61.0997Z" fill="#FFC79E"/>
<g style="mix-blend-mode:multiply">
<path d="M59.2913 37.6381C59.2223 37.0257 58.2477 36.2543 57.1941 36.4547C54.9891 36.9776 54.6575 40.0553 54.7054 42.0571C54.7132 42.4131 54.741 42.7546 54.7877 43.086C55.1749 41.2331 55.7423 38.7073 57.3721 37.7098C58.1609 37.0168 58.9976 37.7568 59.2913 37.6381Z" fill="#E6D4C8"/>
</g>
<g style="mix-blend-mode:multiply">
<path d="M59.3383 37.7635C59.3383 37.7635 58.8488 36.2677 57.7196 36.0304C58.2158 35.6509 58.6274 35.3788 58.6274 35.3788C58.6274 35.3788 56.9408 35.0205 55.6781 37.0414C53.8279 40.0016 54.8125 43.311 54.8125 43.311C54.8125 43.311 54.2262 40.4449 56.1754 37.5105C56.4001 37.1724 56.7895 36.7973 57.1922 36.4547C58.5607 36.4323 59.3372 37.7635 59.3372 37.7635H59.3383Z" fill="#C1A6A3"/>
</g>
<g style="mix-blend-mode:multiply">
<path d="M55.5391 41.1223C55.5391 41.1223 57.011 40.9499 57.298 41.4011C57.585 41.8523 56.9453 44.2135 56.9453 44.2135C56.9453 44.2135 57.0421 42.4905 56.8007 41.9564C56.4714 41.2264 55.5391 41.1223 55.5391 41.1223Z" fill="#C1A6A3"/>
</g>
<path d="M6.1341 39.1216C6.46564 41.8209 8.54164 43.844 9.07233 45.1864C8.29132 47.2699 11.3631 48.7299 13.1531 47.729C14.0454 46.3418 16.6399 43.413 16.1003 39.9367C15.564 36.4637 14.3447 35.867 11.432 34.3029C7.82739 32.3683 5.80145 36.4212 6.1341 39.1216Z" fill="#FFC79E"/>
<g style="mix-blend-mode:multiply">
<path d="M7.94238 37.6381C8.01247 37.0257 8.98595 36.2543 10.0406 36.4547C12.2457 36.9776 12.5772 40.0553 12.5283 42.0571C12.5205 42.4131 12.4927 42.7546 12.446 43.086C12.0588 41.2331 11.4914 38.7073 9.86152 37.7098C9.07273 37.0168 8.23609 37.7568 7.94238 37.6381Z" fill="#E6D4C8"/>
</g>
<g style="mix-blend-mode:multiply">
<path d="M7.89551 37.7635C7.89551 37.7635 8.38503 36.2677 9.51426 36.0304C9.01918 35.6509 8.60754 35.3788 8.60754 35.3788C8.60754 35.3788 10.2942 35.0205 11.5569 37.0414C13.4059 40.0016 12.4225 43.311 12.4225 43.311C12.4225 43.311 13.0076 40.4449 11.0585 37.5105C10.8337 37.1724 10.4443 36.7973 10.0416 36.4547C8.67318 36.4323 7.89662 37.7635 7.89662 37.7635H7.89551Z" fill="#C1A6A3"/>
</g>
<g style="mix-blend-mode:multiply">
<path d="M11.6943 41.1223C11.6943 41.1223 10.2213 40.9499 9.9354 41.4011C9.64837 41.8523 10.2881 44.2135 10.2881 44.2135C10.2881 44.2135 10.1924 42.4905 10.4327 41.9564C10.762 41.2264 11.6943 41.1223 11.6943 41.1223Z" fill="#C1A6A3"/>
</g>
<path d="M19.715 38.4924C19.715 35.9834 22.1503 35.1583 23.3485 35.1079C25.7439 35.0038 27.6908 35.5378 27.6908 38.0457C27.6908 38.0457 26.4781 38.4823 23.4943 38.3055C20.5116 38.1274 19.7139 38.4935 19.7139 38.4935L19.715 38.4924Z" fill="#352E35"/>
<path d="M23.35 35.671C25.7475 35.671 27.6922 35.8838 27.6922 38.3916C27.6922 38.3916 26.3338 38.4745 23.35 38.2965C21.8592 38.2069 20.7733 38.2315 20.0602 38.2774C19.347 38.3233 20.9524 35.6699 23.35 35.6699V35.671Z" fill="white"/>
<path d="M25.9166 36.1502C25.9166 36.0663 25.9033 35.9879 25.8955 35.9062C25.1801 35.7091 23.1653 35.3699 22.0283 35.9442C22.0227 36.0125 22.0205 36.0808 22.0205 36.1514C22.0205 37.1959 22.6491 38.0636 23.4957 38.3066C23.7628 38.3222 24.0175 38.3345 24.2578 38.3469C25.1957 38.1856 25.9166 37.2698 25.9166 36.1514V36.1502Z" fill="black"/>
<g style="mix-blend-mode:multiply">
<path d="M24.9813 36.2522C24.9813 36.8377 24.5274 37.3136 23.9667 37.3136C23.4059 37.3136 22.9531 36.8377 22.9531 36.2522C22.9531 36.0384 23.0132 35.8391 23.1189 35.6723C23.3492 35.6723 24.3827 35.6331 24.8456 35.726C24.9312 35.8816 24.9802 36.0608 24.9802 36.2533L24.9813 36.2522Z" fill="#9C9B9B"/>
</g>
<path d="M24.4199 36.6955C24.4199 36.944 24.6124 37.1444 24.8505 37.1444C25.0886 37.1444 25.281 36.944 25.281 36.6955C25.281 36.4469 25.0886 36.2443 24.8505 36.2443C24.6124 36.2443 24.4199 36.4447 24.4199 36.6955Z" fill="white"/>
<path d="M24.6292 37.3202C24.6292 37.4724 24.5112 37.5967 24.3644 37.5967C24.2175 37.5967 24.0996 37.4724 24.0996 37.3202C24.0996 37.1679 24.2187 37.0414 24.3644 37.0414C24.5101 37.0414 24.6292 37.1668 24.6292 37.3202Z" fill="white"/>
<g style="mix-blend-mode:multiply">
<path d="M27.8635 36.5857C27.8635 36.5857 27.4207 33.8226 24.5514 34.0309C22.7113 34.163 21.2383 35.1079 21.2383 35.1079C21.2383 35.1079 23.4333 34.5503 24.5781 34.7037C27.0458 35.034 27.8635 36.5857 27.8635 36.5857Z" fill="#C1A6A3"/>
</g>
<g style="mix-blend-mode:multiply">
<path d="M28.0787 45.9913C28.0787 45.9913 26.4767 45.6991 24.7934 47.8812C23.9011 49.0388 23.4316 50.8682 23.4316 50.8682C23.4316 50.8682 24.7567 48.5462 25.1561 47.9853C25.8581 47.0023 28.0776 45.9913 28.0776 45.9913H28.0787Z" fill="#C1A6A3"/>
</g>
<g style="mix-blend-mode:multiply">
<path d="M24.3643 39.8571C24.3643 39.8571 25.9085 38.4778 27.3348 38.6368C28.0579 38.7185 27.861 39.0611 27.7609 39.1316C27.1979 39.5224 25.1842 41.2544 25.1842 41.2544C25.1842 41.2544 26.1343 39.8392 27.2836 39.0286C26.5359 38.7958 24.3643 39.8571 24.3643 39.8571Z" fill="#C1A6A3"/>
</g>
<path d="M48.5081 38.4924C48.5081 35.9834 46.0727 35.1583 44.8745 35.1079C42.4792 35.0038 40.5322 35.5378 40.5322 38.0457C40.5322 38.0457 41.7449 38.4823 44.7287 38.3055C47.7115 38.1274 48.5081 38.4935 48.5081 38.4935V38.4924Z" fill="#352E35"/>
<path d="M44.8734 35.671C42.4758 35.671 40.5322 35.8838 40.5322 38.3916C40.5322 38.3916 41.8895 38.4745 44.8734 38.2965C46.3653 38.2069 47.45 38.2315 48.1632 38.2774C48.8763 38.3233 47.2709 35.6699 44.8734 35.6699V35.671Z" fill="white"/>
<path d="M42.3076 36.1502C42.3076 36.0663 42.321 35.9879 42.3288 35.9062C43.0441 35.7091 45.0589 35.3699 46.1948 35.9442C46.2015 36.0125 46.2037 36.0808 46.2037 36.1514C46.2037 37.1959 45.5752 38.0636 44.7285 38.3066C44.4604 38.3222 44.2067 38.3345 43.9664 38.3469C43.0285 38.1856 42.3076 37.2698 42.3076 36.1514V36.1502Z" fill="black"/>
<g style="mix-blend-mode:multiply">
<path d="M43.2422 36.2522C43.2422 36.8377 43.6961 37.3136 44.2557 37.3136C44.8153 37.3136 45.2692 36.8377 45.2692 36.2522C45.2692 36.0384 45.2092 35.8391 45.1035 35.6723C44.8732 35.6723 43.8396 35.6331 43.3768 35.726C43.2911 35.8816 43.2422 36.0608 43.2422 36.2533V36.2522Z" fill="#9C9B9B"/>
</g>
<path d="M43.8036 36.6955C43.8036 36.944 43.6112 37.1444 43.372 37.1444C43.1328 37.1444 42.9414 36.944 42.9414 36.6955C42.9414 36.4469 43.1339 36.2443 43.372 36.2443C43.61 36.2443 43.8036 36.4447 43.8036 36.6955Z" fill="white"/>
<path d="M43.5947 37.3202C43.5947 37.4724 43.7138 37.5967 43.8606 37.5967C44.0075 37.5967 44.1254 37.4724 44.1254 37.3202C44.1254 37.1679 44.0075 37.0414 43.8606 37.0414C43.7138 37.0414 43.5947 37.1668 43.5947 37.3202Z" fill="white"/>
<g style="mix-blend-mode:multiply">
<path d="M40.3604 36.5857C40.3604 36.5857 40.802 33.8226 43.6724 34.0309C45.5125 34.163 46.9856 35.1079 46.9856 35.1079C46.9856 35.1079 44.7905 34.5503 43.6457 34.7037C41.1781 35.034 40.3604 36.5857 40.3604 36.5857Z" fill="#C1A6A3"/>
</g>
<g style="mix-blend-mode:multiply">
<path d="M40.1445 45.9913C40.1445 45.9913 41.7466 45.6991 43.4299 47.8812C44.3221 49.0388 44.7916 50.8682 44.7916 50.8682C44.7916 50.8682 43.4666 48.5462 43.0672 47.9853C42.3652 47.0023 40.1456 45.9913 40.1456 45.9913H40.1445Z" fill="#C1A6A3"/>
</g>
<g style="mix-blend-mode:multiply">
<path d="M43.859 39.8571C43.859 39.8571 42.3137 38.4778 40.8885 38.6368C40.1654 38.7185 40.3623 39.0611 40.4624 39.1316C41.0254 39.5224 43.0391 41.2544 43.0391 41.2544C43.0391 41.2544 42.0889 39.8392 40.9408 39.0286C41.6884 38.7958 43.859 39.8571 43.859 39.8571Z" fill="#C1A6A3"/>
</g>
<g style="mix-blend-mode:multiply">
<path d="M41.1017 51.1034C40.383 54.6872 38.1067 57.4783 34.4142 57.4783C30.7216 57.4783 28.6579 54.6883 27.7278 51.1034L27.1904 49.8539C27.1904 49.8539 27.4552 50.1685 28.7313 50.0476C30.567 49.8729 31.3614 49.555 32.831 49.5012C33.3751 49.4822 33.8935 50.1584 34.3519 50.1584C34.8102 50.1584 35.3643 49.4889 36.0029 49.5147C36.9419 49.5539 37.9498 49.911 38.8944 50.0778C40.8758 50.4271 41.6379 49.8539 41.6379 49.8539L41.1017 51.1034Z" fill="#F5AEA8"/>
</g>
<g style="mix-blend-mode:multiply">
<path d="M34.2793 83.578L37.3165 82.9757V72.8591L36.2641 81.7665L34.2793 83.578Z" fill="#C8ABBA"/>
</g>
<path d="M41.6381 49.854C41.3911 52.7716 38.3995 55.3702 34.4143 55.3702C30.9732 55.3702 27.7847 53.2318 27.1895 49.854C27.1895 49.854 28.2686 51.0979 34.609 51.0979C40.5422 51.0979 41.637 49.854 41.637 49.854H41.6381Z" fill="#552216"/>
<path d="M34.0875 53.2721C28.8363 53.0907 27.39 50.0857 28.1265 50.3477C29.0978 50.6959 31.0013 51.0978 34.6093 51.0978C37.8134 51.0978 39.6057 50.7351 40.5781 50.4015C41.4058 50.1171 39.3532 53.4557 34.0875 53.2721Z" fill="white"/>
<path d="M68.9974 88C68.9987 87.8958 69 87.7917 69 87.6862C65.7342 79.3648 60.9964 70.5424 56.9043 69.6998C56.7883 69.6761 56.6737 69.6603 56.5617 69.6484C56.5603 69.6379 56.559 69.63 56.559 69.63L44.6913 66C44.6913 66 45.6732 74.001 35.4423 74.001C35.1998 74.001 34.4723 73.9759 34.2404 73.968C34.0097 73.9772 33.7976 74.001 33.5564 74.001C23.3268 74.001 24.3074 66 24.3074 66L12.4397 69.63C12.4397 69.63 12.4397 69.6366 12.437 69.6484C12.325 69.6603 12.2103 69.6761 12.0944 69.6998C8.00361 70.5424 3.26576 79.3661 0 87.6862C0 87.7917 0.00131796 87.8958 0.00263586 88H68.996H68.9974Z" fill="#AE8FF7"/>
<g style="mix-blend-mode:soft-light">
<path d="M34.408 55.6253C36.3171 55.5917 37.9403 54.7722 37.9459 55.1461C37.9514 55.5212 36.3705 56.5086 34.4614 56.5456C32.5511 56.5803 31.037 55.6488 31.0303 55.2737C31.0247 54.9009 32.4977 55.6622 34.408 55.6264V55.6253Z" fill="#F8C0A8"/>
</g>
<path d="M35.6855 78.9045C35.6855 79.6188 35.1092 80.1988 34.3994 80.1988C33.6896 80.1988 33.1133 79.6188 33.1133 78.9045C33.1133 78.1903 33.6885 77.6125 34.3994 77.6125C35.1103 77.6125 35.6855 78.1903 35.6855 78.9045Z" fill="#D9C9FF"/>
<path d="M35.7391 83.9258C35.7391 84.6401 35.1628 85.2201 34.453 85.2201C33.7432 85.2201 33.168 84.6401 33.168 83.9258C33.168 83.2115 33.7432 82.6316 34.453 82.6316C35.1628 82.6316 35.7391 83.2104 35.7391 83.9258Z" fill="#D9C9FF"/>
<path d="M28.0131 31.6652C28.8987 32.1186 28.3635 33.1038 27.2688 33.0445C25.5532 32.9527 22.6462 32.8631 20.4177 33.1397C17.0434 33.5584 21.8874 29.8682 25.6979 30.8568C26.7715 31.1356 27.5124 31.4088 28.0131 31.6652Z" fill="#E5DADA"/>
<path d="M40.1625 31.6652C39.2769 32.1186 39.812 33.1038 40.9067 33.0445C42.6223 32.9527 45.5294 32.8631 47.7578 33.1397C51.1321 33.5584 46.2881 29.8682 42.4777 30.8568C41.4041 31.1356 40.6631 31.4088 40.1625 31.6652Z" fill="#E5DADA"/>
</svg>
