<svg width="155" height="155" viewBox="0 0 155 155" fill="none" xmlns="http://www.w3.org/2000/svg">
<circle cx="77.4194" cy="77.4198" r="77.4194" fill="#DCCEFF"/>
<path d="M91.5897 34.4352C81.7778 34.6676 73.9053 42.8944 74.084 52.7073C74.1749 57.694 76.3014 62.1819 79.6665 65.3788V65.259C79.6665 64.76 80.0723 64.3542 80.5711 64.3542H83.8711C84.37 64.3542 84.7758 64.76 84.7758 65.259V68.7854C85.8489 69.2598 86.9756 69.635 88.1467 69.8932C88.4626 69.9627 88.7372 70.1557 88.8989 70.4358L91.4368 74.8315C91.6981 75.2842 92.3516 75.2842 92.6129 74.8315L95.1508 70.4358C95.3126 70.1559 95.5872 69.9629 95.9028 69.8934C97.6924 69.4991 99.3811 68.8362 100.926 67.9518C100.911 67.5565 100.911 67.1588 100.93 66.7594C101.195 61.2497 104.842 56.5837 109.808 54.7786C109.914 53.9921 109.969 53.1897 109.969 52.3743C109.969 42.319 101.699 34.1958 91.5897 34.4352Z" fill="#AE8FF7"/>
<path d="M93.952 67.0345C93.7903 66.7545 93.5157 66.5615 93.1999 66.492C85.259 64.742 79.2907 57.7361 79.137 49.3062C79.0422 44.1033 81.211 39.3465 84.7319 35.9906C78.3643 38.8529 73.9497 45.3322 74.084 52.708C74.1749 57.6947 76.3012 62.1826 79.6665 65.3795V65.2597C79.6665 64.7607 80.0723 64.3549 80.5711 64.3549H83.8712C84.37 64.3549 84.7758 64.7607 84.7758 65.2597V68.7861C85.8489 69.2605 86.9756 69.6357 88.1467 69.8939C88.4626 69.9635 88.7372 70.1564 88.8989 70.4365L91.4368 74.8322C91.6981 75.2849 92.3516 75.2849 92.6129 74.8322L95.1508 70.4365C95.2678 70.234 95.4442 70.0779 95.6522 69.9802L93.952 67.0345Z" fill="#7732EF"/>
<path d="M92.0244 45.5933C92.8334 45.5933 93.4893 44.9377 93.4893 44.1285V43.1586C93.4893 42.3494 92.8334 41.6937 92.0244 41.6937C91.2154 41.6937 90.5596 42.3494 90.5596 43.1586V44.1285C90.5596 44.9377 91.2154 45.5933 92.0244 45.5933Z" fill="white"/>
<path d="M93.5086 58.667H93.4897V49.4633C93.4897 48.6541 92.8338 47.9984 92.0248 47.9984H90.541C89.732 47.9984 89.0762 48.6541 89.0762 49.4633C89.0762 50.2724 89.732 50.9281 90.541 50.9281H90.56V58.667H90.541C89.732 58.667 89.0762 59.3226 89.0762 60.1318C89.0762 60.941 89.732 61.5967 90.541 61.5967H93.5086C94.3176 61.5967 94.9734 60.941 94.9734 60.1318C94.9734 59.3226 94.3176 58.667 93.5086 58.667Z" fill="white"/>
<path d="M49.3631 96.266H40.0908V117.559C40.0908 118.67 40.9916 119.571 42.1029 119.571H45.2336C46.1119 119.571 46.8889 119.001 47.1527 118.163L53.5322 97.9054L49.3631 96.266Z" fill="#AE8FF7"/>
<path d="M45.2031 117.559V96.266H40.0908V117.559C40.0908 118.67 40.9916 119.571 42.1029 119.571H45.2336C45.5898 119.571 45.9285 119.476 46.224 119.308C45.6148 118.962 45.2031 118.309 45.2031 117.559Z" fill="#7732EF"/>
<path d="M49.5264 79.2875H34.7463C31.0203 79.2875 28 82.3078 28 86.0338V89.7205C28 93.4463 31.0203 96.4668 34.7463 96.4668H49.5266V79.2875H49.5264Z" fill="#936FE9"/>
<path d="M33.1309 89.7205V86.0338C33.1309 82.308 36.1512 79.2875 39.8771 79.2875H34.7463C31.0203 79.2875 28 82.3078 28 86.0338V89.7205C28 93.4463 31.0203 96.4668 34.7463 96.4668H39.8771C36.1512 96.4666 33.1309 93.4463 33.1309 89.7205Z" fill="#AE8FF7"/>
<path d="M85.5123 79.2875H84.7705V96.4666H85.5123C90.2563 96.4666 94.1019 92.6209 94.1019 87.8769C94.1019 83.1332 90.2563 79.2875 85.5123 79.2875Z" fill="#AE8FF7"/>
<path d="M85.5123 91.3619H84.7705V96.4666H85.5123C90.2563 96.4666 94.1019 92.6209 94.1019 87.8769C94.1019 86.9881 93.967 86.1308 93.7164 85.3246C92.6293 88.8222 89.3674 91.3619 85.5123 91.3619Z" fill="#7732EF"/>
<path d="M79.6729 67.3558L49.3252 79.2888V96.4679L79.6729 108.401V67.3558Z" fill="#AE8FF7"/>
<path d="M56.1031 91.426V76.6234L49.3252 79.2886V96.4677L79.6729 108.401V100.694L56.1031 91.426Z" fill="#7732EF"/>
<path d="M41.7689 86.7015H36.709C35.9 86.7015 35.2441 86.0459 35.2441 85.2367C35.2441 84.4275 35.9 83.7719 36.709 83.7719H41.7691C42.5781 83.7719 43.234 84.4275 43.234 85.2367C43.234 86.0459 42.5779 86.7015 41.7689 86.7015Z" fill="white"/>
<path d="M41.7689 91.9808H36.709C35.9 91.9808 35.2441 91.3252 35.2441 90.516C35.2441 89.7068 35.9 89.0511 36.709 89.0511H41.7691C42.5781 89.0511 43.234 89.7068 43.234 90.516C43.234 91.3252 42.5779 91.9808 41.7689 91.9808Z" fill="white"/>
<path d="M83.8717 111.597H80.5717C79.9641 111.597 79.4717 111.104 79.4717 110.497V65.2586C79.4717 64.6509 79.9643 64.1586 80.5717 64.1586H83.8717C84.4793 64.1586 84.9717 64.6511 84.9717 65.2586V110.497C84.9719 111.104 84.4793 111.597 83.8717 111.597Z" fill="white"/>
<path d="M113.928 53.7883C106.866 54.0067 101.075 59.6934 100.736 66.7504C100.591 69.7543 101.423 72.5553 102.935 74.8705L100.842 79.9508C100.637 80.4471 101.133 80.9434 101.63 80.7389L106.647 78.6711C108.852 80.1858 111.523 81.0707 114.403 81.0619C122.035 81.0383 128.228 74.6235 127.993 66.9951C127.764 59.5168 121.514 53.5539 113.928 53.7883Z" fill="#AE8FF7"/>
<path d="M106.403 78.7721L107.813 75.3487C107.934 75.0573 107.912 74.7252 107.75 74.4555C106.51 72.4016 105.795 69.9959 105.795 67.4219C105.795 60.7563 110.577 55.2108 116.897 54.0211C116.075 53.8662 115.228 53.7819 114.36 53.7819C106.827 53.7819 100.72 59.8887 100.72 67.4221C100.72 70.1715 101.536 72.7289 102.935 74.8709L100.842 79.9512C100.637 80.4475 101.133 80.9438 101.63 80.7393L106.403 78.7721Z" fill="#7732EF"/>
<path d="M119.42 64.0472H109.3C108.491 64.0472 107.835 63.3916 107.835 62.5824C107.835 61.7732 108.491 61.1176 109.3 61.1176H119.42C120.229 61.1176 120.885 61.7732 120.885 62.5824C120.885 63.3916 120.229 64.0472 119.42 64.0472Z" fill="#EAF6FF"/>
<path d="M119.42 68.8871H109.3C108.491 68.8871 107.835 68.2314 107.835 67.4222C107.835 66.6131 108.491 65.9574 109.3 65.9574H119.42C120.229 65.9574 120.885 66.6131 120.885 67.4222C120.885 68.2314 120.229 68.8871 119.42 68.8871Z" fill="#EAF6FF"/>
<path d="M119.42 73.7272H109.3C108.491 73.7272 107.835 73.0715 107.835 72.2623C107.835 71.4531 108.491 70.7975 109.3 70.7975H119.42C120.229 70.7975 120.885 71.4531 120.885 72.2623C120.885 73.0715 120.229 73.7272 119.42 73.7272Z" fill="#EAF6FF"/>
<path d="M101.332 102.864H99.5248V101.057C99.5248 100.248 98.8689 99.5923 98.06 99.5923C97.251 99.5923 96.5951 100.248 96.5951 101.057V102.864H94.7881C93.9791 102.864 93.3232 103.52 93.3232 104.329C93.3232 105.138 93.9791 105.794 94.7881 105.794H96.5951V107.601C96.5951 108.41 97.251 109.066 98.06 109.066C98.8689 109.066 99.5248 108.41 99.5248 107.601V105.794H101.332C102.141 105.794 102.797 105.138 102.797 104.329C102.797 103.52 102.141 102.864 101.332 102.864Z" fill="#7732EF"/>
<path d="M63.6866 54.8016L65.1356 57.7377C65.2235 57.9158 65.3935 58.0393 65.5901 58.068L68.8304 58.5389C69.3255 58.6107 69.5231 59.2193 69.1649 59.5686L66.8204 61.8539C66.6782 61.9926 66.6132 62.1924 66.6468 62.3883L67.2003 65.6154C67.2849 66.1086 66.7673 66.4846 66.3245 66.2518L63.4265 64.7281C63.2507 64.6357 63.0405 64.6357 62.8647 64.7281L59.9667 66.2518C59.5239 66.4846 59.0064 66.1086 59.0909 65.6154L59.6444 62.3883C59.678 62.1924 59.6132 61.9926 59.4708 61.8539L57.1263 59.5686C56.7681 59.2193 56.9657 58.6109 57.4608 58.5389L60.7011 58.068C60.8978 58.0395 61.0677 57.916 61.1556 57.7377L62.6046 54.8016C62.8255 54.3529 63.4653 54.3529 63.6866 54.8016Z" fill="#AE8FF7"/>
<path d="M62.3743 64.7697L62.9278 61.5426C62.9614 61.3467 62.8966 61.1469 62.7542 61.0082L60.4097 58.7228C60.239 58.5564 60.1956 58.3312 60.2495 58.1332L57.4608 58.5385C56.9657 58.6103 56.7681 59.2189 57.1263 59.5679L59.4708 61.8533C59.613 61.992 59.678 62.1918 59.6444 62.3877L59.0909 65.6148C59.0064 66.108 59.5239 66.484 59.9667 66.2511L62.3765 64.9842C62.364 64.9164 62.3614 64.8447 62.3743 64.7697Z" fill="#7732EF"/>
<path d="M109.159 86.8077L110.608 89.7438C110.696 89.9219 110.866 90.0454 111.063 90.0741L114.303 90.545C114.798 90.6169 114.996 91.2255 114.638 91.5747L112.293 93.86C112.151 93.9987 112.086 94.1985 112.119 94.3944L112.673 97.6216C112.758 98.1147 112.24 98.4907 111.797 98.2579L108.899 96.7343C108.723 96.6419 108.513 96.6419 108.337 96.7343L105.439 98.2579C104.997 98.4907 104.479 98.1147 104.564 97.6216L105.117 94.3944C105.151 94.1985 105.086 93.9987 104.943 93.86L102.599 91.5747C102.241 91.2255 102.438 90.6171 102.933 90.545L106.174 90.0741C106.37 90.0456 106.54 89.9219 106.628 89.7438L108.077 86.8077C108.298 86.3589 108.938 86.3589 109.159 86.8077Z" fill="#AE8FF7"/>
</svg>
