<svg width="115" height="18" viewBox="0 0 115 18" fill="none" xmlns="http://www.w3.org/2000/svg">
<g clip-path="url(#clip0_91_15667)">
<path d="M59.6381 7.95502H56.5628C55.8567 7.95502 55.2861 8.48756 55.2861 9.14082C55.2861 9.79407 55.8618 10.3242 56.5679 10.3242H59.6406C60.3468 10.3242 60.9199 9.7917 60.9199 9.13845C60.9199 8.48519 60.3468 7.95502 59.6406 7.95502H59.6381Z" fill="#7732EF"/>
<path d="M87.2895 7.88165H87.2792C86.2635 7.88875 85.2401 7.89585 84.2091 7.90059C83.503 7.90532 82.9324 8.43787 82.9375 9.09112C82.9427 9.74201 83.5132 10.2675 84.2168 10.2675H84.2244C85.2555 10.2627 86.2814 10.2556 87.2971 10.2485C88.0033 10.2438 88.5713 9.70887 88.5661 9.05562C88.561 8.40473 87.9905 7.88165 87.2869 7.88165H87.2895Z" fill="#7732EF"/>
<path d="M22.7808 8.08521H22.7654C21.7293 8.09704 20.7033 8.10887 19.6902 8.12071C18.984 8.13018 18.4186 8.66745 18.4288 9.32071C18.4391 9.96923 19.0096 10.4876 19.7081 10.4876C19.7132 10.4876 19.7209 10.4876 19.726 10.4876C20.7366 10.4757 21.76 10.4615 22.7961 10.4521C23.5023 10.445 24.0677 9.90769 24.06 9.25444C24.0523 8.60591 23.4818 8.08521 22.7808 8.08521Z" fill="#7732EF"/>
<path d="M96.5073 7.79169H96.4894C95.4788 7.80352 94.4554 7.81772 93.4192 7.82719C92.7131 7.83429 92.1477 8.37157 92.1554 9.02482C92.163 9.67334 92.7336 10.1941 93.4346 10.1941H93.4499C94.4861 10.1822 95.512 10.1704 96.5252 10.1586C97.2313 10.1491 97.7967 9.61181 97.7865 8.95855C97.7763 8.31003 97.2057 7.79169 96.5073 7.79169Z" fill="#7732EF"/>
<path d="M13.537 8.22009C12.4931 8.23903 11.4672 8.26033 10.4617 8.284C9.75559 8.30057 9.19785 8.84258 9.2132 9.49583C9.23111 10.1396 9.79909 10.6509 10.4924 10.6509C10.5027 10.6509 10.5129 10.6509 10.5231 10.6509C11.526 10.6272 12.5494 10.6059 13.5907 10.587C14.2969 10.5728 14.8572 10.0331 14.8418 9.37986C14.8265 8.7266 14.2431 8.20116 13.537 8.22246V8.22009Z" fill="#7732EF"/>
<path d="M41.2117 7.97632H41.2091C40.1806 7.97869 39.1547 7.98105 38.1364 7.98579C37.4303 7.98579 36.8598 8.5207 36.8623 9.17395C36.8623 9.82484 37.438 10.3526 38.1415 10.3526H38.1467C39.1649 10.3503 40.1883 10.3455 41.2168 10.3432C41.9229 10.3432 42.4935 9.81064 42.4935 9.15738C42.4935 8.50413 41.9204 7.97632 41.2142 7.97632H41.2117Z" fill="#7732EF"/>
<path d="M68.8558 7.94794H65.7831C65.077 7.95267 64.5039 8.48285 64.5039 9.1361C64.5039 9.78936 65.077 10.3195 65.7831 10.3195H68.8558C69.562 10.3148 70.1351 9.78462 70.1325 9.13137C70.1325 8.47811 69.5594 7.9503 68.8533 7.9503L68.8558 7.94794Z" fill="#7732EF"/>
<path d="M31.9959 8.01184H31.9882C30.9546 8.01657 29.9312 8.02368 28.9155 8.03078C28.2094 8.03551 27.6414 8.57042 27.6465 9.22368C27.6516 9.87456 28.2247 10.3976 28.9257 10.3976H28.936C29.9517 10.3905 30.9751 10.3834 32.0061 10.3787C32.7123 10.374 33.2828 9.84143 33.2777 9.18817C33.2726 8.53728 32.702 8.01184 31.9985 8.01184H31.9959Z" fill="#7732EF"/>
<path d="M4.30358 8.45444C3.24693 8.48994 2.21843 8.52781 1.2232 8.56805C0.517062 8.59645 -0.0304474 9.1503 0.000254029 9.80119C0.0309555 10.4355 0.596374 10.9325 1.27692 10.9325C1.29483 10.9325 1.3153 10.9325 1.33321 10.9325C2.32333 10.8923 3.34416 10.8544 4.39312 10.8213C5.09926 10.7976 5.65188 10.2485 5.6263 9.59527C5.60071 8.94202 5.01227 8.43314 4.30102 8.45444H4.30358Z" fill="#7732EF"/>
<path d="M50.4224 7.96214H47.3548C46.6487 7.96688 46.0756 8.49706 46.0781 9.15031C46.0781 9.80356 46.6512 10.3314 47.3574 10.3314H50.4224C51.1285 10.3266 51.7016 9.79646 51.7016 9.14321C51.7016 8.48996 51.1285 7.95978 50.4224 7.95978V7.96214Z" fill="#7732EF"/>
<path d="M78.0736 7.92902H78.0685L74.9984 7.93848C74.2922 7.93848 73.7217 8.47103 73.7217 9.12428C73.7217 9.77754 74.2948 10.3053 75.0009 10.3053H75.0035L78.0762 10.2959C78.7823 10.2959 79.3528 9.76097 79.3503 9.10771C79.3503 8.45683 78.7746 7.92902 78.0711 7.92902H78.0736Z" fill="#7732EF"/>
<path d="M101.03 8.90651L97.7914 18.0024C102.146 14.2793 109.248 10.6817 114.997 8.53254C109.125 6.69586 101.811 3.48639 97.2285 0L101.03 8.90651Z" fill="#7732EF"/>
</g>
<defs>
<clipPath id="clip0_91_15667">
<rect width="115" height="18" fill="white"/>
</clipPath>
</defs>
</svg>
