<svg width="18" height="69" viewBox="0 0 18 69" fill="none" xmlns="http://www.w3.org/2000/svg">
<path d="M10.0469 13.5598L10.0469 10.4846C10.0469 9.77842 9.51433 9.20789 8.86108 9.20789C8.20782 9.20789 7.67764 9.78354 7.67764 10.4897L7.67764 13.5624C7.67764 14.2685 8.21019 14.8416 8.86344 14.8416C9.5167 14.8416 10.0469 14.2685 10.0469 13.5624L10.0469 13.5598Z" fill="#7732EF"/>
<path d="M10.1201 41.2116L10.1201 41.2014C10.113 40.1856 10.1059 39.1623 10.1012 38.1312C10.0964 37.4251 9.5639 36.8545 8.91065 36.8597C8.25976 36.8648 7.73432 37.4353 7.73432 38.1389L7.73432 38.1466C7.73905 39.1776 7.74615 40.2035 7.75325 41.2193C7.75799 41.9254 8.2929 42.4934 8.94615 42.4883C9.59704 42.4831 10.1201 41.9126 10.1201 41.209L10.1201 41.2116Z" fill="#7732EF"/>
<path d="M10.21 50.4296L10.21 50.4117C10.1981 49.4011 10.1839 48.3778 10.1745 47.3416C10.1674 46.6355 9.63008 46.07 8.97682 46.0777C8.3283 46.0854 7.80759 46.6559 7.80759 47.3569L7.80759 47.3723C7.81943 48.4085 7.83126 49.4344 7.8431 50.4476C7.85256 51.1537 8.38984 51.7191 9.0431 51.7089C9.69162 51.6986 10.21 51.1281 10.21 50.4296Z" fill="#7732EF"/>
<path d="M10.0537 22.778L10.0537 19.7053C10.049 18.9991 9.5188 18.426 8.86555 18.426C8.21229 18.426 7.68211 18.9991 7.68211 19.7053L7.68211 22.778C7.68685 23.4841 8.21702 24.0572 8.87028 24.0546C9.52353 24.0546 10.0513 23.4815 10.0513 22.7754L10.0537 22.778Z" fill="#7732EF"/>
<path d="M10.0396 4.34426L10.0396 1.27668C10.0349 0.570542 9.50471 -0.00254995 8.85146 8.48104e-06C8.19821 8.45249e-06 7.67039 0.573102 7.67039 1.27924L7.67039 4.34426C7.67513 5.0504 8.20531 5.62349 8.85856 5.62349C9.51181 5.62349 10.042 5.0504 10.042 4.34426L10.0396 4.34426Z" fill="#7732EF"/>
<path d="M10.0732 31.996L10.0732 31.9909L10.0638 28.9207C10.0638 28.2146 9.53123 27.644 8.87798 27.644C8.22472 27.644 7.69691 28.2171 7.69691 28.9233L7.69691 28.9258L7.70638 31.9985C7.70638 32.7047 8.24129 33.2752 8.89454 33.2726C9.54543 33.2726 10.0732 32.697 10.0732 31.9934L10.0732 31.996Z" fill="#7732EF"/>
<path d="M9.09544 54.953L-0.000413919 51.714C3.72266 56.0685 7.3203 63.1707 9.46941 68.9196C11.3061 63.0479 14.5156 55.7333 18.002 51.1511L9.09544 54.953Z" fill="#7732EF"/>
</svg>
