<svg width="218" height="155" viewBox="0 0 218 155" fill="none" xmlns="http://www.w3.org/2000/svg">
<g opacity="0.05">
<path d="M37.5862 150C35.5816 138 11.6935 100 0 82.5C14.0322 88.5 30.9042 101.667 37.5862 107.5C97.7241 29.5 182.92 3.33333 218 0C115.766 38 55.1264 115.833 37.5862 150Z" fill="#AE8FF7"/>
<path d="M52.6207 70L20.046 20H50.1149L72.6667 52.5L52.6207 70Z" fill="#AE8FF7"/>
<path d="M110.253 155L75.1724 105L95.2184 85L142.828 155H110.253Z" fill="#AE8FF7"/>
<path d="M37.5862 150C35.5816 138 11.6935 100 0 82.5C14.0322 88.5 30.9042 101.667 37.5862 107.5C97.7241 29.5 182.92 3.33333 218 0C115.766 38 55.1264 115.833 37.5862 150Z" stroke="black"/>
<path d="M52.6207 70L20.046 20H50.1149L72.6667 52.5L52.6207 70Z" stroke="black"/>
<path d="M110.253 155L75.1724 105L95.2184 85L142.828 155H110.253Z" stroke="black"/>
</g>
</svg>
