<svg width="45" height="45" viewBox="0 0 45 45" fill="none" xmlns="http://www.w3.org/2000/svg">
<path d="M26.151 25.5263C25.8859 25.527 25.6235 25.5781 25.378 25.6768C25.3071 25.4027 25.1786 25.1464 25.001 24.9244C24.8234 24.7025 24.6005 24.5199 24.3468 24.3884C24.0931 24.257 23.8143 24.1797 23.5285 24.1616C23.2426 24.1435 22.9561 24.1849 22.6875 24.2831V20.0526C22.6875 19.5082 22.4685 18.9861 22.0788 18.6012C21.6891 18.2163 21.1605 18 20.6094 18C20.0582 18 19.5296 18.2163 19.1399 18.6012C18.7502 18.9861 18.5312 19.5082 18.5312 20.0526V31.2449L18.2258 30.9028C18.2001 30.8744 18.172 30.8481 18.1419 30.8242C17.6459 30.441 17.0245 30.2516 16.3961 30.2921C15.7677 30.3326 15.1765 30.6002 14.7351 31.0438C14.2937 31.4874 14.0331 32.0759 14.0029 32.6972C13.9728 33.3185 14.1753 33.9289 14.5717 34.4122L17.9196 39.3474C17.9449 39.3844 17.9736 39.419 18.0055 39.4507C18.4439 39.8844 18.9446 40.2521 19.4913 40.542V44H20.8767V40.1123C20.8768 39.9785 20.8371 39.8476 20.7626 39.7359C20.6881 39.6241 20.5821 39.5364 20.4577 39.4835C19.9276 39.2526 19.4445 38.9282 19.0321 38.5263L15.7022 33.6185C15.687 33.5945 15.6701 33.5716 15.6517 33.5501C15.4697 33.3388 15.3693 33.0707 15.3683 32.7933C15.3671 32.5791 15.4261 32.3687 15.5388 32.1857C15.6515 32.0026 15.8135 31.8541 16.0066 31.7567C16.1998 31.6593 16.4166 31.6168 16.6328 31.6339C16.849 31.6511 17.0561 31.7273 17.231 31.8539L18.7058 33.5022C18.7988 33.6057 18.9214 33.6789 19.0574 33.7122C19.1935 33.7455 19.3365 33.7372 19.4677 33.6885C19.5989 33.6398 19.712 33.553 19.7921 33.4395C19.8723 33.3259 19.9157 33.191 19.9167 33.0526V20.0526C19.9167 19.8712 19.9896 19.6971 20.1195 19.5688C20.2495 19.4405 20.4256 19.3684 20.6094 19.3684C20.7931 19.3684 20.9693 19.4405 21.0992 19.5688C21.2291 19.6971 21.3021 19.8712 21.3021 20.0526V30.3158H22.6875V26.2105C22.6875 26.0291 22.7605 25.855 22.8904 25.7267C23.0203 25.5984 23.1965 25.5263 23.3802 25.5263C23.5639 25.5263 23.7401 25.5984 23.87 25.7267C23.9999 25.855 24.0729 26.0291 24.0729 26.2105V30.3158H25.4583V27.5789C25.4583 27.3975 25.5313 27.2235 25.6612 27.0951C25.7911 26.9668 25.9673 26.8947 26.151 26.8947C26.3347 26.8947 26.5109 26.9668 26.6408 27.0951C26.7708 27.2235 26.8437 27.3975 26.8437 27.5789V30.3158H28.2291V28.9474C28.2291 28.7659 28.3021 28.5919 28.432 28.4636C28.5619 28.3352 28.7381 28.2632 28.9219 28.2632C29.1056 28.2632 29.2818 28.3352 29.4117 28.4636C29.5416 28.5919 29.6146 28.7659 29.6146 28.9474L29.6021 34.7365C29.6255 35.6039 29.4145 36.4618 28.9908 37.2219C28.5671 37.9821 27.946 38.617 27.1915 39.0614C27.0861 39.1215 26.9986 39.208 26.9378 39.3121C26.877 39.4162 26.845 39.5344 26.8451 39.6546V44H28.2305V40.0316C29.0989 39.4438 29.8056 38.6519 30.287 37.7272C30.7684 36.8025 31.0094 35.774 30.9882 34.7344L31 28.9474C31.0015 28.6114 30.9193 28.2803 30.7605 27.9832C30.6018 27.6861 30.3713 27.4322 30.0896 27.244C29.8079 27.0558 29.4836 26.939 29.1453 26.904C28.8071 26.8689 28.4653 26.9168 28.1502 27.0432C28.0313 26.6089 27.7713 26.2252 27.4101 25.9512C27.0489 25.6771 26.6065 25.5278 26.151 25.5263Z" fill="white" stroke="white" stroke-width="0.5"/>
<path d="M23.75 17C23.915 16.7313 24.0001 16.4411 24 16.1477C24.0011 15.829 23.9025 15.5141 23.7116 15.226C23.5207 14.9379 23.2421 14.6838 22.8963 14.4823C22.5505 14.2809 22.1461 14.137 21.7125 14.0613C21.279 13.9856 20.8273 13.9799 20.3903 14.0447C19.9533 14.1095 19.5421 14.2431 19.1866 14.4358C18.831 14.6284 18.5402 14.8753 18.3352 15.1585C18.1302 15.4416 18.0162 15.7538 18.0016 16.0724C17.987 16.391 18.0721 16.7079 18.2507 17C18.5511 16.7248 18.929 16.4977 19.36 16.3334C19.344 16.2721 19.3351 16.21 19.3333 16.1477C19.329 15.9817 19.3734 15.8168 19.4636 15.6638C19.5538 15.5107 19.6878 15.3728 19.8571 15.259C20.0264 15.1452 20.2271 15.0579 20.4465 15.0027C20.6658 14.9476 20.8989 14.9259 21.1307 14.9389C21.3625 14.952 21.5879 14.9995 21.7924 15.0785C21.9969 15.1575 22.1761 15.2662 22.3183 15.3975C22.4605 15.5289 22.5626 15.6801 22.6182 15.8414C22.6737 16.0026 22.6813 16.1704 22.6407 16.3339C23.0715 16.4982 23.4494 16.7251 23.75 17Z" fill="white" stroke="white" stroke-width="0.5"/>
<path d="M17.0017 11.3582C16.6979 11.178 16.3421 11.1307 16.0072 11.2259C15.6723 11.3212 15.3837 11.5517 15.2007 11.8704L14.1851 13.6913C14.0953 13.8514 14.0367 14.0296 14.0126 14.2151C13.9885 14.4006 13.9996 14.5895 14.0451 14.7702C14.0905 14.9547 14.1701 15.1273 14.2791 15.2774C14.3882 15.4274 14.5243 15.5517 14.6792 15.6427L14.9907 15.8294C14.9307 16.3331 14.9307 16.8431 14.9907 17.3468L14.6792 17.5335C14.5243 17.6245 14.3882 17.7488 14.2791 17.8988C14.1701 18.0489 14.0905 18.2214 14.0451 18.406C13.9994 18.5868 13.9883 18.7758 14.0124 18.9615C14.0364 19.1471 14.0952 19.3255 14.1851 19.4857L15.1993 21.3066C15.3822 21.6255 15.6709 21.8564 16.0059 21.9518C16.341 22.0472 16.6971 21.9999 17.001 21.8195L17.3236 21.6207V20.381C17.3236 20.2838 17.3439 20.1936 17.3502 20.098C17.1223 20.0921 16.8969 20.1501 16.6958 20.2664L16.3661 20.4629L15.4429 18.8059L15.7194 18.6404C15.9493 18.5061 16.1362 18.2992 16.2553 18.0472C16.3744 17.7952 16.4201 17.51 16.3864 17.2292C16.3583 17.0166 16.3443 16.8021 16.3444 16.5873C16.3444 16.3723 16.3589 16.1575 16.3878 15.9447C16.4211 15.6641 16.3751 15.3791 16.2561 15.1273C16.137 14.8756 15.9504 14.6688 15.7208 14.5342L15.4408 14.3688L16.364 12.7118L16.6937 12.9083C16.9236 13.042 17.1838 13.1022 17.4441 13.0818C17.7043 13.0613 17.9538 12.9612 18.1636 12.793C18.4816 12.54 18.8278 12.3315 19.1939 12.1723C19.442 12.071 19.6561 11.891 19.8083 11.6558C19.9605 11.4205 20.0437 11.141 20.0471 10.8537V10.5175H21.9419V10.8537C21.9452 11.1408 22.0282 11.4202 22.1802 11.6554C22.3321 11.8907 22.5459 12.0708 22.7937 12.1723C23.1617 12.3315 23.5098 12.5402 23.8296 12.7937C24.0392 12.9623 24.2887 13.0628 24.549 13.0833C24.8093 13.1039 25.0696 13.0437 25.2995 12.9098L25.6285 12.7133L26.5524 14.3703L26.2725 14.5358C26.0427 14.6703 25.8559 14.8772 25.7368 15.1291C25.6177 15.3811 25.5719 15.6662 25.6054 15.947C25.6338 16.1596 25.648 16.3741 25.6481 16.5889C25.6481 16.8039 25.6336 17.0187 25.6047 17.2315C25.5717 17.5121 25.6177 17.797 25.7367 18.0487C25.8558 18.3004 26.0423 18.5072 26.2718 18.642L26.5517 18.8074L25.6278 20.4644L25.2988 20.2679C25.0975 20.1516 24.8718 20.0935 24.6437 20.0995C24.65 20.1951 24.6703 20.2854 24.6703 20.3825V21.6253L24.993 21.818C25.2967 21.9982 25.6525 22.0455 25.9874 21.9503C26.3223 21.855 26.6109 21.6245 26.7939 21.3058L27.8095 19.4849C27.8991 19.3247 27.9577 19.1465 27.9818 18.961C28.0059 18.7756 27.9949 18.5867 27.9495 18.406C27.9039 18.2215 27.8241 18.049 27.7149 17.8989C27.6058 17.7489 27.4696 17.6246 27.3147 17.5335L27.0088 17.3461C27.0688 16.8423 27.0688 16.3323 27.0088 15.8286L27.3203 15.642C27.4752 15.5509 27.6114 15.4265 27.7205 15.2765C27.8297 15.1265 27.9095 14.954 27.9551 14.7694C28.0006 14.5886 28.0117 14.3996 27.9876 14.214C27.9635 14.0284 27.9049 13.85 27.8151 13.6898L26.8009 11.8688C26.6183 11.5496 26.3296 11.3185 25.9944 11.2231C25.6592 11.1276 25.3031 11.1752 24.9993 11.3559L24.6598 11.5653C24.2544 11.2443 23.8144 10.978 23.3495 10.7725V10.4121C23.3447 10.0329 23.2013 9.67125 22.9508 9.40653C22.7003 9.14181 22.3631 8.99564 22.0133 9.0001H19.9834C19.6343 8.99726 19.2983 9.14449 19.0491 9.40954C18.7998 9.6746 18.6576 10.0359 18.6535 10.4144V10.7755C18.1919 10.9728 17.7602 11.2439 17.3726 11.5798L17.0017 11.3582Z" fill="white" stroke="white" stroke-width="0.5"/>
<path d="M40.5 1C39.8078 1 39.1311 1.20527 38.5555 1.58986C37.9799 1.97444 37.5313 2.52107 37.2664 3.16061C37.0015 3.80015 36.9322 4.50388 37.0673 5.18282C37.2023 5.86175 37.5356 6.48539 38.0251 6.97487C38.5146 7.46436 39.1383 7.7977 39.8172 7.93275C40.4961 8.0678 41.1999 7.99848 41.8394 7.73358C42.4789 7.46867 43.0256 7.02007 43.4101 6.44449C43.7947 5.86892 44 5.19223 44 4.5C43.9989 3.57208 43.6298 2.68249 42.9736 2.02635C42.3175 1.37022 41.4279 1.00111 40.5 1ZM40.5 6.6C40.0847 6.6 39.6786 6.47684 39.3333 6.24608C38.988 6.01533 38.7188 5.68736 38.5599 5.30363C38.4009 4.91991 38.3593 4.49767 38.4404 4.09031C38.5214 3.68295 38.7214 3.30877 39.0151 3.01508C39.3088 2.72139 39.683 2.52138 40.0903 2.44035C40.4977 2.35932 40.9199 2.40091 41.3036 2.55985C41.6874 2.7188 42.0153 2.98796 42.2461 3.3333C42.4768 3.67864 42.6 4.08466 42.6 4.5C42.6 5.05695 42.3788 5.5911 41.9849 5.98492C41.5911 6.37875 41.057 6.6 40.5 6.6Z" fill="white" stroke="white" stroke-width="0.5"/>
<path d="M4.5 30C5.19223 30 5.86892 29.7654 6.44449 29.3259C7.02007 28.8864 7.46867 28.2616 7.73358 27.5307C7.99848 26.7998 8.0678 25.9956 7.93275 25.2196C7.7977 24.4437 7.46436 23.731 6.97487 23.1716C6.48539 22.6122 5.86175 22.2312 5.18282 22.0769C4.50388 21.9225 3.80015 22.0017 3.16061 22.3045C2.52107 22.6072 1.97444 23.1199 1.58986 23.7777C1.20527 24.4355 1 25.2089 1 26C1.00111 27.0605 1.37022 28.0772 2.02635 28.827C2.68249 29.5769 3.57208 29.9987 4.5 30ZM4.5 23.6C4.91534 23.6 5.32135 23.7408 5.6667 24.0045C6.01204 24.2682 6.2812 24.643 6.44015 25.0816C6.59909 25.5201 6.64068 26.0027 6.55965 26.4682C6.47862 26.9338 6.27861 27.3614 5.98492 27.6971C5.69123 28.0327 5.31705 28.2613 4.90969 28.3539C4.50233 28.4465 4.08009 28.399 3.69636 28.2173C3.31264 28.0357 2.98466 27.728 2.75391 27.3334C2.52316 26.9387 2.4 26.4747 2.4 26C2.4 25.3635 2.62125 24.753 3.01508 24.3029C3.4089 23.8529 3.94304 23.6 4.5 23.6Z" fill="white" stroke="white" stroke-width="0.5"/>
<path d="M38.5 21C38.0055 21 37.5222 21.1466 37.1111 21.4213C36.7 21.696 36.3795 22.0865 36.1903 22.5433C36.0011 23.0001 35.9516 23.5028 36.048 23.9877C36.1445 24.4727 36.3826 24.9181 36.7322 25.2678C37.0819 25.6174 37.5273 25.8555 38.0123 25.952C38.4972 26.0484 38.9999 25.9989 39.4567 25.8097C39.9135 25.6205 40.304 25.3 40.5787 24.8889C40.8534 24.4778 41 23.9945 41 23.5C41 22.837 40.7366 22.2011 40.2678 21.7322C39.7989 21.2634 39.163 21 38.5 21ZM38.5 24.75C38.2528 24.75 38.0111 24.6767 37.8055 24.5393C37.6 24.402 37.4398 24.2068 37.3452 23.9784C37.2505 23.7499 37.2258 23.4986 37.274 23.2561C37.3223 23.0137 37.4413 22.7909 37.6161 22.6161C37.7909 22.4413 38.0137 22.3222 38.2561 22.274C38.4986 22.2258 38.7499 22.2505 38.9784 22.3452C39.2068 22.4398 39.402 22.6 39.5393 22.8055C39.6767 23.0111 39.75 23.2528 39.75 23.5C39.75 23.8315 39.6183 24.1495 39.3839 24.3839C39.1495 24.6183 38.8315 24.75 38.5 24.75Z" fill="white" stroke="white" stroke-width="0.5"/>
<path d="M8 1C7.40666 1 6.82664 1.14662 6.33329 1.42133C5.83994 1.69603 5.45543 2.08648 5.22836 2.54329C5.0013 3.00011 4.94189 3.50277 5.05765 3.98773C5.1734 4.47268 5.45912 4.91814 5.87868 5.26777C6.29824 5.6174 6.83279 5.8555 7.41473 5.95196C7.99667 6.04843 8.59987 5.99892 9.14805 5.8097C9.69623 5.62048 10.1648 5.30005 10.4944 4.88892C10.8241 4.4778 11 3.99445 11 3.5C11 2.83696 10.6839 2.20107 10.1213 1.73223C9.55871 1.26339 8.79565 1 8 1ZM8 4.75C7.70333 4.75 7.41332 4.67669 7.16665 4.53934C6.91997 4.40198 6.72771 4.20676 6.61418 3.97835C6.50065 3.74995 6.47095 3.49861 6.52882 3.25614C6.5867 3.01366 6.72956 2.79093 6.93934 2.61612C7.14912 2.4413 7.41639 2.32225 7.70737 2.27402C7.99834 2.22579 8.29994 2.25054 8.57403 2.34515C8.84811 2.43976 9.08238 2.59998 9.2472 2.80554C9.41203 3.0111 9.5 3.25277 9.5 3.5C9.5 3.83152 9.34196 4.14946 9.06066 4.38388C8.77936 4.6183 8.39783 4.75 8 4.75Z" fill="white" stroke="white" stroke-width="0.5"/>
<path d="M8.28027 22.5876L13.1336 19.8143L13.8216 21.0183L8.96827 23.7916L8.28027 22.5876Z" fill="white" stroke="white" stroke-width="0.5"/>
<path d="M11.3516 6.77307L12.1408 5.63288L16.648 8.75281L15.8587 9.89301L11.3516 6.77307Z" fill="white" stroke="white" stroke-width="0.5"/>
<path d="M28.3818 11.5157L36.0137 6.65987L36.7586 7.83058L29.1267 12.6864L28.3818 11.5157Z" fill="white" stroke="white" stroke-width="0.5"/>
</svg>
