<svg width="40" height="45" viewBox="0 0 40 45" fill="none" xmlns="http://www.w3.org/2000/svg">
<path d="M21.0583 24.3286C20.9791 24.3116 20.8978 24.3086 20.8176 24.3204C20.0132 24.228 19.4064 23.5564 19.405 22.7574C19.405 22.3745 19.0905 22.0641 18.7026 22.0641C18.3146 22.0641 18.0001 22.3745 18.0001 22.7574C18.0021 24.0916 18.9063 25.2602 20.2097 25.6133V26.3067C20.2097 26.6896 20.5243 27 20.9122 27C21.3002 27 21.6147 26.6896 21.6147 26.3067V25.6553C23.1192 25.3445 24.1417 23.9616 23.9835 22.4527C23.8251 20.9438 22.5371 19.7972 21 19.7968C20.1192 19.7968 19.405 19.092 19.405 18.2226C19.405 17.3533 20.1192 16.6484 21 16.6484C21.8809 16.6484 22.595 17.3533 22.595 18.2226C22.595 18.6055 22.9096 18.916 23.2975 18.916C23.6855 18.916 24 18.6055 24 18.2226C23.9979 16.8217 23.0036 15.6135 21.6147 15.3244V14.6933C21.6147 14.3104 21.3002 14 20.9122 14C20.5243 14 20.2097 14.3104 20.2097 14.6933V15.3667C18.7602 15.7574 17.8272 17.1464 18.0268 18.6164C18.2265 20.0863 19.4973 21.1835 21 21.1832C21.8692 21.1832 22.5782 21.8701 22.594 22.7276C22.6101 23.5851 21.9268 24.2974 21.0583 24.3286Z" fill="white" stroke="white"/>
<path d="M11 20.5C11 26.2991 15.4771 31 21 31C26.5229 31 31 26.2991 31 20.5C31 14.7009 26.5229 10 21 10C15.4798 10.0064 11.0064 14.7038 11 20.5ZM21 11.4482C25.7613 11.4482 29.6208 15.5007 29.6208 20.5C29.6208 25.4993 25.7613 29.5518 21 29.5518C16.2387 29.5518 12.3792 25.4993 12.3792 20.5C12.3846 15.5031 16.2411 11.4538 21 11.4482Z" fill="white" stroke="white"/>
<path d="M34.1888 32.7654L28.6468 35.3344C27.8816 33.9381 26.4138 33.0494 24.7984 33.0047L19.6823 32.8668C18.8722 32.8441 18.0773 32.6428 17.3571 32.2777L16.8365 32.0131C14.171 30.65 10.9938 30.6533 8.3311 32.0219L8.36357 30.8648C8.37428 30.4815 8.06648 30.1623 7.67578 30.1518L2.06564 30.0003C1.67494 29.9898 1.34987 30.2917 1.33916 30.675L1.00027 42.7531C0.989562 43.1365 1.29736 43.4557 1.68807 43.4662L7.2982 43.6177H7.31754C7.70099 43.6177 8.01466 43.3184 8.02503 42.9426L8.04126 42.3648L9.49872 41.5992C10.0708 41.2972 10.7396 41.2253 11.3645 41.3989L20.0678 43.7953C20.083 43.7997 20.0982 43.8031 20.1138 43.8065C20.7428 43.9356 21.384 44.0003 22.0265 44C23.3876 44.0007 24.7328 43.7129 25.9699 43.1558C26.0003 43.1422 26.0296 43.1263 26.0576 43.1083L38.6766 35.1005C38.991 34.9009 39.0925 34.4959 38.9084 34.176C37.9715 32.5451 35.8936 31.9239 34.1888 32.7654ZM2.43424 42.0977L2.73409 31.4071L6.9296 31.5203L6.62975 42.2112L2.43424 42.0977ZM25.3325 41.916C23.7956 42.5966 22.079 42.7843 20.4271 42.4532L11.7473 40.0629C10.7703 39.7921 9.72465 39.9043 8.83097 40.3757L8.08617 40.7671L8.2855 33.6591C10.6456 32.1191 13.6725 31.9609 16.186 33.2457L16.7066 33.5104C17.6165 33.9713 18.62 34.2255 19.6436 34.2546L24.7601 34.3926C26.1972 34.4332 27.4176 35.4371 27.7092 36.8185L20.0882 36.6121C19.6975 36.6016 19.3724 36.9039 19.3614 37.2869C19.3507 37.6702 19.6588 37.9894 20.0492 37.9999L28.4595 38.227H28.4792C28.8623 38.2267 29.1756 37.9274 29.186 37.5519C29.1946 37.2502 29.1718 36.9483 29.1176 36.6514L34.802 34.0164C34.8075 34.014 34.8131 34.0113 34.8186 34.0086C35.6249 33.6083 36.5997 33.7422 37.263 34.3444L25.3325 41.916Z" fill="white" stroke="white"/>
<path d="M21 9.21739V1.78261C21 1.35042 20.7761 1 20.5 1C20.2239 1 20 1.35042 20 1.78261V9.21739C20 9.64958 20.2239 10 20.5 10C20.7761 10 21 9.64958 21 9.21739Z" fill="white" stroke="white"/>
<path d="M27 9.07692V4.92308C27 4.41331 26.5522 4 26 4C25.4478 4 25 4.41331 25 4.92308V9.07692C25 9.58669 25.4478 10 26 10C26.5522 10 27 9.58669 27 9.07692Z" fill="white" stroke="white"/>
<path d="M16 9.07692V4.92308C16 4.41331 15.5522 4 15 4C14.4478 4 14 4.41331 14 4.92308V9.07692C14 9.58669 14.4478 10 15 10C15.5522 10 16 9.58669 16 9.07692Z" fill="white" stroke="white"/>
</svg>
