<svg width="40" height="40" viewBox="0 0 40 40" fill="none" xmlns="http://www.w3.org/2000/svg">
<g clip-path="url(#clip0_91_14869)">
<path d="M34.8367 15.3043L36.75 8.56083L28.2353 6.22946V1.17651H11.7647V6.22946L3.24996 8.56083L5.16329 15.3043L0 19.4346V38.8236H40V19.4346L34.8367 15.3043ZM10.2909 25.8725L2.35294 34.6041V21.9036L10.2909 25.8725ZM12.4769 26.9656L20 30.7272L27.5235 26.9655L36.1642 36.4706H3.83592L12.4769 26.9656ZM29.7096 25.8723L37.6471 21.9036V34.604L29.7096 25.8723ZM36.6527 19.7701L33.0599 21.5665L34.1399 17.76L36.6527 19.7701ZM33.8382 10.2032L30.2096 22.9917L28.2353 23.9788V8.66898L33.8382 10.2032ZM25.8824 3.52945V25.1553L20 28.0964L14.1176 25.1553V3.52945H25.8824ZM11.7647 8.66898V23.9788L9.79027 22.9916L6.16173 10.2032L11.7647 8.66898ZM6.94 21.5666L3.34722 19.7702L5.86 17.7601L6.94 21.5666Z" fill="white"/>
<path d="M20.0001 16.4706C20.6488 16.4706 21.1766 16.9984 21.1766 17.6471C21.1766 18.2958 20.6488 18.8235 20.0001 18.8235C19.5813 18.8235 19.1905 18.5978 18.9803 18.2344L16.9436 19.4126C17.3694 20.1486 18.0435 20.695 18.8236 20.9722V23.5294H21.1766V20.9741C22.5459 20.4885 23.5295 19.1808 23.5295 17.6471C23.5295 15.701 21.9462 14.1177 20.0001 14.1177C19.3513 14.1177 18.8236 13.5899 18.8236 12.9412C18.8236 12.2925 19.3513 11.7647 20.0001 11.7647C20.4189 11.7647 20.8097 11.9904 21.02 12.3539L23.0566 11.1756C22.6308 10.4396 21.9567 9.89327 21.1766 9.61609V7.05884H18.8236V9.61413C17.4543 10.0998 16.4707 11.4075 16.4707 12.9412C16.4707 14.8874 18.0539 16.4706 20.0001 16.4706Z" fill="white"/>
</g>
<defs>
<clipPath id="clip0_91_14869">
<rect width="40" height="40" fill="white"/>
</clipPath>
</defs>
</svg>
