<svg width="42" height="41" viewBox="0 0 42 41" fill="none" xmlns="http://www.w3.org/2000/svg">
<path fill-rule="evenodd" clip-rule="evenodd" d="M20.6688 3.15385C11.0099 3.15385 3.17981 10.92 3.17981 20.5C3.17981 30.0799 11.0099 37.8462 20.6688 37.8462C30.3276 37.8462 38.1578 30.0799 38.1578 20.5C38.1578 18.7158 37.8866 16.9973 37.3842 15.3813C37.1256 14.549 37.596 13.6663 38.4351 13.4097C39.2741 13.1531 40.1642 13.6197 40.4229 14.4519C41.0179 16.3657 41.3376 18.3972 41.3376 20.5C41.3376 31.8219 32.0839 41 20.6688 41C9.25373 41 0 31.8219 0 20.5C0 9.17815 9.25373 0 20.6688 0C22.1334 0 23.5643 0.151364 24.9456 0.439709C25.8048 0.6191 26.3547 1.45539 26.1739 2.30763C25.9931 3.15986 25.1498 3.70533 24.2906 3.52594C23.1234 3.28227 21.9121 3.15385 20.6688 3.15385ZM41.5343 1.56012C42.1552 2.17594 42.1552 3.17441 41.5343 3.79023L33.0548 12.2005C32.4339 12.8163 31.4274 12.8163 30.8065 12.2005L26.5667 7.99536C25.9458 7.37954 25.9458 6.38107 26.5667 5.76525C27.1876 5.14943 28.1941 5.14943 28.8151 5.76525L31.9306 8.85533L39.286 1.56012C39.9069 0.944304 40.9134 0.944304 41.5343 1.56012ZM20.6688 6.30769C21.5468 6.30769 22.2587 7.01371 22.2587 7.88462V10.5597H22.3155C25.5769 10.5597 28.2209 13.1821 28.2209 16.4168C28.2209 17.2879 27.509 17.9937 26.6309 17.9937C25.7529 17.9937 25.041 17.2879 25.041 16.4168C25.041 14.9239 23.8208 13.7136 22.3155 13.7136H22.2587V18.9513H22.4291C25.6278 18.9513 28.2209 21.5231 28.2209 24.6957C28.2209 27.8684 25.6278 30.4403 22.4291 30.4403H22.2587V33.1154C22.2587 33.9863 21.5468 34.6923 20.6688 34.6923C19.7907 34.6923 19.0789 33.9863 19.0789 33.1154V30.4403H18.9084C15.7098 30.4403 13.1167 27.8684 13.1167 24.6957C13.1167 23.8248 13.8286 23.1187 14.7066 23.1187C15.5847 23.1187 16.2965 23.8248 16.2965 24.6957C16.2965 26.1265 17.4659 27.2864 18.9084 27.2864H19.0789V22.1051H18.9369C15.7225 22.1051 13.1167 19.5206 13.1167 16.3325C13.1167 13.1443 15.7225 10.5597 18.9369 10.5597H19.0789V7.88462C19.0789 7.01371 19.7907 6.30769 20.6688 6.30769ZM19.0789 13.7136H18.9369C17.4786 13.7136 16.2965 14.8861 16.2965 16.3325C16.2965 17.7787 17.4786 18.9513 18.9369 18.9513H19.0789V13.7136ZM22.2587 22.1051V27.2864H22.4291C23.8715 27.2864 25.041 26.1265 25.041 24.6957C25.041 23.2649 23.8717 22.1051 22.4291 22.1051H22.2587Z" fill="white"/>
</svg>
