<svg width="40" height="40" viewBox="0 0 40 40" fill="none" xmlns="http://www.w3.org/2000/svg">
<g clip-path="url(#clip0_91_15031)">
<path d="M30.8573 29.0877H29.2792C29.0714 29.0877 28.8721 29.0051 28.7251 28.8582C28.5782 28.7112 28.4956 28.5119 28.4956 28.3041C28.4956 28.0962 28.5782 27.8969 28.7251 27.75C28.8721 27.603 29.0714 27.5205 29.2792 27.5205H31.8209C31.9498 27.5216 32.0776 27.4972 32.197 27.4487C32.3163 27.4002 32.4249 27.3286 32.5165 27.2378C32.608 27.1471 32.6806 27.0392 32.7302 26.9203C32.7798 26.8013 32.8053 26.6737 32.8053 26.5449C32.8053 26.416 32.7798 26.2885 32.7302 26.1695C32.6806 26.0506 32.608 25.9426 32.5165 25.8519C32.4249 25.7612 32.3163 25.6896 32.197 25.641C32.0776 25.5925 31.9498 25.5682 31.8209 25.5693H31.0438V25.1985C31.0438 24.9398 30.941 24.6916 30.7581 24.5087C30.5751 24.3257 30.327 24.2229 30.0682 24.2229C29.8095 24.2229 29.5613 24.3257 29.3783 24.5087C29.1954 24.6916 29.0926 24.9398 29.0926 25.1985V25.5764C28.3848 25.6243 27.7234 25.9454 27.248 26.4719C26.7726 26.9984 26.5203 27.689 26.5446 28.3979C26.5688 29.1069 26.8676 29.7786 27.3778 30.2714C27.8881 30.7642 28.5699 31.0394 29.2792 31.0389H30.8573C31.0652 31.0389 31.2645 31.1215 31.4114 31.2684C31.5584 31.4154 31.6409 31.6147 31.6409 31.8225C31.6409 32.0303 31.5584 32.2296 31.4114 32.3766C31.2645 32.5235 31.0652 32.6061 30.8573 32.6061H28.3027C28.0439 32.6061 27.7958 32.7089 27.6128 32.8919C27.4298 33.0748 27.327 33.323 27.327 33.5817C27.327 33.8405 27.4298 34.0886 27.6128 34.2716C27.7958 34.4546 28.0439 34.5574 28.3027 34.5574H29.0927V34.9281C29.0927 35.1869 29.1955 35.435 29.3785 35.618C29.5615 35.801 29.8096 35.9038 30.0684 35.9038C30.3271 35.9038 30.5753 35.801 30.7582 35.618C30.9412 35.435 31.044 35.1869 31.044 34.9281V34.5502C31.7519 34.5026 32.4137 34.1816 32.8893 33.6551C33.365 33.1286 33.6174 32.4378 33.5932 31.7287C33.569 31.0196 33.27 30.3476 32.7595 29.8548C32.2491 29.362 31.567 29.0869 30.8574 29.0877H30.8573Z" fill="white" stroke="white" stroke-width="0.6"/>
<path d="M30.0684 20.1316C28.1041 20.1316 26.1839 20.7141 24.5507 21.8054C22.9174 22.8967 21.6444 24.4478 20.8927 26.2626C20.141 28.0774 19.9443 30.0743 20.3276 32.0009C20.7108 33.9275 21.6567 35.6971 23.0457 37.0861C24.4346 38.4751 26.2043 39.421 28.1309 39.8042C30.0574 40.1874 32.0544 39.9907 33.8691 39.239C35.6839 38.4873 37.2351 37.2143 38.3264 35.5811C39.4177 33.9478 40.0002 32.0276 40.0002 30.0633C39.9972 27.4302 38.9499 24.9057 37.0879 23.0438C35.226 21.1819 32.7016 20.1346 30.0684 20.1316ZM30.0684 38.0438C28.4901 38.0438 26.9471 37.5757 25.6347 36.6988C24.3223 35.8219 23.2995 34.5755 22.6954 33.1173C22.0914 31.6591 21.9334 30.0545 22.2413 28.5064C22.5492 26.9583 23.3093 25.5364 24.4254 24.4203C25.5415 23.3042 26.9635 22.5441 28.5115 22.2362C30.0596 21.9283 31.6642 22.0863 33.1224 22.6903C34.5807 23.2943 35.8271 24.3172 36.704 25.6296C37.5809 26.942 38.0489 28.4849 38.0489 30.0633C38.0465 32.1791 37.2049 34.2076 35.7088 35.7037C34.2127 37.1998 32.1843 38.0414 30.0684 38.0438Z" fill="white" stroke="white" stroke-width="0.6"/>
<path d="M31.7271 15.7597H30.0882C29.8177 15.7597 29.5582 15.8672 29.3669 16.0585C29.1756 16.2498 29.0681 16.5093 29.0681 16.7798C29.0681 17.0504 29.1756 17.3098 29.3669 17.5011C29.5582 17.6924 29.8177 17.7999 30.0882 17.7999H32.7523C33.0336 17.7892 33.3001 17.6713 33.4971 17.4702C33.6942 17.2691 33.8067 17.0003 33.8116 16.7188C33.7609 12.2686 31.9575 8.01786 28.7926 4.88888C25.6278 1.75989 21.3567 0.00506444 16.9062 0.00512695C7.58422 0.00512695 0 7.58927 0 16.9115C0 26.2336 7.58422 33.8177 16.9062 33.8177C17.1249 33.8177 17.3378 33.7473 17.5135 33.6171C17.6892 33.4869 17.8185 33.3037 17.8821 33.0944C17.9126 33.0072 17.9276 32.9153 17.9263 32.8229V29.9616C17.9239 29.6926 17.8154 29.4355 17.6244 29.2461C17.4333 29.0567 17.1752 28.9505 16.9062 28.9505C16.6372 28.9505 16.3791 29.0567 16.1881 29.2461C15.997 29.4355 15.8885 29.6926 15.8862 29.9616V31.7422C8.45648 31.2362 2.50836 25.2472 2.06719 17.8H3.72445C3.99499 17.8 4.25446 17.6926 4.44576 17.5013C4.63706 17.31 4.74453 17.0505 4.74453 16.78C4.74453 16.5094 4.63706 16.25 4.44576 16.0587C4.25446 15.8674 3.99499 15.7599 3.72445 15.7599H2.08437C2.64844 8.43497 8.54406 2.58091 15.8863 2.08083V3.59794C15.8851 3.73264 15.9107 3.86625 15.9614 3.99104C16.0121 4.11583 16.0871 4.22934 16.1819 4.32501C16.2768 4.42068 16.3896 4.49662 16.5139 4.54844C16.6383 4.60026 16.7717 4.62694 16.9064 4.62694C17.0411 4.62694 17.1745 4.60026 17.2988 4.54844C17.4231 4.49662 17.536 4.42068 17.6308 4.32501C17.7257 4.22934 17.8006 4.11583 17.8513 3.99104C17.9021 3.86625 17.9276 3.73264 17.9264 3.59794V2.08114C25.2398 2.58411 31.1606 8.44935 31.7271 15.7597Z" fill="white" stroke="white" stroke-width="0.6"/>
<path d="M16.906 9.99023C16.6355 9.99023 16.376 10.0977 16.1847 10.289C15.9934 10.4803 15.8859 10.7398 15.8859 11.0103V16.3219L8.9882 20.2973C8.87215 20.3642 8.7704 20.4533 8.68878 20.5595C8.60716 20.6658 8.54725 20.787 8.51249 20.9164C8.47773 21.0457 8.46878 21.1807 8.48617 21.3135C8.50356 21.4463 8.54693 21.5744 8.61383 21.6905C8.68072 21.8065 8.76982 21.9083 8.87603 21.9899C8.98224 22.0715 9.10349 22.1314 9.23285 22.1662C9.36222 22.2009 9.49716 22.2099 9.62998 22.1925C9.7628 22.1751 9.8909 22.1317 10.007 22.0648L17.4154 17.7952C17.4341 17.7843 17.4505 17.7738 17.4658 17.7635C17.6072 17.6708 17.7233 17.5444 17.8037 17.3956C17.884 17.2469 17.9261 17.0804 17.926 16.9113V11.0103C17.926 10.8764 17.8996 10.7437 17.8484 10.62C17.7971 10.4962 17.722 10.3837 17.6273 10.289C17.5326 10.1943 17.4201 10.1191 17.2964 10.0679C17.1726 10.0166 17.04 9.99023 16.906 9.99023Z" fill="white" stroke="white" stroke-width="0.6"/>
</g>
<defs>
<clipPath id="clip0_91_15031">
<rect width="40" height="40" fill="white"/>
</clipPath>
</defs>
</svg>
