<svg width="39" height="40" viewBox="0 0 39 40" fill="none" xmlns="http://www.w3.org/2000/svg">
<path d="M29.5238 40H2.85714C2.09964 39.9992 1.37339 39.6979 0.837752 39.1623C0.302113 38.6266 0.000827892 37.9004 1.03953e-06 37.1429V7.3526C-0.000567838 6.6848 0.232367 6.03782 0.658486 5.52364L4.41173 1.0282C4.67928 0.705029 5.01516 0.445194 5.39518 0.267406C5.7752 0.089618 6.18991 -0.0017008 6.60946 2.39851e-05H29.5238C30.2813 0.000850838 31.0075 0.302136 31.5432 0.837775C32.0788 1.37341 32.3801 2.09966 32.3809 2.85717V29.6001C32.3809 29.8527 32.2806 30.0949 32.102 30.2735C31.9234 30.4521 31.6811 30.5525 31.4286 30.5525C31.176 30.5525 30.9337 30.4521 30.7551 30.2735C30.5765 30.0949 30.4762 29.8527 30.4762 29.6001V2.85717C30.4758 2.60468 30.3754 2.36263 30.1969 2.18409C30.0183 2.00556 29.7763 1.90511 29.5238 1.90478H6.60946C6.4698 1.90277 6.33147 1.93224 6.20475 1.99101C6.07804 2.04978 5.96619 2.13634 5.87751 2.24426L2.12147 6.74342C1.98133 6.91552 1.90479 7.13066 1.90476 7.3526V37.1429C1.90509 37.3953 2.00553 37.6374 2.18407 37.8159C2.3626 37.9945 2.60466 38.0949 2.85714 38.0952H29.5238C29.7764 38.0952 30.0186 38.1956 30.1972 38.3742C30.3758 38.5528 30.4762 38.795 30.4762 39.0476C30.4762 39.3002 30.3758 39.5424 30.1972 39.7211C30.0186 39.8997 29.7764 40 29.5238 40Z" fill="white"/>
<path d="M5.71428 8.57142H0.95238C0.699793 8.57142 0.457552 8.47108 0.278946 8.29248C0.10034 8.11387 0 7.87163 0 7.61904C0 7.36646 0.10034 7.12421 0.278946 6.94561C0.457552 6.767 0.699793 6.66666 0.95238 6.66666H5.71428V0.95238C5.71428 0.699793 5.81462 0.457552 5.99323 0.278946C6.17183 0.10034 6.41408 0 6.66666 0C6.91925 0 7.16149 0.10034 7.3401 0.278946C7.5187 0.457552 7.61904 0.699793 7.61904 0.95238V6.66666C7.61854 7.17168 7.4177 7.65587 7.06059 8.01297C6.70349 8.37008 6.2193 8.57092 5.71428 8.57142Z" fill="white"/>
<path d="M29.5245 35.2381C26.341 35.2381 20.9531 34.5359 20.9531 31.9047C20.9531 29.2736 26.341 28.5714 29.5245 28.5714C32.7081 28.5714 38.096 29.2736 38.096 31.9047C38.096 34.5359 32.7081 35.2381 29.5245 35.2381ZM22.8835 31.9047C23.2313 32.3581 25.4802 33.3333 29.5245 33.3333C33.5689 33.3333 35.8178 32.3581 36.1656 31.9047C35.8178 31.4513 33.5689 30.4762 29.5245 30.4762C25.4802 30.4762 23.2313 31.4513 22.8835 31.9047Z" fill="white"/>
<path d="M29.5245 39.9999C27.6455 39.8932 25.7767 39.6498 23.933 39.2717C23.3734 39.17 22.8572 38.9026 22.4514 38.504C22.0456 38.1054 21.7689 37.5941 21.6572 37.0363C21.2785 35.3486 21.043 33.632 20.9531 31.9047C20.9531 31.6521 21.0535 31.4099 21.2321 31.2313C21.4107 31.0527 21.6529 30.9523 21.9055 30.9523C22.1581 30.9523 22.4003 31.0527 22.5789 31.2313C22.7575 31.4099 22.8579 31.6521 22.8579 31.9047C22.9438 33.5049 23.1666 35.0947 23.5238 36.6569C23.561 36.8419 23.6528 37.0115 23.7875 37.1438C23.9221 37.276 24.0934 37.3648 24.279 37.3986C26.0079 37.7605 27.7612 37.9933 29.5245 38.0952C31.2695 38.0544 33.0061 37.8424 34.7096 37.4623C34.8973 37.421 35.0681 37.3239 35.1995 37.1837C35.3309 37.0435 35.4168 36.8668 35.4458 36.6768L36.2024 31.7601C36.2213 31.6364 36.2644 31.5176 36.3292 31.4105C36.394 31.3035 36.4792 31.2103 36.5801 31.1362C36.681 31.0621 36.7954 31.0086 36.917 30.9788C37.0385 30.949 37.1647 30.9435 37.2884 30.9625C37.4121 30.9815 37.5308 31.0247 37.6378 31.0896C37.7448 31.1545 37.8379 31.2399 37.9119 31.3408C37.9859 31.4418 38.0392 31.5563 38.0689 31.6779C38.0986 31.7994 38.104 31.9257 38.0849 32.0493L37.3283 36.9661C37.2394 37.5381 36.9792 38.0698 36.5822 38.4911C36.1851 38.9124 35.6698 39.2035 35.104 39.3261C33.2709 39.7335 31.402 39.9592 29.5245 39.9999Z" fill="white"/>
<path d="M25.7139 18.0952H6.66625C6.41366 18.0952 6.17142 17.9949 5.99281 17.8162C5.81421 17.6376 5.71387 17.3954 5.71387 17.1428C5.71387 16.8902 5.81421 16.648 5.99281 16.4694C6.17142 16.2908 6.41366 16.1904 6.66625 16.1904H25.7139C25.9664 16.1904 26.2087 16.2908 26.3873 16.4694C26.5659 16.648 26.6662 16.8902 26.6662 17.1428C26.6662 17.3954 26.5659 17.6376 26.3873 17.8162C26.2087 17.9949 25.9664 18.0952 25.7139 18.0952Z" fill="white"/>
<path d="M25.7139 21.9048H6.66625C6.41366 21.9048 6.17142 21.8044 5.99281 21.6258C5.81421 21.4472 5.71387 21.205 5.71387 20.9524C5.71387 20.6998 5.81421 20.4576 5.99281 20.2789C6.17142 20.1003 6.41366 20 6.66625 20H25.7139C25.9664 20 26.2087 20.1003 26.3873 20.2789C26.5659 20.4576 26.6662 20.6998 26.6662 20.9524C26.6662 21.205 26.5659 21.4472 26.3873 21.6258C26.2087 21.8044 25.9664 21.9048 25.7139 21.9048Z" fill="white"/>
<path d="M25.7139 25.7143H6.66625C6.41366 25.7143 6.17142 25.6139 5.99281 25.4353C5.81421 25.2567 5.71387 25.0145 5.71387 24.7619C5.71387 24.5093 5.81421 24.2671 5.99281 24.0885C6.17142 23.9098 6.41366 23.8095 6.66625 23.8095H25.7139C25.9664 23.8095 26.2087 23.9098 26.3873 24.0885C26.5659 24.2671 26.6662 24.5093 26.6662 24.7619C26.6662 25.0145 26.5659 25.2567 26.3873 25.4353C26.2087 25.6139 25.9664 25.7143 25.7139 25.7143Z" fill="white"/>
<path d="M17.1424 29.5238H6.66625C6.41366 29.5238 6.17142 29.4234 5.99281 29.2448C5.81421 29.0662 5.71387 28.824 5.71387 28.5714C5.71387 28.3188 5.81421 28.0766 5.99281 27.898C6.17142 27.7194 6.41366 27.619 6.66625 27.619H17.1424C17.395 27.619 17.6373 27.7194 17.8159 27.898C17.9945 28.0766 18.0948 28.3188 18.0948 28.5714C18.0948 28.824 17.9945 29.0662 17.8159 29.2448C17.6373 29.4234 17.395 29.5238 17.1424 29.5238Z" fill="white"/>
<path d="M17.1424 33.3333H6.66625C6.41366 33.3333 6.17142 33.2329 5.99281 33.0543C5.81421 32.8757 5.71387 32.6335 5.71387 32.3809C5.71387 32.1283 5.81421 31.8861 5.99281 31.7075C6.17142 31.5289 6.41366 31.4285 6.66625 31.4285H17.1424C17.395 31.4285 17.6373 31.5289 17.8159 31.7075C17.9945 31.8861 18.0948 32.1283 18.0948 32.3809C18.0948 32.6335 17.9945 32.8757 17.8159 33.0543C17.6373 33.2329 17.395 33.3333 17.1424 33.3333Z" fill="white"/>
<path d="M13.8094 8.57144C14.5984 8.57144 15.238 7.93184 15.238 7.14286C15.238 6.35389 14.5984 5.71429 13.8094 5.71429C13.0205 5.71429 12.3809 6.35389 12.3809 7.14286C12.3809 7.93184 13.0205 8.57144 13.8094 8.57144Z" fill="white"/>
<path d="M18.5711 13.3333C19.3601 13.3333 19.9997 12.6937 19.9997 11.9047C19.9997 11.1157 19.3601 10.4761 18.5711 10.4761C17.7822 10.4761 17.1426 11.1157 17.1426 11.9047C17.1426 12.6937 17.7822 13.3333 18.5711 13.3333Z" fill="white"/>
<path d="M13.333 13.3334C13.1447 13.3334 12.9606 13.2775 12.804 13.1729C12.6474 13.0682 12.5254 12.9195 12.4533 12.7455C12.3813 12.5715 12.3624 12.38 12.3991 12.1953C12.4359 12.0106 12.5266 11.8409 12.6597 11.7077L18.374 5.99343C18.5531 5.81751 18.7945 5.71945 19.0455 5.72059C19.2966 5.72173 19.537 5.82197 19.7146 5.9995C19.8921 6.17703 19.9923 6.41748 19.9935 6.66854C19.9946 6.91961 19.8966 7.16096 19.7207 7.34009L14.0064 13.0544C13.9181 13.143 13.8131 13.2132 13.6976 13.2611C13.582 13.309 13.4581 13.3336 13.333 13.3334Z" fill="white"/>
</svg>
