<svg width="40" height="40" viewBox="0 0 40 40" fill="none" xmlns="http://www.w3.org/2000/svg">
<path d="M20.6504 10.6875H10.6504C10.3189 10.6875 10.0009 10.8192 9.76651 11.0536C9.53209 11.288 9.40039 11.606 9.40039 11.9375C9.40039 12.269 9.53209 12.587 9.76651 12.8214C10.0009 13.0558 10.3189 13.1875 10.6504 13.1875H20.6504C20.9819 13.1875 21.2999 13.0558 21.5343 12.8214C21.7687 12.587 21.9004 12.269 21.9004 11.9375C21.9004 11.606 21.7687 11.288 21.5343 11.0536C21.2999 10.8192 20.9819 10.6875 20.6504 10.6875Z" fill="white"/>
<path d="M20.6504 17.375H10.6504C10.3189 17.375 10.0009 17.5067 9.76651 17.7411C9.53209 17.9755 9.40039 18.2935 9.40039 18.625C9.40039 18.9565 9.53209 19.2745 9.76651 19.5089C10.0009 19.7433 10.3189 19.875 10.6504 19.875H20.6504C20.9819 19.875 21.2999 19.7433 21.5343 19.5089C21.7687 19.2745 21.9004 18.9565 21.9004 18.625C21.9004 18.2935 21.7687 17.9755 21.5343 17.7411C21.2999 17.5067 20.9819 17.375 20.6504 17.375Z" fill="white"/>
<path d="M20.6504 24.2129H10.6504C10.3189 24.2129 10.0009 24.3446 9.76651 24.579C9.53209 24.8134 9.40039 25.1314 9.40039 25.4629C9.40039 25.7944 9.53209 26.1124 9.76651 26.3468C10.0009 26.5812 10.3189 26.7129 10.6504 26.7129H20.6504C20.9819 26.7129 21.2999 26.5812 21.5343 26.3468C21.7687 26.1124 21.9004 25.7944 21.9004 25.4629C21.9004 25.1314 21.7687 24.8134 21.5343 24.579C21.2999 24.3446 20.9819 24.2129 20.6504 24.2129Z" fill="white"/>
<path d="M32.3384 1.25H7.66335C7.0221 1.25164 6.38747 1.37977 5.79581 1.62706C5.20416 1.87435 4.66711 2.23593 4.21542 2.69111C3.76373 3.14628 3.40628 3.68609 3.16354 4.27963C2.92081 4.87316 2.79755 5.50876 2.80085 6.15V36.6375C2.80003 36.9504 2.8825 37.2578 3.03979 37.5282C3.19708 37.7987 3.42352 38.0224 3.69585 38.1763C3.96819 38.3303 4.2766 38.409 4.58942 38.4044C4.90224 38.3998 5.20819 38.312 5.47585 38.15L10.0758 35.3875C10.1452 35.3443 10.2253 35.3214 10.3071 35.3214C10.3888 35.3214 10.469 35.3443 10.5383 35.3875L15.6508 38.45C15.9197 38.6214 16.232 38.7124 16.5508 38.7125C16.8717 38.7108 17.1864 38.6246 17.4633 38.4625L22.6008 35.3875C22.6702 35.3443 22.7504 35.3214 22.8321 35.3214C22.9138 35.3214 22.994 35.3443 23.0633 35.3875L27.6383 38.15C27.9069 38.3096 28.2135 38.3938 28.5258 38.3938C28.8382 38.3938 29.1448 38.3096 29.4133 38.15C29.6822 37.9962 29.9059 37.7743 30.0617 37.5066C30.2175 37.2388 30.3 36.9348 30.3008 36.625V15.55H34.2258C35.0139 15.5467 35.7686 15.2322 36.3259 14.675C36.8831 14.1178 37.1976 13.363 37.2008 12.575V6.15C37.2041 5.50876 37.0809 4.87316 36.8382 4.27963C36.5954 3.68609 36.238 3.14628 35.7863 2.69111C35.3346 2.23593 34.7975 1.87435 34.2059 1.62706C33.6142 1.37977 32.9796 1.25164 32.3384 1.25ZM27.8008 35.325L24.3508 33.25C23.8912 32.9771 23.3666 32.8331 22.8321 32.8331C22.2976 32.8331 21.773 32.9771 21.3133 33.25L16.5633 36.1L11.8258 33.2375C11.3608 32.9593 10.8285 32.8134 10.2866 32.8156C9.74468 32.8179 9.21365 32.968 8.75085 33.25L5.30085 35.3375V6.15C5.29587 5.83661 5.3533 5.52536 5.4698 5.23439C5.5863 4.94342 5.75953 4.67853 5.97941 4.45517C6.19928 4.2318 6.46141 4.05442 6.75051 3.93335C7.03961 3.81229 7.34992 3.74996 7.66335 3.75H28.3133C27.9832 4.37887 27.8076 5.07729 27.8008 5.7875V35.2875V35.325ZM34.7008 12.575C34.7008 12.701 34.6508 12.8218 34.5617 12.9109C34.4726 13 34.3518 13.05 34.2258 13.05H30.3008V5.825C30.2959 5.55429 30.3449 5.28531 30.445 5.03376C30.5452 4.78222 30.6945 4.55316 30.8842 4.35997C31.0739 4.16678 31.3002 4.01333 31.5499 3.9086C31.7995 3.80387 32.0676 3.74995 32.3384 3.75C32.9649 3.75 33.5658 3.99891 34.0089 4.44196C34.4519 4.88501 34.7008 5.48593 34.7008 6.1125V12.575Z" fill="white"/>
</svg>
