<svg width="80" height="80" viewBox="0 0 80 80" fill="none" xmlns="http://www.w3.org/2000/svg">
<g clip-path="url(#clip0_73_7476)">
<path d="M40.4336 0.00390625V79.9975C62.325 79.7656 79.9991 61.9467 79.9991 40.0006C79.9991 18.0545 62.325 0.235625 40.4336 0.00390625Z" fill="#5D4EB5"/>
<path d="M40.4345 0.00328125C40.2897 0.0015625 40.1448 0 40 0C17.9091 0 0 17.9091 0 40C0 62.0909 17.9091 80 40 80C40.1448 80 40.2897 79.9984 40.4345 79.9967C58.7686 79.7198 73.5614 61.9188 73.5614 40C73.5614 18.0812 58.7686 0.280156 40.4345 0.00328125Z" fill="#AE8FF7"/>
<path d="M58.2704 35.2031H55.8559L40.2051 55.2031H56.284C59.0413 51.6892 60.6848 47.2595 60.6848 42.4466V37.6177C60.6848 36.2895 59.5984 35.2031 58.2704 35.2031Z" fill="#401510"/>
<path d="M21.7309 35.2031C20.403 35.2031 19.3164 36.2897 19.3164 37.6177V42.4466C19.3164 47.2594 20.9598 51.6892 23.7172 55.2031L53.8258 52.5761C55.1183 49.5822 55.8556 46.1263 55.8556 42.4466V40.032L24.1453 35.2031H21.7309Z" fill="#5D4EB5"/>
<path d="M53.826 52.5762L40.2051 63.1291C46.7323 63.0663 52.5351 59.9807 56.284 55.2032C55.542 54.2582 54.7195 53.3777 53.826 52.5762Z" fill="#6A55C2"/>
<path d="M53.8254 52.5759C51.1405 58.8037 46.054 63.0323 40.2045 63.1288C40.1368 63.1304 40.0676 63.1304 40.0001 63.1304C33.3891 63.1304 27.5043 60.0302 23.7168 55.2029C27.5043 50.3771 33.3893 47.2754 40.0001 47.2754C45.3152 47.2752 50.1618 49.2809 53.8254 52.5759Z" fill="#7E6AD3"/>
<path d="M51.0261 35.2032L48.6116 42.4467H53.4405C54.7684 42.4467 55.855 41.3601 55.855 40.0322V35.2032H51.0261Z" fill="#CDC3F4"/>
<path d="M51.0258 35.2031V40.032C51.0258 41.36 49.9392 42.4466 48.6113 42.4466H26.5591C25.2311 42.4466 24.1445 41.36 24.1445 40.032V35.2031H51.0258Z" fill="white"/>
<path d="M10.4617 43.1871C12.6842 43.1871 14.4859 41.3854 14.4859 39.1629C14.4859 36.9404 12.6842 35.1387 10.4617 35.1387C8.2392 35.1387 6.4375 36.9404 6.4375 39.1629C6.4375 41.3854 8.2392 43.1871 10.4617 43.1871Z" fill="#7E6AD3"/>
<path d="M69.5359 43.2516C71.7585 43.2516 73.5602 41.4499 73.5602 39.2273C73.5602 37.0048 71.7585 35.2031 69.5359 35.2031C67.3134 35.2031 65.5117 37.0048 65.5117 39.2273C65.5117 41.4499 67.3134 43.2516 69.5359 43.2516Z" fill="#7E6AD3"/>
<path d="M28.9744 29.1673C28.3077 29.1673 27.7672 28.6268 27.7672 27.9601C27.7672 25.963 26.1425 24.3384 24.1455 24.3384C22.1484 24.3384 20.5237 25.963 20.5237 27.9601C20.5237 28.6268 19.9833 29.1673 19.3166 29.1673C18.6498 29.1673 18.1094 28.6268 18.1094 27.9601C18.1094 24.6316 20.8172 21.9238 24.1456 21.9238C27.4741 21.9238 30.1819 24.6316 30.1819 27.9601C30.1816 28.6268 29.6411 29.1673 28.9744 29.1673Z" fill="#401510"/>
<path d="M60.6853 29.1673C60.0184 29.1673 59.4781 28.6268 59.4781 27.9601C59.4781 25.963 57.8533 24.3384 55.8564 24.3384C53.8595 24.3384 52.2347 25.963 52.2347 27.9601C52.2347 28.6268 51.6944 29.1673 51.0275 29.1673C50.3606 29.1673 49.8203 28.6268 49.8203 27.9601C49.8203 24.6316 52.5281 21.9238 55.8566 21.9238C59.185 21.9238 61.8928 24.6316 61.8928 27.9601C61.8927 28.6268 61.3522 29.1673 60.6853 29.1673Z" fill="#401510"/>
<path d="M41.2077 69.1683H38.7931C38.1264 69.1683 37.5859 68.6278 37.5859 67.9611C37.5859 67.2944 38.1264 66.7539 38.7931 66.7539H41.2077C41.8745 66.7539 42.4148 67.2944 42.4148 67.9611C42.415 68.6278 41.8745 69.1683 41.2077 69.1683Z" fill="#5D4EB5"/>
</g>
<defs>
<clipPath id="clip0_73_7476">
<rect width="80" height="80" fill="white"/>
</clipPath>
</defs>
</svg>
