<svg width="80" height="80" viewBox="0 0 80 80" fill="none" xmlns="http://www.w3.org/2000/svg">
<path d="M66.25 2.5H13.75C9.60786 2.5 6.25 5.85786 6.25 10V52.5C6.25 56.6421 9.60786 60 13.75 60H66.25C70.3921 60 73.75 56.6421 73.75 52.5V10C73.75 5.85786 70.3921 2.5 66.25 2.5Z" fill="#7E6AD3"/>
<path d="M19.9257 12.0625C19.7382 11.575 19.2757 11.25 18.7507 11.25C18.2257 11.25 17.7632 11.575 17.5757 12.0625L13.8257 22.0625C13.5882 22.7125 13.9132 23.425 14.5632 23.675C15.2132 23.9125 15.9257 23.5875 16.1757 22.95L18.7507 16.075L21.3257 22.95C21.5132 23.45 21.9882 23.7625 22.5007 23.7625C22.6507 23.7625 22.8007 23.7375 22.9382 23.6875C23.5882 23.45 23.9132 22.725 23.6757 22.075L19.9257 12.075V12.0625Z" fill="white"/>
<path d="M35 11.25C34.3125 11.25 33.75 11.8125 33.75 12.5V18.75C33.75 20.125 32.625 21.25 31.25 21.25C29.875 21.25 28.75 20.125 28.75 18.75V12.5C28.75 11.8125 28.1875 11.25 27.5 11.25C26.8125 11.25 26.25 11.8125 26.25 12.5V18.75C26.25 21.5125 28.4875 23.75 31.25 23.75C34.0125 23.75 36.25 21.5125 36.25 18.75V12.5C36.25 11.8125 35.6875 11.25 35 11.25Z" fill="white"/>
<path d="M42.5 11.25H40C39.3125 11.25 38.75 11.8125 38.75 12.5V22.5C38.75 23.1875 39.3125 23.75 40 23.75H42.5C45.95 23.75 48.75 20.95 48.75 17.5C48.75 14.05 45.95 11.25 42.5 11.25ZM42.5 21.25H41.25V13.75H42.5C44.5625 13.75 46.25 15.4375 46.25 17.5C46.25 19.5625 44.5625 21.25 42.5 21.25Z" fill="white"/>
<path d="M52.5 11.25C51.8125 11.25 51.25 11.8125 51.25 12.5V22.5C51.25 23.1875 51.8125 23.75 52.5 23.75C53.1875 23.75 53.75 23.1875 53.75 22.5V12.5C53.75 11.8125 53.1875 11.25 52.5 11.25Z" fill="white"/>
<path d="M65 11.25H57.5C56.8125 11.25 56.25 11.8125 56.25 12.5C56.25 13.1875 56.8125 13.75 57.5 13.75H60V22.5C60 23.1875 60.5625 23.75 61.25 23.75C61.9375 23.75 62.5 23.1875 62.5 22.5V13.75H65C65.6875 13.75 66.25 13.1875 66.25 12.5C66.25 11.8125 65.6875 11.25 65 11.25Z" fill="white"/>
<path d="M63.75 30H16.25C15.5625 30 15 29.4375 15 28.75C15 28.0625 15.5625 27.5 16.25 27.5H63.75C64.4375 27.5 65 28.0625 65 28.75C65 29.4375 64.4375 30 63.75 30Z" fill="white"/>
<path d="M57.9133 41.2758L40.4133 35.0633C40.1383 34.9633 39.8508 34.9633 39.5758 35.0633L22.0758 41.2758C21.5758 41.4508 21.2383 41.9258 21.2383 42.4508V56.6883C21.2383 66.6633 27.0258 73.5258 38.4383 77.0633L39.6258 77.4258C39.7508 77.4633 39.8758 77.4758 40.0008 77.4758C40.1258 77.4758 40.2508 77.4633 40.3758 77.4258L41.5633 77.0633C52.9758 73.5133 58.7633 66.6633 58.7633 56.6883V42.4508C58.7633 41.9258 58.4258 41.4508 57.9258 41.2758H57.9133Z" fill="white"/>
<path d="M52.9258 44.6375L40.4258 40.075C40.1508 39.975 39.8508 39.975 39.5633 40.075L27.0633 44.6375C26.5758 44.8125 26.2383 45.2875 26.2383 45.8125V56.65C26.2383 64.4 30.6133 69.5625 39.6133 72.4375C39.7383 72.475 39.8633 72.5 39.9883 72.5C40.1133 72.5 40.2508 72.475 40.3633 72.4375C49.3633 69.5625 53.7383 64.3875 53.7383 56.65V45.8125C53.7383 45.2875 53.4133 44.825 52.9133 44.6375H52.9258Z" fill="#AE8FF7"/>
<path d="M37.9116 61.2488C37.5741 61.2488 37.2366 61.1113 37.0116 60.8613L32.8491 56.4863C32.3741 55.9863 32.3866 55.1988 32.8866 54.7238C33.3866 54.2488 34.1741 54.2613 34.6491 54.7613L37.9116 58.1863L45.3366 50.3863C45.8116 49.8863 46.5991 49.8738 47.0991 50.3363C47.5991 50.8113 47.6241 51.5988 47.1366 52.0988L38.7991 60.8488C38.5616 61.0988 38.2366 61.2363 37.8991 61.2363L37.9116 61.2488Z" fill="white"/>
</svg>
