<svg width="80" height="80" viewBox="0 0 80 80" fill="none" xmlns="http://www.w3.org/2000/svg">
<g clip-path="url(#clip0_73_7539)">
<path d="M10.0095 30.4191C9.84338 30.3858 5.91807 29.5702 3.93307 26.5228C3.08057 25.2141 2.71526 23.7161 2.84135 22.0553C1.85448 20.9437 0.942134 19.4836 0.10979 17.6803C-0.165523 17.0839 0.0947899 16.3772 0.691196 16.102C1.2876 15.8266 1.99432 16.087 2.26963 16.6836C2.67963 17.5719 3.10698 18.36 3.5487 19.0447C4.47041 16.7597 5.92901 15.9944 7.08901 15.7781C9.5201 15.3245 12.1867 17.0656 12.1867 20.3125C12.1867 23.3114 9.10698 25.8987 5.38948 24.0712C5.50995 24.4741 5.68635 24.8541 5.91916 25.2137C7.34823 27.4208 10.4479 28.0808 10.479 28.087C11.1212 28.2191 11.537 28.8464 11.4067 29.4889C11.2765 30.1311 10.652 30.548 10.0095 30.4191ZM5.36901 21.2102C6.48541 22.1634 8.04401 22.7875 9.13463 21.8148C10.5654 20.5383 9.59198 17.7317 7.5251 18.1166C6.5087 18.3059 5.78338 19.3469 5.36901 21.2102Z" fill="#7E6AD3"/>
<path d="M64.3585 23.8422C62.841 20.0819 62.3087 15.1097 62.1219 12.0843C62.0385 10.7332 60.5718 9.82535 59.1679 10.2533C54.1796 12.2807 51.4524 15.7847 50.0448 18.356C49.1432 20.003 50.0152 22.001 51.9054 22.6377L61.9597 26.025C63.4494 26.5271 64.9082 25.2043 64.3585 23.8422Z" fill="#7E6AD3"/>
<path d="M28.6535 72.2394C24.0373 72.2394 20.2949 68.497 20.2949 63.8808V54.3281H37.0121V63.8808C37.0121 68.4972 33.2698 72.2394 28.6535 72.2394Z" fill="#7E6AD3"/>
<path d="M52.4129 72.2394H52.6596C57.2079 72.2394 60.8949 68.5523 60.8949 64.0041V54.3281H44.1777V64.0041C44.1777 68.5523 47.8648 72.2394 52.4129 72.2394Z" fill="#9F8CEA"/>
<path d="M80.0001 41.3146V45.844C80.0001 49.2093 77.2707 51.9387 73.9056 51.9387H73.6915C71.3875 51.9387 69.1131 52.9062 67.4875 54.798C67.0862 55.2627 66.8642 55.8559 66.8642 56.4696V63.879C66.8642 66.1865 65.9286 68.2766 64.4171 69.7896C59.4915 74.7151 51.0676 71.7626 50.2154 64.924C47.632 65.5852 44.909 66.0182 42.0861 66.1863C42.0861 66.1863 1.20636 56.9896 30.1965 17.0774C48.6343 13.1282 65.9932 21.4387 71.1951 33.4201C71.6678 34.5065 72.7223 35.2216 73.9054 35.2216C77.2707 35.2215 80.0001 37.9493 80.0001 41.3146Z" fill="#DACAFF"/>
<path d="M42.0858 66.187C38.452 66.4083 34.6306 66.1834 30.8925 65.448C30.5245 67.3813 29.4937 69.0797 28.0427 70.293C22.6534 74.8044 14.3247 70.988 14.3247 63.8797V60.3194C14.3247 58.7938 13.7347 57.3172 12.6547 56.2389C-1.57031 42.0459 7.97015 21.8398 30.1964 17.0781C25.5577 26.7902 19.8469 45.285 42.0858 66.187Z" fill="#9F8CEA"/>
<path d="M57.1925 21.4536C55.675 17.6932 55.1426 12.7211 54.9559 9.69559C54.8725 8.34449 53.4058 7.43668 52.0019 7.86465C47.0136 9.89199 44.2864 13.3961 42.8787 15.9673C41.9772 17.6143 42.8492 19.6123 44.7394 20.249L54.7937 23.6364C56.2834 24.1382 57.7422 22.8156 57.1925 21.4536Z" fill="#9F8CEA"/>
<path d="M64.6146 40.9129C64.6157 43.044 62.4471 44.7726 59.7712 44.774C57.0951 44.7754 54.9249 43.0488 54.9238 40.9177C54.9227 38.7866 57.0913 37.0579 59.7674 37.0566C62.4434 37.0552 64.6137 38.7818 64.6146 40.9129Z" fill="white"/>
<path d="M65.6246 37.5048C64.9665 37.5048 64.4337 36.9708 64.4351 36.3128C64.4357 36.0348 64.3281 35.7733 64.1318 35.5762C63.4762 34.9172 62.3556 35.3892 62.3535 36.3081C62.3521 36.9642 61.8198 37.495 61.1641 37.495C60.5062 37.495 59.9732 36.9609 59.9746 36.3031C59.9765 35.3897 60.3341 34.5317 60.9815 33.8872C63.1332 31.7453 66.8206 33.2869 66.8138 36.3181C66.8124 36.9741 66.2802 37.5048 65.6246 37.5048Z" fill="#3E4F61"/>
<path d="M40.3423 30.5731C36.1152 30.3214 40.2775 30.9976 29.1189 28.9523L25.3476 31.8894C24.4548 30.8872 23.3176 28.6145 27.0811 25.4712C27.3095 25.2809 27.4823 25.097 27.6077 24.9209C31.9361 23.9044 36.522 23.7584 41.0434 24.2992C42.493 24.472 43.6761 25.3887 44.0312 26.6114L44.0694 26.743C44.6606 28.7778 42.7719 30.7205 40.3423 30.5731Z" fill="#9F8CEA"/>
<path d="M27.1993 25.0176C26.6711 26.973 26.2604 29.0854 26.059 31.3341C21.6668 34.7537 23.9471 33.0509 21.0855 34.7026C19.0286 35.8888 16.2279 34.9452 15.6269 32.8755C15.3085 31.7887 15.6991 30.5766 16.7657 29.7862C19.7899 27.541 23.5157 25.9179 27.1993 25.0176Z" fill="#7E6AD3"/>
<path d="M37.5529 30.4976C35.157 30.4976 32.4059 30.7784 29.8439 31.3493C29.809 31.2843 28.5878 31.0035 28.5878 31.0035C27.2193 32.2666 27.8587 31.7884 25.9775 32.4577C16.4129 20.8824 31.6709 14.1582 31.6709 14.1582C38.7295 16.2185 41.59 24.5618 37.5529 30.4976Z" fill="#5D4EB5"/>
<path d="M31.6723 14.1591C29.6138 18.0714 26.4324 24.4531 25.9788 32.4586C24.8545 32.8556 24.0416 33.2109 23.0735 33.6592C19.9324 31.7508 17.9082 28.3192 17.9082 24.4753C17.9082 17.3055 24.8059 12.1547 31.6723 14.1591Z" fill="#D2BFFF"/>
<path d="M28.5519 20.8889C27.621 19.2078 29.7477 18.0391 29.7477 18.0391C29.8096 18.1817 29.8428 18.3387 29.8428 18.5037V18.6211C34.2611 19.4452 32.1003 22.513 30.5835 21.4281C30.0333 21.0316 29.1974 20.8573 28.5519 20.8889Z" fill="#D2BFFF"/>
<path d="M33.425 26.8629C33.425 28.5598 31.9246 29.9459 29.844 30.3329V31.3495C29.0715 31.5215 28.315 31.7159 27.5096 31.9568C27.45 31.7445 27.4653 31.741 27.4653 30.3313C27.0228 30.2473 26.6009 30.1188 26.2125 29.9507C24.9151 27.9446 26.6264 27.4451 26.6264 27.4451C28.0618 28.6295 31.0462 27.9148 31.0462 26.863C31.0462 26.3746 30.1137 25.6641 28.6531 25.6641C28.0996 25.6641 27.57 25.5976 27.0798 25.4707C26.0506 24.0418 27.7428 23.1855 27.7428 23.1855C28.7092 23.4102 30.2104 23.0721 31.8725 24.2021C32.8318 24.8504 33.425 25.7955 33.425 26.8629Z" fill="#D2BFFF"/>
<path d="M26.6268 27.4447C26.4618 28.2567 26.3223 29.0925 26.2129 29.9503C25.5834 29.6744 25.0409 29.2891 24.6365 28.8148C24.2099 28.3153 24.2685 27.5652 24.768 27.1386C25.2676 26.7119 26.0193 26.7706 26.4459 27.2717C26.4951 27.3289 26.5554 27.3877 26.6268 27.4447Z" fill="white"/>
<path d="M26.2607 22.089C26.2607 22.4665 26.8174 22.9756 27.7435 23.1865C27.5057 23.9225 27.2837 24.6851 27.0805 25.4717C22.6502 24.3575 22.871 19.4711 27.4643 18.6175C27.4643 17.0961 29.2698 16.9161 29.748 18.0401C29.3437 18.9267 28.9393 19.8782 28.5523 20.89C27.1504 20.9218 26.2607 21.6101 26.2607 22.089Z" fill="white"/>
</g>
<defs>
<clipPath id="clip0_73_7539">
<rect width="80" height="80" fill="white"/>
</clipPath>
</defs>
</svg>
