<svg width="80" height="80" viewBox="0 0 80 80" fill="none" xmlns="http://www.w3.org/2000/svg">
<path d="M69.9196 70.2439H16.5862C15.1493 70.2439 13.9846 69.0791 13.9846 67.6423V2.60156C13.9846 1.16469 15.1495 0 16.5862 0H69.9196C71.3565 0 72.5212 1.16484 72.5212 2.60156V67.6422C72.5212 69.0791 71.3563 70.2439 69.9196 70.2439Z" fill="#7E6AD3"/>
<path d="M59.1253 79.9918L59.335 79.9756L60.1562 79.8656L64.0986 78.1059V26.049L44.5536 6.50403H10.082C8.64516 6.50403 7.48047 7.66887 7.48047 9.10559V77.3984C7.48047 78.8353 8.64531 80 10.082 80H58.9839L59.1253 79.9918Z" fill="#AE8FF7"/>
<path d="M53.9834 17.7756L49.1075 6.74078C48.772 6.58781 48.4056 6.50391 48.0298 6.50391H44.5547V20.8128C44.5547 24.7641 47.7578 27.9673 51.7092 27.9673H59.8394C60.7373 27.9673 61.4653 28.6953 61.4653 29.5933V77.3983C61.4653 78.8352 60.3005 79.9998 58.8638 79.9998H63.4166C64.8534 79.9998 66.0183 78.835 66.0183 77.3983V24.492C66.0183 24.1163 65.9344 23.75 65.7814 23.4144L53.9834 17.7756Z" fill="#5D4EB5"/>
<path d="M51.709 23.414H65.7812C65.6534 23.1335 65.4782 22.8741 65.256 22.652L49.8695 7.26539C49.6473 7.0432 49.3879 6.86805 49.1074 6.74023V20.8124C49.1073 22.2491 50.2721 23.414 51.709 23.414Z" fill="#E4D9FF"/>
<path d="M13.9846 30.2439H59.5131V35.4472H13.9846V30.2439Z" fill="#7E6AD3"/>
<path d="M59.5131 29.0724H13.9846C13.3374 29.0724 12.8127 29.5971 12.8127 30.2443V56.2605C12.8127 56.9077 13.3374 57.4324 13.9846 57.4324H59.5131C60.1604 57.4324 60.6849 56.9077 60.6849 56.2605V30.2443C60.6849 29.5971 60.1604 29.0724 59.5131 29.0724ZM35.577 44.6821H15.1565V41.8225H35.577V44.6821ZM37.9207 41.8227H58.3412V44.6822H37.9207V41.8227ZM37.9207 39.4789V36.6194H58.3412V39.4789H37.9207ZM35.577 39.4789H15.1565V36.6194H35.577V39.4789ZM15.1565 47.0258H35.577V49.8854H15.1565V47.0258ZM37.9207 47.0258H58.3412V49.8854H37.9207V47.0258ZM58.3412 34.2757H37.9207V31.4161H58.3412V34.2757ZM35.577 31.4161V34.2757H15.1565V31.4161H35.577ZM15.1565 52.2291H35.577V55.0886H15.1565V52.2291ZM37.9207 55.0886V52.2291H58.3412V55.0886H37.9207Z" fill="#E4D9FF"/>
<path d="M27.49 12.7404C27.4859 12.7297 27.4817 12.7189 27.4772 12.7081C27.2591 12.1782 26.7483 11.8361 26.1753 11.8361C26.1749 11.8361 26.1744 11.8361 26.1739 11.8361C25.6005 11.8367 25.0897 12.18 24.8724 12.7106C24.8688 12.7195 24.8652 12.7284 24.8617 12.7373L20.9542 22.9973C20.7239 23.6022 21.0275 24.2792 21.6322 24.5095C22.237 24.74 22.9141 24.4362 23.1444 23.8315L23.8303 22.0312H28.4909L29.1691 23.8282C29.3463 24.2975 29.792 24.5867 30.2658 24.5867C30.4033 24.5867 30.5431 24.5623 30.6792 24.5109C31.2847 24.2825 31.5905 23.6062 31.3619 23.0007L27.49 12.7404ZM24.723 19.6875L26.1714 15.8845L27.6066 19.6875H24.723Z" fill="white"/>
<path d="M44.1488 22.7403L40.7032 17.8422L43.6332 13.683C44.006 13.1539 43.8793 12.4228 43.3501 12.05C42.8206 11.6772 42.0898 11.8041 41.7173 12.3332L39.2707 15.806L36.8281 12.3338C36.4556 11.8044 35.7245 11.6772 35.1952 12.0496C34.6659 12.4219 34.5387 13.153 34.911 13.6824L37.8368 17.8413L34.386 22.7397C34.0134 23.2688 34.1401 23.9999 34.6691 24.3727C34.8743 24.5172 35.1098 24.5866 35.3431 24.5866C35.7113 24.5866 36.0738 24.4135 36.3021 24.0896L39.2693 19.8775L42.232 24.0889C42.4601 24.4133 42.8227 24.5866 43.1915 24.5866C43.4243 24.5866 43.6596 24.5174 43.8648 24.3732C44.394 24.0007 44.5213 23.2697 44.1488 22.7403Z" fill="white"/>
<path d="M19.7317 11.8363H13.9846C13.3374 11.8363 12.8127 12.361 12.8127 13.0082C12.8127 13.6554 13.3374 14.1801 13.9846 14.1801H15.6746V23.4147C15.6746 24.0619 16.1993 24.5866 16.8465 24.5866C17.4937 24.5866 18.0184 24.0619 18.0184 23.4147V14.1801H19.7317C20.3788 14.1801 20.9035 13.6554 20.9035 13.0082C20.9035 12.361 20.3788 11.8363 19.7317 11.8363Z" fill="white"/>
<path d="M24.0659 64.2618H13.9846C13.3374 64.2618 12.8127 63.7372 12.8127 63.09C12.8127 62.4428 13.3374 61.9181 13.9846 61.9181H24.0659C24.7131 61.9181 25.2377 62.4428 25.2377 63.09C25.2377 63.7372 24.7131 64.2618 24.0659 64.2618Z" fill="white"/>
<path d="M32.8463 69.4651H13.9846C13.3374 69.4651 12.8127 68.9404 12.8127 68.2932C12.8127 67.646 13.3374 67.1213 13.9846 67.1213H32.8463C33.4935 67.1213 34.0182 67.646 34.0182 68.2932C34.0182 68.9404 33.4937 69.4651 32.8463 69.4651Z" fill="white"/>
<path d="M24.0659 74.6681H13.9846C13.3374 74.6681 12.8127 74.1434 12.8127 73.4962C12.8127 72.849 13.3374 72.3243 13.9846 72.3243H24.0659C24.7131 72.3243 25.2377 72.849 25.2377 73.4962C25.2377 74.1434 24.7131 74.6681 24.0659 74.6681Z" fill="white"/>
<path d="M58.8721 62.0096C58.2755 61.7591 57.5885 62.0399 57.338 62.6366L52.9705 73.0432C52.72 73.6399 53.0008 74.3268 53.5977 74.5772C53.7458 74.6394 53.8996 74.6688 54.0507 74.6688C54.5085 74.6688 54.9435 74.3986 55.1318 73.95L59.4991 63.5435C59.7496 62.9468 59.4688 62.2599 58.8721 62.0096Z" fill="white"/>
<path d="M59.5134 74.668C60.1606 74.668 60.6853 74.1433 60.6853 73.4961C60.6853 72.8489 60.1606 72.3242 59.5134 72.3242C58.8662 72.3242 58.3416 72.8489 58.3416 73.4961C58.3416 74.1433 58.8662 74.668 59.5134 74.668Z" fill="white"/>
<path d="M52.9551 64.262C53.6023 64.262 54.127 63.7373 54.127 63.0901C54.127 62.4429 53.6023 61.9182 52.9551 61.9182C52.3079 61.9182 51.7832 62.4429 51.7832 63.0901C51.7832 63.7373 52.3079 64.262 52.9551 64.262Z" fill="white"/>
</svg>
