<svg width="80" height="80" viewBox="0 0 80 80" fill="none" xmlns="http://www.w3.org/2000/svg">
<g clip-path="url(#clip0_73_7569)">
<path d="M51.7188 30.625C51.7188 31.9373 50.6879 32.9688 49.375 32.9688H30.625C29.3121 32.9688 28.2812 31.9373 28.2812 30.625C28.2812 29.3121 29.3121 28.2812 30.625 28.2812H49.375C50.6879 28.2812 51.7188 29.3121 51.7188 30.625Z" fill="#AE8FF7"/>
<path d="M51.7188 40C51.7188 41.3123 50.6879 42.3438 49.375 42.3438H30.625C29.3121 42.3438 28.2812 41.3123 28.2812 40C28.2812 38.6877 29.3121 37.6562 30.625 37.6562H49.375C50.6879 37.6562 51.7188 38.6877 51.7188 40Z" fill="#AE8FF7"/>
<path d="M51.7188 49.375C51.7188 50.6873 50.6879 51.7188 49.375 51.7188H30.625C29.3121 51.7188 28.2812 50.6873 28.2812 49.375C28.2812 48.0627 29.3121 47.0312 30.625 47.0312H49.375C50.6879 47.0312 51.7188 48.0627 51.7188 49.375Z" fill="#AE8FF7"/>
<path d="M33.4594 64.9084C26.3103 63.0285 20.3728 58.1659 17.0647 51.7187H18.9061C19.7716 51.7187 20.5657 51.2426 20.9734 50.4803C21.3805 49.7186 21.3347 48.7939 20.8568 48.0749L14.4121 36.9763L12.6531 29.2596C11.7833 27.9553 9.62269 27.9553 8.75294 29.2596L4.87538 40.6256L0.392957 48.0749C-0.0849478 48.7939 -0.130724 49.7186 0.27638 50.4803C0.684095 51.2426 1.47816 51.7187 2.34364 51.7187H6.88649C11.2267 63.977 22.1477 73.0945 35.421 74.8248L33.4594 64.9084Z" fill="#AE8FF7"/>
<path d="M64.9083 46.5398C62.5957 55.3368 55.7591 62.3003 47.0311 64.7814V61.093C47.0311 60.2275 46.555 59.4335 45.7927 59.0258C45.031 58.6187 44.1063 58.6644 43.3873 59.1429L33.4593 64.9077L29.2595 67.3461C27.9552 68.2158 27.9552 70.3765 29.2595 71.2462L35.421 74.8241L43.3873 79.6056C44.1063 80.0841 45.031 80.1299 45.7933 79.7228C46.555 79.3151 47.0311 78.521 47.0311 77.6555V74.4493C61.6106 71.4897 72.8795 59.5 74.8247 44.5781L64.9083 46.5398Z" fill="#7E6AD3"/>
<path d="M79.7228 34.2078C79.3157 33.4454 78.521 32.9694 77.6561 32.9694H74.45C71.4904 18.3905 59.5 7.12158 44.5781 5.17578L46.5398 15.0922C55.3368 17.4048 62.3003 24.2413 64.7814 32.9694H61.093C60.2275 32.9694 59.4335 33.4454 59.0258 34.2078C58.6187 34.9701 58.6644 35.8948 59.1429 36.6132L64.9077 46.5411L67.3461 50.741C68.2158 52.0459 70.3765 52.0459 71.2462 50.741L74.8241 44.5795L79.6056 36.6132C80.0841 35.8942 80.1299 34.9695 79.7228 34.2078Z" fill="#5D4EB5"/>
<path d="M50.7404 8.75307L44.5789 5.17518L36.6125 0.39308C35.8936 -0.0848258 34.9689 -0.130602 34.2072 0.276502C33.4448 0.684217 32.9688 1.47828 32.9688 2.34376V5.54933C16.922 8.80739 4.84375 22.992 4.84375 40C4.84375 40.2112 4.87183 40.4151 4.87549 40.6256L8.75305 33.9472C9.6228 32.6428 11.7834 32.6428 12.6532 33.9472L14.4122 36.9763C15.6378 26.5491 23.1042 18.0219 32.9688 15.2179V18.9063C32.9688 19.7717 33.4448 20.5658 34.2072 20.9735C34.9695 21.3806 35.8942 21.3349 36.6125 20.8569L46.5405 15.0916L50.7404 12.6532C52.0447 11.7835 52.0447 9.62282 50.7404 8.75307Z" fill="#9FAFFF"/>
<path d="M51.7188 49.375C51.7188 50.6873 50.6879 51.7188 49.375 51.7188H40V47.0312H49.375C50.6879 47.0312 51.7188 48.0627 51.7188 49.375Z" fill="#7E6AD3"/>
<path d="M51.7188 40C51.7188 41.3123 50.6879 42.3438 49.375 42.3438H40V37.6562H49.375C50.6879 37.6562 51.7188 38.6877 51.7188 40Z" fill="#7E6AD3"/>
<path d="M49.375 32.9688H40V28.2812H49.375C50.6879 28.2812 51.7188 29.3121 51.7188 30.625C51.7188 31.9373 50.6879 32.9688 49.375 32.9688Z" fill="#7E6AD3"/>
</g>
<defs>
<clipPath id="clip0_73_7569">
<rect width="80" height="80" fill="white"/>
</clipPath>
</defs>
</svg>
