<svg width="80" height="80" viewBox="0 0 80 80" fill="none" xmlns="http://www.w3.org/2000/svg">
<g clip-path="url(#clip0_73_7508)">
<path fill-rule="evenodd" clip-rule="evenodd" d="M23.8432 26.7731C25.8702 23.26 35.5052 25.0279 45.3585 30.7181C55.2163 36.4082 61.5608 43.8664 59.5338 47.3795C58.4068 49.3246 57.2796 51.2745 56.1571 53.2242C54.13 56.7373 44.495 54.9693 34.6418 49.2792C24.7885 43.589 18.4439 36.1311 20.471 32.6178C21.5935 30.6725 22.7205 28.7228 23.8432 26.7731Z" fill="#5D4EB5"/>
<path fill-rule="evenodd" clip-rule="evenodd" d="M45.3593 30.7199C55.2172 36.4101 61.5617 43.8682 59.5346 47.3813C57.5031 50.8945 47.8726 49.131 38.0148 43.441C28.1615 37.7509 21.817 30.2882 23.844 26.7751C25.8709 23.262 35.5061 25.0298 45.3593 30.7199Z" fill="#AE8FF7"/>
<path fill-rule="evenodd" clip-rule="evenodd" d="M43.6459 33.691C51.4858 38.2177 56.9623 43.4033 55.8852 45.2758C54.8034 47.1438 47.5727 44.9896 39.7328 40.4674C31.893 35.9407 26.4119 30.7505 27.4936 28.8825C28.5706 27.01 35.8061 29.1643 43.6459 33.691Z" fill="#7E6AD3"/>
<path d="M50.6167 51.6757L48.8216 54.7888C49.4942 54.8979 50.1305 54.9705 50.735 55.0024L52.1484 52.5573L50.6167 51.6757ZM44.1767 53.621C43.6267 53.4391 43.0633 53.2438 42.4906 53.0257L44.1995 50.0624L45.722 50.9441L44.1767 53.621ZM38.232 51.1895C37.7094 50.9349 37.1867 50.6713 36.6595 50.3941L38.2911 47.5627L39.8136 48.449L38.232 51.1895ZM32.6692 48.0899C32.1692 47.7718 31.6739 47.4537 31.1922 47.1265L32.7783 44.3813L34.3053 45.263L32.6692 48.0899ZM27.4744 44.3585C27.0017 43.9723 26.5472 43.5813 26.1155 43.1951L27.6608 40.5137L29.1833 41.3954L27.4744 44.3585ZM22.7842 39.7546C22.357 39.2274 21.9706 38.7093 21.6389 38.2095L23.0524 35.7598L24.5794 36.6415L22.7842 39.7546Z" fill="#AE8FF7"/>
<path fill-rule="evenodd" clip-rule="evenodd" d="M10.582 50.5352H22.5441C27.3616 54.2483 32.1791 57.9659 36.9966 61.6836C38.9372 63.1789 39.4691 65.8558 38.3691 67.96L52.6762 61.0245C55.1531 59.8247 58.1573 60.8655 59.3572 63.3423C60.557 65.8147 59.5117 68.8234 57.0394 70.0233C31.4383 82.4353 36.3877 82.9034 10.582 69.4417V50.5352Z" fill="#CDC3F4"/>
<path d="M23.8254 61.1463L22.8527 60.3965L21.3574 62.3371L31.7605 70.3634C33.1149 71.4087 34.7738 71.804 36.3554 71.604C37.937 71.3995 39.4459 70.5951 40.4912 69.2362C40.6684 69.0045 40.8321 68.7635 40.9729 68.5135C41.1229 68.2499 41.2501 67.9909 41.3501 67.7363L41.9682 66.2138L38.3687 67.959C37.746 68.6498 36.9143 69.0634 36.0462 69.1724C35.0873 69.2951 34.0782 69.0588 33.2557 68.4226L23.8254 61.1463Z" fill="#7E6AD3"/>
<path fill-rule="evenodd" clip-rule="evenodd" d="M0.078125 47.1035H10.5813V72.8727H0.078125V47.1035Z" fill="#5D4EB5"/>
<path fill-rule="evenodd" clip-rule="evenodd" d="M69.4241 29.4644H57.4576C52.64 25.7512 47.8226 22.0336 43.0094 18.3159C41.0643 16.8206 40.5326 14.1437 41.6369 12.0395L27.3252 18.975C24.8527 20.1748 21.8441 19.1341 20.6443 16.6572C19.4444 14.1848 20.4897 11.1761 22.9621 9.97624C48.5632 -2.43564 43.6183 -2.90376 69.424 10.558L69.4241 29.4644Z" fill="#CDC3F4"/>
<path d="M56.1741 18.8515L57.1467 19.6014L58.642 17.6608L48.2434 9.63466C46.8845 8.58934 45.2256 8.19388 43.6486 8.39388C42.0625 8.59841 40.5581 9.40278 39.5083 10.7617C39.3311 10.9934 39.172 11.2343 39.0266 11.4843C38.8766 11.7479 38.7539 12.007 38.6494 12.2615L38.0312 13.784L41.6353 12.0389C42.2534 11.3481 43.0852 10.9345 43.9531 10.8254C44.9167 10.7028 45.9211 10.939 46.7436 11.5753L56.1741 18.8515Z" fill="#7E6AD3"/>
<path fill-rule="evenodd" clip-rule="evenodd" d="M69.4238 7.12695H79.9224V32.8962H69.4238V7.12695Z" fill="#5D4EB5"/>
<path d="M12.6304 27.5273V30.6678H15.7709V32.913H12.6304V36.0581H10.3852V32.913H7.24023V30.6678H10.3852V27.5273H12.6304Z" fill="#7E6AD3"/>
<path d="M69.0269 38.2266V41.3716H72.1675V43.6167H69.0269V46.7617H66.7817V43.6167H63.6367V41.3716H66.7817V38.2266H69.0269Z" fill="#7E6AD3"/>
</g>
<defs>
<clipPath id="clip0_73_7508">
<rect width="80" height="80" fill="white"/>
</clipPath>
</defs>
</svg>
