<svg width="138" height="237" viewBox="0 0 138 237" fill="none" xmlns="http://www.w3.org/2000/svg">
<path d="M87.7991 230.516H18.668V23.0494L53.2281 0L87.7991 23.0494V230.516Z" fill="#D9C9FF"/>
<g style="mix-blend-mode:multiply">
<path d="M87.7991 198.818H18.668V204.58H87.7991V198.818Z" fill="#F1F2F2"/>
</g>
<path d="M122.359 105.034H87.7988V230.516H122.359V105.034Z" fill="#D9C9FF"/>
<path d="M99 153H93V213H99V153Z" fill="#AE8FF7"/>
<path d="M99 113H93V147H99V113Z" fill="#AE8FF7"/>
<path d="M108 153H102V213H108V153Z" fill="#AE8FF7"/>
<path d="M108 113H102V147H108V113Z" fill="#AE8FF7"/>
<path d="M117 153H111V213H117V153Z" fill="#AE8FF7"/>
<path d="M117 113H111V147H117V113Z" fill="#AE8FF7"/>
<g style="mix-blend-mode:multiply">
<path d="M18.6794 46.0988H15.7939V230.516H18.6794V46.0988Z" fill="#F1F2F2"/>
</g>
<g style="mix-blend-mode:multiply">
<path d="M84.9248 152.719H21.5537V155.605H84.9248V152.719Z" fill="#E9E5D9"/>
</g>
<g style="mix-blend-mode:multiply">
<path d="M84.9248 141.194H21.5537V144.081H84.9248V141.194Z" fill="#E9E5D9"/>
</g>
<g style="mix-blend-mode:multiply">
<path d="M84.9248 129.669H21.5537V132.556H84.9248V129.669Z" fill="#E9E5D9"/>
</g>
<g style="mix-blend-mode:multiply">
<path d="M84.9248 118.145H21.5537V121.031H84.9248V118.145Z" fill="#E9E5D9"/>
</g>
<g style="mix-blend-mode:multiply">
<path d="M84.9248 106.609H21.5537V109.496H84.9248V106.609Z" fill="#E9E5D9"/>
</g>
<g style="mix-blend-mode:multiply">
<path d="M84.9248 95.0843H21.5537V97.9709H84.9248V95.0843Z" fill="#E9E5D9"/>
</g>
<g style="mix-blend-mode:multiply">
<path d="M84.9248 83.5596H21.5537V86.4462H84.9248V83.5596Z" fill="#E9E5D9"/>
</g>
<g style="mix-blend-mode:multiply">
<path d="M84.9248 72.0349H21.5537V74.9216H84.9248V72.0349Z" fill="#E9E5D9"/>
</g>
<g style="mix-blend-mode:multiply">
<path d="M84.9248 60.5102H21.5537V63.3968H84.9248V60.5102Z" fill="#E9E5D9"/>
</g>
<g style="mix-blend-mode:multiply">
<path d="M84.9248 48.9855H21.5537V51.8721H84.9248V48.9855Z" fill="#E9E5D9"/>
</g>
<g style="mix-blend-mode:multiply">
<path d="M84.9248 37.4608H21.5537V40.3474H84.9248V37.4608Z" fill="#E9E5D9"/>
</g>
<g style="mix-blend-mode:multiply">
<path d="M84.9248 25.936H21.5537V28.8227H84.9248V25.936Z" fill="#E9E5D9"/>
</g>
<path d="M56.1135 28.8118H50.3535V34.5741H56.1135V28.8118Z" fill="#7732EF"/>
<path d="M67.634 28.8118H61.874V34.5741H67.634V28.8118Z" fill="#7732EF"/>
<path d="M79.1536 28.8118H73.3936V34.5741H79.1536V28.8118Z" fill="#7732EF"/>
<path d="M33.0735 28.8118H27.3135V34.5741H33.0735V28.8118Z" fill="#7732EF"/>
<path d="M44.594 28.8118H38.834V34.5741H44.594V28.8118Z" fill="#7732EF"/>
<g style="mix-blend-mode:multiply">
<path d="M79.1536 28.8118H27.3135V31.6984H79.1536V28.8118Z" fill="#E6E7E8"/>
</g>
<path d="M56.1135 40.3365H50.3535V46.0988H56.1135V40.3365Z" fill="#7732EF"/>
<path d="M67.634 40.3365H61.874V46.0988H67.634V40.3365Z" fill="#7732EF"/>
<path d="M79.1536 40.3365H73.3936V46.0988H79.1536V40.3365Z" fill="#7732EF"/>
<path d="M33.0735 40.3365H27.3135V46.0988H33.0735V40.3365Z" fill="#7732EF"/>
<path d="M44.594 40.3365H38.834V46.0988H44.594V40.3365Z" fill="#7732EF"/>
<g style="mix-blend-mode:multiply">
<path d="M79.1536 40.3365H27.3135V43.2231H79.1536V40.3365Z" fill="#E6E7E8"/>
</g>
<path d="M56.1135 51.8612H50.3535V57.6236H56.1135V51.8612Z" fill="#7732EF"/>
<path d="M67.634 51.8612H61.874V57.6236H67.634V51.8612Z" fill="#7732EF"/>
<path d="M79.1536 51.8612H73.3936V57.6236H79.1536V51.8612Z" fill="#7732EF"/>
<path d="M33.0735 51.8612H27.3135V57.6236H33.0735V51.8612Z" fill="#7732EF"/>
<path d="M44.594 51.8612H38.834V57.6236H44.594V51.8612Z" fill="#7732EF"/>
<g style="mix-blend-mode:multiply">
<path d="M79.1536 51.8612H27.3135V54.7478H79.1536V51.8612Z" fill="#E6E7E8"/>
</g>
<path d="M56.1135 63.3968H50.3535V69.1591H56.1135V63.3968Z" fill="#7732EF"/>
<path d="M67.634 63.3968H61.874V69.1591H67.634V63.3968Z" fill="#7732EF"/>
<path d="M79.1536 63.3968H73.3936V69.1591H79.1536V63.3968Z" fill="#7732EF"/>
<path d="M33.0735 63.3968H27.3135V69.1591H33.0735V63.3968Z" fill="#7732EF"/>
<path d="M44.594 63.3968H38.834V69.1591H44.594V63.3968Z" fill="#7732EF"/>
<g style="mix-blend-mode:multiply">
<path d="M79.1536 63.3968H27.3135V66.2834H79.1536V63.3968Z" fill="#E6E7E8"/>
</g>
<path d="M56.1135 74.9215H50.3535V80.6839H56.1135V74.9215Z" fill="#7732EF"/>
<path d="M67.634 74.9215H61.874V80.6839H67.634V74.9215Z" fill="#7732EF"/>
<path d="M79.1536 74.9215H73.3936V80.6839H79.1536V74.9215Z" fill="#7732EF"/>
<path d="M33.0735 74.9215H27.3135V80.6839H33.0735V74.9215Z" fill="#7732EF"/>
<path d="M44.594 74.9215H38.834V80.6839H44.594V74.9215Z" fill="#7732EF"/>
<g style="mix-blend-mode:multiply">
<path d="M79.1536 74.9215H27.3135V77.8082H79.1536V74.9215Z" fill="#E6E7E8"/>
</g>
<path d="M56.1135 86.4462H50.3535V92.2086H56.1135V86.4462Z" fill="#7732EF"/>
<path d="M67.634 86.4462H61.874V92.2086H67.634V86.4462Z" fill="#7732EF"/>
<path d="M79.1536 86.4462H73.3936V92.2086H79.1536V86.4462Z" fill="#7732EF"/>
<path d="M33.0735 86.4462H27.3135V92.2086H33.0735V86.4462Z" fill="#7732EF"/>
<path d="M44.594 86.4462H38.834V92.2086H44.594V86.4462Z" fill="#7732EF"/>
<g style="mix-blend-mode:multiply">
<path d="M79.1536 86.4462H27.3135V89.3329H79.1536V86.4462Z" fill="#E6E7E8"/>
</g>
<path d="M56.1135 97.9709H50.3535V103.733H56.1135V97.9709Z" fill="#7732EF"/>
<path d="M67.634 97.9709H61.874V103.733H67.634V97.9709Z" fill="#7732EF"/>
<path d="M79.1536 97.9709H73.3936V103.733H79.1536V97.9709Z" fill="#7732EF"/>
<path d="M33.0735 97.9709H27.3135V103.733H33.0735V97.9709Z" fill="#7732EF"/>
<path d="M44.594 97.9709H38.834V103.733H44.594V97.9709Z" fill="#7732EF"/>
<g style="mix-blend-mode:multiply">
<path d="M79.1536 97.9709H27.3135V100.858H79.1536V97.9709Z" fill="#E6E7E8"/>
</g>
<path d="M56.1135 109.496H50.3535V115.258H56.1135V109.496Z" fill="#7732EF"/>
<path d="M67.634 109.496H61.874V115.258H67.634V109.496Z" fill="#7732EF"/>
<path d="M79.1536 109.496H73.3936V115.258H79.1536V109.496Z" fill="#7732EF"/>
<path d="M33.0735 109.496H27.3135V115.258H33.0735V109.496Z" fill="#7732EF"/>
<path d="M44.594 109.496H38.834V115.258H44.594V109.496Z" fill="#7732EF"/>
<g style="mix-blend-mode:multiply">
<path d="M79.1536 109.496H27.3135V112.382H79.1536V109.496Z" fill="#E6E7E8"/>
</g>
<path d="M56.1135 121.02H50.3535V126.783H56.1135V121.02Z" fill="#7732EF"/>
<path d="M67.634 121.02H61.874V126.783H67.634V121.02Z" fill="#7732EF"/>
<path d="M79.1536 121.02H73.3936V126.783H79.1536V121.02Z" fill="#7732EF"/>
<path d="M33.0735 121.02H27.3135V126.783H33.0735V121.02Z" fill="#7732EF"/>
<path d="M44.594 121.02H38.834V126.783H44.594V121.02Z" fill="#7732EF"/>
<g style="mix-blend-mode:multiply">
<path d="M79.1536 121.02H27.3135V123.907H79.1536V121.02Z" fill="#E6E7E8"/>
</g>
<path d="M56.1135 132.545H50.3535V138.307H56.1135V132.545Z" fill="#7732EF"/>
<path d="M67.634 132.545H61.874V138.307H67.634V132.545Z" fill="#7732EF"/>
<path d="M79.1536 132.545H73.3936V138.307H79.1536V132.545Z" fill="#7732EF"/>
<path d="M33.0735 132.545H27.3135V138.307H33.0735V132.545Z" fill="#7732EF"/>
<path d="M44.594 132.545H38.834V138.307H44.594V132.545Z" fill="#7732EF"/>
<g style="mix-blend-mode:multiply">
<path d="M79.1536 132.545H27.3135V135.432H79.1536V132.545Z" fill="#E6E7E8"/>
</g>
<path d="M56.1135 144.07H50.3535V149.832H56.1135V144.07Z" fill="#7732EF"/>
<path d="M67.634 144.07H61.874V149.832H67.634V144.07Z" fill="#7732EF"/>
<path d="M79.1536 144.07H73.3936V149.832H79.1536V144.07Z" fill="#7732EF"/>
<path d="M33.0735 144.07H27.3135V149.832H33.0735V144.07Z" fill="#7732EF"/>
<path d="M44.594 144.07H38.834V149.832H44.594V144.07Z" fill="#7732EF"/>
<g style="mix-blend-mode:multiply">
<path d="M79.1536 144.07H27.3135V146.956H79.1536V144.07Z" fill="#E6E7E8"/>
</g>
<path d="M56.1135 155.594H50.3535V161.357H56.1135V155.594Z" fill="#7732EF"/>
<path d="M67.634 155.594H61.874V161.357H67.634V155.594Z" fill="#7732EF"/>
<path d="M79.1536 155.594H73.3936V161.357H79.1536V155.594Z" fill="#7732EF"/>
<path d="M33.0735 155.594H27.3135V161.357H33.0735V155.594Z" fill="#7732EF"/>
<path d="M44.594 155.594H38.834V161.357H44.594V155.594Z" fill="#7732EF"/>
<g style="mix-blend-mode:multiply">
<path d="M79.1536 155.594H27.3135V158.481H79.1536V155.594Z" fill="#E6E7E8"/>
</g>
<path d="M70.5084 207.467H35.9482V230.516H70.5084V207.467Z" fill="#AE8FF7"/>
<path d="M82.0393 207.467H76.2793V230.516H82.0393V207.467Z" fill="#AE8FF7"/>
<path d="M30.1878 207.467H24.4277V230.516H30.1878V207.467Z" fill="#AE8FF7"/>
<path d="M87.7991 204.58H18.668V207.467H87.7991V204.58Z" fill="#7732EF"/>
<path d="M128.119 101.109H87.7988V105.034H128.119V101.109Z" fill="#AE8FF7"/>
<g style="mix-blend-mode:multiply">
<path d="M122.359 105.034H90.6738V106.992H122.359V105.034Z" fill="#F1F2F2"/>
</g>
<g style="mix-blend-mode:multiply">
<path d="M53.2285 0V23.0494H87.7996L53.2285 0Z" fill="#E6E7E8"/>
</g>
<path d="M70.5193 204.58H35.9482L53.2283 187.293L70.5193 204.58Z" fill="#7732EF"/>
<g style="mix-blend-mode:multiply">
<path d="M87.7991 207.467H18.668V210.353H87.7991V207.467Z" fill="#F1F2F2"/>
</g>
<path d="M41.708 204.58L53.228 193.055L64.759 204.58H41.708Z" fill="#AE8FF7"/>
<path d="M87.7995 207.467H84.9141V230.516H87.7995V207.467Z" fill="#AE8FF7"/>
<path d="M21.5534 207.467H18.668V230.516H21.5534V207.467Z" fill="#AE8FF7"/>
<path d="M127 210H87V213H127V210Z" fill="#AE8FF7"/>
<path d="M99 213H93V225H99V213Z" fill="#AE8FF7"/>
<path d="M108 213H102V225H108V213Z" fill="#AE8FF7"/>
<path d="M117 213H111V225H117V213Z" fill="#AE8FF7"/>
<path d="M135.377 230.516H2.62305V233.753H135.377V230.516Z" fill="#AE8FF7"/>
<path d="M138 233.763H0V237H138V233.763Z" fill="#AE8FF7"/>
</svg>
