<svg width="76" height="76" viewBox="0 0 76 76" fill="none" xmlns="http://www.w3.org/2000/svg">
<path fill-rule="evenodd" clip-rule="evenodd" d="M5.76642 72.2648H23.2714V18.782H7.32892C6.46845 18.782 5.76642 19.484 5.76642 20.3445V72.2648ZM52.7286 72.2648H70.2336V20.3445C70.2336 19.4839 69.5316 18.782 68.6711 18.782H52.7286V72.2648Z" fill="#936FE9"/>
<path fill-rule="evenodd" clip-rule="evenodd" d="M37.0625 0.96875C37.0625 0.450938 37.4822 0.03125 38 0.03125C38.5178 0.03125 38.9375 0.450938 38.9375 0.96875V16.5084C38.9375 17.0263 38.5178 17.4459 38 17.4459C37.4822 17.4459 37.0625 17.0263 37.0625 16.5084V0.96875Z" fill="#5D4EB5"/>
<path fill-rule="evenodd" clip-rule="evenodd" d="M29.603 5.7627H46.3969C47.2575 5.7627 47.9594 6.46457 47.9594 7.3252V16.7525H28.0406V7.3252C28.0406 6.46473 28.7425 5.7627 29.603 5.7627Z" fill="#936FE9"/>
<path fill-rule="evenodd" clip-rule="evenodd" d="M23.2714 11.0291H52.7288C53.5894 11.0291 54.2913 11.7309 54.2913 12.5916V73.3355H21.7089V12.5916C21.7089 11.7309 22.4108 11.0291 23.2714 11.0291Z" fill="#AE8FF7"/>
<path fill-rule="evenodd" clip-rule="evenodd" d="M27.912 40.2784H48.0881C48.5185 40.2784 48.8694 40.6293 48.8694 41.0596V44.7635C48.8694 45.1939 48.5185 45.5448 48.0881 45.5448H27.912C27.4817 45.5448 27.1308 45.1939 27.1308 44.7635V41.0595C27.1308 40.6292 27.4817 40.2784 27.912 40.2784ZM11.808 24.2042H15.6675C16.0978 24.2042 16.4488 24.5551 16.4488 24.9854V28.845C16.4488 29.2753 16.0978 29.6262 15.6675 29.6262H11.808C11.3777 29.6262 11.0267 29.2753 11.0267 28.845V24.9854C11.0267 24.5549 11.3777 24.2042 11.808 24.2042ZM11.808 47.9739H15.6675C16.0978 47.9739 16.4488 48.3248 16.4488 48.7551V52.6146C16.4488 53.0449 16.0978 53.3959 15.6675 53.3959H11.808C11.3777 53.3959 11.0267 53.0449 11.0267 52.6146V48.7551C11.0267 48.3248 11.3777 47.9739 11.808 47.9739ZM11.808 36.089H15.6675C16.0978 36.089 16.4488 36.44 16.4488 36.8703V40.7298C16.4488 41.1601 16.0978 41.511 15.6675 41.511H11.808C11.3777 41.511 11.0267 41.1601 11.0267 40.7298V36.8703C11.0267 36.44 11.3777 36.089 11.808 36.089ZM11.808 59.8587H15.6675C16.0978 59.8587 16.4488 60.2096 16.4488 60.6399V64.4995C16.4488 64.9298 16.0978 65.2807 15.6675 65.2807H11.808C11.3777 65.2807 11.0267 64.9298 11.0267 64.4995V60.6399C11.0267 60.2096 11.3777 59.8587 11.808 59.8587ZM60.3327 24.2042H64.1922C64.6225 24.2042 64.9735 24.5551 64.9735 24.9854V28.845C64.9735 29.2753 64.6225 29.6262 64.1922 29.6262H60.3327C59.9024 29.6262 59.5514 29.2753 59.5514 28.845V24.9854C59.5514 24.5549 59.9024 24.2042 60.3327 24.2042ZM60.3327 47.9739H64.1922C64.6225 47.9739 64.9735 48.3248 64.9735 48.7551V52.6146C64.9735 53.0449 64.6225 53.3959 64.1922 53.3959H60.3327C59.9024 53.3959 59.5514 53.0449 59.5514 52.6146V48.7551C59.5514 48.3248 59.9024 47.9739 60.3327 47.9739ZM60.3327 36.089H64.1922C64.6225 36.089 64.9735 36.44 64.9735 36.8703V40.7298C64.9735 41.1601 64.6225 41.511 64.1922 41.511H60.3327C59.9024 41.511 59.5514 41.1601 59.5514 40.7298V36.8703C59.5514 36.44 59.9024 36.089 60.3327 36.089ZM60.3327 59.8587H64.1922C64.6225 59.8587 64.9735 60.2096 64.9735 60.6399V64.4995C64.9735 64.9298 64.6225 65.2807 64.1922 65.2807H60.3327C59.9024 65.2807 59.5514 64.9298 59.5514 64.4995V60.6399C59.5514 60.2096 59.9024 59.8587 60.3327 59.8587ZM27.912 16.5085H48.0881C48.5185 16.5085 48.8694 16.8595 48.8694 17.2898V20.9937C48.8694 21.424 48.5185 21.775 48.0881 21.775H27.912C27.4817 21.775 27.1308 21.424 27.1308 20.9937V17.2898C27.1308 16.8595 27.4817 16.5085 27.912 16.5085ZM27.912 28.3934H48.0881C48.5185 28.3934 48.8694 28.7443 48.8694 29.1746V32.8785C48.8694 33.3089 48.5185 33.6598 48.0881 33.6598H27.912C27.4817 33.6598 27.1308 33.3089 27.1308 32.8785V29.1746C27.1308 28.7443 27.4817 28.3934 27.912 28.3934Z" fill="#DDCFFF"/>
<path fill-rule="evenodd" clip-rule="evenodd" d="M27.912 53.3955H48.0881C48.5185 53.3955 48.8694 53.7464 48.8694 54.1768V72.2647H27.1308V54.1768C27.1308 53.7464 27.4817 53.3955 27.912 53.3955Z" fill="#DDCFFF"/>
<path fill-rule="evenodd" clip-rule="evenodd" d="M37.0625 53.3955H38.9375V72.2647H37.0625V53.3955Z" fill="#9F8CEA"/>
<path fill-rule="evenodd" clip-rule="evenodd" d="M2.0625 70.7024H73.9375C74.7981 70.7024 75.5 71.4043 75.5 72.2649V74.4063C75.5 75.2669 74.7981 75.9688 73.9375 75.9688H2.0625C1.20188 75.9688 0.5 75.2669 0.5 74.4063V72.2649C0.5 71.4043 1.20188 70.7024 2.0625 70.7024Z" fill="#5D4EB5"/>
</svg>
