<svg width="31" height="32" viewBox="0 0 31 32" fill="none" xmlns="http://www.w3.org/2000/svg">
<g clip-path="url(#clip0_73_6143)">
<path d="M28.9335 8.38002C28.7568 5.44174 26.3033 3.13976 23.3483 3.13976H21.9096V2.02148C21.9096 1.40419 21.4086 0.903198 20.7913 0.903198C20.174 0.903198 19.673 1.40419 19.673 2.02148V3.13976H10.7268V2.02148C10.7268 1.40419 10.2258 0.903198 9.60851 0.903198C8.99122 0.903198 8.49023 1.40419 8.49023 2.02148V3.13976H7.05156C4.09595 3.13976 1.64245 5.44174 1.46632 8.38002C1.13475 13.9066 1.1409 19.5125 1.48477 25.0418C1.65922 27.8498 3.90864 30.0992 6.71664 30.2737C9.53079 30.4487 12.3651 30.5359 15.1993 30.5359C18.0331 30.5359 20.8679 30.4487 23.6821 30.2737C26.4901 30.0992 28.7395 27.8498 28.9139 25.0418C29.2584 19.5153 29.2645 13.9099 28.9335 8.38002ZM26.6824 24.9032C26.5773 26.5878 25.2281 27.937 23.544 28.0416C18.0073 28.3855 12.3925 28.3855 6.85586 28.0416C5.17118 27.9365 3.82197 26.5873 3.71741 24.9032C3.45294 20.652 3.3987 16.3561 3.54017 12.086H26.8602C27.0011 16.3578 26.9469 20.6537 26.6824 24.9032ZM9.60851 7.61288C10.2258 7.61288 10.7268 7.11189 10.7268 6.4946V5.37632H19.673V6.4946C19.673 7.11189 20.174 7.61288 20.7913 7.61288C21.4086 7.61288 21.9096 7.11189 21.9096 6.4946V5.37632H23.3483C25.1224 5.37632 26.5952 6.7546 26.7009 8.51365C26.7271 8.95761 26.7383 9.40436 26.7601 9.84943H3.63969C3.66206 9.40436 3.67268 8.95761 3.69896 8.51365C3.80464 6.7546 5.27685 5.37632 7.05156 5.37632H8.49023V6.4946C8.49023 7.11189 8.99122 7.61288 9.60851 7.61288Z" fill="white"/>
<path d="M9.60857 18.7971C10.535 18.7971 11.286 18.0461 11.286 17.1197C11.286 16.1933 10.535 15.4423 9.60857 15.4423C8.68216 15.4423 7.93115 16.1933 7.93115 17.1197C7.93115 18.0461 8.68216 18.7971 9.60857 18.7971Z" fill="white"/>
<path d="M15.2004 18.7971C16.1268 18.7971 16.8778 18.0461 16.8778 17.1197C16.8778 16.1933 16.1268 15.4423 15.2004 15.4423C14.274 15.4423 13.5229 16.1933 13.5229 17.1197C13.5229 18.0461 14.274 18.7971 15.2004 18.7971Z" fill="white"/>
<path d="M9.60845 24.3871C10.5349 24.3871 11.2859 23.6361 11.2859 22.7096C11.2859 21.7832 10.5349 21.0322 9.60845 21.0322C8.68204 21.0322 7.93103 21.7832 7.93103 22.7096C7.93103 23.6361 8.68204 24.3871 9.60845 24.3871Z" fill="white"/>
<path d="M20.7922 18.7971C21.7186 18.7971 22.4696 18.0461 22.4696 17.1197C22.4696 16.1933 21.7186 15.4423 20.7922 15.4423C19.8658 15.4423 19.1147 16.1933 19.1147 17.1197C19.1147 18.0461 19.8658 18.7971 20.7922 18.7971Z" fill="white"/>
<path d="M20.7922 24.3869C21.7186 24.3869 22.4696 23.6359 22.4696 22.7095C22.4696 21.7831 21.7186 21.0321 20.7922 21.0321C19.8658 21.0321 19.1147 21.7831 19.1147 22.7095C19.1147 23.6359 19.8658 24.3869 20.7922 24.3869Z" fill="white"/>
<path d="M15.2004 24.3869C16.1268 24.3869 16.8778 23.6359 16.8778 22.7095C16.8778 21.7831 16.1268 21.0321 15.2004 21.0321C14.274 21.0321 13.5229 21.7831 13.5229 22.7095C13.5229 23.6359 14.274 24.3869 15.2004 24.3869Z" fill="white"/>
</g>
<defs>
<clipPath id="clip0_73_6143">
<rect width="30.1935" height="30.1935" fill="white" transform="translate(0.103149 0.903198)"/>
</clipPath>
</defs>
</svg>
