<svg width="40" height="40" viewBox="0 0 40 40" fill="none" xmlns="http://www.w3.org/2000/svg">
<g clip-path="url(#clip0_73_8655)">
<path d="M36 4.66797H33.964C33.7387 2.37864 32.3733 0.667969 30.6667 0.667969C28.96 0.667969 27.5947 2.37864 27.3693 4.66797H23.2973C23.072 2.37864 21.7067 0.667969 20 0.667969C18.2933 0.667969 16.928 2.37864 16.7027 4.66797H12.6307C12.4053 2.37864 11.04 0.667969 9.33333 0.667969C7.62667 0.667969 6.26133 2.37864 6.036 4.66797H4C1.79177 4.67017 0.00220492 6.45974 0 8.66797V11.3346C0 12.071 0.596954 12.668 1.33333 12.668V36.668C1.33333 38.1407 2.52724 39.3346 4 39.3346H36C37.4728 39.3346 38.6667 38.1407 38.6667 36.668V12.668C39.403 12.668 40 12.071 40 11.3346V8.66797C39.9978 6.45974 38.2082 4.67017 36 4.66797ZM36 38.0013H30.9427L37.3333 31.6106V36.668C37.3333 37.4044 36.7364 38.0013 36 38.0013ZM30 37.0586V32.0013C30 31.2649 30.597 30.668 31.3333 30.668H36.3907L30 37.0586ZM37.3333 29.3346H31.3333C29.8606 29.3346 28.6667 30.5285 28.6667 32.0013V38.0013H4C3.26362 38.0013 2.66667 37.4044 2.66667 36.668V12.668H37.3333V29.3346ZM38.6667 11.3346H1.33333V8.66797C1.33333 7.19521 2.52724 6.0013 4 6.0013H9.33333C9.70152 6.0013 10 5.70283 10 5.33464C10 4.96645 9.70152 4.66797 9.33333 4.66797H7.376C7.56733 3.1673 8.386 2.0013 9.33333 2.0013C10.4173 2.0013 11.3333 3.52797 11.3333 5.33464C11.3333 7.1413 10.4173 8.66797 9.33333 8.66797C8.96514 8.66797 8.66667 8.96645 8.66667 9.33464C8.66667 9.70283 8.96514 10.0013 9.33333 10.0013C11.04 10.0013 12.4053 8.29064 12.6307 6.0013H20C20.3682 6.0013 20.6667 5.70283 20.6667 5.33464C20.6667 4.96645 20.3682 4.66797 20 4.66797H18.042C18.2333 3.16797 19.0527 2.0013 20 2.0013C21.084 2.0013 22 3.52797 22 5.33464C22 7.1413 21.084 8.66797 20 8.66797C19.6318 8.66797 19.3333 8.96645 19.3333 9.33464C19.3333 9.70283 19.6318 10.0013 20 10.0013C21.7067 10.0013 23.072 8.29064 23.2973 6.0013H30.6667C31.0349 6.0013 31.3333 5.70283 31.3333 5.33464C31.3333 4.96645 31.0349 4.66797 30.6667 4.66797H28.7087C28.9 3.16797 29.7193 2.0013 30.6667 2.0013C31.7507 2.0013 32.6667 3.52797 32.6667 5.33464C32.6667 7.1413 31.7507 8.66797 30.6667 8.66797C30.2985 8.66797 30 8.96645 30 9.33464C30 9.70283 30.2985 10.0013 30.6667 10.0013C32.3733 10.0013 33.7387 8.29064 33.964 6.0013H36C37.4728 6.0013 38.6667 7.19521 38.6667 8.66797V11.3346Z" fill="white" stroke="white" stroke-width="0.8"/>
<path d="M6.00065 36.0026H26.6673C27.0355 36.0026 27.334 35.7041 27.334 35.3359C27.334 34.9677 27.0355 34.6693 26.6673 34.6693H25.334V31.3359H26.8607C27.2288 31.3359 27.5273 31.0375 27.5273 30.6693C27.5273 30.3011 27.2288 30.0026 26.8607 30.0026H25.334V28.0026C25.334 27.6344 25.0355 27.3359 24.6673 27.3359C24.2991 27.3359 24.0007 27.6344 24.0007 28.0026V30.0026H20.6673V28.0026C20.6673 27.6344 20.3688 27.3359 20.0007 27.3359C19.6325 27.3359 19.334 27.6344 19.334 28.0026V30.0026H16.0007V28.0026C16.0007 27.6344 15.7022 27.3359 15.334 27.3359C14.9658 27.3359 14.6673 27.6344 14.6673 28.0026V30.0026H11.334V28.0026C11.334 27.6344 11.0355 27.3359 10.6673 27.3359C10.2991 27.3359 10.0007 27.6344 10.0007 28.0026V30.0026H6.66732V26.0026C6.66732 25.6344 6.36884 25.3359 6.00065 25.3359C5.63246 25.3359 5.33398 25.6344 5.33398 26.0026V35.3359C5.33398 35.7041 5.63246 36.0026 6.00065 36.0026ZM24.0007 31.3359V34.6693H20.6673V31.3359H24.0007ZM19.334 31.3359V34.6693H16.0007V31.3359H19.334ZM14.6673 31.3359V34.6693H11.334V31.3359H14.6673ZM10.0007 31.3359V34.6693H6.66732V31.3359H10.0007Z" fill="white" stroke="white" stroke-width="0.8"/>
<path d="M8.66667 17.3333H11.3333V24.6667C11.3333 25.0349 11.6318 25.3333 12 25.3333C12.3682 25.3333 12.6667 25.0349 12.6667 24.6667V17.3333H15.3333C15.7015 17.3333 16 17.0349 16 16.6667C16 16.2985 15.7015 16 15.3333 16H8.66667C8.29848 16 8 16.2985 8 16.6667C8 17.0349 8.29848 17.3333 8.66667 17.3333Z" fill="white" stroke="white" stroke-width="0.8"/>
<path d="M25.6308 25.2215C25.7779 25.3196 25.958 25.3553 26.1314 25.3207C26.3048 25.2861 26.4574 25.1839 26.5555 25.0368L28.6675 21.8668L30.7795 25.0348C30.9117 25.233 31.1395 25.3456 31.3772 25.3302C31.6149 25.3148 31.8264 25.1737 31.9319 24.9602C32.0374 24.7466 32.021 24.493 31.8888 24.2948L29.4675 20.6668L31.8875 17.0368C32.0918 16.7305 32.0091 16.3165 31.7028 16.1122C31.3965 15.9078 30.9825 15.9905 30.7781 16.2968L28.6675 19.4668L26.5555 16.2988C26.3511 15.9925 25.9371 15.9098 25.6308 16.1142C25.3245 16.3185 25.2418 16.7325 25.4461 17.0388L27.8675 20.6668L25.4475 24.2968C25.2428 24.6028 25.3249 25.0167 25.6308 25.2215Z" fill="white" stroke="white" stroke-width="0.8"/>
<path d="M16.0514 24.4121C15.9597 24.6319 15.9922 24.884 16.1368 25.0733C16.2813 25.2626 16.5159 25.3605 16.7521 25.33C16.9883 25.2995 17.1904 25.1453 17.2821 24.9254L18.5001 22.0021H21.5001L22.7181 24.9254C22.8098 25.1453 23.0118 25.2995 23.248 25.33C23.4842 25.3605 23.7188 25.2626 23.8633 25.0733C24.0079 24.884 24.0404 24.6319 23.9487 24.4121L22.5634 21.0874L22.5547 21.0668L20.6154 16.4121C20.5118 16.1637 20.2691 16.002 20.0001 16.002C19.731 16.002 19.4883 16.1637 19.3847 16.4121L17.4454 21.0688L17.4367 21.0894L16.0514 24.4121ZM20.0001 18.4021L20.9447 20.6688H19.0554L20.0001 18.4021Z" fill="white" stroke="white" stroke-width="0.8"/>
</g>
<defs>
<clipPath id="clip0_73_8655">
<rect width="40" height="40" fill="white"/>
</clipPath>
</defs>
</svg>
