<svg width="41" height="41" viewBox="0 0 41 41" fill="none" xmlns="http://www.w3.org/2000/svg">
<path d="M23.5445 22.7823C29.5499 22.7823 34.4356 17.8966 34.4356 11.8911C34.4356 5.8857 29.5499 1 23.5445 1C17.539 1 12.6533 5.8857 12.6533 11.8911C12.6533 17.8966 17.5391 22.7823 23.5445 22.7823ZM23.5445 3.28485C28.29 3.28485 32.1507 7.14557 32.1507 11.8911C32.1507 16.6367 28.29 20.4974 23.5445 20.4974C18.7989 20.4974 14.9382 16.6367 14.9382 11.8911C14.9382 7.14557 18.799 3.28485 23.5445 3.28485Z" fill="#7732EF" stroke="#7732EF" stroke-width="0.5"/>
<path d="M34.0582 23.2402L20.9615 26.2204C20.6618 25.9482 20.3177 25.7195 19.9365 25.548L13.2116 22.5311C11.2555 21.6508 9.0167 21.6615 7.0748 22.5579L1.6696 25.0175C1.09526 25.2788 0.841566 25.9562 1.10295 26.5304C1.36426 27.1047 2.04165 27.3585 2.61591 27.0971L8.02675 24.6349C9.37344 24.0133 10.9215 24.006 12.2752 24.6152L19.0001 27.6321C19.5879 27.8966 19.9646 28.4843 19.9646 29.1237C19.9646 30.3061 18.7476 31.106 17.6576 30.6153L11.8428 27.9987C11.2672 27.7396 10.591 27.9963 10.3322 28.5716C10.0732 29.147 10.3298 29.8233 10.9051 30.0822L16.72 32.6989C19.6448 34.0151 22.8465 31.4405 22.1594 28.2908C30.6899 26.3498 34.6141 25.4581 34.6685 25.442C36.2083 24.9868 37.7103 26.1432 37.7103 27.7121C37.7103 28.5447 37.2653 29.3255 36.5517 29.7482L24.2436 36.9973C22.9453 37.7666 21.3838 37.9217 19.9596 37.4228L10.5171 34.1181C10.2626 34.0291 9.98487 34.0329 9.733 34.1288L1.73601 37.1753C1.14637 37.3999 0.850553 38.06 1.07515 38.6496C1.29976 39.2392 1.95985 39.5351 2.54942 39.3104L10.1563 36.4126L19.2046 39.5793C21.2259 40.2873 23.4909 40.0991 25.4057 38.9645L37.7138 31.7155C39.121 30.8818 39.9951 29.3478 39.9951 27.7121C39.9951 24.6488 37.0616 22.3784 34.0582 23.2402Z" fill="#7732EF" stroke="#7732EF" stroke-width="0.5"/>
</svg>
