<svg width="49" height="49" viewBox="0 0 49 49" fill="none" xmlns="http://www.w3.org/2000/svg">
<path d="M2.34368 33.3079C2.62433 30.4531 4.40871 27.9224 6.99988 26.7039L14.431 23.2033V7.53122C14.431 4.96446 16.5192 2.87622 19.086 2.87622H43.1204C45.6871 2.87622 47.7754 4.96446 47.7754 7.53122V38.8276C47.7754 41.3943 45.6871 43.4826 43.1204 43.4826H19.086C18.3489 43.4826 17.6538 43.3057 17.0338 42.9994C15.7793 44.2449 15.5731 44.9104 15.5407 45.1026C15.4397 45.7007 14.9212 46.1237 14.3343 46.1237C14.2666 46.1237 14.1977 46.118 14.1288 46.1063C13.4618 45.9936 13.0122 45.3615 13.1251 44.6944C13.2924 43.7043 13.9788 42.6115 15.1964 41.378C14.9958 41.0731 14.8329 40.7423 14.7077 40.3934C13.7203 41.1164 12.5776 41.6403 11.2749 41.9532C11.1788 41.9765 11.0826 41.9875 10.9878 41.9875C10.4344 41.9875 9.9327 41.6099 9.79776 41.0484C9.63961 40.3907 10.0447 39.7291 10.7026 39.5712C13.752 38.8386 15.6122 36.6149 16.39 32.7732C16.4262 32.5949 16.5015 32.4267 16.6106 32.2812L20.0957 27.6344C20.6261 26.9271 20.5723 25.9459 19.9677 25.3014C19.909 25.2385 19.8117 25.2322 19.7454 25.2873L10.8038 32.7255C10.2837 33.1584 9.51089 33.0875 9.07879 32.5672C8.64621 32.0473 8.71703 31.2747 9.23718 30.8421L14.431 26.5215V25.9116L8.04328 28.9206C6.22827 29.7743 4.97863 31.5472 4.78196 33.546L3.66965 45.0167C3.60816 45.65 3.07509 46.1235 2.45182 46.1235C2.41235 46.1235 2.37239 46.1216 2.3322 46.1178C1.65868 46.0524 1.16581 45.4536 1.23113 44.7803L2.34368 33.3079ZM16.881 24.4834L18.1787 23.4038C19.2401 22.5212 20.8103 22.6188 21.7549 23.6254C23.1744 25.1394 23.301 27.4437 22.0557 29.1044L18.7336 33.534C18.3408 35.3344 17.7201 36.859 16.881 38.1104V38.8276C16.881 40.0435 17.8701 41.0326 19.086 41.0326H43.1204C44.3363 41.0326 45.3254 40.0435 45.3254 38.8276V7.53122C45.3254 6.31531 44.3363 5.32622 43.1204 5.32622H19.086C17.8701 5.32622 16.881 6.31531 16.881 7.53122V24.4834Z" fill="white"/>
<path d="M23.2289 9.51013H33.9742C34.6508 9.51013 35.1992 10.0585 35.1992 10.7351C35.1992 11.4118 34.6508 11.9601 33.9742 11.9601H23.2289C22.5523 11.9601 22.0039 11.4118 22.0039 10.7351C22.0039 10.0585 22.5523 9.51013 23.2289 9.51013Z" fill="white"/>
<path d="M23.2289 16.3868H36.9742C37.6508 16.3868 38.1992 16.9352 38.1992 17.6118C38.1992 18.2885 37.6508 18.8368 36.9742 18.8368H23.2289C22.5523 18.8368 22.0039 18.2885 22.0039 17.6118C22.0039 16.9352 22.5523 16.3868 23.2289 16.3868Z" fill="white"/>
<path d="M29.6546 23.2639H38.9742C39.6508 23.2639 40.1992 23.8123 40.1992 24.4889C40.1992 25.1655 39.6508 25.7139 38.9742 25.7139H29.6546C28.978 25.7139 28.4296 25.1655 28.4296 24.4889C28.4296 23.8123 28.978 23.2639 29.6546 23.2639Z" fill="white"/>
<path d="M23.225 31H32.5445C33.2212 31 33.7695 31.5484 33.7695 32.225C33.7695 32.9016 33.2212 33.45 32.5445 33.45H23.225C22.5483 33.45 22 32.9016 22 32.225C22 31.5484 22.5483 31 23.225 31Z" fill="white"/>
</svg>
