<svg width="40" height="48" viewBox="0 0 40 48" fill="none" xmlns="http://www.w3.org/2000/svg">
<path d="M38.3199 47.1015H1.5392C1.39619 47.1015 1.25905 47.0447 1.15793 46.9435C1.05681 46.8424 1 46.7053 1 46.5623V27.4165C1 27.2735 1.05681 27.1364 1.15793 27.0352C1.25905 26.9341 1.39619 26.8773 1.5392 26.8773H38.3199C38.4629 26.8773 38.6 26.9341 38.7012 27.0352C38.8023 27.1364 38.8591 27.2735 38.8591 27.4165V46.5623C38.8591 46.7053 38.8023 46.8424 38.7012 46.9435C38.6 47.0447 38.4629 47.1015 38.3199 47.1015ZM2.07839 46.0231H37.7807V27.9557H2.07839V46.0231Z" fill="white" stroke="white"/>
<path d="M38.319 27.9852H1.53936C1.45266 27.9852 1.36724 27.9643 1.29033 27.9243C1.21343 27.8843 1.1473 27.8263 1.09756 27.7553C1.04782 27.6843 1.01594 27.6023 1.00462 27.5164C0.993296 27.4304 1.00286 27.343 1.03251 27.2616L5.46578 15.0439C5.50354 14.9398 5.57245 14.8499 5.66314 14.7863C5.75382 14.7227 5.86188 14.6886 5.97262 14.6886H16.2238C16.3668 14.6886 16.504 14.7454 16.6051 14.8465C16.7062 14.9476 16.763 15.0848 16.763 15.2278C16.763 15.3708 16.7062 15.5079 16.6051 15.6091C16.504 15.7102 16.3668 15.767 16.2238 15.767H6.3506L2.30663 26.9068H37.5501L33.5061 15.767H23.6345C23.4915 15.767 23.3544 15.7102 23.2532 15.6091C23.1521 15.5079 23.0953 15.3708 23.0953 15.2278C23.0953 15.0848 23.1521 14.9476 23.2532 14.8465C23.3544 14.7454 23.4915 14.6886 23.6345 14.6886H33.8857C33.9965 14.6886 34.1045 14.7227 34.1952 14.7863C34.2859 14.8499 34.3548 14.9398 34.3925 15.0439L38.8258 27.2616C38.8555 27.343 38.865 27.4304 38.8537 27.5164C38.8424 27.6023 38.8105 27.6843 38.7608 27.7553C38.711 27.8263 38.6449 27.8843 38.568 27.9243C38.4911 27.9643 38.4057 27.9852 38.319 27.9852Z" fill="white" stroke="white"/>
<path d="M32.6277 23.9951H7.23154C7.14492 23.9951 7.05956 23.9742 6.98271 23.9342C6.90586 23.8942 6.83978 23.8363 6.79005 23.7654C6.74033 23.6944 6.70843 23.6125 6.69705 23.5267C6.68568 23.4408 6.69516 23.3534 6.7247 23.272L8.26249 19.0339C8.30025 18.9298 8.36916 18.8399 8.45984 18.7763C8.55052 18.7127 8.65858 18.6786 8.76933 18.6786H18.4204C18.5634 18.6786 18.7005 18.7354 18.8017 18.8365C18.9028 18.9376 18.9596 19.0748 18.9596 19.2178C18.9596 19.3608 18.9028 19.4979 18.8017 19.5991C18.7005 19.7002 18.5634 19.757 18.4204 19.757H9.14623L7.9999 22.9167H31.8582L30.7141 19.757H21.4399C21.2969 19.757 21.1597 19.7002 21.0586 19.5991C20.9575 19.4979 20.1683 19.2178 20.9007 19.2178C20.9007 19.0748 20.9575 18.9376 21.0586 18.8365C21.1597 18.7354 21.2969 18.6786 21.4399 18.6786H31.0915C31.2022 18.6786 31.3103 18.7127 31.401 18.7763C31.4917 18.8399 31.5606 18.9298 31.5983 19.0339L33.1361 23.272C33.1657 23.3534 33.1751 23.4408 33.1638 23.5267C33.1524 23.6125 33.1205 23.6944 33.0708 23.7654C33.021 23.8363 32.955 23.8942 32.8781 23.9342C32.8013 23.9742 32.7159 23.9951 32.6293 23.9951H32.6277Z" fill="white" stroke="white"/>
<path d="M19.6895 26.8774C19.574 26.8774 19.4603 26.8468 19.3589 26.7885C19.2576 26.7302 19.1718 26.6461 19.1097 26.5438C19.0904 26.5128 17.2104 23.4104 15.3552 19.8185C12.8252 14.9199 11.543 11.4688 11.543 9.55046C11.543 7.28274 12.4013 5.1079 13.929 3.50437C15.4568 1.90085 17.5289 1 19.6895 1C21.8502 1 23.9223 1.90085 25.4501 3.50437C26.9778 5.1079 27.8361 7.28274 27.8361 9.55046C27.8361 11.4652 26.5539 14.9199 24.0239 19.8185C22.1666 23.4104 20.2887 26.5128 20.2694 26.5438C20.2073 26.6461 20.1215 26.7302 20.0202 26.7885C19.9188 26.8468 19.8051 26.8774 19.6895 26.8774ZM19.6895 2.44397C17.8944 2.44607 16.1734 3.19546 14.9041 4.52773C13.6347 5.86001 12.9207 7.66635 12.9187 9.55046C12.9187 12.6398 17.37 20.8495 19.6895 24.7952C22.0091 20.8495 26.4604 12.6398 26.4604 9.55046C26.4584 7.66635 25.7444 5.86001 24.475 4.52773C23.2057 3.19546 21.4847 2.44607 19.6895 2.44397Z" fill="white" stroke="white"/>
<path d="M19.6889 13.4595C18.8359 13.4595 18.002 13.2066 17.2928 12.7327C16.5835 12.2588 16.0307 11.5852 15.7043 10.7971C15.3778 10.009 15.2924 9.14185 15.4588 8.30523C15.6253 7.46861 16.036 6.70013 16.6392 6.09696C17.2424 5.49379 18.0109 5.08303 18.8475 4.91661C19.6841 4.7502 20.5513 4.83561 21.3393 5.16204C22.1274 5.48847 22.801 6.04127 23.2749 6.75052C23.7488 7.45977 24.0018 8.29363 24.0018 9.14664C24.0002 10.29 23.5453 11.3861 22.7368 12.1945C21.9283 13.003 20.8322 13.4579 19.6889 13.4595ZM19.6889 6.18152C19.1024 6.18152 18.5292 6.35542 18.0415 6.68123C17.5539 7.00705 17.1739 7.47013 16.9495 8.01194C16.725 8.55374 16.6663 9.14993 16.7807 9.7251C16.8951 10.3003 17.1775 10.8286 17.5922 11.2433C18.0069 11.658 18.5352 11.9404 19.1104 12.0548C19.6856 12.1692 20.2818 12.1105 20.8236 11.886C21.3654 11.6616 21.8285 11.2816 22.1543 10.794C22.4801 10.3064 22.654 9.73308 22.654 9.14664C22.6535 8.36016 22.341 7.606 21.7851 7.04962C21.2292 6.49324 20.4754 6.18008 19.6889 6.17883V6.18152Z" fill="white" stroke="white"/>
</svg>
