<svg width="38" height="38" viewBox="0 0 38 38" fill="none" xmlns="http://www.w3.org/2000/svg">
<g clip-path="url(#clip0_91_16315)">
<path d="M11.9671 25.9781C12.8202 27.8382 15.6708 30.528 18.7881 31.6306C18.8565 31.6547 18.928 31.6673 18.999 31.6673C19.0699 31.6673 19.1421 31.6547 19.2099 31.6306C22.3271 30.528 25.1778 27.8382 26.0309 25.9781C26.7845 24.3352 26.7902 22.6145 26.0461 21.2579C25.1746 19.6669 23.2056 18.7321 21.4614 19.0735C20.4911 19.266 19.5968 19.8392 18.9983 20.6397C18.4005 19.8398 17.5062 19.266 16.5359 19.0741C14.7943 18.7283 12.8221 19.6669 11.9506 21.2579C11.2064 22.6157 11.2121 24.3359 11.9658 25.9781H11.9671ZM13.0621 21.8665C13.5878 20.9076 14.7202 20.2692 15.7956 20.2692C15.9628 20.2692 16.1287 20.2844 16.2908 20.3167C17.0508 20.4662 17.7437 20.9608 18.1446 21.6372C18.2478 21.8114 18.3333 21.9989 18.3986 22.1933C18.4853 22.4504 18.7273 22.6246 18.999 22.6246C19.2707 22.6246 19.5126 22.4511 19.5994 22.1933C19.6646 21.9989 19.7507 21.8114 19.8533 21.6379C20.2542 20.9608 20.9477 20.4662 21.7084 20.3161C22.9142 20.0818 24.3297 20.7588 24.9365 21.8665C25.4862 22.8691 25.4659 24.175 24.8801 25.4499C24.2461 26.8331 21.8692 29.2683 18.9996 30.3589C16.1306 29.2683 13.7531 26.8331 13.1185 25.4499C12.5339 24.175 12.5124 22.8691 13.0621 21.8665Z" fill="#7732EF" stroke="#7732EF" stroke-width="0.7"/>
<path d="M37.9018 7.11233L35.2634 0.780267C35.0664 0.3059 34.6079 0 34.0936 0H3.90577C3.3934 0 2.93487 0.305267 2.73727 0.779L0.0981667 7.11233C0.0329333 7.2694 0.0095 7.4347 0.0095 7.6H0V12.6667C0 13.3652 0.5681 13.9333 1.26667 13.9333V36.7333C1.26667 37.4319 1.83477 38 2.53333 38H35.4667C36.1652 38 36.7333 37.4319 36.7333 36.7333V13.9333C37.4319 13.9333 38 13.3652 38 12.6667V7.6H37.9905C37.9905 7.43533 37.9671 7.2694 37.9018 7.11233ZM3.90577 1.26667H34.0936L36.7327 7.6H1.2673L3.90577 1.26667ZM35.4667 36.7333H2.53333V13.9333H35.4667V36.7333ZM1.26667 12.6667V8.86667H36.7321V12.6667H1.26667Z" fill="#7732EF" stroke="#7732EF"/>
<path d="M17.1754 4H7.82539C7.59079 4 7.40039 4.2831 7.40039 4.63333C7.40039 4.98357 7.59079 5.26667 7.82539 5.26667H17.1754C17.4104 5.26667 17.6004 4.98357 17.6004 4.63333C17.6004 4.2831 17.4104 4 17.1754 4Z" fill="#7732EF"/>
<path d="M30.7917 4H26.2083C26.0933 4 26 4.28385 26 4.635C26 4.98615 26.0933 5.27 26.2083 5.27H30.7917C30.9069 5.27 31 4.98615 31 4.635C31 4.28385 30.9069 4 30.7917 4Z" fill="#7732EF"/>
</g>
<defs>
<clipPath id="clip0_91_16315">
<rect width="38" height="38" fill="white"/>
</clipPath>
</defs>
</svg>
