<svg width="41" height="40" viewBox="0 0 41 40" fill="none" xmlns="http://www.w3.org/2000/svg">
<path d="M24.6429 1C24.2874 1 24 1.28737 24 1.64289V15.3571C24 15.7126 24.2874 16 24.6429 16H38.3571C38.7126 16 39 15.7126 39 15.3571C39 7.44115 32.5588 1 24.6429 1ZM25.2858 14.7142V2.30122C31.9828 2.62716 37.3728 8.01719 37.6988 14.7142H25.2858Z" fill="#7732EF" stroke="#7732EF" stroke-width="1.5"/>
<path d="M6.66887 33.6644C6.6706 33.6662 6.6706 33.667 6.67147 33.6679C6.6732 33.6696 6.67493 33.6696 6.6758 33.6705C10.3305 37.3218 15.1882 39.3333 20.3544 39.3333C31.0257 39.3333 39.7079 30.651 39.7079 19.9798C39.7079 19.5005 39.3205 19.1131 38.8413 19.1131H21.2211V1.49203C21.2211 1.01277 20.8337 0.625366 20.3544 0.625366C9.68313 0.625366 1 9.30763 1 19.9798C1 25.1494 3.01327 30.0088 6.66887 33.6644ZM20.7184 20.8464H37.9538C37.4997 30.1614 29.7794 37.6 20.3544 37.6C15.9405 37.6 11.7857 35.9698 8.54 33.0248L20.7184 20.8464ZM19.4877 2.3795V19.6253L7.31453 31.7994C4.36527 28.5528 2.73333 24.3963 2.73333 19.9798C2.73333 10.5539 10.1728 2.83363 19.4877 2.3795Z" fill="#7732EF" stroke="#7732EF"/>
</svg>
