<svg width="41" height="44" viewBox="0 0 41 44" fill="none" xmlns="http://www.w3.org/2000/svg">
<path d="M18.2238 11.6926H9.89379C9.51818 11.6926 9.15795 11.8418 8.89235 12.1074C8.62675 12.373 8.47754 12.7333 8.47754 13.1089C8.47754 13.4845 8.62675 13.8447 8.89235 14.1103C9.15795 14.3759 9.51818 14.5251 9.89379 14.5251H18.2238C18.5994 14.5251 18.9597 14.3759 19.2253 14.1103C19.4909 13.8447 19.6401 13.4845 19.6401 13.1089C19.6401 12.7333 19.4909 12.373 19.2253 12.1074C18.9597 11.8418 18.5994 11.6926 18.2238 11.6926Z" fill="white"/>
<path d="M16.2238 19.2697H9.89379C9.51818 19.2697 9.15795 19.4189 8.89235 19.6845C8.62675 19.9501 8.47754 20.3103 8.47754 20.6859C8.47754 21.0615 8.62675 21.4218 8.89235 21.6874C9.15795 21.953 9.51818 22.1022 9.89379 22.1022H16.2238C16.5994 22.1022 16.9597 21.953 17.2253 21.6874C17.4909 21.4218 17.6401 21.0615 17.6401 20.6859C17.6401 20.3103 17.4909 19.9501 17.2253 19.6845C16.9597 19.4189 16.5994 19.2697 16.2238 19.2697Z" fill="white"/>
<path d="M23.2238 27.0166H9.89379C9.51818 27.0166 9.15795 27.1658 8.89235 27.4314C8.62675 27.697 8.47754 28.0572 8.47754 28.4329C8.47754 28.8085 8.62675 29.1687 8.89235 29.4343C9.15795 29.6999 9.51818 29.8491 9.89379 29.8491H23.2238C23.5994 29.8491 23.9597 29.6999 24.2253 29.4343C24.4909 29.1687 24.6401 28.8085 24.6401 28.4329C24.6401 28.0572 24.4909 27.697 24.2253 27.4314C23.9597 27.1658 23.5994 27.0166 23.2238 27.0166Z" fill="white"/>
<path d="M34.4662 1H6.5093C5.78276 1.00185 5.06373 1.14703 4.39338 1.42721C3.72304 1.70739 3.11456 2.11706 2.60279 2.63278C2.09102 3.14849 1.68603 3.7601 1.41101 4.43258C1.13599 5.10505 0.996345 5.82518 1.00007 6.55172V41.0941C0.999146 41.4486 1.09259 41.7969 1.2708 42.1033C1.44901 42.4097 1.70556 42.6632 2.01412 42.8377C2.32267 43.0121 2.67211 43.1013 3.02653 43.0961C3.38096 43.0908 3.7276 42.9913 4.03086 42.8078L9.24267 39.6779C9.32129 39.6289 9.41206 39.603 9.50468 39.603C9.5973 39.603 9.68806 39.6289 9.76669 39.6779L15.5592 43.1477C15.8638 43.3419 16.2176 43.4451 16.5789 43.4451C16.9424 43.4432 17.299 43.3455 17.6127 43.1619L23.4335 39.6779C23.5122 39.6289 23.6029 39.603 23.6955 39.603C23.7882 39.603 23.8789 39.6289 23.9576 39.6779L29.141 42.8078C29.4453 42.9886 29.7927 43.084 30.1466 43.084C30.5005 43.084 30.8479 42.9886 31.1521 42.8078C31.4568 42.6336 31.7101 42.3821 31.8867 42.0788C32.0632 41.7755 32.1567 41.431 32.1577 41.08V17.2019H36.6047C37.4975 17.1982 38.3527 16.8419 38.984 16.2106C39.6153 15.5793 39.9717 14.7241 39.9754 13.8313V6.55172C39.9791 5.82518 39.8395 5.10505 39.5644 4.43258C39.2894 3.7601 38.8844 3.14849 38.3727 2.63278C37.8609 2.11706 37.2524 1.70739 36.5821 1.42721C35.9117 1.14703 35.1927 1.00185 34.4662 1ZM29.3252 39.6071L25.4163 37.2561C24.8956 36.9469 24.3011 36.7838 23.6955 36.7838C23.0899 36.7838 22.4955 36.9469 21.9748 37.2561L16.593 40.4852L11.2254 37.2419C10.6985 36.9268 10.0955 36.7615 9.48146 36.764C8.86746 36.7665 8.2658 36.9366 7.74144 37.2561L3.83258 39.6212V6.55172C3.82694 6.19664 3.89202 5.844 4.02401 5.51433C4.156 5.18465 4.35227 4.88454 4.60139 4.63146C4.85051 4.37839 5.1475 4.17741 5.47505 4.04025C5.80261 3.90308 6.15419 3.83246 6.5093 3.83251H29.9058C29.5318 4.54502 29.3328 5.33633 29.3252 6.141V39.5646V39.6071ZM37.1429 13.8313C37.1429 13.974 37.0862 14.1109 36.9852 14.2118C36.8843 14.3127 36.7474 14.3694 36.6047 14.3694H32.1577V6.18349C32.152 5.87678 32.2076 5.57202 32.321 5.28701C32.4345 5.00201 32.6037 4.74249 32.8186 4.5236C33.0335 4.30472 33.2899 4.13087 33.5728 4.01221C33.8557 3.89355 34.1594 3.83246 34.4662 3.83251C35.1761 3.83251 35.8569 4.11452 36.3589 4.6165C36.8609 5.11848 37.1429 5.79932 37.1429 6.50923V13.8313Z" fill="white" stroke="#AE8FF7" stroke-width="0.5"/>
</svg>
