<svg width="44" height="44" viewBox="0 0 44 44" fill="none" xmlns="http://www.w3.org/2000/svg">
<path d="M15.791 32.0833H7.04102C6.87526 32.0833 6.71628 32.1798 6.59907 32.3517C6.48186 32.5236 6.41602 32.7568 6.41602 32.9999C6.41602 33.243 6.48186 33.4762 6.59907 33.6481C6.71628 33.82 6.87526 33.9166 7.04102 33.9166H15.791C15.9568 33.9166 16.1157 33.82 16.233 33.6481C16.3502 33.4762 16.416 33.243 16.416 32.9999C16.416 32.7568 16.3502 32.5236 16.233 32.3517C16.1157 32.1798 15.9568 32.0833 15.791 32.0833Z" fill="white"/>
<path d="M20.166 36.6666H7.33268C7.08957 36.6666 6.85641 36.7632 6.6845 36.9351C6.51259 37.107 6.41602 37.3402 6.41602 37.5833C6.41602 37.8264 6.51259 38.0596 6.6845 38.2315C6.85641 38.4034 7.08957 38.5 7.33268 38.5H20.166C20.4091 38.5 20.6423 38.4034 20.8142 38.2315C20.9861 38.0596 21.0827 37.8264 21.0827 37.5833C21.0827 37.3402 20.9861 37.107 20.8142 36.9351C20.6423 36.7632 20.4091 36.6666 20.166 36.6666Z" fill="white"/>
<path d="M17.666 27.5H7.16602C6.9671 27.5 6.77634 27.5966 6.63569 27.7685C6.49503 27.9404 6.41602 28.1736 6.41602 28.4167C6.41602 28.6598 6.49503 28.8929 6.63569 29.0648C6.77634 29.2368 6.9671 29.3333 7.16602 29.3333H17.666C17.8649 29.3333 18.0557 29.2368 18.1963 29.0648C18.337 28.8929 18.416 28.6598 18.416 28.4167C18.416 28.1736 18.337 27.9404 18.1963 27.7685C18.0557 27.5966 17.8649 27.5 17.666 27.5Z" fill="white"/>
<path d="M7.33268 24.75H14.666C14.9091 24.75 15.1423 24.6534 15.3142 24.4815C15.4861 24.3096 15.5827 24.0764 15.5827 23.8333C15.5827 23.5902 15.4861 23.357 15.3142 23.1851C15.1423 23.0132 14.9091 22.9166 14.666 22.9166H7.33268C7.08957 22.9166 6.85641 23.0132 6.6845 23.1851C6.51259 23.357 6.41602 23.5902 6.41602 23.8333C6.41602 24.0764 6.51259 24.3096 6.6845 24.4815C6.85641 24.6534 7.08957 24.75 7.33268 24.75Z" fill="white"/>
<path d="M42.1663 31.1667C42.1664 28.8942 41.3223 26.7027 39.7979 25.0174C38.2735 23.3321 36.1774 22.2731 33.9163 22.0458V9.16667H40.333C40.5761 9.16667 40.8093 9.07009 40.9812 8.89818C41.1531 8.72627 41.2497 8.49312 41.2497 8.25V4.58333C41.2497 3.36776 40.7668 2.20197 39.9072 1.34243C39.0477 0.482886 37.8819 0 36.6663 0L6.41634 0C5.20077 0 4.03498 0.482886 3.17544 1.34243C2.31589 2.20197 1.83301 3.36776 1.83301 4.58333V43.0833C1.83301 43.3265 1.92958 43.5596 2.10149 43.7315C2.2734 43.9034 2.50656 44 2.74967 44H32.9997C33.2428 44 33.4759 43.9034 33.6479 43.7315C33.8198 43.5596 33.9163 43.3265 33.9163 43.0833V40.3333C36.1853 40.1053 38.2878 39.0398 39.8133 37.3448C41.3388 35.6498 42.1778 33.447 42.1663 31.1667ZM39.4163 4.58333V7.33333H33.9163V4.58333C33.9163 3.85399 34.2061 3.15451 34.7218 2.63879C35.2375 2.12306 35.937 1.83333 36.6663 1.83333C37.3957 1.83333 38.0952 2.12306 38.6109 2.63879C39.1266 3.15451 39.4163 3.85399 39.4163 4.58333ZM3.66634 42.1667V4.58333C3.66634 3.85399 3.95607 3.15451 4.4718 2.63879C4.98752 2.12306 5.687 1.83333 6.41634 1.83333H32.9997C31.7438 3.4925 32.083 2.75 32.083 22.0458C29.7698 22.2097 27.6047 23.2442 26.0239 24.941C24.4431 26.6377 23.5641 28.8706 23.5641 31.1896C23.5641 33.5086 24.4431 35.7414 26.0239 37.4382C27.6047 39.1349 29.7698 40.1695 32.083 40.3333V42.1667H3.66634ZM32.9997 38.5C31.5493 38.5 30.1315 38.0699 28.9255 37.2641C27.7195 36.4583 26.7796 35.313 26.2246 33.973C25.6695 32.633 25.5243 31.1585 25.8072 29.736C26.0902 28.3135 26.7886 27.0068 27.8142 25.9812C28.8398 24.9556 30.1465 24.2572 31.569 23.9742C32.9915 23.6913 34.466 23.8365 35.806 24.3916C37.146 24.9466 38.2913 25.8865 39.0971 27.0925C39.9029 28.2984 40.333 29.7163 40.333 31.1667C40.333 33.1116 39.5604 34.9768 38.1851 36.3521C36.8099 37.7274 34.9446 38.5 32.9997 38.5Z" fill="white"/>
<path d="M8 9.6H10V15.2C10 15.4122 10.1054 15.6157 10.2929 15.7657C10.4804 15.9157 10.7348 16 11 16C11.2652 16 11.5196 15.9157 11.7071 15.7657C11.8946 15.6157 12 15.4122 12 15.2V9.6H14C14.2652 9.6 14.5196 9.51571 14.7071 9.36569C14.8946 9.21566 15 9.01217 15 8.8C15 8.58783 14.8946 8.38434 14.7071 8.23431C14.5196 8.08429 14.2652 8 14 8H8C7.73478 8 7.48043 8.08429 7.29289 8.23431C7.10536 8.38434 7 8.58783 7 8.8C7 9.01217 7.10536 9.21566 7.29289 9.36569C7.48043 9.51571 7.73478 9.6 8 9.6Z" fill="white"/>
<path d="M19.3219 9.52643C19.2606 9.37218 19.1489 9.2389 19.0018 9.14471C18.8548 9.05053 18.6796 9 18.5 9C18.3204 9 18.1452 9.05053 17.9982 9.14471C17.8511 9.2389 17.7394 9.37218 17.6781 9.52643L15.0551 15.9188C14.974 16.1181 14.9827 16.3386 15.0795 16.5319C15.1762 16.7252 15.353 16.8755 15.571 16.9496C15.789 17.0238 16.0302 17.0158 16.2418 16.9274C16.4533 16.839 16.6177 16.6774 16.6989 16.4782L17.136 15.3995H19.864L20.3011 16.4782C20.3823 16.6774 20.5467 16.839 20.7582 16.9274C20.9698 17.0158 21.211 17.0238 21.429 16.9496C21.647 16.8755 21.8238 16.7252 21.9205 16.5319C22.0173 16.3386 22.026 16.1181 21.9449 15.9188L19.3219 9.52643ZM17.7918 13.8014L18.5 12.0834L19.2082 13.8014H17.7918Z" fill="white"/>
<path d="M24.5647 15.6073L25.5 13.8158L26.4353 15.6073C26.545 15.7827 26.7196 15.9117 26.9241 15.9683C27.1285 16.025 27.3477 16.0051 27.5376 15.9128C27.7274 15.8204 27.874 15.6624 27.9477 15.4704C28.0215 15.2784 28.017 15.0667 27.9352 14.8777L26.4438 12L27.9352 9.12226C28.017 8.9333 28.0215 8.72158 27.9477 8.52959C27.874 8.33761 27.7274 8.17957 27.5376 8.08721C27.3477 7.99486 27.1285 7.97502 26.9241 8.03168C26.7196 8.08834 26.545 8.21731 26.4353 8.39269L25.5 10.1842L24.5647 8.39269C24.455 8.21731 24.2804 8.08834 24.0759 8.03168C23.8715 7.97502 23.6523 7.99486 23.4624 8.08721C23.2726 8.17957 23.126 8.33761 23.0523 8.52959C22.9785 8.72158 22.983 8.9333 23.0648 9.12226L24.5562 12L23.0648 14.8777C22.983 15.0667 22.9785 15.2784 23.0523 15.4704C23.126 15.6624 23.2726 15.8204 23.4624 15.9128C23.6523 16.0051 23.8715 16.025 24.0759 15.9683C24.2804 15.9117 24.455 15.7827 24.5647 15.6073Z" fill="white"/>
<path d="M30.2493 30.25C31.2619 30.25 32.0827 29.4292 32.0827 28.4167C32.0827 27.4042 31.2619 26.5834 30.2493 26.5834C29.2368 26.5834 28.416 27.4042 28.416 28.4167C28.416 29.4292 29.2368 30.25 30.2493 30.25Z" fill="white"/>
<path d="M35.7493 35.75C36.7619 35.75 37.5827 34.9292 37.5827 33.9167C37.5827 32.9042 36.7619 32.0834 35.7493 32.0834C34.7368 32.0834 33.916 32.9042 33.916 33.9167C33.916 34.9292 34.7368 35.75 35.7493 35.75Z" fill="white"/>
<path d="M35.2184 26.9316L29.3518 34.265C29.2452 34.3998 29.1787 34.5619 29.1598 34.7327C29.141 34.9035 29.1705 35.0762 29.245 35.231C29.3196 35.3858 29.4362 35.5166 29.5815 35.6083C29.7268 35.7001 29.8949 35.7492 30.0668 35.75C30.6993 35.75 30.3968 35.8966 36.6484 28.0775C36.7915 27.8871 36.8548 27.6485 36.825 27.4122C36.7952 27.1759 36.6746 26.9605 36.4887 26.8116C36.3029 26.6626 36.0663 26.5919 35.8292 26.6143C35.5921 26.6367 35.3731 26.7505 35.2184 26.9316Z" fill="white"/>
</svg>
