<svg width="155" height="155" viewBox="0 0 155 155" fill="none" xmlns="http://www.w3.org/2000/svg">
<mask id="mask0_467_27123" style="mask-type:alpha" maskUnits="userSpaceOnUse" x="0" y="0" width="155" height="155">
<circle cx="77.4194" cy="77.4198" r="76.9194" fill="#AE8FF7" stroke="#AE8FF7"/>
</mask>
<g mask="url(#mask0_467_27123)">
<rect x="-37" y="-2.5" width="216" height="216" fill="#DCCEFF"/>
</g>
<path fill-rule="evenodd" clip-rule="evenodd" d="M104.032 110.34C104.032 111.058 103.446 111.644 102.729 111.644H42.4451C41.7271 111.644 41.1416 111.058 41.1416 110.34V32.6497C41.1416 31.9317 41.7271 31.3462 42.4451 31.3462H102.729C103.447 31.3462 104.032 31.9317 104.032 32.6497V110.34H104.032Z" fill="#C0A6FF"/>
<path fill-rule="evenodd" clip-rule="evenodd" d="M43.8406 111.644H42.4451C41.7271 111.644 41.1416 111.058 41.1416 110.34V32.6497C41.1416 31.9317 41.7271 31.3462 42.4451 31.3462H43.8408V111.644L43.8406 111.644Z" fill="#AE8FF7"/>
<path fill-rule="evenodd" clip-rule="evenodd" d="M75.0006 43.9056L91.4721 60.3771C92.45 61.321 93.0195 62.4906 93.0195 63.8695V121.352C93.0195 122.07 92.434 122.656 91.716 122.656H31.4324C30.7145 122.656 30.1289 122.07 30.1289 121.352V43.6617C30.1289 42.9437 30.7145 42.3582 31.4322 42.3582H71.5082C72.8871 42.3582 74.0564 42.9281 75.0006 43.9056Z" fill="white"/>
<path fill-rule="evenodd" clip-rule="evenodd" d="M32.8279 122.656H31.4324C30.7145 122.656 30.1289 122.07 30.1289 121.352V43.6617C30.1289 42.9437 30.7145 42.3582 31.4324 42.3582H32.8281L32.8279 122.656Z" fill="#AE8FF7"/>
<path fill-rule="evenodd" clip-rule="evenodd" d="M75.0654 43.9712L91.2836 60.1892C90.2904 59.2298 88.94 58.638 87.4557 58.638H77.9203C77.2023 58.638 76.6168 58.0524 76.6168 57.3345V47.7991C76.6168 46.3147 76.025 44.9644 75.0656 43.9712H75.0654Z" fill="#7732EF"/>
<path fill-rule="evenodd" clip-rule="evenodd" d="M75.0654 43.9712L87.974 56.8798C87.251 56.5304 86.441 56.3343 85.5863 56.3343H76.6166V47.7991C76.6166 46.3146 76.0248 44.9644 75.0654 43.9712Z" fill="#AE8FF7"/>
<path fill-rule="evenodd" clip-rule="evenodd" d="M38.5947 112.178C37.8396 112.178 37.2275 111.566 37.2275 110.811C37.2275 110.056 37.8396 109.444 38.5947 109.444H80.3529C81.108 109.444 81.7201 110.056 81.7201 110.811C81.7201 111.566 81.108 112.178 80.3529 112.178H38.5947ZM38.5947 102.744C37.8396 102.744 37.2275 102.132 37.2275 101.377C37.2275 100.622 37.8396 100.009 38.5947 100.009H81.3963C82.1514 100.009 82.7635 100.622 82.7635 101.377C82.7635 102.132 82.1514 102.744 81.3963 102.744H38.5947ZM38.5947 93.3093C37.8396 93.3093 37.2275 92.6972 37.2275 91.9421C37.2275 91.187 37.8396 90.5749 38.5947 90.5749H84.5537C85.3088 90.5749 85.9209 91.187 85.9209 91.9421C85.9209 92.6972 85.3088 93.3093 84.5537 93.3093H38.5947ZM38.5947 83.8747C37.8396 83.8747 37.2275 83.2626 37.2275 82.5075C37.2275 81.7524 37.8396 81.1403 38.5947 81.1403H84.5537C85.3088 81.1403 85.9209 81.7524 85.9209 82.5075C85.9209 83.2626 85.3088 83.8747 84.5537 83.8747H38.5947ZM70.8143 74.4399C70.0592 74.4399 69.4471 73.8278 69.4471 73.0728C69.4471 72.3177 70.0592 71.7056 70.8143 71.7056H84.5539C85.309 71.7056 85.9211 72.3177 85.9211 73.0728C85.9211 73.8278 85.309 74.4399 84.5539 74.4399H70.8143Z" fill="#AE8FF7"/>
<path d="M51.8938 75.6649C59.2386 75.6649 65.1928 69.7108 65.1928 62.3659C65.1928 55.0211 59.2386 49.0669 51.8938 49.0669C44.5489 49.0669 38.5947 55.0211 38.5947 62.3659C38.5947 69.7108 44.5489 75.6649 51.8938 75.6649Z" fill="#7732EF"/>
<path fill-rule="evenodd" clip-rule="evenodd" d="M50.927 75.6298C44.0336 75.1345 38.5947 69.3856 38.5947 62.3659C38.5947 55.3462 44.0336 49.5974 50.927 49.1021C57.8205 49.5974 63.2592 55.3464 63.2592 62.3659C63.2592 69.3855 57.8205 75.1343 50.927 75.6298Z" fill="#AE8FF7"/>
<path fill-rule="evenodd" clip-rule="evenodd" d="M59.3993 56.4837C60.1092 57.1937 60.1092 58.3554 59.3993 59.0654L50.253 68.2119C49.8132 68.6517 49.2479 68.8435 48.6313 68.7624C48.0145 68.6812 47.5182 68.3498 47.2073 67.8109L44.0997 62.4283C43.5975 61.5587 43.8983 60.4367 44.7678 59.9347C45.6362 59.4333 46.7602 59.7345 47.2616 60.6029L49.2518 64.0501L56.818 56.4841C57.528 55.7742 58.6897 55.7742 59.3997 56.4841L59.3993 56.4837Z" fill="white"/>
<path fill-rule="evenodd" clip-rule="evenodd" d="M106.535 66.4323C110.931 66.4323 114.494 69.9956 114.494 74.3913C114.494 75.6481 114.203 76.8368 113.684 77.8935C111.113 83.13 109.953 88.1257 109.953 93.9593V97.6823H103.117V93.9593C103.117 88.1257 101.957 83.1302 99.3863 77.8935C98.8676 76.8366 98.5762 75.648 98.5762 74.3911C98.5762 69.9954 102.139 66.4323 106.535 66.4323Z" fill="#7732EF"/>
<path fill-rule="evenodd" clip-rule="evenodd" d="M106.535 66.4321C107.673 66.4321 108.755 66.6714 109.734 67.1015C110.923 68.4923 111.641 70.2976 111.641 72.2708C111.641 73.5276 111.35 74.7163 110.831 75.7731C108.261 81.0099 107.1 86.0054 107.1 91.839V97.6823H103.117V93.9593C103.117 88.1257 101.957 83.1302 99.3863 77.8935C98.8676 76.8366 98.5762 75.6479 98.5762 74.3911C98.5762 69.9954 102.139 66.4321 106.535 66.4321Z" fill="#AE8FF7"/>
<path fill-rule="evenodd" clip-rule="evenodd" d="M102.678 97.6821H110.393C112.004 97.6821 113.322 99.0005 113.322 100.612V105.008H99.748V100.612C99.748 99.0005 101.066 97.6821 102.678 97.6821H102.678Z" fill="#F29988"/>
<path fill-rule="evenodd" clip-rule="evenodd" d="M102.678 97.6821H107.552C109.163 97.6821 110.481 99.0005 110.481 100.612V105.008H99.748V100.612C99.748 99.0005 101.066 97.6823 102.677 97.6821H102.678H102.678Z" fill="#FDB0A0"/>
<path fill-rule="evenodd" clip-rule="evenodd" d="M94.4754 108.325H118.596C120.825 108.325 122.649 110.149 122.649 112.378V114.868C122.649 115.727 121.946 116.43 121.087 116.43H91.9854C91.126 116.43 90.4229 115.727 90.4229 114.868V112.377C90.4229 110.149 92.2467 108.325 94.4756 108.325L94.4754 108.325Z" fill="#5A1DC5"/>
<path fill-rule="evenodd" clip-rule="evenodd" d="M116.606 116.432H91.9854C91.126 116.432 90.4229 115.729 90.4229 114.869V112.379C90.4229 110.152 92.2437 108.329 94.4705 108.327H114.111C116.34 108.327 118.164 110.15 118.164 112.379V114.87C118.164 115.727 117.463 116.429 116.606 116.432H116.606Z" fill="#7732EF"/>
<path fill-rule="evenodd" clip-rule="evenodd" d="M91.2522 103.542H121.819C124.048 103.542 125.871 105.365 125.871 107.594V110.084C125.871 110.944 125.168 111.647 124.309 111.647H88.7619C87.9025 111.647 87.1992 110.944 87.1992 110.084V107.594C87.1992 105.365 89.0229 103.542 91.2518 103.542H91.2522Z" fill="#7732EF"/>
<path fill-rule="evenodd" clip-rule="evenodd" d="M120.224 111.647H88.7619C87.9025 111.647 87.1992 110.944 87.1992 110.084V107.594C87.1992 105.366 89.0221 103.542 91.2502 103.542H117.732C119.961 103.542 121.785 105.365 121.785 107.594V110.084C121.785 110.943 121.082 111.646 120.224 111.647H120.224Z" fill="#AE8FF7"/>
</svg>
