<svg width="60" height="60" viewBox="0 0 60 60" fill="none" xmlns="http://www.w3.org/2000/svg">
<path d="M55.5297 12.8574H4.46972C3.18448 12.8574 2.14258 13.8993 2.14258 15.1846V44.816C2.14258 46.1012 3.18448 47.1431 4.46972 47.1431H55.5297C56.815 47.1431 57.8569 46.1012 57.8569 44.816V15.1846C57.8569 13.8993 56.815 12.8574 55.5297 12.8574Z" fill="#7E6AD3"/>
<path d="M51.0852 39.05H46.2102V37.3228C46.2104 37.1398 46.1637 36.9598 46.0745 36.8C45.9854 36.6402 45.8568 36.5058 45.7011 36.4098C45.5453 36.3137 45.3675 36.2592 45.1847 36.2514C45.0018 36.2435 44.82 36.2826 44.6566 36.365L40.6087 38.3878V37.3164C40.6086 37.134 40.5618 36.9547 40.4729 36.7954C40.384 36.6361 40.2559 36.5021 40.1007 36.4062C39.9456 36.3103 39.7685 36.2556 39.5863 36.2472C39.4041 36.2389 39.2227 36.2772 39.0595 36.3586L33.4602 39.1571C33.3333 39.2195 33.22 39.3064 33.1268 39.4127C33.0336 39.5191 32.9624 39.6429 32.9173 39.7769C32.8722 39.9109 32.8541 40.0525 32.8639 40.1935C32.8738 40.3346 32.9115 40.4723 32.9749 40.5987C33.0382 40.7251 33.126 40.8378 33.233 40.9301C33.3401 41.0224 33.4644 41.0927 33.5988 41.1368C33.7331 41.1808 33.8749 41.1979 34.0159 41.1869C34.1568 41.1759 34.2943 41.1372 34.4202 41.0728L38.4659 39.05V40.1214C38.4659 40.3041 38.5126 40.4838 38.6016 40.6434C38.6907 40.8029 38.819 40.9371 38.9745 41.033C39.1299 41.129 39.3073 41.1837 39.4899 41.1918C39.6724 41.1998 39.854 41.1611 40.0173 41.0793L44.0652 39.0564V40.1278C44.0652 40.412 44.1781 40.6845 44.379 40.8855C44.5799 41.0864 44.8524 41.1993 45.1366 41.1993H51.0852C51.3693 41.1993 51.6419 41.0864 51.8428 40.8855C52.0437 40.6845 52.1566 40.412 52.1566 40.1278C52.1566 39.8437 52.0437 39.5712 51.8428 39.3702C51.6419 39.1693 51.3693 39.0564 51.0852 39.0564V39.05Z" fill="white"/>
<path d="M8.89062 19.2811H11.3598C11.9695 19.2811 12.4631 19.467 12.8404 19.8389C13.2205 20.2107 13.4105 20.7002 13.4105 21.3072C13.4105 21.9115 13.215 22.401 12.824 22.7756C12.433 23.1475 11.9244 23.3334 11.2982 23.3334H10.1293V25.1996H8.89062V19.2811ZM10.1293 20.2613V22.3654H11.0275C11.383 22.3654 11.6592 22.2738 11.8561 22.0906C12.0529 21.9074 12.1514 21.6477 12.1514 21.3113C12.1514 20.975 12.0529 20.7166 11.8561 20.5361C11.6619 20.3529 11.3871 20.2613 11.0316 20.2613H10.1293Z" fill="white"/>
<path d="M15.4941 24.3793C15.7758 24.3793 16.0123 24.3014 16.2037 24.1455C16.3951 23.9869 16.4908 23.7859 16.4908 23.5426V23.2104L15.5434 23.276C15.2945 23.2924 15.1045 23.3484 14.9732 23.4441C14.842 23.5398 14.7764 23.6711 14.7764 23.8379C14.7764 24.0047 14.8406 24.1373 14.9691 24.2357C15.1004 24.3314 15.2754 24.3793 15.4941 24.3793ZM15.1045 25.2529C14.6643 25.2529 14.3006 25.1271 14.0135 24.8756C13.7264 24.624 13.5828 24.2986 13.5828 23.8994C13.5828 23.492 13.7346 23.1734 14.0381 22.9438C14.3416 22.7141 14.7832 22.5814 15.3629 22.5459L16.4908 22.4762V22.1768C16.4908 21.9607 16.4211 21.7953 16.2816 21.6805C16.1422 21.5629 15.948 21.5041 15.6992 21.5041C15.4859 21.5041 15.3068 21.5561 15.1619 21.66C15.0197 21.7611 14.9336 21.8951 14.9035 22.0619H13.8084C13.8248 21.6299 14.0107 21.2799 14.3662 21.0119C14.7244 20.7412 15.1852 20.6059 15.7484 20.6059C16.3281 20.6059 16.793 20.7426 17.143 21.016C17.493 21.2895 17.668 21.6518 17.668 22.1029V25.1996H16.5113V24.5023H16.4867C16.3664 24.7348 16.1791 24.918 15.9248 25.052C15.6732 25.1859 15.3998 25.2529 15.1045 25.2529Z" fill="white"/>
<path d="M19.0256 26.8484C18.7822 26.8484 18.6305 26.843 18.5703 26.832V25.9051C18.6113 25.9133 18.7016 25.9174 18.841 25.9174C19.068 25.9174 19.2457 25.875 19.3742 25.7902C19.5055 25.7082 19.5943 25.5783 19.6408 25.4006L19.6818 25.2283L18.0986 20.6838H19.4111L20.3873 24.2275H20.4119L21.3922 20.6838H22.6555L21.0928 25.2898C20.9014 25.8641 20.6498 26.2674 20.3381 26.4998C20.0291 26.7322 19.5916 26.8484 19.0256 26.8484Z" fill="white"/>
<path d="M27.0688 22.349H25.9531C25.9203 22.1084 25.8232 21.9156 25.6619 21.7707C25.5006 21.623 25.2928 21.5492 25.0385 21.5492C24.7295 21.5492 24.4848 21.6736 24.3043 21.9225C24.1238 22.1686 24.0336 22.5076 24.0336 22.9396C24.0336 23.3771 24.1238 23.7189 24.3043 23.965C24.4848 24.2084 24.7309 24.3301 25.0426 24.3301C25.2969 24.3301 25.5033 24.2631 25.6619 24.1291C25.8205 23.9951 25.9189 23.8051 25.9572 23.559H27.0729C27.0373 24.084 26.835 24.5023 26.4658 24.8141C26.0994 25.123 25.6209 25.2775 25.0303 25.2775C24.3521 25.2775 23.8135 25.0684 23.4143 24.65C23.0178 24.2316 22.8195 23.6615 22.8195 22.9396C22.8195 22.226 23.0178 21.6586 23.4143 21.2375C23.8135 20.8164 24.3494 20.6059 25.0221 20.6059C25.6182 20.6059 26.1008 20.7686 26.4699 21.0939C26.8391 21.4193 27.0387 21.8377 27.0688 22.349Z" fill="white"/>
<path d="M27.7045 25.1996V18.998H28.8816V21.4918H28.9062C29.032 21.2074 29.2207 20.9914 29.4723 20.8438C29.7238 20.6934 30.0219 20.6182 30.3664 20.6182C30.8668 20.6182 31.2633 20.7699 31.5559 21.0734C31.8484 21.377 31.9947 21.7898 31.9947 22.3121V25.1996H30.7971V22.5623C30.7971 22.267 30.715 22.0359 30.551 21.8691C30.3896 21.6996 30.1668 21.6148 29.8824 21.6148C29.5898 21.6148 29.3533 21.7092 29.1729 21.8979C28.9924 22.0865 28.9021 22.3326 28.9021 22.6361V25.1996H27.7045Z" fill="white"/>
<path d="M34.8043 21.5C34.5309 21.5 34.3025 21.5902 34.1193 21.7707C33.9389 21.9512 33.8377 22.1863 33.8158 22.4762H35.7641C35.7531 22.1809 35.6602 21.9443 35.4852 21.7666C35.3102 21.5889 35.0832 21.5 34.8043 21.5ZM35.7805 23.8215H36.8838C36.8182 24.259 36.598 24.6117 36.2234 24.8797C35.8488 25.1449 35.3867 25.2775 34.8371 25.2775C34.1508 25.2775 33.6094 25.0711 33.2129 24.6582C32.8191 24.2453 32.6223 23.6793 32.6223 22.9602C32.6223 22.241 32.8178 21.6695 33.2088 21.2457C33.6025 20.8191 34.1303 20.6059 34.792 20.6059C35.4428 20.6059 35.9596 20.8082 36.3424 21.2129C36.7279 21.6176 36.9207 22.1631 36.9207 22.8494V23.2186H33.8035V23.2924C33.8035 23.6178 33.9006 23.8816 34.0947 24.084C34.2889 24.2836 34.5432 24.3834 34.8576 24.3834C35.0846 24.3834 35.2801 24.3342 35.4441 24.2357C35.6109 24.1346 35.723 23.9965 35.7805 23.8215Z" fill="white"/>
<path d="M41.6457 22.349H40.5301C40.4973 22.1084 40.4002 21.9156 40.2389 21.7707C40.0775 21.623 39.8697 21.5492 39.6154 21.5492C39.3064 21.5492 39.0617 21.6736 38.8813 21.9225C38.7008 22.1686 38.6105 22.5076 38.6105 22.9396C38.6105 23.3771 38.7008 23.7189 38.8813 23.965C39.0617 24.2084 39.3078 24.3301 39.6195 24.3301C39.8738 24.3301 40.0803 24.2631 40.2389 24.1291C40.3975 23.9951 40.4959 23.8051 40.5342 23.559H41.6498C41.6143 24.084 41.4119 24.5023 41.0428 24.8141C40.6764 25.123 40.1979 25.2775 39.6072 25.2775C38.9291 25.2775 38.3904 25.0684 37.9912 24.65C37.5947 24.2316 37.3965 23.6615 37.3965 22.9396C37.3965 22.226 37.5947 21.6586 37.9912 21.2375C38.3904 20.8164 38.9264 20.6059 39.599 20.6059C40.1951 20.6059 40.6777 20.7686 41.0469 21.0939C41.416 21.4193 41.6156 21.8377 41.6457 22.349Z" fill="white"/>
<path d="M43.4955 22.509L45.0582 20.6838H46.4199L44.6809 22.6238L46.502 25.1996H45.1238L43.8031 23.3457L43.4791 23.6943V25.1996H42.2814V18.998H43.4791V22.509H43.4955Z" fill="white"/>
<path d="M9.46987 32.5296H39.4699C39.754 32.5296 40.0266 32.4167 40.2275 32.2158C40.4284 32.0148 40.5413 31.7423 40.5413 31.4581C40.5413 31.174 40.4284 30.9015 40.2275 30.7005C40.0266 30.4996 39.754 30.3867 39.4699 30.3867H9.46987C9.18571 30.3867 8.91318 30.4996 8.71225 30.7005C8.51132 30.9015 8.39844 31.174 8.39844 31.4581C8.39844 31.7423 8.51132 32.0148 8.71225 32.2158C8.91318 32.4167 9.18571 32.5296 9.46987 32.5296Z" fill="#DACAFF"/>
<path d="M9.46987 36.8147H18.0413C18.3255 36.8147 18.598 36.7019 18.7989 36.5009C18.9998 36.3 19.1127 36.0275 19.1127 35.7433C19.1127 35.4591 18.9998 35.1866 18.7989 34.9857C18.598 34.7848 18.3255 34.6719 18.0413 34.6719H9.46987C9.18571 34.6719 8.91318 34.7848 8.71225 34.9857C8.51132 35.1866 8.39844 35.4591 8.39844 35.7433C8.39844 36.0275 8.51132 36.3 8.71225 36.5009C8.91318 36.7019 9.18571 36.8147 9.46987 36.8147Z" fill="#DACAFF"/>
</svg>
