<svg width="40" height="40" viewBox="0 0 40 40" fill="none" xmlns="http://www.w3.org/2000/svg">
<path d="M34.5703 1.17188H21.7578V13.9844H34.5703V1.17188Z" stroke="white" stroke-width="2" stroke-miterlimit="10" stroke-linecap="round" stroke-linejoin="round"/>
<path d="M3.32031 13.9844L16.1328 13.9844L16.1328 1.17188L3.32031 1.17187L3.32031 13.9844Z" stroke="white" stroke-width="2" stroke-miterlimit="10" stroke-linecap="round" stroke-linejoin="round"/>
<path d="M3.32031 32.4219L16.1328 32.4219L16.1328 19.6094L3.32031 19.6094L3.32031 32.4219Z" stroke="white" stroke-width="2" stroke-miterlimit="10" stroke-linecap="round" stroke-linejoin="round"/>
<path d="M36.5033 33.2547C35.7181 35.6594 34.4041 38.8281 34.4041 38.8281L22.997 38.8219C22.7519 38.2681 21.1796 34.5798 20.9361 32.718C20.3634 29.9086 22.4697 27.2641 25.3361 27.1867L25.3509 27.1891V21.0156C25.3509 19.7212 26.4002 18.6719 27.6947 18.6719C28.9891 18.6719 30.0384 19.7212 30.0384 21.0156V27.8766L30.1119 27.8875L33.9236 28.7305C35.9525 29.1789 37.1494 31.2797 36.5033 33.2547Z" stroke="white" stroke-width="2" stroke-miterlimit="10" stroke-linecap="round" stroke-linejoin="round"/>
<path d="M25.3516 27.1875V31.7969" stroke="white" stroke-width="2" stroke-miterlimit="10" stroke-linecap="round" stroke-linejoin="round"/>
<path d="M26.1914 7.01172L27.6758 8.49609L30.1367 6.03516" stroke="white" stroke-width="2" stroke-miterlimit="10" stroke-linecap="round" stroke-linejoin="round"/>
</svg>
