<svg width="100" height="100" viewBox="0 0 100 100" fill="none" xmlns="http://www.w3.org/2000/svg">
<path d="M93.75 43.75L80.959 48.0137L50.0234 31.8262L50 31.8359L18.75 43.75L6.95508 35.8867C10.6602 15.4766 28.5215 0 50 0C74.1621 0 93.75 19.5879 93.75 43.75Z" fill="#D2BFFF"/>
<path d="M93.75 43.75L80.959 48.0137L50.0234 31.8262L50 31.8359V0C74.1621 0 93.75 19.5879 93.75 43.75Z" fill="#9F8CEA"/>
<path d="M81.25 43.75C81.25 45.1973 81.1504 46.6191 80.959 48.0137L72.0703 48.7559L62.5 43.75H58.1758L50.0234 42.5176L50 42.5215L41.8379 43.75H37.5L31.25 40.5723L18.75 43.75C18.75 26.4902 32.7402 12.5 50 12.5C67.2598 12.5 81.25 26.4902 81.25 43.75Z" fill="#9F8CEA"/>
<path d="M81.25 43.75C81.25 45.1973 81.1504 46.6191 80.959 48.0137L72.0703 48.7559L62.5 43.75H58.1758L50.0234 42.5176L50 42.5215V12.5C67.2598 12.5 81.25 26.4902 81.25 43.75Z" fill="#7E6AD3"/>
<path d="M93.75 56.25C93.75 80.4121 74.1621 100 50 100C25.8379 100 6.25 80.4121 6.25 56.25C6.25 53.5664 6.49219 50.9375 6.95508 48.3867L18.75 56.25L50 69.8262L50.0234 69.8359L80.959 60.5137L93.75 56.25Z" fill="#D2BFFF"/>
<path d="M93.75 56.25C93.75 80.4121 74.1621 100 50 100V69.8262L50.0234 69.8359L80.959 60.5137L93.75 56.25Z" fill="#9F8CEA"/>
<path d="M80.959 60.5137C78.8789 75.7559 65.8125 87.5 50 87.5C32.7402 87.5 18.75 73.5098 18.75 56.25L31.25 53.0723L37.5 56.25H42.1777L50 57.4668L50.0234 57.4707L58.4824 56.25H62.5L72.0703 61.2559L80.959 60.5137Z" fill="#9F8CEA"/>
<path d="M80.959 60.5137C78.8789 75.7559 65.8125 87.5 50 87.5V57.4668L50.0234 57.4707L58.4824 56.25H62.5L72.0703 61.2559L80.959 60.5137Z" fill="#7E6AD3"/>
<path d="M60.4277 61.7656C60.4277 66.1797 57.168 69.8437 52.9297 70.4805V74.418H47.0703V70.4863C42.8613 69.877 39.6191 66.2461 39.6191 61.8711H45.4785C45.4785 63.4414 46.7559 64.7207 48.3262 64.7207H51.6152C53.2441 64.7207 54.5684 63.3945 54.5684 61.7656C54.5684 60.1387 53.2441 58.8125 51.6152 58.8125H48.3848C45.9668 58.8125 43.7715 57.834 42.1777 56.25H58.4824C59.6992 57.7598 60.4277 59.6797 60.4277 61.7656Z" fill="#D2BFFF"/>
<path d="M60.4277 61.7656C60.4277 66.1797 57.168 69.8437 52.9297 70.4805V74.418H50V64.7207H51.6152C53.2441 64.7207 54.5684 63.3945 54.5684 61.7656C54.5684 60.1387 53.2441 58.8125 51.6152 58.8125H50V56.25H58.4824C59.6992 57.7598 60.4277 59.6797 60.4277 61.7656Z" fill="#9F8CEA"/>
<path d="M58.1758 43.75H41.8379C40.4297 42.1895 39.5723 40.123 39.5723 37.8594C39.5723 33.4453 42.832 29.7813 47.0703 29.1445V25.207H52.9297V29.1563C57.1328 29.8242 60.3574 33.4727 60.3574 37.8613H54.498C54.498 36.2324 53.1719 34.9063 51.541 34.9063H48.3848C46.7559 34.9063 45.4316 36.2305 45.4316 37.8594C45.4316 39.4863 46.7559 40.8125 48.3848 40.8125H51.6152C54.2187 40.8125 56.5625 41.9473 58.1758 43.75Z" fill="#D2BFFF"/>
<path d="M58.1758 43.75H50V40.8125H51.6152C54.2187 40.8125 56.5625 41.9473 58.1758 43.75Z" fill="#9F8CEA"/>
<path d="M51.541 34.9063H50V25.207H52.9297V29.1563C57.1328 29.8242 60.3574 33.4727 60.3574 37.8613H54.498C54.498 36.2324 53.1719 34.9063 51.541 34.9063Z" fill="#9F8CEA"/>
</svg>
