<svg width="80" height="80" viewBox="0 0 80 80" fill="none" xmlns="http://www.w3.org/2000/svg">
<path d="M77.6471 80.0001H56.3138C55.0143 80.0001 53.9608 78.9466 53.9608 77.6471C53.9608 76.3477 55.0143 75.2942 56.3138 75.2942H77.6471C78.9465 75.2942 80 76.3477 80 77.6471C80 78.9466 78.9465 80.0001 77.6471 80.0001Z" fill="#936FE9"/>
<path d="M17.4118 35.1372H2.35294C1.05349 35.1372 0 36.1907 0 37.4901V77.647C0 78.9465 1.05349 80 2.35294 80H17.4118C18.7112 80 19.7647 78.9465 19.7647 77.647V37.4901C19.7647 36.1907 18.7112 35.1372 17.4118 35.1372Z" fill="#936FE9"/>
<path d="M16.1568 49.8824H12.3921C11.0927 49.8824 10.0392 48.8289 10.0392 47.5295C10.0392 46.23 11.0927 45.1765 12.3921 45.1765H16.1568C17.4563 45.1765 18.5098 46.23 18.5098 47.5295C18.5098 48.8289 17.4563 49.8824 16.1568 49.8824Z" fill="#DDCFFF"/>
<path d="M16.1568 59.9217H12.3921C11.0927 59.9217 10.0392 58.8682 10.0392 57.5688C10.0392 56.2693 11.0927 55.2158 12.3921 55.2158H16.1568C17.4563 55.2158 18.5098 56.2693 18.5098 57.5688C18.5098 58.8682 17.4563 59.9217 16.1568 59.9217Z" fill="#DDCFFF"/>
<path d="M16.1568 69.9608H12.3921C11.0927 69.9608 10.0392 68.9073 10.0392 67.6078C10.0392 66.3084 11.0927 65.2549 12.3921 65.2549H16.1568C17.4563 65.2549 18.5098 66.3084 18.5098 67.6078C18.5098 68.9073 17.4563 69.9608 16.1568 69.9608Z" fill="#DDCFFF"/>
<path d="M49.2549 2.35294V12.3922C49.2549 13.691 48.2008 14.7451 46.902 14.7451H26.8235C25.5247 14.7451 24.4706 13.691 24.4706 12.3922V2.35294C24.4706 1.05412 25.5247 0 26.8235 0H46.902C48.2008 0 49.2549 1.05412 49.2549 2.35294Z" fill="#936FE9"/>
<path d="M49.2549 2.35294V12.3922C49.2549 13.691 48.2008 14.7451 46.9019 14.7451H36.8627V0H46.9019C48.2008 0 49.2549 1.05412 49.2549 2.35294Z" fill="#7732EF"/>
<path d="M56.3137 38.3123V57.324C57.6126 57.324 58.6667 58.3781 58.6667 59.677V80.0001H17.4118C16.113 80.0001 15.0588 78.946 15.0588 77.6472V12.3922C15.0588 11.0934 16.113 10.0393 17.4118 10.0393H56.3137C57.6126 10.0393 58.6667 11.0934 58.6667 12.3922V35.9593C58.6667 37.2581 57.6126 38.3123 56.3137 38.3123Z" fill="#AE8FF7"/>
<path d="M56.3137 38.3123V57.324C57.6125 57.324 58.6667 58.3781 58.6667 59.677V80.0001H36.8627V10.0393H56.3137C57.6125 10.0393 58.6667 11.0934 58.6667 12.3922V35.9593C58.6667 37.2581 57.6125 38.3123 56.3137 38.3123Z" fill="#936FE9"/>
<path d="M80 47.5294C80 54.6631 70.3592 64.8941 65.4196 69.3553C64.5166 70.1668 63.1588 70.1578 62.2667 69.3553C57.2129 64.7908 47.6863 54.6225 47.6863 47.5294C47.6863 38.673 54.8502 31.4588 63.6863 31.3741C72.1302 31.118 80 38.2258 80 47.5294Z" fill="#FFCEBF"/>
<path d="M80 47.5295C80 54.6632 70.3592 64.8942 65.4196 69.3554C64.9166 69.8075 64.2532 70.0062 63.6863 69.9546C63.6863 28.4084 63.6088 31.3726 63.8432 31.3726C72.7514 31.3726 80 38.6213 80 47.5295Z" fill="#FFB09E"/>
<path d="M69.9608 47.5295C69.9608 48.8283 68.9066 49.8824 67.6078 49.8824H60.0784C58.7796 49.8824 57.7255 48.8283 57.7255 47.5295C57.7255 46.2306 58.7796 45.1765 60.0784 45.1765H67.6078C68.9066 45.1765 69.9608 46.2306 69.9608 47.5295Z" fill="white"/>
<path d="M69.9608 47.5295C69.9608 48.8283 68.9067 49.8824 67.6079 49.8824H63.6785C63.6785 48.16 63.6784 46.5961 63.6769 45.1765H67.6079C68.9067 45.1765 69.9608 46.2306 69.9608 47.5295Z" fill="white"/>
<path d="M31.2157 24.7843H27.451C26.1515 24.7843 25.098 23.7308 25.098 22.4313C25.098 21.1319 26.1515 20.0784 27.451 20.0784H31.2157C32.5151 20.0784 33.5686 21.1319 33.5686 22.4313C33.5686 23.7308 32.5151 24.7843 31.2157 24.7843Z" fill="#DDCFFF"/>
<path d="M46.2745 24.7843H42.5098C41.2104 24.7843 40.1569 23.7308 40.1569 22.4313C40.1569 21.1319 41.2104 20.0784 42.5098 20.0784H46.2745C47.574 20.0784 48.6274 21.1319 48.6274 22.4313C48.6274 23.7308 47.574 24.7843 46.2745 24.7843Z" fill="#DDCFFF"/>
<path d="M31.2157 34.8236H27.451C26.1515 34.8236 25.098 33.7701 25.098 32.4706C25.098 31.1712 26.1515 30.1177 27.451 30.1177H31.2157C32.5151 30.1177 33.5686 31.1712 33.5686 32.4706C33.5686 33.7701 32.5151 34.8236 31.2157 34.8236Z" fill="#DDCFFF"/>
<path d="M46.2745 34.8236H42.5098C41.2104 34.8236 40.1569 33.7701 40.1569 32.4706C40.1569 31.1712 41.2104 30.1177 42.5098 30.1177H46.2745C47.574 30.1177 48.6274 31.1712 48.6274 32.4706C48.6274 33.7701 47.574 34.8236 46.2745 34.8236Z" fill="#DDCFFF"/>
<path d="M31.2157 44.8629H27.451C26.1515 44.8629 25.098 43.8094 25.098 42.5099C25.098 41.2105 26.1515 40.157 27.451 40.157H31.2157C32.5151 40.157 33.5686 41.2105 33.5686 42.5099C33.5686 43.8094 32.5151 44.8629 31.2157 44.8629Z" fill="#DDCFFF"/>
<path d="M31.2157 54.9019H27.451C26.1515 54.9019 25.098 53.8484 25.098 52.549C25.098 51.2495 26.1515 50.196 27.451 50.196H31.2157C32.5151 50.196 33.5686 51.2495 33.5686 52.549C33.5686 53.8484 32.5151 54.9019 31.2157 54.9019Z" fill="#DDCFFF"/>
<path d="M31.2157 64.9412H27.451C26.1515 64.9412 25.098 63.8877 25.098 62.5883C25.098 61.2888 26.1515 60.2354 27.451 60.2354H31.2157C32.5151 60.2354 33.5686 61.2888 33.5686 62.5883C33.5686 63.8877 32.5151 64.9412 31.2157 64.9412Z" fill="#DDCFFF"/>
</svg>
