<svg width="46" height="46" viewBox="0 0 46 46" fill="none" xmlns="http://www.w3.org/2000/svg">
<g clip-path="url(#clip0_73_6244)">
<mask id="mask0_73_6244" style="mask-type:luminance" maskUnits="userSpaceOnUse" x="0" y="0" width="46" height="47">
<path d="M0 0.000125885H46V46.0001H0V0.000125885Z" fill="white"/>
</mask>
<g mask="url(#mask0_73_6244)">
<path d="M25.2012 22.2769V23.09V44.6525H3.63867V23.09V16.8009H20.5796" stroke="#181818" stroke-width="2" stroke-miterlimit="10" stroke-linecap="round" stroke-linejoin="round"/>
<path d="M3.63867 23.09H25.2012" stroke="#181818" stroke-width="2" stroke-miterlimit="10" stroke-linecap="round" stroke-linejoin="round"/>
<path d="M10.377 28.4806C10.377 29.2249 9.77356 29.8282 9.0293 29.8282C8.28503 29.8282 7.68164 29.2249 7.68164 28.4806C7.68164 27.7363 8.28503 27.1329 9.0293 27.1329C9.77356 27.1329 10.377 27.7363 10.377 28.4806Z" fill="#181818"/>
<path d="M15.7676 28.4806C15.7676 29.2249 15.1642 29.8282 14.4199 29.8282C13.6757 29.8282 13.0723 29.2249 13.0723 28.4806C13.0723 27.7363 13.6757 27.1329 14.4199 27.1329C15.1642 27.1329 15.7676 27.7363 15.7676 28.4806Z" fill="#181818"/>
<path d="M21.1582 28.4806C21.1582 29.2249 20.5548 29.8282 19.8105 29.8282C19.0663 29.8282 18.4629 29.2249 18.4629 28.4806C18.4629 27.7363 19.0663 27.1329 19.8105 27.1329C20.5548 27.1329 21.1582 27.7363 21.1582 28.4806Z" fill="#181818"/>
<path d="M10.377 33.8712C10.377 34.6155 9.77356 35.2189 9.0293 35.2189C8.28503 35.2189 7.68164 34.6155 7.68164 33.8712C7.68164 33.127 8.28503 32.5236 9.0293 32.5236C9.77356 32.5236 10.377 33.127 10.377 33.8712Z" fill="#181818"/>
<path d="M15.7676 33.8712C15.7676 34.6155 15.1642 35.2189 14.4199 35.2189C13.6757 35.2189 13.0723 34.6155 13.0723 33.8712C13.0723 33.127 13.6757 32.5236 14.4199 32.5236C15.1642 32.5236 15.7676 33.127 15.7676 33.8712Z" fill="#181818"/>
<path d="M10.377 39.2618C10.377 40.0061 9.77356 40.6095 9.0293 40.6095C8.28503 40.6095 7.68164 40.0061 7.68164 39.2618C7.68164 38.5176 8.28503 37.9142 9.0293 37.9142C9.77356 37.9142 10.377 38.5176 10.377 39.2618Z" fill="#181818"/>
<path d="M15.7676 39.2618C15.7676 40.0061 15.1642 40.6095 14.4199 40.6095C13.6757 40.6095 13.0723 40.0061 13.0723 39.2618C13.0723 38.5176 13.6757 37.9142 14.4199 37.9142C15.1642 37.9142 15.7676 38.5176 15.7676 39.2618Z" fill="#181818"/>
<path d="M19.8105 39.2618V33.8712" stroke="#181818" stroke-width="2" stroke-miterlimit="10" stroke-linecap="round" stroke-linejoin="round"/>
<path d="M33.4102 7.24622H31.0742C29.5857 7.24622 28.3789 8.453 28.3789 9.94153C28.3789 11.4301 29.5857 12.6368 31.0742 12.6368C32.5628 12.6368 33.7695 13.8436 33.7695 15.3322C33.7695 16.8207 32.5628 18.0275 31.0742 18.0275H28.7383" stroke="#181818" stroke-width="2" stroke-miterlimit="10" stroke-linecap="round" stroke-linejoin="round"/>
<path d="M31.0742 7.24622V5.44934" stroke="#181818" stroke-width="2" stroke-miterlimit="10" stroke-linecap="round" stroke-linejoin="round"/>
<path d="M31.0742 18.0275V19.8243" stroke="#181818" stroke-width="2" stroke-miterlimit="10" stroke-linecap="round" stroke-linejoin="round"/>
<path d="M42.3605 12.6363C42.3605 18.8703 37.3068 23.924 31.0728 23.924C24.8388 23.924 19.7852 18.8703 19.7852 12.6363C19.7852 6.40227 24.8388 1.34856 31.0728 1.34856C37.3068 1.34856 42.3605 6.40227 42.3605 12.6363Z" stroke="#181818" stroke-width="2" stroke-miterlimit="10" stroke-linecap="round" stroke-linejoin="round"/>
</g>
</g>
<defs>
<clipPath id="clip0_73_6244">
<rect width="46" height="46" fill="white"/>
</clipPath>
</defs>
</svg>
