<svg width="68" height="54" viewBox="0 0 68 54" fill="none" xmlns="http://www.w3.org/2000/svg">
<path d="M15.4376 51.3333L0 31.432L39.2291 0L54.6667 19.9013L15.4376 51.3333Z" fill="#AE8FF7"/>
<path d="M48.6662 13.9556L43.4735 7.26709C40.6242 9.548 36.4564 9.00367 34.1637 6.05141C34.1503 6.03478 34.1383 6.01739 34.1249 6L7.49323 27.319C7.55524 27.3924 7.61575 27.4664 7.67551 27.5428C9.96747 30.4951 9.51625 34.7379 6.66699 37.018L11.723 43.5304C11.7552 43.5039 11.7873 43.4767 11.8202 43.451C14.6694 41.1701 18.8372 41.7144 21.1299 44.6667L47.6585 23.4308C45.3665 20.4785 45.8177 16.2358 48.667 13.9556H48.6662Z" fill="white"/>
<path d="M22.3766 19.0774C18.999 21.7656 18.3312 26.5966 20.8841 29.8676C23.4371 33.1385 28.2451 33.6115 31.6227 30.9225C35.0004 28.2343 35.6682 23.4034 33.1152 20.1324C30.5623 16.8614 25.7543 16.3885 22.3766 19.0774ZM29.3472 25.1686C29.307 25.6667 29.0395 26.1534 28.5437 26.6278L29.063 27.293L28.4816 27.7561L27.9623 27.0909C27.0179 27.6981 26.1674 27.7126 25.4109 27.1359L26.2371 26.119C26.6752 26.444 27.1498 26.4028 27.6614 25.9955C27.9085 25.7987 28.0578 25.6057 28.1086 25.4172C28.1594 25.2281 28.1344 25.0694 28.0336 24.9405C27.9313 24.8093 27.7971 24.7505 27.6311 24.7643C27.4651 24.778 27.1998 24.8817 26.8352 25.0732C26.0393 25.4836 25.4503 25.6514 25.0683 25.5767C24.6863 25.5019 24.3732 25.3082 24.1291 24.9962C23.8434 24.63 23.7251 24.2166 23.7744 23.7566C23.8237 23.2966 24.0298 22.8839 24.3929 22.5185L23.9586 21.9624L24.54 21.4994L24.9682 22.0486C25.7694 21.5215 26.529 21.478 27.2468 21.9182L26.5615 22.9426C26.1636 22.6894 25.7626 22.7222 25.3609 23.0426C24.9341 23.382 24.8257 23.6856 25.0342 23.9526C25.1183 24.0609 25.2297 24.1197 25.3669 24.1296C25.5041 24.1395 25.7353 24.0602 26.0582 23.8908C26.5994 23.6086 27.0171 23.427 27.3097 23.3462C27.6023 23.2653 27.9047 23.2707 28.217 23.3614C28.5293 23.4522 28.7863 23.6261 28.9879 23.8847C29.2669 24.2417 29.3859 24.6697 29.3457 25.1678L29.3472 25.1686Z" fill="#AE8FF7"/>
<path d="M31.7051 35.5761L23.5603 41.8291C23.2769 42.0471 22.9129 42.0578 22.7478 41.8541C22.5826 41.6505 22.6789 41.3086 22.9622 41.0906L31.107 34.8376C31.3904 34.6196 31.7544 34.6089 31.9196 34.8126C32.0847 35.0162 31.9884 35.3581 31.7051 35.5761Z" fill="#ACBCF8"/>
<path d="M43.7196 25.5386L38.1805 29.8361C37.9116 30.0452 37.5663 30.0554 37.4096 29.8602C37.2529 29.665 37.3443 29.3372 37.6131 29.1281L43.1522 24.8306C43.421 24.6215 43.7664 24.6113 43.923 24.8065C44.0797 25.0017 43.9884 25.3295 43.7196 25.5386Z" fill="#ACBCF8"/>
<path d="M14.3866 23.5386L8.84746 27.8361C8.57863 28.0452 8.23332 28.0554 8.07663 27.8602C7.91994 27.665 8.01128 27.3372 8.2801 27.1281L13.8192 22.8306C14.088 22.6215 14.4333 22.6113 14.59 22.8065C14.7467 23.0017 14.6554 23.3295 14.3866 23.5386Z" fill="#AE8FF7"/>
<path d="M36.3764 31.4618L32.8782 33.8506C32.5996 34.0412 32.2418 34.0505 32.0794 33.8725C31.917 33.6945 32.0117 33.3955 32.2903 33.2049L35.7885 30.8161C36.0671 30.6255 36.4249 30.6162 36.5873 30.7942C36.7496 30.9723 36.655 31.2712 36.3764 31.4618Z" fill="#ACBCF8"/>
<path d="M28.7701 53.3333L13.333 33.4317L52.5626 2L67.9997 21.9009L28.7701 53.3333Z" fill="#AE8FF7"/>
<path d="M61.9993 16.4851L56.8065 9.91193C53.9572 12.1535 49.7894 11.6186 47.4967 8.71721C47.4833 8.70086 47.4713 8.68378 47.4579 8.66669L20.8262 29.6181C20.8882 29.6902 20.9488 29.763 21.0085 29.8381C23.3005 32.7394 22.8493 36.9091 20 39.1499L25.056 45.55C25.0882 45.524 25.1203 45.4972 25.1532 45.472C28.0024 43.2304 32.1702 43.7653 34.4629 46.6667L60.9915 25.797C58.6995 22.8956 59.1507 18.726 62 16.4851H61.9993Z" fill="white"/>
<path d="M35.7106 21.6683C32.333 24.2396 31.6652 28.8605 34.2181 31.9893C36.7711 35.118 41.5791 35.5704 44.9567 32.9984C48.3344 30.4271 49.0022 25.8062 46.4492 22.6774C43.8963 19.5486 39.0883 19.0962 35.7106 21.6683ZM42.6819 27.4939C42.6418 27.9703 42.3742 28.4358 41.8785 28.8897L42.3977 29.526L41.8163 29.9689L41.2971 29.3326C40.3526 29.9134 39.5021 29.9273 38.7456 29.3756L39.5719 28.403C40.01 28.7138 40.4845 28.6744 40.9962 28.2848C41.2433 28.0966 41.3926 27.912 41.4434 27.7317C41.4942 27.5508 41.4691 27.399 41.3683 27.2757C41.266 27.1502 41.1318 27.094 40.9658 27.1071C40.7998 27.1203 40.5345 27.2195 40.1699 27.4027C39.374 27.7952 38.7851 27.9557 38.403 27.8842C38.021 27.8127 37.7079 27.6274 37.4639 27.329C37.1781 26.9787 37.0599 26.5832 37.1091 26.1433C37.1584 25.7033 37.3646 25.3085 37.7277 24.959L37.2933 24.4271L37.8747 23.9842L38.303 24.5096C39.1042 24.0054 39.8637 23.9638 40.5815 24.3848L39.8963 25.3647C39.4983 25.1225 39.0974 25.1538 38.6956 25.4603C38.2689 25.785 38.1605 26.0754 38.3689 26.3308C38.4531 26.4344 38.5645 26.4906 38.7017 26.5001C38.8389 26.5096 39.0701 26.4337 39.393 26.2717C39.9342 26.0017 40.3518 25.8281 40.6444 25.7507C40.937 25.6734 41.2395 25.6785 41.5518 25.7653C41.8641 25.8521 42.121 26.0185 42.3227 26.2658C42.6016 26.6073 42.7206 27.0167 42.6804 27.4931L42.6819 27.4939Z" fill="#AE8FF7"/>
<path d="M45.0381 37.5761L36.8933 43.8291C36.6099 44.0471 36.2459 44.0578 36.0808 43.8541C35.9156 43.6505 36.0119 43.3086 36.2953 43.0906L44.44 36.8376C44.7234 36.6196 45.0874 36.6089 45.2526 36.8126C45.4177 37.0162 45.3214 37.3581 45.0381 37.5761Z" fill="#AE8FF7"/>
<path d="M57.0536 28.2052L51.5144 32.5028C51.2456 32.7118 50.9003 32.722 50.7436 32.5268C50.5869 32.3316 50.6783 32.0038 50.9471 31.7948L56.4862 27.4972C56.755 27.2882 57.1003 27.278 57.257 27.4732C57.4137 27.6684 57.3224 27.9962 57.0536 28.2052Z" fill="#AE8FF7"/>
<path d="M27.7196 25.6476L22.1805 30.4823C21.9116 30.7175 21.5663 30.729 21.4096 30.5094C21.2529 30.2897 21.3443 29.921 21.6131 29.6858L27.1522 24.8511C27.421 24.6159 27.7664 24.6044 27.923 24.824C28.0797 25.0436 27.9884 25.4124 27.7196 25.6476Z" fill="#AE8FF7"/>
<path d="M49.7094 33.6209L46.2112 36.4873C45.9326 36.7161 45.5748 36.7273 45.4124 36.5136C45.25 36.3 45.3447 35.9413 45.6233 35.7125L49.1215 32.846C49.4001 32.6173 49.7579 32.6061 49.9203 32.8197C50.0826 33.0334 49.988 33.3921 49.7094 33.6209Z" fill="#AE8FF7"/>
</svg>
