<svg width="100" height="100" viewBox="0 0 100 100" fill="none" xmlns="http://www.w3.org/2000/svg">
<path d="M29.6328 60.1855L60.1664 29.652L70.3516 39.8372L39.818 70.3708L29.6328 60.1855Z" fill="#D2BFFF"/>
<path d="M9.27725 60.17L4.17359 65.2737C2.77036 66.6769 2.77036 68.952 4.1736 70.3552L29.6256 95.8072C31.0288 97.2105 33.3039 97.2105 34.7072 95.8072L39.8108 90.7036C41.2141 89.3003 41.214 87.0253 39.8108 85.622L14.3588 60.17C12.9556 58.7668 10.6805 58.7668 9.27725 60.17Z" fill="#9F8CEA"/>
<path d="M14.3612 44.9239L9.25758 50.0276C7.85434 51.4308 7.85434 53.7059 9.25758 55.1091L44.8948 90.7464C46.298 92.1496 48.5731 92.1496 49.9764 90.7464L55.08 85.6427C56.4833 84.2395 56.4833 81.9644 55.08 80.5611L19.4428 44.9239C18.0396 43.5207 15.7645 43.5207 14.3612 44.9239Z" fill="#7E6AD3"/>
<path d="M90.7227 39.828L95.8264 34.7244C97.2296 33.3211 97.2296 31.046 95.8264 29.6428L70.3744 4.19081C68.9712 2.78758 66.6961 2.78758 65.2928 4.19081L60.1892 9.29447C58.786 10.6977 58.786 12.9728 60.1892 14.376L85.6412 39.828C87.0444 41.2313 89.3195 41.2313 90.7227 39.828Z" fill="#9F8CEA"/>
<path d="M85.6388 55.0898L90.7424 49.9861C92.1457 48.5829 92.1457 46.3078 90.7424 44.9045L55.1052 9.26731C53.702 7.86408 51.4269 7.86408 50.0236 9.26731L44.92 14.371C43.5167 15.7742 43.5167 18.0493 44.92 19.4525L80.5572 55.0898C81.9604 56.493 84.2355 56.493 85.6388 55.0898Z" fill="#7E6AD3"/>
<path d="M6.71094 83.1094L11.7933 78.027L21.98 88.2138L16.8977 93.2961L6.71094 83.1094Z" fill="#D2BFFF"/>
<path d="M93.2871 16.9102L88.2048 21.9925L78.018 11.8057L83.1004 6.7234L93.2871 16.9102Z" fill="#D2BFFF"/>
</svg>
