<svg width="44" height="45" viewBox="0 0 44 45" fill="none" xmlns="http://www.w3.org/2000/svg">
<path d="M22 33.5C22 39.299 17.2989 44 11.5 44C5.70102 44 1 39.299 1 33.5C1 27.7011 5.70102 23 11.5 23C17.2989 23 22 27.7011 22 33.5Z" stroke="#181818" stroke-width="2" stroke-miterlimit="10" stroke-linecap="round" stroke-linejoin="round"/>
<path d="M11.4999 44H40.3748C41.8245 44 42.9998 42.8247 42.9998 41.375V10.5753L34.2502 1.82507H14.1249C12.6752 1.82507 11.4999 3.00037 11.4999 4.45007V23" stroke="#181818" stroke-width="2" stroke-miterlimit="10" stroke-linecap="round" stroke-linejoin="round"/>
<path d="M34.25 1.82326V10.5732H43L34.25 1.82326Z" stroke="#181818" stroke-width="2" stroke-miterlimit="10" stroke-linecap="round" stroke-linejoin="round"/>
<path d="M18.4453 25.627H36.8761" stroke="#181818" stroke-width="2" stroke-miterlimit="10" stroke-linecap="round" stroke-linejoin="round"/>
<path d="M17.6251 17.7463H36.8751" stroke="#181818" stroke-width="2" stroke-miterlimit="10" stroke-linecap="round" stroke-linejoin="round"/>
<path d="M21.9999 33.498H36.8748" stroke="#181818" stroke-width="2" stroke-miterlimit="10" stroke-linecap="round" stroke-linejoin="round"/>
<path d="M9.6621 37.2637L7.03711 34.6387" stroke="#181818" stroke-width="2" stroke-miterlimit="10" stroke-linecap="round" stroke-linejoin="round"/>
<path d="M9.66223 37.2638L15.7872 31.1388" stroke="#181818" stroke-width="2" stroke-miterlimit="10" stroke-linecap="round" stroke-linejoin="round"/>
</svg>
