<svg width="60" height="52" viewBox="0 0 60 52" fill="none" xmlns="http://www.w3.org/2000/svg">
<path d="M31.9355 6.08692C28.8254 6.08692 22.6539 6.39993 22.6539 6.39993C20.5862 3.18008 18.147 1.45743 16.3133 0.552506C15.038 -0.076791 13.5483 0.880397 13.5483 2.30258C13.5483 2.30258 13.5483 6.56223 13.5482 8.90422C13.5482 9.81653 13.1205 10.6731 12.3864 11.2146C9.71672 13.1834 7.56152 15.552 6.08801 18.1926C5.5698 19.1213 4.60664 19.7103 3.54316 19.7103H1.93535C0.866602 19.7103 0 20.5768 0 21.6458V31.3232C0 32.3921 0.866602 33.2587 1.93547 33.2587H3.54305C4.60711 33.2587 5.57027 33.8485 6.08883 34.7776C7.57219 37.4355 9.75855 39.808 12.4526 41.7843L13.3332 49.7103L15.0134 51.305H19.2906C20.2768 51.305 21.1054 50.5634 21.2142 49.5832L21.6103 45.1438C24.7331 46.0545 28.3891 46.8999 31.9355 46.8999C38.1417 46.8999 43.8619 45.7578 43.8619 45.7578L44.301 49.7102L45.5063 51.0707H49.7835C50.7697 51.0707 51.5982 50.3292 51.7071 49.3489L52.8022 39.4931C56.8332 35.8068 59.2163 31.6481 59.2163 26.4843C59.2164 14.7261 47.435 6.08692 31.9355 6.08692Z" fill="#AE8FF7"/>
<path d="M14.5155 22.6131C15.5845 22.6131 16.451 21.7466 16.451 20.6777C16.451 19.6087 15.5845 18.7422 14.5155 18.7422C13.4466 18.7422 12.5801 19.6087 12.5801 20.6777C12.5801 21.7466 13.4466 22.6131 14.5155 22.6131Z" fill="#5D4EB5"/>
<path d="M40.3324 12.2267C40.2455 12.2268 40.1566 12.2156 40.0697 12.1911C36.8064 11.2759 33.2525 10.9111 29.7409 11.117C29.1994 11.1478 28.7491 10.7418 28.7183 10.2079C28.6866 9.67403 29.0944 9.21618 29.6273 9.18536C33.3573 8.9688 37.1218 9.35423 40.5913 10.3269C41.1064 10.4718 41.4067 11.0055 41.2625 11.5199C41.143 11.947 40.7549 12.2263 40.3324 12.2267Z" fill="#5D4EB5"/>
<path d="M43.8625 45.7589C43.5086 44.7664 42.4457 44.2168 41.4341 44.5118C38.4098 45.394 35.2237 45.8404 31.9361 45.8404C28.6662 45.8404 25.4643 45.3905 22.4212 44.5022C21.8702 44.3406 21.2805 44.4323 20.8052 44.7498C20.3298 45.0665 20.0188 45.5778 19.9555 46.1457L19.8461 47.1293C19.6825 48.5993 18.4398 49.7113 16.9607 49.7113H13.334L13.3578 49.9251C13.4666 50.9052 14.2953 51.6469 15.2814 51.6469H19.5586C20.5449 51.6469 21.3734 50.9054 21.4823 49.9251L21.8784 46.3605C25.0012 47.2713 28.3899 47.7759 31.9362 47.7759C36.2016 47.7759 40.2423 47.0505 43.8625 45.7589Z" fill="#7E6AD3"/>
<path d="M60.0003 14.8727C60.0003 11.6658 57.4006 9.06625 54.1939 9.06625C52.7512 9.06625 51.4323 9.59324 50.417 10.4644C45.4798 7.18422 39.0144 5.19531 31.9359 5.19531C28.8259 5.19531 25.4588 5.68961 22.6543 6.40105C22.9162 7.43242 23.9395 8.06664 24.983 7.85887C27.3323 7.39105 29.7847 7.13078 31.9358 7.13078C46.3433 7.13078 58.0648 15.8131 58.0648 26.4856C58.0648 30.8787 56.0054 35.1852 52.2638 38.6177C51.9098 38.9425 51.6745 39.3777 51.6214 39.8553L50.813 47.1288C50.6497 48.599 49.4069 49.7113 47.9275 49.7113H44.3013L44.3251 49.9251C44.4339 50.9054 45.2626 51.6469 46.2487 51.6469H50.5259C51.5122 51.6469 52.3407 50.9054 52.4496 49.9252L53.5447 40.0694C57.5757 36.383 60.0003 31.6495 60.0003 26.4856C60.0003 23.8659 59.3751 21.3572 58.2343 19.0394C59.3226 17.9843 60.0003 16.5082 60.0003 14.8727Z" fill="#7E6AD3"/>
</svg>
