<svg width="44" height="54" viewBox="0 0 44 54" fill="none" xmlns="http://www.w3.org/2000/svg">
<g opacity="0.4">
<mask id="path-1-outside-1_91_14804" maskUnits="userSpaceOnUse" x="0" y="0" width="44" height="54" fill="black">
<rect fill="white" width="44" height="54"/>
<path d="M21.53 20.41C36.02 20.41 41.76 26.92 41.76 35.6C41.76 44.28 35.39 51.84 21.39 51.84C14.6 51.84 7.46 49.95 2.7 46.59L7.18 37.91C10.89 40.71 16 42.32 21.11 42.32C26.78 42.32 30.28 39.94 30.28 35.95C30.28 32.1 27.76 29.58 18.87 29.58H6.34L8.86 2H38.75V11.1H18.31L17.54 20.41H21.53Z"/>
</mask>
<path d="M2.7 46.59L2.03353 46.246L1.73408 46.8262L2.26749 47.2027L2.7 46.59ZM7.18 37.91L7.63181 37.3114L6.92161 36.7754L6.51353 37.566L7.18 37.91ZM6.34 29.58L5.59311 29.5118L5.51835 30.33H6.34V29.58ZM8.86 2V1.25H8.1754L8.11311 1.93175L8.86 2ZM38.75 2H39.5V1.25H38.75V2ZM38.75 11.1V11.85H39.5V11.1H38.75ZM18.31 11.1V10.35H17.6195L17.5626 11.0382L18.31 11.1ZM17.54 20.41L16.7926 20.3482L16.7254 21.16H17.54V20.41ZM21.53 19.66H20.5325V21.16H21.53V19.66ZM18.5375 19.66H17.54V21.16H18.5375V19.66ZM18.2874 20.4718L18.3837 19.3081L16.8888 19.1844L16.7926 20.3482L18.2874 20.4718ZM18.5762 16.9806L18.7687 14.6531L17.2738 14.5294L17.0813 16.8569L18.5762 16.9806ZM18.9612 12.3256L19.0574 11.1618L17.5626 11.0382L17.4663 12.2019L18.9612 12.3256ZM18.31 11.85H20.0133V10.35H18.31V11.85ZM23.42 11.85H26.8267V10.35H23.42V11.85ZM30.2333 11.85H33.64V10.35H30.2333V11.85ZM37.0467 11.85H38.75V10.35H37.0467V11.85ZM39.5 11.1V9.9625H38V11.1H39.5ZM39.5 7.6875V5.4125H38V7.6875H39.5ZM39.5 3.1375V2H38V3.1375H39.5ZM38.75 1.25H37.2555V2.75H38.75V1.25ZM34.2665 1.25H31.2775V2.75H34.2665V1.25ZM28.2885 1.25H25.2995V2.75H28.2885V1.25ZM22.3105 1.25H19.3215V2.75H22.3105V1.25ZM16.3325 1.25H13.3435V2.75H16.3325V1.25ZM10.3545 1.25H8.86V2.75H10.3545V1.25ZM8.11311 1.93175L7.98711 3.31075L9.48089 3.44724L9.60689 2.06824L8.11311 1.93175ZM7.73511 6.06875L7.48311 8.82675L8.97689 8.96324L9.22889 6.20524L7.73511 6.06875ZM7.23111 11.5848L6.97911 14.3428L8.47289 14.4792L8.72489 11.7212L7.23111 11.5848ZM6.72711 17.1008L6.47511 19.8588L7.96889 19.9952L8.22089 17.2372L6.72711 17.1008ZM6.22311 22.6168L5.97111 25.3748L7.46489 25.5112L7.71689 22.7532L6.22311 22.6168ZM5.71911 28.1328L5.59311 29.5118L7.08689 29.6482L7.21289 28.2692L5.71911 28.1328ZM6.34 30.33H7.90625V28.83H6.34V30.33ZM11.0388 30.33H14.1713V28.83H11.0388V30.33ZM17.3038 30.33H18.87V28.83H17.3038V30.33ZM18.87 30.33C19.5098 30.33 20.1145 30.3433 20.6856 30.3692L20.7537 28.8707C20.1579 28.8437 19.5304 28.83 18.87 28.83V30.33ZM24.2369 30.7655C25.6338 31.0423 26.6753 31.4381 27.4434 31.9146L28.2341 30.6399C27.2702 30.042 26.0452 29.5946 24.5284 29.2941L24.2369 30.7655ZM29.3258 34.3289C29.4644 34.8162 29.53 35.3558 29.53 35.95H31.03C31.03 35.2475 30.9527 34.5658 30.7686 33.9186L29.3258 34.3289ZM29.53 35.95C29.53 36.4376 29.4713 36.8905 29.3603 37.3092L30.8102 37.6936C30.9566 37.1414 31.03 36.5588 31.03 35.95H29.53ZM27.9595 39.5702C27.333 40.1325 26.5136 40.5974 25.5036 40.9376L25.9825 42.3591C27.149 41.9661 28.1568 41.4087 28.9614 40.6865L27.9595 39.5702ZM22.6119 41.5081C22.1331 41.549 21.6321 41.57 21.11 41.57V43.07C21.6721 43.07 22.2158 43.0474 22.7396 43.0027L22.6119 41.5081ZM21.11 41.57C20.5097 41.57 19.9092 41.5471 19.3109 41.5019L19.198 42.9977C19.8334 43.0456 20.4716 43.07 21.11 43.07V41.57ZM15.7507 40.966C14.5667 40.6969 13.4144 40.3413 12.3146 39.9058L11.7623 41.3004C12.9353 41.7649 14.1613 42.143 15.4183 42.4287L15.7507 40.966ZM9.10669 38.3135C8.59275 37.9992 8.10015 37.6648 7.63181 37.3114L6.72819 38.5086C7.23703 38.8927 7.77018 39.2545 8.32415 39.5932L9.10669 38.3135ZM6.51353 37.566L5.95353 38.651L7.28647 39.339L7.84647 38.254L6.51353 37.566ZM4.83353 40.821L3.71353 42.991L5.04647 43.679L6.16647 41.509L4.83353 40.821ZM2.59353 45.161L2.03353 46.246L3.36647 46.934L3.92647 45.849L2.59353 45.161ZM2.26749 47.2027C2.72348 47.5246 3.1994 47.8327 3.69284 48.1268L4.46081 46.8383C3.99867 46.5629 3.55527 46.2757 3.13251 45.9773L2.26749 47.2027ZM6.70022 49.6596C7.70845 50.0979 8.76245 50.4894 9.84878 50.8325L10.3005 49.4021C9.26067 49.0738 8.25574 48.7003 7.29827 48.284L6.70022 49.6596ZM13.0865 51.6919C14.1702 51.9281 15.2729 52.119 16.3833 52.2632L16.5764 50.7756C15.5078 50.6369 14.4473 50.4532 13.4059 50.2263L13.0865 51.6919ZM19.7164 52.5529C20.2754 52.5776 20.8337 52.59 21.39 52.59V51.09C20.8561 51.09 20.3197 51.0781 19.7824 51.0544L19.7164 52.5529ZM21.39 52.59C21.8989 52.59 22.3983 52.5802 22.8883 52.5609L22.8291 51.062C22.3593 51.0806 21.8796 51.09 21.39 51.09V52.59ZM25.8796 52.3117C26.9155 52.1768 27.9023 51.9945 28.8402 51.7677L28.4877 50.3097C27.6048 50.5232 26.6712 50.696 25.686 50.8242L25.8796 52.3117ZM31.7312 50.8731C32.7173 50.4943 33.6351 50.0582 34.4852 49.57L33.7382 48.2692C32.958 48.7173 32.1103 49.1206 31.1933 49.4729L31.7312 50.8731ZM36.9982 47.8171C37.8028 47.1387 38.5178 46.4015 39.1442 45.6147L37.9707 44.6804C37.4066 45.389 36.761 46.0551 36.0313 46.6703L36.9982 47.8171ZM40.8068 43.0201C41.2708 42.1005 41.6379 41.1394 41.9107 40.1482L40.4644 39.7503C40.2173 40.6484 39.8855 41.5162 39.4676 42.3443L40.8068 43.0201ZM42.4456 37.1289C42.4886 36.6233 42.51 36.1132 42.51 35.6H41.01C41.01 36.0716 40.9904 36.5392 40.951 37.0016L42.4456 37.1289ZM42.51 35.6C42.51 35.0965 42.4914 34.5989 42.4535 34.1082L40.9579 34.2238C40.9928 34.6745 41.01 35.1334 41.01 35.6H42.51ZM41.9614 31.1483C41.7012 30.1629 41.3452 29.2178 40.8867 28.3222L39.5515 29.0057C39.9582 29.8001 40.2768 30.6439 40.5112 31.5313L41.9614 31.1483ZM39.201 25.7979C38.5625 25.0473 37.8279 24.3543 36.9942 23.7256L36.091 24.9232C36.8393 25.4875 37.4931 26.1053 38.0585 26.7699L39.201 25.7979ZM34.4342 22.1561C33.5842 21.7351 32.6646 21.3636 31.6734 21.0444L31.2136 22.4722C32.1392 22.7702 32.9895 23.1145 33.7684 23.5003L34.4342 22.1561ZM28.81 20.3096C27.8929 20.128 26.9263 19.9832 25.9093 19.8768L25.7532 21.3686C26.728 21.4706 27.6493 21.6089 28.5187 21.781L28.81 20.3096ZM22.9893 19.6824C22.5125 19.6675 22.0261 19.66 21.53 19.66V21.16C22.011 21.16 22.4818 21.1673 22.9425 21.1817L22.9893 19.6824ZM2.7 46.59L1.36707 45.902L0.768166 47.0624L1.83498 47.8155L2.7 46.59ZM7.18 37.91L8.08361 36.7127L6.66323 35.6407L5.84707 37.222L7.18 37.91ZM6.34 29.58L4.84622 29.4435L4.6967 31.08H6.34V29.58ZM8.86 2V0.499996H7.49081L7.36622 1.86351L8.86 2ZM38.75 2H40.25V0.499996H38.75V2ZM38.75 11.1V12.6H40.25V11.1H38.75ZM18.31 11.1V9.6H16.9289L16.8151 10.9764L18.31 11.1ZM17.54 20.41L16.0451 20.2864L15.9108 21.91H17.54V20.41ZM21.53 18.91H20.5325V21.91H21.53V18.91ZM18.5375 18.91H17.54V21.91H18.5375V18.91ZM19.0349 20.5336L19.1311 19.3699L16.1414 19.1226L16.0451 20.2864L19.0349 20.5336ZM19.3236 17.0424L19.5161 14.7149L16.5264 14.4676L16.3339 16.7951L19.3236 17.0424ZM19.7086 12.3874L19.8049 11.2236L16.8151 10.9764L16.7189 12.1401L19.7086 12.3874ZM18.31 12.6H20.0133V9.6H18.31V12.6ZM23.42 12.6H26.8267V9.6H23.42V12.6ZM30.2333 12.6H33.64V9.6H30.2333V12.6ZM37.0467 12.6H38.75V9.6H37.0467V12.6ZM40.25 11.1V9.9625H37.25V11.1H40.25ZM40.25 7.6875V5.4125H37.25V7.6875H40.25ZM40.25 3.1375V2H37.25V3.1375H40.25ZM38.75 0.499996H37.2555V3.5H38.75V0.499996ZM34.2665 0.499996H31.2775V3.5H34.2665V0.499996ZM28.2885 0.499996H25.2995V3.5H28.2885V0.499996ZM22.3105 0.499996H19.3215V3.5H22.3105V0.499996ZM16.3325 0.499996H13.3435V3.5H16.3325V0.499996ZM10.3545 0.499996H8.86V3.5H10.3545V0.499996ZM7.36622 1.86351L7.24022 3.24251L10.2278 3.51548L10.3538 2.13648L7.36622 1.86351ZM6.98822 6.00051L6.73622 8.75851L9.72378 9.03148L9.97578 6.27348L6.98822 6.00051ZM6.48422 11.5165L6.23222 14.2745L9.21978 14.5475L9.47178 11.7895L6.48422 11.5165ZM5.98022 17.0325L5.72822 19.7905L8.71578 20.0635L8.96778 17.3055L5.98022 17.0325ZM5.47622 22.5485L5.22422 25.3065L8.21178 25.5795L8.46378 22.8215L5.47622 22.5485ZM4.97222 28.0645L4.84622 29.4435L7.83378 29.7165L7.95978 28.3375L4.97222 28.0645ZM6.34 31.08H7.90625V28.08H6.34V31.08ZM11.0388 31.08H14.1713V28.08H11.0388V31.08ZM17.3038 31.08H18.87V28.08H17.3038V31.08ZM18.87 31.08C19.4995 31.08 20.0928 31.093 20.6516 31.1184L20.7877 28.1215C20.1795 28.0939 19.5407 28.08 18.87 28.08V31.08ZM24.0911 31.5012C25.428 31.7661 26.3779 32.1362 27.0481 32.5519L28.6295 30.0025C27.5677 29.3439 26.251 28.8708 24.6742 28.5584L24.0911 31.5012ZM28.6044 34.5341C28.7203 34.9415 28.78 35.41 28.78 35.95H31.78C31.78 35.1933 31.6968 34.4406 31.49 33.7135L28.6044 34.5341ZM28.78 35.95C28.78 36.377 28.7286 36.765 28.6353 37.117L31.5352 37.8858C31.6992 37.2669 31.78 36.6194 31.78 35.95H28.78ZM27.4585 39.0121C26.9211 39.4944 26.1959 39.913 25.2642 40.2268L26.2219 43.0699C27.4668 42.6505 28.5687 42.0468 29.4624 41.2447L27.4585 39.0121ZM22.548 40.7608C22.0917 40.7998 21.6121 40.82 21.11 40.82V43.82C21.6922 43.82 22.2572 43.7966 22.8035 43.7499L22.548 40.7608ZM21.11 40.82C20.5288 40.82 19.9471 40.7978 19.3673 40.754L19.1416 43.7455C19.7955 43.7949 20.4525 43.82 21.11 43.82V40.82ZM15.9169 40.2347C14.7695 39.9739 13.654 39.6295 12.5908 39.2085L11.4862 41.9977C12.6958 42.4767 13.9585 42.8661 15.2521 43.1601L15.9169 40.2347ZM9.49795 37.6737C9.00404 37.3716 8.53171 37.0509 8.08361 36.7127L6.27639 39.1073C6.80548 39.5066 7.35889 39.8821 7.93289 40.2331L9.49795 37.6737ZM5.84707 37.222L5.28707 38.307L7.95293 39.683L8.51293 38.598L5.84707 37.222ZM4.16707 40.477L3.04707 42.647L5.71293 44.023L6.83293 41.853L4.16707 40.477ZM1.92707 44.817L1.36707 45.902L4.03293 47.278L4.59293 46.193L1.92707 44.817ZM1.83498 47.8155C2.30759 48.1491 2.79976 48.4676 3.30886 48.771L4.84479 46.194C4.39831 45.9279 3.97117 45.6512 3.56502 45.3645L1.83498 47.8155ZM6.40119 50.3474C7.43481 50.7968 8.51334 51.1973 9.62294 51.5477L10.5263 48.6869C9.50977 48.3659 8.52939 48.0014 7.5973 47.5962L6.40119 50.3474ZM12.9269 52.4247C14.0317 52.6655 15.1554 52.8601 16.2867 53.0069L16.6729 50.0319C15.6253 49.8959 14.5858 49.7158 13.5655 49.4935L12.9269 52.4247ZM19.6834 53.3022C20.2532 53.3273 20.8226 53.34 21.39 53.34V50.34C20.8672 50.34 20.3419 50.3283 19.8154 50.3051L19.6834 53.3022ZM21.39 53.34C21.9085 53.34 22.4178 53.33 22.9178 53.3103L22.7995 50.3126C22.3398 50.3308 21.87 50.34 21.39 50.34V53.34ZM25.9763 53.0554C27.0377 52.9173 28.051 52.7301 29.0164 52.4967L28.3115 49.5807C27.456 49.7875 26.549 49.9556 25.5892 50.0805L25.9763 53.0554ZM32.0002 51.5733C33.0207 51.1812 33.9737 50.7286 34.8587 50.2204L33.3647 47.6188C32.6194 48.0468 31.8068 48.4338 30.9244 48.7728L32.0002 51.5733ZM37.4817 48.3905C38.3237 47.6805 39.0734 46.9078 39.731 46.0818L37.384 44.2133C36.851 44.8827 36.2401 45.5133 35.5479 46.0969L37.4817 48.3905ZM41.4763 43.3579C41.9634 42.3926 42.3482 41.3849 42.6338 40.3472L39.7413 39.5513C39.507 40.4029 39.1928 41.224 38.798 42.0065L41.4763 43.3579ZM43.1929 37.1925C43.2378 36.6653 43.26 36.134 43.26 35.6H40.26C40.26 36.0508 40.2412 36.4971 40.2037 36.9379L43.1929 37.1925ZM43.26 35.6C43.26 35.078 43.2407 34.5612 43.2012 34.0504L40.2102 34.2815C40.2434 34.7122 40.26 35.1519 40.26 35.6H43.26ZM42.6866 30.9568C42.4134 29.9224 42.0387 28.9266 41.5544 27.9805L38.8839 29.3475C39.2647 30.0913 39.5646 30.8844 39.786 31.7228L42.6866 30.9568ZM39.7723 25.312C39.0971 24.5183 38.3222 23.7877 37.4458 23.1268L35.6394 25.522C36.345 26.0541 36.9584 26.6342 37.4873 27.2559L39.7723 25.312ZM34.7671 21.4841C33.8816 21.0455 32.9272 20.6602 31.9033 20.3305L30.9837 23.1861C31.8765 23.4736 32.6922 23.8042 33.4355 24.1723L34.7671 21.4841ZM28.9556 19.5739C28.0146 19.3876 27.0255 19.2395 25.9874 19.1308L25.6751 22.1145C26.6289 22.2143 27.5275 22.3494 28.3731 22.5168L28.9556 19.5739ZM23.0127 18.9328C22.5279 18.9176 22.0337 18.91 21.53 18.91V21.91C22.0034 21.91 22.4664 21.9172 22.9191 21.9313L23.0127 18.9328Z" fill="#7732EF" mask="url(#path-1-outside-1_91_14804)"/>
</g>
</svg>
