<svg width="60" height="60" viewBox="0 0 60 60" fill="none" xmlns="http://www.w3.org/2000/svg">
<path d="M48.373 57.4993H30.8672V11.9766H50.0141V50.0163L48.373 52.517V57.4993Z" fill="#7E6AD3"/>
<path d="M33.8951 5.00586H30.8679L28.3672 24.9991L30.8684 56.9085L33.8951 56.4837V5.00586Z" fill="#5D4EB5"/>
<path d="M6.95618 0V5.00519H4.10156V56.483L20.2396 58.3987L30.8684 56.9078V0H6.95618Z" fill="#9F8CEA"/>
<path d="M12.8535 12.0156H16.3701V17.0171H12.8535V12.0156Z" fill="white"/>
<path d="M21.6055 12.0156H25.122V17.0171H21.6055V12.0156Z" fill="white"/>
<path d="M12.8535 22.0195H16.3701V27.0211H12.8535V22.0195Z" fill="white"/>
<path d="M21.6055 22.0195H25.122V27.0211H21.6055V22.0195Z" fill="white"/>
<path d="M12.8535 32.0215H16.3701V37.023H12.8535V32.0215Z" fill="white"/>
<path d="M21.6055 32.0215H25.122V37.023H21.6055V32.0215Z" fill="white"/>
<path d="M12.8535 42.0252H16.3701V47.0267H12.8535V42.0252Z" fill="white"/>
<path d="M21.6055 42.0254H25.122V47.0269H21.6055V42.0254Z" fill="white"/>
<path d="M38.4102 22.0195H41.9267V27.0211H38.4102V22.0195Z" fill="white"/>
<path d="M38.4102 32.0234H41.9267V37.025H38.4102V32.0234Z" fill="white"/>
<path d="M46.5078 49.4102H50.0248V58.1631H46.5078V49.4102Z" fill="#5D4EB5"/>
<path d="M48.2664 53.591C44.0326 53.591 40.5879 50.1463 40.5879 45.9124C40.5879 41.6786 44.0326 38.2344 48.2664 38.2344C52.5003 38.2344 55.9445 41.6786 55.9445 45.9124C55.9445 50.1463 52.5003 53.591 48.2664 53.591Z" fill="#AE8FF7"/>
<path d="M55.8759 56.4824H30.8673L29.6172 58.7685L30.8673 59.9994H55.8759V56.4824Z" fill="#5D4EB5"/>
<path d="M4.10156 56.4824H30.8679V59.9994H4.10156V56.4824Z" fill="#5D4EB5"/>
</svg>
