<svg width="40" height="40" viewBox="0 0 40 40" fill="none" xmlns="http://www.w3.org/2000/svg">
<path fill-rule="evenodd" clip-rule="evenodd" d="M19.9999 4.17192C11.2585 4.17192 4.17216 11.2583 4.17216 19.9997C4.17216 28.7411 11.2585 35.8275 19.9999 35.8275C28.7413 35.8275 35.8278 28.7411 35.8278 19.9997C35.8278 11.2583 28.7413 4.17192 19.9999 4.17192ZM2.49438 19.9997C2.49438 10.3317 10.3319 2.49414 19.9999 2.49414C29.668 2.49414 37.5055 10.3317 37.5055 19.9997C37.5055 29.6677 29.668 37.5053 19.9999 37.5053C10.3319 37.5053 2.49438 29.6677 2.49438 19.9997Z" fill="#181818" stroke="#181818" stroke-width="0.6"/>
<path fill-rule="evenodd" clip-rule="evenodd" d="M32.3741 8.81133L8.81158 32.3739L7.62524 31.1875L31.1877 7.625L32.3741 8.81133Z" fill="#181818" stroke="#181818" stroke-width="0.6"/>
</svg>
