<svg width="50" height="53" viewBox="0 0 50 53" fill="none" xmlns="http://www.w3.org/2000/svg">
<g opacity="0.4">
<mask id="path-1-outside-1_91_14806" maskUnits="userSpaceOnUse" x="0" y="0" width="50" height="53" fill="black">
<rect fill="white" width="50" height="53"/>
<path d="M47.6 31.47V40.71H39.62V51H28.56V40.71H2.17V33.08L25.27 2H37.17L15.75 31.47H28.91V22.3H39.62V31.47H47.6Z"/>
</mask>
<path d="M47.6 31.47H48.35V30.72H47.6V31.47ZM47.6 40.71V41.46H48.35V40.71H47.6ZM39.62 40.71V39.96H38.87V40.71H39.62ZM39.62 51V51.75H40.37V51H39.62ZM28.56 51H27.81V51.75H28.56V51ZM28.56 40.71H29.31V39.96H28.56V40.71ZM2.17 40.71H1.42V41.46H2.17V40.71ZM2.17 33.08L1.56805 32.6326L1.42 32.8318V33.08H2.17ZM25.27 2V1.25H24.893L24.6681 1.5526L25.27 2ZM37.17 2L37.7767 2.44095L38.6423 1.25H37.17V2ZM15.75 31.47L15.1433 31.029L14.2777 32.22H15.75V31.47ZM28.91 31.47V32.22H29.66V31.47H28.91ZM28.91 22.3V21.55H28.16V22.3H28.91ZM39.62 22.3H40.37V21.55H39.62V22.3ZM39.62 31.47H38.87V32.22H39.62V31.47ZM47.6 30.72H45.605V32.22H47.6V30.72ZM41.615 30.72H39.62V32.22H41.615V30.72ZM40.37 31.47V30.3237H38.87V31.47H40.37ZM40.37 28.0312V25.7387H38.87V28.0312H40.37ZM40.37 23.4462V22.3H38.87V23.4462H40.37ZM39.62 21.55H38.2813V23.05H39.62V21.55ZM35.6038 21.55H32.9263V23.05H35.6038V21.55ZM30.2488 21.55H28.91V23.05H30.2488V21.55ZM28.16 22.3V23.4462H29.66V22.3H28.16ZM28.16 25.7387V28.0312H29.66V25.7387H28.16ZM28.16 30.3237V31.47H29.66V30.3237H28.16ZM28.91 30.72H27.265V32.22H28.91V30.72ZM23.975 30.72H20.685V32.22H23.975V30.72ZM17.395 30.72H15.75V32.22H17.395V30.72ZM16.3567 31.911L17.2492 30.683L16.0358 29.8011L15.1433 31.029L16.3567 31.911ZM19.0342 28.2272L20.8192 25.7714L19.6058 24.8895L17.8208 27.3453L19.0342 28.2272ZM22.6042 23.3155L24.3892 20.8597L23.1758 19.9778L21.3908 22.4336L22.6042 23.3155ZM26.1742 18.4039L27.9592 15.948L26.7458 15.0661L24.9608 17.522L26.1742 18.4039ZM29.7442 13.4922L31.5292 11.0364L30.3158 10.1545L28.5308 12.6103L29.7442 13.4922ZM33.3142 8.58054L35.0992 6.12471L33.8858 5.24279L32.1008 7.69863L33.3142 8.58054ZM36.8842 3.66887L37.7767 2.44095L36.5633 1.55904L35.6708 2.78696L36.8842 3.66887ZM37.17 1.25H35.6825V2.75H37.17V1.25ZM32.7075 1.25H29.7325V2.75H32.7075V1.25ZM26.7575 1.25H25.27V2.75H26.7575V1.25ZM24.6681 1.5526L23.7056 2.8476L24.9094 3.74239L25.8719 2.44739L24.6681 1.5526ZM21.7806 5.4376L19.8556 8.02761L21.0594 8.92239L22.9844 6.33239L21.7806 5.4376ZM17.9306 10.6176L16.0056 13.2076L17.2094 14.1024L19.1344 11.5124L17.9306 10.6176ZM14.0806 15.7976L12.1556 18.3876L13.3594 19.2824L15.2844 16.6924L14.0806 15.7976ZM10.2306 20.9776L8.30555 23.5676L9.50945 24.4624L11.4344 21.8724L10.2306 20.9776ZM6.38055 26.1576L4.45555 28.7476L5.65944 29.6424L7.58445 27.0524L6.38055 26.1576ZM2.53055 31.3376L1.56805 32.6326L2.77195 33.5274L3.73444 32.2324L2.53055 31.3376ZM1.42 33.08V34.9875H2.92V33.08H1.42ZM1.42 38.8025V40.71H2.92V38.8025H1.42ZM2.17 41.46H3.81938V39.96H2.17V41.46ZM7.11813 41.46H10.4169V39.96H7.11813V41.46ZM13.7156 41.46H17.0144V39.96H13.7156V41.46ZM20.3131 41.46H23.6119V39.96H20.3131V41.46ZM26.9106 41.46H28.56V39.96H26.9106V41.46ZM27.81 40.71V41.9963H29.31V40.71H27.81ZM27.81 44.5687V47.1413H29.31V44.5687H27.81ZM27.81 49.7138V51H29.31V49.7138H27.81ZM28.56 51.75H29.9425V50.25H28.56V51.75ZM32.7075 51.75H35.4725V50.25H32.7075V51.75ZM38.2375 51.75H39.62V50.25H38.2375V51.75ZM40.37 51V49.7138H38.87V51H40.37ZM40.37 47.1413V44.5688H38.87V47.1413H40.37ZM40.37 41.9963V40.71H38.87V41.9963H40.37ZM39.62 41.46H41.615V39.96H39.62V41.46ZM45.605 41.46H47.6V39.96H45.605V41.46ZM48.35 40.71V39.555H46.85V40.71H48.35ZM48.35 37.245V34.935H46.85V37.245H48.35ZM48.35 32.625V31.47H46.85V32.625H48.35ZM47.6 31.47H49.1V29.97H47.6V31.47ZM47.6 40.71V42.21H49.1V40.71H47.6ZM39.62 40.71V39.21H38.12V40.71H39.62ZM39.62 51V52.5H41.12V51H39.62ZM28.56 51H27.06V52.5H28.56V51ZM28.56 40.71H30.06V39.21H28.56V40.71ZM2.17 40.71H0.67V42.21H2.17V40.71ZM2.17 33.08L0.966107 32.1852L0.67 32.5836V33.08H2.17ZM25.27 2V0.499996H24.5159L24.0661 1.10521L25.27 2ZM37.17 2L38.3834 2.88191L40.1146 0.499996H37.17V2ZM15.75 31.47L14.5366 30.5881L12.8054 32.97H15.75V31.47ZM28.91 31.47V32.97H30.41V31.47H28.91ZM28.91 22.3V20.8H27.41V22.3H28.91ZM39.62 22.3H41.12V20.8H39.62V22.3ZM39.62 31.47H38.12V32.97H39.62V31.47ZM47.6 29.97H45.605V32.97H47.6V29.97ZM41.615 29.97H39.62V32.97H41.615V29.97ZM41.12 31.47V30.3237H38.12V31.47H41.12ZM41.12 28.0312V25.7387H38.12V28.0312H41.12ZM41.12 23.4462V22.3H38.12V23.4462H41.12ZM39.62 20.8H38.2813V23.8H39.62V20.8ZM35.6038 20.8H32.9263V23.8H35.6038V20.8ZM30.2488 20.8H28.91V23.8H30.2488V20.8ZM27.41 22.3V23.4462H30.41V22.3H27.41ZM27.41 25.7387V28.0312H30.41V25.7387H27.41ZM27.41 30.3237V31.47H30.41V30.3237H27.41ZM28.91 29.97H27.265V32.97H28.91V29.97ZM23.975 29.97H20.685V32.97H23.975V29.97ZM17.395 29.97H15.75V32.97H17.395V29.97ZM16.9634 32.3519L17.8559 31.124L15.4291 29.3602L14.5366 30.5881L16.9634 32.3519ZM19.6409 28.6682L21.4259 26.2123L18.9991 24.4485L17.2141 26.9043L19.6409 28.6682ZM23.2109 23.7565L24.9959 21.3007L22.5691 19.5368L20.7841 21.9927L23.2109 23.7565ZM26.7809 18.8448L28.5659 16.389L26.1391 14.6252L24.3541 17.081L26.7809 18.8448ZM30.3509 13.9332L32.1359 11.4773L29.7091 9.7135L27.9241 12.1693L30.3509 13.9332ZM33.9209 9.0215L35.7059 6.56566L33.2791 4.80184L31.4941 7.25767L33.9209 9.0215ZM37.4909 4.10983L38.3834 2.88191L35.9566 1.11808L35.0641 2.346L37.4909 4.10983ZM37.17 0.499996H35.6825V3.5H37.17V0.499996ZM32.7075 0.499996H29.7325V3.5H32.7075V0.499996ZM26.7575 0.499996H25.27V3.5H26.7575V0.499996ZM24.0661 1.10521L23.1036 2.40021L25.5114 4.18978L26.4739 2.89478L24.0661 1.10521ZM21.1786 4.99021L19.2536 7.58021L21.6614 9.36978L23.5864 6.77978L21.1786 4.99021ZM17.3286 10.1702L15.4036 12.7602L17.8114 14.5498L19.7364 11.9598L17.3286 10.1702ZM13.4786 15.3502L11.5536 17.9402L13.9614 19.7298L15.8864 17.1398L13.4786 15.3502ZM9.62861 20.5302L7.70361 23.1202L10.1114 24.9098L12.0364 22.3198L9.62861 20.5302ZM5.77861 25.7102L3.8536 28.3002L6.26139 30.0898L8.18639 27.4998L5.77861 25.7102ZM1.9286 30.8902L0.966107 32.1852L3.37389 33.9748L4.33639 32.6798L1.9286 30.8902ZM0.67 33.08V34.9875H3.67V33.08H0.67ZM0.67 38.8025V40.71H3.67V38.8025H0.67ZM2.17 42.21H3.81938V39.21H2.17V42.21ZM7.11813 42.21H10.4169V39.21H7.11813V42.21ZM13.7156 42.21H17.0144V39.21H13.7156V42.21ZM20.3131 42.21H23.6119V39.21H20.3131V42.21ZM26.9106 42.21H28.56V39.21H26.9106V42.21ZM27.06 40.71V41.9963H30.06V40.71H27.06ZM27.06 44.5687V47.1413H30.06V44.5687H27.06ZM27.06 49.7138V51H30.06V49.7138H27.06ZM28.56 52.5H29.9425V49.5H28.56V52.5ZM32.7075 52.5H35.4725V49.5H32.7075V52.5ZM38.2375 52.5H39.62V49.5H38.2375V52.5ZM41.12 51V49.7138H38.12V51H41.12ZM41.12 47.1413V44.5688H38.12V47.1413H41.12ZM41.12 41.9963V40.71H38.12V41.9963H41.12ZM39.62 42.21H41.615V39.21H39.62V42.21ZM45.605 42.21H47.6V39.21H45.605V42.21ZM49.1 40.71V39.555H46.1V40.71H49.1ZM49.1 37.245V34.935H46.1V37.245H49.1ZM49.1 32.625V31.47H46.1V32.625H49.1Z" fill="#7732EF" mask="url(#path-1-outside-1_91_14806)"/>
</g>
</svg>
