<svg width="230" height="213" viewBox="0 0 230 213" fill="none" xmlns="http://www.w3.org/2000/svg">
<path opacity="0.2" d="M226.733 116.384C224.981 87.6055 207.207 64.5761 177.583 63.4546C168.823 63.1229 160.212 64.8325 152.03 67.9601C141.429 72.0123 132.252 79.2181 121.374 82.6068C106.206 87.3319 90.7469 85.7384 75.1313 86.119C64.4841 86.3785 53.6778 87.5889 43.8694 91.8105C2.87482 109.455 10.4291 163.201 23.704 197.849C24.3475 199.529 25.7236 201.775 26.4189 203.437L205.104 203.328C219.386 176.685 228.484 145.153 226.733 116.384Z" fill="#D9C9FF"/>
<path opacity="0.2" d="M0.145806 103.073C1.89742 74.294 19.6718 51.2645 49.2954 50.143C58.0549 49.8114 66.6659 51.521 74.848 54.6486C85.4489 58.7008 94.6262 65.9065 105.504 69.2953C120.672 74.0204 136.132 72.4268 151.747 72.8075C162.394 73.0669 173.201 74.2774 183.009 78.499C224.004 96.1436 227.473 148.059 214.198 182.708C213.555 184.387 204.713 203.488 204.017 205.15L26.9965 204.263C12.7149 177.619 -1.60523 131.842 0.145806 103.073Z" fill="#D9C9FF"/>
<path d="M150.08 94.2834C149.478 93.6093 149.204 93.1533 149.251 92.2327C149.361 90.0365 151.077 87.7245 152.675 86.3186C153.161 85.8907 153.686 85.4966 154.209 85.1145C154.208 87.8396 154.219 91.4277 152.126 93.4835C151.593 94.0064 151.036 94.3033 150.319 94.4915L150.08 94.2834Z" fill="#D9C9FF"/>
<path d="M145.753 78.8416C147.63 81.5277 149.838 85.6564 149.248 89.0498C149.045 90.2131 148.289 90.5446 147.809 91.4763L147.701 91.4951C147.688 91.4806 147.675 91.4656 147.661 91.4515C147.317 91.0932 146.816 90.9412 146.479 90.5887C145.238 89.2916 145.012 86.7332 145.021 85.0083C145.031 82.93 145.4 80.8829 145.753 78.8416Z" fill="#D9C9FF"/>
<path d="M147.701 91.4952L147.809 91.4763C148.654 93.2866 148.745 95.719 149 97.6844C149.347 96.6454 149.604 95.2139 150.08 94.2834L150.32 94.4916C149.994 95.2079 149.064 97.7533 149.303 98.4563C149.353 98.6015 149.426 98.624 149.565 98.6806C150.498 99.0587 154.299 98.8108 155.557 98.7944C155.061 102.928 154.859 107.098 154.349 111.225C153.167 111.197 145.744 111.404 145.277 111.151C145.237 111.129 145.199 111.104 145.159 111.081L145.035 111.166C144.688 107.056 144.449 102.925 144.154 98.81L148.999 98.8075C148.468 96.3873 148.036 93.9498 147.701 91.4952Z" fill="#6A44C5"/>
<g opacity="0.7">
<path d="M191.463 44.7732C200.183 58.2734 205.242 74.342 205.242 91.5873C205.242 109.293 199.91 125.758 190.757 139.477" stroke="#D9C9FF" stroke-width="3" stroke-linecap="round" stroke-linejoin="round"/>
<path d="M69.7324 19.6532C83.5918 10.3642 100.282 4.94312 118.244 4.94312C137.664 4.94312 155.598 11.2804 170.075 21.9919" stroke="#D9C9FF" stroke-width="3" stroke-linecap="round" stroke-linejoin="round"/>
<path d="M38.9086 127.196C33.9856 116.333 31.2456 104.279 31.2456 91.5872C31.2456 73.6426 36.7231 56.9721 46.1035 43.1436" stroke="#D9C9FF" stroke-width="3" stroke-linecap="round" stroke-linejoin="round"/>
</g>
<path d="M55.3553 13.3704C49.4623 13.3704 44.6655 17.9884 44.6655 23.6648C44.6655 27.352 46.1694 29.5442 47.2648 31.1444C47.9509 32.1479 48.3378 32.7408 48.3378 33.3338C48.3378 34.6678 49.0537 35.93 50.3315 36.8711C50.3641 37.6642 50.4811 39.5948 50.4811 39.5948C50.496 40.1263 50.7773 41.2677 52.6906 41.9005C52.9167 42.2273 53.2084 42.5187 53.5663 42.7588C53.7888 42.9078 54.0524 42.9878 54.3225 42.9878H56.389C56.6592 42.9878 56.9217 42.9078 57.1442 42.7588C57.5022 42.5186 57.7939 42.2273 58.0172 41.9005C59.9193 41.2713 60.2081 40.1478 60.2296 39.5986V39.5948C60.2296 39.5948 60.3464 37.6643 60.3791 36.8711C61.6568 35.9263 62.3727 34.6678 62.3727 33.3338C62.3727 32.737 62.7597 32.1479 63.4392 31.1556C64.545 29.5406 66.046 27.3483 66.046 23.6648C66.046 17.9885 61.2485 13.3704 55.3553 13.3704ZM49.5061 29.639C48.4986 28.1701 47.3667 26.5188 47.3667 23.6647C47.3667 19.472 50.9484 16.0614 55.3552 16.0614C59.7585 16.0651 63.3402 19.4758 63.3402 23.6647C63.3402 26.5151 62.212 28.1664 61.2156 29.6242C60.4155 30.7916 59.6706 31.8788 59.6706 33.3337C59.6706 33.9732 59.0901 34.4861 58.6593 34.784H52.0512C51.6203 34.4861 51.0399 33.9732 51.0399 33.3337C51.0399 31.8788 50.295 30.7916 49.5061 29.639Z" fill="#D9C9FF"/>
<path d="M56.7133 23.0331C56.7573 22.7054 56.7974 22.3749 56.7974 22.0697V19.6875C56.7974 18.6404 56.1992 18.1096 55.1692 18.1096C54.1402 18.1096 53.541 18.6403 53.541 19.6875V22.0697C53.541 22.3749 53.585 22.7054 53.6252 23.0331L54.2636 27.8326C54.344 28.4294 54.6365 28.5931 55.1692 28.5931C55.7057 28.5931 55.9945 28.4293 56.0749 27.8326L56.7133 23.0331Z" fill="#AE8FF7"/>
<path d="M55.1694 29.927C54.2422 29.927 53.4795 30.6837 53.4795 31.6072C53.4795 32.5307 54.2422 33.2912 55.1694 33.2912C56.0966 33.2912 56.8603 32.5308 56.8603 31.6072C56.8603 30.6836 56.0966 29.927 55.1694 29.927Z" fill="#AE8FF7"/>
<path d="M169.289 35.626V40.092C169.289 40.3638 169.511 40.5901 169.789 40.5901H173.256C173.529 40.5901 173.756 40.3696 173.756 40.092V32.2356L171.239 34.7429C170.704 35.2695 170.022 35.5751 169.289 35.626Z" fill="#D9C9FF"/>
<path d="M175.484 32.1787V40.0919C175.484 40.3637 175.706 40.59 175.984 40.59H179.451C179.724 40.59 179.952 40.3695 179.952 40.0919V35.4335C179.161 35.4167 178.423 35.1051 177.866 34.5504L175.484 32.1787Z" fill="#D9C9FF"/>
<path d="M181.679 34.9408V40.0917C181.679 40.3635 181.901 40.5898 182.179 40.5898H185.646C185.919 40.5898 186.146 40.3693 186.146 40.0917V30.5879L182.174 34.5446C182.02 34.6975 181.855 34.8277 181.679 34.9408Z" fill="#D9C9FF"/>
<path d="M192.006 24.7466L187.875 28.8617V40.0917C187.875 40.3635 188.096 40.5898 188.375 40.5898H191.842C192.114 40.5898 192.342 40.3694 192.342 40.0917V25.0578C192.228 24.9616 192.143 24.8768 192.08 24.8201L192.006 24.7466Z" fill="#D9C9FF"/>
<path d="M196.995 15.5362C196.83 15.3607 196.58 15.27 196.262 15.27H196.171C194.557 15.3436 192.949 15.4229 191.334 15.4964C191.118 15.5078 190.823 15.5191 190.59 15.7513C190.516 15.8248 190.459 15.9097 190.414 16.0116C190.175 16.5268 190.51 16.8606 190.669 17.0191L191.073 17.4267C191.351 17.7097 191.636 17.9928 191.92 18.2699L191.265 18.9225L188.252 21.65C188.262 21.6568 188.28 21.6552 188.293 21.6593L180.014 29.909L175.632 25.5446C175.371 25.2843 175.018 25.1372 174.643 25.1372C174.268 25.1372 173.921 25.2842 173.66 25.5446L167.823 31.3523C167.277 31.8956 167.277 32.7729 167.823 33.3166L168.084 33.577C168.346 33.8373 168.698 33.9843 169.073 33.9843C169.448 33.9843 169.795 33.8373 170.056 33.577L174.643 29.0089L179.025 33.373C179.287 33.6333 179.639 33.7806 180.014 33.7806C180.389 33.7806 180.736 33.6333 181.003 33.373L190.306 24.1074C190.308 24.109 190.307 24.1126 190.309 24.1141L194.159 20.4946L195.404 21.7286C195.552 21.8756 195.756 22.0794 196.068 22.0794C196.199 22.0794 196.33 22.0457 196.466 21.9719C196.558 21.9209 196.637 21.8643 196.705 21.7963C196.95 21.5532 196.995 21.2416 197.006 20.9984C197.052 19.9567 197.103 18.9154 197.154 17.8681L197.228 16.3002C197.245 15.9722 197.171 15.7172 196.995 15.5362Z" fill="#AE8FF7"/>
<path d="M118.966 181.435L123.188 181.929L124.988 178.297L122.027 175.259L122.238 172.075L125.574 169.45L124.268 165.614L120.017 165.552L117.906 163.152L118.401 158.947L114.754 157.154L111.704 160.103L108.507 159.893L105.872 156.57L102.02 157.871L101.957 162.104L99.5471 164.207L95.3247 163.714L93.5246 167.346L96.4859 170.384L96.2751 173.568L92.939 176.192L94.2446 180.028L98.4956 180.091L100.607 182.491L100.112 186.696L103.759 188.489L106.809 185.54L110.006 185.75L112.641 189.073L116.493 187.772L116.556 183.538L118.966 181.435ZM115.048 179.404C111.398 182.589 105.846 182.225 102.648 178.589C99.4489 174.954 99.815 169.425 103.465 166.239C107.115 163.054 112.667 163.419 115.865 167.054C119.064 170.689 118.698 176.218 115.048 179.404Z" fill="white"/>
<path d="M85.1473 173.191C82.9935 175.07 79.7174 174.855 77.83 172.71C75.9426 170.565 76.1586 167.302 78.3125 165.423C80.4663 163.543 83.7424 163.758 85.6297 165.903C87.5172 168.048 87.3012 171.311 85.1473 173.191Z" fill="#FFD34C"/>
<path d="M143.125 174.389L145.616 174.681L146.679 172.537L144.931 170.745L145.055 168.866L147.024 167.317L146.254 165.054L143.745 165.017L142.499 163.6L142.792 161.119L140.64 160.061L138.84 161.801L136.953 161.677L135.398 159.717L133.125 160.484L133.088 162.982L131.666 164.223L129.174 163.932L128.112 166.075L129.86 167.868L129.735 169.747L127.767 171.296L128.537 173.559L131.045 173.596L132.291 175.012L131.999 177.494L134.151 178.552L135.951 176.811L137.838 176.935L139.393 178.896L141.666 178.129L141.703 175.63L143.125 174.389ZM140.813 173.19C138.659 175.07 135.383 174.855 133.496 172.71C131.608 170.565 131.824 167.302 133.978 165.422C136.132 163.543 139.408 163.758 141.295 165.903C143.183 168.048 142.967 171.311 140.813 173.19Z" fill="#FFD34C"/>
<path d="M141.982 19.5889H93.9541V87.3987H141.982V19.5889Z" fill="#F0EBFF"/>
<g style="mix-blend-mode:multiply">
<path d="M131.435 34.5015H97.3442V36.5648H131.435V34.5015Z" fill="#BFBFF5"/>
</g>
<path d="M127.432 25.4038H105.113V27.4672H127.432V25.4038Z" fill="#BFBFF5"/>
<g style="mix-blend-mode:multiply">
<path d="M138.404 39.1909H97.3442V41.2543H138.404V39.1909Z" fill="#BFBFF5"/>
</g>
<g style="mix-blend-mode:multiply">
<path d="M138.404 43.8804H97.3442V45.9438H138.404V43.8804Z" fill="#BFBFF5"/>
</g>
<g style="mix-blend-mode:multiply">
<path d="M138.404 48.5698H97.3442V50.6332H138.404V48.5698Z" fill="#BFBFF5"/>
</g>
<g style="mix-blend-mode:multiply">
<path d="M138.404 53.2595H97.3442V55.3229H138.404V53.2595Z" fill="#BFBFF5"/>
</g>
<g style="mix-blend-mode:multiply">
<path d="M138.404 57.9487H97.3442V60.0121H138.404V57.9487Z" fill="#BFBFF5"/>
</g>
<g style="mix-blend-mode:multiply">
<path d="M138.404 63.0134H97.3442V65.0768H138.404V63.0134Z" fill="#BFBFF5"/>
</g>
<path d="M112.789 82.6389H97.3442V83.3893H112.789V82.6389Z" fill="#BFBFF5"/>
<path d="M137.933 82.6389H122.488V83.3893H137.933V82.6389Z" fill="#BFBFF5"/>
<path d="M138.097 37.3621L135.861 36.2161L133.624 37.3621V28.6631H138.097V37.3621Z" fill="#D9C9FF"/>
<path d="M131.058 26.1543C131.058 25.6982 131.945 25.3875 132.079 24.9761C132.218 24.5496 131.689 23.7799 131.948 23.425C132.21 23.0665 133.111 23.3314 133.471 23.0706C133.827 22.8122 133.851 21.8763 134.279 21.7378C134.692 21.6043 135.262 22.3432 135.72 22.3432C136.177 22.3432 136.747 21.6043 137.161 21.7378C137.589 21.8763 137.612 22.8123 137.969 23.0706C138.329 23.3315 139.229 23.0666 139.491 23.4251C139.75 23.78 139.221 24.5498 139.36 24.9762C139.494 25.3877 140.381 25.6984 140.381 26.1543C140.381 26.6103 139.494 26.9211 139.36 27.3325C139.221 27.759 139.75 28.5287 139.491 28.8836C139.229 29.2421 138.329 28.9772 137.969 29.238C137.612 29.4964 137.589 30.4323 137.161 30.5708C136.747 30.7043 136.178 29.9654 135.72 29.9654C135.262 29.9654 134.692 30.7043 134.279 30.5708C133.851 30.4323 133.827 29.4963 133.471 29.238C133.111 28.9771 132.21 29.242 131.948 28.8835C131.689 28.5286 132.218 27.7588 132.079 27.3324C131.945 26.9209 131.058 26.6102 131.058 26.1543Z" fill="#6A44C5"/>
<path d="M135.72 29.2376C134.012 29.2376 132.624 27.8544 132.624 26.1542C132.624 24.4541 134.012 23.0708 135.72 23.0708C137.427 23.0708 138.816 24.4541 138.816 26.1542C138.816 27.8544 137.427 29.2376 135.72 29.2376ZM135.72 23.7464C134.387 23.7464 133.302 24.8264 133.302 26.1541C133.302 27.4819 134.387 28.5619 135.72 28.5619C137.053 28.5619 138.137 27.4819 138.137 26.1541C138.137 24.8264 137.053 23.7464 135.72 23.7464Z" fill="#E2E2E2"/>
<g opacity="0.2">
<path fill-rule="evenodd" clip-rule="evenodd" d="M114.663 191.123C167.987 191.123 211.216 195.934 211.216 201.869C211.216 207.804 167.987 212.618 114.663 212.618C61.3394 212.618 18.1108 207.806 18.1108 201.869C18.1108 195.933 61.3399 191.123 114.663 191.123Z" fill="#D9C9FF"/>
</g>
<path d="M103.722 102.868C104.203 102.762 104.632 102.662 105.234 102.64C106.499 102.593 107.177 102.972 109.126 102.556C110.476 102.268 113.682 101.599 115.196 98.9676C116.827 96.1335 116.118 91.9159 114.406 91.1985C114.008 91.0317 113.627 91.0843 113.538 91.0984C112.034 91.3376 112.063 93.5928 110.286 95.1103C108.837 96.3478 106.727 96.6341 106.31 96.074C105.885 95.5014 107.437 94.3007 107.028 92.5453C106.927 92.1072 106.599 91.1632 106.093 91.1153C104.99 91.0107 105.195 95.8541 102.134 97.7743C100.377 98.8766 98.9402 98.1524 98.3698 99.2339C97.6016 100.69 99.3448 103.639 100.93 103.749C101.619 103.797 101.864 103.279 103.722 102.868Z" fill="#FFCDAD"/>
<path d="M123.359 100.425C122.451 101.119 121.625 100.263 118.901 100.419C117.714 100.487 116.745 100.707 115.713 100.94C113.558 101.428 113.328 101.762 112.224 101.765C111.752 101.766 110.298 101.71 108.919 100.767C107.489 99.7892 106.381 98.0243 106.404 96.1C106.438 93.289 108.881 90.7117 111.208 90.4925C114.27 90.204 114.881 94.1722 120.074 95.4194C121.954 95.8711 123.369 95.7005 124.048 96.8027C124.702 97.8636 124.367 99.656 123.359 100.425Z" fill="#FFCDAD"/>
<path d="M106.073 96.4444C106.019 96.4702 105.963 96.4806 105.902 96.4739C105.795 96.462 105.629 96.39 105.417 95.9031C104.73 94.327 105.312 92.5074 105.719 91.563L105.846 91.6172C105.447 92.5413 104.877 94.3198 105.543 95.8485C105.637 96.063 105.777 96.3219 105.917 96.3374C106.166 96.3654 106.377 95.8087 106.621 95.1641C106.964 94.2602 107.434 93.0223 108.368 92.3632C109.474 91.5815 111.214 91.6457 113.539 92.5519L113.489 92.6798C111.209 91.7916 109.514 91.7229 108.447 92.4753C107.548 93.11 107.087 94.3253 106.75 95.2127C106.513 95.8381 106.33 96.3198 106.073 96.4444Z" fill="#F9B28A"/>
<path d="M106.178 96.6608C106.085 96.7059 105.983 96.7226 105.875 96.7105C105.608 96.6806 105.399 96.4607 105.197 95.9978C104.475 94.3403 105.077 92.4487 105.499 91.4687C105.566 91.3135 105.748 91.2414 105.904 91.308C106.06 91.3749 106.132 91.5556 106.065 91.7109C105.682 92.5997 105.132 94.3069 105.763 95.7538C105.849 95.9516 105.914 96.0436 105.948 96.0837C106.066 95.9533 106.304 95.3271 106.398 95.08C106.752 94.1473 107.236 92.8699 108.229 92.1691C109.405 91.3383 111.221 91.3929 113.626 92.3299C113.702 92.3597 113.763 92.4175 113.796 92.4925C113.829 92.5675 113.83 92.651 113.8 92.7272C113.738 92.8849 113.559 92.9627 113.401 92.9012C111.202 92.0442 109.581 91.966 108.585 92.6695C107.746 93.2622 107.318 94.3904 106.974 95.2968C106.719 95.9672 106.518 96.4962 106.178 96.6608ZM105.708 91.4376C105.672 91.4548 105.643 91.4842 105.626 91.523C105.212 92.4826 104.622 94.333 105.324 95.9432C105.504 96.3557 105.678 96.5503 105.89 96.5741C105.973 96.5833 106.047 96.5713 106.118 96.5373C106.409 96.3965 106.601 95.8901 106.845 95.249C107.195 94.3244 107.632 93.1746 108.506 92.5576C109.542 91.8253 111.206 91.8985 113.452 92.7735C113.539 92.8074 113.638 92.7642 113.672 92.6774C113.688 92.6352 113.687 92.5892 113.669 92.5477C113.651 92.5063 113.618 92.4744 113.576 92.458C111.217 91.5389 109.445 91.4794 108.309 92.2812C107.35 92.9579 106.874 94.2125 106.527 95.1287C106.26 95.8317 106.1 96.1958 105.961 96.2368L105.934 96.2448L105.91 96.2316C105.882 96.2172 105.782 96.1443 105.636 95.8086C104.985 94.3144 105.546 92.566 105.939 91.6569C105.976 91.5711 105.936 91.4712 105.849 91.4343C105.802 91.4142 105.751 91.4169 105.708 91.4376Z" fill="#F9B28A"/>
<path d="M115.519 97.1139C114.412 97.6492 111.928 97.4524 111.061 97.3628L111.075 97.2263C113.221 97.4479 115.614 97.3931 115.898 96.5745C115.971 96.3627 115.892 96.141 115.875 96.0987C115.621 95.4548 114.421 95.1528 112.818 95.3297L112.803 95.1932C114.495 95.0065 115.721 95.3343 116.003 96.0486C116.023 96.0988 116.117 96.3619 116.028 96.6192C115.955 96.8295 115.773 96.9911 115.519 97.1139Z" fill="#F9B28A"/>
<path d="M115.616 97.3316C114.572 97.8364 112.55 97.756 111.036 97.5998C110.868 97.5823 110.744 97.4313 110.762 97.2629C110.77 97.1817 110.81 97.1085 110.874 97.0568C110.938 97.0047 111.018 96.9812 111.1 96.9896C113.602 97.248 115.483 97.0456 115.671 96.4969C115.71 96.3866 115.676 96.2451 115.653 96.1856C115.445 95.6615 114.291 95.4068 112.844 95.5665C112.676 95.585 112.523 95.4633 112.504 95.2954C112.486 95.1275 112.608 94.9756 112.776 94.9568C114.608 94.7547 115.897 95.1304 116.226 95.9615C116.261 96.0513 116.367 96.3692 116.254 96.6969C116.164 96.957 115.949 97.1707 115.616 97.3316ZM110.994 97.1421C110.982 97.1478 110.971 97.1548 110.961 97.1632C110.926 97.1918 110.904 97.2322 110.899 97.2769C110.889 97.37 110.957 97.4535 111.051 97.4632C112.275 97.5896 114.488 97.7246 115.556 97.2081C115.855 97.0637 116.046 96.8765 116.124 96.6521C116.222 96.3688 116.128 96.0903 116.098 96.0117C115.793 95.2418 114.557 94.8983 112.792 95.0932C112.699 95.1036 112.631 95.1875 112.641 95.2804C112.652 95.3731 112.736 95.4403 112.829 95.43C114.385 95.2583 115.544 95.5352 115.781 96.1356C115.79 96.1582 115.865 96.3599 115.802 96.5418C115.584 97.1704 113.733 97.3997 111.086 97.1263C111.054 97.123 111.022 97.1284 110.994 97.1421Z" fill="#F9B28A"/>
<path d="M113.601 99.1521C112.494 99.6874 110.01 99.4905 109.143 99.4009L109.157 99.2643C111.302 99.4861 113.696 99.4313 113.979 98.6125C114.052 98.4007 113.973 98.1791 113.957 98.1368C113.702 97.4929 112.502 97.191 110.899 97.3678L110.884 97.2313C112.576 97.0446 113.803 97.3724 114.085 98.0867C114.105 98.1369 114.199 98.4 114.109 98.6572C114.037 98.8676 113.855 99.0292 113.601 99.1521Z" fill="#F9B28A"/>
<path d="M113.698 99.369C112.655 99.8735 110.632 99.7936 109.118 99.6378C108.949 99.6203 108.826 99.4692 108.843 99.3011C108.852 99.2197 108.892 99.1463 108.956 99.0947C109.019 99.0433 109.1 99.0193 109.182 99.0278C111.684 99.2852 113.564 99.0826 113.753 98.535C113.791 98.4246 113.757 98.2831 113.734 98.2237C113.527 97.6996 112.372 97.4449 110.926 97.6046C110.757 97.6231 110.604 97.5014 110.586 97.3334C110.567 97.1654 110.689 97.0136 110.858 96.9949C112.689 96.7927 113.979 97.1685 114.307 97.9996C114.343 98.0893 114.449 98.4071 114.335 98.7349C114.245 98.9948 114.031 99.2082 113.698 99.369ZM109.076 99.1801C109.064 99.1858 109.053 99.1929 109.042 99.2012C109.007 99.2298 108.985 99.2702 108.981 99.3152C108.971 99.4081 109.039 99.4916 109.132 99.5012C110.357 99.6273 112.57 99.7617 113.638 99.2455C113.937 99.1012 114.128 98.9142 114.205 98.6902C114.303 98.4066 114.21 98.1283 114.179 98.0498C113.875 97.2799 112.639 96.9364 110.873 97.1313C110.78 97.1411 110.713 97.2256 110.723 97.3183C110.733 97.4111 110.818 97.4783 110.911 97.4681C112.467 97.2964 113.625 97.5733 113.862 98.1737C113.871 98.1962 113.947 98.3977 113.884 98.5797C113.666 99.2072 111.815 99.4369 109.167 99.1643C109.135 99.1609 109.104 99.1665 109.076 99.1801Z" fill="#F9B28A"/>
<path d="M201.923 159.396C204.787 159.396 209.02 158.732 213.209 155.645C217.54 152.453 219.648 148.048 221.28 143.764C226.175 130.917 228.714 115.913 229.982 105.588C230.144 104.263 229.198 103.058 227.867 102.896C226.537 102.733 225.327 103.677 225.164 105.001C223.929 115.061 221.465 129.655 216.743 142.049C215.467 145.398 213.813 149.187 210.321 151.76C206.476 154.594 202.615 154.694 200.656 154.501L200.542 154.49L200.428 154.49L164.054 154.326H164.043C162.708 154.326 161.623 155.401 161.617 156.732C161.611 158.067 162.692 159.154 164.032 159.16L200.297 159.323C200.768 159.366 201.315 159.396 201.923 159.396Z" fill="#D9C9FF"/>
<path d="M165.706 147.036H202.811C204.965 147.036 206.711 148.775 206.711 150.92C206.711 153.065 204.965 154.804 202.811 154.804H165.706C163.552 154.804 161.806 153.065 161.806 150.92C161.806 148.775 163.552 147.036 165.706 147.036Z" fill="#936FE9"/>
<path d="M214.943 126.71L221.402 101.578C221.777 100.119 223.445 99.2843 225.129 99.7134C226.812 100.142 227.872 101.673 227.497 103.132L221.038 128.264C220.664 129.723 218.995 130.558 217.312 130.129C215.629 129.7 214.568 128.169 214.943 126.71Z" fill="#936FE9"/>
<path d="M192.324 156.658C191.743 171.574 191.161 186.491 190.579 201.407C188.914 201.175 187.25 200.943 185.585 200.711C185.337 186.389 185.088 172.066 184.839 157.744C187.334 157.382 189.829 157.02 192.324 156.658Z" fill="#D9C9FF"/>
<path d="M175.852 203.277H201.312C201.605 203.277 201.842 203.041 201.842 202.749V197.279C201.842 196.988 201.605 196.752 201.312 196.752H175.852C175.559 196.752 175.322 196.988 175.322 197.279V202.749C175.322 203.041 175.559 203.277 175.852 203.277Z" fill="#D9C9FF"/>
<path d="M185.059 76.0655C177.511 74.3048 171.053 84.9119 162.199 90.9161C154.925 95.8488 142.28 100.215 119.143 95.1484C118.777 95.4079 117.693 96.2473 117.196 97.7852C116.679 99.3885 117.133 100.722 117.287 101.123C124.635 104.596 145.906 113.358 166.629 104.924C178.24 100.199 192.962 88.5293 190.828 81.0658C190.116 78.576 187.554 76.6474 185.059 76.0655Z" fill="#936FE9"/>
<path d="M129.687 174.067C123.827 175.197 120.011 171.724 117.903 173.764C116.94 174.696 116.827 176.302 117.056 177.356C118.466 183.834 136.867 188.099 140.711 182.981C143.061 179.854 140.431 172.614 136.905 171.593C134.696 170.954 133.874 173.26 129.687 174.067Z" fill="#153663"/>
<path d="M150.302 193.155C145.209 196.254 140.414 194.33 139.156 196.976C138.582 198.185 139.04 199.728 139.624 200.636C143.219 206.214 161.957 203.799 163.761 197.666C164.863 193.918 159.857 188.051 156.196 188.323C153.901 188.493 153.941 190.94 150.302 193.155Z" fill="#263238"/>
<path d="M206.301 144.535C205.91 145.199 203.26 149.553 197.519 150.959C186.005 153.778 176.785 141.136 166.44 141.006C159.111 140.914 149.56 147.08 140.501 175.746C140.214 175.816 137.825 176.354 135.531 174.853C133.402 173.46 133.011 170.902 132.835 169.81C131.853 163.715 133.899 128.496 156.362 124.997C160.839 124.3 167.778 124.606 173.984 125.717C179.976 126.789 180.192 127.701 185.573 128.586C197.592 130.561 202.115 126.627 205.541 129.959C209.326 133.642 208.743 140.383 206.301 144.535Z" fill="#5D3FBC"/>
<path d="M208.349 135.524C208.38 136.111 208.747 145.379 202.961 149.805C193.911 156.728 180.406 143.694 170.457 148.343C164.753 151.008 158.907 160.101 160.832 190.56C160.597 190.74 158.631 192.193 155.923 191.744C153.41 191.327 152.015 189.145 151.411 188.216C148.039 183.037 135.616 150 154.742 137.757C158.554 135.317 165.025 132.803 171.152 131.321C177.068 129.89 177.636 130.637 182.917 129.28C194.712 126.249 197.253 120.829 201.738 122.498C206.214 124.163 208.133 131.423 208.349 135.524Z" fill="#6A44C5"/>
<path d="M206.401 108.085C206.398 108.758 206.386 109.443 206.369 110.142C206.257 114.746 205.865 119.892 205.032 125.53C202.577 126.824 197.865 128.888 191.605 129.095C186.265 129.271 182.033 128.021 179.554 127.078C179.679 124.521 179.748 122.299 179.767 120.366V120.364C179.843 113.371 179.301 110.159 178.692 108.574C178.593 108.318 178.04 106.758 177.209 104.489V104.487C177.032 104.008 176.844 103.498 176.644 102.961C176.378 102.241 176.089 101.389 175.767 100.298C174.417 95.7162 173.379 92.1897 173.955 87.7749C174.257 85.4511 174.826 81.0969 178.483 77.6026C180.208 75.9548 182.111 74.9852 183.811 74.4132C183.865 74.3962 183.918 74.3772 183.969 74.3621C186.314 73.6007 188.246 73.5969 188.744 73.6026C189.355 73.6102 189.942 73.6556 190.507 73.7314C191.333 73.845 192.108 74.025 192.833 74.2504C193.833 74.5629 194.738 74.9644 195.541 75.4019C197.69 76.5647 199.11 77.97 199.7 78.5552C201.242 80.0817 202.356 81.7692 203.184 83.6177C204.462 86.4623 205.066 89.6934 205.532 93.3316C206.027 97.1858 206.443 102.144 206.401 108.085Z" fill="#936FE9"/>
<path d="M190.994 116.431C192.66 111.303 192.845 107.125 192.563 103.933C192.16 99.3793 190.466 92.9885 193.28 87.4717C193.539 86.9601 193.839 86.4562 194.181 85.9626C194.655 85.2824 195.105 84.7677 195.407 84.4456C198.672 87.5549 201.939 90.6655 205.204 93.7748C204.41 96.7891 202.848 99.6842 200.921 102.81C198.648 106.497 195.442 111.189 190.994 116.431Z" fill="#6A44C5"/>
<path d="M178.834 141.049C178.406 141.292 178.02 141.506 177.56 141.892C176.593 142.705 176.346 143.44 174.623 144.437C173.429 145.128 170.605 146.78 167.707 145.846C164.587 144.84 162.263 141.244 163.047 139.566C163.229 139.176 163.546 138.96 163.621 138.911C164.897 138.081 166.398 139.769 168.737 139.703C170.645 139.649 172.4 138.447 172.331 137.754C172.259 137.045 170.3 137.195 169.417 135.623C169.196 135.23 168.801 134.312 169.143 133.938C169.889 133.122 173.008 136.844 176.57 136.215C178.615 135.854 179.189 134.356 180.341 134.775C181.893 135.338 182.594 138.688 181.495 139.831C181.017 140.328 180.486 140.109 178.834 141.049Z" fill="#FFCDAD"/>
<path d="M179.757 141.518C179.265 141.209 178.047 140.35 177.354 138.725C176.873 137.594 176.852 136.578 176.883 136.008C181.618 131.877 185.071 127.928 187.58 124.23C189.853 120.877 191.349 117.732 192.313 114.849C193.148 112.365 193.587 110.077 193.792 108.014C194.554 100.31 192.405 92.7671 193.28 87.4717C193.613 85.442 194.392 83.7442 195.946 82.4906C195.957 82.4827 195.968 82.4721 195.98 82.4641C196.241 82.2554 196.525 82.0577 196.829 81.8781C197.046 81.7455 197.273 81.624 197.508 81.511C198.859 80.86 200.445 80.5365 201.853 80.8815C202.058 80.9335 202.258 80.9967 202.455 81.0766C203.212 81.3842 203.863 81.9079 204.42 82.6021C206.527 85.233 207.287 90.3438 207.24 95.7116C207.202 99.9764 206.656 104.403 205.869 107.877C205.156 111.025 204.119 113.959 202.851 116.684C196.953 129.362 186.068 137.493 179.757 141.518Z" fill="#936FE9"/>
<path d="M187.056 74.7222C183.546 80.3449 178.62 90.1287 177.289 103.611C176.804 108.523 176.886 113.016 177.217 116.888C178.872 119.145 180.528 121.402 182.184 123.658C183.731 121.508 185.278 119.358 186.825 117.208C185.617 114.188 184.415 110.265 183.889 105.632C182.388 92.4257 187.412 82.5889 189.523 78.9581C188.7 77.5461 187.878 76.1341 187.056 74.7222Z" fill="#263238"/>
<path d="M185.085 69.4928C183.892 72.354 183.869 74.9746 183.995 76.5536C183.956 78.5343 185.354 80.2494 187.234 80.6071C189.245 80.9897 191.297 79.7214 191.859 77.6711C192.575 75.4204 193.255 72.8066 193.756 69.8696C194.337 66.4593 194.548 63.3665 194.573 60.717C193.388 61.1537 187.62 63.4177 185.085 69.4928Z" fill="#F9B28A"/>
<path d="M181.937 56.6134C180.692 58.0627 180.457 59.6785 180.203 61.4246C179.985 62.9205 178.774 71.2479 183.877 74.0829C187.412 76.0467 192.292 74.4394 195.033 71.7313C199.128 67.6858 199.869 59.7816 195.294 55.9445C191.413 52.6897 184.802 53.2792 181.937 56.6134Z" fill="#FFCDAD"/>
<path d="M31.3368 159.396C28.4728 159.396 24.2391 158.732 20.0508 155.645C15.7191 152.453 13.6115 148.048 11.9791 143.764C7.08422 130.917 4.54561 115.913 3.27794 105.588C3.11532 104.263 4.06182 103.058 5.39215 102.896C6.72213 102.733 7.93272 103.677 8.09541 105.001C9.33051 115.061 11.7941 129.655 16.5167 142.049C17.7928 145.398 19.4466 149.187 22.938 151.76C26.7833 154.594 30.6444 154.694 32.6039 154.501L32.7174 154.49L32.8315 154.49L69.2052 154.326H69.2163C70.5515 154.326 71.6367 155.401 71.6427 156.732C71.6487 158.067 70.5673 159.154 69.2271 159.16L32.9628 159.323C32.4917 159.366 31.9449 159.396 31.3368 159.396Z" fill="#D9C9FF"/>
<path d="M67.5539 147.036H30.4483C28.2944 147.036 26.5483 148.775 26.5483 150.92C26.5483 153.065 28.2944 154.804 30.4483 154.804H67.5539C69.7078 154.804 71.4538 153.065 71.4538 150.92C71.4538 148.775 69.7077 147.036 67.5539 147.036Z" fill="#936FE9"/>
<path d="M18.3163 126.71L11.8572 101.578C11.4823 100.119 9.8139 99.2843 8.13069 99.7134C6.44754 100.142 5.38696 101.673 5.76188 103.132L12.2209 128.264C12.5958 129.723 14.2642 130.558 15.9474 130.129C17.6306 129.7 18.6912 128.169 18.3163 126.71Z" fill="#936FE9"/>
<path d="M40.9351 156.658C41.5168 171.574 42.0985 186.491 42.6802 201.407C44.3449 201.175 46.0095 200.943 47.6742 200.711C47.9227 186.389 48.1713 172.066 48.4199 157.744C45.9249 157.382 43.43 157.02 40.9351 156.658Z" fill="#D9C9FF"/>
<path d="M57.4073 196.752H31.9473C31.6547 196.752 31.4175 196.988 31.4175 197.279V202.749C31.4175 203.041 31.6547 203.277 31.9473 203.277H57.4073C57.6999 203.277 57.9371 203.041 57.9371 202.749V197.279C57.9371 196.988 57.6999 196.752 57.4073 196.752Z" fill="#D9C9FF"/>
<path d="M55.4466 77.1435C61.775 81.3432 58.211 93.0913 59.6531 103.45C60.8378 111.96 66.0172 123.92 85.1708 137.016C85.2216 137.451 85.3214 138.791 84.5117 140.18C83.6676 141.628 82.3767 142.202 81.9772 142.362C74.5131 139.458 53.8619 130.182 46.3215 109.72C42.0965 98.2545 40.9481 79.8956 47.9008 76.394C50.2201 75.2259 53.3548 75.7553 55.4466 77.1435Z" fill="#6A44C5"/>
<path d="M105.093 174.067C110.954 175.197 114.769 171.724 116.877 173.764C117.84 174.696 117.953 176.302 117.724 177.356C116.315 183.834 97.913 188.099 94.069 182.981C91.7199 179.854 94.3492 172.614 97.8752 171.593C100.085 170.954 100.906 173.26 105.093 174.067Z" fill="#153663"/>
<path d="M84.4781 193.155C89.5716 196.254 94.3659 194.33 95.6239 196.976C96.1988 198.185 95.7407 199.728 95.1559 200.636C91.5609 206.214 72.8237 203.799 71.0195 197.666C69.917 193.918 74.923 188.051 78.5847 188.323C80.879 188.493 80.8389 190.94 84.4781 193.155Z" fill="#263238"/>
<path d="M28.4798 144.535C28.8702 145.199 31.5208 149.553 37.2615 150.958C48.7753 153.778 57.9957 141.135 68.341 141.006C75.6693 140.914 85.2207 147.08 94.2794 175.746C94.5668 175.816 96.9556 176.354 99.2494 174.853C101.379 173.46 101.769 170.902 101.945 169.81C102.927 163.715 100.882 128.496 78.419 124.997C73.9418 124.3 67.0027 124.606 60.797 125.716C54.8049 126.789 54.5886 127.701 49.2073 128.585C37.1889 130.561 32.6652 126.627 29.2399 129.959C25.4543 133.641 26.0376 140.383 28.4798 144.535Z" fill="#936FE9"/>
<path d="M26.4309 135.524C26.4 136.111 26.0334 145.379 31.819 149.805C40.8693 156.728 54.3746 143.694 64.3231 148.343C70.0275 151.008 75.8733 160.101 73.9486 190.56C74.1831 190.74 76.1497 192.193 78.8568 191.744C81.3701 191.327 82.7654 189.145 83.3695 188.216C86.7415 183.037 99.1642 150 80.0383 137.757C76.2263 135.317 69.7551 132.803 63.628 131.321C57.712 129.89 57.1441 130.637 51.8631 129.28C40.0683 126.249 37.5275 120.829 33.042 122.498C28.566 124.163 26.6475 131.423 26.4309 135.524Z" fill="#AE8FF7"/>
<path d="M60.8063 92.9045C60.772 93.1753 60.7302 93.4462 60.6864 93.7151C60.3365 95.806 59.7166 97.9082 59.0129 100.297C58.6915 101.387 58.4025 102.24 58.1362 102.959C57.9365 103.497 57.7483 104.007 57.5714 104.486V104.488C56.7404 106.757 56.187 108.317 56.0881 108.573C55.4795 110.158 54.9376 113.37 55.0136 120.363V120.365C55.0327 122.298 55.1011 124.52 55.2267 127.077C52.7469 128.02 48.5157 129.27 43.1758 129.094C36.9155 128.887 32.2031 126.823 29.7481 125.529C28.9152 119.891 28.5234 114.745 28.4112 110.141C28.3941 109.442 28.3827 108.757 28.3789 108.084C28.337 102.143 28.7535 97.1848 29.2479 93.3307C29.7139 89.6924 30.3186 86.4614 31.5965 83.6168C32.4237 81.7683 33.538 80.0808 35.0803 78.5543C35.6698 77.9691 37.0904 76.5638 39.2393 75.4009C40.0418 74.9634 40.9469 74.5619 41.9472 74.2494C42.6718 74.024 43.4477 73.8441 44.2729 73.7304C44.8378 73.6547 45.4254 73.6092 46.0358 73.6016C46.534 73.596 48.4661 73.5997 50.8109 74.3611C50.8623 74.3762 50.9155 74.3952 50.9687 74.4122C52.6689 74.9842 54.5724 75.9539 56.2972 77.6016C59.9541 81.0959 60.5227 85.45 60.8251 87.7739C61.0628 89.5902 61.0268 91.2549 60.8063 92.9045Z" fill="#6A44C5"/>
<path d="M52.2203 87.2303C52.1424 86.8704 52.0587 86.5144 51.975 86.1659C50.8701 81.5485 49.4401 77.7606 48.1869 74.9216C47.1714 76.2039 46.1559 77.4841 45.1423 78.7663C46.715 82.6584 50.2882 93.1053 46.9242 105.965C45.7432 110.478 43.9956 114.192 42.3716 117.01C43.5962 119.357 44.8229 121.704 46.0475 124.05C48.0081 122.05 49.9669 120.05 51.9274 118.05C52.806 114.264 53.5267 109.827 53.7454 104.897C54.0421 98.1848 53.3347 92.2492 52.2203 87.2303Z" fill="#263238"/>
<path d="M46.922 81.2102C48.2156 82.219 49.5182 83.4127 50.853 84.6882C53.8227 87.5239 56.952 90.7574 60.4786 93.2165C61.6487 94.0342 62.9652 94.8358 64.4507 95.5821C67.6994 97.2137 71.7521 98.5778 76.8532 99.2501C83.472 100.121 91.8567 99.8284 102.539 97.4436C102.893 97.7019 103.947 98.5409 104.417 100.078C104.91 101.68 104.452 103.012 104.297 103.413C97.0813 106.881 76.2031 115.637 56.017 107.212C55.9981 107.204 55.9777 107.196 55.9591 107.186C46.512 103.229 35.0131 94.4501 32.7542 87.3295C32.3113 85.9324 32.2234 84.5997 32.5755 83.3793C33.2944 80.8911 35.8174 78.9633 38.2637 78.3809C41.2635 77.6683 44.0704 78.9888 46.922 81.2102Z" fill="#6A44C5"/>
<path d="M34.3214 90.1682C36.8987 91.7671 40.2849 96.0007 46.4889 100.594C50.7605 103.755 54.6208 105.793 57.7371 107.181C53.5747 106.264 50.3271 104.851 47.7622 103.274C46.5894 102.552 45.5601 101.797 44.6527 101.04C41.9176 98.7597 39.5658 95.8688 37.3173 93.3177C36.3068 92.1702 35.317 91.0926 34.3214 90.1682Z" fill="#936FE9"/>
<path d="M51.2394 69.1567C52.4881 72.5398 52.4776 75.5821 52.3205 77.4079C52.335 79.7086 50.8047 81.6257 48.7723 81.9423C46.5979 82.281 44.4016 80.7015 43.8233 78.2926C43.0812 75.6432 42.3832 72.5742 41.8829 69.1397C41.302 65.1515 41.1161 61.5513 41.1253 58.4753C42.3973 59.0441 48.5882 61.9739 51.2394 69.1567Z" fill="#FCB490"/>
<path d="M54.3531 56.7602C55.7497 58.2044 56.0967 59.8856 56.4715 61.7024C56.7927 63.2589 58.5806 71.9235 53.4014 75.2129C49.8138 77.4914 44.5926 76.105 41.5478 73.4318C36.9992 69.4383 35.731 61.1888 40.2942 56.8804C44.1649 53.2258 51.1397 53.4374 54.3531 56.7602Z" fill="#FFCDAD"/>
<path d="M54.5036 59.3056C54.6455 59.1843 56.498 57.5517 56.7186 55.0324C56.9874 51.9615 54.7381 48.6367 52.4254 48.3979C51.258 48.2775 50.9462 49.0333 48.8486 49.9271C45.7651 51.2408 44.1528 50.5815 41.6309 51.2116C41.1423 51.3337 36.5789 52.6259 34.7809 56.0709C31.7568 61.8652 38.3678 70.3134 39.5855 69.9019C40.5272 69.5836 37.7468 64.1337 40.304 61.5143C43.3268 58.4182 50.1064 63.0679 54.5036 59.3056Z" fill="#060352"/>
<path d="M181.656 55.5575C181.503 55.4641 179.491 54.2041 179.005 52.1303C178.412 49.6023 180.289 46.7405 182.558 46.4293C183.703 46.2722 184.093 46.8824 186.269 47.5188C189.467 48.4544 190.997 47.8296 193.565 48.2271C194.063 48.3041 198.727 49.1491 200.877 51.9114C204.493 56.5577 199.815 64.3402 198.563 64.0595C197.595 63.8424 198.792 58.7291 195.977 56.6873C192.649 54.2738 186.418 58.4547 181.656 55.5575Z" fill="#060352"/>
<path d="M152.159 125.133H83.7573V204.903H152.159V125.133Z" fill="#D9C9FF"/>
<path d="M152.159 122.046H83.7573V126.671H152.159V122.046Z" fill="#C0A6FF"/>
<path d="M156.375 111.313H79.54V123.931H156.375V111.313Z" fill="#D9C9FF"/>
<path fill-rule="evenodd" clip-rule="evenodd" d="M190.798 60.3678C191.188 60.3167 191.537 60.6801 191.577 61.1821C191.618 61.6837 191.334 62.131 190.944 62.1827C190.553 62.2358 190.205 61.8705 190.165 61.3689C190.125 60.8669 190.407 60.4195 190.798 60.3678Z" fill="white"/>
<path fill-rule="evenodd" clip-rule="evenodd" d="M190.944 62.1842C191.334 62.1326 191.618 61.6837 191.577 61.1821C191.538 60.6802 191.188 60.3153 190.798 60.3669C190.634 60.389 190.49 60.4796 190.379 60.6162L190.433 60.5995C190.56 60.5829 190.674 60.7013 190.686 60.8646C190.699 61.0273 190.606 61.1724 190.48 61.1891C190.354 61.2058 190.241 61.0873 190.227 60.9256V60.8907C190.174 61.0357 190.15 61.199 190.164 61.3691C190.204 61.8706 190.553 62.2359 190.944 62.1842Z" fill="#0F3970"/>
<path fill-rule="evenodd" clip-rule="evenodd" d="M189.565 59.766C189.545 59.7842 189.529 59.7965 189.51 59.8177C189.534 59.7341 189.632 59.6225 189.671 59.5542C189.632 59.5876 189.607 59.5989 189.568 59.6515C189.534 59.6978 189.512 59.7464 189.487 59.8034C189.482 59.7395 189.505 59.6992 189.51 59.6421C189.48 59.684 189.459 59.769 189.456 59.8191C189.457 59.6348 189.465 59.6476 189.534 59.4735C189.457 59.526 189.401 59.6923 189.39 59.7867C189.371 59.7478 189.369 59.6962 189.368 59.6421C189.337 59.7061 189.337 59.7366 189.338 59.7995L189.289 59.7326C189.298 59.7743 189.311 59.7857 189.317 59.8191C189.225 59.7508 189.063 59.5153 189.081 59.3938C189.096 59.4454 189.134 59.5413 189.162 59.5708C189.151 59.4842 189.119 59.3884 189.134 59.2866C189.16 59.3505 189.152 59.4371 189.17 59.5078C189.19 59.5776 189.218 59.6587 189.253 59.7016C189.225 59.5541 189.18 59.4326 189.222 59.2699L189.228 59.3102C189.231 59.3869 189.227 59.4705 189.245 59.5457C189.264 59.4075 189.25 59.2807 189.363 59.1764C189.338 59.2349 189.313 59.2684 189.294 59.3367C189.354 59.2723 189.378 59.1568 189.48 59.143C189.435 59.1956 189.393 59.2305 189.347 59.3047C189.311 59.3632 189.256 59.462 189.279 59.5344C189.346 59.2821 189.488 59.1498 189.66 59.1027C189.613 59.1277 189.469 59.2335 189.455 59.2949L189.456 59.3057C189.467 59.3726 189.466 59.2447 189.46 59.3215C189.427 59.3465 189.389 59.4006 189.366 59.4439C189.353 59.469 189.34 59.5024 189.33 59.5329C189.326 59.5471 189.319 59.5737 189.317 59.5875C189.316 59.6027 189.317 59.6002 189.319 59.614L189.321 59.6293C189.369 59.4606 189.427 59.3687 189.54 59.2738C189.61 59.2167 189.774 59.1165 189.869 59.1027C189.866 59.1051 189.863 59.1066 189.862 59.1081L189.784 59.1454C189.593 59.2462 189.408 59.3618 189.351 59.6012C189.363 59.5919 189.353 59.6041 189.368 59.582C189.373 59.5752 189.373 59.5737 189.376 59.5678C189.418 59.497 189.46 59.4233 189.516 59.3642C189.578 59.3003 189.653 59.2388 189.718 59.2015C189.803 59.1538 190.079 59.048 190.219 59.0633C190.177 59.0618 189.918 59.14 189.873 59.1582C189.777 59.1985 189.652 59.2556 189.582 59.3504C189.623 59.3392 189.665 59.3116 189.702 59.2934C189.943 59.1847 190.362 59.023 190.614 59.0358C190.458 59.0692 190.237 59.137 190.121 59.2054L190.216 59.1847C190.189 59.197 190.167 59.2128 190.139 59.2266C190.111 59.2388 190.09 59.2487 190.062 59.2639C189.932 59.3406 189.735 59.4704 189.662 59.6125C189.697 59.5791 189.742 59.5442 189.782 59.5107C189.824 59.4758 189.862 59.4468 189.907 59.4149C189.991 59.3574 190.082 59.2919 190.173 59.2472C190.366 59.1538 190.55 59.0761 190.766 59.0299C190.738 59.0412 190.707 59.0525 190.682 59.0816C190.858 59.0732 191.147 58.9311 191.589 58.91C191.495 58.9434 191.337 58.9562 191.231 58.9882L191.132 59.026C191.19 59.0275 191.38 58.9768 191.457 58.9631C191.835 58.8908 192.071 58.8406 192.48 58.8431C192.743 58.8446 192.988 58.8446 193.253 58.9547C193.424 59.0275 193.583 59.1136 193.724 59.2281C193.775 59.2684 193.8 59.2989 193.839 59.3367C193.733 59.2836 193.498 59.0525 193.265 59.0049C193.624 59.2138 193.909 59.3982 194.16 59.6741C194.093 59.6308 193.996 59.5413 193.92 59.4828C193.835 59.4174 193.751 59.3603 193.662 59.3004C193.502 59.1956 193.245 59.0526 193.043 59.002C193.089 59.0398 193.215 59.1013 193.277 59.1362C193.72 59.3869 194.145 59.6726 194.536 59.9971C194.581 60.0365 194.673 60.1323 194.708 60.155C194.666 60.1397 194.502 60.0099 194.448 59.972C194.161 59.7773 193.888 59.5973 193.538 59.4971C193.629 59.5679 194.264 59.8216 194.465 60.0055L193.919 59.7311C193.754 59.6559 193.473 59.5359 193.29 59.5109C193.499 59.5512 194.308 59.9165 194.47 60.0547C194.383 60.0252 194.26 59.9554 194.167 59.9151C194.058 59.8664 193.951 59.8246 193.839 59.7842C193.612 59.7017 193.37 59.6308 193.131 59.5989C192.808 59.5541 192.5 59.5595 192.185 59.592C192.096 59.6013 191.974 59.6239 191.888 59.6225C191.94 59.592 192.094 59.5807 192.151 59.5724C192.332 59.5458 192.515 59.532 192.7 59.5291C192.774 59.5291 192.924 59.5458 192.984 59.5375C192.763 59.4819 192.592 59.5026 192.405 59.4805C192.421 59.4775 192.413 59.4805 192.428 59.4745C192.445 59.4691 192.437 59.4721 192.451 59.4637C192.334 59.4524 192.109 59.4942 192.002 59.5207C191.874 59.5512 191.618 59.6515 191.604 59.6544C191.636 59.6308 191.666 59.6171 191.69 59.592L191.379 59.6658L191.761 59.5237C191.685 59.533 191.582 59.5738 191.507 59.592C191.417 59.6156 191.229 59.6613 191.145 59.6933C191.046 59.7326 190.861 59.7562 190.758 59.7606C190.793 59.738 190.919 59.7016 190.973 59.6839L191.179 59.6111C191.218 59.5945 191.251 59.5875 191.284 59.5694C191.38 59.5193 191.479 59.4828 191.581 59.4425C191.761 59.3717 192.284 59.2154 192.475 59.27C192.228 59.1903 191.722 59.3476 191.544 59.4189L191.128 59.589C191.09 59.6013 191.064 59.6181 191.026 59.6338C190.927 59.6741 190.822 59.7183 190.716 59.7493L190.723 59.7267C190.723 59.7257 190.724 59.7228 190.724 59.7228C190.724 59.7214 190.724 59.7199 190.726 59.7184V59.713C190.689 59.7366 190.581 59.7784 190.532 59.7843C190.632 59.6894 190.882 59.6127 190.967 59.4912C190.882 59.5193 190.78 59.5945 190.701 59.6447C190.674 59.6629 190.646 59.6757 190.617 59.6923C190.685 59.5724 190.82 59.4721 190.927 59.3939L191.048 59.3216C190.948 59.3285 190.826 59.4259 190.751 59.4927C190.674 59.5611 190.608 59.6422 190.542 59.7214C190.537 59.727 190.533 59.732 190.528 59.7366C190.514 59.7524 190.521 59.745 190.508 59.7494L190.601 59.5891C190.584 59.6196 190.457 59.7494 190.45 59.7941C190.465 59.7091 190.52 59.6431 190.555 59.5763L190.495 59.6196C190.588 59.4568 190.818 59.3423 190.961 59.2405C190.819 59.2557 190.563 59.4539 190.471 59.5837C190.427 59.6461 190.396 59.7243 190.354 59.7745L190.399 59.6476C190.396 59.6491 190.394 59.6506 190.392 59.6515L190.325 59.7327C190.377 59.5738 190.456 59.4873 190.55 59.3885C190.508 59.3969 190.476 59.4259 190.444 59.4579C190.413 59.4859 190.382 59.5193 190.357 59.5572C190.304 59.6325 190.258 59.716 190.223 59.8109C190.216 59.7715 190.241 59.7017 190.257 59.656C190.229 59.6658 190.254 59.653 190.227 59.6712C190.184 59.7007 190.156 59.7632 190.129 59.805L190.146 59.7091L190.08 59.805C190.094 59.7175 190.122 59.6683 190.143 59.5931C190.09 59.6309 190.066 59.6978 190.04 59.7662C190.031 59.7357 190.044 59.688 190.055 59.6506L189.981 59.7268C189.961 59.7534 189.943 59.7843 189.925 59.8094C189.946 59.7244 189.985 59.6811 190.019 59.6157C189.939 59.6673 189.911 59.744 189.854 59.8276C189.87 59.7298 189.94 59.5861 189.995 59.5276C189.907 59.5414 189.855 59.7701 189.812 59.8192L189.814 59.7199C189.806 59.7258 189.81 59.7214 189.797 59.7356L189.744 59.8344L189.752 59.7076C189.717 59.744 189.712 59.7843 189.687 59.8344C189.69 59.8285 189.685 59.7282 189.705 59.6697C189.687 59.6796 189.701 59.6683 189.68 59.6879C189.642 59.7243 189.627 59.7784 189.592 59.8162L189.631 59.7144C189.617 59.7213 189.626 59.7174 189.611 59.7267L189.565 59.766Z" fill="#0F3970"/>
<path fill-rule="evenodd" clip-rule="evenodd" d="M184.544 60.1646C184.183 60.2157 183.92 60.6631 183.957 61.1651C183.994 61.6667 184.317 62.0305 184.678 61.9789C185.04 61.9272 185.302 61.4798 185.266 60.9783C185.228 60.4768 184.905 60.1129 184.544 60.1646Z" fill="white"/>
<path fill-rule="evenodd" clip-rule="evenodd" d="M184.678 61.9805C184.317 62.0321 183.994 61.6668 183.956 61.1653C183.918 60.6633 184.181 60.2149 184.544 60.1632C184.695 60.1406 184.84 60.1922 184.959 60.2969L184.909 60.2954C184.792 60.3121 184.706 60.4587 184.719 60.6204C184.731 60.7831 184.836 60.9016 184.953 60.8849C185.07 60.8682 185.155 60.7217 185.143 60.5604L185.14 60.5255C185.208 60.6538 185.253 60.8083 185.266 60.9784C185.304 61.48 185.04 61.9288 184.678 61.9805Z" fill="#0F3970"/>
<path fill-rule="evenodd" clip-rule="evenodd" d="M186.068 59.8777C186.081 59.8954 186.094 59.9082 186.107 59.9279C186.088 59.8452 186.016 59.7341 185.988 59.6673C186.016 59.6992 186.034 59.7101 186.063 59.7632C186.088 59.8094 186.104 59.8581 186.123 59.9151C186.126 59.8512 186.108 59.8109 186.104 59.7533C186.126 59.7951 186.143 59.8788 186.146 59.9303C186.142 59.7464 186.136 59.7578 186.084 59.5847C186.14 59.6363 186.182 59.8035 186.194 59.8984C186.206 59.8595 186.206 59.8064 186.206 59.7533C186.23 59.8163 186.23 59.8468 186.23 59.9112L186.264 59.8429C186.258 59.8846 186.249 59.8954 186.245 59.9294C186.31 59.8611 186.422 59.6256 186.408 59.5041C186.396 59.5558 186.371 59.6516 186.351 59.6826C186.358 59.5946 186.38 59.4987 186.367 59.3969C186.349 59.4609 186.356 59.5488 186.345 59.6182C186.332 59.688 186.314 59.7692 186.29 59.8119C186.307 59.6659 186.336 59.543 186.303 59.3817L186.3 59.4205C186.299 59.4987 186.304 59.5823 186.293 59.656C186.276 59.5194 186.283 59.391 186.2 59.2883C186.22 59.3453 186.238 59.3802 186.254 59.4471C186.209 59.3842 186.189 59.2686 186.116 59.2549C186.149 59.3075 186.18 59.3425 186.215 59.4161C186.242 59.4736 186.283 59.5725 186.266 59.6448C186.216 59.394 186.111 59.2618 185.986 59.2155C186.021 59.2392 186.126 59.3468 186.138 59.4068L186.136 59.4177C186.13 59.4846 186.129 59.3562 186.135 59.4329C186.159 59.458 186.187 59.5126 186.203 59.5558C186.213 59.5809 186.224 59.6129 186.232 59.6433C186.234 59.6576 186.24 59.6852 186.241 59.6979V59.7245L186.238 59.7412C186.2 59.5725 186.158 59.4791 186.076 59.3857C186.024 59.3287 185.905 59.2298 185.838 59.2171L185.843 59.2215L185.9 59.2588C186.038 59.3576 186.171 59.4737 186.217 59.7131C186.209 59.7033 186.216 59.7161 186.205 59.6925C186.201 59.6865 186.201 59.6851 186.198 59.6797C186.167 59.6089 186.136 59.5346 186.094 59.4761C186.05 59.4137 185.995 59.3507 185.947 59.3144C185.886 59.2672 185.686 59.1614 185.586 59.1782C185.616 59.1767 185.803 59.2549 185.835 59.2726C185.905 59.312 185.995 59.3675 186.048 59.4639C186.019 59.4526 185.988 59.4236 185.96 59.4068C185.786 59.2991 185.483 59.1374 185.303 59.1517C185.416 59.1836 185.575 59.2535 185.659 59.3203L185.59 59.2991C185.61 59.3119 185.625 59.3271 185.647 59.3409C185.667 59.3537 185.683 59.3635 185.702 59.3787C185.796 59.4539 185.94 59.5823 185.995 59.7244C185.969 59.6909 185.936 59.656 185.908 59.624C185.876 59.5876 185.849 59.5596 185.816 59.5277C185.756 59.4707 185.689 59.4052 185.622 59.362C185.483 59.27 185.35 59.1918 185.194 59.1456C185.214 59.1584 185.236 59.1697 185.255 59.1973C185.129 59.1904 184.92 59.0483 184.602 59.0286C184.671 59.062 184.785 59.0748 184.861 59.1067L184.933 59.1446C184.891 59.1446 184.753 59.0954 184.699 59.0817C184.428 59.0104 184.258 58.9617 183.964 58.9661C183.776 58.9675 183.6 58.9686 183.414 59.0802C183.293 59.1515 183.179 59.239 183.081 59.3535C183.046 59.3938 183.028 59.4243 183.001 59.4622C183.075 59.4091 183.239 59.178 183.406 59.1288C183.152 59.3392 182.952 59.5246 182.778 59.8009C182.825 59.7576 182.892 59.6672 182.946 59.6096C183.006 59.5442 183.064 59.4857 183.127 59.4257C183.239 59.3214 183.421 59.1764 183.566 59.1248C183.532 59.1637 183.442 59.2251 183.399 59.26C183.087 59.5123 182.787 59.7994 182.515 60.1254C182.482 60.1632 182.419 60.2606 182.394 60.2832C182.425 60.2665 182.54 60.1367 182.577 60.0989C182.779 59.9027 182.971 59.7227 183.219 59.6225C183.155 59.6932 182.705 59.9485 182.566 60.1323L182.951 59.8579C183.068 59.7812 183.267 59.6598 183.397 59.6347C183.248 59.6765 182.677 60.0448 182.562 60.1815C182.624 60.152 182.711 60.0822 182.778 60.0404C182.855 59.9933 182.93 59.95 183.01 59.9096C183.171 59.826 183.341 59.7547 183.512 59.7213C183.743 59.6765 183.964 59.681 184.19 59.7115C184.254 59.7213 184.341 59.7424 184.402 59.7424C184.364 59.7115 184.254 59.7007 184.213 59.6932C184.083 59.6672 183.952 59.6529 183.82 59.6515C183.767 59.6505 183.659 59.6682 183.617 59.6599C183.774 59.6043 183.897 59.6255 184.03 59.6003C184.017 59.5989 184.024 59.6014 184.013 59.5959C184.001 59.5905 184.006 59.593 183.997 59.5846C184.081 59.5738 184.241 59.6156 184.319 59.6407C184.411 59.6711 184.595 59.77 184.605 59.7729C184.583 59.7493 184.562 59.7356 184.544 59.71L184.767 59.7828L184.492 59.6431C184.546 59.6515 184.621 59.6923 184.674 59.71C184.74 59.7341 184.875 59.7783 184.936 59.8108C185.007 59.8481 185.14 59.8732 185.214 59.8747C185.187 59.8526 185.098 59.8176 185.058 59.7995L184.909 59.7282C184.881 59.7115 184.857 59.7046 184.833 59.6879C184.763 59.6378 184.692 59.6014 184.619 59.5611C184.489 59.4903 184.111 59.3354 183.975 59.3909C184.15 59.3118 184.515 59.4661 184.644 59.536L184.945 59.7061C184.972 59.7184 184.991 59.7356 185.019 59.7494C185.091 59.7897 185.166 59.8344 185.243 59.8634L185.238 59.8413C185.238 59.8413 185.238 59.8384 185.236 59.8369V59.833C185.236 59.8315 185.235 59.8301 185.236 59.8286C185.261 59.8528 185.34 59.8945 185.376 59.8985C185.303 59.8051 185.122 59.7284 185.058 59.6074C185.12 59.635 185.194 59.7102 185.252 59.7609C185.273 59.7786 185.292 59.7899 185.312 59.8066C185.261 59.6881 185.164 59.5878 185.085 59.5111L184.997 59.4388C185.07 59.4456 185.158 59.5415 185.214 59.6089C185.27 59.6758 185.319 59.7564 185.368 59.8361C185.374 59.8454 185.372 59.8444 185.377 59.8528C185.387 59.8665 185.383 59.8596 185.392 59.8636L185.322 59.7033C185.335 59.7357 185.429 59.8636 185.434 59.9083C185.422 59.8247 185.382 59.7593 185.355 59.6925L185.399 59.7343C185.329 59.5725 185.162 59.458 185.058 59.3576C185.161 59.3729 185.347 59.5696 185.415 59.6993C185.449 59.7608 185.471 59.8384 185.502 59.8887L185.469 59.7618C185.47 59.7633 185.471 59.7662 185.473 59.7662L185.523 59.8468C185.482 59.688 185.424 59.6029 185.355 59.5026C185.385 59.5124 185.408 59.5415 185.432 59.5725C185.454 59.6005 185.477 59.6349 185.496 59.6713C185.536 59.7465 185.569 59.8301 185.597 59.925C185.601 59.8861 185.582 59.8163 185.569 59.7701C185.59 59.7785 185.572 59.7677 185.592 59.7843C185.624 59.8134 185.645 59.8777 185.665 59.9181L185.65 59.8217L185.699 59.9181C185.687 59.8301 185.666 59.7814 185.65 59.7076C185.688 59.744 185.708 59.8119 185.727 59.8788C185.733 59.8483 185.723 59.8011 185.715 59.7632L185.769 59.8399C185.783 59.8665 185.798 59.8969 185.81 59.922C185.793 59.837 185.765 59.7942 185.74 59.7298C185.798 59.7799 185.818 59.8566 185.862 59.9402C185.848 59.8429 185.794 59.6993 185.755 59.6408C185.818 59.6546 185.86 59.8832 185.891 59.9304L185.888 59.8316C185.894 59.8384 185.891 59.8345 185.9 59.8483L185.94 59.9461L185.933 59.8202C185.958 59.8551 185.962 59.897 185.981 59.9461C185.979 59.9402 185.979 59.8399 185.965 59.7828C185.978 59.7912 185.968 59.7799 185.984 59.801C186.011 59.8369 186.023 59.89 186.048 59.9279L186.019 59.8275C186.028 59.833 186.023 59.8285 186.032 59.8384L186.068 59.8777Z" fill="#0F3970"/>
<path d="M187.157 66.7784C187.126 66.7784 187.097 66.7688 187.07 66.752C187.036 66.7328 186.906 66.728 186.812 66.7255C186.412 66.7088 185.67 66.68 185.576 65.7748C185.539 65.4315 186.675 61.9743 187.005 61.6478C187.068 61.5902 187.167 61.5878 187.229 61.6502C187.29 61.7102 187.29 61.8111 187.227 61.8735C186.967 62.1304 185.879 65.4195 185.889 65.7436C185.952 66.3294 186.333 66.3894 186.824 66.4086C187.003 66.4159 187.145 66.423 187.244 66.4879C187.318 66.5359 187.338 66.6343 187.29 66.7063C187.258 66.7519 187.207 66.7784 187.157 66.7784Z" fill="#F09171"/>
<path fill-rule="evenodd" clip-rule="evenodd" d="M190.885 68.751C187.561 71.0157 185.626 71.1637 185.077 69.193C187.491 69.431 189.428 69.285 190.885 68.751Z" fill="white"/>
<path fill-rule="evenodd" clip-rule="evenodd" d="M200.585 53.9989C200.046 53.2285 200.005 52.5574 200.463 51.9876C201.752 51.7189 202.799 52.0261 203.605 52.9078C202.994 52.754 201.988 53.1184 200.585 53.9989Z" fill="#060352"/>
<path fill-rule="evenodd" clip-rule="evenodd" d="M199.252 51.6157C199.784 52.2077 200.272 52.3393 200.717 52.0085C200.991 50.8913 200.829 49.909 200.232 49.0618C200.308 49.6315 199.981 50.4827 199.252 51.6157Z" fill="#060352"/>
<path fill-rule="evenodd" clip-rule="evenodd" d="M186.601 56.0454C186.555 54.3981 185.911 53.4106 184.667 53.0837C182.568 54.0437 181.414 55.5634 181.201 57.6441C181.901 56.7947 183.701 56.2621 186.601 56.0454Z" fill="#060352"/>
<path fill-rule="evenodd" clip-rule="evenodd" d="M191.699 48.086C191.289 48.7273 190.63 49.2873 189.591 49.2779C188.256 52.1366 186.793 47.5462 187.093 46.4338C187.444 46.8455 189.499 47.6804 191.699 48.086Z" fill="#060352"/>
<path d="M46.5085 65.6767C46.3006 65.6627 46.1178 65.6889 45.9121 65.7224C45.8021 65.7968 45.6818 65.8692 45.6206 65.9909C45.5435 66.1409 45.5283 66.2742 45.5973 66.4302C45.6963 66.6598 45.8872 66.7792 46.1054 66.8788C46.244 67.0104 46.2348 67.0172 46.425 67.0229C46.6813 66.5884 46.6241 66.1421 46.5085 65.6767Z" fill="black"/>
<path d="M53.0233 64.5183C52.6867 64.6155 52.5176 64.7152 52.3374 65.0022C52.3038 65.3963 52.5277 65.797 52.6786 66.157C52.8455 66.1219 52.9923 66.0577 53.148 65.991C53.2596 65.8718 53.37 65.7528 53.399 65.5866C53.4679 65.1895 53.229 64.8338 53.0233 64.5183Z" fill="black"/>
<path d="M53.996 62.5845C53.2251 62.4463 52.1736 62.2155 51.4628 62.6376L51.4434 62.8109C52.0518 63.4024 53.402 63.2925 54.1943 63.3123C54.2204 63.2413 54.258 63.1559 54.2667 63.0791C54.2943 62.8316 54.1521 62.7472 53.996 62.5845Z" fill="#3F2825"/>
<path d="M50.3098 66.9454C50.4268 67.6039 50.9179 68.1737 51.2357 68.7488C51.4092 69.0624 51.582 69.3743 51.4772 69.7388C51.0979 70.044 50.5346 70.0333 50.0962 70.2565L50.1314 70.3979L50.4808 70.5719C50.9422 70.5432 51.52 70.5824 51.8774 70.2421C52.0578 70.0702 52.1406 69.82 52.1232 69.5743C52.0581 68.6547 50.964 67.5417 50.3098 66.9454Z" fill="#CE7A47"/>
<path d="M47.2707 63.1077C46.2519 63.1903 45.2378 63.3614 44.2686 63.6889C43.9275 63.804 43.2088 64.0261 43.043 64.3662C43.1663 64.6234 43.2158 64.6167 43.4638 64.7377L43.5687 64.8387C44.1128 64.9482 46.6046 64.1638 47.1833 63.9001C47.3314 63.7018 47.2741 63.3481 47.2707 63.1077Z" fill="#3F2825"/>
<path d="M47.1322 72.0942L46.9541 72.21C47.4415 72.789 48.3673 73.2446 49.1045 73.4043C50.3429 73.6733 51.3816 73.288 52.4114 72.6228C52.6886 72.3954 52.9267 72.1236 53.1725 71.8633C50.9389 72.4282 49.4144 72.5634 47.1322 72.0942Z" fill="white"/>
<path fill-rule="evenodd" clip-rule="evenodd" d="M160.322 42.7046C165.289 42.7046 169.315 46.7141 169.315 51.6601C169.315 56.6061 165.289 60.6162 160.322 60.6162C155.356 60.6162 151.33 56.6064 151.33 51.6601C151.33 46.7139 155.356 42.7046 160.322 42.7046Z" fill="#C0A6FF"/>
<path fill-rule="evenodd" clip-rule="evenodd" d="M160.322 44.0229C164.558 44.0229 167.991 47.4422 167.991 51.6601C167.991 55.8781 164.558 59.2979 160.322 59.2979C156.087 59.2979 152.654 55.8783 152.654 51.6601C152.654 47.442 156.087 44.0229 160.322 44.0229Z" fill="white"/>
<path fill-rule="evenodd" clip-rule="evenodd" d="M160.322 44.5496C164.265 44.5496 167.462 47.7331 167.462 51.6601C167.462 55.587 164.265 58.7708 160.322 58.7708C156.379 58.7708 153.183 55.5872 153.183 51.6601C153.183 47.7329 156.379 44.5496 160.322 44.5496Z" fill="#D9C9FF"/>
<path fill-rule="evenodd" clip-rule="evenodd" d="M162.493 47.993C162.127 47.8051 161.607 47.618 160.898 47.5955V46.4265H159.813V47.6838C158.639 47.9484 157.941 48.787 157.941 49.868C157.941 50.9822 158.705 51.5554 159.78 52.0627C160.798 52.5041 161.164 52.8683 161.164 53.4305C161.164 53.9824 160.776 54.4123 159.979 54.4123C159.281 54.4123 158.628 54.1696 158.196 53.9158L157.864 55.1512C158.284 55.394 159.005 55.6142 159.713 55.6367V56.894H160.799V55.5483C162.05 55.3056 162.781 54.4012 162.781 53.2762C162.781 52.1291 162.183 51.5114 160.876 50.9266C160.001 50.4968 159.525 50.1876 159.525 49.6803C159.525 49.2503 159.902 48.7978 160.644 48.7978C161.286 48.7978 161.828 49.0297 162.161 49.1949L162.493 47.993Z" fill="white"/>
<path fill-rule="evenodd" clip-rule="evenodd" d="M80.5009 35.7739C84.5127 35.7739 87.7649 39.0127 87.7649 43.0079C87.7649 47.0032 84.5127 50.2424 80.5009 50.2424C76.4891 50.2424 73.2373 47.0034 73.2373 43.0079C73.2373 39.0125 76.4893 35.7739 80.5009 35.7739Z" fill="#C0A6FF"/>
<path fill-rule="evenodd" clip-rule="evenodd" d="M80.5009 36.8389C83.9221 36.8389 86.6957 39.6008 86.6957 43.0079C86.6957 46.4151 83.9221 49.1775 80.5009 49.1775C77.0798 49.1775 74.3066 46.4151 74.3066 43.0079C74.3066 39.6008 77.0799 36.8389 80.5009 36.8389Z" fill="white"/>
<path fill-rule="evenodd" clip-rule="evenodd" d="M80.501 37.2642C83.6861 37.2642 86.2683 39.8357 86.2683 43.0078C86.2683 46.1798 83.6862 48.7516 80.501 48.7516C77.3157 48.7516 74.7339 46.18 74.7339 43.0078C74.7339 39.8355 77.3159 37.2642 80.501 37.2642Z" fill="#D9C9FF"/>
<path fill-rule="evenodd" clip-rule="evenodd" d="M82.2542 40.0457C81.959 39.8939 81.5386 39.7428 80.9663 39.7246V38.7803H80.0893V39.7959C79.1412 40.0097 78.5775 40.687 78.5775 41.5603C78.5775 42.4603 79.1946 42.9233 80.0626 43.3331C80.8858 43.6897 81.181 43.9838 81.181 44.4379C81.181 44.8837 80.8678 45.231 80.2234 45.231C79.6602 45.231 79.1324 45.035 78.7831 44.83L78.5151 45.828C78.855 46.024 79.4366 46.202 80.0088 46.2201V47.2358H80.8858V46.1488C81.8966 45.9527 82.4872 45.2222 82.4872 44.3134C82.4872 43.3868 82.0039 42.8879 80.948 42.4155C80.2413 42.0683 79.857 41.8185 79.857 41.4087C79.857 41.0613 80.1611 40.6959 80.7606 40.6959C81.2793 40.6959 81.7176 40.8832 81.9862 41.0166L82.2542 40.0457Z" fill="white"/>
<path fill-rule="evenodd" clip-rule="evenodd" d="M138.784 0.382324C142.83 0.382324 146.11 3.64865 146.11 7.67796C146.11 11.7073 142.83 14.9741 138.784 14.9741C134.739 14.9741 131.459 11.7074 131.459 7.67796C131.459 3.64851 134.739 0.382324 138.784 0.382324Z" fill="#C0A6FF"/>
<path fill-rule="evenodd" clip-rule="evenodd" d="M138.784 1.4563C142.235 1.4563 145.032 4.24181 145.032 7.67797C145.032 11.1141 142.234 13.9001 138.784 13.9001C135.334 13.9001 132.537 11.1142 132.537 7.67797C132.537 4.24174 135.334 1.4563 138.784 1.4563Z" fill="white"/>
<path fill-rule="evenodd" clip-rule="evenodd" d="M138.785 1.8855C141.997 1.8855 144.601 4.479 144.601 7.67807C144.601 10.8771 141.997 13.4709 138.785 13.4709C135.572 13.4709 132.968 10.8774 132.968 7.67807C132.968 4.47878 135.572 1.8855 138.785 1.8855Z" fill="#D9C9FF"/>
<path fill-rule="evenodd" clip-rule="evenodd" d="M140.553 4.6904C140.255 4.53732 139.831 4.3849 139.254 4.36663V3.41431H138.369V4.43857C137.413 4.65413 136.845 5.33722 136.845 6.21795C136.845 7.12562 137.467 7.59257 138.342 8.00585C139.173 8.36545 139.47 8.66213 139.47 9.12013C139.47 9.56974 139.154 9.92002 138.505 9.92002C137.937 9.92002 137.404 9.7223 137.052 9.51556L136.782 10.522C137.124 10.7197 137.711 10.8991 138.288 10.9174V11.9417H139.173V10.8455C140.192 10.6478 140.788 9.91099 140.788 8.99443C140.788 8.05996 140.3 7.55667 139.235 7.08026C138.523 6.73012 138.135 6.47822 138.135 6.06495C138.135 5.71459 138.442 5.34603 139.046 5.34603C139.569 5.34603 140.012 5.53494 140.282 5.66952L140.553 4.6904Z" fill="white"/>
<path fill-rule="evenodd" clip-rule="evenodd" d="M20.9584 66.7715C24.174 66.7715 26.7808 69.3675 26.7808 72.5699C26.7808 75.7723 24.174 78.3687 20.9584 78.3687C17.7427 78.3687 15.1362 75.7725 15.1362 72.5699C15.1362 69.3674 17.7429 66.7715 20.9584 66.7715Z" fill="#C0A6FF"/>
<path fill-rule="evenodd" clip-rule="evenodd" d="M20.9582 67.6252C23.7004 67.6252 25.9235 69.8391 25.9235 72.57C25.9235 75.3009 23.7004 77.5152 20.9582 77.5152C18.216 77.5152 15.9932 75.3011 15.9932 72.57C15.9932 69.839 18.2161 67.6252 20.9582 67.6252Z" fill="white"/>
<path fill-rule="evenodd" clip-rule="evenodd" d="M20.9581 67.9661C23.5112 67.9661 25.5808 70.0273 25.5808 72.5699C25.5808 75.1125 23.5111 77.1738 20.9581 77.1738C18.4051 77.1738 16.3354 75.1125 16.3354 72.5699C16.3354 70.0272 18.4051 67.9661 20.9581 67.9661Z" fill="#D9C9FF"/>
<path fill-rule="evenodd" clip-rule="evenodd" d="M22.3636 70.1955C22.127 70.0738 21.79 69.9527 21.3314 69.9381V69.1812H20.6285V69.9952C19.8685 70.1666 19.4167 70.7094 19.4167 71.4094C19.4167 72.1308 19.9114 72.5019 20.6071 72.8304C21.2669 73.1163 21.5035 73.3521 21.5035 73.716C21.5035 74.0733 21.2525 74.3518 20.7359 74.3518C20.2845 74.3518 19.8615 74.1946 19.5815 74.0303L19.3667 74.8302C19.6391 74.9873 20.1053 75.1299 20.5639 75.1445V75.9586H21.2669V75.0873C22.0771 74.9302 22.5505 74.3446 22.5505 73.6162C22.5505 72.8734 22.1632 72.4735 21.3168 72.0948C20.7503 71.8165 20.4423 71.6164 20.4423 71.2879C20.4423 71.0095 20.6861 70.7165 21.1665 70.7165C21.5824 70.7165 21.9337 70.8666 22.1489 70.9736L22.3636 70.1955Z" fill="white"/>
<g opacity="0.5">
<g opacity="0.62">
<path d="M122.228 177.859C121.156 178.624 119.858 179.077 118.539 179.149C118.552 179.103 118.563 179.057 118.576 179.01C118.976 178.26 119.503 177.536 120.172 177.013C120.728 176.578 121.379 176.231 122.085 176.156C122.441 176.116 122.876 176.198 123.01 176.53C123.078 176.701 123.043 176.9 122.966 177.068C122.816 177.4 122.526 177.647 122.228 177.859Z" fill="#C0A6FF"/>
<path d="M118.066 183.115L118.053 183.113C118.249 181.505 119.219 180.192 120.586 179.313C120.745 179.211 120.913 179.116 121.1 179.086C121.286 179.057 121.496 179.107 121.613 179.255C121.691 179.353 121.72 179.48 121.726 179.605C121.75 180.005 121.57 180.388 121.351 180.723C120.584 181.894 119.307 182.462 118.066 183.115Z" fill="#C0A6FF"/>
<path d="M118.012 183.17C116.699 182.861 115.388 182.303 114.52 181.273C114.345 181.065 114.187 180.832 114.128 180.567C114.07 180.303 114.128 179.999 114.33 179.817C114.584 179.59 114.978 179.613 115.299 179.724C116.009 179.964 116.558 180.534 116.997 181.142C117.388 181.683 117.755 182.447 118.013 183.081C118.012 183.111 118.012 183.141 118.012 183.17Z" fill="#C0A6FF"/>
<path d="M119.587 176.266L119.529 176.245C119.715 174.665 120.341 173.046 121.632 172.11C121.937 171.89 122.378 171.717 122.671 171.954C122.832 172.085 122.894 172.31 122.872 172.517C122.851 172.724 122.758 172.915 122.658 173.098C121.926 174.426 120.742 175.442 119.537 176.373C119.552 176.337 119.57 176.301 119.587 176.266Z" fill="#C0A6FF"/>
<path d="M118.543 179.072C118.54 179.077 118.537 179.083 118.535 179.089C117.918 178.679 117.236 178.374 116.617 177.968C115.995 177.559 115.417 177.022 115.166 176.321C115.084 176.091 115.064 175.781 115.271 175.649C115.396 175.569 115.556 175.587 115.698 175.619C116.262 175.747 116.765 176.075 117.169 176.488C117.571 176.901 117.877 177.396 118.14 177.909C118.298 178.215 118.493 178.722 118.543 179.072Z" fill="#C0A6FF"/>
<path d="M117.419 185.699C117.734 185.986 118.119 186.451 118.377 186.788C117.663 186.813 116.946 186.792 116.235 186.728C115.838 186.692 115.44 186.642 115.063 186.514C114.782 186.418 114.508 186.274 114.319 186.044C114.132 185.815 114.045 185.488 114.156 185.213C114.251 184.983 114.47 184.82 114.702 184.729C115.176 184.544 115.719 184.615 116.183 184.821C116.648 185.027 117.044 185.356 117.419 185.699Z" fill="#C0A6FF"/>
<path d="M122.345 182.565C122.55 182.848 122.447 183.245 122.294 183.559C121.927 184.299 121.326 184.906 120.653 185.389C119.988 185.868 119.116 186.362 118.377 186.729C118.372 186.714 118.369 186.7 118.367 186.683C118.583 185.038 119.555 183.505 120.958 182.607C121.172 182.469 121.405 182.343 121.659 182.311C121.913 182.279 122.195 182.358 122.345 182.565Z" fill="#C0A6FF"/>
<path d="M119.639 176.064C117.977 179.418 117.52 183.286 118.361 186.932C118.382 187.023 118.525 186.993 118.504 186.901C117.673 183.296 118.118 179.462 119.761 176.144C119.802 176.061 119.68 175.98 119.639 176.064Z" fill="#C0A6FF"/>
</g>
<path d="M113.669 192.038C112.331 188.986 110.047 186.667 107.372 185.318C105.562 184.406 103.471 185.315 102.912 187.257C102.086 190.128 102.241 193.373 103.579 196.425C105.417 200.617 109.041 203.428 113.009 204.236C115.112 200.788 115.506 196.23 113.669 192.038Z" fill="#C0A6FF"/>
<path d="M121.451 192.038C122.788 188.986 125.073 186.667 127.747 185.318C129.558 184.406 131.648 185.315 132.207 187.257C133.033 190.128 132.878 193.373 131.54 196.425C129.703 200.617 126.079 203.428 122.11 204.236C120.007 200.788 119.613 196.23 121.451 192.038Z" fill="#C0A6FF"/>
<path d="M112.232 193.338C112.291 189.861 113.625 186.729 115.744 184.451C116.898 183.21 118.763 183.242 119.875 184.521C121.914 186.87 123.141 190.045 123.081 193.522C123.004 198.038 120.776 201.972 117.472 204.209C114.247 201.861 112.154 197.855 112.232 193.338Z" fill="#936FE9"/>
<path d="M117.454 203.049L117.625 195.909C117.63 195.906 117.635 195.903 117.64 195.899L119.99 193.629C120.017 193.604 120.018 193.561 119.992 193.535C119.967 193.508 119.924 193.508 119.897 193.534L117.629 195.724L117.704 192.586C117.713 192.569 117.713 192.549 117.706 192.531L117.773 189.699L120.086 187.466C120.113 187.44 120.114 187.398 120.088 187.372C120.063 187.345 120.02 187.345 119.993 187.37L117.778 189.51L117.858 186.162C117.859 186.125 117.83 186.094 117.793 186.094C117.756 186.093 117.725 186.122 117.724 186.158L117.641 189.642C117.618 189.667 117.617 189.705 117.639 189.731L117.575 192.391L115.111 189.86C115.086 189.833 115.043 189.833 115.017 189.858C114.99 189.884 114.99 189.926 115.016 189.952L117.571 192.577L117.407 199.435L114.931 196.892C114.906 196.866 114.863 196.865 114.837 196.891C114.81 196.916 114.81 196.959 114.835 196.985L117.402 199.622L117.32 203.046C117.32 203.067 117.329 203.086 117.344 203.099C117.355 203.108 117.369 203.114 117.385 203.114C117.422 203.115 117.453 203.086 117.454 203.049Z" fill="#313788"/>
</g>
</svg>
