<svg width="342" height="216" viewBox="0 0 342 216" fill="none" xmlns="http://www.w3.org/2000/svg">
<path opacity="0.2" d="M333.633 67.0875C331.116 30.6393 305.58 1.47235 263.02 0.0515558C250.436 -0.368211 238.064 1.79691 226.309 5.75786C211.079 10.8903 197.895 20.0163 182.266 24.3081C160.474 30.2927 138.265 28.2743 115.83 28.7567C100.533 29.0849 85.008 30.6183 70.9166 35.9648C12.0203 58.3118 22.8734 126.381 41.9453 170.263C42.8696 172.391 44.8468 175.236 45.8459 177.34L302.559 177.203C323.077 143.459 336.148 103.524 333.633 67.0875Z" fill="#D9C9FF"/>
<ellipse cx="169.935" cy="16.2819" rx="3.79206" ry="3.52041" fill="#C0A6FF"/>
<ellipse cx="290.807" cy="106.272" rx="3.79206" ry="3.74043" fill="#C0A6FF"/>
<path d="M259.422 137.771V162.316C259.422 166.411 252.714 169.728 244.449 169.728C236.183 169.728 229.481 166.411 229.481 162.316V137.771H259.422Z" fill="#D9C9FF"/>
<path d="M244.449 145.185C252.718 145.185 259.421 141.865 259.421 137.768C259.421 133.672 252.718 130.351 244.449 130.351C236.181 130.351 229.478 133.672 229.478 137.768C229.478 141.865 236.181 145.185 244.449 145.185Z" fill="#6A44C5"/>
<path d="M257.545 137.771C257.545 138.025 257.451 138.302 257.257 138.602C256.099 140.426 251.438 142.874 244.448 142.874C237.459 142.874 232.797 140.426 231.639 138.602C231.445 138.302 231.352 138.025 231.352 137.771C231.352 135.97 236.326 132.66 244.448 132.66C252.57 132.66 257.545 135.97 257.545 137.771Z" fill="#936FE9"/>
<path d="M244.16 138.438C244.143 138.438 244.125 138.438 244.108 138.436C243.71 138.41 243.41 138.089 243.438 137.719C243.457 137.473 245.256 112.958 238.706 98.3638C238.553 98.0216 238.727 97.6286 239.095 97.4858C239.464 97.3434 239.887 97.5051 240.04 97.8472C246.723 112.737 244.899 137.566 244.88 137.815C244.853 138.168 244.536 138.438 244.16 138.438Z" fill="#5D16BC"/>
<path d="M244.158 123.999C243.82 123.999 243.518 123.777 243.45 123.457C241.56 114.579 232.353 112.036 232.26 112.012C231.877 111.91 231.655 111.538 231.764 111.182C231.874 110.825 232.274 110.619 232.658 110.721C233.071 110.831 242.808 113.522 244.868 123.197C244.945 123.561 244.691 123.914 244.299 123.986C244.252 123.994 244.205 123.999 244.158 123.999Z" fill="#5D16BC"/>
<path d="M243.28 113.381C242.896 113.381 242.576 113.1 242.559 112.739C242.127 103.659 246.928 96.9471 247.133 96.6658C247.356 96.3584 247.805 96.2781 248.136 96.4855C248.467 96.6932 248.553 97.1103 248.33 97.4175C248.269 97.502 243.593 104.071 244.003 112.68C244.02 113.051 243.711 113.364 243.313 113.38C243.302 113.381 243.291 113.381 243.28 113.381Z" fill="#5D16BC"/>
<path d="M243.899 118.608C243.855 118.608 243.811 118.604 243.766 118.596C243.374 118.528 243.115 118.178 243.188 117.814C243.846 114.523 246.258 112.066 250.163 110.708C253.04 109.708 255.693 109.656 255.804 109.654C255.808 109.654 255.812 109.654 255.816 109.654C256.21 109.654 256.532 109.947 256.539 110.314C256.545 110.684 256.228 110.99 255.829 110.996C255.73 110.998 245.973 111.243 244.609 118.059C244.544 118.382 244.241 118.608 243.899 118.608Z" fill="#5D16BC"/>
<path d="M227.647 122.35C218.988 123.648 216.754 120.102 216.754 120.102C216.754 120.102 220.943 108.339 226.902 107.215C231.599 106.327 232.363 109.417 232.476 110.766C232.505 111.13 232.489 111.366 232.489 111.366C232.489 111.366 233.044 111.278 233.775 111.337C234.814 111.423 236.207 111.811 236.864 113.182C237.917 115.38 236.513 121.023 227.647 122.35Z" fill="#6A44C5"/>
<path d="M233.775 111.337C228.95 112.703 222.882 119.195 222.816 119.266C222.713 119.375 222.568 119.433 222.424 119.433C222.304 119.433 222.184 119.394 222.087 119.316C221.872 119.143 221.848 118.84 222.033 118.641C222.296 118.359 227.592 112.691 232.477 110.765C232.505 111.13 232.489 111.366 232.489 111.366C232.489 111.366 233.044 111.278 233.775 111.337Z" fill="#D9C9FF"/>
<path d="M239.771 98.1492C239.64 98.1414 239.506 98.1262 239.372 98.1051C239.209 98.2796 239.038 98.4428 238.858 98.5942C236.576 100.535 233.046 100.717 230.622 98.8378C229.556 98.0111 228.286 96.253 227.586 94.5879C224.64 87.5922 227.174 81.3135 232.255 78.1163C232.255 78.1163 238.395 76.6587 243.026 84.012C247.542 91.1775 244.798 98.529 239.771 98.1492Z" fill="#6A44C5"/>
<path d="M239.771 98.1491C239.641 98.1413 239.506 98.1261 239.372 98.105C239.209 98.2795 239.038 98.4426 238.858 98.5941C236.283 94.129 233.273 81.5991 233.139 81.0315C233.077 80.7725 233.252 80.5175 233.529 80.4599C233.808 80.4024 234.085 80.5654 234.147 80.8244C234.18 80.9624 237.279 93.8683 239.771 98.1491Z" fill="#D9C9FF"/>
<path d="M265.887 91.9828C265.887 91.9828 257.575 104.327 251.542 103.629C246.506 103.045 247.22 98.851 247.594 97.4778C247.668 97.2035 247.73 97.0425 247.73 97.0425C247.73 97.0425 247.35 96.9868 246.838 96.8142C246.095 96.561 245.069 96.0547 244.54 95.1015C244.367 94.7927 244.247 94.4359 244.206 94.0255C244.136 93.3217 244.518 92.3205 245.315 91.3117C247.231 88.8855 251.538 86.4114 257.676 87.8919C262.503 89.0562 265.887 91.9828 265.887 91.9828Z" fill="#6A44C5"/>
<path d="M260.998 91.7777C261.023 92.0404 260.814 92.2744 260.531 92.2994C253.767 92.8825 249.235 96.1123 247.594 97.4779C247.668 97.2036 247.73 97.0425 247.73 97.0425C247.73 97.0425 247.35 96.9869 246.838 96.8143C248.529 95.3777 253.237 91.9657 260.436 91.3443C260.717 91.3212 260.971 91.513 260.998 91.7777Z" fill="#D9C9FF"/>
<path d="M266.876 124.373C266.876 124.373 251.5 121.542 250.059 116.055C248.961 111.872 252.601 110.785 254.395 110.504C254.954 110.416 255.334 110.407 255.334 110.407C255.334 110.407 255.287 110.194 255.262 109.862C255.192 108.943 255.306 107.102 257.118 106.274C259.441 105.213 267.095 107.497 268.076 115.79C268.621 120.395 266.876 124.373 266.876 124.373Z" fill="#6A44C5"/>
<path d="M264.255 120.294C264.191 120.317 264.125 120.328 264.061 120.328C263.857 120.328 263.663 120.215 263.582 120.029C261.024 114.141 255.123 110.886 254.395 110.504C254.954 110.416 255.334 110.406 255.334 110.406C255.334 110.406 255.286 110.194 255.262 109.862C256.843 110.744 262.077 114.001 264.54 119.668C264.646 119.914 264.52 120.194 264.255 120.294Z" fill="#D9C9FF"/>
<path d="M66.6954 173.069L250.09 169.86L288.758 175.396L248.052 176.108L267.124 178.433L322.402 177.467L342 180.332L110.633 184.381L92.3104 181.196L130.818 180.818L118.377 178.377L45.1044 179.487L18.2529 173.916L66.6954 173.069Z" fill="#F0EBFF"/>
<path d="M167.899 168.367C167.899 169.606 167.358 170.727 166.485 171.54C165.612 172.352 164.408 172.855 163.077 172.855H31.6773C29.0138 172.855 26.8555 170.845 26.8555 168.367C26.8555 167.125 27.3958 166.004 28.2689 165.192C29.139 164.379 30.3463 163.876 31.6773 163.876H163.075C165.739 163.876 167.897 165.886 167.897 168.367H167.899Z" fill="#8363D9"/>
<path d="M329.512 168.367C329.512 169.606 328.972 170.727 328.098 171.54C327.228 172.352 326.021 172.855 324.69 172.855H163.077C164.408 172.855 165.612 172.352 166.486 171.54C167.359 170.727 167.899 169.606 167.899 168.367C167.899 165.885 165.739 163.876 163.077 163.876H324.69C327.354 163.876 329.512 165.886 329.512 168.367Z" fill="#D9C9FF"/>
<path d="M223.559 163.876H34.7682C32.184 163.876 30.0181 162.069 29.7326 159.68L28.8275 152.043L26.6676 133.803L24.607 116.391L23.4988 107.027L20.6537 83.0007L16.5767 48.5618L14.6503 32.2936C14.3191 29.5003 16.6667 27.0608 19.6813 27.0608H208.476C211.057 27.0608 213.225 28.8709 213.507 31.2593L225.436 132.007L228.281 156.032L228.59 158.646C228.919 161.438 226.572 163.874 223.557 163.874L223.559 163.876Z" fill="#936FE9"/>
<path d="M219.215 158.511H38.2547C36.6261 158.511 35.2584 157.37 35.0829 155.865L24.6271 67.568L20.7684 34.9889C20.6051 33.6193 21.7575 32.4258 23.2335 32.4258H204.989C206.617 32.4258 207.985 33.5667 208.161 35.0713L214.002 84.4088L222.385 155.215C222.594 156.974 221.114 158.512 219.213 158.512L219.215 158.511Z" fill="#5D3FBC"/>
<path d="M34.7685 163.876H29.5726C26.9884 163.876 24.8225 162.069 24.5386 159.68L9.45477 32.2922C9.12506 29.5003 11.4727 27.0608 14.4873 27.0608H19.6831C16.6685 27.0608 14.3209 29.5003 14.6521 32.2922L29.7359 159.68C30.0214 162.069 32.1858 163.876 34.77 163.876H34.7685Z" fill="#D9C9FF"/>
<path d="M226.186 163.876H268.693C268.693 164.794 268.293 165.621 267.649 166.222C267.003 166.82 266.115 167.193 265.128 167.193H229.748C227.779 167.193 226.184 165.709 226.184 163.876H226.186Z" fill="#9978EA"/>
<path d="M323.058 163.874H35.7881C35.7881 162.942 36.6017 162.187 37.6014 162.187H321.243C321.744 162.187 322.199 162.375 322.527 162.681C322.855 162.989 323.058 163.41 323.058 163.876V163.874Z" fill="#5D3FBC"/>
<path d="M71.8829 167.192H62.5185C61.9638 167.192 61.5142 167.61 61.5142 168.127V169.015C61.5142 169.531 61.9638 169.95 62.5185 169.95H71.8829C72.4376 169.95 72.8873 169.531 72.8873 169.015V168.127C72.8873 167.61 72.4376 167.192 71.8829 167.192Z" fill="#D9C9FF"/>
<path d="M84.8312 167.192H75.4668C74.9121 167.192 74.4624 167.61 74.4624 168.127V169.015C74.4624 169.531 74.9121 169.95 75.4668 169.95H84.8312C85.3859 169.95 85.8356 169.531 85.8356 169.015V168.127C85.8356 167.61 85.3859 167.192 84.8312 167.192Z" fill="#D9C9FF"/>
<path d="M34.6189 170.1C35.5275 169.996 36.1731 169.226 36.0609 168.38C35.9487 167.534 35.1211 166.933 34.2125 167.038C33.3039 167.142 32.6583 167.912 32.7705 168.758C32.8828 169.604 33.7103 170.205 34.6189 170.1Z" fill="#D9C9FF"/>
<path d="M35.4557 168.572C35.4557 169.11 34.9855 169.548 34.407 169.548C33.8285 169.548 33.3584 169.11 33.3584 168.572C33.3584 168.033 33.8285 167.595 34.407 167.595C34.9855 167.595 35.4557 168.033 35.4557 168.572Z" fill="#5D3FBC"/>
<path d="M67.8407 53.2292H53.6788L36.9053 32.4243H51.0671L67.8407 53.2292Z" fill="#F0EBFF"/>
<path d="M96.1394 53.2292H81.9791L65.2056 32.4243H79.3659L96.1394 53.2292Z" fill="#F0EBFF"/>
<path d="M124.441 53.2292H110.28L93.5054 32.4243H107.667L124.441 53.2292Z" fill="#F0EBFF"/>
<path d="M152.74 53.2292H138.579L121.806 32.4243H135.966L152.74 53.2292Z" fill="#F0EBFF"/>
<path d="M181.04 53.2292H166.88L150.106 32.4243H164.267L181.04 53.2292Z" fill="#F0EBFF"/>
<path d="M209.34 53.2292H195.18L178.406 32.4243H192.567L209.34 53.2292Z" fill="#F0EBFF"/>
<path d="M53.6897 53.2292H39.5294L22.7559 32.4243H36.9162L53.6897 53.2292Z" fill="#936FE9"/>
<path d="M81.9905 53.2292H67.8302L51.0566 32.4243H65.217L81.9905 53.2292Z" fill="#936FE9"/>
<path d="M110.291 53.2292H96.1295L79.356 32.4243H93.5163L110.291 53.2292Z" fill="#936FE9"/>
<path d="M138.591 53.2292H124.43L107.657 32.4243H121.817L138.591 53.2292Z" fill="#936FE9"/>
<path d="M166.891 53.2292H152.73L135.956 32.4243H150.118L166.891 53.2292Z" fill="#936FE9"/>
<path d="M195.191 53.2292H181.03L164.257 32.4243H178.417L195.191 53.2292Z" fill="#936FE9"/>
<path d="M223.491 53.2292H209.331L192.558 32.4243H205.503C206.268 32.4243 206.988 32.7596 207.448 33.3294L223.491 53.2292Z" fill="#936FE9"/>
<path d="M53.6895 53.2292V55.5665C53.6895 59.2066 56.8598 62.1576 60.7704 62.1576C64.681 62.1576 67.8513 59.2066 67.8513 55.5665V53.2292H53.691H53.6895Z" fill="#AE8FF7"/>
<path d="M82.0117 53.2292V55.5665C82.0117 59.2066 85.182 62.1576 89.0927 62.1576C93.0033 62.1576 96.1736 59.2066 96.1736 55.5665V53.2292H82.0132H82.0117Z" fill="#AE8FF7"/>
<path d="M110.334 53.2292V55.5665C110.334 59.2066 113.504 62.1576 117.415 62.1576C121.326 62.1576 124.496 59.2066 124.496 55.5665V53.2292H110.336H110.334Z" fill="#AE8FF7"/>
<path d="M138.655 53.2292V55.5665C138.655 59.2066 141.825 62.1576 145.736 62.1576C149.646 62.1576 152.817 59.2066 152.817 55.5665V53.2292H138.656H138.655Z" fill="#AE8FF7"/>
<path d="M166.977 53.2292V55.5665C166.977 59.2066 170.147 62.1576 174.057 62.1576C177.968 62.1576 181.138 59.2066 181.138 55.5665V53.2292H166.978H166.977Z" fill="#AE8FF7"/>
<path d="M195.297 53.2292V55.5665C195.297 59.2066 198.468 62.1576 202.378 62.1576C206.289 62.1576 209.459 59.2066 209.459 55.5665V53.2292H195.299H195.297Z" fill="#AE8FF7"/>
<path d="M53.6892 53.2292V55.5665C53.6892 57.3865 52.897 59.0347 51.6163 60.2267C50.5005 61.2653 49.0169 61.9587 47.3623 62.1206C47.3531 62.1221 47.3439 62.1235 47.3333 62.1235C47.0951 62.1462 46.854 62.1576 46.6097 62.1576C46.4983 62.1576 46.3869 62.1547 46.277 62.1505C46.2404 62.1505 46.2037 62.1462 46.1656 62.1434C45.9748 62.1334 45.787 62.1164 45.6008 62.0908C42.1679 61.6347 39.5288 58.8869 39.5288 55.5665V53.2292H53.6892Z" fill="#D9C9FF"/>
<path d="M67.8511 53.2292V55.5665C67.8511 59.2066 71.0214 62.1576 74.932 62.1576C78.8426 62.1576 82.0129 59.2066 82.0129 55.5665V53.2292H67.8526H67.8511Z" fill="#D9C9FF"/>
<path d="M96.1719 53.2292V55.5665C96.1719 59.2066 99.3422 62.1576 103.253 62.1576C107.163 62.1576 110.334 59.2066 110.334 55.5665V53.2292H96.1734H96.1719Z" fill="#D9C9FF"/>
<path d="M124.494 53.2292V55.5665C124.494 59.2066 127.664 62.1576 131.575 62.1576C135.486 62.1576 138.656 59.2066 138.656 55.5665V53.2292H124.496H124.494Z" fill="#D9C9FF"/>
<path d="M152.815 53.2292V55.5665C152.815 59.2066 155.985 62.1576 159.896 62.1576C163.806 62.1576 166.977 59.2066 166.977 55.5665V53.2292H152.816H152.815Z" fill="#D9C9FF"/>
<path d="M181.137 53.2292V55.5665C181.137 59.2066 184.308 62.1576 188.218 62.1576C192.129 62.1576 195.299 59.2066 195.299 55.5665V53.2292H181.139H181.137Z" fill="#D9C9FF"/>
<path d="M209.458 53.2292V55.5665C209.458 59.2066 212.628 62.1576 216.539 62.1576C220.45 62.1576 223.62 59.2066 223.62 55.5665V53.2292H209.46H209.458Z" fill="#D9C9FF"/>
<path d="M45.7455 62.0471C42.2683 61.5939 39.595 58.863 39.595 55.563V53.2402L22.6046 32.5637C22.0094 32.623 21.4744 32.9266 21.1528 33.3884L21.0972 33.4674L38.6318 54.4122C38.6318 54.4122 38.7354 61.2423 45.7455 62.0471Z" fill="#936FE9"/>
<path d="M270.679 117.855L314.308 119.604L319.679 155.583L320.914 163.86L316.822 163.696L315.586 155.418L280.14 153.998L281.377 162.276L277.284 162.112L275.891 152.775L270.679 117.855Z" fill="#6A44C5"/>
<path d="M269.775 117.818L313.403 119.568L318.774 155.547L320.009 163.824L315.918 163.66L314.681 155.383L279.235 153.961L280.472 162.239L276.379 162.075L274.986 152.738L269.775 117.818Z" fill="#936FE9"/>
<path d="M266.44 167.731L262.349 167.567L263.82 158.266L270.216 117.836L313.844 119.585L307.638 158.825L305.977 169.317L301.886 169.153L303.357 159.851L267.911 158.429L266.44 167.731Z" fill="#6A44C5"/>
<path d="M262.775 158.224L306.404 159.972L312.799 119.544L269.171 117.794L262.775 158.224Z" fill="#D9C9FF"/>
<path d="M272.662 121.75L267.465 154.596L268.071 154.62L273.18 122.321L308.021 123.717L308.107 123.17L272.662 121.75Z" fill="#6A44C5"/>
<path d="M273.18 122.321L268.071 154.62L302.913 156.017L308.021 123.717L273.18 122.321Z" fill="#6A44C5"/>
<path d="M300.841 169.11L304.932 169.274L306.592 158.782L302.5 158.619L300.841 169.11Z" fill="#D9C9FF"/>
<path d="M261.304 167.526L265.395 167.689L267.054 157.198L262.963 157.034L261.304 167.526Z" fill="#D9C9FF"/>
<path d="M286.627 131.511L285.783 128.738L286.511 128.708L286.792 129.854C286.874 130.184 286.953 130.543 287.016 130.825H287.025C287.06 130.519 287.117 130.18 287.176 129.832L287.378 128.674L288.101 128.645L288.397 129.816C288.48 130.141 288.542 130.44 288.602 130.749H288.611C288.642 130.435 288.694 130.104 288.741 129.769L288.933 128.611L289.626 128.583L288.979 131.416L288.242 131.446L287.932 130.251C287.86 129.971 287.799 129.711 287.749 129.391H287.74C287.7 129.709 287.663 129.978 287.605 130.264L287.375 131.481L286.628 131.511H286.627Z" fill="white"/>
<path d="M291.843 130.116L290.735 130.16L290.765 130.825L292.003 130.775L292.027 131.295L290.107 131.372L289.978 128.57L291.835 128.496L291.86 129.016L290.684 129.063L290.712 129.646L291.82 129.601L291.844 130.117L291.843 130.116Z" fill="white"/>
<path d="M294.061 130.492L293.879 131.22L293.174 131.248L293.964 128.409L294.857 128.374L295.921 131.139L295.189 131.169L294.923 130.458L294.061 130.492ZM294.802 129.988L294.587 129.401C294.526 129.236 294.462 129.032 294.41 128.867H294.401C294.364 129.036 294.329 129.249 294.288 129.414L294.137 130.016L294.802 129.989V129.988Z" fill="white"/>
<path d="M296.194 128.358C296.411 128.316 296.736 128.279 297.098 128.264C297.545 128.246 297.86 128.296 298.083 128.446C298.267 128.573 298.374 128.763 298.386 129.022C298.403 129.38 298.142 129.635 297.887 129.734V129.746C298.101 129.817 298.226 129.999 298.315 130.254C298.423 130.566 298.534 130.928 298.597 131.034L297.899 131.062C297.846 130.985 297.765 130.759 297.66 130.417C297.564 130.07 297.429 129.981 297.151 129.988L296.945 129.996L296.996 131.099L296.321 131.126L296.193 128.361L296.194 128.358ZM296.924 129.537L297.193 129.526C297.532 129.512 297.725 129.347 297.715 129.101C297.702 128.844 297.509 128.722 297.196 128.73C297.031 128.738 296.938 128.753 296.889 128.763L296.924 129.536V129.537Z" fill="white"/>
<path d="M300.708 129.761L299.6 129.805L299.63 130.47L300.868 130.42L300.893 130.94L298.973 131.017L298.843 128.215L300.7 128.141L300.725 128.661L299.549 128.708L299.577 129.29L300.685 129.246L300.71 129.762L300.708 129.761Z" fill="white"/>
<path d="M283.908 133.733C284.136 138.662 279.062 144.551 275.896 144.679C275.263 144.705 273.57 144.182 273.477 142.178C273.459 141.766 273.502 141.332 273.567 140.915C272.145 140.323 270.824 139.176 270.731 137.193C270.58 133.933 276.012 129.84 280.212 129.671C282.849 129.566 283.829 132.024 283.908 133.733ZM281.973 133.476C281.874 131.335 281.3 130.808 280.52 130.839C277.65 130.954 272.248 135.243 272.348 137.403C272.377 138.031 272.88 138.876 273.924 139.504C274.668 137.291 276.144 135.383 276.628 135.363C277.324 135.334 278.302 135.925 278.32 136.318C278.337 136.671 276.69 138.095 275.773 140.178C276.327 140.293 276.965 140.347 277.681 140.319C278.123 140.301 278.128 139.926 278.128 139.926C278.128 139.926 278.449 141.368 276.36 141.452C276.086 141.464 275.727 141.458 275.344 141.395C275.2 141.952 275.124 142.565 275.152 143.174C275.174 143.684 275.419 143.93 275.841 143.913C277.466 143.848 282.174 137.797 281.975 133.476H281.973Z" fill="white"/>
<path d="M289.924 136.325C289.968 137.267 288.484 141.773 286.375 141.857C285.363 141.898 284.823 140.739 285.247 140.328C285.427 140.124 285.461 140.378 285.609 140.372C287.318 140.304 288.258 136.45 288.258 136.45C288.258 136.45 285.647 138.011 283.91 142.035C283.319 143.436 282.678 145.114 282.009 147.109C281.805 147.727 282.132 147.91 281.964 147.957C281.588 148.07 280.741 147.573 280.695 146.591C280.555 143.548 284.942 135.128 285.258 135.116C285.996 135.086 286.798 135.526 286.816 135.918C286.822 136.036 286.566 136.46 286.12 137.304C287.179 136.002 288.21 134.976 288.886 134.949C289.498 134.925 289.881 135.461 289.922 136.325H289.924Z" fill="white"/>
<path d="M296.509 138.442C295.799 139.533 293.757 141.562 291.733 141.644C290.573 141.691 289.771 140.817 289.716 139.62C289.606 137.244 292.58 134.803 294.077 134.742C294.9 134.709 295.616 135.094 295.662 136.095C295.697 136.86 294.476 138.798 292.916 138.861C292.43 138.881 292.101 138.618 291.942 138.369C291.687 138.793 291.318 139.949 292.232 140.068C293.848 140.279 295.381 138.703 296.277 137.959C297.173 137.214 296.69 138.217 296.51 138.44L296.509 138.442ZM292.215 137.906C293.43 137.68 294.944 136.144 294.396 136.166C293.784 136.19 292.827 136.957 292.215 137.906Z" fill="white"/>
<path d="M303.838 138.817C303.332 139.29 301.247 141.262 300.697 141.283C300.487 141.292 300.03 141.015 299.974 139.797C299.932 138.894 300.259 137.76 300.7 136.758C297.831 139.135 296.779 141.086 296.663 141.307C296.625 141.407 296.542 141.45 296.353 141.458C295.741 141.482 295.541 140.802 295.518 140.311C295.39 137.542 297.386 134.55 297.85 134.532C298.611 134.502 299.543 135.015 299.569 135.584C299.581 135.86 298.815 136.185 297.657 138.553C299.34 136.576 301.712 134.377 302.366 134.35C303.104 134.32 303.907 134.78 303.925 135.172C303.938 135.448 302.115 137.606 301.587 139.456C301.934 139.186 303.606 137.88 303.849 137.635C304.538 136.977 304.651 138.055 303.84 138.815L303.838 138.817Z" fill="white"/>
<g clip-path="url(#clip0_91_14043)">
<path d="M78.9913 96.9952C78.6091 95.9197 84.2091 98.3973 90.8834 96.3084C96.6354 94.5088 91.4481 91.0036 92.9142 86.5596C93.9581 83.3951 93.6272 74.8904 84.7377 74.5496C84.7377 74.5496 82.6004 73.3428 79.5123 74.2994C72.4901 76.4753 57.8865 98.5482 78.9913 96.997V96.9952Z" fill="#060352"/>
<path d="M88.7324 115.662C88.7324 115.662 89.5767 117.224 91.1093 119.017C92.9557 121.175 102.65 116.051 101.813 115.662C100.978 115.274 96.1065 102.176 94.9485 100.531C93.7885 98.8853 89.8353 98.0299 89.8353 98.0299L88.7324 115.662Z" fill="#D9C9FF"/>
<path d="M56.0245 203.991C56.0245 203.991 53.349 206.27 53.872 207.889C54.3949 209.507 56.8079 210.588 57.1349 212.567C57.462 214.546 58.7664 215.625 59.9416 215.625H65.5415C65.5415 215.625 66.4067 214.232 64.3189 213.813C62.231 213.392 61.4438 211.067 61.575 208.909C61.7062 206.751 61.3791 203.872 61.3791 203.872L56.9429 202.912L56.0302 203.991H56.0245Z" fill="#262727"/>
<path d="M78.6678 204.96C78.6678 204.96 77.7056 214.613 78.8807 215.153L93.9103 215.124C93.9103 215.124 93.9103 213.506 91.4953 213.145C89.0804 212.785 84.8401 211.467 84.1213 208.528C83.4025 205.588 78.6659 204.96 78.6659 204.96H78.6678Z" fill="#262727"/>
<path d="M67.1046 109.151C67.1046 109.151 66.8802 112.099 67.1046 115.636C67.2529 117.98 69.7952 121.12 70.1546 121.897C71.0597 123.846 72.079 124.162 72.079 124.162L79.9702 125.967L82.7445 126.6L91.4953 124.162C91.4953 124.162 95.4808 113.779 93.8798 107.933C92.2787 102.089 89.8334 98.0299 89.8334 98.0299C89.8334 98.0299 83.8873 96.7822 73.3967 97.4762L67.1027 109.151H67.1046Z" fill="#D9C9FF"/>
<path d="M66.3535 115.717C66.5018 118.062 69.7952 121.12 70.1565 121.897C71.0616 123.846 72.0808 124.162 72.0808 124.162L79.9721 125.967L81.3963 122.155C81.3963 122.155 69.8656 119.327 71.7195 109.365L66.3516 115.716L66.3535 115.717Z" fill="#936FE9"/>
<path d="M90.94 125.738C90.94 125.738 95.2736 138.326 95.5512 142.614C95.8288 146.9 87.2682 203.505 86.9221 205.478C86.597 207.34 84.1212 208.527 84.1212 208.527C84.1212 208.527 82.9822 209.154 81.3564 208.726C79.1012 208.132 78.3882 207.42 78.3882 207.42C78.3882 207.42 75.0149 167.051 77.1027 152.629C79.1906 138.209 79.2153 125.738 79.2153 125.738H90.94Z" fill="#AE8FF7"/>
<path d="M72.5813 125.363C72.5813 125.363 65.9716 133.641 65.3555 139.237C64.7394 144.833 64.3896 164.488 63.0756 169.944C61.7636 175.4 56.9395 185.897 56.9395 202.912C56.9395 202.912 57.4415 203.886 58.9893 204.406C59.4837 204.573 60.1473 204.733 60.7919 204.871C62.0678 205.145 63.378 204.563 63.9617 203.468C67.2228 197.339 77.6108 177.574 78.1432 173.47C78.5197 170.567 81.7998 151.35 88.9552 140.074C90.6722 137.368 87.9017 126.602 87.9017 126.602L72.5832 125.363H72.5813Z" fill="#936FE9"/>
<path d="M91.6324 123.794C91.6324 123.794 89.8925 125.079 86.4374 125.143C82.3093 125.221 72.081 124.162 72.081 124.162C72.081 124.162 71.6266 125.347 71.6456 126.598C71.6456 126.598 84.1385 129.539 91.3776 127.028C91.3776 127.028 92.3112 125.388 91.6343 123.794H91.6324Z" fill="#936FE9"/>
<path d="M85.5439 126.474C85.5439 125.377 86.3882 124.485 87.4283 124.485C88.4685 124.485 89.3127 125.377 89.3127 126.474C89.3127 127.571 88.4685 128.464 87.4283 128.464C86.3882 128.464 85.5439 127.571 85.5439 126.474ZM86.1676 126.474C86.1676 127.25 86.7324 127.882 87.4264 127.882C88.1205 127.882 88.6852 127.25 88.6852 126.474C88.6852 125.699 88.1205 125.067 87.4264 125.067C86.7324 125.067 86.1676 125.699 86.1676 126.474Z" fill="white"/>
<path d="M78.4019 132.084L97.1793 132.248L106.419 111.981L87.6413 111.816L78.4019 132.084Z" fill="#6980E2"/>
<path d="M80.8584 122.925L82.2351 121.347C82.2351 121.347 83.1668 120.571 83.8419 120.44C84.5169 120.309 85.9449 119.54 86.0837 119.757C86.2226 119.973 84.9866 121.517 84.9866 121.517L84.9238 121.526C86.3405 122.522 89.921 121.643 90.3621 122.048C90.8984 122.54 89.6263 123.604 88.9417 124.201C88.2591 124.799 86.3062 125.795 84.785 125.351C83.6726 125.028 81.9213 124.699 81.9213 124.699L80.8584 122.925Z" fill="#FFB27D"/>
<path d="M105.006 115.547C105.006 115.547 103.825 114.296 103.074 114.896C102.323 115.496 103.27 118.451 103.985 118.149C104.7 117.849 105.415 115.913 105.004 115.545L105.006 115.547Z" fill="#FFB27D"/>
<path d="M73.399 97.4762C73.399 97.4762 68.0234 98.0299 64.1653 104.572C61.1228 109.731 55.9241 119.24 57.8846 121.926C58.746 123.106 67.0042 127.301 82.9294 124.902C82.9294 124.902 82.6784 123.024 81.3929 122.154C81.3929 122.154 67.9892 118.138 68.012 117.339C68.0557 115.827 69.8242 114.523 77.3104 107.532C79.345 105.631 73.3952 97.4762 73.3952 97.4762H73.399Z" fill="#C3ACFB"/>
<path d="M77.5366 97.7424C77.3522 97.5116 77.5898 96.7733 77.8846 95.4014C78.1527 94.1573 78.6053 92.2352 78.5957 90.0718L78.9913 90.1339L85.6541 91.1792C85.6541 91.1792 85.502 92.8422 85.4982 94.4076V94.4466C85.4906 95.8079 85.8918 97.863 85.3993 98.131C82.8741 99.5118 78.2459 98.6315 77.5366 97.7406V97.7424Z" fill="#FFB27D"/>
<path d="M85.6541 91.1793C85.6541 91.1793 85.521 93.5238 85.5172 95.0892C81.7883 95.0057 79.7994 91.6283 78.9912 90.1322L85.6541 91.1775V91.1793Z" fill="#E8945B"/>
<path d="M86.0553 93.9745C86.0553 93.9745 77.3216 92.8138 78.1811 87.7486C79.0387 82.6834 78.491 79.1232 84.1024 79.6503C89.7138 80.1774 90.4687 82.2699 90.6227 84.0252C90.7767 85.7804 88.3504 94.1467 86.0572 93.9745H86.0553Z" fill="#FFB27D"/>
<path d="M86.9565 80.0097C86.9565 80.0097 82.6838 84.2889 78.8732 84.6226C75.0626 84.9562 74.5073 85.1139 74.5073 85.1139C74.5073 85.1139 77.6695 83.4492 78.8732 79.9032C78.8732 79.9032 85.6407 76.9163 86.9584 80.0115L86.9565 80.0097Z" fill="#060352"/>
<path d="M86.5977 79.9439C86.5977 79.9439 89.0803 81.3914 89.6013 82.703C90.1128 83.9861 90.4532 85.6349 89.9854 87.5268C89.9854 87.5268 92.4707 83.7554 90.843 81.1714C89.1146 78.4311 86.5977 79.9439 86.5977 79.9439Z" fill="#060352"/>
<g clip-path="url(#clip1_91_14043)">
<path d="M83.319 87.1967C83.1067 87.1967 82.9345 86.9321 82.9345 86.6057C82.9345 86.2793 83.1067 86.0146 83.319 86.0146C83.5314 86.0146 83.7036 86.2793 83.7036 86.6057C83.7036 86.9321 83.5314 87.1967 83.319 87.1967Z" fill="#2B2E33"/>
<path d="M87.925 87.1967C87.7126 87.1967 87.5404 86.9321 87.5404 86.6057C87.5404 86.2793 87.7126 86.0146 87.925 86.0146C88.1374 86.0146 88.3096 86.2793 88.3096 86.6057C88.3096 86.9321 88.1374 87.1967 87.925 87.1967Z" fill="#2B2E33"/>
<path d="M85.5454 89.8785C85.5581 89.8785 85.5707 89.8768 85.5834 89.8723C85.7061 89.8305 86.7945 89.4522 87.0087 88.9867C87.221 88.5274 85.8015 86.093 85.5152 85.6097C85.486 85.5607 85.4198 85.542 85.3663 85.5687C85.3127 85.5954 85.2933 85.6559 85.3215 85.7049C86.0128 86.8709 86.9308 88.6369 86.8053 88.9075C86.6553 89.2341 85.8171 89.5777 85.5065 89.6818C85.45 89.7014 85.4208 89.7593 85.4413 89.8109C85.4578 89.8518 85.4997 89.8768 85.5445 89.8768L85.5454 89.8785Z" fill="#D88894"/>
<path d="M86.0868 91.9748C86.7041 91.9748 87.2074 91.8012 87.2181 91.7976C87.2746 91.7772 87.3028 91.7193 87.2814 91.6677C87.259 91.6152 87.1938 91.5903 87.1393 91.6098C87.0536 91.6392 85.0529 92.3264 84.3003 90.7295C84.2759 90.6788 84.2117 90.6548 84.1552 90.677C84.0997 90.6993 84.0734 90.758 84.0978 90.8096C84.5417 91.7523 85.3887 91.9748 86.0878 91.9748H86.0868Z" fill="#D88894"/>
<path d="M86.8394 85.1692C86.8598 85.1692 86.8812 85.1638 86.8997 85.1523C88.1138 84.4259 88.9004 85.1104 88.9326 85.1398C88.9754 85.1781 89.0455 85.1781 89.0884 85.1389C89.1312 85.0997 89.1302 85.0357 89.0884 84.9965C89.0796 84.9885 88.1459 84.1669 86.78 84.984C86.7293 85.0143 86.7147 85.0766 86.7478 85.1238C86.7693 85.1531 86.8043 85.1692 86.8403 85.1692H86.8394Z" fill="#2B2E33"/>
<path d="M82.0229 85.169C82.0434 85.169 82.0648 85.1637 82.0833 85.1521C83.2974 84.4258 84.084 85.1103 84.1162 85.1397C84.16 85.1779 84.2291 85.1779 84.2719 85.1388C84.3148 85.0996 84.3138 85.0355 84.2719 84.9964C84.2632 84.9884 83.3295 84.1668 81.9636 84.9839C81.9129 85.0142 81.8983 85.0765 81.9314 85.1237C81.9528 85.153 81.9879 85.169 82.0239 85.169H82.0229Z" fill="#2B2E33"/>
</g>
</g>
<path fill-rule="evenodd" clip-rule="evenodd" d="M125.615 88.4502C133.861 88.4502 140.547 94.656 140.547 102.311C140.547 109.967 133.861 116.173 125.615 116.173C117.369 116.173 110.685 109.967 110.685 102.311C110.685 94.6552 117.369 88.4502 125.615 88.4502Z" fill="#C0A6FF"/>
<path fill-rule="evenodd" clip-rule="evenodd" d="M120.785 129.531C124.454 131.063 126.092 135.067 124.443 138.475C122.795 141.883 118.484 143.404 114.815 141.873C111.147 140.341 109.51 136.337 111.158 132.929C112.807 129.521 117.117 128 120.785 129.531Z" fill="#C0A6FF"/>
<path fill-rule="evenodd" clip-rule="evenodd" d="M125.379 91.0905C131.924 91.0905 137.229 96.0163 137.229 102.092C137.229 108.167 131.924 113.093 125.379 113.093C118.834 113.093 113.529 108.168 113.529 102.092C113.529 96.0155 118.834 91.0905 125.379 91.0905Z" fill="#D9C9FF"/>
<path fill-rule="evenodd" clip-rule="evenodd" d="M120.083 130.983C122.889 132.154 124.141 135.216 122.88 137.822C121.62 140.428 118.324 141.592 115.518 140.421C112.713 139.249 111.461 136.188 112.721 133.581C113.982 130.975 117.278 129.812 120.083 130.983Z" fill="#D9C9FF"/>
<path fill-rule="evenodd" clip-rule="evenodd" d="M129.173 96.6078C128.573 96.3151 127.72 96.0248 126.56 95.9896V94.1709H124.78V96.1272C122.857 96.5382 121.714 97.8427 121.714 99.5246C121.714 101.258 122.966 102.149 124.726 102.938C126.397 103.625 126.995 104.191 126.995 105.065C126.995 105.924 126.36 106.593 125.053 106.593C123.91 106.593 122.84 106.216 122.131 105.82L121.587 107.742C122.277 108.12 123.457 108.462 124.617 108.497V110.453H126.397V108.36C128.447 107.982 129.645 106.575 129.645 104.826C129.645 103.041 128.664 102.081 126.523 101.171C125.089 100.503 124.31 100.021 124.31 99.2327C124.31 98.5633 124.927 97.8595 126.142 97.8595C127.195 97.8595 128.084 98.2202 128.629 98.4777L129.173 96.6078Z" fill="white"/>
<path fill-rule="evenodd" clip-rule="evenodd" d="M120.931 133.516C120.704 133.264 120.353 132.962 119.798 132.711L120.19 131.9L119.327 131.54L118.905 132.412C117.884 132.206 117.048 132.556 116.686 133.306C116.312 134.079 116.727 134.73 117.41 135.438C118.072 136.083 118.24 136.456 118.051 136.846C117.866 137.229 117.414 137.399 116.78 137.134C116.226 136.903 115.788 136.518 115.53 136.198L114.852 136.945C115.105 137.253 115.603 137.644 116.158 137.895L115.737 138.767L116.599 139.127L117.051 138.194C118.127 138.44 119.011 138.056 119.388 137.275C119.773 136.48 119.505 135.853 118.662 135.014C118.111 134.426 117.837 134.053 118.007 133.702C118.152 133.403 118.603 133.214 119.192 133.46C119.702 133.673 120.056 134.014 120.265 134.239L120.931 133.516Z" fill="white"/>
<path d="M164.237 215.999H179.227C179.658 215.999 180.016 215.696 180.053 215.299L180.76 207.542L171.23 206.834L170.784 210.033C170.752 210.254 170.619 210.451 170.417 210.575L163.783 214.593C163.094 215.006 163.415 216 164.237 216V215.999Z" fill="#262727"/>
<path d="M171.228 206.833L180.76 207.542L181.104 203.302L171.713 202.639L171.228 206.833Z" fill="url(#paint0_linear_91_14043)"/>
<path d="M204.43 203.325H214.442L214.387 203.184H204.374L204.43 203.325Z" fill="url(#paint1_linear_91_14043)"/>
<path d="M201.748 215.993H217.858C218.551 215.993 219.037 215.353 218.803 214.747L215.953 207.361H205.968L207.133 210.333C207.303 210.764 207.111 211.246 206.674 211.468L201.261 214.244C200.357 214.709 200.71 215.993 201.748 215.993H201.748Z" fill="#262727"/>
<path d="M204.43 203.45L205.967 207.361H215.953L214.442 203.45H204.43Z" fill="url(#paint2_linear_91_14043)"/>
<path d="M178.73 141.214L170.612 203.255C170.571 203.532 170.789 203.784 171.089 203.805L181.565 204.734C181.834 204.753 182.074 204.579 182.118 204.331L190.945 163.409C190.945 163.409 193.33 185.962 203.538 204.335C203.68 204.591 203.966 204.752 204.276 204.752H214.841C215.439 204.752 215.839 204.178 215.592 203.671C213.795 199.988 208.202 185.871 205.286 170.557C201.814 152.311 201.215 143.382 201.215 143.382L200.975 141.213H178.73V141.214Z" fill="#6A44C5"/>
<path d="M174.986 169.765C177.272 170.115 179.018 171.954 179.018 174.177C179.018 176.648 176.86 178.652 174.2 178.652C174.073 178.652 173.949 178.644 173.825 178.635L174.986 169.764V169.765Z" fill="#6A44C5"/>
<path d="M192.416 171.447C195.077 171.447 197.234 173.451 197.234 175.923C197.234 177.812 195.973 179.424 194.192 180.081C193.357 176.875 192.717 173.94 192.236 171.455C192.296 171.453 192.355 171.447 192.416 171.447H192.416Z" fill="#6A44C5"/>
<g style="mix-blend-mode:soft-light">
<path d="M180.139 204.567C180.975 201.431 182.386 194.863 184.172 186.546C185.629 179.765 187.279 172.079 189.163 163.68C192.031 150.882 194.676 142.584 194.702 142.502L194.514 142.449C194.488 142.531 191.841 150.837 188.97 163.643C187.087 172.043 185.436 179.729 183.98 186.511C182.194 194.825 180.783 201.392 179.95 204.523L180.14 204.567H180.139Z" fill="white"/>
</g>
<path d="M181.565 204.734L177.838 204.403C177.838 204.403 183.939 179.9 185.799 170.159C188.352 156.784 185.24 143.037 184.984 141.214H197.933L190.945 163.41L182.118 204.332C182.073 204.58 181.834 204.754 181.565 204.735V204.734Z" fill="#936FE9"/>
<g style="mix-blend-mode:soft-light">
<path d="M213.738 204.799L213.907 204.706C213.813 204.558 204.442 189.355 197.469 142.786L197.275 142.811C204.254 189.427 213.644 204.65 213.738 204.799Z" fill="white"/>
</g>
<path d="M201.215 143.383C201.215 143.383 201.813 152.312 205.286 170.558C208.201 185.872 213.795 199.989 215.592 203.672C215.839 204.178 215.44 204.753 214.841 204.753L210.698 204.736C210.698 204.736 202.901 185.245 200.743 172.984C198.329 159.271 196.436 145.968 196.436 145.968L197.932 141.216H200.975L201.214 143.385L201.215 143.383Z" fill="#936FE9"/>
<path d="M185.346 97.753L173.52 109.797L162.81 100.899C162.619 100.74 162.329 100.746 162.146 100.912L156.554 105.958C156.353 106.139 156.358 106.44 156.565 106.615L172.174 119.385C173.074 120.122 174.413 120.155 175.355 119.463L180.242 115.873L182.95 107.585L185.767 98.9986L185.346 97.7522V97.753Z" fill="#AE8FF7"/>
<path style="mix-blend-mode:soft-light" d="M158.335 108.065L158.634 108.309L162.943 104.346C163.022 104.272 163.022 104.16 162.947 104.086C162.868 104.017 162.747 104.013 162.668 104.086L158.335 108.064V108.065Z" fill="url(#paint3_linear_91_14043)"/>
<path style="mix-blend-mode:soft-light" d="M185.346 97.7529C185.346 97.7529 178.314 107.516 177.989 117.529L180.242 115.874L186.673 98.0726L185.346 97.7529Z" fill="url(#paint4_linear_91_14043)"/>
<path d="M178.73 141.213H182.223C181.888 135.223 181.353 117.962 185.135 103.739C185.602 101.984 186.556 100.391 187.878 99.1039L185.511 98.0725C177.742 111.479 178.73 141.213 178.73 141.213Z" fill="#D9C9FF"/>
<path d="M178.729 138.402H202.673V141.213H178.729V138.402Z" fill="#2B2E33"/>
<path d="M179.724 138.608H178.689V141.008H179.724C179.941 141.008 180.118 140.844 180.118 140.642V138.974C180.118 138.772 179.941 138.608 179.724 138.608Z" fill="#475059"/>
<path d="M185.347 95.9518V97.753C185.347 98.356 185.61 98.9019 186.035 99.2973C186.461 99.6918 187.049 99.9366 187.697 99.9366C188.995 99.9366 190.047 98.9591 190.047 97.753V92.5234C190.047 92.5234 188.372 94.9172 185.347 95.9518Z" fill="url(#paint5_linear_91_14043)"/>
<path d="M189.026 93.6676C189.026 93.6676 187.804 96.3995 185.346 96.9881V95.3399L189.026 93.6676Z" fill="#FF997D"/>
<path d="M183.536 96.3625C187.697 95.8826 190.047 92.5235 190.047 92.5235V90.0202C190.047 90.0202 191.914 89.6756 191.977 87.9662C192.044 86.1305 189.396 85.8897 188.925 87.9759L188.476 84.8889C188.476 84.8889 183.536 87.3922 178.82 85.7231C178.506 85.612 178.22 85.4847 177.961 85.3438C177.191 90.137 178.334 96.9623 183.536 96.3625Z" fill="url(#paint6_linear_91_14043)"/>
<path style="mix-blend-mode:soft-light" d="M177.96 85.343C177.96 85.343 179.679 87.2689 183.403 87.1023C187.127 86.9356 188.11 84.8623 188.924 87.9767V83.9396H186.819L177.959 85.343H177.96Z" fill="url(#paint7_linear_91_14043)"/>
<path d="M190.047 97.4607C190.047 97.4607 198.4 100.409 200.466 113.927C202.252 125.611 202.729 139.101 202.825 142.548C202.838 143.007 202.441 143.383 201.947 143.383H183.187C182.723 143.383 182.339 143.051 182.31 142.621C182.031 138.589 180.987 119.339 185.135 103.739C185.829 101.133 187.596 98.8842 190.047 97.4615V97.4607Z" fill="#AE8FF7"/>
<path style="mix-blend-mode:soft-light" d="M186.144 135.748H191.136C191.326 135.748 191.481 135.604 191.481 135.426C191.481 135.249 191.327 135.105 191.136 135.105H186.144C185.954 135.105 185.798 135.249 185.798 135.426C185.798 135.604 185.953 135.748 186.144 135.748Z" fill="url(#paint8_linear_91_14043)"/>
<path style="mix-blend-mode:soft-light" d="M196.605 108.232L195.628 124.215C195.491 126.471 193.918 128.434 191.632 129.205L181.988 132.459V124.474L196.606 108.231L196.605 108.232Z" fill="url(#paint9_linear_91_14043)"/>
<path d="M196.518 108.748L193.186 122.175C192.702 124.128 191.262 125.758 189.295 126.581L168.791 135.158C168.522 135.27 168.209 135.134 168.128 134.87L165.986 127.831C165.926 127.635 166.015 127.427 166.203 127.323L183.849 118.599L187.624 106.595C188.272 104.524 190.482 103.226 192.774 103.572C195.398 103.967 197.116 106.341 196.518 108.747V108.748Z" fill="#AE8FF7"/>
<path d="M183.429 118.81L185.548 120.293C185.584 120.319 185.627 120.33 185.666 120.33C185.725 120.33 185.784 120.304 185.823 120.256C185.89 120.176 185.87 120.063 185.784 120.001L183.81 118.62L183.429 118.809V118.81Z" fill="url(#paint10_linear_91_14043)"/>
<g style="mix-blend-mode:soft-light">
<path d="M183.429 118.81L185.548 120.293C185.584 120.319 185.627 120.33 185.666 120.33C185.725 120.33 185.784 120.304 185.823 120.256C185.89 120.176 185.87 120.063 185.784 120.001L183.81 118.62L183.429 118.809V118.81Z" fill="white"/>
</g>
<g style="mix-blend-mode:soft-light">
<path d="M174.433 110.996C174.485 110.995 174.537 110.975 174.576 110.937C174.648 110.862 174.642 110.747 174.563 110.679L173.296 109.611C173.217 109.544 173.092 109.549 173.019 109.623C172.946 109.698 172.952 109.813 173.032 109.881L174.298 110.949C174.337 110.981 174.386 110.997 174.433 110.996Z" fill="url(#paint11_linear_91_14043)"/>
</g>
<path d="M186.684 124.378C186.684 125.468 187.186 126.453 187.991 127.131L189.305 126.58C191.272 125.76 192.712 124.13 193.199 122.176L193.348 121.574C192.641 120.995 191.715 120.648 190.702 120.648C188.481 120.648 186.684 122.318 186.684 124.378Z" fill="#AE8FF7"/>
<path d="M173.892 116.148C175.377 116.148 176.656 116.948 177.269 118.108L175.423 119.464C174.482 120.156 173.143 120.123 172.242 119.386L170.565 118.014C171.196 116.905 172.448 116.148 173.892 116.148Z" fill="#AE8FF7"/>
<path d="M190.945 163.409L193.739 154.478L191.892 169.661L190.945 163.409Z" fill="url(#paint12_linear_91_14043)"/>
<path d="M161.759 101.261L159.907 99.4639L160.024 96.9985C160.024 96.8391 159.885 96.7103 159.714 96.7103C158.741 96.7586 158.177 98.108 158.177 98.108L155.287 95.3665C154.946 95.0251 154.372 95.0025 154 95.3157C153.638 95.6217 153.599 96.1378 153.911 96.488L156.156 98.8842L153.097 95.9872C152.69 95.6016 152.02 95.6048 151.618 95.9945C151.235 96.3657 151.235 96.9518 151.619 97.3222L154.494 100.094L152.064 98.2224C151.753 97.972 151.285 97.9929 151.001 98.2691C150.709 98.5517 150.715 98.9985 151.014 99.2747L153.396 101.245L152.136 100.535C151.714 100.299 151.165 100.482 151.002 100.913C150.881 101.23 151.012 101.583 151.317 101.763L154.929 104.086L156.77 105.766L161.761 101.262L161.759 101.261Z" fill="url(#paint13_linear_91_14043)"/>
<path d="M179.237 89.1377C179.067 89.1377 178.928 88.9005 178.928 88.6079C178.928 88.3153 179.067 88.0781 179.237 88.0781C179.408 88.0781 179.547 88.3153 179.547 88.6079C179.547 88.9005 179.408 89.1377 179.237 89.1377Z" fill="#2B2E33"/>
<path d="M182.874 88.6079C182.874 88.9002 183.013 89.1377 183.183 89.1377C183.354 89.1377 183.493 88.901 183.493 88.6079C183.493 88.3148 183.354 88.0781 183.183 88.0781C183.013 88.0781 182.874 88.3148 182.874 88.6079Z" fill="#2B2E33"/>
<path d="M180.843 91.5475C181.393 91.5475 181.773 91.2408 181.792 91.2263C181.833 91.1933 181.836 91.1353 181.801 91.0975C181.765 91.0604 181.704 91.0556 181.662 91.0894C181.657 91.0934 181.194 91.4622 180.591 91.3406C180.427 91.3076 180.299 91.2239 180.22 91.0983C180.133 90.9614 180.115 90.7875 180.17 90.6216C180.223 90.4582 180.416 90.2488 180.684 90.0636C181.341 89.6087 181.151 88.3776 181.142 88.3253C181.134 88.2754 181.085 88.2399 181.03 88.2488C180.977 88.256 180.94 88.3027 180.948 88.3527C180.95 88.3647 181.13 89.5282 180.567 89.9179C180.423 90.0177 180.077 90.2818 179.982 90.5693C179.912 90.7834 179.937 91.0105 180.051 91.1917C180.157 91.3599 180.334 91.4767 180.549 91.5194C180.652 91.5403 180.749 91.5492 180.843 91.5492V91.5475Z" fill="#D88894"/>
<path d="M184.467 92.6837C184.467 92.6837 184.474 93.3053 184.293 93.6048C183.908 94.2417 182.699 94.8955 181.426 93.3021L184.467 92.6837Z" fill="white"/>
<path d="M166.392 128.539L160.967 128.788C160.306 128.818 159.701 129.143 159.342 129.66L160.933 130.57L159.781 131.722C159.781 131.722 159.969 131.953 157.64 133.314L159.166 135.471L160.258 136.569C160.258 136.569 161.725 137.396 163.701 135.957C165.677 134.517 167.92 133.565 167.92 133.565L166.392 128.54V128.539Z" fill="url(#paint14_linear_91_14043)"/>
<path d="M188.475 84.8889C188.475 84.8889 183.535 87.3921 178.819 85.723C174.103 84.0539 175.72 78.7551 180.167 76.6698C184.613 74.5836 187.442 75.8356 187.217 78.2133C187.217 78.2133 194.512 76.1416 196.484 82.0797C197.846 86.182 195.212 91.7311 190.047 92.5242V90.021C190.047 90.021 191.914 89.6764 191.976 87.967C192.044 86.1312 189.395 85.8905 188.924 87.9767L188.475 84.8889Z" fill="#060352"/>
<path d="M159.452 135.518C159.461 135.518 159.472 135.516 159.481 135.514C159.576 135.486 161.829 134.81 162.25 133.027C162.262 132.978 162.229 132.929 162.176 132.918C162.122 132.908 162.07 132.938 162.059 132.987C161.661 134.668 159.445 135.333 159.422 135.339C159.37 135.354 159.342 135.405 159.358 135.454C159.371 135.492 159.41 135.517 159.452 135.517V135.518Z" fill="#D88894"/>
<path d="M158.595 134.722C158.604 134.722 158.615 134.72 158.624 134.718C158.72 134.69 160.972 134.014 161.393 132.231C161.405 132.182 161.372 132.133 161.319 132.122C161.265 132.113 161.213 132.142 161.202 132.191C160.804 133.873 158.588 134.537 158.565 134.543C158.513 134.559 158.485 134.609 158.501 134.658C158.514 134.696 158.553 134.721 158.595 134.721V134.722Z" fill="#D88894"/>
<path d="M160.481 136.499C160.491 136.499 160.501 136.497 160.511 136.495C160.606 136.467 162.859 135.791 163.28 134.008C163.291 133.959 163.258 133.91 163.205 133.899C163.151 133.889 163.1 133.919 163.088 133.968C162.692 135.648 160.475 136.314 160.452 136.32C160.401 136.336 160.371 136.386 160.388 136.435C160.401 136.473 160.44 136.498 160.481 136.498V136.499Z" fill="#D88894"/>
<g style="mix-blend-mode:soft-light">
<path d="M188.32 150.96C188.425 150.96 188.533 150.958 188.641 150.957L188.637 150.775C186.129 150.826 184.354 150.258 183.361 149.082C181.97 147.433 182.619 145.127 182.625 145.104L182.436 145.056C182.429 145.08 181.754 147.472 183.206 149.193C184.195 150.366 185.914 150.961 188.32 150.961V150.96Z" fill="#936FE9"/>
</g>
<path d="M189.8 88.7545C189.845 88.7545 189.885 88.7255 189.895 88.6836C189.905 88.6458 190.136 87.7545 191.023 87.8632C191.077 87.8704 191.126 87.835 191.133 87.7851C191.14 87.7351 191.103 87.6893 191.049 87.6828C189.983 87.5492 189.706 88.6321 189.704 88.6426C189.692 88.6917 189.725 88.7408 189.777 88.7521C189.784 88.7537 189.792 88.7545 189.799 88.7545H189.8Z" fill="#D88894"/>
<path d="M203.97 214.061C204.031 214.061 204.091 214.035 204.129 213.986C204.193 213.905 204.174 213.791 204.086 213.731C202.937 212.953 202.828 212.573 202.883 212.493C203.042 212.257 204.405 212.358 206.153 213.233C207.01 213.662 207.669 213.766 208.058 213.535C208.271 213.409 208.379 213.191 208.362 212.92C208.319 212.255 207.478 211.184 205.732 210.404C205.634 210.36 205.517 210.398 205.471 210.489C205.424 210.58 205.465 210.689 205.563 210.733C207.273 211.498 207.94 212.473 207.97 212.943C207.979 213.078 207.937 213.175 207.847 213.229C207.753 213.285 207.367 213.426 206.339 212.911C204.796 212.14 202.957 211.7 202.552 212.299C202.292 212.683 202.73 213.264 203.855 214.027C203.89 214.05 203.931 214.061 203.97 214.061Z" fill="url(#paint15_linear_91_14043)"/>
<path d="M167.031 214.097C167.091 214.097 167.151 214.071 167.189 214.022C167.253 213.94 167.234 213.826 167.146 213.766C165.998 212.989 165.888 212.609 165.943 212.528C166.103 212.291 167.466 212.394 169.213 213.267C170.071 213.696 170.729 213.8 171.118 213.57C171.331 213.444 171.44 213.225 171.421 212.955C171.378 212.29 170.537 211.219 168.792 210.439C168.694 210.395 168.577 210.433 168.53 210.524C168.483 210.615 168.524 210.724 168.622 210.767C170.333 211.532 170.999 212.508 171.03 212.977C171.038 213.112 170.997 213.208 170.907 213.262C170.813 213.318 170.427 213.46 169.398 212.945C167.856 212.174 166.017 211.733 165.611 212.332C165.351 212.716 165.79 213.298 166.915 214.06C166.949 214.084 166.99 214.095 167.03 214.095L167.031 214.097Z" fill="url(#paint16_linear_91_14043)"/>
<path d="M156.156 98.9744C156.179 98.9744 156.203 98.9664 156.222 98.9503C156.262 98.9165 156.265 98.8585 156.228 98.8214L154.047 96.6234C154.01 96.5863 153.948 96.5839 153.908 96.6185C153.868 96.6523 153.866 96.7103 153.903 96.7473L156.084 98.9454C156.103 98.9648 156.13 98.9744 156.156 98.9744Z" fill="#D88894"/>
<path d="M154.494 100.185C154.522 100.185 154.55 100.173 154.569 100.152C154.604 100.113 154.598 100.056 154.557 100.024C154.509 99.9849 153.213 98.8633 152.717 98.4342C152.678 98.3996 152.615 98.402 152.578 98.439C152.541 98.4761 152.544 98.5332 152.584 98.5679C152.768 98.7281 154.387 100.131 154.431 100.164C154.45 100.178 154.472 100.185 154.494 100.185V100.185Z" fill="#D88894"/>
<path d="M153.395 101.335C153.425 101.335 153.453 101.323 153.473 101.3C153.506 101.26 153.498 101.202 153.455 101.172L152.317 100.358C152.275 100.327 152.213 100.334 152.179 100.375C152.146 100.415 152.154 100.472 152.198 100.503L153.336 101.317C153.354 101.33 153.375 101.335 153.395 101.335Z" fill="#D88894"/>
<path d="M158.455 100.521C158.477 100.521 158.499 100.515 158.517 100.501C158.559 100.47 158.566 100.412 158.532 100.373C157.473 99.1467 158.222 98.203 158.255 98.1628C158.288 98.1225 158.279 98.0654 158.237 98.0348C158.194 98.0042 158.133 98.0122 158.099 98.0517C158.09 98.0621 157.221 99.1451 158.379 100.486C158.398 100.509 158.427 100.52 158.455 100.52V100.521Z" fill="#D88894"/>
<g style="mix-blend-mode:soft-light">
<path d="M171.087 134.171C171.106 134.171 171.126 134.169 171.146 134.163C171.249 134.133 171.307 134.03 171.274 133.935L169.225 127.881C169.193 127.785 169.083 127.731 168.979 127.761C168.875 127.792 168.817 127.894 168.85 127.99L170.9 134.044C170.927 134.122 171.004 134.172 171.087 134.172V134.171Z" fill="url(#paint17_linear_91_14043)"/>
</g>
<path d="M180.478 87.1932C180.506 87.1932 180.533 87.1827 180.552 87.161C180.588 87.1223 180.583 87.0651 180.542 87.0321C179.376 86.1062 178.374 86.9162 178.364 86.9242C178.323 86.9581 178.32 87.0152 178.356 87.0531C178.392 87.0901 178.454 87.0941 178.495 87.0611C178.53 87.0313 179.382 86.351 180.415 87.1714C180.433 87.1859 180.456 87.1932 180.479 87.1932H180.478Z" fill="#2B2E33"/>
<path d="M184.593 87.3704C184.621 87.3704 184.649 87.3599 184.668 87.3382C184.703 87.2996 184.698 87.2424 184.657 87.2094C183.492 86.2834 182.49 87.0934 182.479 87.1015C182.439 87.1353 182.435 87.1925 182.471 87.2303C182.508 87.2674 182.569 87.2706 182.61 87.2384C182.647 87.2086 183.498 86.5282 184.53 87.3487C184.548 87.3632 184.572 87.3704 184.594 87.3704H184.593Z" fill="#2B2E33"/>
<path style="mix-blend-mode:soft-light" d="M183.569 83.0531C191.276 80.2487 197.49 80.9572 196.502 86.6683C195.682 89.4928 193.398 92.0097 190.047 92.5234V90.0201C190.047 90.0201 191.914 89.6755 191.976 87.9662C192.044 86.1304 189.395 85.8897 188.924 87.9758L188.475 84.888C188.475 84.888 183.535 87.3913 178.819 85.7222C175.488 84.5434 175.319 81.5531 177.074 79.1633C177.07 79.2326 176.671 85.562 183.569 83.0523V83.0531Z" fill="#02003C"/>
<path fill-rule="evenodd" clip-rule="evenodd" d="M153.316 73.3754C156.176 74.5697 157.454 77.6922 156.168 80.3496C154.883 83.0073 151.521 84.1937 148.661 82.9994C145.8 81.8052 144.523 78.6825 145.809 76.0249C147.094 73.3672 150.455 72.1812 153.316 73.3754Z" fill="#C0A6FF"/>
<path fill-rule="evenodd" clip-rule="evenodd" d="M152.769 74.5078C154.956 75.4211 155.933 77.809 154.95 79.8412C153.967 81.8733 151.396 82.7806 149.209 81.8674C147.021 80.954 146.045 78.5664 147.028 76.534C148.011 74.5016 150.581 73.5946 152.769 74.5078Z" fill="#D9C9FF"/>
<path fill-rule="evenodd" clip-rule="evenodd" d="M153.43 76.4827C153.252 76.2863 152.979 76.0507 152.546 75.8553L152.852 75.223L152.179 74.9421L151.85 75.6223C151.053 75.4617 150.402 75.7347 150.119 76.3195C149.827 76.9221 150.151 77.4295 150.684 77.9819C151.2 78.4844 151.331 78.7757 151.184 79.0797C151.039 79.3781 150.687 79.5106 150.192 79.3042C149.76 79.1238 149.419 78.8236 149.218 78.5744L148.689 79.1567C148.886 79.3969 149.275 79.7022 149.708 79.8976L149.379 80.5775L150.051 80.8584L150.403 80.1306C151.242 80.3231 151.932 80.023 152.226 79.4146C152.526 78.7942 152.317 78.3054 151.66 77.6511C151.23 77.1924 151.017 76.9019 151.149 76.6277C151.262 76.395 151.614 76.2477 152.073 76.4395C152.471 76.6057 152.747 76.8715 152.91 77.0471L153.43 76.4827Z" fill="white"/>
<ellipse cx="170.172" cy="16.502" rx="2.13303" ry="1.98023" fill="#D9C9FF"/>
<ellipse cx="252.308" cy="58.4991" rx="5.56878" ry="5.17339" fill="#C0A6FF"/>
<ellipse cx="252.308" cy="58.4991" rx="2.99857" ry="2.78567" fill="#D9C9FF"/>
<ellipse cx="7.28225" cy="99.8862" rx="7.28225" ry="6.7652" fill="#C0A6FF"/>
<ellipse cx="7.28254" cy="99.8862" rx="3.92121" ry="3.6428" fill="#D9C9FF"/>
<ellipse cx="44.1216" cy="16.316" rx="7.28225" ry="6.7652" fill="#C0A6FF"/>
<ellipse cx="44.1214" cy="16.3159" rx="3.92121" ry="3.6428" fill="#D9C9FF"/>
<ellipse cx="14.1361" cy="165.946" rx="3.85531" ry="3.58158" fill="#C0A6FF"/>
<ellipse cx="14.136" cy="165.947" rx="2.07593" ry="1.92854" fill="#D9C9FF"/>
<ellipse cx="291.044" cy="106.272" rx="2.13303" ry="1.98023" fill="#D9C9FF"/>
<path fill-rule="evenodd" clip-rule="evenodd" d="M107.577 5.57129C113.996 5.57129 119.2 10.4011 119.2 16.3587C119.2 22.317 113.996 27.1474 107.577 27.1474C101.158 27.1474 95.9541 22.317 95.9541 16.3587C95.9541 10.4005 101.158 5.57129 107.577 5.57129Z" fill="#C0A6FF"/>
<path fill-rule="evenodd" clip-rule="evenodd" d="M107.577 7.79358C112.673 7.79358 116.805 11.6287 116.805 16.3588C116.805 21.0888 112.673 24.9239 107.577 24.9239C102.48 24.9239 98.3491 21.0894 98.3491 16.3588C98.3491 11.6281 102.481 7.79358 107.577 7.79358Z" fill="#D9C9FF"/>
<path fill-rule="evenodd" clip-rule="evenodd" d="M110.382 11.9415C109.91 11.7148 109.237 11.49 108.322 11.4628V10.0543H106.918V11.5693C105.401 11.8876 104.499 12.8978 104.499 14.2003C104.499 15.5425 105.487 16.2325 106.876 16.8438C108.193 17.3758 108.665 17.8143 108.665 18.4913C108.665 19.1559 108.164 19.6743 107.133 19.6743C106.231 19.6743 105.387 19.3819 104.829 19.076L104.399 20.5643C104.943 20.8566 105.874 21.1217 106.79 21.149V22.6633H108.193V21.0424C109.81 20.7501 110.755 19.6606 110.755 18.3055C110.755 16.9237 109.982 16.1798 108.292 15.4756C107.162 14.9578 106.547 14.585 106.547 13.9743C106.547 13.4559 107.034 12.9108 107.992 12.9108C108.822 12.9108 109.524 13.1902 109.954 13.3896L110.382 11.9415Z" fill="white"/>
<path fill-rule="evenodd" clip-rule="evenodd" d="M292.632 70.8357C296.209 70.8357 299.11 73.5275 299.11 76.848C299.11 80.1688 296.209 82.861 292.632 82.861C289.054 82.861 286.154 80.1688 286.154 76.848C286.154 73.5272 289.054 70.8357 292.632 70.8357Z" fill="#C0A6FF"/>
<path fill-rule="evenodd" clip-rule="evenodd" d="M292.632 72.0742C295.472 72.0742 297.775 74.2117 297.775 76.8479C297.775 79.4842 295.472 81.6217 292.632 81.6217C289.791 81.6217 287.489 79.4846 287.489 76.8479C287.489 74.2113 289.791 72.0742 292.632 72.0742Z" fill="#D9C9FF"/>
<path fill-rule="evenodd" clip-rule="evenodd" d="M294.195 74.386C293.931 74.2597 293.557 74.1344 293.046 74.1192V73.3342H292.264V74.1786C291.419 74.356 290.916 74.919 290.916 75.645C290.916 76.393 291.466 76.7776 292.24 77.1183C292.975 77.4148 293.238 77.6592 293.238 78.0365C293.238 78.4069 292.959 78.6958 292.384 78.6958C291.881 78.6958 291.411 78.5329 291.1 78.3624L290.86 79.1919C291.164 79.3548 291.682 79.5025 292.192 79.5177V80.3617H292.975V79.4584C293.876 79.2954 294.403 78.6882 294.403 77.9329C294.403 77.1628 293.972 76.7482 293.03 76.3557C292.4 76.0671 292.057 75.8593 292.057 75.519C292.057 75.23 292.328 74.9263 292.863 74.9263C293.325 74.9263 293.716 75.082 293.956 75.1931L294.195 74.386Z" fill="white"/>
<defs>
<linearGradient id="paint0_linear_91_14043" x1="175.873" y1="207.876" x2="176.902" y2="198.727" gradientUnits="userSpaceOnUse">
<stop stop-color="white"/>
<stop offset="1" stop-color="#C6D2E5"/>
</linearGradient>
<linearGradient id="paint1_linear_91_14043" x1="206.573" y1="202.438" x2="218.625" y2="206.462" gradientUnits="userSpaceOnUse">
<stop stop-color="#2D3B72"/>
<stop offset="1" stop-color="#2C394C"/>
</linearGradient>
<linearGradient id="paint2_linear_91_14043" x1="210.191" y1="207.597" x2="210.191" y2="199.868" gradientUnits="userSpaceOnUse">
<stop stop-color="white"/>
<stop offset="1" stop-color="#C6D2E5"/>
</linearGradient>
<linearGradient id="paint3_linear_91_14043" x1="161.074" y1="107.188" x2="160.278" y2="104.768" gradientUnits="userSpaceOnUse">
<stop stop-color="white"/>
<stop offset="1" stop-color="white"/>
</linearGradient>
<linearGradient id="paint4_linear_91_14043" x1="185.962" y1="128.579" x2="180.11" y2="89.779" gradientUnits="userSpaceOnUse">
<stop/>
<stop offset="1"/>
</linearGradient>
<linearGradient id="paint5_linear_91_14043" x1="183.083" y1="92.4043" x2="190.83" y2="98.7749" gradientUnits="userSpaceOnUse">
<stop stop-color="#FF997D"/>
<stop offset="1" stop-color="#FFDED2"/>
</linearGradient>
<linearGradient id="paint6_linear_91_14043" x1="186.718" y1="78.2463" x2="183.743" y2="94.9676" gradientUnits="userSpaceOnUse">
<stop stop-color="#FF997D"/>
<stop offset="1" stop-color="#FFDED2"/>
</linearGradient>
<linearGradient id="paint7_linear_91_14043" x1="183.8" y1="83.6022" x2="183.269" y2="88.8651" gradientUnits="userSpaceOnUse">
<stop/>
<stop offset="1"/>
</linearGradient>
<linearGradient id="paint8_linear_91_14043" x1="191.052" y1="136.327" x2="183.189" y2="132.93" gradientUnits="userSpaceOnUse">
<stop stop-color="white"/>
<stop offset="1" stop-color="white"/>
</linearGradient>
<linearGradient id="paint9_linear_91_14043" x1="184.113" y1="110.005" x2="195.163" y2="135.548" gradientUnits="userSpaceOnUse">
<stop/>
<stop offset="1"/>
</linearGradient>
<linearGradient id="paint10_linear_91_14043" x1="185.995" y1="120.667" x2="184.561" y2="119.156" gradientUnits="userSpaceOnUse">
<stop stop-color="#43474C"/>
<stop offset="1" stop-color="#636970"/>
</linearGradient>
<linearGradient id="paint11_linear_91_14043" x1="174.617" y1="110.271" x2="172.98" y2="110.303" gradientUnits="userSpaceOnUse">
<stop/>
<stop offset="1"/>
</linearGradient>
<linearGradient id="paint12_linear_91_14043" x1="191.748" y1="170.736" x2="192.384" y2="156.124" gradientUnits="userSpaceOnUse">
<stop stop-color="#2A2D30"/>
<stop offset="1" stop-color="#171819"/>
</linearGradient>
<linearGradient id="paint13_linear_91_14043" x1="171.047" y1="112.719" x2="157.324" y2="98.8699" gradientUnits="userSpaceOnUse">
<stop stop-color="#FF997D"/>
<stop offset="1" stop-color="#FFDED2"/>
</linearGradient>
<linearGradient id="paint14_linear_91_14043" x1="174.463" y1="125.255" x2="160.972" y2="133.905" gradientUnits="userSpaceOnUse">
<stop stop-color="#FF997D"/>
<stop offset="1" stop-color="#FFDED2"/>
</linearGradient>
<linearGradient id="paint15_linear_91_14043" x1="202.479" y1="212.223" x2="208.364" y2="212.223" gradientUnits="userSpaceOnUse">
<stop stop-color="white"/>
<stop offset="1" stop-color="#C6D2E5"/>
</linearGradient>
<linearGradient id="paint16_linear_91_14043" x1="165.538" y1="212.259" x2="171.424" y2="212.259" gradientUnits="userSpaceOnUse">
<stop stop-color="white"/>
<stop offset="1" stop-color="#C6D2E5"/>
</linearGradient>
<linearGradient id="paint17_linear_91_14043" x1="171.283" y1="130.961" x2="168.842" y2="130.961" gradientUnits="userSpaceOnUse">
<stop stop-color="white"/>
<stop offset="1" stop-color="white"/>
</linearGradient>
<clipPath id="clip0_91_14043">
<rect width="52.6148" height="141.696" fill="white" transform="translate(53.8037 73.9285)"/>
</clipPath>
<clipPath id="clip1_91_14043">
<rect width="7.20751" height="7.35217" fill="white" transform="matrix(-1 0 0 1 89.1206 84.6226)"/>
</clipPath>
</defs>
</svg>
