<svg width="258" height="205" viewBox="0 0 258 205" fill="none" xmlns="http://www.w3.org/2000/svg">
<path fill-rule="evenodd" clip-rule="evenodd" d="M121.504 175.832C178.805 175.832 225.257 181.698 225.257 188.933C225.257 196.168 178.805 202.036 121.504 202.036C64.2039 202.036 17.752 196.17 17.752 188.933C17.752 181.697 64.2044 175.832 121.504 175.832Z" fill="#D9C9FF"/>
<g clip-path="url(#clip0_91_13485)">
<path d="M2.1068 159.989H38.1315V182.667C38.1315 188.955 32.7329 194.061 26.0849 194.061H14.1512C7.50313 194.061 2.10449 188.955 2.10449 182.667V159.989H2.1068Z" fill="#936FE9"/>
<path d="M20.1236 159.988C20.1236 159.988 19.2661 143.99 40.0193 139.375C40.0193 139.375 43.7744 156.106 20.1236 159.988Z" fill="#6A44C5"/>
<path d="M20.1148 159.988C20.1148 159.988 20.9723 143.99 0.219097 139.375C0.219097 139.375 -3.53598 156.106 20.1148 159.988Z" fill="#6A44C5"/>
<g style="mix-blend-mode:soft-light">
<path d="M38.1317 159.989H2.10693V162.888H38.1317V159.989Z" fill="#D9C9FF"/>
</g>
<g style="mix-blend-mode:soft-light">
<path d="M20.8039 159.236C22.6988 156.365 24.9301 153.727 27.3206 151.226C28.5285 149.983 29.7801 148.778 31.124 147.657C32.4587 146.537 33.881 145.473 35.4715 144.686C34.1161 145.787 32.9151 147.012 31.6888 148.213C30.4786 149.428 29.273 150.648 28.0882 151.893C25.6908 154.355 23.335 156.853 20.7993 159.239L20.8039 159.236Z" fill="white"/>
</g>
<g style="mix-blend-mode:soft-light">
<path d="M19.326 159.236C16.7927 156.851 14.4368 154.353 12.0372 151.891C10.8546 150.648 9.64905 149.428 8.43654 148.211C7.21021 147.01 6.00923 145.787 4.65381 144.683C6.24436 145.47 7.66663 146.534 9.0013 147.655C10.3452 148.773 11.5992 149.981 12.8048 151.224C15.1975 153.727 17.4289 156.365 19.3214 159.234L19.326 159.236Z" fill="white"/>
</g>
</g>
<path opacity="0.2" d="M249.871 59.2011C247.877 29.3072 227.641 5.38508 193.914 4.21978C183.942 3.87549 174.138 5.65127 164.823 8.89996C152.754 13.1095 142.306 20.5944 129.921 24.1144C112.653 29.0229 95.0529 27.3674 77.2749 27.7631C65.1529 28.0323 52.8502 29.2899 41.6835 33.675C-4.98837 52.0035 3.61203 107.832 18.7254 143.824C19.4579 145.568 21.0247 147.902 21.8164 149.628L225.247 149.516C241.506 121.839 251.864 89.0856 249.871 59.2011Z" fill="#D9C9FF"/>
<path d="M56.6608 5.14106C57.0196 3.97894 57.3731 2.94484 58.2424 2.01364C59.2427 0.939371 60.5912 0.392197 62.0419 0.14371C69.5963 -1.14641 74.129 6.6872 76.8993 6.20278C77.732 6.0572 77.4938 5.23644 77.9127 4.73947L78.1379 4.83986C78.4495 5.20381 78.6695 5.55019 78.7978 6.00951C79.0622 6.95075 78.7847 8.15554 78.2322 8.95873C77.5199 9.99785 76.6715 10.3668 75.4565 10.6253C72.9978 10.6178 71.3141 10.2639 69.0595 9.33522C68.1718 8.96877 67.2868 8.5747 66.3441 8.3488C64.6237 7.93968 62.9086 7.97231 61.2223 7.36238C61.403 8.19318 61.6596 9.09176 61.657 9.93762C61.6543 12.4451 60.3686 13.8958 60.6226 16.963C60.0911 17.3119 59.5962 17.6156 58.9939 17.849C58.884 17.7035 58.774 17.5604 58.6535 17.4223C57.7711 16.4158 56.8546 16.3154 55.5663 16.21L54.4141 16.9881L54.1575 16.9229C53.9795 17.0559 53.8066 17.1939 53.6312 17.332C53.2149 17.2717 52.9897 16.8576 52.7043 16.5589C52.39 16.4359 52.246 16.4083 51.9108 16.4686C51.7275 15.9917 51.5469 15.5123 51.3976 15.0228C50.7194 12.7915 50.5885 10.2639 51.8323 8.18064C52.9478 6.31322 54.6027 5.65811 56.6556 5.13855L56.6608 5.14106Z" fill="#060352"/>
<path d="M60.991 7.59546C62.6851 8.20199 64.4081 8.16954 66.1364 8.5764C67.0834 8.79854 67.9698 9.19291 68.8642 9.55733C71.1291 10.4809 72.8179 10.8328 75.2906 10.8403C75.0854 10.9152 74.8566 10.9202 74.7803 11.1323C74.6435 11.5167 74.8829 12.1782 74.975 12.575L75.2538 13.526C75.48 16.1119 76.1876 18.9873 76.5322 21.6581C74.5804 21.7329 72.4365 21.663 70.5267 22.0574C69.1562 22.342 67.8331 22.9061 66.4468 23.1033C65.121 23.2905 63.5216 23.0708 62.4405 22.2721C60.7359 21.0166 60.5965 19.0148 60.3913 17.1477C60.1361 14.0976 61.4277 12.6549 61.4303 10.1614C61.4303 9.31772 61.1752 8.42414 60.9937 7.60045L60.991 7.59546Z" fill="#F8BA8B"/>
<path d="M172.371 11.6313C172.601 12.2595 172.8 13.1149 173.437 13.4134C175.218 14.2466 179.591 11.9988 181.554 11.5088C187.009 10.1476 191.898 11.4842 194.641 16.8418C195.922 16.9443 196.961 17.4077 197.82 18.4369C199.625 20.6022 199.755 24.1175 199.534 26.8263C199.293 29.7713 198.445 32.6005 197.366 35.3183L197.317 34.2579C197.268 33.1864 196.795 31.7918 195.998 31.079C195.664 30.7805 195.257 30.6579 194.822 30.7092C193.501 30.8607 192.559 32.1861 191.762 33.1641C191.532 33.1507 191.483 33.1084 191.314 32.9324C190.065 31.6337 189.593 25.7876 189.621 23.9253C184.368 26.0683 177.523 25.6975 173.578 23.9253C173.282 24.9745 172.785 26.2293 172.561 27.2986L172.422 27.303C172.333 25.9954 172.101 24.6811 172.056 23.3756C170.172 22.137 168.729 20.6579 168.209 18.321C167.86 16.7527 168.105 15.1778 168.944 13.8255C169.373 13.1372 169.927 12.6025 170.53 12.088C170.004 13.5805 170.18 14.5607 170.809 15.9797L170.899 16.1802C171.078 14.5317 171.423 12.9991 172.371 11.6313Z" fill="#060352"/>
<path d="M75.3488 13.6714C74.9498 13.5453 74.4865 13.3719 74.0652 13.3377C73.3257 13.2799 72.6588 13.5111 71.936 13.2116C71.7519 12.8937 71.777 12.9016 71.8691 12.5469C72.0867 12.3393 72.2653 12.2474 72.575 12.1974C73.4038 12.0661 74.361 12.2211 75.0502 12.6704L75.346 13.6714H75.3488Z" fill="#212930"/>
<path d="M66.5637 12.9784C67.0638 12.9378 67.5907 12.841 68.0713 13.0009C68.2811 13.2665 68.2543 13.2845 68.2348 13.6177C67.8713 13.9847 66.6906 14.1198 66.1197 14.2639C65.8246 14.4687 65.6611 14.6714 65.3001 14.8109L65.1049 14.7231C65.0927 14.6016 65.0781 14.5655 65.1171 14.4327C65.322 13.7168 65.9051 13.3116 66.5637 12.9784Z" fill="#212930"/>
<path d="M73.5883 14.0513C73.6608 14.0681 73.7334 14.0849 73.8059 14.1041C74.1152 14.1859 74.3787 14.3517 74.4971 14.6642C74.6639 15.104 74.4657 15.5631 74.2579 15.9501C73.8977 15.8227 73.6608 15.6785 73.4965 15.318C73.2814 14.8517 73.3805 14.4935 73.5883 14.0537V14.0513Z" fill="#212930"/>
<path d="M66.7625 15.1932C66.886 15.1982 67.057 15.2008 67.1742 15.2209C67.5416 15.2864 67.8076 15.4477 67.9882 15.7123C68.4157 16.3397 68.2257 17.1863 68.0515 17.849C67.624 17.7986 67.3421 17.6979 67.076 17.4131C66.5186 16.8159 66.6675 15.8786 66.7593 15.1907L66.7625 15.1932Z" fill="#212930"/>
<path d="M71.4434 15.5703C71.5536 15.6437 71.6129 15.6751 71.7089 15.7799C72.5248 16.6735 74.4024 19.3435 74.1398 20.5253C74.041 20.9681 73.7587 21.0467 73.3888 21.2668L73.2335 21.1725L73.2617 21.0284L73.6373 20.8109C73.2053 19.0003 71.099 17.6325 71.4406 15.5703H71.4434Z" fill="#D87D2D"/>
<path d="M55.3945 16.3351C56.7384 16.4403 57.6917 16.5405 58.615 17.545C58.7406 17.6828 58.8554 17.8256 58.9701 17.9709C59.5464 19.5616 59.795 21.0872 59.3143 22.7405C58.8554 23.1939 58.3418 23.8227 57.6398 23.9254C56.5089 23.8803 55.6185 23.7526 54.6487 23.1488C53.3103 22.3147 53.1054 21.1097 52.8623 19.7495C52.9688 19.5616 52.9333 19.6468 52.9989 19.4414C53.2884 18.542 53.5643 17.8506 54.198 17.1066L55.3999 16.3301L55.3945 16.3351Z" fill="#F2A776"/>
<path d="M51.6787 16.7389C51.9956 16.6816 52.1293 16.7079 52.4289 16.8247C52.6988 17.1084 52.9117 17.5018 53.3054 17.5591C53.4688 17.4279 53.6347 17.2992 53.803 17.1704L54.0457 17.2324C53.4737 17.9382 53.2237 18.5986 52.9588 19.4546C52.8993 19.6501 52.9315 19.569 52.835 19.7479C52.4165 18.7536 52.0229 17.7617 51.6787 16.7412V16.7389Z" fill="#2C080A"/>
<path d="M58.7824 17.9827C59.3845 17.7474 59.8793 17.4386 60.4107 17.0894C60.6175 18.985 60.7536 21.0122 62.4499 22.2852C63.5258 23.095 65.1174 23.3177 66.4368 23.1279C67.8164 22.9305 69.1331 22.356 70.497 22.0675C72.3948 21.6676 74.531 21.736 76.4733 21.6626C76.9603 24.9754 77.5493 28.6426 75.3189 31.5025C74.2404 32.8843 72.6671 33.9321 70.8582 34.1371C70.332 34.1978 69.7797 34.1801 69.2535 34.1599C67.387 33.9245 65.6881 33.4892 64.0572 32.5553C61.6489 31.176 59.7196 28.9438 59.4447 26.17C59.34 25.1045 59.4368 23.9302 59.141 22.9002C59.1306 22.8673 59.1201 22.8318 59.1096 22.7989C59.5704 21.1286 59.3321 19.5873 58.7798 17.9802L58.7824 17.9827Z" fill="#F8BA8B"/>
<path d="M57.3773 19.7831C57.202 19.5034 57.024 19.3391 56.7705 19.1261C56.6356 19.3853 57.086 20.299 57.1157 20.6814L57.0159 20.6917C56.5143 20.3118 56.6302 19.7035 56.1933 19.2929C56.0719 19.5804 56.0935 19.7882 56.107 20.0911C56.3713 20.6019 56.8028 20.8559 57.2317 21.2255L57.0294 21.3513C57.0941 21.359 57.1562 21.3718 57.2209 21.3718C57.2479 21.3718 57.2775 21.3616 57.3045 21.3564C57.0564 21.5002 56.8298 21.6439 56.5439 21.7055C56.1852 21.7851 55.8993 21.7286 55.5919 21.5438C55.0174 21.2024 54.5292 20.1476 54.451 19.5342C54.3997 19.1286 54.5373 18.777 54.8151 18.4664C55.1549 18.0892 55.7483 17.8915 56.2553 17.8556C56.8703 17.812 57.1885 17.9814 57.6551 18.3458C58.3537 19.1209 58.4508 20.0808 58.3537 21.0792C58.3159 21.4565 58.2674 21.7697 57.9572 22.0263C57.647 21.667 57.4016 20.2887 57.3773 19.7831Z" fill="#D87D2D"/>
<path d="M57.5749 23.9929C58.2539 23.8883 58.7532 23.2479 59.1943 22.7861C59.2049 22.8193 59.2155 22.8525 59.226 22.8882C59.5245 23.9266 59.4268 25.1104 59.5325 26.1845C59.8098 28.9808 61.7541 31.2311 64.1872 32.6215C65.8329 33.563 67.5474 34.0018 69.431 34.2391C69.1456 35.6627 68.5381 36.7292 67.8195 37.9768L67.4629 37.7472C66.4802 37.0915 65.2227 36.6322 64.1211 36.1807C61.5032 35.1091 58.6264 34.0095 56.4126 32.2644C57.2262 29.2002 58.1693 27.2382 57.5723 23.9929H57.5749Z" fill="#F2A776"/>
<path d="M68.3138 24.6801L68.248 24.5205C68.3062 24.4577 68.3568 24.3779 68.4251 24.3294C68.9359 23.9673 73.1944 23.0151 73.6799 23.1861L73.771 23.5996C72.0539 24.1156 70.0916 24.7457 68.3113 24.6801H68.3138Z" fill="#FEFEFE"/>
<path d="M68.2506 24.4463C70.0507 24.501 72.0348 23.9757 73.771 23.5454C73.4105 24.3084 73.0499 24.9217 72.178 25.2616C71.2857 25.611 70.1913 25.4161 69.345 25.0382C68.9665 24.8694 68.6035 24.6555 68.248 24.4463H68.2506Z" fill="#FFB9AE"/>
<path d="M173.41 23.8418C178.867 25.6119 184.698 25.5394 190.064 23.5454C190.033 25.2782 190.58 30.8788 191.855 32.0872C192.027 32.251 192.077 32.2883 192.312 32.3028C193.124 31.3928 194.088 30.1596 195.438 30.0186C195.882 29.9709 196.3 30.0849 196.639 30.3627C197.453 31.026 197.939 32.3235 197.987 33.3205L198.037 34.3071C197.54 35.5798 196.988 37.0183 195.91 37.9572C195.05 39.7129 194.288 41.2239 192.893 42.6769C192.367 43.2262 191.759 43.7091 191.235 44.2563L190.96 43.8646C190.486 44.2522 190.064 44.6895 189.576 45.0647C186.988 47.0587 184.766 47.1893 181.618 47.6204C181.444 47.6453 181.285 47.6764 181.214 47.8505L181.131 47.6784C180.822 47.4981 180.304 47.5292 179.947 47.494C177.422 47.2494 174.64 45.7238 173.06 43.8439C169.575 39.6963 171.978 31.768 172.559 26.8494L172.701 26.8452C172.929 25.8503 173.108 24.8181 173.41 23.8418Z" fill="#FFCDAD"/>
<path d="M174.484 26.5892C175.102 26.5764 175.801 26.5709 176.38 26.7546C176.797 26.8869 177.375 27.2029 177.494 27.5538C177.576 27.7981 177.475 27.8716 177.293 28.0498C176.925 28.1435 176.726 28.0994 176.368 28.0222C175.516 27.7797 173.302 27.7724 172.789 27.359L172.816 27.1808C173.334 26.773 173.76 26.7013 174.484 26.5874V26.5892Z" fill="#161B21"/>
<path d="M183.694 27.739C184.476 27.7157 185.269 27.679 185.997 27.9542C186.498 28.1444 186.815 28.3863 186.991 28.8051C186.953 29.047 186.964 29.0687 186.756 29.2422L186.45 29.1738C185.42 28.9035 184.468 29.002 183.431 28.8652C183.098 28.8218 182.882 28.7534 182.672 28.5298C182.622 28.3029 182.664 28.2145 182.788 28.0093C183.056 27.8274 183.358 27.7974 183.692 27.7407L183.694 27.739Z" fill="#161B21"/>
<path d="M174.903 29.6244C175.199 29.6143 175.436 29.6277 175.664 29.7751C175.864 29.9058 175.946 30.0883 175.945 30.2767C175.945 30.6175 175.745 30.8897 175.415 31.13C175.294 31.1384 175.175 31.1492 175.054 31.1308C174.85 31.1007 174.692 31.0052 174.575 30.888C174.372 30.6837 174.333 30.4098 174.393 30.1695C174.459 29.9032 174.592 29.7768 174.903 29.6244Z" fill="#161B21"/>
<path d="M178.13 30.3813C178.268 30.5145 178.27 30.5993 178.289 30.791C178.504 32.8876 177.296 34.5908 175.974 36.1446C177.169 36.6451 178.193 36.7863 179.495 36.8267C178.896 37.2041 178.382 37.4624 177.667 37.5875C177.292 37.5935 176.914 37.6016 176.538 37.5935C175.44 37.5653 174.721 37.313 173.972 36.5603C175.837 34.8108 177.24 32.7081 178.133 30.3813H178.13Z" fill="#D87D2D"/>
<path d="M183.906 30.3813C184.224 30.388 184.488 30.4125 184.731 30.6273C184.919 30.7932 185.015 31.0214 185.018 31.2618C185.024 31.6558 184.821 31.972 184.533 32.2391C184.414 32.2669 184.293 32.2847 184.169 32.2792C183.97 32.2703 183.795 32.1523 183.674 32.0076C183.469 31.7627 183.415 31.4321 183.45 31.1293C183.491 30.7876 183.624 30.5906 183.905 30.3813H183.906Z" fill="#161B21"/>
<path d="M194.071 32.2805C194.513 32.2761 194.884 32.3246 195.234 32.6748C195.478 32.9215 195.646 33.428 195.67 33.7914C195.38 34.1526 194.784 33.4963 194.397 33.6263C194.406 34.0381 194.536 34.4434 194.617 34.842C194.756 35.5182 194.675 35.9301 194.363 36.5159C194.231 36.6481 194.094 36.7384 193.943 36.8375C193.437 36.5996 193.902 34.9081 193.559 34.309C193.245 34.2628 192.946 34.5315 192.628 34.6086L192.525 34.428C192.508 34.2033 192.504 34.0535 192.57 33.8355C192.786 33.1175 193.52 32.5823 194.071 32.2805Z" fill="#EF8D54"/>
<path d="M54.0439 34.5586C56.3179 36.5581 58.4159 38.7316 60.5979 40.8269C63.2427 43.3685 65.9322 45.8294 68.5112 48.4366C69.902 49.7705 71.3716 51.0413 72.8017 52.3348C72.9726 50.6151 73.2145 48.9056 73.3749 47.186C73.6535 43.5753 74.0479 38.1617 71.8763 35.0629C73.643 35.7764 79.3742 38.4744 80.4574 39.6872C81.317 40.6504 81.8113 42.0977 82.3134 43.2576C82.0821 43.7492 82.061 44.0619 82.111 44.599C82.2424 45.9732 82.692 47.3574 82.9523 48.7165C83.4702 51.4422 83.8961 54.1653 84.201 56.9213C84.7715 62.0877 85.4051 68.3787 85.0318 73.5527C84.9608 74.6974 84.882 75.8422 84.8373 76.9869C86.5671 77.9198 88.6125 78.7973 90.1741 79.9546L90.2136 80.1664C91.2073 80.822 92.1538 81.6692 93.3946 81.7398C93.5497 82.0272 93.484 82.2617 93.4683 82.582C93.0739 84.2133 92.7426 86.054 92.0512 87.5946L91.7673 88.8881C90.8103 88.8604 89.8586 88.8326 88.9043 88.7494C87.043 88.7797 85.2316 88.4191 83.3808 88.3334C83.365 89.0243 83.3966 89.7529 83.3098 90.4363C83.3493 92.345 83.3545 94.2588 83.4413 96.165C83.5201 97.9048 83.9881 100.202 83.6016 101.886C83.4807 102.408 83.1074 102.869 82.7262 103.245C82.6473 103.323 82.5632 103.399 82.4817 103.475C81.8665 103.616 81.2303 103.79 80.5941 103.765C77.6811 103.651 75.8224 101.838 73.9585 99.9295C74.7104 99.1655 75.3492 98.2426 75.9933 97.3929L75.8408 97.1382C72.2575 102.199 69.3735 104.067 63.0114 105.232C56.6387 106.399 50.0084 106.165 43.7776 104.438C43.5358 104.302 43.2703 104.166 43.0678 103.979C42.8365 103.765 42.7392 103.55 42.7024 103.248C42.5631 102.113 42.7261 100.85 42.7865 99.7076C42.889 97.6879 42.9863 95.6657 43.0494 93.646C43.2992 85.4262 43.2072 77.1836 42.9364 68.9662C42.9232 68.4216 42.8812 67.8794 42.8496 67.3348C42.6393 65.0983 42.5709 62.7029 42.103 60.5067C41.8427 59.2813 41.3301 58.1189 41.0645 56.8885L41.033 56.7296C39.75 52.5314 37.8782 46.538 40.0524 42.3776C40.5703 41.3841 41.309 40.5067 42.2213 39.8234C44.2114 38.3307 51.4753 35.373 54.0465 34.5662L54.0439 34.5586Z" fill="#9E7EEB"/>
<path d="M67.424 37.5995L67.7789 37.8277C68.7017 38.5429 69.7008 39.2276 70.5684 40.0012C70.3633 40.9243 70.1635 41.8475 69.8953 42.7554C71.315 44.0792 72.3746 45.5958 73.3762 47.2291C73.2159 48.9587 72.974 50.6807 72.8031 52.4078C71.3729 51.1043 69.9006 49.8286 68.5124 48.487C68.6071 46.7396 68.6886 44.8756 68.4993 43.1383C67.5002 42.3572 66.5274 41.5685 65.4863 40.8406C66.1042 39.7476 66.7772 38.6748 67.4266 37.5969L67.424 37.5995Z" fill="#161B21"/>
<path d="M192.97 38.2582C193.963 38.2335 194.759 37.9501 195.67 37.5969C194.779 39.5021 193.99 41.1419 192.544 42.7187C191.998 43.3148 191.369 43.8389 190.826 44.4327L190.542 44.0076C191.881 42.0889 192.551 40.5571 192.97 38.256V38.2582Z" fill="#161B21"/>
<path d="M82.2777 43.296C85.5046 50.0147 88.2548 56.912 91.6718 63.5452C96.1409 62.2044 101.274 58.6803 105.238 56.2731C106.673 58.5873 108.931 61.558 111.418 62.8811L111.642 63.0018C107.931 67.4089 103.043 71.0864 97.8286 73.6748C97.0369 74.0395 96.2425 74.359 95.4065 74.6131C91.7968 75.7148 88.2809 75.1941 84.9707 73.5163C85.3405 68.3547 84.7128 62.0787 84.1477 56.9246C83.8456 54.1752 83.4237 51.4585 82.9106 48.7394C82.6554 47.381 82.2074 46.0026 82.0772 44.6317C82.0277 44.0959 82.0485 43.784 82.2777 43.2935V43.296Z" fill="#936FE9"/>
<path d="M181.588 48.4913C181.655 48.3141 181.803 48.2824 181.966 48.2571C184.901 47.8181 186.973 47.6851 189.386 45.6547C189.841 45.2726 190.235 44.8273 190.677 44.4326L190.933 44.8315C190.941 45.4246 190.933 45.9839 190.858 46.5728C190.675 48.5589 190.576 51.0895 188.995 52.4762C187.888 53.445 186.352 54.19 185.073 54.895C184.738 55.0807 184.31 55.2242 184.008 55.4459H183.904C183.626 55.1293 183.23 54.8781 182.905 54.6101C182.018 53.8819 181.334 53.2445 180.679 52.2863C180.798 51.9464 180.906 51.6003 181.018 51.2563C181.267 50.3487 181.42 49.4158 181.59 48.4892L181.588 48.4913Z" fill="#FFCDAD"/>
<path d="M181.269 48.2702C181.338 48.1026 181.491 48.0726 181.659 48.0487C184.694 47.6336 186.838 47.5079 189.333 45.5881C189.804 45.2269 190.211 44.8058 190.668 44.4326L190.933 44.8098C190.941 45.3706 190.933 45.8994 190.855 46.4562C190.087 47.0449 189.384 47.6975 188.59 48.2582C186.357 49.8368 183.483 50.9044 180.679 50.8885C180.937 50.0304 181.094 49.1483 181.271 48.2722L181.269 48.2702Z" fill="#D87D2D"/>
<path d="M177.523 53.5471C177.417 55.0772 176.773 56.6998 176.494 58.2278C175.992 60.9685 175.798 63.7828 175.561 66.5508C175.153 71.3261 174.972 76.1223 174.765 80.9081C174.674 82.9972 174.731 85.1789 174.494 87.2533C174.487 93.9685 174.415 100.707 174.11 107.416C174.031 108.229 174.038 109.042 173.968 109.854C173.887 111.55 173.844 113.248 173.812 114.946C173.79 116.113 173.832 117.37 173.625 118.521C173.571 118.822 173.564 119.211 173.345 119.448C172.027 119.833 169.481 119.539 168.19 119.099L168.079 119.112C168.077 118.772 168.075 118.486 167.957 118.162C166.949 117.653 165.59 117.426 164.506 117C164.486 114.879 164.626 112.752 164.705 110.633L165.398 95.6058L165.639 90.8684C165.687 89.9772 165.806 89.0293 165.714 88.1424C166.159 86.152 166.08 83.9241 166.188 81.8938L166.824 71.7527C167.016 69.0561 167.208 66.3554 167.474 63.663C167.655 61.8365 167.998 59.968 167.98 58.1332C167.98 57.9503 168.009 57.841 167.899 57.6813L167.436 58.0176C167.675 57.4732 167.966 56.952 168.251 56.4287C169.921 55.4051 172.025 54.9679 173.921 54.4446C175.114 54.1251 176.324 53.8456 177.523 53.5492V53.5471Z" fill="#6A44C5"/>
<path d="M177.521 53.5471C177.418 55.0642 176.796 56.673 176.525 58.188C176.04 60.9054 175.852 63.6957 175.622 66.4402C175.227 71.1748 175.052 75.9303 174.851 80.6753C174.763 82.7467 174.818 84.9098 174.589 86.9666C174.512 86.2727 174.613 85.56 174.506 84.8681C174.37 83.9908 174.003 83.0926 173.743 82.2403C173.417 81.1734 173.142 80.0981 172.897 79.0124C171.909 74.632 171.094 70.0891 170.817 65.615C172.237 65.2149 173.666 64.8439 175.093 64.4605C173.942 63.9854 172.731 63.6332 171.573 63.1601C171.872 61.2555 172.237 59.3195 172.856 57.4836C173.194 56.475 173.857 55.4706 174.036 54.4349C175.192 54.1181 176.363 53.8409 177.523 53.5471H177.521Z" fill="#936FE9"/>
<path d="M193.463 53.5471C194.588 53.9743 195.735 54.3517 196.853 54.7914C196.506 58.1695 195.715 61.5352 195.31 64.9195C194.261 65.1559 193.179 65.3571 192.15 65.6619C193.009 66.4665 193.877 67.2649 194.722 68.0841C193.788 70.9375 192.627 73.7495 191.498 76.5429C190.357 79.3694 189.153 82.5754 187.517 85.1862C187.426 85.3293 187.465 85.2609 187.385 85.4475C187.785 79.3922 189.069 71.5908 190.421 65.6142C191.332 61.585 192.445 57.5598 193.463 53.5492V53.5471Z" fill="#936FE9"/>
<path d="M196.895 55.0705C199.367 56.0715 203.255 57.4496 205.08 59.3645C206.145 60.4815 206.879 61.8596 207.576 63.2046C208.502 64.993 209.394 66.8084 210.18 68.657C213.498 76.4574 216.692 88.3589 216.575 96.7748C216.514 101.143 215.717 105.589 214.83 109.862C214.247 112.668 213.631 116.261 212.464 118.893C212.351 119.146 212.215 119.393 212.065 119.627C210.193 119.055 208.312 118.501 206.461 117.865C207.08 111.596 207.931 102.575 206.783 96.4785C206.324 94.0331 205.489 91.71 204.435 89.4469C205.015 95.5024 205.264 101.643 205.383 107.721C205.443 110.776 205.329 113.872 205.506 116.918C204.309 117.188 203.092 117.351 201.867 117.443C196.468 118.11 190.537 117.847 185.413 116.008C185.638 114.266 185.77 112.512 185.923 110.765C185.96 109.972 186.064 109.172 186.133 108.38C186.395 104.291 186.783 100.209 187.103 96.1241L187.867 85.7022C187.945 85.5157 187.909 85.584 187.993 85.4411C189.552 82.8319 190.697 79.6301 191.786 76.8034C192.859 74.012 193.968 71.2018 194.858 68.3503C194.054 67.5317 193.225 66.7338 192.407 65.9297C193.388 65.6251 194.416 65.4241 195.418 65.1878C195.806 61.8057 196.557 58.4423 196.888 55.0664L196.895 55.0705Z" fill="#6A44C5"/>
<path d="M183.771 55.448C184.411 56.357 184.923 57.4506 185.413 58.448C185.088 58.7094 184.765 58.9689 184.432 59.2206L184.138 59.2437C183.315 59.2341 182.493 59.2264 181.669 59.2437C181.414 58.9766 181.249 58.7248 181.073 58.4C181.545 57.4256 182.897 56.2609 183.672 55.446H183.771V55.448Z" fill="#161B21"/>
<path d="M41.03 56.5905H41.2219L41.348 56.8092L41.2534 56.7686L41.4742 56.6999L41.3822 56.8881C48.3718 71.5591 57.8981 80.1878 73.6122 85.7775C74.9949 86.2708 82.9466 88.2748 83.2121 88.4757L83.2384 88.7758C80.5571 88.908 77.705 88.0841 75.0974 87.5475C75.2131 89.643 76.4196 96.1787 75.9833 97.6003L75.8308 97.3434C76.0385 96.255 74.8713 89.0555 74.6768 87.4737C66.967 85.5562 59.7355 82.975 53.2795 78.3797C50.9164 76.6987 48.7898 74.7074 46.8314 72.6018C45.8562 71.554 44.9204 70.3562 43.8558 69.4C43.5771 69.1508 43.288 69.0313 42.9305 68.927C42.9173 68.3777 42.8753 67.831 42.8437 67.2817C42.6335 65.0259 42.5651 62.61 42.0972 60.395C41.837 59.159 41.3244 57.9867 41.0589 56.7457L41.0273 56.5854L41.03 56.5905Z" fill="#6A44C5"/>
<path d="M167.525 57.3039L167.974 56.9648C168.081 57.1259 168.05 57.2361 168.053 57.4205C168.07 59.2706 167.74 61.1546 167.563 62.9963C167.304 65.7111 167.116 68.4322 166.933 71.1534L166.316 81.3788C166.211 83.4261 166.287 85.6725 165.856 87.6794C165.252 89.9407 164.62 92.2274 163.787 94.4208C162.542 95.4466 160.763 96.1819 159.324 96.9237C151.523 100.933 143.304 104.267 134.746 106.426C133.816 106.662 132.707 107.094 131.755 107.094C131.519 106.965 131.521 106.905 131.407 106.662C131.409 105.394 129.81 101.268 129.395 99.7317C129.804 99.293 132.536 98.4856 133.297 98.1847C136.146 97.0551 138.935 95.8026 141.698 94.4929C146.598 92.1723 151.249 89.5592 155.786 86.6346C156.909 84.2017 157.742 81.559 158.694 79.0561L163.837 65.7916C164.94 62.9709 166.029 59.9467 167.528 57.3018L167.525 57.3039Z" fill="#6A44C5"/>
<path d="M177.523 59.9708C178.701 59.2451 179.838 58.5195 180.923 57.7246C181.198 58.077 181.454 58.3517 181.853 58.6453L181.862 58.7145C180.2 58.8886 179.378 60.2267 177.523 59.9708Z" fill="#CECDCC"/>
<path d="M185.352 57.7246C186.094 58.818 186.617 60.113 187.368 61.193L187.385 61.3461C187.168 61.913 187.011 62.4261 186.907 63.0413C186.079 61.604 185.193 60.113 184.229 58.8046C184.608 58.4527 184.98 58.09 185.352 57.7246Z" fill="#CECDCC"/>
<path d="M181.708 58.8749C182.549 58.8562 183.388 58.8645 184.229 58.8749C183.868 62.3887 183.933 66.0276 183.858 69.5622C183.746 74.788 183.578 80.0577 183.597 85.2835C182.292 86.8767 180.953 88.4865 179.573 90.0047C178.868 88.4177 178.242 86.7912 177.523 85.2126C177.724 83.1189 178.117 81.019 178.441 78.9399L180.928 63.8192C181.135 62.4888 181.802 60.1324 181.713 58.9437L181.708 58.8749Z" fill="#161B21"/>
<path d="M207.301 65.6997C210.722 71.6816 209.177 83.6378 208.582 90.3574L209.477 91.09L209.395 91.2356C208.807 92.2643 208.768 93.3307 207.529 93.8025C207.306 88.7766 207.226 83.7482 207.164 78.7198C207.112 74.3689 207.029 70.0456 207.301 65.6997Z" fill="#FEFEFE"/>
<path d="M42.8936 69.1174C43.2503 69.2229 43.5414 69.3409 43.8168 69.5845C44.879 70.5286 45.8126 71.7113 46.7856 72.7458C48.7395 74.8249 50.8613 76.7909 53.2191 78.4507C59.6604 82.988 66.8754 85.5366 74.5677 87.4299C74.7618 88.9892 75.9236 96.1002 75.719 97.1749C72.1443 102.214 69.2673 104.075 62.9204 105.235C56.563 106.398 49.9486 106.164 43.7328 104.444C43.4916 104.309 43.2267 104.173 43.0247 103.987C42.7939 103.774 42.6969 103.56 42.6602 103.259C42.5212 102.129 42.6838 100.871 42.7441 99.7336C42.8464 97.7223 42.9434 95.7085 43.0064 93.6973C43.2555 85.5115 43.1637 77.3032 42.8936 69.1199V69.1174Z" fill="#936FE9"/>
<path d="M90.2241 79.3713C91.3342 80.1135 92.3914 81.0727 93.7774 81.1526C93.9507 81.478 93.8773 81.7435 93.8597 82.106C93.4192 83.9529 93.0491 86.0367 92.2768 87.7809L91.9597 89.2453C90.8908 89.2139 89.8277 89.1825 88.7617 89.0883C88.9526 85.8369 89.581 82.5656 90.2241 79.3713Z" fill="#FEFEFE"/>
<path d="M75.8567 97.2205L76.0085 97.4749C75.3673 98.3241 74.7313 99.2438 73.9827 100.01C75.8384 101.92 77.6888 103.729 80.5887 103.842C81.222 103.867 81.8554 103.694 82.4678 103.552L82.5045 105.064L84.1167 144.802C84.3313 150.308 84.2449 155.899 84.6846 161.389C84.7893 166.189 84.983 170.987 85.1531 175.784C85.2657 178.969 85.2814 182.209 85.6059 185.382C84.9071 185.621 84.2371 185.853 83.5043 185.966C82.07 186.148 80.6436 186.349 79.1937 186.357C78.2986 186.372 76.1603 186.153 75.485 186.674L75.3856 187.145L75.3097 187.864L75.2835 188.561C70.0072 188.753 64.7282 188.924 59.4571 189.204C58.1615 189.272 55.8662 189.196 54.6937 189.504C54.0499 189.252 53.5474 188.952 52.9873 188.564C52.3303 187.901 52.0529 187.37 51.799 186.49C50.4852 186.682 49.2158 186.735 47.8889 186.659C46.9964 186.609 44.4734 186.072 43.8269 186.231C43.2066 185.941 42.4948 185.898 41.8169 185.802C41.8692 181.978 42.1807 178.127 42.356 174.305C42.801 164.665 43.3061 154.969 43.3689 145.321C43.7484 143.217 43.6306 139.203 43.6961 136.88C43.929 128.842 43.9735 120.797 43.9866 112.757L43.9369 104.517C50.1423 106.241 56.743 106.475 63.0846 105.311C69.4183 104.147 72.2894 102.28 75.8567 97.223V97.2205Z" fill="#6A44C5"/>
<path d="M75.7858 97.2205L75.938 97.4755C75.2952 98.3267 74.6577 99.2485 73.9074 100.016C75.7675 101.931 77.6223 103.744 80.5292 103.858C81.1641 103.883 81.799 103.709 82.4129 103.567L82.4496 105.083C79.5296 105.237 77.3337 104.886 75.1037 102.944C74.579 102.486 74.1015 101.974 73.6214 101.476C72.4985 102.241 71.5121 103.214 70.2921 103.843C63.5837 107.308 53.5172 107.808 46.0165 108.141C45.762 109.515 45.5258 111.667 44.2403 112.546C44.0829 112.655 44.0068 112.695 43.8389 112.791L43.7891 104.532C50.0095 106.26 56.6261 106.495 62.9829 105.328C69.3319 104.161 72.2099 102.289 75.7858 97.2205Z" fill="#7954D3"/>
<path d="M123.828 102.507C122.413 101.908 120.561 101.12 119.752 99.6774C119.743 99.424 119.7 99.4625 119.871 99.2499C121.01 98.6754 126.42 100.166 128.007 100.41C128.383 100.365 128.636 100.288 128.977 100.114C129.389 101.754 130.975 106.158 130.973 107.51C130.025 108.3 129.372 108.576 128.207 108.906C126.231 110.091 124.071 111.322 121.925 112.131C121.394 112.333 120.93 112.554 120.394 112.29C120.316 112.102 120.281 112.138 120.351 111.978C120.624 111.351 124.068 109.376 124.843 109.051C124.897 109.028 124.951 109.005 125.005 108.985C123.27 109.225 117.795 112.71 116.39 112.179C116.119 112.077 116.099 111.991 115.989 111.738C116.017 111.64 116.021 111.527 116.075 111.444C116.462 110.856 120.869 109.039 121.708 108.698C122.101 108.537 122.567 108.474 122.904 108.202C122.368 108.25 121.982 108.49 121.485 108.659C119.912 109.198 115.462 111.136 114.019 110.826C113.737 110.767 113.535 110.679 113.366 110.428C113.355 110.256 113.336 110.27 113.438 110.091C114.182 108.827 119.257 107.341 120.804 106.902L120.845 106.791L120.819 106.958L120.676 106.764C119.338 107.219 115.425 108.284 114.102 108.361C113.737 108.383 113.529 108.354 113.262 108.094C113.208 107.834 113.184 107.623 113.332 107.386C113.937 106.4 122.307 103.066 123.823 102.502L123.828 102.507Z" fill="#EF8D54"/>
<path d="M129.035 100.259C129.435 101.817 130.975 106.002 130.973 107.287C130.052 108.037 129.418 108.3 128.287 108.613C127.958 108.424 127.623 108.218 127.335 107.971C125.896 106.752 125.566 104.747 125.45 102.958C126.227 102.236 127.672 101.537 128.093 100.54C128.458 100.497 128.704 100.424 129.035 100.259Z" fill="#FCBC89"/>
<path d="M168.649 100.259C168.718 100.313 168.82 100.348 168.858 100.419C169.091 100.878 169.146 103.042 169.239 103.676C168.242 103.51 167.276 103.313 166.3 103.075C166.01 103.028 165.893 102.999 165.688 102.825L165.743 102.662C166.498 102.413 167.778 102.788 168.525 102.955C168.58 102.057 168.58 101.159 168.649 100.259Z" fill="#232E35"/>
<path d="M192.604 101.08C193.824 100.899 195.221 101.163 196.453 101.239C198.298 101.352 200.132 101.407 201.982 101.389L201.97 103.676C198.226 103.566 194.486 103.39 190.747 103.181C190.607 103.149 190.681 103.181 190.542 103.038L190.616 102.88C192.014 102.535 193.763 102.877 195.198 102.94L201.56 103.171L201.613 101.683L198.816 101.691C197.797 101.683 193.236 101.771 192.604 101.08Z" fill="#232E35"/>
<path d="M209.994 105.206C210.318 105.199 210.656 105.183 210.98 105.214C211.501 105.264 212.023 105.617 212.317 106.001C212.611 106.382 212.696 106.786 212.589 107.245C212.438 107.905 211.875 108.268 211.282 108.587C211.018 108.604 210.752 108.622 210.488 108.609C209.95 108.582 209.412 108.313 209.072 107.935C208.759 107.586 208.63 107.145 208.712 106.701C208.85 105.981 209.36 105.59 209.994 105.206Z" fill="#FEFEFE"/>
<path d="M174.048 107.854C177.982 108.792 181.903 109.093 185.952 109.074C185.878 109.878 185.773 110.69 185.734 111.495C185.575 113.271 185.439 115.051 185.205 116.818C190.512 118.686 196.655 118.951 202.246 118.274C202.149 119.189 202.259 119.912 202.513 120.796C202.694 121.764 202.797 122.843 203.109 123.777L203.145 123.977C203.353 124.152 203.49 124.191 203.777 124.164C204.232 124.118 204.68 123.945 205.138 123.884C204.476 124.29 203.808 124.69 203.181 125.142C202.358 125.94 201.802 126.764 201.345 127.793C201.082 128.037 200.809 128.115 200.446 128.111C200.398 128.111 200.354 128.104 200.309 128.102L200.226 128.14C198.208 129.032 195.496 129.194 194.292 131.165L194.155 131.754C194.823 133.433 196.164 133.974 196.525 135.152C197.089 136.951 197.639 138.745 198.121 140.567C198.551 142.193 198.847 144.085 199.596 145.591C200.481 146.275 201.06 146.447 202.203 146.468L202.208 147.537L204.452 177.326C204.541 178.66 205.12 183.28 204.831 184.262C202.533 184.737 199.946 185.047 197.587 184.868C196.959 184.243 196.114 179.653 195.843 178.559C194.931 174.883 193.958 171.217 193.097 167.531C190.745 157.456 188.642 147.335 186.519 137.218C186.138 135.407 184.34 125.694 183.717 124.734C183.876 126.981 183.95 129.139 183.701 131.386L180.336 165.759C179.751 172.062 179.343 178.426 178.585 184.71C178.549 185.015 178.509 185.339 178.343 185.61C176.26 186.126 173.705 186.286 171.606 185.768C171.084 184.312 170.754 175.824 170.606 173.701C169.358 155.676 168.443 137.62 168.055 119.561L168.165 119.549C169.447 119.99 171.976 120.283 173.285 119.898C173.503 119.658 173.51 119.271 173.563 118.97C173.77 117.817 173.727 116.561 173.75 115.391C173.783 113.692 173.823 111.992 173.904 110.294C173.974 109.482 173.967 108.668 174.045 107.854H174.048Z" fill="#936FE9"/>
<path d="M174.104 107.854C177.842 108.668 181.566 108.929 185.413 108.913C185.342 109.611 185.242 110.316 185.206 111.015C184.145 111.019 183.047 110.822 181.997 110.92C181.775 111.127 181.526 111.368 181.228 111.49C180.517 111.78 178.455 111.645 177.759 111.351C177.416 111.207 177.309 111.063 177.173 110.77C177.096 110.606 177.06 110.509 176.92 110.37C176.604 110.062 174.515 110.018 173.972 109.972C174.038 109.267 174.032 108.561 174.106 107.854H174.104Z" fill="#7732EF"/>
<path d="M177.523 109.391C178.62 109.373 180.582 109.33 181.477 109.503C181.812 109.568 181.815 109.658 181.862 109.753C180.667 109.675 179.3 109.682 178.163 109.571C177.73 109.528 177.696 109.492 177.526 109.391H177.523Z" fill="#D9C9FF"/>
<path d="M177.526 110.133C178.722 110.125 180.751 110.16 181.83 110.597L181.862 110.9C180.962 111.304 179.775 111.374 178.807 111.132C178.058 110.945 177.888 110.727 177.523 110.133H177.526Z" fill="#D9C9FF"/>
<path d="M75.7449 111.272C74.1804 113.019 72.3152 114.833 71.4419 117.017C70.2811 119.915 71.4868 133.685 71.7902 137.441C72.8244 150.261 74.4311 163.423 76.7501 176.102C77.1432 178.256 77.6366 180.386 78.2196 182.499C78.5679 183.758 79.0744 185.069 79.2934 186.351C78.3911 186.366 76.2357 186.146 75.555 186.669L75.4547 187.141L75.3782 187.86L75.3518 188.56C70.0331 188.751 64.7117 188.923 59.3983 189.203C58.0923 189.271 55.7786 189.196 54.5966 189.504C53.9476 189.251 53.4411 188.951 52.8765 188.562C52.2143 187.898 51.9346 187.366 51.6787 186.485L53.8817 186.235C54.2827 183.872 54.5096 181.464 54.8763 179.091C56.2112 170.466 57.5172 161.797 59.0632 153.205C60.1106 147.704 60.9021 142.113 61.7331 136.577C62.0603 134.404 63.2211 124.11 63.849 123.004C64.002 120.705 64.1841 118.413 64.469 116.123C68.1415 114.324 71.996 112.913 75.7449 111.274V111.272Z" fill="#4C30A8"/>
<path d="M185.445 116.588C190.515 118.5 196.384 118.772 201.727 118.078C201.634 119.015 201.739 119.756 201.981 120.66C201.926 120.671 201.87 120.681 201.814 120.692C201.013 120.83 200.021 120.737 199.203 120.709C195.206 120.574 191.363 119.949 187.619 118.518C186.996 118.279 186.038 117.949 185.546 117.484C185.334 117.284 185.436 116.858 185.445 116.591V116.588Z" fill="#8E6AE4"/>
<path d="M168.076 119.059L168.055 118.209C168.089 118.182 168.112 118.137 168.155 118.126C168.503 118.042 169.387 118.275 169.775 118.32C170.924 118.45 172.03 118.474 173.184 118.436C173.133 118.76 173.126 119.179 172.921 119.435C171.683 119.849 169.291 119.532 168.078 119.059H168.076Z" fill="#6A44C5"/>
<path d="M178.706 119.626C180.125 120.218 182.382 121.706 183.579 122.707C183.593 123.205 183.475 124.173 183.7 124.593C183.847 126.764 183.915 128.849 183.686 131.019C183.663 131.003 183.638 130.989 183.616 130.973C183.581 130.948 183.545 130.922 183.51 130.898C183.467 130.867 183.42 130.841 183.378 130.806C182.454 130.042 181.648 123.565 181.613 122.169C180.55 121.395 179.614 120.576 178.708 119.626H178.706Z" fill="#8E6AE4"/>
<path d="M203.165 123.743C203.172 123.731 203.178 123.719 203.183 123.705C203.66 122.335 204.206 120.94 205.144 120.108C205.651 119.659 206.138 119.52 206.715 119.708C206.509 120.111 206.594 120.905 206.565 121.414C206.287 121.957 205.797 122.651 205.639 123.258L204.637 123.862C204.306 123.933 203.982 124.123 203.652 124.174C203.444 124.207 203.345 124.16 203.194 123.966L203.168 123.743H203.165Z" fill="#FCBC89"/>
<path d="M207.383 119.629C208.128 119.879 210.785 121.138 211.329 120.975C211.516 120.671 211.58 120.373 211.662 120.027L211.752 120.035C211.845 121.162 211.865 122.339 211.823 123.47C210.233 123.996 208.064 124.99 206.566 125.323C206.416 125.049 206.394 125.018 206.118 124.866C206.286 124.797 206.435 124.707 206.594 124.618C206.64 124.518 206.676 124.453 206.689 124.338C206.742 123.85 206.25 123.25 205.926 122.922C206.14 122.358 206.806 121.712 207.183 121.21C207.222 120.74 207.108 120.001 207.388 119.626L207.383 119.629Z" fill="#FCBC89"/>
<path d="M211.65 123.452C213.469 122.835 215.917 121.78 217.806 122.564C218.353 122.791 218.855 123.179 219.335 123.51C219.188 123.84 219.18 123.976 219.241 124.328L219.375 124.417L219.359 124.624C219.315 125.236 219.188 126.284 219.532 126.809C219.475 127.403 219.532 127.846 219.734 128.406C219.112 129.026 218.579 129.717 217.957 130.335C216.408 131.874 214.175 133.204 212.008 133.813C211.782 134.646 211.517 135.35 210.662 135.802C210.081 136.108 209.426 136.11 208.804 135.919C208.35 135.779 208.002 135.539 207.634 135.264C206.792 135.808 205.684 136.206 204.691 136.442C202.18 137.041 199.888 136.651 197.714 135.336C197.374 135.131 196.603 134.495 196.27 134.417C196.187 134.396 196.099 134.441 196.013 134.451C195.661 133.302 194.35 132.775 193.697 131.137L193.831 130.563C195.008 128.64 197.659 128.48 199.631 127.612L199.712 127.575C199.758 127.577 199.802 127.583 199.846 127.583C200.201 127.587 200.466 127.511 200.725 127.273C201.172 126.27 201.713 125.467 202.519 124.688C203.133 124.246 203.784 123.859 204.432 123.46L205.784 122.931C206.109 123.241 206.595 123.805 206.543 124.267C206.529 124.376 206.494 124.437 206.448 124.532C206.293 124.616 206.141 124.7 205.975 124.766C206.249 124.909 206.271 124.938 206.42 125.197C207.91 124.885 210.066 123.945 211.646 123.448L211.65 123.452Z" fill="#936FE9"/>
<path d="M205.724 122.665C205.978 123.071 206.359 123.811 206.318 124.416C206.308 124.559 206.28 124.64 206.244 124.764C206.122 124.874 206.004 124.984 205.873 125.07C205.089 125.224 204.315 125.283 203.525 125.323L203.165 124.968C203.646 124.39 204.155 123.881 204.663 123.359L205.722 122.665H205.724Z" fill="#473423"/>
<path d="M63.8036 123.047C64.133 128.392 65.0496 133.762 65.7978 139.067C66.6685 145.237 67.4498 151.486 68.6422 157.603C67.4472 157.008 66.0863 156.626 64.8428 156.125C62.8844 155.335 61.0102 154.37 59.1743 153.337C60.188 147.82 60.954 142.211 61.7583 136.659C62.0749 134.479 63.1984 124.153 63.8061 123.044L63.8036 123.047Z" fill="white"/>
<path d="M203.021 123.524C203.243 123.712 203.388 123.755 203.693 123.726C204.176 123.676 204.652 123.49 205.138 123.424C204.435 123.862 203.726 124.293 203.059 124.781C202.185 125.64 201.595 126.53 201.109 127.639C200.831 127.902 200.54 127.986 200.155 127.981C200.105 127.981 200.057 127.975 200.009 127.972C200.457 126.908 201.002 126.006 201.752 125.105C202.171 124.602 202.731 124.112 203.019 123.529L203.021 123.524Z" fill="#FDAE41"/>
<path d="M219.357 124.367C219.327 123.96 219.331 123.805 219.403 123.424C219.589 123.753 219.691 123.989 219.723 124.532C219.774 125.389 219.634 126.417 219.5 127.222C219.331 126.615 219.394 125.408 219.415 124.707L219.423 124.468L219.357 124.367Z" fill="#936FE9"/>
<path d="M202.978 124.946L203.435 125.264C203.49 125.823 203.566 126.388 203.559 126.949C202.814 127.396 201.997 127.695 201.193 127.981C201.637 126.802 202.176 125.86 202.978 124.943V124.946Z" fill="#37382A"/>
<path d="M203.165 125.123C204.089 125.093 204.995 125.052 205.913 124.943C206.164 125.077 206.184 125.104 206.321 125.345C205.286 125.672 204.286 126.066 203.28 126.462C203.286 126.017 203.215 125.567 203.165 125.125V125.123Z" fill="#FCDCB2"/>
<path d="M219.24 124.945L219.374 125.026L219.358 125.217C219.315 125.78 219.187 126.746 219.532 127.23C219.475 127.776 219.532 128.184 219.734 128.699C219.11 129.27 218.576 129.907 217.952 130.475C216.399 131.893 214.161 133.117 211.988 133.678C211.931 133.141 211.768 132.72 211.45 132.255C212.555 131.796 213.636 131.316 214.64 130.704C216.839 129.359 218.785 127.282 219.24 124.943V124.945Z" fill="#AE8FF7"/>
<path d="M219.988 129.5C220.602 131.42 222.875 136.311 221.83 138.01C221.624 138.347 221.338 138.585 220.974 138.778C219.557 139.525 217.939 140.081 216.445 140.693C213.14 142.044 209.82 143.337 206.488 144.63C204.875 145.256 203.187 146.19 201.489 146.567C201.446 146.578 201.403 146.584 201.361 146.59C200.215 146.569 199.635 146.401 198.748 145.734C197.995 144.262 197.701 142.419 197.27 140.833C196.787 139.057 196.236 137.304 195.67 135.549C195.758 135.537 195.845 135.494 195.933 135.514C196.274 135.592 197.065 136.229 197.413 136.434C199.642 137.75 201.992 138.14 204.567 137.54C205.585 137.304 206.721 136.906 207.584 136.362C207.962 136.637 208.319 136.877 208.784 137.017C209.422 137.208 210.091 137.206 210.689 136.9C211.565 136.448 211.837 135.744 212.069 134.911C214.291 134.299 216.58 132.971 218.168 131.432C218.806 130.812 219.352 130.122 219.99 129.503L219.988 129.5Z" fill="#7732EF"/>
<path d="M193.828 131.021C195.794 133.035 198.139 134.927 201.249 135.104C203.05 135.207 204.858 134.779 206.52 134.185C206.652 134.648 206.823 134.973 207.11 135.372C206.3 135.875 205.233 136.244 204.278 136.462C201.861 137.017 199.655 136.656 197.563 135.438C197.236 135.248 196.494 134.659 196.173 134.587C196.093 134.568 196.009 134.61 195.926 134.62C195.587 133.556 194.326 133.067 193.697 131.551L193.826 131.02L193.828 131.021Z" fill="#D9C9FF"/>
<path d="M201.98 147.854C201.074 148.077 199.861 148.711 198.94 148.409C198.435 148.242 198.17 147.757 197.937 147.312C196.73 145.002 195.987 141.153 195.172 138.548C194.741 137.172 194.046 135.737 193.789 134.333C193.658 133.622 193.646 132.968 193.894 132.278C193.982 132.036 194.065 131.89 194.294 131.779C194.932 133.489 196.212 134.04 196.556 135.24C197.096 137.072 197.62 138.899 198.08 140.755C198.491 142.411 198.774 144.338 199.488 145.872C200.334 146.568 200.886 146.744 201.977 146.765L201.982 147.854H201.98Z" fill="#8E6AE4"/>
<path d="M206.716 134.498L206.84 134.026C206.95 133.601 207.063 133.236 207.326 132.876C207.725 132.324 208.271 131.871 208.98 131.794C209.884 131.693 210.63 132.122 211.292 132.665C211.619 133.206 211.786 133.696 211.844 134.32C211.612 135.213 211.34 135.967 210.461 136.451C209.864 136.779 209.19 136.781 208.55 136.576C208.084 136.427 207.725 136.169 207.347 135.875C207.04 135.413 206.858 135.037 206.716 134.501V134.498Z" fill="#7732EF"/>
<g clip-path="url(#clip1_91_13485)">
<path d="M225.284 157.726L227.598 163.378C227.717 163.704 228.15 163.785 228.38 163.522C229.478 162.269 232.208 160.207 234.921 159.644C237.792 159.049 240.932 157.393 241.989 156.805C242.198 156.688 242.279 156.432 242.176 156.219L239.48 150.646C239.359 150.396 239.039 150.31 238.805 150.465C237.613 151.258 236.07 152.618 232.555 153.346C230.568 153.759 226.649 156.09 225.397 157.25C225.266 157.372 225.223 157.56 225.283 157.727L225.284 157.726Z" fill="#936FE9"/>
<path d="M241.987 156.807C240.934 157.392 237.793 159.05 234.921 159.646C232.209 160.209 229.479 162.268 228.38 163.522C228.149 163.786 227.717 163.705 227.596 163.38L227.381 162.851C227.533 163.112 227.92 163.163 228.131 162.919C229.241 161.652 231.995 159.572 234.731 159.006C237.63 158.403 240.799 156.733 241.863 156.14C241.942 156.096 242.005 156.028 242.046 155.954L242.174 156.221C242.278 156.435 242.199 156.689 241.987 156.807V156.807Z" fill="#936FE9"/>
<path d="M239.461 154.552L236.994 155.465C236.705 155.572 236.384 155.429 236.275 155.146C236.166 154.863 236.312 154.548 236.6 154.441L239.067 153.529C239.356 153.422 239.677 153.565 239.786 153.847C239.895 154.13 239.749 154.445 239.461 154.552Z" fill="#D9C9FF"/>
<path d="M230.436 158.232L228.153 159.525C227.886 159.676 227.545 159.586 227.391 159.324C227.237 159.062 227.329 158.728 227.596 158.577L229.879 157.285C230.146 157.133 230.487 157.223 230.64 157.485C230.795 157.747 230.703 158.081 230.436 158.232Z" fill="#D9C9FF"/>
<path d="M234.992 156.873C234.899 157.092 234.706 157.282 234.412 157.444L234.563 157.766C234.596 157.836 234.565 157.919 234.493 157.951C234.421 157.984 234.337 157.953 234.304 157.883L234.152 157.561C233.95 157.639 233.746 157.688 233.539 157.705C233.402 157.717 233.277 157.714 233.165 157.697C233.072 157.683 233.006 157.601 233.007 157.509C233.008 157.398 233.106 157.312 233.217 157.326C233.3 157.336 233.387 157.337 233.479 157.332C233.655 157.321 233.826 157.286 233.993 157.223L233.559 156.301C233.349 156.341 233.169 156.364 233.018 156.367C232.868 156.371 232.725 156.341 232.592 156.276C232.458 156.211 232.352 156.096 232.273 155.929C232.175 155.72 232.169 155.507 232.256 155.292C232.343 155.076 232.531 154.888 232.819 154.728L232.666 154.403C232.633 154.332 232.664 154.249 232.736 154.217C232.808 154.185 232.892 154.216 232.925 154.286L233.077 154.608C233.233 154.543 233.394 154.5 233.558 154.477C233.655 154.463 233.747 154.458 233.835 154.46C233.936 154.463 234.016 154.545 234.02 154.644C234.025 154.754 233.935 154.843 233.823 154.842C233.617 154.839 233.422 154.874 233.236 154.946L233.671 155.871C233.891 155.83 234.077 155.806 234.228 155.8C234.379 155.794 234.522 155.823 234.658 155.885C234.794 155.947 234.901 156.063 234.982 156.233C235.08 156.442 235.083 156.656 234.991 156.874L234.992 156.873ZM232.923 155.939C233.042 155.963 233.195 155.958 233.383 155.925L232.979 155.066C232.816 155.166 232.71 155.274 232.66 155.391C232.611 155.509 232.612 155.622 232.664 155.734C232.718 155.847 232.804 155.916 232.923 155.939ZM234.594 156.781C234.649 156.665 234.65 156.55 234.596 156.436C234.541 156.319 234.453 156.251 234.33 156.231C234.208 156.21 234.048 156.216 233.849 156.248L234.251 157.102C234.425 157.004 234.539 156.897 234.594 156.78V156.781Z" fill="white"/>
</g>
<g clip-path="url(#clip2_91_13485)">
<path d="M132.578 12.9163L134.461 17.5987C134.558 17.869 134.911 17.936 135.097 17.7184C135.991 16.68 138.214 14.9714 140.422 14.5052C142.758 14.0118 145.315 12.6398 146.174 12.1526C146.345 12.0558 146.411 11.8438 146.327 11.6671L144.133 7.04982C144.034 6.84214 143.774 6.77085 143.583 6.8998C142.613 7.55693 141.357 8.68337 138.496 9.28719C136.879 9.62878 133.689 11.5605 132.67 12.5214C132.563 12.6225 132.528 12.7781 132.577 12.9169L132.578 12.9163Z" fill="#936FE9"/>
<path d="M146.173 12.1542C145.316 12.6397 142.759 14.0128 140.422 14.5069C138.214 14.9731 135.992 16.6798 135.098 17.7182C134.91 17.937 134.558 17.8701 134.459 17.6004L134.285 17.1627C134.408 17.3791 134.723 17.4213 134.895 17.2192C135.798 16.169 138.04 14.4455 140.267 13.9769C142.627 13.4772 145.206 12.0935 146.072 11.6019C146.137 11.5653 146.188 11.5095 146.221 11.4475L146.326 11.6694C146.41 11.8461 146.345 12.0569 146.173 12.1549V12.1542Z" fill="#936FE9"/>
<path d="M144.117 10.2862L142.109 11.0425C141.874 11.1312 141.613 11.0128 141.524 10.7784C141.435 10.5441 141.554 10.2831 141.789 10.1944L143.797 9.43812C144.032 9.34947 144.293 9.46788 144.382 9.70222C144.471 9.93655 144.352 10.1975 144.117 10.2862Z" fill="#D9C9FF"/>
<path d="M136.771 13.3352L134.913 14.4064C134.695 14.5316 134.418 14.4572 134.293 14.2403C134.167 14.0233 134.242 13.7462 134.459 13.6216L136.318 12.5503C136.535 12.4251 136.813 12.4995 136.938 12.7165C137.063 12.9334 136.988 13.2105 136.771 13.3352Z" fill="#D9C9FF"/>
<path d="M140.479 12.2094C140.404 12.3904 140.247 12.5479 140.008 12.6824L140.131 12.949C140.157 13.0073 140.132 13.0761 140.073 13.1028C140.015 13.1294 139.946 13.104 139.919 13.0457L139.796 12.7791C139.631 12.8442 139.465 12.8845 139.297 12.8988C139.185 12.9087 139.083 12.9062 138.992 12.892C138.917 12.8802 138.863 12.8126 138.863 12.7364C138.865 12.6446 138.944 12.5733 139.035 12.5845C139.102 12.5925 139.173 12.5938 139.248 12.5894C139.391 12.5808 139.53 12.551 139.666 12.4989L139.313 11.7352C139.142 11.7686 138.995 11.7872 138.873 11.7903C138.75 11.7934 138.634 11.768 138.526 11.7147C138.417 11.6608 138.331 11.5653 138.267 11.4271C138.186 11.2535 138.182 11.0774 138.252 10.8989C138.323 10.7203 138.476 10.5641 138.711 10.432L138.586 10.1624C138.559 10.1041 138.585 10.0353 138.643 10.0086C138.701 9.98197 138.77 10.0074 138.797 10.0657L138.921 10.3322C139.048 10.2789 139.178 10.243 139.313 10.2237C139.391 10.2126 139.466 10.2082 139.537 10.2101C139.62 10.2126 139.685 10.2802 139.688 10.3626C139.692 10.4531 139.619 10.5275 139.528 10.5263C139.36 10.5238 139.201 10.5529 139.05 10.6125L139.404 11.3793C139.583 11.3452 139.734 11.3254 139.857 11.3204C139.98 11.3155 140.097 11.339 140.208 11.3905C140.318 11.4419 140.406 11.538 140.471 11.6787C140.551 11.8523 140.554 12.029 140.478 12.21L140.479 12.2094ZM138.795 11.4357C138.892 11.4549 139.017 11.4512 139.17 11.4233L138.841 10.7123C138.708 10.7947 138.622 10.8846 138.582 10.9813C138.541 11.0786 138.542 11.1729 138.585 11.2652C138.628 11.3595 138.698 11.4165 138.795 11.4357ZM140.155 12.1332C140.2 12.0371 140.201 11.9416 140.157 11.8468C140.113 11.75 140.041 11.6936 139.941 11.6769C139.841 11.6601 139.711 11.6651 139.549 11.6911L139.877 12.3991C140.018 12.3179 140.111 12.2293 140.155 12.1325V12.1332Z" fill="white"/>
</g>
<path d="M59.0361 153.426C60.9271 154.45 62.8523 155.403 64.8668 156.188C66.1459 156.688 67.5458 157.064 68.775 157.654C69.4054 161.153 73.1927 185.083 74.4088 186.461C74.6557 186.518 74.8421 186.493 75.0943 186.461C75.3202 186.716 75.3044 186.817 75.3543 187.156L75.2781 187.871L75.2519 188.566C69.9569 188.756 64.6593 188.927 59.3696 189.205C58.0695 189.273 55.7661 189.198 54.5894 189.504C53.9433 189.253 53.4391 188.954 52.877 188.568C52.2177 187.908 51.9393 187.379 51.6846 186.503L53.8777 186.255C54.2769 183.907 54.5028 181.513 54.8678 179.155C56.1968 170.582 57.4969 161.966 59.0361 153.426Z" fill="#FEFEFE"/>
<g clip-path="url(#clip3_91_13485)">
<path d="M114.398 175.132H134.529V187.731C134.529 191.224 131.512 194.061 127.797 194.061H121.128C117.413 194.061 114.396 191.224 114.396 187.731V175.132H114.398Z" fill="#936FE9"/>
<path d="M124.466 175.132C124.466 175.132 123.986 166.244 135.584 163.679C135.584 163.679 137.682 172.974 124.466 175.132Z" fill="#6A44C5"/>
<path d="M124.461 175.132C124.461 175.132 124.94 166.244 113.343 163.679C113.343 163.679 111.244 172.974 124.461 175.132Z" fill="#6A44C5"/>
<g style="mix-blend-mode:soft-light">
<path d="M134.529 175.132H114.397V176.743H134.529V175.132Z" fill="#D9C9FF"/>
</g>
<g style="mix-blend-mode:soft-light">
<path d="M124.846 174.714C125.905 173.119 127.152 171.653 128.487 170.264C129.162 169.573 129.862 168.904 130.613 168.281C131.359 167.658 132.154 167.067 133.042 166.63C132.285 167.242 131.614 167.923 130.929 168.59C130.252 169.265 129.579 169.943 128.916 170.634C127.577 172.002 126.26 173.39 124.843 174.715L124.846 174.714Z" fill="white"/>
</g>
<g style="mix-blend-mode:soft-light">
<path d="M124.02 174.714C122.604 173.389 121.288 172.001 119.947 170.633C119.286 169.943 118.612 169.265 117.935 168.589C117.249 167.921 116.578 167.242 115.821 166.629C116.71 167.066 117.504 167.657 118.25 168.28C119.001 168.901 119.702 169.572 120.376 170.263C121.713 171.653 122.96 173.119 124.017 174.713L124.02 174.714Z" fill="white"/>
</g>
</g>
<path d="M197.276 184.799C199.49 184.979 201.921 184.667 204.076 184.187C203.956 185.154 203.914 186.677 204.327 187.569C205.649 189.316 206.566 192.121 206.716 194.313C200.803 196.194 194.243 197.016 188.057 196.623C186.927 196.551 185.34 196.506 184.33 195.935C184.069 195.788 183.944 195.635 183.835 195.352C183.843 194.993 183.951 194.743 184.205 194.492C185.003 193.704 187.255 193.296 188.369 192.896C189.076 192.641 189.758 192.344 190.433 192.014C192.193 191.156 193.923 190.189 195.55 189.093C196.232 188.634 196.865 188.107 197.547 187.648C197.766 187.038 197.493 185.411 197.272 184.797L197.276 184.799Z" fill="#161B21"/>
<path d="M197.248 184.823C199.725 185.011 202.445 184.686 204.857 184.187C204.723 185.192 204.676 186.775 205.137 187.703C203.913 188.648 201.654 188.847 200.126 188.701C199.257 188.617 198.157 188.427 197.556 187.787C197.801 187.153 197.495 185.461 197.248 184.823Z" fill="#FCBC89"/>
<path d="M171.584 185.857C173.594 186.35 176.042 186.2 178.037 185.706C177.893 186.396 177.694 187.439 178.095 188.069C178.886 190.073 179.13 192.204 179.098 194.324C175.926 195.024 172.4 195.359 169.142 195.526C166.932 195.64 158.112 195.705 156.814 194.288C156.61 194.066 156.617 193.985 156.615 193.71C157.029 192.856 158.863 192.597 159.767 192.334C162.699 191.484 165.656 190.364 168.334 188.952C169.402 188.39 170.396 187.722 171.451 187.14C171.68 186.815 171.601 186.23 171.584 185.857Z" fill="#161B21"/>
<path d="M172.553 185.87C174.453 186.409 176.766 186.245 178.652 185.706C178.516 186.46 178.327 187.599 178.706 188.287C178.177 188.807 177.501 188.947 176.813 189.043C175.741 189.194 173.424 189.216 172.608 188.349C172.3 188.02 172.411 187.707 172.427 187.271C172.645 186.916 172.57 186.276 172.553 185.868V185.87Z" fill="#FCBC89"/>
<path d="M79.2022 186.465C80.6488 186.455 82.0718 186.262 83.5027 186.086C83.8474 186.997 84.1842 187.572 84.9284 188.268L85.0485 188.31C86.0382 188.955 86.999 189.483 88.1506 189.835C89.7172 190.317 92.1273 190.138 93.211 191.404C93.6522 191.92 93.7436 192.671 93.8899 193.301C87.4325 193.306 81.0117 192.937 74.5596 192.851C74.7659 191.424 75.1706 190.038 75.3011 188.601L75.3272 187.924L75.403 187.227L75.5022 186.77C76.1759 186.264 78.3092 186.477 79.2022 186.462V186.465Z" fill="#212930"/>
<path d="M79.1836 186.468C80.6066 186.458 82.0065 186.263 83.4141 186.086C83.7531 187.005 84.0845 187.584 84.8165 188.286L84.4133 188.545C82.944 189.486 82.2685 190.713 81.4568 192.162C79.4147 192.076 77.3907 191.585 75.3486 191.433C75.5593 190.652 76.15 189.767 76.055 188.949C76.0036 188.488 75.7185 188.227 75.3718 187.939L75.4462 187.236L75.5438 186.776C76.2066 186.266 78.3051 186.48 79.1836 186.465V186.468Z" fill="#081322"/>
<path d="M43.7335 186.117C44.3785 185.949 46.8956 186.509 47.786 186.564C49.1125 186.643 50.3763 186.588 51.6871 186.388C51.9378 187.304 52.2146 187.859 52.8726 188.554C53.434 188.959 53.9327 189.272 54.5751 189.535C54.609 189.551 54.643 189.567 54.6795 189.582C57.1758 190.656 60.693 189.322 61.9725 192.558C62.1135 192.916 62.218 193.3 62.3302 193.669C58.1472 193.74 54.0267 193.487 49.8541 193.363C47.4387 193.29 45.0208 193.303 42.6055 193.229C42.6942 192.3 42.7674 191.372 42.9293 190.453L43.0676 190.353C43.0572 189.017 43.5037 187.449 43.7335 186.122V186.117Z" fill="#212930"/>
<path d="M43.6724 186.117C44.3209 185.95 46.8521 186.505 47.7475 186.56C49.0814 186.638 50.3522 186.583 51.6703 186.385C51.9224 187.292 52.2007 187.842 52.8624 188.53C51.6388 188.683 50.6253 189.092 49.8507 190.075C49.4752 190.554 49.231 191.182 48.9763 191.732C48.1623 191.732 44.4732 191.935 44.0925 191.526C43.864 191.281 43.78 190.963 43.6697 190.653C43.436 190.46 43.2995 190.366 43.0002 190.306C42.9897 188.983 43.4387 187.43 43.6697 186.117H43.6724Z" fill="#081322"/>
<path opacity="0.25" d="M18.7023 199.014C26.1961 199.014 32.2709 195.998 32.2709 192.277C32.2709 188.557 26.1961 185.541 18.7023 185.541C11.2086 185.541 5.13379 188.557 5.13379 192.277C5.13379 195.998 11.2086 199.014 18.7023 199.014Z" fill="#D9C9FF"/>
<path d="M30.8127 190.974C30.8132 190.992 30.8131 191.008 30.8131 191.026C30.8131 191.661 30.5915 192.272 30.183 192.842C30.0832 192.981 29.9722 193.118 29.8508 193.252C29.5108 193.627 29.0877 193.981 28.5924 194.309C28.4851 194.38 28.3742 194.45 28.2601 194.518C27.8761 194.75 27.4553 194.966 27.0017 195.165C26.893 195.214 26.7823 195.261 26.6695 195.307C26.2721 195.47 25.8516 195.62 25.4107 195.757C25.3012 195.791 25.1906 195.824 25.0784 195.857C24.6744 195.973 24.2542 196.079 23.82 196.173C23.7102 196.198 23.5995 196.22 23.4878 196.243C23.0792 196.324 22.6595 196.395 22.2293 196.455C22.1191 196.471 22.0085 196.485 21.8971 196.499C21.4859 196.551 21.0658 196.592 20.6387 196.622C20.5285 196.63 20.4178 196.638 20.3065 196.644C19.8931 196.668 19.4733 196.682 19.0481 196.686C18.9743 196.686 18.8999 196.687 18.8257 196.687C18.7892 196.687 18.7523 196.687 18.7159 196.686C18.2906 196.685 17.8708 196.672 17.4571 196.65C17.3457 196.645 17.235 196.638 17.1248 196.63C16.8101 196.609 16.4992 196.582 16.1926 196.55C16.0832 196.538 15.9744 196.526 15.8663 196.513C15.755 196.5 15.6444 196.485 15.5342 196.47C15.1043 196.413 14.6843 196.344 14.2758 196.264C14.164 196.243 14.0535 196.221 13.9436 196.197C13.6832 196.142 13.4281 196.083 13.1779 196.02C13.0114 195.978 12.8471 195.934 12.6851 195.888C12.5733 195.856 12.4624 195.824 12.3529 195.791C11.9127 195.657 11.4922 195.51 11.094 195.352C11.0155 195.32 10.9376 195.288 10.8606 195.256C10.8274 195.242 10.7947 195.228 10.7619 195.214C10.5821 195.137 10.4066 195.057 10.2372 194.975C9.98018 194.85 9.73554 194.72 9.50353 194.585C9.38953 194.518 9.27897 194.45 9.17126 194.382C8.7467 194.11 8.37242 193.819 8.05513 193.513C8.00639 193.466 7.95867 193.419 7.91285 193.371C7.85513 193.311 7.79959 193.251 7.74676 193.191C7.68859 193.125 7.63349 193.058 7.58066 192.99C7.10064 192.379 6.83838 191.716 6.83838 191.026C6.83838 190.977 6.83984 190.929 6.84291 190.88L6.844 186.968L7.58066 186.967L7.91285 186.966L9.17126 186.963L9.50353 186.962L10.4856 186.96L10.7619 186.959L11.0941 186.958L12.353 186.956L12.6852 186.955L13.9436 186.952L14.2758 186.951L15.5342 186.948L15.8664 186.948L17.1248 186.945L17.4571 186.944L18.7159 186.942L19.0481 186.941L20.3065 186.938L20.6387 186.937L21.8971 186.934L22.2293 186.934L23.4878 186.93L23.82 186.93L25.0784 186.927L25.4107 186.926L26.6695 186.924L27.0017 186.923H27.0836L28.2601 186.92L28.5924 186.919L29.8508 186.916L30.183 186.916L30.8087 186.914L30.8127 190.974Z" fill="#936FE9"/>
<path d="M7.91325 186.966V193.371C7.85552 193.311 7.79999 193.251 7.74715 193.191C7.68899 193.125 7.63389 193.058 7.58105 192.99V186.967L7.91325 186.966Z" fill="#7732EF"/>
<path d="M9.50365 186.962V194.584C9.38966 194.518 9.2791 194.45 9.17139 194.382V186.963L9.50365 186.962Z" fill="#7732EF"/>
<path d="M11.0944 186.958V195.351C11.0158 195.32 10.938 195.288 10.8609 195.256C10.8278 195.242 10.795 195.228 10.7622 195.214V186.959L11.0944 186.958Z" fill="#7732EF"/>
<path d="M12.6852 186.955V195.888C12.5734 195.856 12.4626 195.824 12.353 195.791V186.956L12.6852 186.955Z" fill="#7732EF"/>
<path d="M14.276 186.951V196.264C14.1643 196.243 14.0538 196.221 13.9438 196.197V186.952L14.276 186.951Z" fill="#7732EF"/>
<path d="M15.8664 186.948V196.513C15.755 196.499 15.6444 196.485 15.5342 196.47V186.948L15.8664 186.948Z" fill="#7732EF"/>
<path d="M17.4573 186.944V196.65C17.3459 196.644 17.2352 196.637 17.125 196.63V186.945L17.4573 186.944Z" fill="#7732EF"/>
<path d="M19.0485 186.94V196.686C18.9748 196.686 18.9003 196.687 18.8261 196.687C18.7897 196.687 18.7528 196.687 18.7163 196.686V186.941L19.0485 186.94Z" fill="#7732EF"/>
<path d="M20.6388 186.937V196.622C20.5286 196.63 20.418 196.637 20.3066 196.644V186.938L20.6388 186.937Z" fill="#7732EF"/>
<path d="M22.2292 186.934V196.455C22.119 196.471 22.0084 196.485 21.897 196.499V186.934L22.2292 186.934Z" fill="#7732EF"/>
<path d="M23.8205 186.93V196.173C23.7106 196.197 23.6 196.22 23.4883 196.243V186.93L23.8205 186.93Z" fill="#7732EF"/>
<path d="M25.4109 186.926V195.757C25.3014 195.791 25.1908 195.824 25.0786 195.857V186.927L25.4109 186.926Z" fill="#7732EF"/>
<path d="M27.0021 186.922V195.165C26.8934 195.213 26.7827 195.261 26.6699 195.307V186.923L27.0021 186.922Z" fill="#7732EF"/>
<path d="M28.5925 186.919V194.309C28.4852 194.38 28.3743 194.45 28.2603 194.518V186.92L28.5925 186.919Z" fill="#7732EF"/>
<path d="M30.1828 186.916V192.842C30.083 192.981 29.972 193.118 29.8506 193.252V186.916L30.1828 186.916Z" fill="#7732EF"/>
<path d="M30.8107 186.972C30.8107 190.318 25.4464 193.031 18.827 193.031C17.9226 193.031 17.0417 192.98 16.1947 192.884C15.1295 192.763 14.118 192.571 13.1808 192.317C12.3443 192.091 11.5672 191.816 10.8643 191.499C10.6495 191.403 10.4413 191.302 10.241 191.198C9.35977 190.741 8.62071 190.213 8.05957 189.634C7.94974 189.521 7.84656 189.406 7.75128 189.289C7.16603 188.575 6.84326 187.792 6.84326 186.972C6.84326 186.897 6.84626 186.822 6.85291 186.747C7.08521 183.505 12.3576 180.913 18.827 180.913C20.4191 180.913 21.9385 181.07 23.3279 181.355C23.5964 181.41 23.86 181.47 24.1183 181.534C25.2472 181.815 26.2752 182.184 27.1687 182.622C27.3657 182.719 27.556 182.818 27.7395 182.921C28.3922 183.288 28.9574 183.696 29.4187 184.135C29.8941 184.588 30.2594 185.075 30.4961 185.588C30.6689 185.962 30.7732 186.349 30.8014 186.747C30.8081 186.822 30.8107 186.897 30.8107 186.972Z" fill="#6A44C5"/>
<path opacity="0.2" d="M21.6497 182.788L9.90121 188.727C9.79029 188.585 9.69266 188.438 9.60986 188.289L20.7263 182.669C21.039 182.701 21.3476 182.741 21.6497 182.788Z" fill="white"/>
<path d="M20.1 189.451V190.256H18.0786V189.488C16.6449 189.444 15.2543 189.248 14.394 188.98L15.4836 187.733C16.4298 188.016 17.6914 188.197 18.7953 188.197C19.7558 188.197 20.0999 188.096 20.0999 187.922C20.0999 187.284 14.5517 187.799 14.5517 185.907C14.5517 185.088 15.7273 184.399 18.0785 184.233V183.443H20.0999V184.218C21.1608 184.269 22.1931 184.407 23.0102 184.638L21.9924 185.878C21.0031 185.624 20.0712 185.501 19.1967 185.501C18.2074 185.501 17.8921 185.646 17.8921 185.82C17.8921 186.429 23.4404 185.922 23.4404 187.792C23.4404 188.574 22.3222 189.256 20.1 189.451Z" fill="#9895FF"/>
<path d="M30.5393 184.748C30.5397 184.765 30.5397 184.782 30.5397 184.8C30.5397 185.435 30.3181 186.046 29.9095 186.615C29.8098 186.755 29.6988 186.892 29.5773 187.025C29.2373 187.401 28.8143 187.754 28.3189 188.083C28.2117 188.154 28.1007 188.223 27.9867 188.292C27.6027 188.523 27.182 188.739 26.7283 188.939C26.6196 188.987 26.509 189.035 26.3961 189.081C25.9988 189.243 25.5782 189.394 25.1373 189.531C25.0278 189.565 24.9172 189.598 24.805 189.63C24.401 189.747 23.9808 189.853 23.5466 189.947C23.4368 189.971 23.3262 189.994 23.2144 190.017C22.8058 190.098 22.3861 190.169 21.956 190.229C21.8457 190.244 21.7351 190.259 21.6238 190.273C21.2126 190.324 20.7925 190.366 20.3654 190.396C20.2552 190.404 20.1445 190.411 20.0332 190.418C19.6198 190.442 19.2001 190.456 18.7748 190.459C18.701 190.46 18.6266 190.461 18.5524 190.461C18.5159 190.461 18.479 190.461 18.4426 190.46C18.0173 190.458 17.5975 190.446 17.1838 190.424C17.0724 190.418 16.9617 190.411 16.8515 190.404C16.5369 190.383 16.2259 190.356 15.9193 190.323C15.8099 190.312 15.7012 190.3 15.5931 190.287C15.4817 190.273 15.3711 190.259 15.2609 190.244C14.831 190.186 14.411 190.117 14.0025 190.038C13.8907 190.017 13.7802 189.995 13.6703 189.971C13.4099 189.916 13.1548 189.857 12.9046 189.794C12.7381 189.752 12.5739 189.708 12.4118 189.662C12.3001 189.63 12.1891 189.598 12.0796 189.565C11.6394 189.431 11.2189 189.284 10.8208 189.126C10.7422 189.094 10.6643 189.062 10.5873 189.03C10.5541 189.016 10.5214 189.002 10.4886 188.988C10.3088 188.911 10.1334 188.831 9.96389 188.749C9.70689 188.624 9.46217 188.494 9.23016 188.359C9.11617 188.292 9.0056 188.224 8.89789 188.156C8.47333 187.884 8.09905 187.593 7.78169 187.287C7.73295 187.24 7.68523 187.193 7.63942 187.145C7.58169 187.085 7.52616 187.025 7.47332 186.964C7.41516 186.899 7.36006 186.832 7.30722 186.764C6.8272 186.153 6.56494 185.49 6.56494 184.8C6.56494 184.751 6.5664 184.703 6.56947 184.654L6.57057 180.742L7.30722 180.741L7.63942 180.74L8.89782 180.737L9.23009 180.736L10.2122 180.734L10.4885 180.733L10.8207 180.732L12.0795 180.73L12.4117 180.729L13.6702 180.726L14.0024 180.725L15.2608 180.722L15.593 180.722L16.8514 180.719L17.1837 180.718L18.4424 180.715L18.7746 180.714L20.033 180.712L20.3652 180.711L21.6236 180.708L21.9558 180.708L23.2143 180.704L23.5465 180.704L24.8049 180.701L25.1371 180.7L26.396 180.698L26.7282 180.696H26.8101L27.9866 180.694L28.3188 180.693L29.5772 180.69L29.9094 180.69L30.5351 180.688L30.5393 184.748Z" fill="#936FE9"/>
<path d="M7.63981 180.74V187.145C7.58208 187.085 7.52655 187.025 7.47372 186.965C7.41555 186.899 7.36045 186.832 7.30762 186.764V180.741L7.63981 180.74Z" fill="#7732EF"/>
<path d="M9.23071 180.736V188.358C9.11671 188.292 9.00615 188.224 8.89844 188.156V180.737L9.23071 180.736Z" fill="#7732EF"/>
<path d="M10.8214 180.732V189.125C10.7429 189.094 10.665 189.062 10.588 189.03C10.5548 189.016 10.5221 189.002 10.4893 188.988V180.733L10.8214 180.732Z" fill="#7732EF"/>
<path d="M12.4123 180.729V189.662C12.3005 189.63 12.1896 189.597 12.0801 189.564V180.729L12.4123 180.729Z" fill="#7732EF"/>
<path d="M14.0026 180.725V190.038C13.8909 190.017 13.7803 189.994 13.6704 189.971V180.726L14.0026 180.725Z" fill="#7732EF"/>
<path d="M15.5934 180.722V190.287C15.4821 190.273 15.3715 190.259 15.2612 190.244V180.722L15.5934 180.722Z" fill="#7732EF"/>
<path d="M17.1843 180.718V190.424C17.073 190.418 16.9622 190.411 16.8521 190.404V180.719L17.1843 180.718Z" fill="#7732EF"/>
<path d="M18.7751 180.714V190.459C18.7013 190.46 18.6269 190.461 18.5527 190.461C18.5162 190.461 18.4793 190.461 18.4429 190.46V180.715L18.7751 180.714Z" fill="#7732EF"/>
<path d="M20.3659 180.711V190.396C20.2557 190.404 20.1451 190.411 20.0337 190.418V180.712L20.3659 180.711Z" fill="#7732EF"/>
<path d="M21.9562 180.707V190.229C21.846 190.244 21.7354 190.259 21.624 190.273V180.708L21.9562 180.707Z" fill="#7732EF"/>
<path d="M23.547 180.704V189.947C23.4372 189.971 23.3266 189.994 23.2148 190.017V180.704L23.547 180.704Z" fill="#7732EF"/>
<path d="M25.1379 180.7V189.531C25.0285 189.565 24.9178 189.598 24.8057 189.63V180.701L25.1379 180.7Z" fill="#7732EF"/>
<path d="M26.7287 180.696V188.939C26.6199 188.987 26.5093 189.035 26.3965 189.081V180.697L26.7287 180.696Z" fill="#7732EF"/>
<path d="M28.3195 180.693V188.083C28.2122 188.154 28.1013 188.224 27.9873 188.292V180.694L28.3195 180.693Z" fill="#7732EF"/>
<path d="M29.9098 180.689V186.615C29.8101 186.755 29.6991 186.892 29.5776 187.026V180.69L29.9098 180.689Z" fill="#7732EF"/>
<path d="M30.5368 180.745C30.5368 184.091 25.1725 186.804 18.5531 186.804C17.6487 186.804 16.7678 186.753 15.9208 186.657C14.8556 186.537 13.844 186.344 12.9069 186.091C12.0703 185.864 11.2933 185.589 10.5904 185.273C10.3755 185.176 10.1674 185.076 9.96704 184.971C9.08585 184.514 8.34678 183.987 7.78565 183.407C7.67582 183.294 7.57264 183.179 7.47735 183.062C6.8921 182.349 6.56934 181.566 6.56934 180.745C6.56934 180.67 6.57233 180.595 6.57898 180.52C6.81128 177.279 12.0836 174.687 18.5531 174.687C20.1451 174.687 21.6646 174.843 23.054 175.128C23.3224 175.183 23.5861 175.243 23.8445 175.308C24.9733 175.589 26.0012 175.957 26.8949 176.396C27.0918 176.492 27.2822 176.592 27.4657 176.695C28.1183 177.062 28.6835 177.469 29.1448 177.908C29.6203 178.361 29.9855 178.849 30.2223 179.361C30.395 179.736 30.4994 180.123 30.5277 180.52C30.5343 180.595 30.5368 180.67 30.5368 180.745Z" fill="#6A44C5"/>
<path d="M19.8852 183.493V184.298H17.8637V183.529C16.43 183.486 15.0394 183.29 14.1792 183.022L15.2688 181.775C16.215 182.058 17.4767 182.239 18.5805 182.239C19.5411 182.239 19.8852 182.138 19.8852 181.964C19.8852 181.326 14.3369 181.84 14.3369 179.949C14.3369 179.13 15.5124 178.441 17.8637 178.274V177.484H19.8852V178.26C20.9461 178.31 21.9783 178.448 22.7955 178.68L21.7776 179.919C20.7883 179.666 19.8564 179.543 18.982 179.543C17.9927 179.543 17.6773 179.688 17.6773 179.862C17.6773 180.47 23.2257 179.963 23.2257 181.833C23.2257 182.616 22.1073 183.297 19.8852 183.493Z" fill="#7732EF"/>
<path d="M19.8266 183.225V184.029H17.8051V183.261C16.3714 183.218 14.9808 183.022 14.1206 182.754L15.2101 181.507C16.1564 181.79 17.4179 181.971 18.5219 181.971C19.4824 181.971 19.8265 181.87 19.8265 181.696C19.8265 181.058 14.2783 181.572 14.2783 179.681C14.2783 178.862 15.4538 178.173 17.8051 178.006V177.216H19.8265V177.992C20.8874 178.042 21.9196 178.18 22.7368 178.412L21.719 179.652C20.7297 179.398 19.7978 179.275 18.9232 179.275C17.934 179.275 17.6186 179.42 17.6186 179.594C17.6186 180.203 23.1669 179.695 23.1669 181.565C23.1669 182.348 22.0487 183.029 19.8266 183.225Z" fill="#9895FF"/>
<path d="M32.0202 178.678C32.0207 178.695 32.0207 178.712 32.0207 178.729C32.0207 179.364 31.799 179.975 31.3905 180.545C31.2907 180.685 31.1797 180.821 31.0583 180.955C30.7183 181.33 30.2952 181.684 29.7999 182.012C29.6926 182.083 29.5817 182.153 29.4676 182.221C29.0836 182.453 28.6629 182.669 28.2092 182.869C28.1005 182.917 27.9899 182.964 27.877 183.01C27.4796 183.173 27.0591 183.323 26.6182 183.46C26.5087 183.494 26.3981 183.528 26.2859 183.56C25.8819 183.677 25.4617 183.783 25.0275 183.877C24.9176 183.901 24.807 183.923 24.6953 183.946C24.2867 184.027 23.867 184.098 23.4368 184.158C23.3266 184.174 23.216 184.189 23.1046 184.202C22.6935 184.254 22.2734 184.295 21.8462 184.326C21.736 184.333 21.6253 184.341 21.514 184.347C21.1006 184.371 20.6809 184.385 20.2556 184.389C20.1818 184.389 20.1074 184.39 20.0332 184.39C19.9968 184.39 19.9598 184.39 19.9234 184.389C19.4981 184.388 19.0784 184.376 18.6646 184.354C18.5533 184.348 18.4425 184.341 18.3324 184.334C18.0176 184.313 17.7067 184.285 17.4001 184.253C17.2907 184.241 17.1819 184.229 17.0739 184.216C16.9625 184.203 16.8519 184.189 16.7417 184.173C16.3119 184.116 15.8918 184.047 15.4833 183.968C15.3715 183.946 15.261 183.924 15.1511 183.9C14.8907 183.846 14.6356 183.787 14.3854 183.723C14.2189 183.681 14.0546 183.637 13.8926 183.591C13.7808 183.56 13.6699 183.527 13.5604 183.494C13.1202 183.361 12.6997 183.214 12.3016 183.055C12.223 183.024 12.1451 182.992 12.0681 182.96C12.0349 182.946 12.0022 182.932 11.9694 182.917C11.7896 182.84 11.6142 182.76 11.4447 182.678C11.1877 182.553 10.9431 182.423 10.711 182.288C10.5971 182.221 10.4865 182.154 10.3788 182.085C9.95422 181.813 9.57994 181.523 9.26265 181.217C9.21391 181.17 9.1662 181.122 9.12038 181.074C9.06265 181.015 9.00719 180.955 8.95428 180.894C8.89611 180.828 8.84101 180.761 8.78818 180.694C8.30816 180.082 8.0459 179.42 8.0459 178.729C8.0459 178.681 8.04736 178.632 8.05036 178.584L8.05153 174.672L8.78818 174.67L9.12038 174.669L10.3788 174.667L10.711 174.665L11.6931 174.663L11.9694 174.663L12.3016 174.662L13.5605 174.659L13.8927 174.659L15.1511 174.655L15.4833 174.655L16.7417 174.652L17.0739 174.651L18.3323 174.649L18.6645 174.648L19.9233 174.645L20.2555 174.644L21.5139 174.641L21.8461 174.641L23.1045 174.637L23.4368 174.637L24.6952 174.634L25.0274 174.633L26.2858 174.631L26.6181 174.63L27.8769 174.627L28.2091 174.626H28.2911L29.4675 174.623L29.7998 174.623L31.0582 174.62L31.3904 174.619L32.0161 174.617L32.0202 178.678Z" fill="#936FE9"/>
<path d="M9.12077 174.669V181.074C9.06304 181.015 9.00758 180.955 8.95467 180.894C8.89651 180.828 8.84141 180.761 8.78857 180.694V174.67L9.12077 174.669Z" fill="#7732EF"/>
<path d="M10.7112 174.666V182.288C10.5972 182.221 10.4866 182.154 10.3789 182.085V174.667L10.7112 174.666Z" fill="#7732EF"/>
<path d="M12.3019 174.662V183.055C12.2234 183.024 12.1455 182.992 12.0685 182.96C12.0353 182.946 12.0025 182.932 11.9697 182.918V174.663L12.3019 174.662Z" fill="#7732EF"/>
<path d="M13.8927 174.659V183.591C13.7809 183.56 13.6701 183.527 13.5605 183.494V174.659L13.8927 174.659Z" fill="#7732EF"/>
<path d="M15.4836 174.655V183.968C15.3718 183.946 15.2613 183.924 15.1514 183.901V174.656L15.4836 174.655Z" fill="#7732EF"/>
<path d="M17.0744 174.651V184.216C16.963 184.203 16.8525 184.189 16.7422 184.173V174.652L17.0744 174.651Z" fill="#7732EF"/>
<path d="M18.6648 174.647V184.354C18.5534 184.348 18.4427 184.341 18.3325 184.334V174.649L18.6648 174.647Z" fill="#7732EF"/>
<path d="M20.2555 174.644V184.389C20.1818 184.39 20.1073 184.39 20.0332 184.39C19.9967 184.39 19.9598 184.39 19.9233 184.39V174.645L20.2555 174.644Z" fill="#7732EF"/>
<path d="M21.8464 174.641V184.326C21.7362 184.334 21.6255 184.341 21.5142 184.347V174.641L21.8464 174.641Z" fill="#7732EF"/>
<path d="M23.4372 174.637V184.158C23.327 184.174 23.2164 184.189 23.105 184.202V174.637L23.4372 174.637Z" fill="#7732EF"/>
<path d="M25.028 174.633V183.877C24.9181 183.901 24.8075 183.924 24.6958 183.946V174.634L25.028 174.633Z" fill="#7732EF"/>
<path d="M26.6184 174.63V183.46C26.5089 183.495 26.3983 183.528 26.2861 183.56V174.631L26.6184 174.63Z" fill="#7732EF"/>
<path d="M28.2097 174.626V182.869C28.101 182.917 27.9903 182.964 27.8774 183.01V174.627L28.2097 174.626Z" fill="#7732EF"/>
<path d="M29.8 174.622V182.012C29.6928 182.083 29.5818 182.153 29.4678 182.221V174.623L29.8 174.622Z" fill="#7732EF"/>
<path d="M31.3908 174.619V180.545C31.291 180.685 31.18 180.821 31.0586 180.955V174.619L31.3908 174.619Z" fill="#7732EF"/>
<path d="M32.0173 174.675C32.0173 178.021 26.6529 180.734 20.0335 180.734C19.1292 180.734 18.2483 180.683 17.4013 180.587C16.336 180.467 15.3245 180.274 14.3873 180.02C13.5508 179.794 12.7737 179.519 12.0708 179.203C11.856 179.106 11.6479 179.006 11.4475 178.901C10.5663 178.444 9.82725 177.917 9.26612 177.337C9.15629 177.224 9.05318 177.109 8.95782 176.992C8.37264 176.278 8.0498 175.496 8.0498 174.675C8.0498 174.6 8.0528 174.525 8.05945 174.45C8.29175 171.208 13.5641 168.616 20.0335 168.616C21.6256 168.616 23.1451 168.773 24.5344 169.058C24.8029 169.113 25.0666 169.173 25.3249 169.238C26.4538 169.519 27.4817 169.887 28.3753 170.325C28.5722 170.422 28.7626 170.522 28.9461 170.625C29.5987 170.992 30.1639 171.399 30.6252 171.838C31.1006 172.291 31.4659 172.779 31.7027 173.291C31.8754 173.665 31.9798 174.053 32.008 174.45C32.0146 174.525 32.0173 174.6 32.0173 174.675Z" fill="#6A44C5"/>
<path d="M29.6124 174.675C29.6124 174.75 29.6084 174.824 29.6031 174.898C29.3718 177.465 25.1688 179.518 20.0342 179.518C14.8996 179.518 10.6965 177.465 10.4653 174.898C10.46 174.824 10.4561 174.75 10.4561 174.675C10.4561 172.005 14.7526 169.833 20.0343 169.833C25.3159 169.833 29.6124 172.005 29.6124 174.675Z" fill="#7732EF"/>
<path d="M29.6031 174.898C29.3718 177.465 25.1688 179.518 20.0342 179.518C19.9192 179.518 19.8057 179.516 19.6921 179.514C18.5467 179.494 17.4521 179.372 16.4419 179.164C15.4315 178.957 14.5067 178.665 13.7021 178.305C13.4977 178.214 13.3013 178.119 13.1114 178.019C12.2535 177.564 11.5666 177.027 11.1082 176.431C10.9973 176.288 10.8997 176.141 10.8169 175.993C10.6191 175.642 10.5001 175.275 10.4653 174.898C10.6966 172.33 14.8997 170.277 20.0342 170.277C20.6837 170.277 21.3185 170.31 21.9332 170.372C22.2459 170.404 22.5547 170.444 22.8567 170.492C24.0902 170.684 25.2182 171 26.1844 171.41C26.3929 171.498 26.5947 171.591 26.7885 171.689C27.5409 172.068 28.1704 172.509 28.6421 172.996C29.1019 173.471 29.412 173.989 29.5429 174.534C29.5722 174.654 29.5923 174.775 29.6031 174.898Z" fill="#936FE9"/>
<path d="M21.3661 177.422V178.227H19.3447V177.459C17.911 177.415 16.5204 177.219 15.6602 176.951L16.7498 175.705C17.696 175.987 18.9576 176.168 20.0615 176.168C21.022 176.168 21.3661 176.067 21.3661 175.893C21.3661 175.255 15.8179 175.77 15.8179 173.878C15.8179 173.059 16.9935 172.37 19.3447 172.204V171.414H21.3661V172.189C22.4271 172.24 23.4592 172.378 24.2764 172.61L23.2585 173.849C22.2692 173.595 21.3374 173.472 20.4629 173.472C19.4737 173.472 19.1582 173.617 19.1582 173.791C19.1582 174.4 24.7065 173.892 24.7065 175.763C24.7065 176.545 23.5883 177.227 21.3661 177.422Z" fill="#7732EF"/>
<path d="M21.3075 177.155V177.959H19.2861V177.191C17.8524 177.147 16.4618 176.952 15.6016 176.684L16.6911 175.437C17.6373 175.72 18.8989 175.901 20.0029 175.901C20.9634 175.901 21.3075 175.799 21.3075 175.625C21.3075 174.987 15.7592 175.502 15.7592 173.61C15.7592 172.791 16.9348 172.103 19.286 171.936V171.146H21.3075V171.921C22.3683 171.972 23.4006 172.11 24.2177 172.342L23.1999 173.581C22.2106 173.328 21.2787 173.204 20.4042 173.204C19.4149 173.204 19.0996 173.349 19.0996 173.523C19.0996 174.132 24.648 173.625 24.648 175.495C24.648 176.278 23.5297 176.959 21.3075 177.155Z" fill="#D9C9FF"/>
<path d="M19.5843 103.852L23.391 105.267L25.9653 102.219L25.7437 106.142L29.5503 107.557L25.6066 108.566L25.385 112.488L23.1693 109.19L19.2256 110.199L21.8 107.151L19.5843 103.852Z" fill="#BFBFF5"/>
<path d="M206.851 35.885L211.978 37.7912L215.446 33.6855L215.147 38.9692L220.275 40.8754L214.963 42.2347L214.664 47.5184L211.68 43.0748L206.367 44.4342L209.835 40.3286L206.851 35.885Z" fill="#F1EBFF"/>
<path d="M243.885 108.211L248.192 110.323L251.611 107.033L250.855 111.629L255.162 113.742L250.387 114.47L249.631 119.066L247.436 114.92L242.661 115.648L246.08 112.357L243.885 108.211Z" fill="#D9C9FF"/>
<path d="M14.0796 71.5974L16.4637 72.4837L18.0761 70.5747L17.9372 73.0314L20.3214 73.9177L17.8514 74.5498L17.7126 77.0065L16.3249 74.9404L13.8549 75.5724L15.4673 73.6635L14.0796 71.5974Z" fill="#D9C9FF"/>
<path opacity="0.25" d="M221.813 202.355C229.931 202.355 236.511 199.088 236.511 195.058C236.511 191.028 229.931 187.76 221.813 187.76C213.696 187.76 207.115 191.028 207.115 195.058C207.115 199.088 213.696 202.355 221.813 202.355Z" fill="#D9C9FF"/>
<path d="M234.737 194.544C234.738 194.563 234.738 194.581 234.738 194.6C234.738 195.288 234.497 195.95 234.055 196.567C233.947 196.719 233.827 196.866 233.695 197.011C233.327 197.418 232.869 197.801 232.332 198.157C232.216 198.234 232.096 198.309 231.972 198.383C231.556 198.634 231.1 198.868 230.609 199.084C230.491 199.136 230.371 199.188 230.249 199.237C229.819 199.414 229.363 199.577 228.885 199.725C228.767 199.762 228.647 199.798 228.525 199.833C228.088 199.96 227.633 200.075 227.162 200.176C227.043 200.202 226.923 200.227 226.802 200.251C226.36 200.339 225.905 200.416 225.439 200.482C225.32 200.498 225.2 200.514 225.079 200.529C224.634 200.585 224.179 200.629 223.716 200.663C223.597 200.671 223.477 200.679 223.356 200.686C222.909 200.712 222.454 200.727 221.993 200.731C221.913 200.732 221.833 200.732 221.752 200.732C221.713 200.732 221.673 200.732 221.633 200.732C221.173 200.73 220.718 200.717 220.27 200.693C220.149 200.687 220.029 200.679 219.91 200.671C219.569 200.648 219.232 200.619 218.9 200.584C218.782 200.571 218.664 200.558 218.547 200.544C218.426 200.53 218.306 200.514 218.187 200.498C217.721 200.435 217.266 200.361 216.824 200.275C216.703 200.252 216.583 200.228 216.464 200.202C216.182 200.143 215.905 200.079 215.634 200.01C215.454 199.964 215.276 199.917 215.101 199.867C214.98 199.833 214.859 199.798 214.741 199.762C214.264 199.617 213.808 199.458 213.377 199.286C213.292 199.252 213.208 199.218 213.124 199.183C213.088 199.168 213.053 199.152 213.017 199.137C212.823 199.054 212.633 198.967 212.449 198.878C212.171 198.743 211.906 198.601 211.654 198.455C211.531 198.383 211.411 198.31 211.294 198.235C210.834 197.941 210.429 197.626 210.085 197.295C210.032 197.244 209.981 197.192 209.931 197.14C209.868 197.076 209.808 197.011 209.751 196.945C209.688 196.874 209.628 196.801 209.571 196.728C209.051 196.066 208.767 195.348 208.767 194.6C208.767 194.548 208.769 194.495 208.772 194.443L208.773 190.205L209.571 190.203L209.931 190.202L211.294 190.199L211.654 190.198L212.718 190.196L213.017 190.195L213.377 190.194L214.741 190.191L215.101 190.191L216.464 190.187L216.824 190.187L218.187 190.183L218.547 190.183L219.91 190.18L220.27 190.179L221.633 190.176L221.993 190.175L223.356 190.172L223.716 190.171L225.079 190.168L225.439 190.167L226.802 190.164L227.162 190.163L228.525 190.161L228.885 190.159L230.249 190.157L230.609 190.155H230.698L231.972 190.153L232.332 190.152L233.695 190.149L234.055 190.148L234.733 190.146L234.737 194.544Z" fill="#936FE9"/>
<path d="M209.931 190.203V197.141C209.869 197.077 209.808 197.012 209.751 196.946C209.688 196.874 209.629 196.802 209.571 196.729V190.204L209.931 190.203Z" fill="#7732EF"/>
<path d="M211.654 190.198V198.456C211.531 198.383 211.411 198.31 211.294 198.236V190.2L211.654 190.198Z" fill="#7732EF"/>
<path d="M213.377 190.195V199.286C213.292 199.253 213.207 199.218 213.124 199.183C213.088 199.168 213.053 199.153 213.017 199.137V190.196L213.377 190.195Z" fill="#7732EF"/>
<path d="M215.1 190.191V199.868C214.979 199.833 214.859 199.798 214.74 199.762V190.192L215.1 190.191Z" fill="#7732EF"/>
<path d="M216.823 190.187V200.275C216.702 200.252 216.582 200.228 216.463 200.202V190.188L216.823 190.187Z" fill="#7732EF"/>
<path d="M218.546 190.183V200.544C218.426 200.53 218.306 200.515 218.187 200.498V190.184L218.546 190.183Z" fill="#7732EF"/>
<path d="M220.27 190.179V200.693C220.149 200.687 220.029 200.679 219.91 200.671V190.18L220.27 190.179Z" fill="#7732EF"/>
<path d="M221.993 190.175V200.732C221.913 200.732 221.833 200.733 221.752 200.733C221.713 200.733 221.673 200.733 221.633 200.732V190.176L221.993 190.175Z" fill="#7732EF"/>
<path d="M223.716 190.172V200.663C223.597 200.671 223.477 200.679 223.356 200.686V190.172L223.716 190.172Z" fill="#7732EF"/>
<path d="M225.439 190.168V200.482C225.32 200.499 225.2 200.515 225.08 200.529V190.168L225.439 190.168Z" fill="#7732EF"/>
<path d="M227.162 190.164V200.177C227.043 200.203 226.923 200.227 226.802 200.252V190.164L227.162 190.164Z" fill="#7732EF"/>
<path d="M228.885 190.16V199.725C228.767 199.763 228.647 199.798 228.525 199.833V190.161L228.885 190.16Z" fill="#7732EF"/>
<path d="M230.609 190.156V199.085C230.491 199.137 230.371 199.188 230.249 199.238V190.157L230.609 190.156Z" fill="#7732EF"/>
<path d="M232.332 190.152V198.157C232.215 198.234 232.095 198.309 231.972 198.384V190.153L232.332 190.152Z" fill="#7732EF"/>
<path d="M234.055 190.148V196.567C233.947 196.719 233.826 196.867 233.695 197.012V190.149L234.055 190.148Z" fill="#7732EF"/>
<path d="M234.734 190.209C234.734 193.833 228.923 196.772 221.753 196.772C220.773 196.772 219.819 196.717 218.901 196.613C217.747 196.482 216.652 196.274 215.637 195.999C214.73 195.754 213.889 195.456 213.127 195.113C212.894 195.009 212.669 194.9 212.452 194.787C211.497 194.291 210.697 193.72 210.089 193.092C209.97 192.97 209.858 192.845 209.755 192.719C209.121 191.946 208.771 191.098 208.771 190.209C208.771 190.128 208.775 190.046 208.782 189.965C209.034 186.454 214.745 183.646 221.753 183.646C223.477 183.646 225.123 183.816 226.628 184.124C226.919 184.184 227.205 184.249 227.485 184.319C228.707 184.623 229.821 185.022 230.789 185.497C231.002 185.602 231.208 185.71 231.407 185.821C232.114 186.219 232.726 186.66 233.226 187.136C233.741 187.627 234.137 188.155 234.393 188.71C234.58 189.115 234.693 189.535 234.724 189.965C234.731 190.046 234.734 190.128 234.734 190.209Z" fill="#6A44C5"/>
<path opacity="0.2" d="M232.053 190.056L221.383 195.451C220.142 195.429 218.956 195.296 217.862 195.072L231.078 188.39C231.576 188.905 231.912 189.465 232.053 190.056Z" fill="white"/>
<path d="M223.196 193.185V194.056H221.006V193.224C219.453 193.177 217.947 192.965 217.015 192.674L218.195 191.324C219.22 191.63 220.587 191.826 221.783 191.826C222.823 191.826 223.196 191.717 223.196 191.528C223.196 190.837 217.186 191.395 217.186 189.345C217.186 188.458 218.459 187.712 221.006 187.532V186.676H223.196V187.516C224.345 187.571 225.463 187.72 226.349 187.971L225.246 189.314C224.174 189.039 223.165 188.906 222.218 188.906C221.146 188.906 220.804 189.063 220.804 189.251C220.804 189.911 226.815 189.361 226.815 191.387C226.815 192.235 225.603 192.973 223.196 193.185Z" fill="#7732EF"/>
<path d="M223.132 192.895V193.767H220.942V192.934C219.389 192.887 217.883 192.675 216.951 192.385L218.131 191.034C219.156 191.341 220.523 191.537 221.719 191.537C222.759 191.537 223.132 191.427 223.132 191.238C223.132 190.547 217.122 191.105 217.122 189.056C217.122 188.168 218.395 187.423 220.942 187.242V186.386H223.132V187.226C224.281 187.281 225.399 187.43 226.285 187.682L225.182 189.024C224.11 188.749 223.101 188.616 222.154 188.616C221.082 188.616 220.74 188.773 220.74 188.962C220.74 189.621 226.75 189.071 226.75 191.097C226.75 191.945 225.539 192.683 223.132 192.895Z" fill="#9895FF"/>
<path d="M237.836 189.769C237.836 189.787 237.836 189.806 237.836 189.824C237.836 190.513 237.596 191.174 237.153 191.791C237.045 191.943 236.925 192.091 236.794 192.236C236.425 192.642 235.967 193.025 235.43 193.381C235.314 193.458 235.194 193.533 235.071 193.608C234.655 193.858 234.199 194.092 233.707 194.309C233.59 194.361 233.47 194.412 233.348 194.462C232.917 194.638 232.462 194.801 231.984 194.949C231.865 194.986 231.746 195.022 231.624 195.057C231.186 195.184 230.731 195.299 230.261 195.4C230.142 195.427 230.022 195.451 229.901 195.476C229.458 195.564 229.004 195.641 228.538 195.706C228.418 195.722 228.299 195.738 228.178 195.753C227.733 195.809 227.277 195.854 226.815 195.887C226.695 195.895 226.576 195.903 226.455 195.91C226.007 195.936 225.552 195.951 225.092 195.955C225.012 195.956 224.931 195.957 224.851 195.957C224.811 195.957 224.771 195.957 224.732 195.956C224.271 195.954 223.817 195.941 223.368 195.917C223.248 195.911 223.128 195.903 223.008 195.896C222.667 195.873 222.331 195.843 221.999 195.808C221.88 195.796 221.762 195.782 221.645 195.768C221.525 195.754 221.405 195.739 221.285 195.722C220.82 195.66 220.365 195.585 219.922 195.499C219.801 195.476 219.681 195.452 219.562 195.426C219.28 195.367 219.004 195.303 218.733 195.234C218.553 195.189 218.375 195.141 218.199 195.092C218.078 195.057 217.958 195.022 217.839 194.986C217.362 194.842 216.907 194.682 216.476 194.51C216.391 194.477 216.306 194.442 216.223 194.407C216.187 194.392 216.151 194.377 216.116 194.361C215.921 194.278 215.731 194.191 215.547 194.102C215.269 193.967 215.004 193.826 214.753 193.68C214.629 193.607 214.509 193.534 214.393 193.46C213.933 193.165 213.527 192.851 213.184 192.519C213.131 192.468 213.079 192.417 213.03 192.365C212.967 192.3 212.907 192.235 212.85 192.17C212.787 192.098 212.727 192.026 212.67 191.953C212.15 191.29 211.866 190.573 211.866 189.825C211.866 189.772 211.867 189.72 211.871 189.667L211.872 185.429L212.67 185.428L213.03 185.427L214.393 185.424L214.753 185.423L215.816 185.42L216.116 185.42L216.476 185.419L217.839 185.416L218.199 185.415L219.562 185.412L219.922 185.411L221.285 185.408L221.645 185.407L223.008 185.404L223.368 185.403L224.732 185.4L225.092 185.399L226.455 185.396L226.815 185.396L228.178 185.392L228.538 185.392L229.901 185.388L230.261 185.388L231.624 185.385L231.984 185.384L233.348 185.381L233.707 185.38H233.796L235.071 185.377L235.43 185.376L236.794 185.373L237.153 185.372L237.831 185.371L237.836 189.769Z" fill="#936FE9"/>
<path d="M213.03 185.427V192.365C212.967 192.3 212.907 192.235 212.85 192.169C212.787 192.098 212.727 192.026 212.67 191.953V185.428L213.03 185.427Z" fill="#7732EF"/>
<path d="M214.753 185.422V193.68C214.63 193.607 214.51 193.534 214.393 193.46V185.424L214.753 185.422Z" fill="#7732EF"/>
<path d="M216.476 185.418V194.51C216.391 194.476 216.307 194.442 216.223 194.407C216.187 194.392 216.152 194.377 216.116 194.361V185.419L216.476 185.418Z" fill="#7732EF"/>
<path d="M218.199 185.415V195.091C218.078 195.057 217.958 195.022 217.839 194.986V185.415L218.199 185.415Z" fill="#7732EF"/>
<path d="M219.922 185.411V195.499C219.801 195.475 219.682 195.452 219.562 195.426V185.411L219.922 185.411Z" fill="#7732EF"/>
<path d="M221.645 185.407V195.768C221.525 195.754 221.405 195.738 221.286 195.722V185.408L221.645 185.407Z" fill="#7732EF"/>
<path d="M223.369 185.403V195.917C223.248 195.911 223.128 195.903 223.009 195.895V185.404L223.369 185.403Z" fill="#7732EF"/>
<path d="M225.092 185.399V195.955C225.012 195.956 224.932 195.956 224.851 195.956C224.812 195.956 224.772 195.956 224.732 195.956V185.4L225.092 185.399Z" fill="#7732EF"/>
<path d="M226.815 185.396V195.887C226.696 195.895 226.576 195.903 226.455 195.91V185.396L226.815 185.396Z" fill="#7732EF"/>
<path d="M228.538 185.391V195.706C228.419 195.722 228.299 195.738 228.178 195.753V185.392L228.538 185.391Z" fill="#7732EF"/>
<path d="M230.261 185.387V195.4C230.142 195.427 230.022 195.451 229.901 195.476V185.388L230.261 185.387Z" fill="#7732EF"/>
<path d="M231.984 185.383V194.949C231.865 194.986 231.746 195.022 231.624 195.057V185.384L231.984 185.383Z" fill="#7732EF"/>
<path d="M233.707 185.38V194.309C233.59 194.361 233.47 194.412 233.348 194.462V185.381L233.707 185.38Z" fill="#7732EF"/>
<path d="M235.43 185.376V193.381C235.314 193.458 235.194 193.533 235.07 193.608V185.377L235.43 185.376Z" fill="#7732EF"/>
<path d="M237.153 185.372V191.791C237.045 191.943 236.925 192.09 236.793 192.235V185.372L237.153 185.372Z" fill="#7732EF"/>
<path d="M237.833 185.433C237.833 189.057 232.022 191.996 224.852 191.996C223.872 191.996 222.918 191.941 222 191.837C220.847 191.706 219.751 191.498 218.736 191.223C217.829 190.978 216.988 190.68 216.226 190.337C215.994 190.233 215.768 190.124 215.551 190.011C214.597 189.515 213.796 188.944 213.188 188.317C213.069 188.194 212.957 188.069 212.854 187.943C212.22 187.17 211.871 186.322 211.871 185.433C211.871 185.352 211.874 185.27 211.881 185.189C212.133 181.678 217.844 178.87 224.852 178.87C226.576 178.87 228.222 179.04 229.727 179.348C230.018 179.408 230.304 179.473 230.584 179.543C231.807 179.847 232.92 180.246 233.888 180.721C234.101 180.826 234.307 180.934 234.506 181.045C235.213 181.443 235.825 181.884 236.325 182.36C236.84 182.851 237.236 183.379 237.492 183.934C237.679 184.339 237.792 184.759 237.823 185.189C237.83 185.27 237.833 185.352 237.833 185.433Z" fill="#6A44C5"/>
<path d="M235.228 185.433C235.228 185.514 235.223 185.594 235.217 185.674C234.967 188.455 230.414 190.679 224.852 190.679C219.29 190.679 214.737 188.455 214.487 185.674C214.481 185.594 214.477 185.514 214.477 185.433C214.477 182.541 219.131 180.188 224.852 180.188C230.573 180.188 235.228 182.541 235.228 185.433Z" fill="#7732EF"/>
<path d="M235.217 185.674C234.967 188.455 230.414 190.679 224.852 190.679C224.728 190.679 224.605 190.677 224.481 190.675C223.241 190.653 222.055 190.52 220.961 190.296C219.866 190.071 218.864 189.755 217.993 189.365C217.771 189.267 217.559 189.163 217.353 189.055C216.424 188.562 215.68 187.98 215.183 187.334C215.063 187.18 214.957 187.021 214.868 186.86C214.653 186.48 214.524 186.083 214.487 185.674C214.737 182.892 219.29 180.668 224.852 180.668C225.556 180.668 226.243 180.704 226.909 180.772C227.248 180.807 227.583 180.85 227.91 180.901C229.246 181.11 230.468 181.451 231.514 181.896C231.74 181.992 231.959 182.093 232.169 182.199C232.984 182.609 233.666 183.087 234.177 183.614C234.675 184.129 235.011 184.689 235.152 185.28C235.184 185.41 235.206 185.541 235.217 185.674Z" fill="#936FE9"/>
<path d="M226.295 188.408V189.28H224.105V188.448C222.553 188.401 221.046 188.189 220.114 187.898L221.295 186.548C222.32 186.854 223.686 187.05 224.882 187.05C225.922 187.05 226.295 186.94 226.295 186.752C226.295 186.061 220.285 186.618 220.285 184.569C220.285 183.682 221.558 182.936 224.105 182.755V181.899H226.295V182.74C227.444 182.794 228.562 182.944 229.448 183.195L228.345 184.537C227.273 184.263 226.264 184.129 225.317 184.129C224.245 184.129 223.903 184.286 223.903 184.475C223.903 185.134 229.914 184.585 229.914 186.61C229.914 187.458 228.702 188.196 226.295 188.408Z" fill="#7732EF"/>
<path d="M226.231 188.119V188.99H224.042V188.158C222.488 188.111 220.982 187.899 220.05 187.609L221.231 186.258C222.256 186.564 223.622 186.761 224.818 186.761C225.858 186.761 226.231 186.651 226.231 186.462C226.231 185.771 220.221 186.329 220.221 184.279C220.221 183.392 221.495 182.646 224.041 182.466V181.61H226.231V182.45C227.38 182.505 228.498 182.654 229.384 182.906L228.281 184.248C227.209 183.973 226.2 183.84 225.253 183.84C224.181 183.84 223.839 183.997 223.839 184.185C223.839 184.845 229.85 184.295 229.85 186.321C229.85 187.169 228.638 187.907 226.231 188.119Z" fill="#D9C9FF"/>
<path d="M37.2799 32.2803C34.5609 32.2803 32.3486 30.1508 32.3486 27.5332C32.3486 24.9156 34.5609 22.7861 37.2799 22.7861C39.999 22.7861 42.211 24.9158 42.211 27.5332C42.211 30.1506 39.999 32.2803 37.2799 32.2803ZM37.2799 30.7911C39.1458 30.7911 40.664 29.3296 40.664 27.5332C40.664 25.7369 39.1459 24.2754 37.2799 24.2754C35.4139 24.2754 33.8957 25.7369 33.8957 27.5332C33.8957 29.3296 35.4137 30.7911 37.2799 30.7911Z" fill="#C0A6FF"/>
<path d="M241.037 78.6116C238.209 78.6116 235.908 76.4821 235.908 73.8645C235.908 71.2469 238.209 69.1174 241.037 69.1174C243.865 69.1174 246.165 71.2471 246.165 73.8645C246.165 76.4819 243.865 78.6116 241.037 78.6116ZM241.037 77.1224C242.977 77.1224 244.556 75.6609 244.556 73.8645C244.556 72.0682 242.977 70.6067 241.037 70.6067C239.096 70.6067 237.517 72.0682 237.517 73.8645C237.517 75.6609 239.096 77.1224 241.037 77.1224Z" fill="#C0A6FF"/>
<path d="M94.2288 80.9349L97.8733 81.5939L100.864 79.5311C101.063 79.4061 101.329 79.4599 101.459 79.6515C102.133 80.7748 100.874 82.4623 100.874 82.4623L106.482 83.5391C107.167 83.6527 107.629 84.2755 107.519 84.936C107.41 85.5802 106.795 86.0282 106.122 85.9544L101.432 85.3267L107.362 86.4704C108.152 86.6228 108.654 87.3732 108.472 88.1275C108.297 88.846 107.565 89.3054 106.812 89.1661L101.177 88.1297L105.352 89.3753C105.899 89.5263 106.227 90.0652 106.097 90.5989C105.964 91.1455 105.402 91.4899 104.831 91.3726L100.569 90.2572L102.409 91.1073C103.023 91.3935 103.209 92.1492 102.794 92.6703C102.489 93.0534 101.949 93.1837 101.493 92.9845L95.8627 90.772L90.5417 88.8655L91.7252 84.688L92.3726 80.7005L94.2288 80.9349Z" fill="#F8BA8B"/>
<g clip-path="url(#clip4_91_13485)">
<path d="M104.972 50.1614L107.608 56.6199C107.744 56.9927 108.238 57.0851 108.5 56.785C109.751 55.3527 112.862 52.996 115.954 52.353C119.225 51.6724 122.804 49.7801 124.007 49.108C124.247 48.9746 124.339 48.6821 124.22 48.4384L121.149 42.0697C121.011 41.7833 120.647 41.6849 120.38 41.8628C119.021 42.7692 117.263 44.3229 113.257 45.1557C110.994 45.6269 106.528 48.2913 105.101 49.6167C104.951 49.7561 104.902 49.9707 104.971 50.1623L104.972 50.1614Z" fill="#936FE9"/>
<path d="M124.006 49.1101C122.805 49.7796 119.226 51.6736 115.954 52.3551C112.863 52.9981 109.752 55.3522 108.5 56.7845C108.237 57.0863 107.744 56.994 107.606 56.622L107.362 56.0183C107.535 56.3168 107.976 56.3749 108.217 56.0961C109.481 54.6476 112.619 52.2705 115.737 51.624C119.041 50.9348 122.652 49.0263 123.864 48.3482C123.955 48.2977 124.026 48.2208 124.073 48.1353L124.219 48.4414C124.337 48.6851 124.247 48.9758 124.006 49.1109V49.1101Z" fill="#936FE9"/>
<path d="M121.127 46.5336L118.315 47.5768C117.987 47.6991 117.621 47.5358 117.496 47.2125C117.372 46.8893 117.538 46.5293 117.867 46.407L120.678 45.3638C121.007 45.2416 121.373 45.4049 121.497 45.7281C121.622 46.0513 121.455 46.4113 121.127 46.5336Z" fill="#D9C9FF"/>
<path d="M110.842 50.7389L108.241 52.2165C107.936 52.3893 107.548 52.2866 107.373 51.9874C107.197 51.6881 107.302 51.3059 107.606 51.134L110.208 49.6564C110.512 49.4837 110.901 49.5863 111.075 49.8855C111.251 50.1848 111.147 50.5671 110.842 50.7389Z" fill="#D9C9FF"/>
<path d="M116.034 49.1862C115.929 49.4358 115.709 49.653 115.374 49.8386L115.546 50.2063C115.584 50.2867 115.548 50.3816 115.466 50.4183C115.385 50.4551 115.288 50.42 115.251 50.3397L115.078 49.972C114.847 50.0618 114.615 50.1173 114.379 50.137C114.223 50.1507 114.08 50.1473 113.952 50.1276C113.847 50.1114 113.772 50.0182 113.772 49.913C113.774 49.7864 113.885 49.6881 114.012 49.7035C114.106 49.7146 114.205 49.7163 114.311 49.7103C114.511 49.6984 114.705 49.6573 114.896 49.5855L114.402 48.532C114.162 48.5782 113.957 48.6038 113.785 48.6081C113.614 48.6124 113.452 48.5773 113.299 48.5038C113.147 48.4294 113.026 48.2977 112.937 48.107C112.825 47.8676 112.818 47.6248 112.917 47.3785C113.016 47.1322 113.23 46.9167 113.558 46.7346L113.384 46.3626C113.346 46.2823 113.382 46.1874 113.464 46.1506C113.545 46.1138 113.642 46.1489 113.679 46.2293L113.852 46.5969C114.031 46.5234 114.213 46.4738 114.401 46.4473C114.511 46.4319 114.616 46.4259 114.716 46.4285C114.831 46.4319 114.923 46.5251 114.927 46.6388C114.932 46.7637 114.83 46.8663 114.703 46.8646C114.468 46.8612 114.245 46.9014 114.033 46.9834L114.53 48.0412C114.78 47.9942 114.991 47.9668 115.164 47.96C115.336 47.9531 115.499 47.9856 115.654 48.0566C115.809 48.1276 115.931 48.2601 116.023 48.4542C116.135 48.6936 116.138 48.9373 116.033 49.187L116.034 49.1862ZM113.677 48.119C113.812 48.1455 113.987 48.1404 114.201 48.1019L113.741 47.1211C113.555 47.2348 113.434 47.3588 113.378 47.4922C113.321 47.6265 113.323 47.7564 113.382 47.8838C113.443 48.0138 113.541 48.0925 113.677 48.119ZM115.581 49.081C115.644 48.9484 115.645 48.8168 115.584 48.6859C115.521 48.5525 115.42 48.4747 115.28 48.4516C115.141 48.4285 114.958 48.4354 114.732 48.4713L115.191 49.4478C115.388 49.3358 115.518 49.2135 115.581 49.0801V49.081Z" fill="white"/>
</g>
<g clip-path="url(#clip5_91_13485)">
<path d="M111.669 51.6526L113.553 56.3351C113.65 56.6053 114.002 56.6723 114.189 56.4547C115.083 55.4163 117.305 53.7077 119.513 53.2416C121.85 52.7481 124.407 51.3762 125.266 50.8889C125.437 50.7922 125.503 50.5802 125.418 50.4035L123.225 45.7862C123.126 45.5785 122.866 45.5072 122.675 45.6361C121.705 46.2933 120.449 47.4197 117.587 48.0235C115.971 48.3651 112.781 50.2968 111.761 51.2577C111.655 51.3588 111.62 51.5144 111.669 51.6533L111.669 51.6526Z" fill="#936FE9"/>
<path d="M125.265 50.8906C124.407 51.376 121.851 52.7492 119.514 53.2432C117.306 53.7094 115.084 55.4161 114.19 56.4545C114.001 56.6734 113.65 56.6064 113.551 56.3367L113.376 55.8991C113.5 56.1154 113.815 56.1576 113.987 55.9555C114.89 54.9053 117.132 53.1819 119.359 52.7132C121.719 52.2135 124.298 50.8298 125.164 50.3382C125.229 50.3016 125.279 50.2458 125.313 50.1838L125.417 50.4058C125.502 50.5825 125.437 50.7932 125.265 50.8912V50.8906Z" fill="#936FE9"/>
<path d="M123.209 49.0225L121.201 49.7789C120.966 49.8675 120.705 49.7491 120.616 49.5148C120.527 49.2804 120.646 49.0194 120.881 48.9308L122.889 48.1745C123.123 48.0858 123.385 48.2042 123.474 48.4385C123.562 48.6729 123.444 48.9339 123.209 49.0225Z" fill="#D9C9FF"/>
<path d="M115.863 52.0715L114.005 53.1427C113.787 53.268 113.509 53.1936 113.385 52.9766C113.259 52.7596 113.334 52.4825 113.551 52.3579L115.409 51.2866C115.627 51.1614 115.905 51.2358 116.029 51.4528C116.155 51.6698 116.08 51.9469 115.863 52.0715Z" fill="#D9C9FF"/>
<path d="M119.571 50.9457C119.496 51.1268 119.339 51.2842 119.099 51.4188L119.222 51.6853C119.249 51.7436 119.224 51.8124 119.165 51.8391C119.107 51.8657 119.038 51.8403 119.011 51.782L118.888 51.5155C118.723 51.5806 118.557 51.6209 118.389 51.6351C118.277 51.645 118.175 51.6426 118.084 51.6283C118.009 51.6165 117.955 51.5489 117.955 51.4727C117.957 51.3809 118.036 51.3097 118.127 51.3208C118.194 51.3289 118.265 51.3301 118.34 51.3258C118.483 51.3171 118.622 51.2873 118.758 51.2353L118.405 50.4715C118.234 50.505 118.087 50.5236 117.965 50.5267C117.842 50.5298 117.726 50.5043 117.617 50.451C117.509 50.3971 117.422 50.3016 117.358 50.1634C117.278 49.9898 117.273 49.8137 117.344 49.6352C117.415 49.4566 117.568 49.3004 117.803 49.1684L117.678 48.8987C117.651 48.8404 117.676 48.7716 117.735 48.745C117.793 48.7183 117.862 48.7437 117.889 48.802L118.012 49.0686C118.14 49.0153 118.27 48.9793 118.404 48.9601C118.483 48.9489 118.558 48.9446 118.629 48.9464C118.712 48.9489 118.777 49.0165 118.78 49.0989C118.784 49.1895 118.711 49.2638 118.62 49.2626C118.452 49.2601 118.293 49.2893 118.142 49.3488L118.496 50.1156C118.675 50.0815 118.826 50.0617 118.949 50.0568C119.072 50.0518 119.189 50.0753 119.299 50.1268C119.41 50.1783 119.498 50.2743 119.563 50.4151C119.643 50.5887 119.645 50.7653 119.57 50.9464L119.571 50.9457ZM117.887 50.1721C117.984 50.1913 118.109 50.1876 118.262 50.1597L117.933 49.4486C117.8 49.531 117.714 49.6209 117.673 49.7176C117.633 49.815 117.634 49.9092 117.676 50.0016C117.72 50.0958 117.79 50.1528 117.887 50.1721ZM119.247 50.8695C119.292 50.7734 119.293 50.6779 119.249 50.5831C119.204 50.4864 119.132 50.43 119.032 50.4132C118.933 50.3965 118.802 50.4014 118.641 50.4275L118.968 51.1354C119.109 51.0542 119.202 50.9656 119.247 50.8689V50.8695Z" fill="white"/>
</g>
<path d="M105.927 56.0158L107.111 55.3064C107.111 55.3064 109.234 54.3538 110.087 53.6412C110.939 52.9287 112.322 50.6936 112.706 50.9082C113.091 51.1228 112.648 54.3608 112.648 54.3608L112.566 54.4221C115.447 54.8119 119.814 50.7625 120.792 51.0242C121.981 51.3419 121.075 53.897 120.608 55.3064C120.145 56.7171 118.207 59.6916 115.651 60.2005C113.782 60.5748 112.042 62.4718 112.042 62.4718L105.927 56.0158Z" fill="#FFB27D"/>
<defs>
<clipPath id="clip0_91_13485">
<rect width="40.2385" height="54.6864" fill="white" transform="translate(0 139.375)"/>
</clipPath>
<clipPath id="clip1_91_13485">
<rect width="16.9633" height="13.2918" fill="white" transform="translate(225.257 150.388)"/>
</clipPath>
<clipPath id="clip2_91_13485">
<rect width="13.8073" height="11.0132" fill="white" transform="translate(132.556 6.83569)"/>
</clipPath>
<clipPath id="clip3_91_13485">
<rect width="22.4862" height="30.3813" fill="white" transform="translate(113.22 163.679)"/>
</clipPath>
<clipPath id="clip4_91_13485">
<rect width="19.3303" height="15.1907" fill="white" transform="translate(104.941 41.7742)"/>
</clipPath>
<clipPath id="clip5_91_13485">
<rect width="13.8073" height="11.0132" fill="white" transform="translate(111.647 45.572)"/>
</clipPath>
</defs>
</svg>
