<svg width="354" height="215" viewBox="0 0 354 215" fill="none" xmlns="http://www.w3.org/2000/svg">
<g clip-path="url(#clip0_91_13753)">
<path opacity="0.25" d="M16.2783 213.014C22.304 213.014 27.1888 211.485 27.1888 209.597C27.1888 207.71 22.304 206.18 16.2783 206.18C10.2525 206.18 5.36768 207.71 5.36768 209.597C5.36768 211.485 10.2525 213.014 16.2783 213.014Z" fill="#D9C9FF"/>
<path d="M24.7722 194.049V207.476C24.7722 209.716 20.9461 211.53 16.2315 211.53C11.5168 211.53 7.69434 209.716 7.69434 207.476V194.049H24.7722Z" fill="#D9C9FF"/>
<path d="M16.2317 198.105C20.9478 198.105 24.771 196.289 24.771 194.048C24.771 191.807 20.9478 189.99 16.2317 189.99C11.5156 189.99 7.69238 191.807 7.69238 194.048C7.69238 196.289 11.5156 198.105 16.2317 198.105Z" fill="#6A44C5"/>
<path d="M23.7012 194.05C23.7012 194.188 23.6477 194.34 23.537 194.504C22.8768 195.502 20.2178 196.841 16.2312 196.841C12.2446 196.841 9.58559 195.502 8.92536 194.504C8.81474 194.34 8.76123 194.188 8.76123 194.05C8.76123 193.064 11.5987 191.254 16.2312 191.254C20.8638 191.254 23.7012 193.064 23.7012 194.05Z" fill="#936FE9"/>
<path d="M16.0664 194.414C16.0565 194.414 16.0466 194.414 16.0366 194.413C15.8096 194.399 15.6387 194.223 15.6548 194.021C15.6657 193.886 16.6917 180.476 12.9557 172.493C12.8681 172.306 12.9674 172.091 13.1775 172.013C13.3876 171.935 13.6289 172.023 13.7165 172.21C17.5283 180.355 16.488 193.937 16.4771 194.073C16.4615 194.266 16.2807 194.414 16.0664 194.414Z" fill="#5D16BC"/>
<path d="M16.0657 186.515C15.8728 186.515 15.7006 186.394 15.6618 186.22C14.5836 181.363 9.33237 179.972 9.27942 179.958C9.06059 179.903 8.93394 179.699 8.99641 179.504C9.05907 179.31 9.28725 179.197 9.50608 179.252C9.74183 179.312 15.2956 180.785 16.4704 186.077C16.5146 186.276 16.3693 186.469 16.1461 186.509C16.1191 186.513 16.0922 186.515 16.0657 186.515Z" fill="#5D16BC"/>
<path d="M15.5644 180.707C15.3451 180.707 15.1627 180.554 15.1529 180.356C14.9064 175.389 17.645 171.718 17.7618 171.564C17.889 171.396 18.1454 171.352 18.334 171.465C18.5226 171.579 18.5722 171.807 18.4448 171.975C18.4101 172.021 15.7428 175.615 15.9764 180.324C15.9865 180.527 15.8103 180.698 15.5829 180.707C15.5767 180.707 15.5705 180.707 15.5644 180.707Z" fill="#5D16BC"/>
<path d="M15.9175 183.567C15.8925 183.567 15.8672 183.564 15.8418 183.56C15.6179 183.523 15.4702 183.332 15.5119 183.132C15.8874 181.332 17.2631 179.988 19.4902 179.246C21.131 178.698 22.6442 178.67 22.7079 178.669C22.7102 178.669 22.7125 178.669 22.7149 178.669C22.9393 178.669 23.1231 178.829 23.1268 179.03C23.1306 179.233 22.9494 179.4 22.7219 179.403C22.6658 179.404 17.1003 179.538 16.3223 183.266C16.2855 183.443 16.1122 183.567 15.9175 183.567Z" fill="#5D16BC"/>
<path d="M6.64779 185.614C1.70879 186.324 0.43457 184.384 0.43457 184.384C0.43457 184.384 2.82401 177.95 6.2227 177.335C8.90184 176.849 9.33756 178.539 9.40237 179.277C9.41884 179.476 9.40944 179.605 9.40944 179.605C9.40944 179.605 9.72621 179.557 10.1431 179.59C10.7355 179.637 11.5304 179.849 11.9049 180.599C12.5055 181.801 11.7047 184.888 6.64779 185.614Z" fill="#6A44C5"/>
<path d="M10.143 179.59C7.39086 180.336 3.92976 183.888 3.89205 183.926C3.83322 183.987 3.75071 184.018 3.66827 184.018C3.6 184.018 3.53168 183.997 3.47631 183.954C3.35383 183.859 3.33972 183.694 3.44569 183.585C3.59526 183.43 6.61591 180.33 9.40223 179.276C9.4187 179.476 9.40936 179.605 9.40936 179.605C9.40936 179.605 9.72613 179.557 10.143 179.59Z" fill="#D9C9FF"/>
<path d="M13.5629 172.375C13.4886 172.371 13.4121 172.363 13.3356 172.351C13.2425 172.447 13.1448 172.536 13.0423 172.619C11.741 173.681 9.72722 173.78 8.34467 172.752C7.73693 172.3 7.01259 171.338 6.61278 170.427C4.93291 166.6 6.37798 163.166 9.27623 161.417C9.27623 161.417 12.7786 160.62 15.42 164.642C17.9955 168.562 16.4304 172.583 13.5629 172.375Z" fill="#6A44C5"/>
<path d="M13.5632 172.375C13.489 172.371 13.4124 172.363 13.3359 172.351C13.2428 172.447 13.1451 172.536 13.0426 172.619C11.5741 170.177 9.85708 163.322 9.78054 163.012C9.7452 162.87 9.84528 162.731 10.0031 162.699C10.1621 162.668 10.3199 162.757 10.3553 162.898C10.3741 162.974 12.1418 170.034 13.5632 172.375Z" fill="#D9C9FF"/>
<path d="M28.4589 169.002C28.4589 169.002 23.7177 175.755 20.2766 175.373C17.4043 175.054 17.8118 172.759 18.025 172.008C18.0674 171.858 18.1027 171.77 18.1027 171.77C18.1027 171.77 17.886 171.739 17.594 171.645C17.1701 171.507 16.5848 171.23 16.2833 170.708C16.1843 170.539 16.1161 170.344 16.0926 170.12C16.0525 169.735 16.2703 169.187 16.725 168.635C17.8178 167.308 20.2744 165.954 23.7755 166.765C26.5289 167.402 28.4589 169.002 28.4589 169.002Z" fill="#6A44C5"/>
<path d="M25.6705 168.89C25.6846 169.034 25.5657 169.162 25.4044 169.175C21.5464 169.495 18.9615 171.261 18.0252 172.008C18.0676 171.858 18.103 171.77 18.103 171.77C18.103 171.77 17.8863 171.739 17.5942 171.645C18.5587 170.86 21.2438 168.993 25.3502 168.653C25.5104 168.641 25.6552 168.745 25.6705 168.89Z" fill="#D9C9FF"/>
<path d="M29.0229 186.721C29.0229 186.721 20.253 185.172 19.431 182.17C18.8046 179.882 20.8807 179.287 21.9041 179.134C22.2232 179.086 22.4399 179.081 22.4399 179.081C22.4399 179.081 22.4128 178.964 22.3987 178.783C22.3587 178.28 22.4234 177.273 23.4575 176.82C24.7823 176.239 29.1479 177.489 29.7072 182.026C30.0181 184.545 29.0229 186.721 29.0229 186.721Z" fill="#6A44C5"/>
<path d="M27.5287 184.489C27.4921 184.501 27.4545 184.508 27.418 184.508C27.3014 184.508 27.1907 184.446 27.1448 184.344C25.6857 181.123 22.32 179.343 21.9043 179.134C22.2235 179.086 22.4402 179.081 22.4402 179.081C22.4402 179.081 22.4131 178.964 22.3989 178.783C23.301 179.265 26.2863 181.047 27.6913 184.147C27.7513 184.281 27.6794 184.434 27.5287 184.489Z" fill="#D9C9FF"/>
<path opacity="0.25" d="M283.931 120.767C292.719 112.115 297.025 100.504 295.362 88.929C293.97 79.2321 288.677 70.514 273.077 74.4303C235.741 83.8034 220.748 71.9386 217.068 54.6639C213.389 37.3889 210.043 -2.79947 176.941 0.15445C143.84 3.10858 133.427 59.5521 104.399 51.0428C75.3719 42.5337 46.5103 41.6855 26.9377 59.6685C10.8072 74.4887 0.49933 102.251 20.3842 121.342C40.0769 140.248 58.9431 113.618 77.3142 161.291C88.1178 189.327 153.971 194.679 161.151 167.065C168.332 139.45 203.846 122.241 231.926 138.265C250.444 148.831 271.641 132.866 283.931 120.767Z" fill="#D9C9FF"/>
<path d="M270.785 84.6219L258.147 185.686L320.792 191.903L333.429 90.8388L270.785 84.6219Z" fill="#936FE9"/>
<path d="M316.331 94.6983L286.509 91.7389C285.878 96.7824 280.778 100.415 275.117 99.8537L266.135 171.677C271.797 172.239 275.875 176.783 275.244 181.827L305.066 184.786C305.697 179.742 310.798 176.11 316.459 176.671L325.44 104.848C319.779 104.286 315.701 99.7424 316.331 94.6983Z" fill="#D9C9FF"/>
<path d="M313.341 138.292C313.359 129.656 305.516 122.641 295.821 122.624C286.127 122.608 278.253 129.596 278.234 138.233C278.216 146.869 286.06 153.884 295.754 153.9C305.448 153.917 313.322 146.929 313.341 138.292Z" fill="#C0A6FF"/>
<path d="M303.752 137.444C303.561 134.695 302.041 133.039 300.024 132.574C299.81 132.524 299.588 132.486 299.36 132.464C298.4 132.369 297.623 132.512 296.983 132.819L296.98 132.821C293.91 134.3 294.048 139.484 292.544 139.335C292.412 139.322 292.288 139.284 292.183 139.208L292.181 139.205C291.879 139 291.702 138.524 291.798 137.617L291.799 137.613C291.803 137.571 291.809 137.531 291.812 137.489C291.961 136.312 292.484 135.095 293.406 133.842L290.552 132.435L290.55 132.433L289.88 132.105C289.052 133.136 288.467 134.484 288.135 135.895L285.823 135.664L285.482 138.381L287.839 138.617C287.942 141.823 289.799 143.608 292.243 143.851C292.623 143.888 292.975 143.891 293.301 143.857C296.739 143.526 297.325 139.619 298.191 137.849L298.194 137.847C298.466 137.294 298.764 136.949 299.189 136.991C299.706 137.042 299.953 137.534 299.79 138.825C299.688 139.639 299.419 140.497 299.027 141.303L299.025 141.305C298.704 141.972 298.302 142.601 297.85 143.138L299.697 144.097L301.386 144.974C301.818 144.484 302.22 143.843 302.564 143.109C302.981 142.231 303.316 141.216 303.52 140.171L305.813 140.399L306.15 137.682L303.752 137.444Z" fill="#936FE9"/>
<path d="M295.129 99.1594L254.346 194.136L313.217 214.2L354 119.223L295.129 99.1594Z" fill="#936FE9"/>
<path d="M336.363 119.124L308.337 109.573C306.302 114.313 300.339 116.686 295.018 114.872L266.035 182.37C271.356 184.183 274.019 189.495 271.984 194.235L300.01 203.786C302.045 199.046 308.008 196.674 313.328 198.487L342.311 130.99C336.991 129.177 334.327 123.864 336.363 119.124Z" fill="#D9C9FF"/>
<path d="M321.153 160.645C323.611 152.291 318.001 143.743 308.623 141.553C299.246 139.363 289.651 144.36 287.194 152.715C284.736 161.069 290.345 169.617 299.722 171.807C309.1 173.997 318.695 168.999 321.153 160.645Z" fill="#C0A6FF"/>
<path d="M312.111 157.674C312.703 154.97 311.7 153.026 309.88 152.124C309.687 152.027 309.482 151.941 309.268 151.868C308.366 151.562 307.573 151.525 306.867 151.679L306.864 151.681C303.475 152.423 302.144 157.472 300.729 156.99C300.606 156.947 300.497 156.883 300.418 156.786L300.417 156.783C300.181 156.516 300.145 156.016 300.495 155.159L300.496 155.156C300.511 155.116 300.528 155.079 300.544 155.04C301.02 153.933 301.87 152.873 303.117 151.867L300.752 149.866L300.75 149.864L300.194 149.396C299.101 150.207 298.154 151.381 297.436 152.672L295.262 151.93L294.165 154.483L296.381 155.24C295.573 158.366 296.866 160.511 299.163 161.293C299.521 161.414 299.861 161.496 300.185 161.536C303.606 161.987 305.278 158.336 306.616 156.818L306.619 156.817C307.038 156.343 307.424 156.075 307.823 156.212C308.31 156.377 308.41 156.909 307.887 158.122C307.558 158.886 307.055 159.657 306.448 160.349L306.446 160.35C305.947 160.923 305.381 161.442 304.791 161.861L306.308 163.202L307.695 164.43C308.251 164.053 308.821 163.523 309.361 162.889C310.014 162.133 310.624 161.226 311.116 160.26L313.272 160.995L314.365 158.441L312.111 157.674Z" fill="#936FE9"/>
<path d="M162.353 11.29H261.623C268.279 11.29 273.682 16.104 273.682 22.0336V201.251C273.682 207.179 268.281 211.991 261.627 211.991H162.353C155.698 211.991 150.294 207.177 150.294 201.247V22.0336C150.294 16.104 155.698 11.29 162.353 11.29Z" fill="#D9C9FF"/>
<path d="M261.623 13.3339H162.353C156.961 13.3339 152.588 17.2289 152.588 22.0337V201.247C152.588 206.052 156.961 209.947 162.353 209.947H261.623C267.016 209.947 271.388 206.052 271.388 201.247V22.0337C271.388 17.2289 267.016 13.3339 261.623 13.3339Z" fill="#936FE9"/>
<path d="M267.328 27.2023H156.645V195.667H267.328V27.2023Z" fill="#6A44C5"/>
<path d="M278.653 22.0336V201.247C278.653 207.181 273.254 211.991 266.594 211.991H261.623C268.283 211.991 273.682 207.181 273.682 201.247V22.0336C273.682 16.0998 268.283 11.29 261.623 11.29H266.594C273.254 11.29 278.653 16.0998 278.653 22.0336Z" fill="#AE8FF7"/>
<path d="M256.241 56.2705H167.704C166.892 56.2705 166.235 56.8563 166.235 57.5793V67.1885C166.235 67.9115 166.892 68.4973 167.704 68.4973H256.241C257.052 68.4973 257.71 67.9115 257.71 67.1885V57.5793C257.71 56.8563 257.052 56.2705 256.241 56.2705Z" fill="#AE8FF7"/>
<path d="M254.246 53.3547H170.087C166.371 53.3547 163.349 56.0475 163.349 59.3542V64.097C163.349 67.4072 166.371 70.0962 170.087 70.0962H254.246C257.958 70.0962 260.981 67.4072 260.981 64.097V59.3542C260.981 56.0475 257.958 53.3547 254.246 53.3547ZM257.71 64.097C257.71 65.8032 256.158 67.1823 254.246 67.1823H170.082C168.171 67.1823 166.624 65.8032 166.624 64.097V59.3542C166.624 57.6518 168.171 56.2682 170.082 56.2682H254.246C256.158 56.2682 257.71 57.6518 257.71 59.3542V64.097Z" fill="#936FE9"/>
<path d="M158.046 79.9219V160.734H158.071V167.429H193.198V167.441C193.388 167.432 193.578 167.429 193.771 167.429C198.081 167.429 201.985 168.985 204.81 171.502C207.636 174.016 209.383 177.495 209.383 181.334V196.56C209.383 204.388 216.503 210.731 225.289 210.731C228 210.731 230.484 209.879 232.431 208.461C233.963 207.347 235.162 205.881 235.865 204.2C235.875 204.178 235.882 204.159 235.889 204.137C236.283 203.107 236.511 202.005 236.547 200.865C236.55 200.768 236.55 200.674 236.55 200.577V74.3111H236.543C236.964 67.8952 242.468 62.6853 249.54 61.8493C249.603 61.8403 249.662 61.8307 249.726 61.8246V61.7993H248.879C248.552 61.7807 248.225 61.7678 247.892 61.7678H223.037L223.04 61.7745L177.439 61.7273C175.25 61.7369 173.172 62.172 171.303 62.9327C163.561 65.4941 158.046 72.132 158.046 79.9219Z" fill="white"/>
<path d="M186.6 83.8118H226.851C226.952 83.8118 227.033 83.7393 227.033 83.6499V79.4075C227.033 79.3181 226.952 79.2456 226.851 79.2456H186.6C186.5 79.2456 186.419 79.3181 186.419 79.4075V83.6499C186.419 83.7393 186.5 83.8118 186.6 83.8118Z" fill="#D9C9FF"/>
<path d="M186.569 92.0565H213.986C214.069 92.0565 214.136 91.9969 214.136 91.9233V87.6241C214.136 87.5504 214.069 87.4908 213.986 87.4908H186.569C186.486 87.4908 186.418 87.5504 186.418 87.6241V91.9233C186.418 91.9969 186.486 92.0565 186.569 92.0565Z" fill="#D9C9FF"/>
<path d="M186.538 100.301H203.636C203.701 100.301 203.754 100.254 203.754 100.196V95.8407C203.754 95.7828 203.701 95.735 203.636 95.735H186.538C186.472 95.735 186.419 95.7828 186.419 95.8407V100.196C186.419 100.254 186.472 100.301 186.538 100.301Z" fill="#D9C9FF"/>
<path d="M186.585 108.546H220.409C220.501 108.546 220.575 108.48 220.575 108.398V104.128C220.575 104.046 220.501 103.98 220.409 103.98H186.585C186.493 103.98 186.419 104.046 186.419 104.128V108.398C186.419 108.48 186.493 108.546 186.585 108.546Z" fill="#D9C9FF"/>
<path d="M186.6 116.79H226.851C226.952 116.79 227.033 116.718 227.033 116.629V112.386C227.033 112.297 226.952 112.224 226.851 112.224H186.6C186.5 112.224 186.419 112.297 186.419 112.386V116.629C186.419 116.718 186.5 116.79 186.6 116.79Z" fill="#D9C9FF"/>
<path d="M186.562 125.035H211.334C211.413 125.035 211.477 124.978 211.477 124.908V120.596C211.477 120.526 211.413 120.469 211.334 120.469H186.562C186.483 120.469 186.419 120.526 186.419 120.596V124.908C186.419 124.978 186.483 125.035 186.562 125.035Z" fill="#D9C9FF"/>
<path d="M186.585 133.28H220.409C220.501 133.28 220.575 133.213 220.575 133.132V128.862C220.575 128.78 220.501 128.714 220.409 128.714H186.585C186.493 128.714 186.419 128.78 186.419 128.862V133.132C186.419 133.213 186.493 133.28 186.585 133.28Z" fill="#D9C9FF"/>
<path d="M186.54 141.524H204.398C204.465 141.524 204.519 141.476 204.519 141.416V137.067C204.519 137.007 204.465 136.959 204.398 136.959H186.54C186.473 136.959 186.419 137.007 186.419 137.067V141.416C186.419 141.476 186.473 141.524 186.54 141.524Z" fill="#D9C9FF"/>
<path d="M186.569 149.77H213.986C214.069 149.77 214.136 149.709 214.136 149.636V145.337C214.136 145.264 214.069 145.203 213.986 145.203H186.569C186.486 145.203 186.418 145.264 186.418 145.337V149.636C186.418 149.709 186.486 149.77 186.569 149.77Z" fill="#D9C9FF"/>
<path d="M186.6 158.014H226.851C226.952 158.014 227.033 157.941 227.033 157.852V153.609C227.033 153.521 226.952 153.448 226.851 153.448H186.6C186.5 153.448 186.419 153.521 186.419 153.609V157.852C186.419 157.941 186.5 158.014 186.6 158.014Z" fill="#D9C9FF"/>
<path d="M186.538 166.259H203.636C203.701 166.259 203.754 166.211 203.754 166.153V161.799C203.754 161.74 203.701 161.693 203.636 161.693H186.538C186.472 161.693 186.419 161.74 186.419 161.799V166.153C186.419 166.211 186.472 166.259 186.538 166.259Z" fill="#D9C9FF"/>
<path d="M186.585 174.503H220.409C220.501 174.503 220.575 174.437 220.575 174.355V170.086C220.575 170.004 220.501 169.938 220.409 169.938H186.585C186.493 169.938 186.419 170.004 186.419 170.086V174.355C186.419 174.437 186.493 174.503 186.585 174.503Z" fill="#D9C9FF"/>
<path d="M186.585 182.748H220.409C220.501 182.748 220.575 182.682 220.575 182.6V178.33C220.575 178.249 220.501 178.182 220.409 178.182H186.585C186.493 178.182 186.419 178.249 186.419 178.33V182.6C186.419 182.682 186.493 182.748 186.585 182.748Z" fill="#D9C9FF"/>
<path d="M184.45 182.815H223.06C223.195 182.815 223.305 182.718 223.305 182.597V178.468C223.305 178.348 223.195 178.249 223.06 178.249H184.45C184.315 178.249 184.205 178.348 184.205 178.468V182.597C184.205 182.718 184.315 182.815 184.45 182.815Z" fill="#D9C9FF"/>
<path d="M123.899 176.449V183.441H124.019V183.936C125.091 183.617 126.236 183.441 127.424 183.441H132.629C139.616 183.441 145.281 188.488 145.281 194.716C145.281 199.137 147.296 203.141 150.55 206.041C152.62 207.885 155.192 209.282 158.071 210.052C159.712 210.493 161.455 210.731 163.262 210.731H166.038C174.301 210.731 180.999 204.763 180.999 197.402V178.807C180.999 172.692 186.412 167.707 193.198 167.441V167.428H134.024C128.433 167.428 123.899 171.468 123.899 176.449Z" fill="white"/>
<path d="M43.3467 211.68H100.816C109.567 211.68 116.663 205.358 116.663 197.562V193.031C116.663 188.795 119.745 185.204 124.019 183.935V183.441H64.8447C59.2533 183.441 54.716 187.48 54.716 192.465L54.607 199.644C54.5192 205.524 49.8203 210.543 43.3467 211.68Z" fill="white"/>
<path d="M236.582 200.671C236.582 201.398 236.494 202.107 236.329 202.791C236.478 202.079 236.556 201.34 236.551 200.578L236.582 200.671Z" fill="#121936"/>
<path d="M224.312 211.677C230.407 211.571 235.261 207.894 236.329 202.791C236.216 203.251 236.072 203.702 235.889 204.137C235.882 204.159 235.875 204.178 235.865 204.2C234.199 208.458 229.676 211.545 224.312 211.677Z" fill="#204089"/>
<path d="M100.815 211.68H224.041C224.133 211.68 224.224 211.68 224.312 211.677C229.675 211.545 234.198 208.458 235.864 204.2C235.161 205.881 233.963 207.347 232.431 208.461C230.484 209.879 227.999 210.731 225.289 210.731C216.503 210.731 209.382 204.388 209.382 196.56V181.333C209.382 177.495 207.636 174.016 204.81 171.502C201.984 168.985 198.08 167.428 193.771 167.428C193.578 167.428 193.388 167.432 193.198 167.441C186.411 167.707 180.999 172.692 180.999 178.807V197.402C180.999 204.763 174.3 210.731 166.038 210.731H163.261C161.455 210.731 159.712 210.493 158.071 210.052C155.192 209.282 152.619 207.885 150.55 206.041C147.295 203.142 145.281 199.137 145.281 194.716C145.281 188.489 139.616 183.441 132.629 183.441H127.424C126.236 183.441 125.091 183.617 124.019 183.936C119.745 185.204 116.663 188.795 116.663 193.031V197.562C116.663 205.359 109.567 211.68 100.815 211.68Z" fill="#936FE9"/>
<path opacity="0.5" d="M165.906 90.6976H166.225C171.891 90.6976 176.575 93.2247 176.575 98.2728V159.659C176.575 164.707 171.773 167.241 166.108 167.241" fill="#D9C9FF"/>
<path d="M172.511 96.1623V161.957C172.511 164.915 169.816 167.314 166.496 167.314H41.0761C39.5812 167.314 38.2093 166.825 37.158 166.021C35.8759 165.039 35.063 163.581 35.063 161.957V96.1623C35.063 93.204 37.7555 90.8051 41.0761 90.8051H166.496C169.816 90.8051 172.511 93.204 172.511 96.1623Z" fill="#C0A6FF"/>
<path d="M172.51 104.333H35.063V118.916H172.51V104.333Z" fill="#936FE9"/>
<path d="M159.724 147.339H133.107C131.529 147.339 130.251 148.478 130.251 149.884V154.884C130.251 156.29 131.529 157.429 133.107 157.429H159.724C161.302 157.429 162.58 156.29 162.58 154.884V149.884C162.58 148.478 161.302 147.339 159.724 147.339Z" fill="#D9C9FF"/>
<path d="M43.7601 130.711H52.8207C53.2186 130.711 53.5415 130.998 53.5415 131.353V135.572C53.5415 135.927 53.2185 136.214 52.8207 136.214H43.7603C43.3625 136.214 43.0396 135.927 43.0396 135.572V131.353C43.0396 130.998 43.3623 130.711 43.7601 130.711Z" fill="#D9C9FF"/>
<path d="M62.2588 130.711H71.3192C71.7173 130.711 72.0404 130.998 72.0404 131.353V135.572C72.0404 135.927 71.7173 136.214 71.3192 136.214H62.2588C61.861 136.214 61.5381 135.927 61.5381 135.572V131.353C61.5381 130.998 61.861 130.711 62.2588 130.711Z" fill="#D9C9FF"/>
<path d="M80.7572 130.711H89.818C90.2162 130.711 90.5386 130.998 90.5386 131.353V135.572C90.5386 135.927 90.2155 136.214 89.818 136.214H80.7579C80.3597 136.214 80.0366 135.927 80.0366 135.572V131.353C80.0366 130.998 80.3597 130.711 80.7572 130.711Z" fill="#D9C9FF"/>
<path d="M99.2563 130.711H108.317C108.715 130.711 109.038 130.999 109.038 131.353V135.572C109.038 135.927 108.715 136.214 108.317 136.214H99.2563C98.8587 136.214 98.5356 135.927 98.5356 135.572V131.353C98.5356 130.998 98.8587 130.711 99.2563 130.711Z" fill="#D9C9FF"/>
<path d="M117.755 130.711H126.816C127.214 130.711 127.537 130.998 127.537 131.353V135.572C127.537 135.927 127.214 136.214 126.816 136.214H117.755C117.358 136.214 117.035 135.927 117.035 135.572V131.353C117.035 130.998 117.358 130.711 117.755 130.711Z" fill="#D9C9FF"/>
<path d="M136.254 130.711H145.314C145.712 130.711 146.035 130.999 146.035 131.353V135.572C146.035 135.927 145.712 136.214 145.314 136.214H136.253C135.856 136.214 135.533 135.927 135.533 135.572V131.353C135.533 130.998 135.856 130.711 136.254 130.711Z" fill="#D9C9FF"/>
<path d="M154.753 130.711H163.813C164.211 130.711 164.534 130.999 164.534 131.353V135.572C164.534 135.927 164.211 136.214 163.813 136.214H154.752C154.355 136.214 154.032 135.927 154.032 135.572V131.353C154.032 130.998 154.355 130.711 154.753 130.711Z" fill="#D9C9FF"/>
<path d="M172.51 96.6064H35.063V99.4023H172.51V96.6064Z" fill="#D9C9FF"/>
<path d="M56.8726 142.386H47.7052C45.1284 142.386 43.0396 144.247 43.0396 146.543V154.71C43.0396 157.005 45.1284 158.866 47.7052 158.866H56.8726C59.4494 158.866 61.5382 157.005 61.5382 154.71V146.543C61.5382 144.247 59.4494 142.386 56.8726 142.386Z" fill="#D9C9FF"/>
<path d="M124.237 150.114H67.5521C66.668 150.114 65.9512 150.752 65.9512 151.54V153.229C65.9512 154.016 66.668 154.655 67.5521 154.655H124.237C125.121 154.655 125.838 154.016 125.838 153.229V151.54C125.838 150.752 125.121 150.114 124.237 150.114Z" fill="#D9C9FF"/>
<path d="M114.157 211.223H19.5308V211.642H114.157V211.223Z" fill="#936FE9"/>
<path d="M309.077 73.221C309.077 76.2276 306.332 78.6738 302.957 78.6738C299.582 78.6738 296.836 76.2276 296.836 73.221C296.836 70.2137 299.582 67.7676 302.957 67.7676C306.332 67.7676 309.077 70.2137 309.077 73.221ZM307.157 73.221C307.157 71.1571 305.273 69.4784 302.957 69.4784C300.641 69.4784 298.757 71.1571 298.757 73.221C298.757 75.2843 300.641 76.963 302.957 76.963C305.273 76.963 307.157 75.2843 307.157 73.221Z" fill="#936FE9"/>
<path d="M336.041 57.2977C336.041 60.3043 333.295 62.7505 329.921 62.7505C326.546 62.7505 323.8 60.3043 323.8 57.2977C323.8 54.2908 326.546 51.8446 329.921 51.8446C333.296 51.8446 336.041 54.2908 336.041 57.2977ZM334.121 57.2977C334.121 55.2341 332.237 53.5553 329.921 53.5553C327.604 53.5553 325.72 55.234 325.72 57.2977C325.72 59.3615 327.604 61.0397 329.921 61.0397C332.237 61.0397 334.121 59.3615 334.121 57.2977Z" fill="#C0A6FF"/>
<path d="M332.623 36.72C332.093 36.72 331.663 37.1029 331.663 37.5754V41.3476C331.663 41.82 332.093 42.2029 332.623 42.2029C333.153 42.2029 333.583 41.82 333.583 41.3476V37.5754C333.583 37.1029 333.153 36.72 332.623 36.72Z" fill="#C0A6FF"/>
<path d="M332.623 30.1189C332.093 30.1189 331.663 30.5018 331.663 30.9742V34.7463C331.663 35.2187 332.093 35.6016 332.623 35.6016C333.153 35.6016 333.583 35.2187 333.583 34.7463V30.9742C333.583 30.5018 333.153 30.1189 332.623 30.1189Z" fill="#C0A6FF"/>
<path d="M338.566 35.3054H334.763C334.233 35.3054 333.802 35.6884 333.802 36.1608C333.802 36.6332 334.233 37.0162 334.763 37.0162H338.566C339.096 37.0162 339.526 36.6333 339.526 36.1608C339.526 35.6883 339.096 35.3054 338.566 35.3054Z" fill="#C0A6FF"/>
<path d="M330.483 35.3054H326.68C326.15 35.3054 325.72 35.6884 325.72 36.1608C325.72 36.6332 326.15 37.0162 326.68 37.0162H330.483C331.014 37.0162 331.444 36.6333 331.444 36.1608C331.444 35.6883 331.014 35.3054 330.483 35.3054Z" fill="#C0A6FF"/>
<path d="M299.467 50.9594C298.937 50.9594 298.507 51.3421 298.507 51.8146V55.5869C298.507 56.0594 298.937 56.442 299.467 56.442C299.997 56.442 300.427 56.0594 300.427 55.5869V51.8146C300.427 51.3421 299.997 50.9594 299.467 50.9594Z" fill="#C0A6FF"/>
<path d="M299.467 44.3579C298.937 44.3579 298.507 44.741 298.507 45.2134V48.9854C298.507 49.4579 298.937 49.8409 299.467 49.8409C299.997 49.8409 300.427 49.4579 300.427 48.9854V45.2134C300.427 44.741 299.997 44.3579 299.467 44.3579Z" fill="#C0A6FF"/>
<path d="M305.41 49.5447H301.607C301.076 49.5447 300.646 49.9276 300.646 50.4C300.646 50.8724 301.076 51.2554 301.607 51.2554H305.41C305.94 51.2554 306.37 50.8725 306.37 50.4C306.37 49.9275 305.94 49.5447 305.41 49.5447Z" fill="#C0A6FF"/>
<path d="M297.327 49.5447H293.523C292.993 49.5447 292.563 49.9276 292.563 50.4C292.563 50.8724 292.993 51.2554 293.523 51.2554H297.327C297.857 51.2554 298.287 50.8725 298.287 50.4C298.287 49.9275 297.857 49.5447 297.327 49.5447Z" fill="#C0A6FF"/>
<path d="M97.8601 52.0321C94.4848 52.0321 91.7393 49.5859 91.7393 46.5792C91.7393 43.5724 94.4848 41.1262 97.8601 41.1262C101.235 41.1262 103.981 43.5725 103.981 46.5792C103.981 49.5857 101.235 52.0321 97.8601 52.0321ZM97.8601 50.3214C100.176 50.3214 102.061 48.6426 102.061 46.5792C102.061 44.5157 100.176 42.8369 97.8601 42.8369C95.5437 42.8369 93.6594 44.5157 93.6594 46.5792C93.6594 48.6426 95.5437 50.3214 97.8601 50.3214Z" fill="#C0A6FF"/>
<path d="M115.361 70.0445C111.986 70.0445 109.24 67.5984 109.24 64.5917C109.24 61.585 111.986 59.1383 115.361 59.1383C118.735 59.1383 121.481 61.585 121.481 64.5917C121.481 67.5978 118.736 70.0445 115.361 70.0445ZM115.361 68.3337C117.677 68.3337 119.561 66.655 119.561 64.5911C119.561 62.5278 117.677 60.8491 115.361 60.8491C113.044 60.8491 111.16 62.5278 111.16 64.5911C111.16 66.655 113.044 68.3337 115.361 68.3337Z" fill="#936FE9"/>
<path d="M130.941 42.6168C130.941 42.1444 130.511 41.7615 129.981 41.7615H125.747C125.216 41.7615 124.787 42.1444 124.787 42.6168C124.787 43.0891 125.216 43.4722 125.747 43.4722H129.981C130.511 43.4722 130.941 43.0891 130.941 42.6168Z" fill="#936FE9"/>
<path d="M138.351 42.6168C138.351 42.1444 137.921 41.7615 137.391 41.7615H133.157C132.626 41.7615 132.197 42.1444 132.197 42.6168C132.197 43.0891 132.626 43.4722 133.157 43.4722H137.391C137.921 43.4722 138.351 43.0891 138.351 42.6168Z" fill="#936FE9"/>
<path d="M132.529 47.9116V44.523C132.529 44.0507 132.099 43.6676 131.569 43.6676C131.039 43.6676 130.608 44.0507 130.608 44.523V47.9116C130.608 48.3838 131.039 48.7669 131.569 48.7669C132.099 48.7669 132.529 48.3838 132.529 47.9116Z" fill="#936FE9"/>
<path d="M132.529 40.7105V37.3221C132.529 36.8498 132.099 36.4668 131.569 36.4668C131.039 36.4668 130.608 36.8498 130.608 37.3221V40.7105C130.608 41.183 131.039 41.566 131.569 41.566C132.099 41.566 132.529 41.183 132.529 40.7105Z" fill="#936FE9"/>
<path d="M82.8579 74.4837C82.8579 74.0114 82.4282 73.6285 81.8981 73.6285H77.664C77.1333 73.6285 76.7036 74.0114 76.7036 74.4837C76.7036 74.9559 77.1333 75.3393 77.664 75.3393H81.8981C82.4282 75.3393 82.8579 74.9559 82.8579 74.4837Z" fill="#C0A6FF"/>
<path d="M90.2682 74.4837C90.2682 74.0114 89.8379 73.6285 89.3078 73.6285H85.0737C84.5436 73.6285 84.1133 74.0114 84.1133 74.4837C84.1133 74.9559 84.5436 75.3393 85.0737 75.3393H89.3078C89.8379 75.3393 90.2682 74.9559 90.2682 74.4837Z" fill="#C0A6FF"/>
<path d="M84.4456 79.7786V76.3902C84.4456 75.9179 84.0159 75.535 83.4858 75.535C82.9551 75.535 82.5254 75.9179 82.5254 76.3902V79.7786C82.5254 80.2508 82.9551 80.6342 83.4858 80.6342C84.0159 80.6342 84.4456 80.2508 84.4456 79.7786Z" fill="#C0A6FF"/>
<path d="M84.4456 72.5778V69.1889C84.4456 68.7166 84.0159 68.3337 83.4858 68.3337C82.9551 68.3337 82.5254 68.7166 82.5254 69.1889V72.5778C82.5254 73.0501 82.9551 73.4329 83.4858 73.4329C84.0159 73.4329 84.4456 73.0501 84.4456 72.5778Z" fill="#C0A6FF"/>
<path opacity="0.25" d="M84.3008 214.022C96.2125 214.022 105.869 209.584 105.869 204.111C105.869 198.638 96.2125 194.201 84.3008 194.201C72.3891 194.201 62.7324 198.638 62.7324 204.111C62.7324 209.584 72.3891 214.022 84.3008 214.022Z" fill="#D9C9FF"/>
<path d="M103.55 202.194C103.551 202.22 103.551 202.245 103.551 202.27C103.551 203.204 103.199 204.103 102.55 204.941C102.391 205.147 102.214 205.348 102.021 205.545C101.481 206.096 100.809 206.617 100.021 207.1C99.8507 207.205 99.674 207.307 99.4929 207.408C98.8827 207.748 98.2139 208.066 97.4926 208.36C97.3197 208.431 97.1437 208.5 96.9644 208.568C96.3328 208.807 95.6645 209.028 94.9635 209.23C94.7893 209.281 94.6133 209.33 94.4353 209.377C93.793 209.549 93.1253 209.705 92.435 209.843C92.2602 209.878 92.0848 209.912 91.9069 209.945C91.2575 210.064 90.5906 210.169 89.9065 210.257C89.7311 210.28 89.5557 210.302 89.3784 210.322C88.7246 210.398 88.057 210.459 87.378 210.504C87.2026 210.515 87.0272 210.526 86.8499 210.535C86.193 210.57 85.5254 210.591 84.8496 210.596C84.7322 210.597 84.6142 210.598 84.4962 210.598C84.4381 210.598 84.3795 210.598 84.3214 210.597C83.6456 210.595 82.9786 210.577 82.3205 210.545C82.1438 210.536 81.9677 210.526 81.7923 210.515C81.2919 210.484 80.7978 210.444 80.3107 210.396C80.1365 210.379 79.9636 210.361 79.792 210.342C79.6153 210.322 79.4392 210.302 79.2638 210.279C78.5811 210.195 77.9128 210.093 77.2635 209.977C77.0862 209.945 76.9101 209.913 76.7353 209.878C76.322 209.797 75.9163 209.71 75.5187 209.617C75.2537 209.555 74.9925 209.49 74.735 209.423C74.5577 209.377 74.381 209.329 74.2069 209.28C73.5077 209.083 72.8388 208.868 72.2059 208.634C72.081 208.588 71.9573 208.541 71.8349 208.494C71.7825 208.473 71.7301 208.453 71.6784 208.431C71.3925 208.318 71.1136 208.201 70.8442 208.079C70.4353 207.895 70.0466 207.704 69.678 207.506C69.4969 207.407 69.3209 207.308 69.1499 207.207C68.4747 206.807 67.8797 206.38 67.3755 205.929C67.2979 205.86 67.2221 205.791 67.1496 205.72C67.0574 205.633 66.9691 205.544 66.8852 205.454C66.793 205.358 66.7053 205.259 66.6214 205.16C65.8585 204.26 65.4414 203.286 65.4414 202.27C65.4414 202.199 65.4439 202.127 65.4483 202.056L65.4502 196.301L66.6214 196.298L67.1496 196.297L69.1499 196.293L69.678 196.292L71.2392 196.289L71.6784 196.288L72.2065 196.286L74.2075 196.282L74.735 196.281L76.736 196.277L77.2635 196.276L79.2638 196.271L79.792 196.271L81.7923 196.267L82.3205 196.265L84.3214 196.261L84.8496 196.26L86.8499 196.256L87.378 196.255L89.3784 196.251L89.9065 196.25L91.9069 196.245L92.435 196.244L94.4353 196.24L94.9635 196.239L96.9644 196.235L97.4926 196.234H97.6226L99.4929 196.23L100.021 196.229L102.021 196.224L102.55 196.223L103.544 196.221L103.55 202.194Z" fill="#936FE9"/>
<path d="M67.1497 196.297V205.72C67.0582 205.633 66.9699 205.544 66.886 205.455C66.7932 205.358 66.7055 205.259 66.6216 205.16V196.298L67.1497 196.297Z" fill="#7732EF"/>
<path d="M69.6781 196.292V207.506C69.497 207.407 69.3209 207.308 69.1499 207.207V196.293L69.6781 196.292Z" fill="#7732EF"/>
<path d="M72.2064 196.286V208.634C72.0814 208.588 71.9578 208.541 71.8353 208.494C71.7823 208.473 71.7306 208.453 71.6782 208.432V196.288L72.2064 196.286Z" fill="#7732EF"/>
<path d="M74.7357 196.281V209.423C74.5577 209.377 74.3817 209.328 74.2075 209.28V196.282L74.7357 196.281Z" fill="#7732EF"/>
<path d="M77.264 196.276V209.977C77.0861 209.945 76.9106 209.913 76.7358 209.878V196.277L77.264 196.276Z" fill="#7732EF"/>
<path d="M79.7928 196.271V210.342C79.6155 210.323 79.4401 210.302 79.2646 210.279V196.271L79.7928 196.271Z" fill="#7732EF"/>
<path d="M82.3211 196.265V210.545C82.1438 210.536 81.9678 210.526 81.793 210.515V196.267L82.3211 196.265Z" fill="#7732EF"/>
<path d="M84.8494 196.26V210.596C84.7321 210.597 84.6141 210.598 84.4961 210.598C84.438 210.598 84.3793 210.598 84.3213 210.597V196.261L84.8494 196.26Z" fill="#7732EF"/>
<path d="M87.3783 196.255V210.504C87.2035 210.515 87.0274 210.526 86.8501 210.535V196.256L87.3783 196.255Z" fill="#7732EF"/>
<path d="M89.9066 196.25V210.258C89.7312 210.28 89.5557 210.302 89.3784 210.322V196.25L89.9066 196.25Z" fill="#7732EF"/>
<path d="M92.4349 196.244V209.843C92.2601 209.878 92.0847 209.912 91.9067 209.945V196.245L92.4349 196.244Z" fill="#7732EF"/>
<path d="M94.9637 196.239V209.23C94.7895 209.281 94.6141 209.33 94.4355 209.377V196.24L94.9637 196.239Z" fill="#7732EF"/>
<path d="M97.4925 196.234V208.36C97.3196 208.431 97.1436 208.5 96.9644 208.568V196.235L97.4925 196.234Z" fill="#7732EF"/>
<path d="M100.021 196.229V207.1C99.8503 207.205 99.6743 207.307 99.4932 207.408V196.23L100.021 196.229Z" fill="#7732EF"/>
<path d="M102.55 196.224V204.942C102.391 205.147 102.215 205.348 102.021 205.545V196.224L102.55 196.224Z" fill="#7732EF"/>
<path d="M103.546 196.306C103.546 201.228 95.0195 205.219 84.4974 205.219C83.0599 205.219 81.6597 205.145 80.3131 205.003C78.6201 204.826 77.0122 204.543 75.5224 204.17C74.1922 203.837 72.9573 203.432 71.8398 202.967C71.4984 202.825 71.1678 202.677 70.8491 202.524C69.4483 201.851 68.2739 201.075 67.3817 200.222C67.2069 200.056 67.0428 199.886 66.8914 199.715C65.9613 198.665 65.4482 197.513 65.4482 196.306C65.4482 196.196 65.4533 196.085 65.4634 195.975C65.8325 191.206 74.2137 187.393 84.4974 187.393C87.0277 187.393 89.4433 187.623 91.6518 188.043C92.0784 188.124 92.4974 188.212 92.9082 188.307C94.7028 188.72 96.3365 189.262 97.7569 189.907C98.0699 190.049 98.3728 190.196 98.6643 190.347C99.7017 190.887 100.6 191.486 101.333 192.132C102.089 192.799 102.67 193.516 103.046 194.27C103.321 194.821 103.487 195.39 103.531 195.975C103.542 196.085 103.546 196.196 103.546 196.306Z" fill="#6A44C5"/>
<path opacity="0.2" d="M88.9844 190.151L70.3089 198.888C70.1328 198.679 69.9776 198.463 69.8457 198.245L87.5167 189.976C88.0133 190.023 88.5042 190.081 88.9844 190.151Z" fill="white"/>
<path d="M86.5213 199.954V201.138H83.3081V200.008C81.0295 199.944 78.8191 199.656 77.4517 199.261L79.1832 197.427C80.6875 197.843 82.6929 198.11 84.4477 198.11C85.9742 198.11 86.5213 197.96 86.5213 197.704C86.5213 196.766 77.7022 197.523 77.7022 194.74C77.7022 193.535 79.5706 192.522 83.3081 192.277V191.115H86.5213V192.255C88.208 192.33 89.8486 192.533 91.1479 192.874L89.5299 194.697C87.9568 194.324 86.4758 194.143 85.0857 194.143C83.5132 194.143 83.0122 194.356 83.0122 194.612C83.0122 195.508 91.8313 194.761 91.8313 197.513C91.8313 198.664 90.0537 199.666 86.5213 199.954Z" fill="#9895FF"/>
<path d="M103.116 193.034C103.116 193.059 103.116 193.084 103.116 193.109C103.116 194.044 102.764 194.943 102.115 195.781C101.957 195.987 101.78 196.188 101.587 196.384C101.047 196.936 100.374 197.456 99.5865 197.94C99.4161 198.044 99.2395 198.147 99.0584 198.247C98.4482 198.588 97.7793 198.906 97.058 199.2C96.8851 199.271 96.7097 199.34 96.5305 199.408C95.8982 199.647 95.23 199.868 94.5289 200.07C94.3554 200.12 94.1793 200.169 94.0008 200.216C93.359 200.388 92.6908 200.545 92.0004 200.682C91.8263 200.718 91.6502 200.751 91.4729 200.785C90.823 200.904 90.156 201.009 89.472 201.097C89.2972 201.12 89.1211 201.142 88.9444 201.161C88.2907 201.238 87.6231 201.298 86.9441 201.343C86.7687 201.355 86.5926 201.365 86.416 201.375C85.7584 201.41 85.0914 201.431 84.4156 201.436C84.2983 201.437 84.1796 201.438 84.0623 201.438C84.0042 201.438 83.9455 201.438 83.8875 201.437C83.2117 201.435 82.544 201.417 81.8865 201.385C81.7092 201.376 81.5338 201.365 81.3584 201.355C80.858 201.324 80.3639 201.283 79.8767 201.236C79.7026 201.219 79.5297 201.201 79.358 201.182C79.1807 201.162 79.0053 201.142 78.8299 201.119C78.1465 201.035 77.4789 200.933 76.8296 200.817C76.6516 200.785 76.4762 200.753 76.3014 200.717C75.8874 200.637 75.4823 200.55 75.0842 200.457C74.8198 200.395 74.5585 200.33 74.3011 200.263C74.1231 200.217 73.9471 200.168 73.7729 200.12C73.0731 199.923 72.4049 199.707 71.772 199.474C71.647 199.428 71.5233 199.381 71.4009 199.334C71.3479 199.313 71.2962 199.293 71.2438 199.271C70.9579 199.158 70.679 199.041 70.4096 198.919C70.0013 198.735 69.6126 198.544 69.2435 198.346C69.0624 198.247 68.8863 198.148 68.7153 198.047C68.0408 197.647 67.4457 197.22 66.9409 196.769C66.8639 196.7 66.7876 196.631 66.715 196.56C66.6235 196.473 66.5352 196.384 66.4512 196.294C66.3585 196.198 66.2708 196.099 66.1868 196C65.4239 195.1 65.0068 194.126 65.0068 193.11C65.0068 193.039 65.0094 192.967 65.0144 192.896L65.0157 187.141L66.1868 187.138L66.715 187.137L68.7153 187.133L69.2435 187.132L70.8046 187.128L71.2438 187.128L71.772 187.126L73.7729 187.122L74.3011 187.121L76.3014 187.116L76.8296 187.116L78.8299 187.111L79.358 187.111L81.3584 187.107L81.8865 187.105L83.8875 187.101L84.415 187.099L86.4153 187.096L86.9435 187.095L88.9438 187.09L89.472 187.089L91.4723 187.085L92.0004 187.084L94.0008 187.08L94.5289 187.079L96.5299 187.075L97.058 187.074H97.188L99.0584 187.07L99.5865 187.069L101.587 187.064L102.115 187.063L103.109 187.061L103.116 193.034Z" fill="#936FE9"/>
<path d="M66.7147 187.137V196.56C66.6232 196.472 66.5348 196.384 66.4509 196.294C66.3582 196.198 66.2704 196.099 66.1865 196V187.138L66.7147 187.137Z" fill="#7732EF"/>
<path d="M69.2435 187.131V198.345C69.0624 198.247 68.887 198.147 68.7153 198.047V187.133L69.2435 187.131Z" fill="#7732EF"/>
<path d="M71.7718 187.126V199.474C71.6469 199.428 71.5232 199.381 71.4008 199.333C71.3478 199.313 71.296 199.292 71.2437 199.271V187.128L71.7718 187.126Z" fill="#7732EF"/>
<path d="M74.3011 187.121V200.263C74.1232 200.216 73.9471 200.168 73.7729 200.12V187.122L74.3011 187.121Z" fill="#7732EF"/>
<path d="M76.8294 187.116V200.817C76.6515 200.785 76.4761 200.752 76.3013 200.717V187.116L76.8294 187.116Z" fill="#7732EF"/>
<path d="M79.3577 187.11V201.182C79.1804 201.162 79.005 201.142 78.8296 201.119V187.111L79.3577 187.11Z" fill="#7732EF"/>
<path d="M81.8866 187.105V201.385C81.7092 201.376 81.5332 201.365 81.3584 201.355V187.106L81.8866 187.105Z" fill="#7732EF"/>
<path d="M84.4154 187.099V201.436C84.298 201.437 84.1794 201.438 84.0614 201.438C84.0039 201.438 83.9453 201.438 83.8872 201.437V187.101L84.4154 187.099Z" fill="#7732EF"/>
<path d="M86.9437 187.095V201.343C86.7683 201.355 86.5922 201.365 86.4155 201.375V187.096L86.9437 187.095Z" fill="#7732EF"/>
<path d="M89.4719 187.089V201.097C89.2971 201.12 89.121 201.142 88.9443 201.162V187.09L89.4719 187.089Z" fill="#7732EF"/>
<path d="M92.0003 187.084V200.682C91.8262 200.718 91.6501 200.751 91.4722 200.785V187.085L92.0003 187.084Z" fill="#7732EF"/>
<path d="M94.5287 187.079V200.07C94.3551 200.12 94.1791 200.169 94.0005 200.216V187.08L94.5287 187.079Z" fill="#7732EF"/>
<path d="M97.0579 187.073V199.2C96.885 199.271 96.7096 199.34 96.5298 199.408V187.075L97.0579 187.073Z" fill="#7732EF"/>
<path d="M99.5863 187.069V197.94C99.4159 198.045 99.2392 198.147 99.0581 198.247V187.069L99.5863 187.069Z" fill="#7732EF"/>
<path d="M102.115 187.063V195.781C101.956 195.987 101.78 196.188 101.586 196.384V187.064L102.115 187.063Z" fill="#7732EF"/>
<path d="M103.112 187.146C103.112 192.068 94.585 196.059 84.0628 196.059C82.6253 196.059 81.2251 195.985 79.8785 195.843C78.1855 195.666 76.5777 195.382 75.0878 195.009C73.7583 194.676 72.5228 194.272 71.4059 193.806C71.0639 193.664 70.7332 193.517 70.4145 193.363C69.0143 192.69 67.8394 191.914 66.9471 191.062C66.7729 190.896 66.6089 190.726 66.4574 190.554C65.5267 189.504 65.0137 188.353 65.0137 187.146C65.0137 187.035 65.0187 186.925 65.0294 186.814C65.3986 182.045 73.7791 178.232 84.0628 178.232C86.5938 178.232 89.0087 178.463 91.2172 178.882C91.6444 178.963 92.0634 179.051 92.4742 179.146C94.2682 179.56 95.9025 180.102 97.323 180.747C97.6359 180.888 97.9382 181.035 98.2304 181.187C99.2677 181.727 100.166 182.326 100.9 182.972C101.655 183.639 102.235 184.355 102.612 185.109C102.887 185.66 103.053 186.23 103.097 186.814C103.108 186.925 103.112 187.035 103.112 187.146Z" fill="#6A44C5"/>
<path d="M86.1806 191.188V192.371H82.9674V191.241C80.6882 191.177 78.4778 190.889 77.1104 190.495L78.8425 188.661C80.3468 189.076 82.3522 189.343 84.1064 189.343C85.6335 189.343 86.1806 189.194 86.1806 188.937C86.1806 187.999 77.3609 188.756 77.3609 185.973C77.3609 184.768 79.2299 183.756 82.9674 183.51V182.348H86.1806V183.488C87.8673 183.563 89.5079 183.766 90.8066 184.107L89.1886 185.93C87.6161 185.557 86.1351 185.376 84.745 185.376C83.1725 185.376 82.6709 185.589 82.6709 185.845C82.6709 186.741 91.4906 185.994 91.4906 188.746C91.4906 189.897 89.713 190.9 86.1806 191.188Z" fill="#7732EF"/>
<path d="M86.0868 190.794V191.977H82.8737V190.847C80.5945 190.783 78.384 190.495 77.0166 190.101L78.7487 188.267C80.2524 188.683 82.2578 188.949 84.0127 188.949C85.5397 188.949 86.0868 188.8 86.0868 188.544C86.0868 187.605 77.2671 188.363 77.2671 185.579C77.2671 184.375 79.1362 183.361 82.8731 183.116V181.954H86.0868V183.095C87.7729 183.169 89.4135 183.372 90.7128 183.713L89.0949 185.537C87.5224 185.163 86.0408 184.982 84.6506 184.982C83.0781 184.982 82.5771 185.196 82.5771 185.452C82.5771 186.347 91.3962 185.601 91.3962 188.352C91.3962 189.503 89.6193 190.506 86.0868 190.794Z" fill="#9895FF"/>
<path d="M105.47 184.103C105.47 184.129 105.47 184.154 105.47 184.179C105.47 185.114 105.118 186.013 104.468 186.851C104.31 187.056 104.133 187.257 103.94 187.454C103.4 188.006 102.727 188.526 101.94 189.01C101.77 189.114 101.593 189.217 101.412 189.317C100.802 189.658 100.133 189.976 99.4114 190.27C99.2385 190.34 99.0631 190.41 98.8832 190.477C98.2516 190.717 97.5833 190.938 96.8823 191.139C96.7088 191.19 96.5327 191.239 96.3541 191.286C95.7124 191.458 95.0441 191.614 94.3538 191.752C94.1796 191.788 94.0036 191.821 93.8263 191.855C93.1763 191.974 92.5094 192.079 91.8253 192.167C91.6505 192.19 91.4745 192.212 91.2972 192.231C90.6441 192.308 89.9765 192.368 89.2969 192.413C89.1221 192.425 88.946 192.435 88.7693 192.445C88.1118 192.48 87.4448 192.501 86.769 192.506C86.6516 192.507 86.533 192.508 86.415 192.508C86.3576 192.508 86.2989 192.507 86.2408 192.507C85.5644 192.505 84.8974 192.487 84.2399 192.454C84.0626 192.445 83.8865 192.435 83.7117 192.425C83.2113 192.394 82.7172 192.353 82.2301 192.306C82.0559 192.289 81.883 192.271 81.7114 192.252C81.5341 192.232 81.3587 192.212 81.1832 192.189C80.4999 192.104 79.8322 192.003 79.1829 191.887C79.005 191.855 78.8296 191.822 78.6548 191.787C78.2408 191.707 77.8351 191.62 77.4375 191.527C77.1731 191.465 76.9119 191.4 76.6544 191.333C76.4765 191.286 76.3004 191.238 76.1263 191.19C75.4265 190.993 74.7582 190.777 74.1253 190.544C74.0004 190.498 73.8767 190.451 73.7543 190.404C73.7013 190.383 73.6495 190.362 73.5972 190.341C73.3113 190.228 73.0324 190.11 72.763 189.989C72.3547 189.805 71.966 189.614 71.5968 189.415C71.4157 189.317 71.2403 189.217 71.0687 189.117C70.3941 188.717 69.7991 188.29 69.2949 187.839C69.2173 187.77 69.1416 187.7 69.0684 187.63C68.9769 187.542 68.8885 187.454 68.8046 187.364C68.7118 187.268 68.6241 187.169 68.5402 187.07C67.7773 186.17 67.3608 185.195 67.3608 184.18C67.3608 184.109 67.3627 184.037 67.3678 183.966L67.3697 178.21L68.5402 178.208L69.0684 178.207L71.0687 178.203L71.5968 178.201L73.158 178.198L73.5972 178.198L74.1253 178.196L76.1263 178.192L76.6544 178.191L78.6548 178.186L79.1829 178.186L81.1832 178.181L81.7114 178.18L83.7117 178.177L84.2399 178.175L86.2408 178.171L86.7684 178.169L88.7687 178.165L89.2969 178.165L91.2972 178.16L91.8253 178.159L93.8257 178.155L94.3538 178.154L96.3541 178.15L96.8823 178.149L98.8832 178.145L99.4114 178.143H99.542L101.412 178.139L101.94 178.138L103.94 178.134L104.468 178.133L105.463 178.131L105.47 184.103Z" fill="#936FE9"/>
<path d="M69.0685 178.207V187.63C68.977 187.542 68.8887 187.454 68.8048 187.364C68.7127 187.268 68.6249 187.169 68.541 187.07V178.208L69.0685 178.207Z" fill="#7732EF"/>
<path d="M71.597 178.201V189.415C71.4159 189.317 71.2405 189.217 71.0688 189.117V178.203L71.597 178.201Z" fill="#7732EF"/>
<path d="M74.1257 178.196V190.543C74.0007 190.497 73.8771 190.451 73.7546 190.403C73.7023 190.383 73.6499 190.362 73.5981 190.341V178.197L74.1257 178.196Z" fill="#7732EF"/>
<path d="M76.6546 178.191V191.333C76.4773 191.286 76.3006 191.238 76.1265 191.189V178.192L76.6546 178.191Z" fill="#7732EF"/>
<path d="M79.1829 178.186V191.887C79.0056 191.855 78.8296 191.822 78.6548 191.787V178.186L79.1829 178.186Z" fill="#7732EF"/>
<path d="M81.7118 178.18V192.252C81.5351 192.232 81.359 192.212 81.1836 192.189V178.181L81.7118 178.18Z" fill="#7732EF"/>
<path d="M84.2401 178.175V192.454C84.0634 192.445 83.8873 192.435 83.7119 192.425V178.176L84.2401 178.175Z" fill="#7732EF"/>
<path d="M86.7689 178.169V192.506C86.6515 192.507 86.5329 192.508 86.4155 192.508C86.3575 192.508 86.2988 192.508 86.2407 192.507V178.171L86.7689 178.169Z" fill="#7732EF"/>
<path d="M89.2977 178.165V192.413C89.1223 192.425 88.9462 192.435 88.7695 192.445V178.165L89.2977 178.165Z" fill="#7732EF"/>
<path d="M91.826 178.159V192.167C91.6506 192.19 91.4745 192.212 91.2979 192.232V178.16L91.826 178.159Z" fill="#7732EF"/>
<path d="M94.3543 178.154V191.752C94.1795 191.788 94.0035 191.821 93.8262 191.855V178.155L94.3543 178.154Z" fill="#7732EF"/>
<path d="M96.8831 178.149V191.14C96.709 191.19 96.5329 191.239 96.355 191.286V178.15L96.8831 178.149Z" fill="#7732EF"/>
<path d="M99.4115 178.143V190.27C99.2386 190.341 99.0631 190.41 98.8833 190.478V178.145L99.4115 178.143Z" fill="#7732EF"/>
<path d="M101.94 178.139V189.01C101.769 189.114 101.593 189.217 101.412 189.317V178.139L101.94 178.139Z" fill="#7732EF"/>
<path d="M104.469 178.133V186.851C104.31 187.057 104.134 187.257 103.94 187.454V178.133L104.469 178.133Z" fill="#7732EF"/>
<path d="M105.465 178.216C105.465 183.138 96.9385 187.129 86.4163 187.129C84.9788 187.129 83.5786 187.055 82.2327 186.913C80.539 186.736 78.9312 186.452 77.4414 186.079C76.1118 185.746 74.8763 185.342 73.7594 184.877C73.418 184.734 73.0867 184.586 72.7687 184.433C71.3678 183.76 70.1929 182.984 69.3006 182.132C69.1265 181.965 68.9624 181.796 68.8109 181.624C67.8808 180.575 67.3672 179.423 67.3672 178.216C67.3672 178.105 67.3722 177.995 67.383 177.884C67.7521 173.115 76.1326 169.302 86.4163 169.302C88.9473 169.302 91.3628 169.533 93.5708 169.952C93.998 170.033 94.417 170.121 94.8277 170.216C96.6217 170.63 98.2561 171.172 99.6765 171.817C99.9895 171.958 100.292 172.105 100.584 172.257C101.621 172.797 102.519 173.396 103.253 174.042C104.008 174.709 104.589 175.426 104.966 176.18C105.24 176.73 105.406 177.3 105.451 177.884C105.462 177.995 105.465 178.105 105.465 178.216Z" fill="#6A44C5"/>
<path d="M101.642 178.215C101.642 178.325 101.636 178.434 101.628 178.543C101.26 182.32 94.5792 185.34 86.4171 185.34C78.2555 185.34 71.5743 182.32 71.2064 178.543C71.1982 178.434 71.1919 178.325 71.1919 178.215C71.1919 174.287 78.0214 171.092 86.4171 171.092C94.8127 171.092 101.642 174.287 101.642 178.215Z" fill="#7732EF"/>
<path d="M101.628 178.543C101.26 182.32 94.5788 185.34 86.4172 185.34C86.2342 185.34 86.0537 185.338 85.8733 185.335C84.0528 185.305 82.3124 185.125 80.7071 184.82C79.1006 184.515 77.6309 184.085 76.3518 183.556C76.0269 183.422 75.7145 183.282 75.4129 183.135C74.0493 182.466 72.957 181.675 72.2288 180.798C72.0521 180.589 71.8969 180.373 71.7656 180.154C71.4514 179.638 71.2621 179.098 71.2065 178.543C71.5744 174.765 78.2556 171.745 86.4172 171.745C87.4495 171.745 88.4585 171.793 89.436 171.886C89.9326 171.933 90.4235 171.991 90.9037 172.061C92.8643 172.344 94.6576 172.808 96.1935 173.411C96.5248 173.542 96.8454 173.679 97.1539 173.823C98.3497 174.38 99.3505 175.029 100.1 175.746C100.831 176.445 101.324 177.206 101.532 178.008C101.579 178.184 101.61 178.363 101.628 178.543Z" fill="#936FE9"/>
<path d="M88.5341 182.258V183.441H85.321V182.311C83.0424 182.247 80.8313 181.959 79.4639 181.565L81.196 179.731C82.7004 180.146 84.7057 180.413 86.4606 180.413C87.987 180.413 88.5341 180.264 88.5341 180.007C88.5341 179.069 79.715 179.826 79.715 177.043C79.715 175.838 81.5835 174.825 85.321 174.58V173.418H88.5341V174.558C90.2208 174.633 91.8614 174.836 93.1601 175.177L91.5421 177.001C89.9697 176.627 88.4887 176.446 87.0985 176.446C85.526 176.446 85.0244 176.659 85.0244 176.915C85.0244 177.811 93.8441 177.065 93.8441 179.816C93.8441 180.967 92.0665 181.969 88.5341 182.258Z" fill="#7732EF"/>
<path d="M88.4408 181.864V183.047H85.2277V181.917C82.9485 181.853 80.738 181.565 79.3706 181.171L81.1027 179.337C82.6071 179.753 84.6125 180.019 86.3673 180.019C87.8937 180.019 88.4408 179.87 88.4408 179.614C88.4408 178.675 79.6218 179.433 79.6218 176.649C79.6218 175.444 81.4902 174.431 85.2277 174.186V173.024H88.4408V174.164C90.1269 174.239 91.7682 174.442 93.0668 174.783L91.4489 176.607C89.8764 176.233 88.3954 176.052 87.0053 176.052C85.4328 176.052 84.9311 176.265 84.9311 176.522C84.9311 177.417 93.7508 176.671 93.7508 179.422C93.7508 180.573 91.9733 181.576 88.4408 181.864Z" fill="#D9C9FF"/>
<path opacity="0.25" d="M53.0614 212.487C64.9731 212.487 74.6295 208.05 74.6295 202.576C74.6295 197.103 64.9731 192.666 53.0614 192.666C41.1496 192.666 31.4932 197.103 31.4932 202.576C31.4932 208.05 41.1496 212.487 53.0614 212.487Z" fill="#D9C9FF"/>
<path d="M72.0259 201.88C72.0266 201.906 72.0266 201.93 72.0266 201.956C72.0266 202.89 71.6745 203.789 71.0252 204.627C70.8668 204.833 70.6901 205.033 70.497 205.231C69.9568 205.783 69.2842 206.303 68.4967 206.786C68.3263 206.891 68.1496 206.993 67.9685 207.094C67.3583 207.434 66.6894 207.752 65.9682 208.046C65.7953 208.116 65.6192 208.186 65.44 208.254C64.8084 208.494 64.1401 208.715 63.4391 208.916C63.2649 208.966 63.0893 209.015 62.911 209.063C62.2687 209.235 61.6009 209.39 60.9107 209.529C60.7361 209.564 60.5602 209.598 60.3826 209.631C59.7331 209.75 59.0659 209.855 58.3822 209.944C58.2069 209.966 58.0311 209.987 57.8541 210.008C57.2006 210.084 56.5329 210.144 55.8538 210.189C55.6786 210.201 55.5028 210.212 55.3257 210.221C54.6686 210.256 54.0015 210.277 53.3254 210.283C53.2082 210.283 53.0898 210.284 52.972 210.284C52.914 210.284 52.8554 210.284 52.7974 210.283C52.1214 210.281 51.4541 210.263 50.7965 210.23C50.6194 210.222 50.4435 210.212 50.2683 210.201C49.7681 210.17 49.2739 210.13 48.7865 210.082C48.6125 210.066 48.4398 210.048 48.2679 210.028C48.0909 210.009 47.9151 209.988 47.7398 209.965C47.0566 209.881 46.3889 209.779 45.7395 209.663C45.5619 209.631 45.3862 209.598 45.2114 209.563C44.7976 209.483 44.392 209.396 43.9944 209.303C43.7297 209.241 43.4686 209.177 43.211 209.109C43.0333 209.063 42.8571 209.015 42.6829 208.966C41.9832 208.77 41.3149 208.553 40.6819 208.32C40.557 208.274 40.4332 208.227 40.3108 208.179C40.2581 208.159 40.206 208.138 40.1539 208.118C39.8682 208.004 39.5893 207.886 39.3199 207.765C38.9114 207.582 38.5225 207.39 38.1536 207.192C37.9723 207.093 37.7966 206.994 37.6254 206.893C36.9505 206.493 36.3556 206.065 35.8511 205.615C35.7736 205.546 35.6978 205.476 35.625 205.405C35.5332 205.318 35.4449 205.23 35.3609 205.141C35.2684 205.043 35.1809 204.945 35.0969 204.846C34.3339 203.947 33.917 202.972 33.917 201.956C33.917 201.884 33.9193 201.813 33.9242 201.742L33.926 195.987L35.0969 195.984L35.625 195.983L37.6253 195.979L38.1534 195.977L39.7146 195.974L40.1538 195.973L40.6819 195.972L42.6829 195.968L43.211 195.967L45.2114 195.963L45.7395 195.962L47.7398 195.957L48.2679 195.956L50.2682 195.953L50.7964 195.951L52.7972 195.947L53.3253 195.946L55.3257 195.942L55.8537 195.941L57.854 195.936L58.382 195.936L60.3825 195.931L60.9105 195.93L62.9109 195.927L63.4391 195.925L65.44 195.921L65.9682 195.919H66.0982L67.9685 195.915L68.4967 195.914L70.497 195.91L71.0252 195.909L72.0196 195.907L72.0259 201.88Z" fill="#936FE9"/>
<path d="M35.6252 195.983V205.405C35.5335 205.318 35.4452 205.23 35.3612 205.141C35.2687 205.043 35.1812 204.945 35.0972 204.846V195.985L35.6252 195.983Z" fill="#7732EF"/>
<path d="M38.1536 195.977V207.192C37.9724 207.093 37.7967 206.994 37.6255 206.893V195.979L38.1536 195.977Z" fill="#7732EF"/>
<path d="M40.6824 195.972V208.32C40.5575 208.274 40.4336 208.227 40.3112 208.179C40.2585 208.159 40.2065 208.138 40.1543 208.117V195.973L40.6824 195.972Z" fill="#7732EF"/>
<path d="M43.2112 195.967V209.109C43.0334 209.063 42.8573 209.015 42.6831 208.966V195.968L43.2112 195.967Z" fill="#7732EF"/>
<path d="M45.7395 195.962V209.663C45.5618 209.631 45.3861 209.598 45.2114 209.563V195.963L45.7395 195.962Z" fill="#7732EF"/>
<path d="M48.2678 195.956V210.028C48.0908 210.009 47.915 209.988 47.7397 209.965V195.957L48.2678 195.956Z" fill="#7732EF"/>
<path d="M50.7967 195.951V210.23C50.6197 210.222 50.4437 210.212 50.2686 210.201V195.952L50.7967 195.951Z" fill="#7732EF"/>
<path d="M53.3254 195.946V210.283C53.2082 210.283 53.0898 210.284 52.972 210.284C52.914 210.284 52.8554 210.284 52.7974 210.283V195.947L53.3254 195.946Z" fill="#7732EF"/>
<path d="M55.8538 195.941V210.189C55.6786 210.201 55.5027 210.212 55.3257 210.221V195.942L55.8538 195.941Z" fill="#7732EF"/>
<path d="M58.3825 195.936V209.944C58.2073 209.966 58.0316 209.988 57.8545 210.008V195.936L58.3825 195.936Z" fill="#7732EF"/>
<path d="M60.9108 195.93V209.529C60.7362 209.565 60.5604 209.598 60.3828 209.631V195.931L60.9108 195.93Z" fill="#7732EF"/>
<path d="M63.4393 195.925V208.916C63.2651 208.966 63.0895 209.015 62.9111 209.063V195.926L63.4393 195.925Z" fill="#7732EF"/>
<path d="M65.9681 195.919V208.046C65.7952 208.117 65.6191 208.187 65.4399 208.254V195.921L65.9681 195.919Z" fill="#7732EF"/>
<path d="M68.4969 195.914V206.786C68.3259 206.891 68.1499 206.993 67.9688 207.094V195.915L68.4969 195.914Z" fill="#7732EF"/>
<path d="M71.0252 195.909V204.627C70.8662 204.832 70.6902 205.034 70.4971 205.231V195.91L71.0252 195.909Z" fill="#7732EF"/>
<path d="M72.0224 195.992C72.0224 200.914 63.4955 204.905 52.9734 204.905C51.5358 204.905 50.1356 204.831 48.7892 204.689C47.096 204.512 45.4881 204.229 43.9984 203.855C42.6686 203.523 41.4333 203.118 40.3161 202.652C39.9744 202.511 39.6438 202.363 39.3252 202.209C37.9245 201.536 36.7497 200.761 35.8577 199.908C35.6831 199.742 35.5191 199.572 35.3677 199.401C34.4374 198.35 33.9243 197.199 33.9243 195.992C33.9243 195.882 33.9291 195.771 33.9396 195.661C34.3089 190.892 42.6897 187.078 52.9734 187.078C55.5041 187.078 57.9195 187.309 60.1279 187.729C60.5546 187.81 60.9738 187.897 61.3845 187.992C63.1787 188.406 64.8131 188.948 66.2335 189.592C66.5465 189.735 66.8487 189.881 67.1409 190.033C68.1783 190.573 69.0762 191.172 69.8101 191.818C70.5654 192.485 71.1459 193.202 71.5226 193.956C71.7971 194.507 71.9631 195.076 72.0079 195.661C72.0186 195.771 72.0224 195.882 72.0224 195.992Z" fill="#6A44C5"/>
<path opacity="0.2" d="M68.0884 195.784L52.4296 203.111C50.609 203.081 48.8691 202.901 47.2632 202.596L66.6566 193.521C67.3873 194.221 67.8801 194.982 68.0884 195.784Z" fill="white"/>
<path d="M55.091 200.034V201.218H51.8778V200.087C49.5988 200.023 47.3883 199.735 46.021 199.34L47.7529 197.506C49.2571 197.923 51.2625 198.189 53.0172 198.189C54.5441 198.189 55.091 198.04 55.091 197.784C55.091 196.845 46.2716 197.603 46.2716 194.819C46.2716 193.614 48.1403 192.601 51.8778 192.356V191.193H55.091V192.335C56.7775 192.41 58.4182 192.612 59.7172 192.953L58.0991 194.776C56.5266 194.403 55.0453 194.222 53.6553 194.222C52.0828 194.222 51.5815 194.435 51.5815 194.692C51.5815 195.587 60.401 194.841 60.401 197.592C60.401 198.743 58.6233 199.746 55.091 200.034Z" fill="#7732EF"/>
<path d="M54.9973 199.64V200.824H51.784V199.693C49.505 199.629 47.2946 199.341 45.9272 198.947L47.6591 197.113C49.1632 197.529 51.1685 197.795 52.9234 197.795C54.4502 197.795 54.9972 197.646 54.9972 197.39C54.9972 196.452 46.1779 197.209 46.1779 194.426C46.1779 193.221 48.0465 192.208 51.784 191.963V190.801H54.9972V191.941C56.6835 192.015 58.3243 192.218 59.6233 192.56L58.0054 194.383C56.4328 194.01 54.9515 193.829 53.5613 193.829C51.9889 193.829 51.4875 194.042 51.4875 194.298C51.4875 195.194 60.307 194.447 60.307 197.198C60.307 198.35 58.5296 199.352 54.9973 199.64Z" fill="#9895FF"/>
<path d="M76.5736 195.394C76.5743 195.42 76.5743 195.444 76.5743 195.47C76.5743 196.404 76.2215 197.303 75.5722 198.141C75.4138 198.346 75.2371 198.548 75.044 198.745C74.5039 199.297 73.8312 199.817 73.0437 200.3C72.8733 200.405 72.6973 200.507 72.5156 200.608C71.9054 200.948 71.2365 201.266 70.5152 201.56C70.3423 201.63 70.1669 201.7 69.9877 201.767C69.3561 202.008 68.6872 202.228 67.9861 202.43C67.8126 202.48 67.6365 202.529 67.458 202.577C66.8162 202.749 66.148 202.904 65.4576 203.043C65.2835 203.078 65.1074 203.112 64.9301 203.145C64.2802 203.264 63.6132 203.369 62.9294 203.457C62.7542 203.48 62.5784 203.501 62.4013 203.522C61.7478 203.597 61.08 203.658 60.4009 203.703C60.2258 203.715 60.0499 203.726 59.8729 203.735C59.2158 203.77 58.5486 203.791 57.8726 203.796C57.7554 203.797 57.637 203.798 57.5191 203.798C57.4612 203.798 57.4025 203.798 57.3445 203.797C56.6685 203.795 56.0013 203.777 55.3437 203.744C55.1666 203.736 54.9906 203.726 54.8154 203.715C54.3152 203.684 53.821 203.644 53.3337 203.596C53.1596 203.579 52.9868 203.561 52.815 203.542C52.638 203.523 52.4622 203.502 52.287 203.479C51.6038 203.395 50.9361 203.293 50.2866 203.177C50.1091 203.145 49.9333 203.112 49.7586 203.077C49.3447 202.997 48.9392 202.91 48.5415 202.817C48.2768 202.755 48.0157 202.691 47.7581 202.623C47.5805 202.576 47.4042 202.529 47.2301 202.48C46.5304 202.284 45.862 202.067 45.2291 201.834C45.1042 201.788 44.9804 201.741 44.858 201.693C44.8052 201.674 44.7532 201.652 44.7011 201.631C44.4153 201.518 44.1364 201.4 43.8671 201.279C43.4585 201.096 43.0696 200.904 42.7008 200.705C42.5196 200.607 42.3439 200.508 42.1726 200.407C41.4978 200.007 40.9029 199.58 40.3985 199.129C40.321 199.06 40.2451 198.99 40.1723 198.92C40.0806 198.832 39.9924 198.744 39.9083 198.655C39.8159 198.558 39.7283 198.459 39.6443 198.36C38.8813 197.46 38.4644 196.486 38.4644 195.47C38.4644 195.399 38.4667 195.327 38.4715 195.256L38.4733 189.501L39.6443 189.498L40.1723 189.497L42.1726 189.493L42.7008 189.491L44.2619 189.488L44.7011 189.487L45.2292 189.486L47.2302 189.482L47.7583 189.481L49.7587 189.477L50.2868 189.476L52.2871 189.472L52.8151 189.47L54.8154 189.466L55.3437 189.465L57.3445 189.461L57.8726 189.46L59.8729 189.456L60.4009 189.455L62.4013 189.45L62.9294 189.45L64.9301 189.445L65.4576 189.445L67.458 189.441L67.9861 189.439L69.9877 189.435L70.5152 189.433H70.6459L72.5156 189.429L73.0437 189.429L75.044 189.424L75.5722 189.423L76.5667 189.421L76.5736 195.394Z" fill="#936FE9"/>
<path d="M40.1726 189.497V198.919C40.0808 198.832 39.9926 198.743 39.9085 198.654C39.816 198.557 39.7285 198.459 39.6445 198.36V189.498L40.1726 189.497Z" fill="#7732EF"/>
<path d="M42.701 189.491V200.705C42.5198 200.607 42.344 200.507 42.1729 200.407V189.493L42.701 189.491Z" fill="#7732EF"/>
<path d="M45.2297 189.486V201.834C45.1048 201.788 44.981 201.74 44.8586 201.693C44.8058 201.673 44.7538 201.652 44.7017 201.631V189.487L45.2297 189.486Z" fill="#7732EF"/>
<path d="M47.7585 189.481V202.622C47.5808 202.576 47.4046 202.528 47.2305 202.48V189.482L47.7585 189.481Z" fill="#7732EF"/>
<path d="M50.2868 189.475V203.176C50.1093 203.145 49.9335 203.112 49.7588 203.077V189.476L50.2868 189.475Z" fill="#7732EF"/>
<path d="M52.8156 189.47V203.542C52.6386 203.522 52.4629 203.501 52.2876 203.479V189.471L52.8156 189.47Z" fill="#7732EF"/>
<path d="M55.3441 189.465V203.744C55.1671 203.736 54.9911 203.725 54.8159 203.715V189.466L55.3441 189.465Z" fill="#7732EF"/>
<path d="M57.8728 189.46V203.796C57.7555 203.797 57.6372 203.798 57.5193 203.798C57.4613 203.798 57.4027 203.798 57.3447 203.797V189.461L57.8728 189.46Z" fill="#7732EF"/>
<path d="M60.4016 189.455V203.703C60.2265 203.715 60.0506 203.726 59.8735 203.735V189.456L60.4016 189.455Z" fill="#7732EF"/>
<path d="M62.9295 189.449V203.457C62.7543 203.48 62.5785 203.502 62.4014 203.521V189.45L62.9295 189.449Z" fill="#7732EF"/>
<path d="M65.4583 189.444V203.042C65.2835 203.078 65.1075 203.112 64.9302 203.145V189.444L65.4583 189.444Z" fill="#7732EF"/>
<path d="M67.9871 189.438V202.43C67.813 202.48 67.6369 202.529 67.459 202.576V189.44L67.9871 189.438Z" fill="#7732EF"/>
<path d="M70.5153 189.433V201.56C70.3431 201.63 70.167 201.701 69.9878 201.768V189.435L70.5153 189.433Z" fill="#7732EF"/>
<path d="M73.0438 189.428V200.299C72.8734 200.405 72.6974 200.507 72.5156 200.608V189.429L73.0438 189.428Z" fill="#7732EF"/>
<path d="M75.5726 189.423V198.141C75.4142 198.346 75.2375 198.548 75.0444 198.744V189.424L75.5726 189.423Z" fill="#7732EF"/>
<path d="M76.5696 189.506C76.5696 194.428 68.0427 198.419 57.5207 198.419C56.0832 198.419 54.6829 198.345 53.3366 198.203C51.6433 198.025 50.0354 197.743 48.5457 197.369C47.2159 197.037 45.9806 196.632 44.8634 196.166C44.5219 196.025 44.1911 195.877 43.8726 195.723C42.4719 195.05 41.2971 194.274 40.4051 193.422C40.2305 193.255 40.0665 193.086 39.9151 192.914C38.9848 191.864 38.4717 190.713 38.4717 189.506C38.4717 189.396 38.4765 189.285 38.487 189.175C38.8563 184.405 47.2371 180.592 57.5207 180.592C60.0514 180.592 62.4668 180.823 64.6756 181.242C65.1021 181.323 65.5211 181.411 65.9319 181.506C67.7265 181.919 69.3602 182.461 70.7807 183.106C71.0936 183.248 71.3959 183.395 71.6881 183.547C72.7254 184.087 73.624 184.685 74.3572 185.332C75.1126 185.999 75.6931 186.716 76.0698 187.469C76.3443 188.02 76.5103 188.59 76.5551 189.175C76.5658 189.285 76.5696 189.395 76.5696 189.506Z" fill="#6A44C5"/>
<path d="M72.746 189.506C72.746 189.615 72.7397 189.724 72.7308 189.833C72.3636 193.61 65.6824 196.63 57.5207 196.63C49.3589 196.63 42.6778 193.61 42.3102 189.833C42.3018 189.724 42.2954 189.615 42.2954 189.506C42.2954 185.578 49.1251 182.381 57.5207 182.381C65.9165 182.381 72.746 185.578 72.746 189.506Z" fill="#7732EF"/>
<path d="M72.7315 189.833C72.3636 193.61 65.6824 196.63 57.5209 196.63C57.3381 196.63 57.1577 196.628 56.977 196.625C55.1564 196.595 53.4165 196.415 51.8106 196.11C50.2046 195.805 48.7345 195.376 47.4556 194.847C47.1306 194.712 46.8183 194.572 46.5166 194.425C45.1529 193.756 44.0609 192.965 43.3324 192.088C43.156 191.878 43.0009 191.663 42.8692 191.444C42.5548 190.928 42.3658 190.388 42.3105 189.833C42.6781 186.056 49.3592 183.035 57.521 183.035C58.5535 183.035 59.5625 183.083 60.5398 183.176C61.0368 183.223 61.5276 183.281 62.0078 183.351C63.9686 183.634 65.7613 184.098 67.2972 184.702C67.6285 184.832 67.9497 184.969 68.2576 185.113C69.4534 185.67 70.4542 186.319 71.2038 187.035C71.9352 187.734 72.428 188.496 72.6362 189.298C72.6823 189.474 72.7145 189.653 72.7315 189.833Z" fill="#936FE9"/>
<path d="M59.6384 193.547V194.731H56.4252V193.601C54.1463 193.537 51.9358 193.249 50.5684 192.855L52.3004 191.02C53.8045 191.436 55.8099 191.703 57.5646 191.703C59.0914 191.703 59.6384 191.553 59.6384 191.297C59.6384 190.359 50.819 191.116 50.819 188.333C50.819 187.128 52.6876 186.115 56.4251 185.87V184.707H59.6383V185.849C61.3248 185.923 62.9655 186.126 64.2648 186.467L62.6464 188.29C61.0739 187.917 59.5926 187.736 58.2026 187.736C56.6301 187.736 56.1287 187.949 56.1287 188.205C56.1287 189.101 64.9481 188.354 64.9481 191.106C64.9481 192.257 63.1706 193.26 59.6384 193.547Z" fill="#7732EF"/>
<path d="M59.5446 193.154V194.337H56.3314V193.207C54.0524 193.143 51.842 192.855 50.4746 192.461L52.2065 190.626C53.7106 191.042 55.7159 191.309 57.4708 191.309C58.9976 191.309 59.5445 191.16 59.5445 190.904C59.5445 189.966 50.7252 190.722 50.7252 187.939C50.7252 186.735 52.5939 185.721 56.3313 185.476V184.314H59.5445V185.454C61.2309 185.529 62.8717 185.732 64.1706 186.073L62.5528 187.897C60.9801 187.523 59.4989 187.342 58.1087 187.342C56.5362 187.342 56.0349 187.555 56.0349 187.811C56.0349 188.707 64.8546 187.961 64.8546 190.712C64.8546 191.864 63.0769 192.866 59.5446 193.154Z" fill="#D9C9FF"/>
</g>
<defs>
<clipPath id="clip0_91_13753">
<rect width="354" height="214.2" fill="white"/>
</clipPath>
</defs>
</svg>
