<svg width="92" height="92" viewBox="0 0 92 92" fill="none" xmlns="http://www.w3.org/2000/svg">
<circle cx="46" cy="46" r="45.5" stroke="#AE8FF7" stroke-dasharray="2 2"/>
<circle cx="46.1944" cy="46.1944" r="41.6944" fill="#AE8FF7" stroke="#AE8FF7"/>
<path d="M20.7631 53.5309C20.5607 53.3286 20.5607 53.0018 20.7631 52.7995L37.9909 35.5664C38.1932 35.3641 38.5253 35.3641 38.7275 35.5664L50.5292 47.3681L67.0617 30.8355H65.2046C64.9192 30.8355 64.6858 30.6072 64.6858 30.3168C64.6858 30.0314 64.9192 29.798 65.2046 29.798H68.3119C68.5973 29.798 68.8307 30.0314 68.8307 30.3168V33.4345C68.8307 33.7197 68.6024 33.9532 68.3119 33.9532C68.0266 33.9532 67.7932 33.7197 67.7932 33.4345V31.5721L50.8974 48.4679C50.6899 48.6753 50.363 48.6753 50.1607 48.4679L38.3592 36.6663L21.4945 53.5309C21.2922 53.7332 20.9654 53.7332 20.7631 53.5309Z" fill="white"/>
<path d="M69.3811 68.0923H66.668V36.3758C66.668 35.9193 66.1129 35.6808 65.786 36.0075L58.0566 43.7369C57.9581 43.8354 57.901 43.9651 57.901 44.1001V68.0924H55.1464V47.8972C55.1464 47.4355 54.5913 47.2021 54.2593 47.5289L50.5243 51.2639L47.2665 47.9957C46.9346 47.6689 46.3795 47.9023 46.3795 48.364V68.0923H43.6249V44.5721C43.6249 44.432 43.5679 44.3023 43.4693 44.2038L38.7279 39.4571C38.5308 39.2652 38.1884 39.2652 37.9913 39.4571L35.0085 42.4451C34.9099 42.5437 34.8528 42.6734 34.8528 42.8136V68.0924H32.0982V46.6056C32.0982 46.1491 31.538 45.9157 31.2112 46.2425L23.4818 53.9719C23.3832 54.0653 23.3313 54.2001 23.3313 54.3351V68.0924H20.6184C20.333 68.0924 20.0996 68.3206 20.0996 68.6111C20.0996 68.8964 20.333 69.1299 20.6184 69.1299H69.3811C69.6663 69.1299 69.8998 68.8964 69.8998 68.6111C69.8998 68.3205 69.6663 68.0923 69.3811 68.0923ZM42.5874 68.0923H35.8903V43.0262L38.3596 40.5621L42.5873 44.7847L42.5874 68.0923ZM65.6305 68.0923H58.9385V44.3179L65.6305 37.626V68.0923Z" fill="white"/>
<path d="M50.4617 19.8701C45.2949 19.8701 41.0879 24.0721 41.0879 29.2388C41.0879 34.4055 45.2949 38.6074 50.4617 38.6074C55.6285 38.6074 59.8304 34.4055 59.8304 29.2388C59.8304 24.0721 55.6285 19.8701 50.4617 19.8701ZM50.4617 37.57C45.8656 37.57 42.1254 33.8351 42.1254 29.2389C42.1254 24.6428 45.8655 20.9077 50.4617 20.9077C55.0579 20.9077 58.7929 24.6429 58.7929 29.2389C58.7929 33.8351 55.0579 37.57 50.4617 37.57Z" fill="white"/>
<path d="M43 44.5V69L35.5 68.5V68V43L38.5 40.5L43 44.5Z" fill="white"/>
<path d="M66.5 36V68.5H58.5V44L66.5 36Z" fill="white"/>
<path d="M53.93 31.335C53.93 32.0457 53.67 32.6567 53.15 33.168C52.63 33.6707 51.8803 33.9827 50.901 34.104V35.56H49.601V34.143C48.9597 34.1083 48.3487 33.9957 47.768 33.805C47.1873 33.6143 46.7193 33.3803 46.364 33.103L47.079 31.517C47.4083 31.7597 47.794 31.9633 48.236 32.128C48.678 32.2927 49.133 32.3967 49.601 32.44V30.269C48.9857 30.1217 48.4657 29.957 48.041 29.775C47.6163 29.593 47.261 29.3287 46.975 28.982C46.689 28.6267 46.546 28.1587 46.546 27.578C46.546 26.8587 46.806 26.2433 47.326 25.732C47.8547 25.212 48.613 24.8957 49.601 24.783V23.34H50.901V24.757C51.967 24.8437 52.8467 25.108 53.54 25.55L52.89 27.149C52.24 26.7763 51.577 26.551 50.901 26.473V28.683C51.5077 28.8217 52.019 28.982 52.435 29.164C52.8597 29.3373 53.215 29.6017 53.501 29.957C53.787 30.3037 53.93 30.763 53.93 31.335ZM48.639 27.474C48.639 27.6907 48.7213 27.8683 48.886 28.007C49.0507 28.1457 49.289 28.2627 49.601 28.358V26.512C49.2717 26.59 49.029 26.7157 48.873 26.889C48.717 27.0537 48.639 27.2487 48.639 27.474ZM50.901 32.388C51.213 32.3187 51.447 32.206 51.603 32.05C51.759 31.894 51.837 31.7077 51.837 31.491C51.837 31.2743 51.7547 31.0967 51.59 30.958C51.434 30.8193 51.2043 30.698 50.901 30.594V32.388Z" fill="white"/>
</svg>
