<svg width="74" height="74" viewBox="0 0 74 74" fill="none" xmlns="http://www.w3.org/2000/svg">
<path d="M63.2499 9.50002H38.1231C36.697 6.38866 34.2498 3.85857 31.1876 2.32971C28.1254 0.800857 24.6325 0.365184 21.2886 1.09501C17.9447 1.82484 14.951 3.67628 12.8043 6.342C10.6577 9.00773 9.48718 12.3274 9.48718 15.75C9.48718 19.1726 10.6577 22.4923 12.8043 25.158C14.951 27.8238 17.9447 29.6752 21.2886 30.405C24.6325 31.1349 28.1254 30.6992 31.1876 29.1703C34.2498 27.6415 36.697 25.1114 38.1231 22H48.2499L51.9999 18.25L55.7499 22L59.4999 18.25L63.2499 22L69.4999 15.75L63.2499 9.50002Z" fill="#AE8FF7"/>
<path d="M19.5 20.75C22.2614 20.75 24.5 18.5114 24.5 15.75C24.5 12.9886 22.2614 10.75 19.5 10.75C16.7386 10.75 14.5 12.9886 14.5 15.75C14.5 18.5114 16.7386 20.75 19.5 20.75Z" fill="#EEEEEE"/>
<path d="M26.4823 63.9821L10.0178 47.5176C9.78567 47.2855 9.51007 47.1013 9.20675 46.9757C8.90344 46.8501 8.57835 46.7854 8.25004 46.7854C7.92174 46.7854 7.59665 46.8501 7.29333 46.9757C6.99002 47.1013 6.71442 47.2855 6.48228 47.5176L0.75 53.2499L20.7501 73.2499L26.4823 67.5176C26.7144 67.2855 26.8986 67.0099 27.0242 66.7066C27.1498 66.4033 27.2145 66.0782 27.2145 65.7499C27.2145 65.4216 27.1498 65.0965 27.0242 64.7932C26.8986 64.4898 26.7144 64.2142 26.4823 63.9821Z" fill="#AE8FF7"/>
<path d="M26.4875 67.5125L20.75 73.25L0.75 53.25L5.0125 48.9875C4.78069 49.2188 4.59678 49.4935 4.4713 49.7959C4.34581 50.0984 4.28122 50.4226 4.28122 50.75C4.28122 51.0774 4.34581 51.4017 4.4713 51.7041C4.59678 52.0065 4.78069 52.2812 5.0125 52.5125L15.2375 62.7375C15.4688 62.9693 15.7435 63.1532 16.0459 63.2787C16.3484 63.4042 16.6726 63.4688 17 63.4688C17.3274 63.4688 17.6516 63.4042 17.9541 63.2787C18.2565 63.1532 18.5312 62.9693 18.7625 62.7375L22 59.5L26.4875 63.9875C26.7193 64.2188 26.9032 64.4935 27.0287 64.796C27.1542 65.0984 27.2188 65.4226 27.2188 65.75C27.2188 66.0775 27.1542 66.4017 27.0287 66.7041C26.9032 67.0066 26.7193 67.2813 26.4875 67.5125Z" fill="#936FE9"/>
<path d="M71.8625 33.3875C70.9715 32.499 69.7646 32 68.5063 32C67.2479 32 66.041 32.499 65.15 33.3875L53.1 44.5625L53.0934 44.5649C52.8299 43.4784 52.2093 42.5119 51.3311 41.8202C50.4529 41.1285 49.3679 40.7516 48.25 40.75H23.4277C20.1125 40.75 16.9331 42.0669 14.5889 44.4111L10.75 48.25L25.75 63.25L26.7875 62.2125C27.7263 61.2755 28.9986 60.7495 30.325 60.75H50.6125C52.5893 60.7501 54.5378 60.2811 56.298 59.3815C58.0582 58.4818 59.5797 57.1772 60.7375 55.575L72.3125 39.575C72.9918 38.661 73.3201 37.5334 73.2375 36.3976C73.1549 35.2618 72.6669 34.1936 71.8625 33.3875Z" fill="#FFCEBF"/>
<path d="M73.25 36.7374C73.2497 37.7593 72.9211 38.754 72.3125 39.5749L60.7375 55.5749C59.5797 57.1772 58.0582 58.4817 56.298 59.3814C54.5378 60.281 52.5893 60.7501 50.6125 60.7499H30.325C28.9986 60.7494 27.7263 61.2754 26.7875 62.2124L25.75 63.2499L22 59.4999L23.0375 58.4624C23.9763 57.5254 25.2486 56.9994 26.575 56.9999H46.8625C48.8393 57.0001 50.7878 56.531 52.548 55.6314C54.3082 54.7317 55.8297 53.4272 56.9875 51.8249L68.5625 35.8249C69.1711 35.004 69.4997 34.0093 69.5 32.9874C69.5019 32.6852 69.4725 32.3836 69.4125 32.0874C70.4928 32.2958 71.4669 32.8739 72.1672 33.7225C72.8675 34.5711 73.2504 35.6371 73.25 36.7374Z" fill="#FFB09E"/>
<path d="M49.375 40.875C49.455 41.2447 49.4969 41.6217 49.5 42C49.5002 42.6567 49.371 43.3069 49.1198 43.9136C48.8686 44.5204 48.5003 45.0716 48.0359 45.5359C47.5716 46.0003 47.0203 46.3686 46.4136 46.6198C45.8069 46.871 45.1567 47.0002 44.5 47H36.375C35.8777 47 35.4008 47.1975 35.0492 47.5492C34.6975 47.9008 34.5 48.3777 34.5 48.875C34.5 49.3723 34.6975 49.8492 35.0492 50.2008C35.4008 50.5525 35.8777 50.75 36.375 50.75H48.25C49.4782 50.7495 50.6633 50.2972 51.5794 49.4792C52.4956 48.6612 53.0787 47.5347 53.2177 46.3144C53.3568 45.0941 53.0419 43.8653 52.3333 42.8621C51.6246 41.859 50.5716 41.1517 49.375 40.875Z" fill="#FFB09E"/>
<path d="M10.2857 20.6218C9.42949 18.0435 9.27055 15.2846 9.82499 12.625C10.481 15.7088 12.0924 18.5073 14.43 20.6228C16.7676 22.7384 19.7125 24.0634 22.8462 24.4094C25.98 24.7554 29.143 24.1049 31.8859 22.5504C34.6288 20.9958 36.8119 18.6163 38.125 15.75H61.1789C62.505 15.75 63.7768 15.2232 64.7145 14.2855L66.375 12.625L69.5 15.75L63.25 22L59.5 18.25L55.75 22L52 18.25L48.25 22H38.125C36.8738 24.7261 34.8347 27.0148 32.2705 28.5712C29.7064 30.1275 26.7348 30.88 23.7389 30.7317C20.7431 30.5834 17.8604 29.5411 15.4625 27.7391C13.0646 25.9371 11.2615 23.4581 10.2857 20.6218Z" fill="#936FE9"/>
</svg>
