<svg width="31" height="32" viewBox="0 0 31 32" fill="none" xmlns="http://www.w3.org/2000/svg">
<mask id="mask0_73_6159" style="mask-type:luminance" maskUnits="userSpaceOnUse" x="0" y="0" width="31" height="32">
<path d="M29.6966 30.0968V1.90326H1.50305V30.0968H29.6966Z" fill="white" stroke="white" stroke-width="2"/>
</mask>
<g mask="url(#mask0_73_6159)">
<path d="M23.9149 19.3564L27.7729 15.7081C30.4817 12.9993 30.4817 8.60748 27.7729 5.89867C25.0641 3.18986 20.6723 3.18986 17.9634 5.89867L12.4999 11.2068C11.5802 12.0968 11.5681 13.5677 12.4731 14.4726V14.4726C13.3676 15.3671 14.8179 15.3671 15.7124 14.4726L16.6905 13.4946C17.0667 13.1184 17.6768 13.1184 18.0531 13.4946L24.1251 19.5666C24.8604 20.3019 24.8604 21.4939 24.1251 22.2292C23.3899 22.9645 22.1979 22.9645 21.4626 22.2292" stroke="white" stroke-width="2" stroke-miterlimit="10" stroke-linecap="round" stroke-linejoin="round"/>
<path d="M16.8574 23.342L18.5053 24.99C19.2948 25.7795 20.5748 25.7795 21.3643 24.99C22.1538 24.2005 22.1538 22.9205 21.3643 22.1309L19.7076 20.4743" stroke="white" stroke-width="2" stroke-miterlimit="10" stroke-linecap="round" stroke-linejoin="round"/>
<path d="M15.9669 7.81177L13.8507 5.69557C11.0013 2.84623 6.3816 2.84623 3.53221 5.69557C0.682868 8.54497 0.682868 13.1647 3.53221 16.014L4.31022 16.7921" stroke="white" stroke-width="2" stroke-miterlimit="10" stroke-linecap="round" stroke-linejoin="round"/>
<path d="M9.30363 26.4557L9.32976 26.4817C10.1334 27.2854 11.4363 27.2854 12.24 26.4817L13.293 25.4288C14.0966 24.6251 14.0966 23.3221 13.293 22.5185L13.2669 22.4925C12.4632 21.6888 11.1603 21.6888 10.3566 22.4925L9.30363 23.5454C8.50003 24.3491 8.50003 25.652 9.30363 26.4557Z" stroke="white" stroke-width="2" stroke-miterlimit="10" stroke-linecap="round" stroke-linejoin="round"/>
<path d="M6.32231 23.5642L6.34838 23.5903C7.15204 24.394 8.45497 24.394 9.25857 23.5903L11.9137 20.9353C12.7173 20.1316 12.7173 18.8286 11.9137 18.025L11.8876 17.999C11.084 17.1953 9.781 17.1953 8.9774 17.999L6.32231 20.654C5.5187 21.4576 5.5187 22.7606 6.32231 23.5642Z" stroke="white" stroke-width="2" stroke-miterlimit="10" stroke-linecap="round" stroke-linejoin="round"/>
<path d="M3.38597 20.6279L3.41204 20.654C4.2157 21.4576 5.51868 21.4576 6.32229 20.654L7.94661 19.0296C8.75028 18.226 8.75028 16.9231 7.94661 16.1194L7.92055 16.0933C7.11688 15.2897 5.81396 15.2897 5.01029 16.0933L3.38597 17.7177C2.58236 18.5213 2.58236 19.8243 3.38597 20.6279Z" stroke="white" stroke-width="2" stroke-miterlimit="10" stroke-linecap="round" stroke-linejoin="round"/>
<path d="M13.2621 25.4656L15.6459 27.8494C16.4354 28.6389 17.7154 28.6389 18.5049 27.8494C19.2944 27.0599 19.2944 25.7799 18.5049 24.9904" stroke="white" stroke-width="2" stroke-miterlimit="10" stroke-linecap="round" stroke-linejoin="round"/>
</g>
</svg>
