<svg width="80" height="58" viewBox="0 0 80 58" fill="none" xmlns="http://www.w3.org/2000/svg">
<path d="M63.9455 43.784C63.373 44.7761 62.3321 45.3291 61.2636 45.3307C60.7399 45.3307 60.2081 45.1957 59.7218 44.9176L58.3523 44.1239C59.8259 44.9794 60.3333 46.8693 59.4794 48.346C58.9069 49.3365 57.8677 49.8911 56.7991 49.8911C56.2754 49.8911 55.7436 49.7577 55.2573 49.4764L52.2371 47.7345C53.7009 48.5835 54.2002 50.4538 53.3544 51.9192L53.33 51.9615C52.4827 53.4285 50.6075 53.9311 49.1405 53.0853L46.5464 51.5842C47.9581 52.4055 48.4411 54.2173 47.623 55.6355L47.4994 55.8502C46.6797 57.27 44.8647 57.7547 43.4465 56.9366L15.3993 40.7443C13.4899 39.6416 11.9009 38.0575 10.7885 36.1513L8.80103 32.7473L12.7309 22.8961L19.3531 14.4683L28.3503 19.663L34.1337 16.6151C35.4495 15.9223 37.0271 15.9434 38.3233 16.6639L41.1793 18.3147L42.9585 19.3426L43.9962 19.9411C44.4223 20.185 44.8273 20.4615 45.2111 20.7673L51.9509 26.1555C52.8031 26.8354 53.2341 27.912 53.091 28.9936C53.034 29.4148 52.8974 29.8003 52.7023 30.1386C51.8826 31.5584 50.0057 32.165 48.4574 31.2722L62.8135 39.5603C63.3128 39.8481 63.7048 40.2564 63.9634 40.728C64.479 41.6469 64.5115 42.8049 63.9455 43.784Z" fill="#FFCEBF"/>
<path d="M63.9456 43.7838C63.3731 44.7759 62.3322 45.3289 61.2636 45.3305C60.766 45.3305 60.2602 45.2085 59.795 44.9564C59.7706 44.9434 59.7462 44.932 59.7218 44.9174L58.3524 44.1237C58.3752 44.1367 58.3979 44.1514 58.4207 44.166L56.9065 43.291L56.8821 43.278L55.5355 42.4973L55.542 42.5038L40.8675 34.0975C40.2837 33.7608 40.0836 33.0143 40.4203 32.4304C40.7569 31.8482 41.5035 31.6481 42.0873 31.9848L59.8214 42.1423C60.6045 42.5938 61.6044 42.3472 62.0876 41.5833C62.5282 40.8869 62.4008 39.974 61.786 39.4252C61.0945 38.8078 60.2714 38.0924 59.9998 37.9353L62.8134 39.56C63.3127 39.8479 63.7047 40.2561 63.9633 40.7278C64.479 41.6467 64.5116 42.8047 63.9456 43.7838Z" fill="#FFB09E"/>
<path d="M59.4795 48.346C58.907 49.3365 57.8677 49.8911 56.7992 49.8911C56.2755 49.8911 55.7437 49.7577 55.2574 49.4764L52.4405 47.85L52.3803 47.8158L38.7104 39.9229C38.1266 39.5863 37.9282 38.8397 38.2648 38.2559C38.6015 37.6736 39.3464 37.4736 39.9302 37.8102L54.8703 46.4366C55.6493 46.8855 56.6447 46.6237 57.1001 45.8479C57.2513 45.5909 57.3245 45.3047 57.3245 45.02C57.3245 44.6069 57.17 44.1971 56.8691 43.8848L55.542 42.504L55.5355 42.4975L56.8821 43.2782L56.9065 43.2912L58.4207 44.1662C59.8422 45.0379 60.3203 46.892 59.4795 48.346Z" fill="#FFB09E"/>
<path d="M53.3544 51.9192L53.3301 51.9615C52.4827 53.4285 50.6075 53.931 49.1405 53.0853L46.574 51.6004C46.5838 51.6069 46.5935 51.6134 46.6017 51.6199L46.3398 51.4671L45.9966 51.2703L43.7295 49.9578C43.7457 49.9675 43.762 49.9773 43.7782 49.9887L36.8645 45.9959C36.2692 45.6527 36.074 44.8867 36.4367 44.2995C36.7864 43.7303 37.5492 43.5742 38.1282 43.9076L49.1031 50.2375C50.0773 50.7986 51.3182 50.2375 51.5394 49.1332C51.5426 49.1202 51.5443 49.1055 51.5475 49.0925C51.6532 48.5688 51.4971 48.0272 51.1295 47.6385C50.6254 47.1051 49.9049 46.3895 49.4202 46.1081L52.3802 47.8158L52.2371 47.7345C53.7009 48.5835 54.2002 50.4538 53.3544 51.9192Z" fill="#FFB09E"/>
<path d="M55.2573 49.4762L52.3802 47.8157L52.4404 47.8498L55.2573 49.4762Z" fill="#FFB09E"/>
<path d="M47.6231 55.6355L47.4995 55.8502C46.6798 57.27 44.8648 57.7547 43.4466 56.9366L40.6296 55.3102C42.0479 56.1283 43.8629 55.6436 44.6826 54.2238L44.8062 54.0091C45.6145 52.6072 45.1526 50.8214 43.7783 49.9887C43.7621 49.9773 43.7458 49.9675 43.7295 49.9578L45.9967 51.2703L46.3399 51.4671L46.6018 51.6199C47.9712 52.4527 48.4298 54.2352 47.6231 55.6355Z" fill="#FFB09E"/>
<path d="M42.9586 19.3424L32.0292 30.6052L30.9831 31.294C30.4559 31.6412 29.8562 31.8636 29.2299 31.9439C26.8111 32.2545 24.5777 30.6029 24.1663 28.1993C23.8826 26.542 24.5363 24.8634 25.866 23.8342L34.4431 17.3311C34.7777 17.0774 34.5479 16.5454 34.1339 16.6148C35.4497 15.922 37.0273 15.9431 38.3235 16.6636L41.1795 18.3144L42.9586 19.3424Z" fill="#FFB09E"/>
<path d="M60.6467 14.083L67.3777 22.8959L71.1995 32.3611L69.2121 35.7658C68.0988 37.6724 66.5105 39.2542 64.6 40.3592L63.9634 40.7267C63.9234 40.654 63.8796 40.5817 63.8318 40.5117C63.5796 40.1334 63.2356 39.8043 62.8129 39.5601L40.8434 26.8762L39.6659 26.1964L31.543 30.8861C29.9965 31.779 28.1182 31.1733 27.2985 29.7535C27.1033 29.4155 26.9664 29.0287 26.9096 28.6051C26.7668 27.525 27.1991 26.4491 28.0489 25.7708L34.7911 20.3814C35.1652 20.0828 35.5612 19.809 35.978 19.5683L41.6163 16.3131C42.9247 15.5577 44.5288 15.5255 45.8665 16.2292L51.6521 19.2761L60.6467 14.083Z" fill="#FFCEBF"/>
<path d="M45.8666 16.2296L51.6517 19.2758L49.7748 20.3606C49.1893 20.6973 48.4721 20.7119 47.8752 20.3964L43.0497 17.856C41.7144 17.1534 40.1173 17.1843 38.8113 17.9324L41.6168 16.3126C42.9244 15.5579 44.5297 15.5254 45.8666 16.2296Z" fill="#FFB09E"/>
<path d="M71.1993 32.3618L69.2118 35.7658C68.0994 37.672 66.5104 39.2544 64.5994 40.3588L63.9634 40.7263C63.9228 40.6548 63.8805 40.5816 63.8317 40.5117C64.8433 39.6188 65.7102 38.5665 66.3949 37.3922L67.5041 35.4926C68.0473 34.5623 68.0506 33.4108 67.5106 32.4789L57.8303 15.7092L60.6472 14.0828L67.3777 22.896L71.1993 32.3618Z" fill="#FFB09E"/>
<path d="M23.2312 42.5956L21.0933 46.2986C20.4972 47.331 19.1776 47.6846 18.1452 47.0885L16.5282 46.155C16.3943 46.0777 16.273 45.9888 16.1631 45.8897C15.4205 45.2243 15.2186 44.1069 15.7383 43.2068L17.8761 39.5038C18.3031 38.7643 18.9894 38.2686 19.7537 38.0638C20.0736 37.9781 20.4058 37.9427 20.7389 37.9641C21.2044 37.9906 21.6686 38.1233 22.0996 38.3722C23.5784 39.2259 24.0851 41.1166 23.2312 42.5956Z" fill="#FFCEBF"/>
<path d="M23.232 42.5952L21.0933 46.2985C20.498 47.3312 19.1774 47.6842 18.1446 47.0889L16.528 46.1554C16.3946 46.0773 16.2727 45.9895 16.1637 45.8903C17.1103 46.2009 18.1788 45.8154 18.6992 44.9161L20.8363 41.2128C21.4413 40.1654 21.3633 38.9082 20.7387 37.9648C21.2039 37.9909 21.669 38.1226 22.1 38.3714C23.5784 39.2253 24.0859 41.1168 23.232 42.5952Z" fill="#FFB09E"/>
<path d="M28.585 45.6866L26.4471 49.3895C25.851 50.422 24.5314 50.7755 23.4989 50.1795L21.8834 49.2467C21.7496 49.1695 21.6268 49.0797 21.5168 48.9807C20.775 48.3138 20.5747 47.1971 21.0935 46.2986L23.2314 42.5956C23.6583 41.8561 24.3447 41.3604 25.1089 41.1556C25.4288 41.0699 25.7611 41.0344 26.0933 41.0574C26.5596 41.0824 27.0238 41.2153 27.4548 41.4641C28.9322 42.3168 29.4388 44.2075 28.585 45.6866Z" fill="#FFCEBF"/>
<path d="M28.5845 45.6867L26.4475 49.39C25.8506 50.4212 24.5316 50.7757 23.4988 50.1788L21.8838 49.2469C21.7488 49.1688 21.6268 49.0794 21.5162 48.9802C22.466 49.2908 23.5346 48.9054 24.0534 48.0076L26.1905 44.3043C26.7955 43.2553 26.7174 42.0013 26.0929 41.0564C26.5597 41.0824 27.0232 41.2142 27.4542 41.463C28.9326 42.3169 29.4384 44.2067 28.5845 45.6867Z" fill="#FFB09E"/>
<path d="M33.518 49.5092L32.0615 52.0319C31.4931 53.0165 30.2356 53.3533 29.2511 52.7849L27.4595 51.7505C27.3567 51.6911 27.2601 51.6241 27.1736 51.5498C26.4163 50.9228 26.1974 49.8219 26.7065 48.9401L28.1629 46.4174C28.5899 45.6779 29.2762 45.1822 30.0404 44.9774C30.3603 44.8917 30.6926 44.8562 31.0257 44.8777C31.4912 44.9042 31.9553 45.0369 32.3863 45.2858C33.8652 46.1396 34.3718 48.0303 33.518 49.5092Z" fill="#FFCEBF"/>
<path d="M33.5174 49.5089L32.0618 52.0315C31.4926 53.0171 30.2353 53.3537 29.2514 52.7845L27.4591 51.7501C27.3566 51.6915 27.2607 51.6249 27.1729 51.55C28.0966 51.8932 29.1587 51.5305 29.6677 50.649L31.1234 48.1265C31.7284 47.0791 31.6503 45.8219 31.0258 44.877C31.4909 44.9046 31.9561 45.0363 32.3871 45.2852C33.8655 46.139 34.3713 48.0305 33.5174 49.5089Z" fill="#FFB09E"/>
<path d="M37.9448 54.2058L37.6276 54.755C37.1243 55.6269 36.0103 55.9265 35.1386 55.4231L32.9413 54.1546C32.909 54.1359 32.876 54.1149 32.8444 54.0949C32.0483 53.5676 31.7894 52.5036 32.274 51.6641L32.5912 51.1148C33.0181 50.3753 33.7044 49.8796 34.4687 49.6747C34.7886 49.5889 35.1209 49.5535 35.4539 49.575C35.9194 49.6015 36.3836 49.7342 36.8146 49.983C38.292 50.8362 38.7986 52.7269 37.9448 54.2058Z" fill="#FFCEBF"/>
<path d="M37.9444 54.206L37.6272 54.7557C37.1247 55.6275 36.0106 55.9267 35.1388 55.4242L32.9416 54.1556C32.9091 54.1361 32.8765 54.1149 32.844 54.0954C33.6995 54.5215 34.7485 54.2125 35.2332 53.3733L35.5503 52.8236C36.1553 51.7762 36.0773 50.5206 35.4544 49.5757C35.9195 49.6017 36.383 49.7351 36.814 49.9839C38.2924 50.8361 38.7982 52.7276 37.9444 54.206Z" fill="#FFB09E"/>
<path d="M35.9148 11.472C35.6027 11.472 35.2904 11.3529 35.0522 11.1148L30.3329 6.3955C29.8565 5.91897 29.8565 5.14676 30.3329 4.67039C30.8094 4.19418 31.5816 4.19418 32.058 4.67039L36.7773 9.38969C37.2537 9.86623 37.2537 10.6384 36.7773 11.1148C36.539 11.3529 36.2269 11.472 35.9148 11.472Z" fill="#AE8FF7"/>
<path d="M40.0002 9.77984C39.3264 9.77984 38.7804 9.23386 38.7804 8.56004V1.88581C38.7804 1.212 39.3264 0.666016 40.0002 0.666016C40.674 0.666016 41.22 1.212 41.22 1.88581V8.55988C41.22 9.23369 40.6738 9.77984 40.0002 9.77984Z" fill="#AE8FF7"/>
<path d="M44.0855 11.472C43.7734 11.472 43.4611 11.3529 43.2229 11.1148C42.7465 10.6383 42.7465 9.86606 43.2229 9.38969L47.9422 4.67039C48.4187 4.19418 49.1909 4.19418 49.6673 4.67039C50.1437 5.14692 50.1437 5.91913 49.6673 6.3955L44.948 11.1148C44.7099 11.3529 44.3976 11.472 44.0855 11.472Z" fill="#AE8FF7"/>
<path d="M56.7601 36.0652L44.4988 28.9869C42.9039 28.0662 40.9456 28.0394 39.3262 28.916L33.1758 32.7197C32.6033 33.0287 31.7917 33.2125 30.9102 33.2873C28.6593 33.476 26.7694 31.978 25.1788 30.3728L27.5924 30.1744C28.5113 31.2836 30.1588 31.6853 31.5429 30.8867L39.6651 26.1962C41.6054 25.1879 43.9588 25.4383 45.6405 26.8354L56.7601 36.0652Z" fill="#FFB09E"/>
<path d="M20.6807 12.1691L6.64837 36.4739C6.33464 37.0173 5.63984 37.2035 5.0963 36.8898L0.56826 34.2755C0.0248824 33.9618 -0.16134 33.267 0.152392 32.7234L14.1848 8.4186C14.4985 7.87523 15.1933 7.689 15.7368 8.00273L20.265 10.617C20.8084 10.9307 20.9946 11.6257 20.6807 12.1691Z" fill="#936FE9"/>
<path d="M20.6803 12.1684L6.64775 36.4733C6.33549 37.0181 5.63939 37.2035 5.09617 36.8896L1.84827 35.0144C2.39148 35.3283 3.08595 35.1429 3.39985 34.598L17.4324 10.2932C17.743 9.75487 17.5641 9.06853 17.0323 8.74976L20.2655 10.6169C20.8088 10.9307 20.9942 11.6252 20.6803 12.1684Z" fill="#AE8FF7"/>
<path d="M65.8153 8.03335L79.8476 32.3382C80.1614 32.8815 79.9751 33.5765 79.4318 33.8902L74.9036 36.5045C74.3602 36.8182 73.6652 36.632 73.3515 36.0886L59.3191 11.7838C59.0054 11.2404 59.1916 10.5455 59.735 10.2317L64.2632 7.61748C64.8068 7.30375 65.5016 7.48997 65.8153 8.03335Z" fill="#AE8FF7"/>
<path d="M79.4321 33.8906L76.1923 35.7609C76.729 35.4454 76.9111 34.7542 76.6005 34.2142L62.568 9.90777C62.2541 9.36455 61.558 9.17914 61.0148 9.49304L64.2627 7.61781C64.8059 7.30391 65.502 7.48932 65.8159 8.03254L79.8484 32.339C80.1607 32.8822 79.9753 33.5767 79.4321 33.8906Z" fill="#936FE9"/>
</svg>
