<svg width="324" height="232" viewBox="0 0 324 232" fill="none" xmlns="http://www.w3.org/2000/svg">
<mask id="mask0_73_6642" style="mask-type:alpha" maskUnits="userSpaceOnUse" x="0" y="0" width="324" height="232">
<rect x="0.333374" width="323" height="232" rx="8" fill="#D9D9D9"/>
</mask>
<g mask="url(#mask0_73_6642)">
<rect x="0.333374" width="323" height="232" rx="8" fill="#ECE4FF"/>
<path d="M358 231C361.271 224.91 364.308 216.697 366.341 210.093C375.033 181.604 375.758 150.594 362.229 123.877C352.579 104.814 333.488 85.9372 314.796 77.2806C281.148 61.7407 253.483 78.7973 237.384 77.654C219.695 76.394 212.101 42.7008 173.103 23.4975C144.48 9.45089 100.248 6.18423 69.4277 14.5609C37.4862 23.2408 7.15695 45.1274 19.2139 87.5939C22.1346 97.8372 26.691 107.964 31.7381 117.297C60.6187 170.707 -7.07303 155.19 -14.7138 207.597C-15.6718 214.223 -15.5783 221.923 -14.0128 230.977H358V231Z" fill="white" fill-opacity="0.5"/>
<path d="M53.762 230.662H37.51V264.15H53.762V230.662Z" fill="#E4E2F6"/>
<path d="M276.848 136.805V122.156H272.405V97.0185H248.589V122.156H226.32V87.6834L201.745 78.3765V107.788H196.15V68.6196L171.575 76.7738V135.568H140.505V170.321H128.892V179.066H102.237V163.995H86.9408V123.055H68.0176V198.636H49.1226V264.403H68.0176H84.2415H86.9408H102.237H110.897H124.759H128.892H140.505H151.415H171.575H177.761H190.048H196.15H201.745H214.623H223.368H226.32H248.589H271.983H272.405H276.848H295.799V136.805H276.848Z" fill="#E4E2F6"/>
<path d="M156.848 106.805V92.1557H152.405V67.0185H128.589V92.1557H106.32V57.6834L81.7453 48.3765V77.7876H76.1499V38.6196L51.5751 46.7738V105.568H20.505V140.321H8.89241V149.066H-17.7631V133.995H-33.0592V93.0555H-51.9824V168.636H-70.8774V234.403H-51.9824H-35.7585H-33.0592H-17.7631H-9.1029H4.75911H8.89241H20.505H31.4147H51.5751H57.7609H70.0484H76.1499H81.7453H94.6232H103.368H106.32H128.589H151.983H152.405H156.848H175.799V106.805H156.848Z" fill="#E4E2F6"/>
<path d="M191.82 79.7539H175.259V85.8273H191.82V79.7539Z" fill="#E4E2F6"/>
<path d="M191.82 91.1416H175.259V97.215H191.82V91.1416Z" fill="#E4E2F6"/>
<path d="M191.82 101.405H175.259V107.478H191.82V101.405Z" fill="#E4E2F6"/>
<path d="M87.2783 150.639H68.0177V160.002H87.2783V150.639Z" fill="#E4E2F6"/>
<path d="M87.1096 179.375H68.0177V188.738H87.1096V179.375Z" fill="#E4E2F6"/>
<path d="M87.1096 193.546H68.0177V202.91H87.1096V193.546Z" fill="#E4E2F6"/>
<path d="M86.8003 208.337H67.7084V217.7H86.8003V208.337Z" fill="#E4E2F6"/>
<path d="M86.8003 222.845H67.7084V232.208H86.8003V222.845Z" fill="#E4E2F6"/>
<path d="M222.412 101.405H204.979V107.478H222.412V101.405Z" fill="#E4E2F6"/>
<path d="M222.412 91.2544H204.979V97.3278H222.412V91.2544Z" fill="#E4E2F6"/>
<path d="M222.412 113.214H174.837V119.287H222.412V113.214Z" fill="#E4E2F6"/>
<path d="M222.412 122.324H174.837V128.398H222.412V122.324Z" fill="#E4E2F6"/>
<path d="M222.412 131.407H174.837V137.255H222.412V131.407Z" fill="#E4E2F6"/>
<path d="M87.1096 165.232H68.0177V174.595H87.1096V165.232Z" fill="#E4E2F6"/>
<path d="M149.446 141.275H145.285V147.152H149.446V141.275Z" fill="#E4E2F6"/>
<path d="M157.235 141.275H153.074V147.152H157.235V141.275Z" fill="#E4E2F6"/>
<path d="M164.827 141.275H160.665V147.152H164.827V141.275Z" fill="#E4E2F6"/>
<path d="M172.053 141.275H167.892V147.152H172.053V141.275Z" fill="#E4E2F6"/>
<path d="M179.42 141.275H175.259V147.152H179.42V141.275Z" fill="#E4E2F6"/>
<path d="M186.843 141.275H182.682V147.152H186.843V141.275Z" fill="#E4E2F6"/>
<path d="M194.632 141.275H190.47V147.152H194.632V141.275Z" fill="#E4E2F6"/>
<path d="M202.252 141.275H198.09V147.152H202.252V141.275Z" fill="#E4E2F6"/>
<path d="M209.478 141.275H205.316V147.152H209.478V141.275Z" fill="#E4E2F6"/>
<path d="M216.816 141.275H212.655V147.152H216.816V141.275Z" fill="#E4E2F6"/>
<path d="M224.493 141.275H220.331V147.152H224.493V141.275Z" fill="#E4E2F6"/>
<path d="M232.281 141.275H228.12V147.152H232.281V141.275Z" fill="#E4E2F6"/>
<path d="M239.901 141.275H235.74V147.152H239.901V141.275Z" fill="#E4E2F6"/>
<path d="M247.127 141.275H242.966V147.152H247.127V141.275Z" fill="#E4E2F6"/>
<path d="M254.466 141.275H250.305V147.152H254.466V141.275Z" fill="#E4E2F6"/>
<path d="M269.706 141.275H265.544V147.152H269.706V141.275Z" fill="#E4E2F6"/>
<path d="M277.326 141.275H273.164V147.152H277.326V141.275Z" fill="#E4E2F6"/>
<path d="M284.524 141.275H280.362V147.152H284.524V141.275Z" fill="#E4E2F6"/>
<path d="M291.891 141.275H287.729V147.152H291.891V141.275Z" fill="#E4E2F6"/>
<path d="M149.446 151.622H145.285V157.499H149.446V151.622Z" fill="#E4E2F6"/>
<path d="M157.235 151.622H153.074V157.499H157.235V151.622Z" fill="#E4E2F6"/>
<path d="M164.827 151.622H160.665V157.499H164.827V151.622Z" fill="#E4E2F6"/>
<path d="M172.053 151.622H167.892V157.499H172.053V151.622Z" fill="#E4E2F6"/>
<path d="M179.42 151.622H175.259V157.499H179.42V151.622Z" fill="#E4E2F6"/>
<path d="M186.843 151.622H182.682V157.499H186.843V151.622Z" fill="#E4E2F6"/>
<path d="M194.632 151.622H190.47V157.499H194.632V151.622Z" fill="#E4E2F6"/>
<path d="M202.252 151.622H198.09V157.499H202.252V151.622Z" fill="#E4E2F6"/>
<path d="M209.478 151.622H205.316V157.499H209.478V151.622Z" fill="#E4E2F6"/>
<path d="M216.816 151.622H212.655V157.499H216.816V151.622Z" fill="#E4E2F6"/>
<path d="M224.493 151.622H220.331V157.499H224.493V151.622Z" fill="#E4E2F6"/>
<path d="M232.281 151.622H228.12V157.499H232.281V151.622Z" fill="#E4E2F6"/>
<path d="M239.901 151.622H235.74V157.499H239.901V151.622Z" fill="#E4E2F6"/>
<path d="M247.127 151.622H242.966V157.499H247.127V151.622Z" fill="#E4E2F6"/>
<path d="M254.466 151.622H250.305V157.499H254.466V151.622Z" fill="#E4E2F6"/>
<path d="M261.917 151.622H257.756V157.499H261.917V151.622Z" fill="#E4E2F6"/>
<path d="M269.706 151.622H265.544V157.499H269.706V151.622Z" fill="#E4E2F6"/>
<path d="M277.326 151.622H273.164V157.499H277.326V151.622Z" fill="#E4E2F6"/>
<path d="M284.524 151.622H280.362V157.499H284.524V151.622Z" fill="#E4E2F6"/>
<path d="M291.891 151.622H287.729V157.499H291.891V151.622Z" fill="#E4E2F6"/>
<path d="M149.446 161.829H145.285V167.705H149.446V161.829Z" fill="#E4E2F6"/>
<path d="M157.235 161.829H153.074V167.705H157.235V161.829Z" fill="#E4E2F6"/>
<path d="M164.827 161.829H160.665V167.705H164.827V161.829Z" fill="#E4E2F6"/>
<path d="M172.053 161.829H167.892V167.705H172.053V161.829Z" fill="#E4E2F6"/>
<path d="M179.42 161.829H175.259V167.705H179.42V161.829Z" fill="#E4E2F6"/>
<path d="M186.843 161.829H182.682V167.705H186.843V161.829Z" fill="#E4E2F6"/>
<path d="M194.632 161.829H190.47V167.705H194.632V161.829Z" fill="#E4E2F6"/>
<path d="M202.252 161.829H198.09V167.705H202.252V161.829Z" fill="#E4E2F6"/>
<path d="M209.478 161.829H205.316V167.705H209.478V161.829Z" fill="#E4E2F6"/>
<path d="M216.816 161.829H212.655V167.705H216.816V161.829Z" fill="#E4E2F6"/>
<path d="M224.493 161.829H220.331V167.705H224.493V161.829Z" fill="#E4E2F6"/>
<path d="M232.281 161.829H228.12V167.705H232.281V161.829Z" fill="#E4E2F6"/>
<path d="M239.901 161.829H235.74V167.705H239.901V161.829Z" fill="#E4E2F6"/>
<path d="M247.127 161.829H242.966V167.705H247.127V161.829Z" fill="#E4E2F6"/>
<path d="M254.466 161.829H250.305V167.705H254.466V161.829Z" fill="#E4E2F6"/>
<path d="M261.917 161.829H257.756V167.705H261.917V161.829Z" fill="#E4E2F6"/>
<path d="M269.706 161.829H265.544V167.705H269.706V161.829Z" fill="#E4E2F6"/>
<path d="M277.326 161.829H273.164V167.705H277.326V161.829Z" fill="#E4E2F6"/>
<path d="M284.524 161.829H280.362V167.705H284.524V161.829Z" fill="#E4E2F6"/>
<path d="M291.891 161.829H287.729V167.705H291.891V161.829Z" fill="#E4E2F6"/>
<path d="M149.446 172.654H145.285V178.531H149.446V172.654Z" fill="#E4E2F6"/>
<path d="M157.235 172.654H153.074V178.531H157.235V172.654Z" fill="#E4E2F6"/>
<path d="M164.827 172.654H160.665V178.531H164.827V172.654Z" fill="#E4E2F6"/>
<path d="M172.053 172.654H167.892V178.531H172.053V172.654Z" fill="#E4E2F6"/>
<path d="M179.42 172.654H175.259V178.531H179.42V172.654Z" fill="#E4E2F6"/>
<path d="M186.843 172.654H182.682V178.531H186.843V172.654Z" fill="#E4E2F6"/>
<path d="M194.632 172.654H190.47V178.531H194.632V172.654Z" fill="#E4E2F6"/>
<path d="M202.252 172.654H198.09V178.531H202.252V172.654Z" fill="#E4E2F6"/>
<path d="M209.478 172.654H205.316V178.531H209.478V172.654Z" fill="#E4E2F6"/>
<path d="M216.816 172.654H212.655V178.531H216.816V172.654Z" fill="#E4E2F6"/>
<path d="M224.493 172.654H220.331V178.531H224.493V172.654Z" fill="#E4E2F6"/>
<path d="M232.281 172.654H228.12V178.531H232.281V172.654Z" fill="#E4E2F6"/>
<path d="M239.901 172.654H235.74V178.531H239.901V172.654Z" fill="#E4E2F6"/>
<path d="M247.127 172.654H242.966V178.531H247.127V172.654Z" fill="#E4E2F6"/>
<path d="M254.466 172.654H250.305V178.531H254.466V172.654Z" fill="#E4E2F6"/>
<path d="M261.917 172.654H257.756V178.531H261.917V172.654Z" fill="#E4E2F6"/>
<path d="M269.706 172.654H265.544V178.531H269.706V172.654Z" fill="#E4E2F6"/>
<path d="M277.326 172.654H273.164V178.531H277.326V172.654Z" fill="#E4E2F6"/>
<path d="M284.524 172.654H280.362V178.531H284.524V172.654Z" fill="#E4E2F6"/>
<path d="M291.891 172.654H287.729V178.531H291.891V172.654Z" fill="#E4E2F6"/>
<path d="M149.446 183.03H145.285V188.907H149.446V183.03Z" fill="#E4E2F6"/>
<path d="M157.235 183.03H153.074V188.907H157.235V183.03Z" fill="#E4E2F6"/>
<path d="M164.827 183.03H160.665V188.907H164.827V183.03Z" fill="#E4E2F6"/>
<path d="M172.053 183.03H167.892V188.907H172.053V183.03Z" fill="#E4E2F6"/>
<path d="M179.42 183.03H175.259V188.907H179.42V183.03Z" fill="#E4E2F6"/>
<path d="M186.843 183.03H182.682V188.907H186.843V183.03Z" fill="#E4E2F6"/>
<path d="M194.632 183.03H190.47V188.907H194.632V183.03Z" fill="#E4E2F6"/>
<path d="M202.252 183.03H198.09V188.907H202.252V183.03Z" fill="#E4E2F6"/>
<path d="M209.478 183.03H205.316V188.907H209.478V183.03Z" fill="#E4E2F6"/>
<path d="M216.816 183.03H212.655V188.907H216.816V183.03Z" fill="#E4E2F6"/>
<path d="M224.493 183.03H220.331V188.907H224.493V183.03Z" fill="#E4E2F6"/>
<path d="M232.281 183.03H228.12V188.907H232.281V183.03Z" fill="#E4E2F6"/>
<path d="M239.901 183.03H235.74V188.907H239.901V183.03Z" fill="#E4E2F6"/>
<path d="M247.127 183.03H242.966V188.907H247.127V183.03Z" fill="#E4E2F6"/>
<path d="M254.466 183.03H250.305V188.907H254.466V183.03Z" fill="#E4E2F6"/>
<path d="M261.917 183.03H257.756V188.907H261.917V183.03Z" fill="#E4E2F6"/>
<path d="M269.706 183.03H265.544V188.907H269.706V183.03Z" fill="#E4E2F6"/>
<path d="M284.524 183.03H280.362V188.907H284.524V183.03Z" fill="#E4E2F6"/>
<path d="M277.326 183.03H273.164V188.907H277.326V183.03Z" fill="#E4E2F6"/>
<path d="M291.891 183.03H287.729V188.907H291.891V183.03Z" fill="#E4E2F6"/>
<path d="M149.446 193.208H145.285V199.085H149.446V193.208Z" fill="#E4E2F6"/>
<path d="M157.235 193.208H153.074V199.085H157.235V193.208Z" fill="#E4E2F6"/>
<path d="M164.827 193.208H160.665V199.085H164.827V193.208Z" fill="#E4E2F6"/>
<path d="M172.053 193.208H167.892V199.085H172.053V193.208Z" fill="#E4E2F6"/>
<path d="M179.42 193.208H175.259V199.085H179.42V193.208Z" fill="#E4E2F6"/>
<path d="M186.843 193.208H182.682V199.085H186.843V193.208Z" fill="#E4E2F6"/>
<path d="M194.632 193.208H190.47V199.085H194.632V193.208Z" fill="#E4E2F6"/>
<path d="M202.252 193.208H198.09V199.085H202.252V193.208Z" fill="#E4E2F6"/>
<path d="M209.478 193.208H205.316V199.085H209.478V193.208Z" fill="#E4E2F6"/>
<path d="M216.816 193.208H212.655V199.085H216.816V193.208Z" fill="#E4E2F6"/>
<path d="M224.493 193.208H220.331V199.085H224.493V193.208Z" fill="#E4E2F6"/>
<path d="M232.281 193.208H228.12V199.085H232.281V193.208Z" fill="#E4E2F6"/>
<path d="M239.901 193.208H235.74V199.085H239.901V193.208Z" fill="#E4E2F6"/>
<path d="M247.127 193.208H242.966V199.085H247.127V193.208Z" fill="#E4E2F6"/>
<path d="M254.466 193.208H250.305V199.085H254.466V193.208Z" fill="#E4E2F6"/>
<path d="M261.917 193.208H257.756V199.085H261.917V193.208Z" fill="#E4E2F6"/>
<path d="M269.706 193.208H265.544V199.085H269.706V193.208Z" fill="#E4E2F6"/>
<path d="M284.524 193.208H280.362V199.085H284.524V193.208Z" fill="#E4E2F6"/>
<path d="M291.891 193.208H287.729V199.085H291.891V193.208Z" fill="#E4E2F6"/>
<path d="M326.813 219.725H316.859V263.251H326.813V219.725Z" fill="#E4E2F6"/>
<path d="M109.013 163.966V151.763H109.519V163.966H116.38V179.038H102.237V163.966H109.013Z" fill="#E4E2F6"/>
<path d="M68.0177 132.446V123.055H72.0104V118.978H72.5165V123.055H87.0253H87.2783H90.0338V118.978H90.54V123.055H94.0547V163.994H87.0253V146.365H68.0177V137.001H87.0253V132.446H68.0177Z" fill="#E4E2F6"/>
<path d="M273.67 190.735V243.568H326.813V181.625L273.67 190.735Z" fill="#E4E2F6"/>
<path d="M339.944 219.555H273.67V264.121H339.944V219.555Z" fill="#E4E2F6"/>
<path d="M339.944 193.181H273.67V207.662H339.944V193.181Z" fill="#E4E2F6"/>
<path d="M281.6 231.646H278.197V236.454H281.6V231.646Z" fill="#E4E2F6"/>
<path d="M287.954 231.646H284.552V236.454H287.954V231.646Z" fill="#E4E2F6"/>
<path d="M294.196 231.646H290.794V236.454H294.196V231.646Z" fill="#E4E2F6"/>
<path d="M300.073 231.646H296.671V236.454H300.073V231.646Z" fill="#E4E2F6"/>
<path d="M306.09 231.646H302.688V236.454H306.09V231.646Z" fill="#E4E2F6"/>
<path d="M312.192 231.646H308.789V236.454H312.192V231.646Z" fill="#E4E2F6"/>
<path d="M318.546 231.646H315.144V236.454H318.546V231.646Z" fill="#E4E2F6"/>
<path d="M324.76 231.646H321.358V236.454H324.76V231.646Z" fill="#E4E2F6"/>
<path d="M281.6 214.578H278.197V219.386H281.6V214.578Z" fill="#E4E2F6"/>
<path d="M287.954 214.578H284.552V219.387H287.954V214.578Z" fill="#E4E2F6"/>
<path d="M294.196 214.578H290.794V219.387H294.196V214.578Z" fill="#E4E2F6"/>
<path d="M300.073 214.578H296.671V219.387H300.073V214.578Z" fill="#E4E2F6"/>
<path d="M306.09 214.578H302.688V219.387H306.09V214.578Z" fill="#E4E2F6"/>
<path d="M312.192 214.578H308.789V219.387H312.192V214.578Z" fill="#E4E2F6"/>
<path d="M318.546 214.578H315.144V219.387H318.546V214.578Z" fill="#E4E2F6"/>
<path d="M324.76 214.578H321.358V219.387H324.76V214.578Z" fill="#E4E2F6"/>
<path d="M281.6 223.042H278.197V227.85H281.6V223.042Z" fill="#E4E2F6"/>
<path d="M287.954 223.042H284.552V227.85H287.954V223.042Z" fill="#E4E2F6"/>
<path d="M294.196 223.042H290.794V227.85H294.196V223.042Z" fill="#E4E2F6"/>
<path d="M300.073 223.042H296.671V227.85H300.073V223.042Z" fill="#E4E2F6"/>
<path d="M306.09 223.042H302.688V227.85H306.09V223.042Z" fill="#E4E2F6"/>
<path d="M312.192 223.042H308.789V227.85H312.192V223.042Z" fill="#E4E2F6"/>
<path d="M318.546 223.042H315.144V227.85H318.546V223.042Z" fill="#E4E2F6"/>
<path d="M324.76 223.042H321.358V227.85H324.76V223.042Z" fill="#E4E2F6"/>
<path d="M323.242 171.671H322.258V184.239H323.242V171.671Z" fill="#E4E2F6"/>
<path d="M281.599 197.258H278.731V202.206H281.599V197.258Z" fill="#E4E2F6"/>
<path d="M309.998 197.258H307.13V202.206H309.998V197.258Z" fill="#E4E2F6"/>
<path d="M99.2235 264.139H194.599V208.353H99.2235V264.139Z" fill="#E4E2F6"/>
<path d="M132.07 210.895H112.191V193.547L132.07 201.167V210.895Z" fill="#E4E2F6"/>
<path d="M230.172 264.122H275.723V214.579L230.172 230.353V264.122Z" fill="#E4E2F6"/>
<path d="M108.368 208.332H112.192V193.514H108.368V208.332Z" fill="#E4E2F6"/>
<path d="M269.014 121.461H271.657V99.0798H269.014V121.461Z" fill="#E4E2F6"/>
<path d="M263.745 121.461H266.389V99.0798H263.745V121.461Z" fill="#E4E2F6"/>
<path d="M258.591 121.461H261.234V99.0798H258.591V121.461Z" fill="#E4E2F6"/>
<path d="M253.215 121.461H255.858V99.0798H253.215V121.461Z" fill="#E4E2F6"/>
<path d="M179.673 144.228H126.952L113.034 111.415H165.755L179.673 144.228Z" fill="#6A44C5"/>
<path d="M180.601 144.228H127.88L113.962 111.415H166.683L180.601 144.228Z" fill="#6A44C5"/>
<path d="M178.661 142.963H129.68L116.746 112.484H165.727L178.661 142.963Z" fill="white"/>
<path d="M197.5 145.269H127.374L126.952 144.228H197.5V145.269Z" fill="#6A44C5"/>
<path d="M336.148 145.297H38.3817C35.6543 145.297 33.433 147.519 33.433 150.246V260.945C33.433 263.673 35.6543 265.894 38.3817 265.894H336.148C338.875 265.894 341.097 263.673 341.097 260.945V150.246C341.097 147.519 338.875 145.297 336.148 145.297Z" fill="#C0A6FF" fill-opacity="0.3"/>
<path d="M318.068 157.416H53.5371C51.0908 157.416 49.0945 159.412 49.0945 161.858V261.451C49.0945 263.897 51.0908 265.894 53.5371 265.894H318.068C320.514 265.894 322.511 263.897 322.511 261.451V161.858C322.511 159.412 320.514 157.416 318.068 157.416Z" fill="#D9C9FF"/>
<path d="M221.597 79.0796C221.793 78.5172 221.906 77.8986 221.906 77.2238C222.159 69.2946 223.958 64.0366 215.832 63.3337C207.735 62.6307 206.076 65.6112 205.345 68.2262C204.614 70.8411 205.654 84.197 208.944 84.5625C208.944 84.5625 210.012 84.6188 211.502 84.4782C211.587 85.3498 211.699 86.8401 211.84 88.5271C212.093 91.7044 212.402 95.416 212.515 96.2595L221.484 95.8096L226.208 89.9049C226.236 89.933 222.918 85.9403 221.597 79.0796Z" fill="#E3A382"/>
<path d="M239.029 181.147C237.258 184.127 235.234 186.939 233.125 189.582C226.63 197.764 219.572 204.513 218.335 210.895C218.082 212.161 217.688 213.538 217.182 214.972C216.676 216.434 216.029 217.981 215.298 219.556C212.543 225.545 208.437 232.237 204.332 238.338C197.218 248.854 190.555 257.655 190.555 257.655L178.295 257.121C178.773 255.884 184.116 241.347 191.286 223.605C194.182 216.406 197.275 208.73 200.255 201.335C200.649 200.351 201.042 199.367 201.436 198.383C202.336 196.105 203.236 193.884 204.107 191.719C210.827 175.045 216.17 161.746 216.17 161.746C216.17 161.746 242.994 151.595 245.778 158.175C248.083 163.629 246.228 168.944 239.029 181.147Z" fill="#936FE9"/>
<path d="M218.56 226.557C218.56 226.557 227.08 232.04 226.264 233.811C226.152 234.036 221.456 242.471 221.456 242.471L215.383 253.212C215.383 253.212 212.824 251.694 214.033 248.235C215.242 244.777 215.973 238.282 212.88 234.036C209.59 229.621 218.56 226.557 218.56 226.557Z" fill="#131F2D"/>
<path d="M210.518 87.7397C210.715 87.6553 222.637 84.8154 223.874 85.2934C225.139 85.7714 225.758 88.2739 225.758 88.2739L206.329 91.6199C206.329 91.648 207.988 88.6394 210.518 87.7397Z" fill="#5F39B8"/>
<path d="M206.554 67.5512C206.554 67.5512 209.703 76.324 211.446 75.4242C213.189 74.5525 214.792 73.8215 215.242 76.6051C215.692 79.3888 213.92 83.1847 219.769 82.1443C225.617 81.1321 229.947 64.2333 227.642 61.8433C221.034 54.9826 197.443 59.4533 206.554 67.5512Z" fill="#131F2D"/>
<path d="M206.554 157.247C206.554 157.247 173.347 177.913 169.579 192.028C165.839 206.115 214.37 236.173 214.37 236.173C214.37 236.173 219.685 231.477 220.641 228.019C220.641 228.019 198.681 201.729 193.929 195.824C191.004 192.197 237.174 183.284 242.797 174.511C248.449 165.738 246.424 158.371 246.424 158.371L206.554 157.247Z" fill="#AE8FF7"/>
<path d="M163.309 141.051C163.309 141.051 159.288 137.255 157.348 137.649C155.436 138.042 151.443 140.629 150.796 141.36C150.149 142.091 149.587 143.3 151.19 143.582C152.793 143.863 152.877 143.919 152.877 143.919C152.877 143.919 156.167 142.822 156.785 143.019C157.404 143.216 159.541 145.353 161.284 144.369C163.056 143.413 163.309 141.051 163.309 141.051Z" fill="#E3A382"/>
<path d="M246.424 158.4C243.219 162.195 215.945 161.211 207.959 158.006C207.369 157.753 206.891 157.5 206.554 157.247C201.858 153.479 212.458 150.189 200.593 121.537C200.593 121.509 200.593 121.509 200.564 121.509C193.113 100.308 202.926 94.1506 206.357 91.0015C206.357 91.0015 223.002 85.9403 232.084 88.7521C243.922 92.4073 249.883 154.322 246.424 158.4Z" fill="#6A44C5"/>
<path d="M217.744 144.341C217.21 148.249 214.061 157.865 207.959 158.006C207.369 157.753 206.891 157.5 206.554 157.247C201.858 153.479 212.458 150.189 200.593 121.537C200.593 121.509 200.593 121.509 200.564 121.509C202.533 120.159 205.766 118.613 207.847 120.975C211.052 124.574 218.307 140.292 217.744 144.341Z" fill="#5F39B8"/>
<path d="M206.329 91.6477C206.329 91.6477 201.38 94.2908 197.837 102.923C194.182 111.836 189.346 131.828 188.024 132.7C186.702 133.571 166.683 136.72 160.75 139.026C160.75 139.026 158.416 143.216 160.609 144.959C162.831 146.702 189.599 145.746 191.229 145.324C204.754 141.81 211.868 115.154 213.471 111.049C215.101 106.944 206.329 91.6477 206.329 91.6477Z" fill="#6A44C5"/>
<path d="M240.295 256.053V241.938H254.719C255.281 241.938 255.731 241.488 255.731 240.925V237.073C255.731 236.511 255.281 236.061 254.719 236.061H240.295V190.538C240.295 189.048 239.086 187.811 237.567 187.811H234.643C233.153 187.811 231.916 189.02 231.916 190.538V236.061H217.491C216.929 236.061 216.479 236.511 216.479 237.073V240.925C216.479 241.488 216.929 241.938 217.491 241.938H231.916V256.053C221.259 256.868 212.149 261.114 209.759 266.063H261.833C259.471 261.114 250.923 256.868 240.295 256.053Z" fill="#6A44C5"/>
<path d="M270.577 183.874H201.661C200.283 183.874 199.159 184.999 199.159 186.377V200.154C199.159 201.532 200.283 202.657 201.661 202.657H270.577C271.955 202.657 273.08 201.532 273.08 200.154V186.377C273.08 184.999 271.955 183.874 270.577 183.874Z" fill="#6A44C5"/>
<path d="M92.48 115.24C92.48 115.24 87.3064 119.092 86.2941 118.839C85.2819 118.614 90.0619 114.677 90.0619 114.677C88.2624 113.806 82.667 114.368 82.667 114.368C82.667 114.368 81.3735 119.12 80.4738 118.642C79.5459 118.164 81.8234 114.649 81.8234 114.649C79.8271 114.537 77.3527 116.027 77.3527 116.027C73.9786 118.698 77.5776 122.86 77.5776 122.86C77.5776 122.86 76.8747 124.94 74.7659 126.824C74.7659 126.824 71.7292 129.074 71.5323 133.095L72.0947 133.151C72.0947 133.151 72.9664 129.411 74.5691 127.64C74.6253 127.583 74.7096 127.471 74.8221 127.359C75.0752 127.105 75.272 126.937 75.3845 126.796C76.1718 126.037 77.2684 125.081 77.8026 124.969C77.8026 124.969 77.7745 124.884 77.7745 124.715C77.7745 124.8 77.8026 124.884 77.8026 124.969C77.9713 127.077 82.0765 128.933 84.6071 129.299C87.1377 129.692 86.3504 128.652 85.4787 127.105C84.6071 125.559 81.8515 124.884 81.2329 124.181C80.6144 123.478 81.9078 123.478 83.4261 124.153C84.9445 124.856 85.1694 126.712 87.5875 127.865C90.0338 129.046 93.6891 124.997 93.6891 124.997C91.749 124.884 88.9653 122.775 89.0778 122.129C89.1903 121.482 93.8015 123.253 94.5888 123.338C95.3761 123.422 97.1757 122.438 97.4569 119.261C97.6818 116.111 92.48 115.24 92.48 115.24Z" fill="#9A70FF"/>
<path d="M65.0371 117.602C65.0371 117.602 70.7449 114.396 68.0738 110.066C68.0738 110.066 65.9368 107.395 63.6593 106.72C63.6593 106.72 64.8683 113.187 63.6593 113.328C62.4502 113.469 62.8158 106.017 62.8158 106.017C62.8158 106.017 56.7986 103.121 54.4367 103.346C54.4367 103.346 58.1763 109.673 56.9392 109.504C55.7301 109.363 51.5406 102.953 51.5406 102.953C51.5406 102.953 45.3828 101.8 44.3987 105.455C43.4146 109.11 45.0173 110.938 45.917 111.163C46.8168 111.388 52.6934 111.303 52.5247 112.063C52.3841 112.822 48.4195 114.031 46.1982 113.356C46.1982 113.356 48.6444 119.373 51.8217 119.064C55.0272 118.755 56.0113 116.786 57.9795 116.618C59.9478 116.477 61.4099 117.011 60.4257 117.517C59.4416 118.052 56.0956 117.686 54.4929 119.064C52.8902 120.414 51.5968 121.257 54.5773 121.876C57.5577 122.494 62.872 122.101 63.9405 119.823C65.037 117.602 65.0371 117.602 65.0371 117.602Z" fill="#AE8FF7"/>
<path d="M66.5555 123.169C64.9528 120.188 65.0371 117.602 65.0371 117.602C63.2095 111.809 47.2386 106.636 47.2386 106.636C67.5677 114.846 63.9687 119.879 63.9687 119.879C64.5029 120.188 65.3464 121.735 65.9088 122.888C65.9931 123.085 66.1056 123.366 66.3024 123.731C66.3868 123.9 66.443 124.041 66.4711 124.125C67.5115 126.74 66.9491 131.267 66.9491 131.267L67.5958 131.436C69.0017 126.909 66.5555 123.169 66.5555 123.169Z" fill="#9A70FF"/>
<path d="M74.1191 113.215C74.1191 113.215 66.5836 108.997 70.0983 103.29C70.0983 103.29 72.9101 99.7749 75.9187 98.8751C75.9187 98.8751 74.316 107.395 75.9187 107.592C77.5214 107.788 77.0153 97.9754 77.0153 97.9754C77.0153 97.9754 84.9445 94.1514 88.0374 94.4607C88.0374 94.4607 83.1168 102.783 84.7195 102.587C86.3222 102.39 91.8333 93.9545 91.8333 93.9545C91.8333 93.9545 101.759 91.0022 103.052 95.8103C104.346 100.618 100.465 104.471 99.2564 104.78C98.0473 105.089 90.3431 104.977 90.5399 105.989C90.7367 107.001 95.9385 107.676 98.8627 106.776C98.8627 106.776 95.6573 115.605 91.4396 115.212C87.222 114.818 85.9286 112.203 83.3136 112.006C80.6987 111.809 78.7867 112.512 80.1082 113.215C81.4016 113.918 85.8161 113.44 87.9249 115.24C90.0338 117.039 91.7489 118.136 87.8125 118.923C83.9041 119.738 76.8747 119.232 75.4688 116.224C74.1191 113.215 74.1191 113.215 74.1191 113.215Z" fill="#AE8FF7"/>
<path d="M97.5693 98.7629C97.5693 98.7629 76.5091 105.596 74.091 113.215C74.091 113.215 74.2035 116.618 72.0946 120.526C72.0946 120.526 68.4674 125.7 70.3232 131.717L71.5323 131.239C71.5323 131.239 70.8012 125.278 72.179 121.819C72.2352 121.679 72.3196 121.51 72.432 121.285C72.6851 120.779 72.8538 120.442 72.9663 120.16C73.7255 118.614 74.7939 116.618 75.525 116.196C75.525 116.224 70.8012 109.588 97.5693 98.7629Z" fill="#9A70FF"/>
<path d="M73.866 144.482C81.992 144.482 88.5996 137.874 88.5996 129.748H59.1323C59.1323 137.902 65.7119 144.482 73.866 144.482Z" fill="#364154"/>
<path d="M86.9689 143.47H60.7351C59.7229 143.47 58.9075 144.285 58.9075 145.298H88.7966C88.7966 144.285 87.9812 143.47 86.9689 143.47Z" fill="#364154"/>
<path d="M88.7123 129.748H58.8513C58.7388 129.748 58.6263 129.861 58.6263 129.973C58.6263 130.085 58.7388 130.198 58.8513 130.198H88.6841C88.7966 130.198 88.9091 130.085 88.9091 129.973C88.9372 129.861 88.8247 129.748 88.7123 129.748Z" fill="#364154"/>
</g>
</svg>
