<svg width="323" height="232" viewBox="0 0 323 232" fill="none" xmlns="http://www.w3.org/2000/svg">
<mask id="mask0_73_6449" style="mask-type:alpha" maskUnits="userSpaceOnUse" x="0" y="0" width="323" height="232">
<rect width="323" height="232" rx="8" fill="#D9D9D9"/>
</mask>
<g mask="url(#mask0_73_6449)">
<rect width="323" height="232" rx="8" fill="#ECE4FF"/>
<path d="M300.694 140.722C300.344 117.971 291.418 96.0361 277.826 79.0602C269.892 69.143 260.266 60.4508 249.824 53.6838C238.974 46.6834 227.19 38.8079 214.064 37.5829C210.855 37.2912 207.53 37.4079 204.322 38.3996C192.129 42.0164 216.281 55.0255 219.431 56.8923C185.654 42.4831 150.71 27.8406 113.783 29.1824C106.666 29.4741 99.2574 30.4075 93.0154 34.3743C86.7734 38.3412 81.9314 45.925 82.8648 53.5088C83.6232 59.7508 87.8234 66.7512 83.9149 71.5931C82.8065 72.9932 81.1731 73.8099 79.598 74.5099C71.5475 78.1851 62.797 80.1102 55.1549 84.7772C43.3126 92.0109 35.2038 105.312 31.4703 119.312C27.7367 133.313 27.9117 148.014 29.3702 162.248C32.112 189.025 39.6957 215.626 54.9216 236.452C76.6811 266.204 112.383 281.372 148.085 283.88C191.313 286.914 238.215 271.046 266.8 234.411C271.059 228.985 274.909 222.977 276.484 216.151C278.001 209.326 276.776 201.567 272.05 197.075C270.767 195.85 269.134 194.567 269.25 192.7C269.425 190.191 272.459 189.316 274.792 188.791C290.018 185.291 298.71 166.857 300.285 150.231C300.635 147.081 300.752 143.872 300.694 140.722Z" fill="#AE8FF7"/>
<path opacity="0.7" d="M300.694 140.722C300.344 117.971 291.418 96.0361 277.826 79.0602C269.892 69.143 260.266 60.4508 249.824 53.6838C238.974 46.6834 227.19 38.8079 214.064 37.5829C210.855 37.2912 207.53 37.4079 204.322 38.3996C192.129 42.0164 216.281 55.0255 219.431 56.8923C185.654 42.4831 150.71 27.8406 113.783 29.1824C106.666 29.4741 99.2574 30.4075 93.0154 34.3743C86.7734 38.3412 81.9314 45.925 82.8648 53.5088C83.6232 59.7508 87.8234 66.7512 83.9149 71.5931C82.8065 72.9932 81.1731 73.8099 79.598 74.5099C71.5475 78.1851 62.797 80.1102 55.1549 84.7772C43.3126 92.0109 35.2038 105.312 31.4703 119.312C27.7367 133.313 27.9117 148.014 29.3702 162.248C32.112 189.025 39.6957 215.626 54.9216 236.452C76.6811 266.204 112.383 281.372 148.085 283.88C191.313 286.914 238.215 271.046 266.8 234.411C271.059 228.985 274.909 222.977 276.484 216.151C278.001 209.326 276.776 201.567 272.05 197.075C270.767 195.85 269.134 194.567 269.25 192.7C269.425 190.191 272.459 189.316 274.792 188.791C290.018 185.291 298.71 166.857 300.285 150.231C300.635 147.081 300.752 143.872 300.694 140.722Z" fill="white"/>
<path d="M174.628 34.3164C173.461 33.208 172.761 34.433 171.536 34.433C170.311 34.433 169.961 33.733 169.378 32.4496C168.503 30.5245 168.095 28.3077 165.878 28.8327C165.294 28.9494 164.769 29.2994 164.244 29.5911C163.719 29.8828 163.136 30.0578 162.553 29.9411C161.152 29.5911 161.094 26.9076 160.977 25.5659C160.686 22.649 157.594 19.0322 153.394 18.5071C151.177 18.2155 148.668 19.8489 147.152 21.8323C146.627 22.5324 146.218 23.4074 145.81 24.2241C145.693 24.5158 145.518 24.8075 145.402 25.0992C143.126 23.9325 140.385 24.3991 138.051 23.3491C135.601 22.1824 134.376 20.0239 133.151 17.8071C132.393 16.5237 131.692 15.2403 130.642 14.1319C127.784 11.1567 123.117 8.7066 118.975 9.11495C111.1 9.93167 105.324 15.4153 104.741 19.9072C104.508 21.949 104.449 26.0909 101.766 26.6159C100.716 26.8493 99.6073 26.4993 98.6156 26.0909C97.6239 25.6826 96.6322 25.1575 95.5821 24.9242C91.4986 24.1658 90.6818 27.6077 89.0484 30.4662C87.94 32.3913 87.2983 33.4997 84.9649 33.4997C82.6897 33.4997 81.348 31.6329 79.1895 33.2663C76.7977 35.1331 76.2727 36.4165 76.2727 36.4165H138.285H147.035H176.087C176.145 36.4165 175.912 35.5414 174.628 34.3164Z" fill="white"/>
<path d="M298.594 51.5843C297.894 50.9425 297.485 51.6426 296.785 51.6426C296.085 51.6426 295.852 51.2342 295.502 50.4759C294.977 49.3675 294.743 48.0841 293.46 48.3757C293.11 48.4341 292.818 48.6674 292.527 48.8424C292.235 49.0174 291.885 49.1341 291.535 49.0758C290.718 48.9008 290.718 47.3257 290.601 46.509C290.426 44.8172 288.618 42.7171 286.168 42.4254C284.884 42.2504 283.426 43.1838 282.551 44.3505C282.259 44.7589 282.026 45.2256 281.793 45.7506C281.734 45.9256 281.618 46.1006 281.559 46.2756C280.218 45.5756 278.642 45.8673 277.301 45.2256C275.901 44.5839 275.201 43.3005 274.442 42.017C274.034 41.2587 273.567 40.5003 272.984 39.9169C271.35 38.1668 268.609 36.7668 266.158 37.0001C261.55 37.4668 258.225 40.6753 257.875 43.3005C257.758 44.5255 257.7 46.9173 256.183 47.209C255.541 47.3257 254.899 47.1507 254.374 46.9173C253.791 46.684 253.208 46.3923 252.624 46.2756C250.291 45.8089 249.766 47.7924 248.832 49.4841C248.191 50.5925 247.841 51.2342 246.441 51.2342C245.099 51.2342 244.341 50.1258 243.057 51.1176C241.657 52.1676 241.365 52.926 241.365 52.926H277.417H282.493H299.41C299.527 52.8093 299.352 52.2843 298.594 51.5843Z" fill="white"/>
<path d="M79.1313 58.1761C78.4313 57.5343 78.0229 58.2344 77.3229 58.2344C76.6228 58.2344 76.3895 57.826 76.0394 57.0677C75.5144 55.9593 75.2811 54.6759 73.9977 54.9675C73.6476 55.0259 73.356 55.2592 73.0643 55.4342C72.7726 55.6092 72.4226 55.7259 72.0726 55.6676C71.2558 55.4926 71.2558 53.9175 71.1392 53.1008C70.9642 51.409 69.1557 49.3089 66.7056 49.0172C65.4222 48.8422 63.9638 49.7756 63.0887 50.9423C62.797 51.3507 62.5637 51.8174 62.3303 52.3424C62.272 52.5174 62.1553 52.6924 62.097 52.8674C60.7553 52.1674 59.1802 52.4591 57.8384 51.8174C56.4384 51.1757 55.7383 49.8923 54.9799 48.6088C54.5716 47.8505 54.1049 47.0921 53.5215 46.5087C51.8881 44.7586 49.1463 43.3585 46.6961 43.5919C42.0875 44.0586 38.7624 47.2671 38.4123 49.8922C38.2957 51.1173 38.2373 53.5091 36.7206 53.8008C36.0789 53.9175 35.4372 53.7425 34.9121 53.5091C34.3288 53.2758 33.7454 52.9841 33.162 52.8674C30.8286 52.4007 30.3035 54.3842 29.3702 56.0759C28.7285 57.1843 28.3784 57.826 26.9784 57.826C25.6366 57.826 24.8782 56.7176 23.5948 57.7094C22.1948 58.7594 21.9031 59.5178 21.9031 59.5178H57.9551H63.1471H80.0647C80.0063 59.4011 79.8313 58.8761 79.1313 58.1761Z" fill="white"/>
<path d="M42.7875 122.637C42.7875 122.637 39.579 125.846 39.929 129.929C40.2791 134.013 40.6874 137.98 40.6874 137.98L42.1458 132.555C42.1458 132.555 43.3126 135.705 43.1959 135.005C43.0792 134.305 43.0792 130.688 43.0792 130.688C43.0792 130.688 44.1293 133.138 44.3043 131.913C44.421 131.213 44.596 130.163 44.771 129.346C44.8876 128.763 45.0043 128.296 45.0043 128.296C45.0043 128.296 45.5877 130.979 46.1127 130.046C46.6961 129.113 47.0461 126.954 47.0461 126.954C47.0461 126.954 47.1628 129.579 47.6878 128.413C48.1545 127.304 48.5628 125.554 48.5628 125.554C48.5628 125.554 48.0378 129.871 48.5045 131.504C48.9712 133.138 49.3796 130.104 49.3796 130.104C49.3796 130.104 51.1297 137.513 51.363 136.171C51.5964 134.888 51.538 130.221 51.538 130.221C51.538 130.221 53.2298 134.305 53.1131 133.196C53.0548 132.03 52.1797 129.696 52.1797 129.696C52.1797 129.696 53.6965 132.963 53.6381 131.738C53.5798 130.454 52.7047 126.779 52.7047 126.779C52.7047 126.779 56.0883 132.555 56.4383 131.213C56.7883 129.871 55.5632 127.421 55.5632 127.421C55.5632 127.421 56.2633 130.746 56.7883 129.871C57.3133 129.054 57.3133 129.054 57.3133 129.054C57.3133 129.054 57.8967 132.496 58.3051 131.563C58.7134 130.629 58.7134 130.629 58.7134 130.629C58.7134 130.629 59.8218 133.838 59.8802 133.313C59.9385 132.788 60.3468 131.971 60.3468 131.971C60.3468 131.971 61.4552 136.463 61.2219 134.363C61.0469 132.263 60.1135 126.954 60.1135 126.954C60.1135 126.954 61.6303 134.188 61.5719 131.213C61.5719 128.238 59.7051 123.162 58.7134 121.937C57.7217 120.712 52.1214 114.412 49.9046 113.828C47.6878 113.187 45.4127 115.87 44.6543 117.679C43.7209 119.545 42.7875 122.637 42.7875 122.637Z" fill="#8260D0"/>
<path d="M51.3045 175.665C51.3628 178.115 52.0629 183.191 52.8213 188.441H56.2631C55.038 180.682 53.9297 171.932 54.338 166.506C55.1547 154.956 53.638 131.679 50.0211 116.687L49.3794 118.845C49.3794 118.845 51.7129 130.046 51.9462 145.563C52.1212 161.081 51.0712 169.481 51.3045 175.665Z" fill="#8260D0"/>
<path d="M49.2628 114.645C49.2628 114.645 49.0295 114.354 49.6712 107.82C50.2545 101.286 54.6298 98.8945 54.6298 98.8945L53.638 101.636C53.638 101.636 56.3799 98.9529 55.9715 99.8863C55.5632 100.82 53.288 102.861 53.288 102.861C53.288 102.861 56.7299 101.286 56.0298 102.453C55.3298 103.62 53.6964 105.428 53.6964 105.428C53.6964 105.428 55.7965 104.261 55.3881 105.195C54.9798 106.128 53.9881 107.47 53.9881 107.47C53.9881 107.47 55.9715 105.778 55.9715 106.653C55.9132 107.528 53.7547 111.495 53.7547 111.495C53.7547 111.495 56.5549 109.337 55.7382 110.679C54.9215 112.02 52.1796 116.045 51.1879 116.221C50.0212 116.454 49.2045 116.571 49.2628 114.645Z" fill="#8260D0"/>
<path d="M51.5378 118.32C51.5378 118.32 51.6545 117.97 49.2044 111.903C46.7542 105.836 41.9123 104.786 41.9123 104.786L43.6624 107.12C43.6624 107.12 40.2789 105.37 40.9206 106.128C41.5623 106.886 44.3624 108.228 44.3624 108.228C44.3624 108.228 40.6289 107.762 41.6206 108.637C42.6123 109.512 44.7124 110.795 44.7124 110.795C44.7124 110.795 42.379 110.27 43.0207 111.028C43.6624 111.787 45.0041 112.837 45.0041 112.837C45.0041 112.837 42.6123 111.787 42.904 112.603C43.1957 113.42 46.4625 116.629 46.4625 116.629C46.4625 116.629 43.1374 115.404 44.3624 116.395C45.5875 117.445 49.321 120.537 50.3128 120.362C51.3045 120.246 52.1795 120.129 51.5378 118.32Z" fill="#8260D0"/>
<path d="M47.8044 116.162C47.8044 116.162 44.9459 113.537 41.8541 113.187C38.7622 112.837 30.4784 118.145 30.4784 118.145C30.4784 118.145 26.9782 125.262 27.6783 124.446C28.4366 123.629 30.9451 120.654 30.9451 120.654C30.9451 120.654 30.8284 123.454 31.2368 122.521C31.6451 121.587 32.7535 120.012 32.7535 120.012C32.7535 120.012 32.3452 123.221 33.0452 121.879C33.3952 121.237 33.8619 120.479 34.2703 119.837C34.6787 119.254 35.0287 118.787 35.0287 118.787L36.8371 118.029C36.8371 118.029 34.737 121.296 35.6704 120.829C36.6621 120.362 38.2372 118.379 38.2372 118.379C38.2372 118.379 36.8954 121.179 38.0622 120.654C39.2289 120.129 40.2206 118.787 40.2206 118.787L40.0456 121.062L41.6207 119.779L41.679 121.354L42.6708 120.187L43.7208 118.962H44.9459C44.9459 118.962 43.3125 122.171 44.3042 121.646C45.2959 121.121 46.871 118.845 46.871 118.845L47.4544 120.479C47.4544 120.479 48.0961 116.57 48.9711 117.97C49.9628 119.429 47.8044 116.162 47.8044 116.162Z" fill="#8260D0"/>
<path d="M46.8125 119.196C46.8125 119.196 42.9623 119.371 40.5122 121.296C38.062 123.221 35.9619 132.846 35.9619 132.846C35.9619 132.846 38.4704 140.372 38.4704 139.263C38.4121 138.155 38.1204 134.305 38.1204 134.305C38.1204 134.305 40.0455 136.347 39.6371 135.413C39.2288 134.48 38.9954 132.555 38.9954 132.555C38.9954 132.555 40.9789 135.063 40.5122 133.663C40.2788 132.963 40.1038 132.088 39.9288 131.33C39.7538 130.571 39.6955 130.046 39.6955 130.046L40.3955 128.238C40.3955 128.238 41.2122 132.03 41.5622 131.038C41.9122 129.988 41.6789 127.479 41.6789 127.479C41.6789 127.479 42.729 130.396 43.1373 129.229C43.604 128.063 43.3123 126.371 43.3123 126.371L44.7707 128.121L44.9458 126.138L46.1125 127.188L45.9958 125.671L45.8791 124.037L46.7542 123.162C46.7542 123.162 47.8626 126.546 48.2126 125.554C48.5626 124.504 48.0376 121.762 48.0376 121.762L49.6127 122.521C49.6127 122.521 47.2792 119.312 48.971 119.662C50.6627 120.012 46.8125 119.196 46.8125 119.196Z" fill="#8260D0"/>
<path d="M50.021 116.687C50.021 116.687 52.0045 113.362 54.863 112.137C57.7215 110.912 67.172 113.595 67.172 113.595C67.172 113.595 72.5973 119.37 71.6639 118.845C70.7305 118.262 67.4637 116.162 67.4637 116.162C67.4637 116.162 68.3971 118.787 67.7554 118.029C67.1137 117.27 65.5386 116.104 65.5386 116.104C65.5386 116.104 66.822 119.02 65.8303 117.97C65.3052 117.445 64.6052 116.862 64.0802 116.395C63.4968 115.929 63.0884 115.637 63.0884 115.637L61.1633 115.404C61.1633 115.404 64.1385 117.912 63.0884 117.737C62.0384 117.562 59.8799 116.104 59.8799 116.104C59.8799 116.104 61.98 118.379 60.6966 118.262C59.4716 118.087 58.0715 117.095 58.0715 117.095L58.8882 119.254L57.0214 118.495L57.4298 120.012L56.1464 119.195L54.7463 118.32L53.5796 118.67C53.5796 118.67 56.0297 121.237 54.9796 121.062C53.9296 120.887 51.7128 119.079 51.7128 119.079L51.5961 120.829C51.5961 120.829 49.846 117.27 49.3793 118.904C48.9126 120.479 50.021 116.687 50.021 116.687Z" fill="#8260D0"/>
<path d="M51.8297 119.37C51.8297 119.37 55.5632 118.437 58.48 119.545C61.3385 120.654 66.1221 129.288 66.1221 129.288C66.1221 129.288 65.8888 137.221 65.5971 136.171C65.3054 135.121 64.4887 131.271 64.4887 131.271C64.4887 131.271 63.2636 133.78 63.3803 132.788C63.497 131.796 63.2053 129.871 63.2053 129.871C63.2053 129.871 62.0386 132.846 62.0969 131.388C62.0969 130.629 62.0386 129.754 61.9802 128.996C61.9219 128.296 61.8052 127.713 61.8052 127.713L60.5801 126.196C60.5801 126.196 60.9302 130.104 60.2885 129.171C59.6468 128.296 59.1801 125.787 59.1801 125.787C59.1801 125.787 59.0051 128.879 58.2467 127.888C57.4883 126.896 57.255 125.204 57.255 125.204L56.3216 127.304L55.5632 125.437L54.8048 126.779L54.4548 125.262L54.1048 123.687L53.0547 123.104C53.0547 123.104 52.9964 126.662 52.3547 125.787C51.713 124.912 51.4213 122.112 51.4213 122.112L50.1379 123.279C50.1379 123.279 51.4213 119.545 49.9629 120.362C48.5045 121.179 51.8297 119.37 51.8297 119.37Z" fill="#8260D0"/>
<path d="M268.083 122.637C268.083 122.637 264.875 125.846 265.225 129.929C265.575 134.013 265.983 137.98 265.983 137.98L267.442 132.555C267.442 132.555 268.608 135.705 268.492 135.005C268.375 134.305 268.375 130.688 268.375 130.688C268.375 130.688 269.425 133.138 269.6 131.913C269.717 131.213 269.892 130.163 270.067 129.346C270.184 128.763 270.3 128.296 270.3 128.296C270.3 128.296 270.884 130.979 271.409 130.046C271.992 129.113 272.342 126.954 272.342 126.954C272.342 126.954 272.459 129.579 272.984 128.413C273.45 127.304 273.859 125.554 273.859 125.554C273.859 125.554 273.334 129.871 273.8 131.504C274.267 133.138 274.675 130.104 274.675 130.104C274.675 130.104 276.426 137.513 276.659 136.171C276.892 134.888 276.834 130.221 276.834 130.221C276.834 130.221 278.526 134.305 278.409 133.196C278.351 132.03 277.476 129.696 277.476 129.696C277.476 129.696 278.992 132.963 278.934 131.738C278.876 130.454 278.001 126.779 278.001 126.779C278.001 126.779 281.384 132.555 281.734 131.213C282.084 129.871 280.859 127.421 280.859 127.421C280.859 127.421 281.559 130.746 282.084 129.871C282.609 129.054 282.609 129.054 282.609 129.054C282.609 129.054 283.193 132.496 283.601 131.563C284.009 130.629 284.009 130.629 284.009 130.629C284.009 130.629 285.118 133.838 285.176 133.313C285.176 132.788 285.643 131.971 285.643 131.971C285.643 131.971 286.751 136.463 286.518 134.363C286.343 132.263 285.409 126.954 285.409 126.954C285.409 126.954 286.926 134.188 286.868 131.213C286.868 128.238 285.001 123.162 284.009 121.937C283.018 120.712 277.417 114.412 275.2 113.828C272.984 113.187 270.709 115.87 269.95 117.679C269.017 119.545 268.083 122.637 268.083 122.637Z" fill="#8260D0"/>
<path d="M276.6 175.665C276.659 178.115 277.359 183.191 278.117 188.441H281.559C280.334 180.682 279.226 171.932 279.634 166.506C280.451 154.956 278.934 131.679 275.317 116.687L274.675 118.845C274.675 118.845 277.009 130.046 277.242 145.563C277.475 161.081 276.425 169.481 276.6 175.665Z" fill="#8260D0"/>
<path d="M274.559 114.645C274.559 114.645 274.325 114.354 274.967 107.82C275.55 101.286 279.926 98.8945 279.926 98.8945L278.934 101.636C278.934 101.636 281.676 98.9529 281.267 99.8863C280.859 100.82 278.584 102.861 278.584 102.861C278.584 102.861 282.026 101.286 281.326 102.453C280.626 103.62 278.992 105.428 278.992 105.428C278.992 105.428 281.092 104.261 280.684 105.195C280.276 106.128 279.284 107.47 279.284 107.47C279.284 107.47 281.267 105.778 281.267 106.653C281.209 107.528 279.051 111.495 279.051 111.495C279.051 111.495 281.851 109.337 281.034 110.679C280.217 112.02 277.476 116.045 276.484 116.221C275.317 116.454 274.5 116.571 274.559 114.645Z" fill="#8260D0"/>
<path d="M276.834 118.32C276.834 118.32 276.95 117.97 274.5 111.903C272.05 105.836 267.208 104.786 267.208 104.786L268.958 107.12C268.958 107.12 265.575 105.37 266.216 106.128C266.858 106.886 269.658 108.228 269.658 108.228C269.658 108.228 265.925 107.762 266.916 108.637C267.908 109.512 270.008 110.795 270.008 110.795C270.008 110.795 267.675 110.27 268.317 111.028C268.958 111.787 270.3 112.837 270.3 112.837C270.3 112.837 267.908 111.787 268.2 112.603C268.492 113.42 271.758 116.629 271.758 116.629C271.758 116.629 268.433 115.404 269.658 116.395C270.883 117.445 274.617 120.537 275.609 120.362C276.6 120.246 277.475 120.129 276.834 118.32Z" fill="#8260D0"/>
<path d="M273.159 116.162C273.159 116.162 270.3 113.537 267.208 113.187C264.116 112.837 255.833 118.145 255.833 118.145C255.833 118.145 252.332 125.262 253.032 124.446C253.791 123.629 256.299 120.654 256.299 120.654C256.299 120.654 256.183 123.454 256.591 122.521C256.999 121.587 258.108 120.012 258.108 120.012C258.108 120.012 257.699 123.221 258.399 121.879C258.749 121.237 259.216 120.479 259.624 119.837C260.033 119.254 260.383 118.787 260.383 118.787L262.191 118.029C262.191 118.029 260.091 121.296 261.025 120.829C262.016 120.362 263.591 118.379 263.591 118.379C263.591 118.379 262.25 121.179 263.416 120.654C264.583 120.129 265.575 118.787 265.575 118.787L265.4 121.062L266.975 119.779L267.033 121.354L268.025 120.187L269.075 118.962H270.3C270.3 118.962 268.667 122.171 269.658 121.646C270.65 121.179 272.225 118.845 272.225 118.845L272.808 120.479C272.808 120.479 273.45 116.57 274.325 117.97C275.259 119.429 273.159 116.162 273.159 116.162Z" fill="#8260D0"/>
<path d="M272.109 119.196C272.109 119.196 268.258 119.371 265.808 121.296C263.358 123.221 261.258 132.846 261.258 132.846C261.258 132.846 263.766 140.372 263.766 139.263C263.708 138.155 263.416 134.305 263.416 134.305C263.416 134.305 265.341 136.347 264.933 135.413C264.525 134.48 264.291 132.555 264.291 132.555C264.291 132.555 266.275 135.063 265.808 133.663C265.575 132.963 265.4 132.088 265.225 131.33C265.108 130.63 264.991 130.046 264.991 130.046L265.692 128.238C265.692 128.238 266.508 132.03 266.858 131.038C267.208 129.988 266.975 127.479 266.975 127.479C266.975 127.479 268.025 130.396 268.433 129.229C268.9 128.063 268.608 126.371 268.608 126.371L270.067 128.121L270.242 126.138L271.409 127.188L271.292 125.671L271.175 124.037L272.05 123.162C272.05 123.162 273.159 126.546 273.509 125.554C273.859 124.504 273.334 121.762 273.334 121.762L274.909 122.521C274.909 122.521 272.575 119.312 274.267 119.662C275.959 120.012 272.109 119.196 272.109 119.196Z" fill="#8260D0"/>
<path d="M275.317 116.687C275.317 116.687 277.301 113.362 280.159 112.137C283.017 110.912 292.468 113.595 292.468 113.595C292.468 113.595 297.893 119.37 296.96 118.845C296.027 118.262 292.76 116.162 292.76 116.162C292.76 116.162 293.693 118.787 293.051 118.029C292.41 117.27 290.835 116.104 290.835 116.104C290.835 116.104 292.118 119.02 291.126 117.97C290.601 117.445 289.901 116.862 289.376 116.395C288.793 115.929 288.384 115.637 288.384 115.637L286.459 115.404C286.459 115.404 289.435 117.912 288.384 117.737C287.334 117.562 285.176 116.104 285.176 116.104C285.176 116.104 287.276 118.379 285.993 118.262C284.768 118.087 283.368 117.095 283.368 117.095L284.184 119.254L282.317 118.495L282.726 120.012L281.442 119.195L280.042 118.32L278.876 118.67C278.876 118.67 281.326 121.237 280.276 121.062C279.226 120.887 277.009 119.079 277.009 119.079L276.892 120.829C276.892 120.829 275.142 117.27 274.675 118.904C274.209 120.479 275.317 116.687 275.317 116.687Z" fill="#8260D0"/>
<path d="M277.184 119.37C277.184 119.37 280.917 118.437 283.834 119.545C286.693 120.654 291.476 129.288 291.476 129.288C291.476 129.288 291.243 137.221 290.951 136.171C290.66 135.121 289.843 131.271 289.843 131.271C289.843 131.271 288.618 133.78 288.734 132.788C288.851 131.796 288.559 129.871 288.559 129.871C288.559 129.871 287.393 132.846 287.451 131.388C287.451 130.629 287.393 129.754 287.334 128.996C287.276 128.296 287.159 127.713 287.159 127.713L285.934 126.196C285.934 126.196 286.284 130.104 285.643 129.171C285.001 128.296 284.534 125.787 284.534 125.787C284.534 125.787 284.359 128.879 283.601 127.888C282.842 126.896 282.609 125.204 282.609 125.204L281.676 127.304L280.917 125.437L280.159 126.779L279.809 125.262L279.459 123.687L278.409 123.104C278.409 123.104 278.351 126.662 277.709 125.787C277.067 124.912 276.775 122.112 276.775 122.112L275.492 123.279C275.492 123.279 276.775 119.545 275.317 120.362C273.742 121.237 277.184 119.37 277.184 119.37Z" fill="#8260D0"/>
<path d="M162.144 62.9008C162.144 62.9008 149.018 59.1089 145.11 60.859C145.052 60.859 144.993 60.9173 144.935 60.9757C145.46 60.1589 145.927 59.4589 146.218 58.9922C147.385 57.1254 143.476 60.1006 143.476 60.1006C143.476 60.1006 146.51 54.617 146.568 53.3919C146.627 52.1668 143.826 54.5003 143.826 54.5003C143.826 54.5003 145.227 52.6335 145.752 51.3501C146.277 50.0667 143.418 51.7001 143.418 51.7001C143.418 51.7001 145.693 49.1917 146.685 47.6166C147.677 46.0415 142.893 48.1999 142.893 48.1999C142.893 48.1999 146.102 45.3414 146.627 44.058C147.152 42.7746 143.36 46.4498 143.36 46.4498L144.702 42.658C144.702 42.658 138.693 45.9248 137.818 54.967C137.584 57.5921 137.409 59.5172 137.351 60.859C137.293 60.7423 137.293 60.684 137.234 60.5673C133.851 52.1668 127.142 50.7084 127.142 50.7084L129.534 53.9753C129.534 53.9753 124.867 51.5251 125.742 52.6335C126.617 53.6836 130.526 55.5504 130.526 55.5504C130.526 55.5504 125.392 54.8503 126.734 56.1337C128.134 57.3588 131.051 59.1089 131.051 59.1089C131.051 59.1089 127.784 58.4088 128.717 59.4589C129.592 60.509 131.517 61.9674 131.517 61.9674C131.517 61.9674 128.192 60.509 128.601 61.6757C128.717 61.9674 129.009 62.3757 129.476 62.9008C128.776 62.6674 128.017 62.4341 127.259 62.3757C123 61.8507 111.508 69.2595 111.508 69.2595C111.508 69.2595 106.608 79.1183 107.658 78.0099C108.708 76.9015 112.208 72.7596 112.208 72.7596C112.208 72.7596 112.033 76.6099 112.616 75.3265C113.141 74.043 114.775 71.8846 114.775 71.8846C114.775 71.8846 114.25 76.3182 115.183 74.4514C115.65 73.518 116.35 72.468 116.933 71.6513C117.517 70.8345 117.983 70.1928 117.983 70.1928L120.492 69.0844C120.492 69.0844 117.575 73.6347 118.917 72.9347C120.258 72.2346 122.534 69.4928 122.534 69.4928C122.534 69.4928 120.725 73.4013 122.3 72.643C123.875 71.9429 125.275 70.0178 125.275 70.0178L125.042 73.168L127.201 71.4179L127.259 72.5263C126.675 72.818 126.15 73.168 125.625 73.5764C122.242 76.2015 119.383 89.5606 119.383 89.5606C119.383 89.5606 122.884 100.003 122.825 98.4278C122.767 96.911 122.3 91.544 122.3 91.544C122.3 91.544 124.925 94.4025 124.4 93.1191C123.875 91.8357 123.467 89.1522 123.467 89.1522C123.467 89.1522 124.692 90.7273 125.334 91.194C125.625 94.3442 125.859 96.6193 125.859 96.6193L127.901 89.0939C127.901 89.0939 129.476 93.4108 129.359 92.4774C129.242 91.544 129.184 86.4688 129.184 86.4688C129.184 86.4688 130.642 89.8523 130.876 88.1605C130.992 87.1688 131.284 85.7104 131.517 84.602C131.692 83.7853 131.809 83.2019 131.809 83.2019C131.809 83.2019 132.626 86.9354 133.384 85.5937C134.143 84.252 134.668 81.3351 134.668 81.3351C134.668 81.3351 134.843 84.952 135.543 83.3769C136.184 81.8018 136.709 79.3517 136.709 79.3517C136.709 79.3517 135.951 85.3604 136.593 87.6355C137.234 89.9106 137.759 85.7104 137.759 85.7104C137.759 85.7104 140.151 95.9776 140.501 94.1692C140.56 93.7025 140.618 92.9441 140.676 92.0691C141.026 96.6193 141.318 101.695 141.376 107.178C141.668 128.704 140.21 140.372 140.56 148.889C140.851 156.473 145.11 182.782 146.102 188.674H151.469C150.652 184.708 143.651 151.281 144.702 136.23C145.46 125.379 144.76 107.178 142.66 90.0856C142.835 90.3773 142.951 90.3773 142.951 90.0273C142.893 89.2106 142.601 88.0438 142.251 87.0521C142.193 86.8188 142.193 86.5271 142.135 86.2937C142.776 87.5188 143.71 89.2106 143.651 88.0438C143.535 86.2937 142.368 81.1601 142.368 81.1601C142.368 81.1601 147.093 89.1522 147.56 87.3438C147.677 86.8188 147.677 86.1771 147.502 85.5354C147.677 85.7104 147.852 85.7687 148.027 85.5354C148.727 84.427 148.727 84.427 148.727 84.427C148.727 84.427 149.543 89.1522 150.127 87.9272C150.652 86.6438 150.652 86.6438 150.652 86.6438C150.652 86.6438 152.169 91.1357 152.227 90.3773C152.285 89.6189 152.81 88.5105 152.81 88.5105C152.81 88.5105 154.327 94.7525 154.035 91.8357C153.86 90.2023 153.394 87.1105 153.044 84.777C153.102 84.8353 153.16 84.8353 153.219 84.777C153.802 87.2855 154.56 90.0273 154.56 87.5188C154.56 85.652 154.035 83.2602 153.335 80.9851C153.335 80.6934 153.277 80.4601 153.277 80.4601L154.969 82.6185C154.969 82.6185 155.085 83.3769 155.202 84.3686C155.319 85.3604 155.435 86.6438 155.377 87.6355C155.319 89.6773 156.952 85.5354 156.952 85.5354C156.952 85.5354 157.361 88.2189 157.186 89.5606C157.069 90.9607 158.761 87.4605 158.761 87.4605C158.761 87.4605 159.869 92.7691 160.277 94.2275C160.686 95.6859 161.036 84.7187 161.036 84.7187C161.036 84.7187 154.444 72.7596 150.419 71.1846C149.835 70.9512 149.193 70.7762 148.552 70.6595L148.26 69.6095L150.827 70.6595L149.66 67.6844C149.66 67.6844 151.527 69.0844 153.277 69.3178C154.969 69.5511 152.11 66.3426 152.11 66.3426C152.11 66.3426 155.027 68.3261 156.544 68.5594C158.002 68.8511 153.919 65.3509 153.919 65.3509L156.602 65.7009C156.602 65.7009 157.186 66.1676 158.002 66.8093C158.761 67.451 159.752 68.2677 160.452 69.0261C161.852 70.4845 160.044 66.4593 160.044 66.4593C160.044 66.4593 162.202 68.0927 163.078 69.1428C163.953 70.1928 162.669 66.576 162.669 66.576C162.669 66.576 167.219 69.4928 168.503 70.3095C169.67 70.8929 162.144 62.9008 162.144 62.9008ZM129.826 70.2512H130.117C130.001 70.6595 129.826 71.0095 129.709 71.4179C129.301 71.5346 128.892 71.6512 128.484 71.8263L129.826 70.2512ZM124.459 87.5188C124.284 86.5271 124.167 85.7687 124.167 85.7687L124.459 85.0687C124.459 85.1853 124.459 85.3604 124.459 85.477C124.575 86.7021 124.692 87.8688 124.809 89.0356C124.634 88.5105 124.517 87.9855 124.459 87.5188Z" fill="#8260D0"/>
<path d="M275.842 76.3773C275.842 76.3773 262.716 72.5854 258.808 74.3355C258.75 74.3355 258.691 74.3939 258.633 74.4522C259.158 73.6355 259.625 72.9355 259.916 72.4688C261.083 70.602 257.174 73.5772 257.174 73.5772C257.174 73.5772 260.208 68.0935 260.266 66.8685C260.325 65.6434 257.524 67.9768 257.524 67.9768C257.524 67.9768 258.925 66.1101 259.45 64.8267C259.975 63.5433 257.116 65.1767 257.116 65.1767C257.116 65.1767 259.391 62.6682 260.383 61.0931C261.375 59.518 256.591 61.6765 256.591 61.6765C256.591 61.6765 259.8 58.818 260.325 57.5346C260.85 56.2512 257.058 59.9264 257.058 59.9264L258.4 56.1345C258.4 56.1345 252.391 59.4014 251.516 68.4435C251.282 71.0687 251.107 72.9938 251.049 74.3355C250.991 74.2189 250.991 74.1605 250.932 74.0439C247.607 65.5267 240.84 64.1266 240.84 64.1266L243.232 67.3935C243.232 67.3935 238.565 64.9433 239.44 66.0517C240.315 67.1018 244.224 68.9686 244.224 68.9686C244.224 68.9686 239.09 68.2685 240.432 69.5519C241.832 70.777 244.749 72.5271 244.749 72.5271C244.749 72.5271 241.482 71.8271 242.415 72.8771C243.29 73.9272 245.215 75.3856 245.215 75.3856C245.215 75.3856 241.89 73.9272 242.299 75.0939C242.415 75.3856 242.707 75.794 243.174 76.319C242.474 76.0856 241.715 75.8523 240.957 75.794C236.698 75.2689 225.206 82.6777 225.206 82.6777C225.206 82.6777 220.306 92.5366 221.356 91.4282C222.406 90.3198 225.906 86.1779 225.906 86.1779C225.906 86.1779 225.731 90.0281 226.314 88.7447C226.898 87.4613 228.473 85.3028 228.473 85.3028C228.473 85.3028 227.948 89.7364 228.881 87.8696C229.348 86.9362 230.048 85.8862 230.631 85.0695C231.215 84.2528 231.681 83.6111 231.681 83.6111L234.19 82.5027C234.19 82.5027 231.273 87.0529 232.615 86.3529C233.956 85.6528 236.232 82.911 236.232 82.911C236.232 82.911 234.423 86.8196 235.998 86.0612C237.573 85.3612 238.973 83.4361 238.973 83.4361L238.74 86.5862L240.899 84.8361L240.957 85.9445C240.373 86.2362 239.848 86.5862 239.323 86.9946C235.94 89.6197 233.081 102.979 233.081 102.979C233.081 102.979 236.582 113.421 236.523 111.846C236.465 110.329 235.998 104.962 235.998 104.962C235.998 104.962 238.623 107.821 238.098 106.537C237.573 105.254 237.165 102.57 237.165 102.57C237.165 102.57 238.39 104.146 239.032 104.612C239.323 107.762 239.557 110.038 239.557 110.038L241.599 102.512C241.599 102.512 243.174 106.829 243.057 105.896C242.94 104.962 242.882 99.887 242.882 99.887C242.882 99.887 244.34 103.27 244.574 101.579C244.69 100.587 244.982 99.1286 245.215 98.0202C245.39 97.2035 245.507 96.6201 245.507 96.6201C245.507 96.6201 246.324 100.354 247.082 99.0119C247.841 97.6702 248.366 94.7534 248.366 94.7534C248.366 94.7534 248.541 98.3702 249.241 96.7951C249.882 95.22 250.407 92.7699 250.407 92.7699C250.407 92.7699 249.649 98.7786 250.291 101.054C250.932 103.329 251.457 99.1286 251.457 99.1286C251.457 99.1286 253.849 109.396 254.199 107.587C254.258 107.121 254.316 106.362 254.374 105.487C254.724 110.038 255.016 115.113 255.074 120.596C255.366 142.123 253.908 153.79 254.258 162.307C254.549 169.891 259.858 182.725 260.85 188.617H266.217C265.4 184.65 257.349 164.699 258.4 149.648C259.158 138.797 258.458 120.596 256.358 103.504C256.533 103.796 256.649 103.854 256.649 103.446C256.591 102.629 256.299 101.462 255.949 100.47C255.891 100.237 255.891 99.9453 255.833 99.712C256.474 100.937 257.408 102.629 257.349 101.462C257.233 99.712 256.066 94.5783 256.066 94.5783C256.066 94.5783 260.791 102.57 261.258 100.762C261.375 100.237 261.375 99.5953 261.2 98.9536C261.375 99.1286 261.55 99.1869 261.725 98.9536C262.425 97.8452 262.425 97.8452 262.425 97.8452C262.425 97.8452 263.241 102.57 263.825 101.345C264.35 100.062 264.35 100.062 264.35 100.062C264.35 100.062 265.867 104.554 265.925 103.796C265.983 103.037 266.508 101.929 266.508 101.929C266.508 101.929 268.025 108.171 267.733 105.254C267.558 103.621 267.092 100.529 266.742 98.1952C266.8 98.2535 266.858 98.2535 266.917 98.1952C267.5 100.704 268.258 103.446 268.258 100.937C268.258 99.0703 267.733 96.6785 267.033 94.4033C267.033 94.1116 266.975 93.8783 266.975 93.8783L268.667 96.0368C268.667 96.0368 268.783 96.7951 268.9 97.7869C269.017 98.7786 269.133 100.062 269.075 101.054C269.017 103.095 270.65 98.9536 270.65 98.9536C270.65 98.9536 271.059 101.637 270.884 102.979C270.709 104.321 272.459 100.879 272.459 100.879C272.459 100.879 273.567 106.187 273.975 107.646C274.384 109.104 274.734 98.1369 274.734 98.1369C274.734 98.1369 268.142 86.1779 264.116 84.6028C263.533 84.3694 262.891 84.1944 262.25 84.0778L261.958 83.0277L264.525 84.0778L263.358 81.1026C263.358 81.1026 265.225 82.5027 266.975 82.736C268.667 82.9694 265.808 79.7608 265.808 79.7608C265.808 79.7608 268.725 81.7443 270.242 81.9776C271.7 82.2693 267.617 78.7691 267.617 78.7691L270.3 79.1191C270.3 79.1191 270.884 79.5858 271.7 80.2275C272.459 80.8692 273.45 81.686 274.15 82.4443C275.55 83.9027 273.742 79.8775 273.742 79.8775C273.742 79.8775 275.9 81.5109 276.776 82.561C277.651 83.6111 276.367 79.9942 276.367 79.9942C276.367 79.9942 280.917 82.911 282.201 83.7277C283.368 84.3694 275.842 76.3773 275.842 76.3773ZM243.524 83.7277H243.815C243.699 84.1361 243.524 84.4861 243.407 84.8945C242.999 85.0111 242.59 85.1278 242.182 85.3028L243.524 83.7277ZM238.157 100.995C237.982 100.004 237.865 99.2453 237.865 99.2453L238.157 98.5452C238.157 98.6619 238.157 98.8369 238.157 98.9536C238.273 100.179 238.39 101.345 238.507 102.512C238.332 101.987 238.215 101.462 238.157 100.995Z" fill="#8260D0"/>
<path d="M107.949 76.3773C107.949 76.3773 94.8236 72.5854 90.9151 74.3355C90.8567 74.3355 90.7984 74.3939 90.74 74.4522C91.2651 73.6355 91.7318 72.9355 92.0235 72.4688C93.1902 70.602 89.2816 73.5772 89.2816 73.5772C89.2816 73.5772 92.3151 68.0935 92.3735 66.8685C92.4318 65.6434 89.6317 67.9768 89.6317 67.9768C89.6317 67.9768 91.0317 66.1101 91.5568 64.8267C92.0818 63.5433 89.2233 65.1767 89.2233 65.1767C89.2233 65.1767 91.4984 62.6682 92.4901 61.0931C93.4819 59.518 88.6983 61.6765 88.6983 61.6765C88.6983 61.6765 91.9068 58.818 92.4318 57.5346C92.9568 56.2512 89.165 59.9264 89.165 59.9264L90.5067 56.1345C90.5067 56.1345 84.498 59.4014 83.623 68.4435C83.3896 71.0687 83.2146 72.9938 83.1563 74.3355C83.098 74.2189 83.0979 74.1605 83.0396 74.0439C79.7144 65.5267 73.0057 64.1266 73.0057 64.1266L75.3975 67.3935C75.3975 67.3935 70.7306 64.9433 71.6056 66.0517C72.4807 67.1018 76.3892 68.9686 76.3892 68.9686C76.3892 68.9686 71.2556 68.2685 72.5974 69.5519C73.9974 70.777 76.9143 72.5271 76.9143 72.5271C76.9143 72.5271 73.6474 71.8271 74.5808 72.8771C75.4559 73.9272 77.381 75.3856 77.381 75.3856C77.381 75.3856 74.0558 73.9272 74.4641 75.0939C74.5808 75.3856 74.8725 75.794 75.3392 76.319C74.6391 76.0856 73.8808 75.8523 73.1224 75.794C68.8638 75.2689 57.3715 82.6777 57.3715 82.6777C57.3715 82.6777 52.4712 92.5366 53.5213 91.4282C54.5713 90.3198 58.0715 86.1779 58.0715 86.1779C58.0715 86.1779 57.8965 90.0281 58.4799 88.7447C59.0049 87.4613 60.6384 85.3028 60.6384 85.3028C60.6384 85.3028 60.1133 89.7364 61.0467 87.8696C61.5134 86.9362 62.2134 85.8862 62.7968 85.0695C63.3802 84.2528 63.8469 83.6111 63.8469 83.6111L66.3553 82.5027C66.3553 82.5027 63.4385 87.0529 64.7803 86.3529C66.122 85.6528 68.3971 82.911 68.3971 82.911C68.3971 82.911 66.5887 86.8196 68.1638 86.0612C69.7389 85.3612 71.1389 83.4361 71.1389 83.4361L70.9056 86.5862L73.0641 84.8361L73.1224 85.9445C72.539 86.2362 72.014 86.5862 71.489 86.9946C68.1054 89.6197 65.2469 102.979 65.2469 102.979C65.2469 102.979 68.7471 113.421 68.6888 111.846C68.6305 110.329 68.1638 104.962 68.1638 104.962C68.1638 104.962 70.7889 107.821 70.2639 106.537C69.7389 105.254 69.3305 102.57 69.3305 102.57C69.3305 102.57 70.5556 104.146 71.1973 104.612C71.489 107.762 71.7223 110.038 71.7223 110.038L73.7641 102.512C73.7641 102.512 75.3392 106.829 75.2225 105.896C75.1058 104.962 75.0475 99.887 75.0475 99.887C75.0475 99.887 76.5059 103.27 76.7393 101.579C76.8559 100.587 77.1476 99.1286 77.381 98.0202C77.556 97.2035 77.6726 96.6201 77.6726 96.6201C77.6726 96.6201 78.4894 100.354 79.2477 99.0119C80.0061 97.6702 80.5311 94.7534 80.5311 94.7534C80.5311 94.7534 80.7062 98.3702 81.4062 96.7951C82.0479 95.22 82.5729 92.7699 82.5729 92.7699C82.5729 92.7699 81.8145 98.7786 82.4562 101.054C83.0979 103.329 83.623 99.1286 83.623 99.1286C83.623 99.1286 86.0148 109.396 86.3648 107.587C86.4231 107.121 86.4815 106.362 86.5398 105.487C86.8898 110.038 87.1815 115.113 87.2399 120.596C87.5315 142.123 86.0731 153.79 86.4231 162.307C86.7148 169.891 92.0234 182.725 93.0152 188.617H98.3821C97.5654 184.65 89.515 164.699 90.565 149.648C91.3234 138.797 90.6234 120.596 88.5233 103.504C88.6983 103.796 88.8149 103.854 88.8149 103.446C88.7566 102.629 88.4649 101.462 88.1149 100.47C88.0566 100.237 88.0566 99.9453 87.9982 99.712C88.6399 100.937 89.5733 102.629 89.515 101.462C89.3983 99.712 88.2316 94.5783 88.2316 94.5783C88.2316 94.5783 92.9568 102.57 93.4235 100.762C93.5402 100.237 93.5402 99.5953 93.3652 98.9536C93.5402 99.1286 93.7152 99.1869 93.8902 98.9536C94.5903 97.8452 94.5903 97.8452 94.5903 97.8452C94.5903 97.8452 95.407 102.57 95.9903 101.345C96.5154 100.062 96.5154 100.062 96.5154 100.062C96.5154 100.062 98.0321 104.554 98.0905 103.796C98.1488 103.037 98.6738 101.929 98.6738 101.929C98.6738 101.929 100.191 108.171 99.8989 105.254C99.7239 103.621 99.2572 100.529 98.9072 98.1952C98.9655 98.2535 99.0238 98.2535 99.0822 98.1952C99.6656 100.704 100.424 103.446 100.424 100.937C100.424 99.0703 99.8989 96.6785 99.1989 94.4033C99.1989 94.1116 99.1405 93.8783 99.1405 93.8783L100.832 96.0368C100.832 96.0368 100.949 96.7951 101.066 97.7869C101.182 98.7786 101.299 100.062 101.241 101.054C101.182 103.095 102.816 98.9536 102.816 98.9536C102.816 98.9536 103.224 101.637 103.049 102.979C102.932 104.379 104.624 100.879 104.624 100.879C104.624 100.879 105.733 106.187 106.141 107.646C106.549 109.104 106.899 98.1369 106.899 98.1369C106.899 98.1369 100.307 86.1779 96.282 84.6028C95.6987 84.3694 95.057 84.1944 94.4153 84.0778L94.1236 83.0277L96.6904 84.0778L95.5236 81.1026C95.5236 81.1026 97.3904 82.5027 99.1405 82.736C100.832 82.9694 97.9738 79.7608 97.9738 79.7608C97.9738 79.7608 100.891 81.7443 102.407 81.9776C103.866 82.2693 99.7822 78.7691 99.7822 78.7691L102.466 79.1191C102.466 79.1191 103.049 79.5858 103.866 80.2275C104.624 80.8692 105.616 81.686 106.316 82.4443C107.716 83.9027 105.908 79.8775 105.908 79.8775C105.908 79.8775 108.066 81.5109 108.941 82.561C109.816 83.6111 108.533 79.9942 108.533 79.9942C108.533 79.9942 113.083 82.911 114.366 83.7277C115.475 84.3694 107.949 76.3773 107.949 76.3773ZM75.6309 83.7277H75.9225C75.8059 84.1361 75.6309 84.4861 75.5142 84.8945C75.1058 85.0111 74.6975 85.1278 74.2891 85.3028L75.6309 83.7277ZM70.2639 100.995C70.0889 100.004 69.9722 99.2453 69.9722 99.2453L70.2639 98.5452C70.2639 98.6619 70.2639 98.8369 70.2639 98.9536C70.3806 100.179 70.4972 101.345 70.6139 102.512C70.4972 101.987 70.3806 101.462 70.2639 100.995Z" fill="#8260D0"/>
<path d="M182.154 62.901C182.154 62.901 195.279 59.1091 199.188 60.8592C199.246 60.8592 199.305 60.9175 199.363 60.9759C198.838 60.1592 198.371 59.4591 198.08 58.9924C196.913 57.1257 200.821 60.1008 200.821 60.1008C200.821 60.1008 197.788 54.6172 197.73 53.3921C197.671 52.1671 200.471 54.5005 200.471 54.5005C200.471 54.5005 199.071 52.5754 198.488 51.292C197.963 50.0086 200.821 51.642 200.821 51.642C200.821 51.642 198.546 49.1336 197.555 47.5585C196.563 45.9834 201.346 48.1418 201.346 48.1418C201.346 48.1418 198.138 45.2833 197.613 43.9999C197.088 42.7165 200.88 46.3917 200.88 46.3917L199.538 42.5999C199.538 42.5999 205.547 45.8667 206.422 54.9089C206.655 57.534 206.83 59.4591 206.888 60.8009C206.947 60.6842 206.947 60.6259 207.005 60.5092C210.389 52.1087 217.097 50.6503 217.097 50.6503L214.706 53.9172C214.706 53.9172 219.372 51.467 218.497 52.5754C217.622 53.6255 213.714 55.4922 213.714 55.4922C213.714 55.4922 218.847 54.7922 217.506 56.0756C216.106 57.3007 213.189 59.0508 213.189 59.0508C213.189 59.0508 216.456 58.3507 215.522 59.4008C214.647 60.4509 212.722 61.9093 212.722 61.9093C212.722 61.9093 216.047 60.4509 215.639 61.6176C215.522 61.9093 215.231 62.3176 214.764 62.8427C215.464 62.6093 216.222 62.376 216.981 62.3176C221.239 61.7926 232.732 69.2013 232.732 69.2013C232.732 69.2013 237.632 79.0602 236.582 77.9518C235.532 76.8434 232.031 72.7015 232.031 72.7015C232.031 72.7015 232.207 76.5518 231.623 75.2684C231.098 73.9849 229.465 71.8265 229.465 71.8265C229.465 71.8265 229.99 76.2601 229.056 74.3933C228.59 73.4599 227.89 72.4099 227.306 71.5932C226.723 70.7764 226.256 70.1347 226.256 70.1347L223.748 69.0263C223.748 69.0263 226.665 73.5766 225.323 72.8766C223.981 72.1765 221.706 69.4347 221.706 69.4347C221.706 69.4347 223.514 73.3432 221.939 72.5849C220.364 71.8848 218.964 69.9597 218.964 69.9597L219.197 73.1099L217.039 71.3598L216.981 72.4682C217.564 72.7599 218.089 73.1099 218.614 73.5183C221.998 76.1434 224.856 89.5025 224.856 89.5025C224.856 89.5025 221.356 99.9447 221.414 98.3697C221.473 96.8529 221.939 91.4859 221.939 91.4859C221.939 91.4859 219.314 94.3444 219.839 93.061C220.364 91.7776 220.773 89.0941 220.773 89.0941C220.773 89.0941 219.547 90.6692 218.906 91.1359C218.614 94.2861 218.381 96.5612 218.381 96.5612L216.339 89.0358C216.339 89.0358 214.764 93.3527 214.881 92.4193C214.997 91.4859 215.056 86.4106 215.056 86.4106C215.056 86.4106 213.597 89.7942 213.364 88.1024C213.247 87.1107 212.955 85.6523 212.722 84.5439C212.547 83.7272 212.43 83.1438 212.43 83.1438C212.43 83.1438 211.614 86.8773 210.855 85.5356C210.097 84.1939 209.572 81.277 209.572 81.277C209.572 81.277 209.397 84.8939 208.697 83.3188C208.055 81.7437 207.53 79.2936 207.53 79.2936C207.53 79.2936 208.289 85.3022 207.647 87.5774C207.005 89.8525 206.48 85.6523 206.48 85.6523C206.48 85.6523 204.088 95.9195 203.738 94.1111C203.68 93.6444 203.622 92.886 203.563 92.011C203.213 96.5612 202.922 101.637 202.863 107.12C202.572 128.646 204.03 140.314 203.68 148.831C203.388 156.415 199.13 182.724 198.138 188.616H192.771C193.588 184.649 200.588 151.223 199.538 136.172C198.78 125.321 199.48 107.12 201.58 90.0275C201.405 90.3192 201.288 90.3192 201.288 89.9692C201.346 89.1525 201.638 87.9857 201.988 86.994C202.046 86.7607 202.046 86.469 202.105 86.2356C201.463 87.4607 200.53 89.1525 200.588 87.9857C200.705 86.2356 201.871 81.102 201.871 81.102C201.871 81.102 197.146 89.0941 196.68 87.2857C196.563 86.7607 196.563 86.119 196.738 85.4773C196.563 85.6523 196.388 85.7106 196.213 85.4773C195.513 84.3689 195.513 84.3689 195.513 84.3689C195.513 84.3689 194.696 89.0941 194.113 87.8691C193.588 86.5857 193.588 86.5857 193.588 86.5857C193.588 86.5857 192.071 91.0776 192.013 90.3192C191.954 89.5608 191.429 88.4524 191.429 88.4524C191.429 88.4524 189.912 94.6944 190.204 91.7776C190.379 90.1442 190.846 87.0524 191.196 84.7189C191.138 84.7772 191.079 84.7772 191.021 84.7189C190.438 87.2274 189.679 89.9692 189.679 87.4607C189.679 85.5939 190.204 83.2021 190.904 80.927C190.904 80.6353 190.963 80.402 190.963 80.402L189.271 82.5604C189.271 82.5604 189.154 83.3188 189.037 84.3105C188.921 85.3023 188.804 86.5857 188.862 87.5774C188.921 89.6192 187.287 85.4773 187.287 85.4773C187.287 85.4773 186.879 88.1607 187.054 89.5025C187.171 90.9026 185.479 87.4024 185.479 87.4024C185.479 87.4024 184.37 92.711 183.962 94.1694C183.554 95.6278 183.204 84.6605 183.204 84.6605C183.204 84.6605 189.796 72.7015 193.821 71.1265C194.404 70.8931 195.046 70.7181 195.688 70.6014L195.979 69.5514L193.413 70.6014L194.579 67.6263C194.579 67.6263 192.713 69.0263 190.963 69.2597C189.271 69.493 192.129 66.2845 192.129 66.2845C192.129 66.2845 189.212 68.268 187.696 68.5013C186.237 68.793 190.321 65.2928 190.321 65.2928L187.637 65.6428C187.637 65.6428 187.054 66.1095 186.237 66.7512C185.479 67.3929 184.487 68.2096 183.787 68.968C182.387 70.4264 184.195 66.4012 184.195 66.4012C184.195 66.4012 182.037 68.0346 181.162 69.0847C180.287 70.1347 181.57 66.5179 181.57 66.5179C181.57 66.5179 177.02 69.4347 175.737 70.2514C174.628 70.8931 182.154 62.901 182.154 62.901ZM214.472 70.2514H214.18C214.297 70.6598 214.472 71.0098 214.589 71.4181C214.997 71.5348 215.406 71.6515 215.814 71.8265L214.472 70.2514ZM219.839 87.519C220.014 86.5273 220.131 85.7689 220.131 85.7689L219.839 85.0689C219.839 85.1856 219.839 85.3606 219.839 85.4773C219.722 86.7023 219.606 87.8691 219.489 89.0358C219.664 88.5108 219.781 87.9857 219.839 87.519Z" fill="#8260D0"/>
<path d="M251.633 111.146H142.66V188.442H251.633V111.146Z" fill="#6A44C5" stroke="#6A44C5" stroke-miterlimit="10"/>
<path d="M213.889 146.089H95.9324V188.616H213.889V146.089Z" fill="#CBB6FF" stroke="#6A44C5" stroke-miterlimit="10"/>
<path d="M213.889 146.089H95.9324V169.015H213.889V146.089Z" fill="white" stroke="#6A44C5" stroke-miterlimit="10"/>
<path d="M262.367 137.571H142.368V152.272H262.367V137.571Z" fill="#CBB6FF" stroke="#AE8FF7" stroke-miterlimit="10"/>
<path d="M262.95 130.396H258.516V188.616H262.95V130.396Z" fill="#CBB6FF" stroke="#6A44C5" stroke-miterlimit="10"/>
<path d="M243.057 111.146H134.084V138.797H243.057V111.146Z" fill="white" stroke="#263238" stroke-miterlimit="10"/>
<path d="M239.149 114.237H213.481V138.738H239.149V114.237Z" fill="white" stroke="#AE8FF7" stroke-miterlimit="10"/>
<path d="M223.748 130.396H219.314V188.616H223.748V130.396Z" fill="#AE8FF7" fill-opacity="0.5" stroke="#6A44C5" stroke-miterlimit="10"/>
<path d="M247.724 137.573H127.726V152.273H247.724V137.573Z" fill="white" stroke="#6A44C5" stroke-miterlimit="10"/>
<path d="M251.166 130.397H246.732V188.617H251.166V130.397Z" fill="#CBB6FF" stroke="#6A44C5" stroke-miterlimit="10"/>
<path d="M187.929 77.8933L136.71 111.087H252.683L187.929 77.8933Z" fill="#AE8FF7" stroke="#6A44C5" stroke-miterlimit="10"/>
<path d="M187.929 77.8933L129.943 111.087H245.857L187.929 77.8933Z" fill="#AE8FF7" stroke="#6A44C5" stroke-miterlimit="10"/>
<path d="M151.002 77.8933L98.0325 111.087H213.947L151.002 77.8933Z" fill="#AE8FF7" stroke="#6A44C5" stroke-miterlimit="10"/>
<path d="M212.197 111.146H103.224V138.797H212.197V111.146Z" fill="#6A44C5" stroke="#6A44C5" stroke-miterlimit="10"/>
<path d="M205.08 111.146H96.1074V138.797H205.08V111.146Z" fill="white" stroke="#6A44C5" stroke-miterlimit="10"/>
<path d="M205.08 111.146H96.1074V113.421H205.08V111.146Z" fill="#6A44C5" stroke="#6A44C5" stroke-miterlimit="10"/>
<path d="M146.16 116.162H101.649V138.738H146.16V116.162Z" fill="#AE8FF7" stroke="#AE8FF7" stroke-miterlimit="10"/>
<path d="M144.06 118.438H103.691V138.797H144.06V118.438Z" fill="white" stroke="#6A44C5" stroke-miterlimit="10"/>
<path d="M125.276 118.438H122.592V138.797H125.276V118.438Z" fill="#AE8FF7" stroke="#AE8FF7" stroke-miterlimit="10"/>
<path d="M146.16 156.298H101.649V188.616H146.16V156.298Z" fill="#AE8FF7" stroke="#AE8FF7" stroke-miterlimit="10"/>
<path d="M144.06 158.515H103.691V188.617H144.06V158.515Z" fill="white" stroke="#6A44C5" stroke-miterlimit="10"/>
<path d="M125.276 158.515H122.592V188.617H125.276V158.515Z" fill="#6A44C5" stroke="#AE8FF7" stroke-miterlimit="10"/>
<path d="M198.838 156.298H154.327V188.616H198.838V156.298Z" fill="#AE8FF7" stroke="#AE8FF7" stroke-miterlimit="10"/>
<path d="M196.796 158.515H156.427V188.617H196.796V158.515Z" fill="white" stroke="#6A44C5" stroke-miterlimit="10"/>
<path d="M177.953 158.515H175.27V188.617H177.953V158.515Z" fill="#AE8FF7" stroke="#AE8FF7" stroke-miterlimit="10"/>
<path d="M198.838 116.162H154.327V138.738H198.838V116.162Z" fill="#AE8FF7" stroke="#AE8FF7" stroke-miterlimit="10"/>
<path d="M196.796 118.438H156.427V138.797H196.796V118.438Z" fill="white" stroke="#6A44C5" stroke-miterlimit="10"/>
<path d="M177.953 118.438H175.27V138.797H177.953V118.438Z" fill="#AE8FF7" stroke="#AE8FF7" stroke-miterlimit="10"/>
<path d="M151.002 77.8933L93.0154 111.087H208.93L151.002 77.8933Z" fill="#AE8FF7" stroke="#6A44C5" stroke-miterlimit="10"/>
<path d="M221.648 137.571H90.4487V152.272H221.648V137.571Z" fill="#CBB6FF" stroke="#6A44C5" stroke-miterlimit="10"/>
<path d="M212.022 137.571H83.3315V152.272H212.022V137.571Z" fill="white" stroke="#6A44C5" stroke-miterlimit="10"/>
<path d="M213.889 130.396H209.455V188.616H213.889V130.396Z" fill="white" stroke="#6A44C5" stroke-miterlimit="10"/>
<path d="M83.5066 130.396H79.073V188.616H83.5066V130.396Z" fill="white" stroke="#6A44C5" stroke-miterlimit="10"/>
<path opacity="0.19" d="M346.869 215.055C354.347 209.613 361.107 203.585 363.873 196.738C364.59 194.983 364.898 193.11 365 191.296C353.322 190.418 343.693 191.296 315.728 196.621C282.334 203 267.788 199.781 234.906 195.861C201.921 191.94 177.541 192.466 141.278 196.329C104.913 200.25 84.4262 200.718 58.3048 196.329C32.1835 191.94 21.1203 192.408 -17.8056 194.105C-32.454 194.749 -41.4684 195.041 -47 195.1C-40.9562 202.883 -33.7857 210.315 -25.0786 217.045C13.1303 246.89 75.8215 262.105 138.513 264.622C214.316 267.723 296.675 251.806 346.869 215.055Z" fill="#948CDA"/>
<path d="M368 220.591C366.974 220.476 365.845 220.36 364.819 220.186C349.734 217.812 361.227 215.727 342.448 214.8C323.771 213.932 308.071 219.259 285.7 220.186C263.329 221.055 257.377 216.306 244.652 212.715C232.03 209.125 209.043 220.186 181.849 220.765C154.655 221.344 153.526 217.812 133.003 214.221C112.479 210.631 85.9006 224.066 63.0166 221.981C40.1325 219.897 31.6152 216.016 -0.915022 219.897C-6.25121 220.534 -11.2795 221.055 -16 221.576C-14.0502 223.255 -11.9979 224.935 -9.94549 226.556C28.3314 256.091 91.1342 271.148 153.937 273.638C229.978 276.65 312.483 260.898 362.766 224.529C364.614 223.255 366.358 221.923 368 220.591Z" fill="#C5B1F7"/>
<path d="M364 199.058C360.712 199.001 357.116 198.944 355.677 199.001C352.8 199.114 347.971 199.737 343.45 199.964C338.826 200.19 330.503 199.001 322.899 199.114C315.193 199.227 298.136 200.417 291.868 201.549C285.498 202.625 269.777 204.097 261.659 204.097C253.542 204.097 242.856 201.436 240.698 201.153C238.54 200.87 227.34 198.435 222.716 198.095C218.092 197.755 206.276 197.019 199.083 197.245C191.891 197.472 178.327 198.831 173.087 199.397C167.847 200.02 157.366 202.682 152.948 202.682C148.529 202.682 138.254 201.096 132.911 200.303C127.568 199.511 122.122 199.624 115.957 199.907C109.792 200.133 93.6599 201.832 88.4196 202.455C83.1792 203.078 64.5812 204.154 56.6693 203.927C48.7574 203.701 33.6529 200.926 33.6529 200.926C33.6529 200.926 14.541 197.529 8.58142 197.132C2.62181 196.792 -11.7634 197.132 -18.3396 197.868C-23.2716 198.435 -36.5266 200.247 -43 201.096C-39.6092 204.833 -35.9101 208.514 -31.8 212.025C-24.6074 211.232 -13.7157 209.987 -12.8937 209.93C-11.7634 209.817 2.0053 208.967 8.78692 208.741C15.5685 208.514 28.5153 210.213 28.5153 210.213C28.5153 210.213 49.2711 213.214 53.6895 212.988C58.1078 212.761 68.383 211.289 71.1573 210.836C74.0343 210.326 90.6801 206.476 94.3792 205.796C98.0783 205.06 107.12 204.324 112.977 204.607C118.937 204.834 133.528 208.854 136.199 209.194C138.871 209.534 150.687 211.855 162.504 211.629C174.32 211.402 189.219 208.967 189.219 208.967C189.219 208.967 212.441 204.494 216.551 203.644C220.661 202.795 225.491 202.908 229.601 203.701C233.608 204.437 238.746 206.929 243.061 208.118C247.479 209.307 254.467 210.893 263.817 211.006C273.27 211.119 286.525 209.703 291.149 209.081C295.773 208.458 316.323 205.57 320.022 205.343C323.721 205.117 333.791 206.306 336.668 206.646C339.545 206.985 340.367 208.118 341.086 208.571C341.703 209.081 344.58 210.043 347.662 210.609C348.895 210.836 350.848 211.062 353.108 211.232C357.732 207.438 361.739 203.418 364 199.058Z" fill="white"/>
<path d="M54.7143 234.003C54.7143 234.82 53.4309 235.52 51.7974 235.52C50.164 235.52 48.8806 234.82 48.8806 234.003C48.8806 233.187 50.164 232.487 51.7974 232.487C53.4309 232.545 54.7143 233.187 54.7143 234.003Z" fill="white" stroke="#263238" stroke-miterlimit="10"/>
<path d="M92.0816 75.3266C92.0816 75.3266 96.5152 79.7602 96.0485 85.4188C95.5235 91.0775 94.9985 96.5611 94.9985 96.5611L92.9567 89.0357C92.9567 89.0357 91.3816 93.3526 91.4983 92.4192C91.6149 91.4858 91.6733 86.4105 91.6733 86.4105C91.6733 86.4105 90.2149 89.7941 89.9815 88.1023C89.8648 87.1106 89.5732 85.6522 89.3398 84.5438C89.1648 83.727 89.0481 83.1437 89.0481 83.1437C89.0481 83.1437 88.2314 86.8772 87.473 85.5355C86.7147 84.1937 86.1896 81.2769 86.1896 81.2769C86.1896 81.2769 86.0146 84.8938 85.3146 83.3187C84.6729 81.7436 84.1479 79.2935 84.1479 79.2935C84.1479 79.2935 84.9062 85.3021 84.2645 87.5773C83.6228 89.8524 83.0978 85.6521 83.0978 85.6521C83.0978 85.6521 80.706 95.9194 80.356 94.111C80.006 92.3025 80.1226 85.8272 80.1226 85.8272C80.1226 85.8272 77.7892 91.5441 77.9058 89.9107C78.0225 88.2773 79.1892 85.0688 79.1892 85.0688C79.1892 85.0688 77.0308 89.619 77.1475 87.8689C77.2641 86.1188 78.4309 80.9852 78.4309 80.9852C78.4309 80.9852 73.7056 88.9773 73.2389 87.1689C72.7722 85.3605 74.464 81.9186 74.464 81.9186C74.464 81.9186 73.4723 86.4689 72.7722 85.3605C72.0722 84.2521 72.0722 84.2521 72.0722 84.2521C72.0722 84.2521 71.2555 88.9773 70.6721 87.7523C70.1471 86.4689 70.1471 86.4689 70.1471 86.4689C70.1471 86.4689 68.6303 90.9608 68.572 90.2024C68.5137 89.444 67.9886 88.3356 67.9886 88.3356C67.9886 88.3356 66.4719 94.5777 66.7636 91.6608C67.0552 88.744 68.2803 81.4519 68.2803 81.4519C68.2803 81.4519 66.2385 91.4275 66.2385 87.3439C66.2385 83.202 68.8637 76.2016 70.2054 74.5099C71.6055 72.8181 79.3643 64.1259 82.3978 63.2509C85.4896 62.3758 88.5814 66.051 89.6898 68.6179C90.7982 71.068 92.0816 75.3266 92.0816 75.3266Z" fill="#8260D0" stroke="#8260D0" stroke-miterlimit="10"/>
<path d="M69.3887 188.615H74.814C75.8057 182.723 80.0643 156.414 80.356 148.83C80.6476 140.313 79.1892 128.645 79.5392 107.119C79.8893 85.593 83.0978 70.0755 83.0978 70.0755L82.2227 67.1003C77.2058 87.8682 75.1057 120.128 76.2724 136.171C77.2058 151.28 70.2637 184.649 69.3887 188.615Z" fill="#AE8FF7" stroke="#6A44C5" stroke-miterlimit="10"/>
<path d="M83.1564 64.3584C83.1564 64.3584 83.4481 63.9501 82.6313 54.9079C81.8146 45.8074 75.806 42.5405 75.806 42.5405L77.1477 46.3324C77.1477 46.3324 73.3558 42.6572 73.8809 43.9406C74.4059 45.224 77.6144 48.0825 77.6144 48.0825C77.6144 48.0825 72.8891 45.9241 73.8225 47.4991C74.8142 49.0742 77.0894 51.5827 77.0894 51.5827C77.0894 51.5827 74.1725 49.9493 74.7559 51.2327C75.2809 52.5161 76.681 54.3829 76.681 54.3829C76.681 54.3829 73.8809 52.0494 73.9392 53.2745C73.9975 54.4995 77.031 59.9832 77.031 59.9832C77.031 59.9832 73.1225 57.008 74.2892 58.8748C75.4559 60.7416 79.1895 66.3419 80.6479 66.5752C82.1063 66.8086 83.273 66.9836 83.1564 64.3584Z" fill="#AE8FF7"/>
<path d="M80.0062 69.3747C80.0062 69.3747 79.8311 68.8497 83.273 60.4492C86.6565 52.0487 93.3652 50.5903 93.3652 50.5903L90.9734 53.8572C90.9734 53.8572 95.6404 51.407 94.7653 52.5154C93.8903 53.5655 89.9817 55.4323 89.9817 55.4323C89.9817 55.4323 95.1153 54.7322 93.7736 56.0156C92.3735 57.2407 89.4567 58.9908 89.4567 58.9908C89.4567 58.9908 92.7235 58.2908 91.7901 59.3408C90.9151 60.3909 88.99 61.8493 88.99 61.8493C88.99 61.8493 92.3152 60.3909 91.9068 61.5576C91.4985 62.7243 87.0065 67.0996 87.0065 67.0996C87.0065 67.0996 91.6151 65.3495 89.9234 66.8079C88.2899 68.2663 83.0397 72.5249 81.6396 72.3499C80.2978 72.1165 79.1311 71.9415 80.0062 69.3747Z" fill="#AE8FF7"/>
<path d="M85.1398 66.4C85.1398 66.4 89.1067 62.7831 93.3653 62.2581C97.6238 61.7331 109.116 69.1418 109.116 69.1418C109.116 69.1418 114.016 79.0007 112.966 77.8923C111.916 76.7839 108.416 72.642 108.416 72.642C108.416 72.642 108.591 76.4922 108.008 75.2088C107.483 73.9254 105.849 71.767 105.849 71.767C105.849 71.767 106.374 76.2005 105.441 74.3338C104.974 73.4004 104.274 72.3503 103.691 71.5336C103.107 70.7169 102.641 70.0752 102.641 70.0752L100.132 68.9668C100.132 68.9668 103.049 73.5171 101.707 72.817C100.366 72.117 98.0905 69.3752 98.0905 69.3752C98.0905 69.3752 99.899 73.2837 98.3239 72.5253C96.7488 71.8253 95.3487 69.9002 95.3487 69.9002L95.582 73.0504L93.4236 71.3003L93.3653 73.4587L91.9652 71.8253L90.5068 70.1335H88.815C88.815 70.1335 91.0318 74.5671 89.69 73.8671C88.3483 73.167 86.1899 69.9585 86.1899 69.9585L85.3731 72.2336C85.3731 72.2336 84.4981 66.8083 83.2147 68.7918C82.1646 70.9502 85.1398 66.4 85.1398 66.4Z" fill="#AE8FF7"/>
<path d="M86.5399 70.6587C86.5399 70.6587 91.9069 70.892 95.2904 73.5755C98.6739 76.2007 101.532 89.5598 101.532 89.5598C101.532 89.5598 98.0322 100.002 98.0905 98.4269C98.1489 96.9102 98.6156 91.5432 98.6156 91.5432C98.6156 91.5432 95.9904 94.4017 96.5155 93.1183C97.0405 91.8349 97.4488 89.1514 97.4488 89.1514C97.4488 89.1514 94.707 92.6516 95.3487 90.7265C95.6404 89.7348 95.9321 88.5097 96.1071 87.518C96.2821 86.5263 96.3988 85.7679 96.3988 85.7679L95.4071 83.2594C95.4071 83.2594 94.2987 88.568 93.832 87.1096C93.3653 85.6512 93.7153 82.151 93.7153 82.151C93.7153 82.151 92.2569 86.1762 91.6735 84.6011C91.0318 82.9677 91.3818 80.6343 91.3818 80.6343L89.3401 83.0844L89.0484 80.3426L87.4733 81.801L87.6483 79.6425L87.8233 77.4257L86.6566 76.2007C86.6566 76.2007 85.1398 80.9259 84.6148 79.4675C84.1481 78.0091 84.8481 74.2172 84.8481 74.2172L82.6313 75.2673C82.6313 75.2673 85.8399 70.7754 83.5647 71.3004C81.2313 71.7671 86.5399 70.6587 86.5399 70.6587Z" fill="#AE8FF7"/>
<path d="M82.1062 67.1588C82.1062 67.1588 79.3644 62.5502 75.3975 60.8584C71.4889 59.1083 58.3632 62.9002 58.3632 62.9002C58.3632 62.9002 50.8378 70.8923 52.1795 70.1339C53.5213 69.3756 58.0132 66.4004 58.0132 66.4004C58.0132 66.4004 56.7298 70.0756 57.6048 68.9672C58.4799 67.9172 60.6383 66.2837 60.6383 66.2837C60.6383 66.2837 58.8299 70.3673 60.23 68.8505C60.93 68.0922 61.9217 67.2755 62.6801 66.6337C63.4385 65.992 64.0802 65.5254 64.0802 65.5254L66.7637 65.1753C66.7637 65.1753 62.6218 68.6755 64.1385 68.3838C65.5969 68.0922 68.5721 66.1671 68.5721 66.1671C68.5721 66.1671 65.7136 69.3756 67.4054 69.1422C69.0971 68.9089 71.0222 67.5088 71.0222 67.5088L69.8555 70.484L72.4223 69.4339L71.8973 71.534L73.7057 70.3673L75.6308 69.1422L77.2643 69.6089C77.2643 69.6089 73.8224 73.2258 75.3392 72.9341C76.7976 72.6424 79.8311 70.2506 79.8311 70.2506L79.9478 72.7008C79.9478 72.7008 82.3396 67.7421 82.9813 70.0173C83.623 72.3507 82.1062 67.1588 82.1062 67.1588Z" fill="#AE8FF7"/>
<path d="M79.5395 70.8337C79.5395 70.8337 74.3476 69.5503 70.3223 71.0671C66.2971 72.6422 59.7051 84.6012 59.7051 84.6012C59.7051 84.6012 60.0551 95.5685 60.4635 94.11C60.8718 92.6516 61.9802 87.343 61.9802 87.343C61.9802 87.343 63.672 90.8432 63.5553 89.4431C63.4386 88.043 63.7886 85.4179 63.7886 85.4179C63.7886 85.4179 65.3637 89.5598 65.3637 87.518C65.3637 86.4679 65.4221 85.2429 65.5387 84.2512C65.6554 83.2594 65.7721 82.5011 65.7721 82.5011L67.4638 80.3426C67.4638 80.3426 66.9972 85.7096 67.8722 84.4845C68.7473 83.2594 69.4473 79.7592 69.4473 79.7592C69.4473 79.7592 69.6806 84.0761 70.7307 82.6761C71.7808 81.276 72.1308 78.9425 72.1308 78.9425L73.4142 81.8594L74.4642 79.2925L75.5726 81.1593L76.0393 79.0592L76.5644 76.8424L78.0228 76.0257C78.0228 76.0257 78.1394 80.9843 79.0145 79.7592C79.8895 78.5342 80.2979 74.684 80.2979 74.684L82.1063 76.3174C82.1063 76.3174 80.2979 71.1254 82.3397 72.2922C84.3231 73.4589 79.5395 70.8337 79.5395 70.8337Z" fill="#AE8FF7"/>
<path d="M40.9791 75.3266C40.9791 75.3266 36.5455 79.7602 37.0122 85.4188C37.5372 91.0775 38.0623 96.5611 38.0623 96.5611L40.104 89.0357C40.104 89.0357 41.6791 93.3526 41.5625 92.4192C41.4458 91.4858 41.3874 86.4105 41.3874 86.4105C41.3874 86.4105 42.8459 89.7941 43.0792 88.1023C43.1959 87.1106 43.4876 85.6522 43.7209 84.5438C43.8959 83.727 44.0126 83.1437 44.0126 83.1437C44.0126 83.1437 44.8293 86.8772 45.5877 85.5355C46.3461 84.1937 46.8711 81.2769 46.8711 81.2769C46.8711 81.2769 47.0461 84.8938 47.7461 83.3187C48.3878 81.7436 48.9129 79.2935 48.9129 79.2935C48.9129 79.2935 48.1545 85.3021 48.7962 87.5773C49.4379 89.8524 49.9629 85.6521 49.9629 85.6521C49.9629 85.6521 52.3547 95.9194 52.7047 94.111C53.0548 92.3025 52.9381 85.8272 52.9381 85.8272C52.9381 85.8272 55.2716 91.5441 55.1549 89.9107C55.0382 88.2773 53.8715 85.0688 53.8715 85.0688C53.8715 85.0688 56.0299 89.619 55.9133 87.8689C55.7966 86.1188 54.6299 80.9852 54.6299 80.9852C54.6299 80.9852 59.3551 88.9773 59.8218 87.1689C60.2885 85.3605 58.5967 81.9186 58.5967 81.9186C58.5967 81.9186 59.5885 86.4689 60.2885 85.3605C60.9885 84.2521 60.9885 84.2521 60.9885 84.2521C60.9885 84.2521 61.8053 88.9773 62.3886 87.7523C62.9137 86.4689 62.9137 86.4689 62.9137 86.4689C62.9137 86.4689 64.4304 90.9608 64.4887 90.2024C64.5471 89.444 65.0721 88.3356 65.0721 88.3356C65.0721 88.3356 66.5889 94.5777 66.2972 91.6608C66.0055 88.744 64.7804 81.4519 64.7804 81.4519C64.7804 81.4519 66.8222 91.4275 66.8222 87.3439C66.8222 83.202 64.1971 76.2016 62.8553 74.5099C61.4552 72.8181 53.6965 64.1259 50.663 63.2509C47.5711 62.3758 44.4793 66.051 43.3709 68.6179C42.2625 71.068 40.9791 75.3266 40.9791 75.3266Z" fill="#8260D0" stroke="#8260D0" stroke-miterlimit="10"/>
<path d="M52.7631 148.83C53.0548 156.414 57.3133 182.723 58.305 188.615H63.672C62.8553 184.649 55.8549 151.222 56.905 136.171C58.0134 120.128 55.9716 87.8682 50.9546 67.1003L50.0796 70.0755C50.0796 70.0755 53.2881 85.593 53.6381 107.119C53.9881 128.645 52.4714 140.313 52.7631 148.83Z" fill="#AE8FF7" stroke="#6A44C5" stroke-miterlimit="10"/>
<path d="M49.9044 64.3584C49.9044 64.3584 49.6127 63.9501 50.4294 54.9079C51.2461 45.8657 57.3131 42.5405 57.3131 42.5405L55.9714 46.3324C55.9714 46.3324 59.7633 42.6572 59.2383 43.9406C58.7132 45.224 55.5047 48.0825 55.5047 48.0825C55.5047 48.0825 60.23 45.9241 59.2966 47.4991C58.3049 49.0742 56.0297 51.5827 56.0297 51.5827C56.0297 51.5827 58.9466 49.9493 58.3632 51.2327C57.8382 52.5161 56.4381 54.3829 56.4381 54.3829C56.4381 54.3829 59.2383 52.0494 59.1799 53.2745C59.0632 54.5579 56.0297 60.0415 56.0297 60.0415C56.0297 60.0415 59.9383 57.0663 58.7716 58.9331C57.6048 60.7999 53.8713 66.4002 52.4129 66.6335C51.0128 66.8086 49.7877 66.9836 49.9044 64.3584Z" fill="#AE8FF7"/>
<path d="M53.0547 69.3747C53.0547 69.3747 53.2297 68.8497 49.7879 60.4492C46.4044 52.0487 39.6956 50.5903 39.6956 50.5903L42.0875 53.8572C42.0875 53.8572 37.4205 51.407 38.2956 52.5154C39.1706 53.5655 43.0792 55.4323 43.0792 55.4323C43.0792 55.4323 37.9456 54.7322 39.2873 56.0156C40.6874 57.2407 43.6042 58.9908 43.6042 58.9908C43.6042 58.9908 40.3374 58.2908 41.2707 59.3408C42.1458 60.3909 44.0709 61.8493 44.0709 61.8493C44.0709 61.8493 40.7457 60.3909 41.1541 61.5576C41.5624 62.7243 46.0543 67.0996 46.0543 67.0996C46.0543 67.0996 41.4457 65.3495 43.1375 66.8079C44.7709 68.2663 50.0212 72.5249 51.4213 72.3499C52.7631 72.1165 53.9298 71.9415 53.0547 69.3747Z" fill="#AE8FF7"/>
<path d="M47.9211 66.4C47.9211 66.4 43.9542 62.7831 39.6956 62.2581C35.4371 61.7331 23.9447 69.1418 23.9447 69.1418C23.9447 69.1418 19.0445 79.0007 20.0945 77.8923C21.1446 76.7839 24.6448 72.642 24.6448 72.642C24.6448 72.642 24.4698 76.4922 25.0531 75.2088C25.5782 73.9254 27.2116 71.767 27.2116 71.767C27.2116 71.767 26.6866 76.2005 27.62 74.3338C28.0866 73.4004 28.7867 72.3503 29.3701 71.5336C29.9534 70.7169 30.4201 70.0752 30.4201 70.0752L32.9286 68.9668C32.9286 68.9668 30.0118 73.5171 31.3535 72.817C32.6952 72.117 34.9704 69.3752 34.9704 69.3752C34.9704 69.3752 33.1619 73.2837 34.737 72.5253C36.3121 71.8253 37.7122 69.9002 37.7122 69.9002L37.4788 73.0504L39.6373 71.3003L39.6956 73.4587L41.0957 71.8253L42.5541 70.1335H44.2459C44.2459 70.1335 42.0291 74.5671 43.3708 73.8671C44.7126 73.167 46.871 69.9585 46.871 69.9585L47.6877 72.2336C47.6877 72.2336 48.5628 66.8083 49.8462 68.7918C50.8963 70.9502 47.9211 66.4 47.9211 66.4Z" fill="#AE8FF7"/>
<path d="M46.5211 70.6587C46.5211 70.6587 41.1541 70.892 37.7706 73.5755C34.3871 76.2007 31.5286 89.5598 31.5286 89.5598C31.5286 89.5598 35.0288 100.002 34.9704 98.4269C34.9121 96.9102 34.4454 91.5432 34.4454 91.5432C34.4454 91.5432 37.0705 94.4017 36.5455 93.1183C36.0205 91.8349 35.6121 89.1514 35.6121 89.1514C35.6121 89.1514 38.3539 92.6516 37.7122 90.7265C37.4206 89.7348 37.1289 88.5097 36.9539 87.518C36.7789 86.5263 36.6622 85.7679 36.6622 85.7679L37.6539 83.2594C37.6539 83.2594 38.7623 88.568 39.229 87.1096C39.6957 85.6512 39.3457 82.151 39.3457 82.151C39.3457 82.151 40.8041 86.1762 41.3875 84.6011C42.0292 82.9677 41.6791 80.6343 41.6791 80.6343L43.7209 83.0844L44.0126 80.3426L45.5877 81.801L45.4127 79.6425L45.2377 77.4257L46.4044 76.2007C46.4044 76.2007 47.9212 80.9259 48.4462 79.4675C48.9129 78.0091 48.2128 74.2172 48.2128 74.2172L50.4296 75.2673C50.4296 75.2673 47.2211 70.7754 49.4962 71.3004C51.8297 71.7671 46.5211 70.6587 46.5211 70.6587Z" fill="#AE8FF7"/>
<path d="M50.9545 67.1588C50.9545 67.1588 53.6963 62.5502 57.6632 60.8584C61.5718 59.1083 74.6975 62.9002 74.6975 62.9002C74.6975 62.9002 82.2229 70.8923 80.8812 70.1339C79.5394 69.3756 75.0475 66.4004 75.0475 66.4004C75.0475 66.4004 76.3309 70.0756 75.4559 68.9672C74.5808 67.9172 72.4224 66.2837 72.4224 66.2837C72.4224 66.2837 74.2308 70.3673 72.8307 68.8505C72.1307 68.0922 71.139 67.2755 70.3806 66.6337C69.6222 65.992 68.9805 65.5254 68.9805 65.5254L66.1803 65.292C66.1803 65.292 70.3223 68.7922 68.8055 68.5005C67.3471 68.2088 64.3719 66.2837 64.3719 66.2837C64.3719 66.2837 67.2304 69.4922 65.5386 69.2589C63.8469 69.0256 61.9218 67.6255 61.9218 67.6255L63.0885 70.6006L60.5217 69.5506L61.0467 71.6507L59.2383 70.484L57.3132 69.2589L55.6798 69.7256C55.6798 69.7256 59.1216 73.3425 57.6049 73.0508C56.1465 72.7591 53.113 70.3673 53.113 70.3673L52.9963 72.8174C52.9963 72.8174 50.6045 67.8588 49.9628 70.1339C49.4377 72.3507 50.9545 67.1588 50.9545 67.1588Z" fill="#AE8FF7"/>
<path d="M53.5213 70.8337C53.5213 70.8337 58.7133 69.5503 62.7385 71.0671C66.7637 72.6422 73.3557 84.6012 73.3557 84.6012C73.3557 84.6012 73.0057 95.5685 72.5974 94.11C72.189 92.6516 71.0806 87.343 71.0806 87.343C71.0806 87.343 69.3889 90.8432 69.5055 89.4431C69.6222 88.043 69.2722 85.4179 69.2722 85.4179C69.2722 85.4179 67.6971 89.5598 67.6971 87.518C67.6971 86.4679 67.6388 85.2429 67.5221 84.2512C67.4054 83.2594 67.2887 82.5011 67.2887 82.5011L65.597 80.3426C65.597 80.3426 66.0637 85.7096 65.1886 84.4845C64.3136 83.2594 63.6135 79.7592 63.6135 79.7592C63.6135 79.7592 63.3802 84.0761 62.3301 82.6761C61.2801 81.276 60.93 78.9425 60.93 78.9425L59.6466 81.8594L58.5966 79.2925L57.4882 81.1593L57.0215 79.0592L56.4965 76.8424L55.0381 76.0257C55.0381 76.0257 54.9214 80.9843 54.0463 79.7592C53.1713 78.5342 52.7629 74.684 52.7629 74.684L50.9545 76.3174C50.9545 76.3174 52.7629 71.1254 50.7211 72.2922C48.7377 73.4589 53.5213 70.8337 53.5213 70.8337Z" fill="#AE8FF7"/>
<path d="M282.259 75.3266C282.259 75.3266 286.226 79.7602 285.059 85.4188C283.951 91.0775 282.726 96.5611 282.726 96.5611L281.559 89.0357C281.559 89.0357 279.459 93.3526 279.693 92.4192C279.926 91.4858 280.509 86.4105 280.509 86.4105C280.509 86.4105 278.642 89.7941 278.642 88.1023C278.642 87.1106 278.467 85.6522 278.409 84.5438C278.351 83.727 278.234 83.1437 278.234 83.1437C278.234 83.1437 277.009 86.8772 276.426 85.5355C275.784 84.1937 275.609 81.2769 275.609 81.2769C275.609 81.2769 275.026 84.8938 274.501 83.3187C274.034 81.7436 273.801 79.2935 273.801 79.2935C273.801 79.2935 273.859 85.3021 272.984 87.5773C272.109 89.8524 271.992 85.6521 271.992 85.6521C271.992 85.6521 268.434 95.9194 268.317 94.111C268.2 92.3025 269.017 85.8272 269.017 85.8272C269.017 85.8272 266.042 91.5441 266.333 89.9107C266.625 88.2773 268.2 85.0688 268.2 85.0688C268.2 85.0688 265.575 89.619 265.867 87.8689C266.158 86.1188 267.967 80.9852 267.967 80.9852C267.967 80.9852 262.367 88.9773 262.075 87.1689C261.842 85.3605 263.883 81.9186 263.883 81.9186C263.883 81.9186 262.425 86.4689 261.842 85.3605C261.258 84.2521 261.258 84.2521 261.258 84.2521C261.258 84.2521 259.858 88.9773 259.45 87.7523C259.041 86.4689 259.041 86.4689 259.041 86.4689C259.041 86.4689 257 90.9608 257.058 90.2024C257.116 89.444 256.65 88.3356 256.65 88.3356C256.65 88.3356 254.433 94.5777 255.016 91.6608C255.6 88.744 257.7 81.4519 257.7 81.4519C257.7 81.4519 254.491 91.4275 255.016 87.3439C255.483 83.202 258.866 76.2016 260.441 74.5099C262.017 72.8181 270.767 64.1259 273.917 63.2509C277.067 62.3758 279.809 66.051 280.626 68.6179C281.443 71.068 282.259 75.3266 282.259 75.3266Z" fill="#8260D0" stroke="#8260D0" stroke-miterlimit="10"/>
<path d="M246.849 188.615H252.216C253.849 182.723 261.083 156.414 262.192 148.83C263.475 140.313 263.3 128.645 266.042 107.119C268.784 85.593 273.742 70.0755 273.742 70.0755L273.159 67.1003C265.808 87.8682 260.091 120.128 259.45 136.171C258.866 151.28 248.132 184.649 246.849 188.615Z" fill="#AE8FF7" stroke="#6A44C5" stroke-miterlimit="10"/>
<path d="M274.559 64.3584C274.559 64.3584 274.909 63.9501 275.084 54.9079C275.259 45.8074 269.659 42.5405 269.659 42.5405L270.592 46.3324C270.592 46.3324 267.208 42.6572 267.617 43.9406C268.025 45.224 270.884 48.0825 270.884 48.0825C270.884 48.0825 266.392 45.9241 267.15 47.4991C267.967 49.0742 269.95 51.5827 269.95 51.5827C269.95 51.5827 267.267 49.9493 267.617 51.2327C268.025 52.5161 269.192 54.3829 269.192 54.3829C269.192 54.3829 266.683 52.0494 266.567 53.2745C266.508 54.4995 268.9 59.9832 268.9 59.9832C268.9 59.9832 265.342 57.008 266.275 58.8748C267.267 60.7416 270.359 66.3419 271.759 66.5752C273.217 66.8086 274.384 66.9836 274.559 64.3584Z" fill="#AE8FF7"/>
<path d="M270.825 69.3747C270.825 69.3747 270.709 68.8497 275.084 60.4492C279.459 52.0487 286.285 50.5903 286.285 50.5903L283.485 53.8572C283.485 53.8572 288.443 51.407 287.451 52.5154C286.46 53.5655 282.376 55.4323 282.376 55.4323C282.376 55.4323 287.626 54.7322 286.11 56.0156C284.593 57.2407 281.501 58.9908 281.501 58.9908C281.501 58.9908 284.826 58.2908 283.835 59.3408C282.843 60.3909 280.801 61.8493 280.801 61.8493C280.801 61.8493 284.301 60.3909 283.776 61.5576C283.251 62.7243 278.234 67.0996 278.234 67.0996C278.234 67.0996 283.018 65.3495 281.209 66.8079C279.401 68.2663 273.684 72.5249 272.284 72.3499C270.825 72.1165 269.659 71.9415 270.825 69.3747Z" fill="#AE8FF7"/>
<path d="M276.309 66.4C276.309 66.4 280.684 62.7831 285.001 62.2581C289.318 61.7331 299.994 69.1418 299.994 69.1418C299.994 69.1418 303.786 79.0007 302.852 77.8923C301.919 76.7839 298.885 72.642 298.885 72.642C298.885 72.642 298.594 76.4922 298.185 75.2088C297.777 73.9254 296.435 71.767 296.435 71.767C296.435 71.767 296.494 76.2005 295.735 74.3338C295.385 73.4004 294.802 72.3503 294.335 71.5336C293.868 70.7169 293.46 70.0752 293.46 70.0752L291.068 68.9668C291.068 68.9668 293.518 73.5171 292.235 72.817C290.952 72.117 289.026 69.3752 289.026 69.3752C289.026 69.3752 290.426 73.2837 288.91 72.5253C287.393 71.8253 286.226 69.9002 286.226 69.9002L286.11 73.0504L284.184 71.3003L283.893 73.4587L282.668 71.8253L281.384 70.1335H279.693C279.693 70.1335 281.443 74.5671 280.159 73.8671C278.876 73.167 277.067 69.9585 277.067 69.9585L276.017 72.2336C276.017 72.2336 275.726 66.8083 274.267 68.7918C272.809 70.9502 276.309 66.4 276.309 66.4Z" fill="#AE8FF7"/>
<path d="M277.242 70.6587C277.242 70.6587 282.551 70.892 285.643 73.5755C288.735 76.2007 290.135 89.5598 290.135 89.5598C290.135 89.5598 285.468 100.002 285.701 98.4269C285.935 96.9102 286.985 91.5432 286.985 91.5432C286.985 91.5432 284.009 94.4017 284.709 93.1183C285.41 91.8349 286.051 89.1514 286.051 89.1514C286.051 89.1514 282.901 92.6516 283.776 90.7265C284.184 89.7348 284.593 88.5097 284.885 87.518C285.176 86.5263 285.351 85.7679 285.351 85.7679L284.651 83.2594C284.651 83.2594 282.959 88.568 282.609 87.1096C282.318 85.6512 283.018 82.151 283.018 82.151C283.018 82.151 281.093 86.1762 280.684 84.6011C280.276 82.9677 280.859 80.6343 280.859 80.6343L278.526 83.0844L278.584 80.3426L276.834 81.801L277.242 79.6425L277.651 77.4257L276.601 76.2007C276.601 76.2007 274.501 80.9259 274.209 79.4675C273.917 78.0091 275.084 74.2172 275.084 74.2172L272.75 75.2673C272.75 75.2673 276.484 70.7754 274.092 71.3004C271.759 71.7671 277.242 70.6587 277.242 70.6587Z" fill="#AE8FF7"/>
<path d="M273.217 67.1588C273.217 67.1588 271 62.5502 267.267 60.8584C263.533 59.1083 249.999 62.9002 249.999 62.9002C249.999 62.9002 241.599 70.8923 242.999 70.1339C244.399 69.3756 249.241 66.4004 249.241 66.4004C249.241 66.4004 247.549 70.0756 248.541 68.9672C249.533 67.9172 251.866 66.2837 251.866 66.2837C251.866 66.2837 249.591 70.3673 251.166 68.8505C251.983 68.0922 253.033 67.2755 253.849 66.6337C254.724 65.992 255.366 65.5254 255.366 65.5254L258.108 65.1753C258.108 65.1753 253.616 68.6755 255.075 68.3838C256.591 68.0922 259.741 66.1671 259.741 66.1671C259.741 66.1671 256.533 69.3756 258.225 69.1422C259.975 68.9089 262.017 67.5088 262.017 67.5088L260.5 70.484L263.183 69.4339L262.425 71.534L264.35 70.3673L266.392 69.1422L267.967 69.6089C267.967 69.6089 264.117 73.2258 265.633 72.9341C267.15 72.6424 270.417 70.2506 270.417 70.2506L270.242 72.7008C270.242 72.7008 273.217 67.7421 273.567 70.0173C274.151 72.3507 273.217 67.1588 273.217 67.1588Z" fill="#AE8FF7"/>
<path d="M270.242 70.8337C270.242 70.8337 265.225 69.5503 261.025 71.0671C256.825 72.6422 248.891 84.6012 248.891 84.6012C248.891 84.6012 248.016 95.5685 248.541 94.11C249.066 92.6516 250.816 87.343 250.816 87.343C250.816 87.343 252.099 90.8432 252.158 89.4431C252.158 88.043 252.858 85.4179 252.858 85.4179C252.858 85.4179 253.966 89.5598 254.199 87.518C254.316 86.4679 254.549 85.2429 254.783 84.2512C255.016 83.2594 255.191 82.5011 255.191 82.5011L257.116 80.3426C257.116 80.3426 256.066 85.7096 257.058 84.4845C258.05 83.2594 259.158 79.7592 259.158 79.7592C259.158 79.7592 258.866 84.0761 260.091 82.6761C261.317 81.276 261.9 78.9425 261.9 78.9425L262.833 81.8594L264.175 79.2925L265.05 81.1593L265.75 79.0592L266.508 76.8424L268.084 76.0257C268.084 76.0257 267.617 80.9843 268.667 79.7592C269.659 78.5342 270.475 74.684 270.475 74.684L272.109 76.3174C272.109 76.3174 270.884 71.1254 272.809 72.2922C274.676 73.4589 270.242 70.8337 270.242 70.8337Z" fill="#AE8FF7"/>
<path d="M219.781 75.3263C219.781 75.3263 215.347 79.7599 215.814 85.4186C216.339 91.0772 216.864 96.5609 216.864 96.5609L218.906 89.0354C218.906 89.0354 220.481 93.3523 220.364 92.419C220.247 91.4856 220.189 86.4103 220.189 86.4103C220.189 86.4103 221.647 89.7938 221.881 88.102C221.997 87.1103 222.289 85.6519 222.522 84.5435C222.697 83.7268 222.814 83.1434 222.814 83.1434C222.814 83.1434 223.631 86.877 224.389 85.5352C225.148 84.1935 225.673 81.2767 225.673 81.2767C225.673 81.2767 225.848 84.8935 226.548 83.3184C227.189 81.7434 227.714 79.2932 227.714 79.2932C227.714 79.2932 226.956 85.3019 227.598 87.577C228.239 89.8521 228.764 85.6519 228.764 85.6519C228.764 85.6519 231.156 95.9191 231.506 94.1107C231.856 92.3023 231.74 85.8269 231.74 85.8269C231.74 85.8269 234.073 91.5439 233.956 89.9105C233.84 88.2771 232.673 85.0685 232.673 85.0685C232.673 85.0685 234.831 89.6188 234.715 87.8687C234.598 86.1186 233.431 80.985 233.431 80.985C233.431 80.985 238.157 88.9771 238.623 87.1687C239.09 85.3602 237.398 81.9184 237.398 81.9184C237.398 81.9184 238.39 86.4686 239.09 85.3602C239.79 84.2518 239.79 84.2518 239.79 84.2518C239.79 84.2518 240.607 88.9771 241.19 87.752C241.715 86.4686 241.715 86.4686 241.715 86.4686C241.715 86.4686 243.232 90.9605 243.29 90.2022C243.349 89.4438 243.874 88.3354 243.874 88.3354C243.874 88.3354 245.39 94.5774 245.099 91.6606C244.807 88.7437 243.582 81.4517 243.582 81.4517C243.582 81.4517 245.624 91.4272 245.624 87.3437C245.624 83.2018 242.999 76.2014 241.657 74.5096C240.257 72.8179 232.498 64.1257 229.464 63.2507C226.373 62.3756 223.281 66.0508 222.172 68.6176C221.064 71.0678 219.781 75.3263 219.781 75.3263Z" fill="#8260D0" stroke="#8260D0" stroke-miterlimit="10"/>
<path d="M231.565 148.831C231.856 156.414 236.115 182.724 237.107 188.616H242.474C241.657 184.649 234.656 151.222 235.706 136.172C236.815 120.129 234.773 87.8689 229.756 67.1011L228.881 70.0762C228.881 70.0762 232.09 85.5938 232.44 107.12C232.731 128.705 231.273 140.314 231.565 148.831Z" fill="#AE8FF7" stroke="#6A44C5" stroke-miterlimit="10"/>
<path d="M228.706 64.3594C228.706 64.3594 228.414 63.9511 229.231 54.9089C230.048 45.8667 236.115 42.5999 236.115 42.5999L234.773 46.3917C234.773 46.3917 238.565 42.7165 238.04 43.9999C237.515 45.2833 234.306 48.1418 234.306 48.1418C234.306 48.1418 239.032 45.9834 238.098 47.5585C237.107 49.1336 234.831 51.642 234.831 51.642C234.831 51.642 237.748 50.0086 237.165 51.292C236.64 52.5754 235.24 54.4422 235.24 54.4422C235.24 54.4422 238.04 52.1087 237.982 53.3338C237.923 54.5589 234.89 60.0425 234.89 60.0425C234.89 60.0425 238.798 57.0673 237.632 58.9341C236.465 60.8009 232.731 66.4012 231.273 66.6345C229.814 66.8095 228.648 66.9846 228.706 64.3594Z" fill="#AE8FF7"/>
<path d="M231.915 69.3769C231.915 69.3769 232.09 68.8519 228.648 60.4514C225.264 52.0509 218.556 50.5925 218.556 50.5925L220.947 53.8594C220.947 53.8594 216.28 51.4092 217.155 52.5176C218.03 53.5677 221.939 55.4345 221.939 55.4345C221.939 55.4345 216.805 54.7344 218.147 56.0178C219.547 57.2429 222.464 58.993 222.464 58.993C222.464 58.993 219.197 58.293 220.131 59.343C221.006 60.3931 222.931 61.8515 222.931 61.8515C222.931 61.8515 219.606 60.3931 220.014 61.5598C220.422 62.7265 224.914 67.1018 224.914 67.1018C224.914 67.1018 220.306 65.3517 221.997 66.8101C223.631 68.2685 228.881 72.5271 230.281 72.3521C231.565 72.1187 232.731 71.9437 231.915 69.3769Z" fill="#AE8FF7"/>
<path d="M226.723 66.4012C226.723 66.4012 222.756 62.7843 218.497 62.2593C214.239 61.7343 202.746 69.143 202.746 69.143C202.746 69.143 197.846 79.0019 198.896 77.8935C199.946 76.7851 203.446 72.6432 203.446 72.6432C203.446 72.6432 203.271 76.4934 203.855 75.21C204.38 73.9266 206.013 71.7682 206.013 71.7682C206.013 71.7682 205.488 76.2018 206.421 74.335C206.888 73.4016 207.588 72.3515 208.172 71.5348C208.755 70.7181 209.222 70.0764 209.222 70.0764L211.73 68.968C211.73 68.968 208.813 73.5183 210.155 72.8182C211.497 72.1182 213.772 69.3764 213.772 69.3764C213.772 69.3764 211.963 73.2849 213.539 72.5266C215.114 71.8265 216.514 69.9014 216.514 69.9014L216.28 73.0516L218.439 71.3015L218.497 73.4599L219.897 71.8265L221.356 70.1348H223.047C223.047 70.1348 220.831 74.5683 222.172 73.8683C223.514 73.1683 225.673 69.9597 225.673 69.9597L226.489 72.2349C226.489 72.2349 227.364 66.8096 228.648 68.793C229.698 70.9515 226.723 66.4012 226.723 66.4012Z" fill="#AE8FF7"/>
<path d="M225.381 70.6599C225.381 70.6599 220.014 70.8933 216.63 73.5767C213.247 76.2019 210.388 89.561 210.388 89.561C210.388 89.561 213.889 100.003 213.83 98.4281C213.772 96.9114 213.305 91.5444 213.305 91.5444C213.305 91.5444 215.93 94.4029 215.405 93.1195C214.88 91.8361 214.472 89.1526 214.472 89.1526C214.472 89.1526 217.214 92.6528 216.572 90.7277C216.28 89.736 215.989 88.5109 215.814 87.5192C215.639 86.5275 215.522 85.7691 215.522 85.7691L216.514 83.2606C216.514 83.2606 217.622 88.5693 218.089 87.1108C218.556 85.6524 218.206 82.1522 218.206 82.1522C218.206 82.1522 219.664 86.1775 220.247 84.6024C220.889 82.9689 220.539 80.6355 220.539 80.6355L222.581 83.0856L222.872 80.3438L224.448 81.8022L224.273 79.6438L224.098 77.427L225.264 76.2019C225.264 76.2019 226.781 80.9272 227.306 79.4687C227.773 78.0103 227.073 74.2184 227.073 74.2184L229.289 75.2685C229.289 75.2685 226.081 70.7766 228.356 71.3016C230.69 71.7683 225.381 70.6599 225.381 70.6599Z" fill="#AE8FF7"/>
<path d="M229.756 67.159C229.756 67.159 232.498 62.5504 236.465 60.8587C240.373 59.1086 253.499 62.9004 253.499 62.9004C253.499 62.9004 261.025 70.8926 259.683 70.1342C258.341 69.3758 253.849 66.4006 253.849 66.4006C253.849 66.4006 255.133 70.0759 254.257 68.9675C253.382 67.9174 251.224 66.284 251.224 66.284C251.224 66.284 253.032 70.3675 251.632 68.8508C250.932 68.0924 249.941 67.2757 249.182 66.634C248.424 65.9923 247.782 65.5256 247.782 65.5256L245.099 65.1756C245.099 65.1756 249.241 68.6758 247.724 68.3841C246.265 68.0924 243.29 66.1673 243.29 66.1673C243.29 66.1673 246.149 69.3758 244.457 69.1425C242.765 68.9091 240.84 67.509 240.84 67.509L242.007 70.4842L239.44 69.4341L239.965 71.5343L238.157 70.3675L236.231 69.1425L234.598 69.6092C234.598 69.6092 238.04 73.226 236.523 72.9343C235.065 72.6427 232.031 70.2509 232.031 70.2509L231.915 72.701C231.915 72.701 229.523 67.7424 228.881 70.0175C228.239 72.351 229.756 67.159 229.756 67.159Z" fill="#AE8FF7"/>
<path d="M232.323 70.835C232.323 70.835 237.515 69.5516 241.54 71.0683C245.565 72.6434 252.157 84.6024 252.157 84.6024C252.157 84.6024 251.807 95.5697 251.399 94.1113C250.991 92.6528 249.882 87.3442 249.882 87.3442C249.882 87.3442 248.19 90.8444 248.307 89.4443C248.424 88.0443 248.074 85.4191 248.074 85.4191C248.074 85.4191 246.499 89.561 246.499 87.5192C246.499 86.4692 246.44 85.2441 246.324 84.2524C246.207 83.2607 246.09 82.5023 246.09 82.5023L244.399 80.3438C244.399 80.3438 244.865 85.7108 243.99 84.4857C243.115 83.2606 242.415 79.7605 242.415 79.7605C242.415 79.7605 242.182 84.0774 241.132 82.6773C240.082 81.2772 239.732 78.9437 239.732 78.9437L238.448 81.8606L237.398 79.2938L236.29 81.1605L235.823 79.0604L235.298 76.8436L233.84 76.0269C233.84 76.0269 233.723 80.9855 232.848 79.7605C231.973 78.5354 231.565 74.6852 231.565 74.6852L229.756 76.3186C229.756 76.3186 231.565 71.1266 229.523 72.2934C227.539 73.4601 232.323 70.835 232.323 70.835Z" fill="#AE8FF7"/>
<path d="M119.208 184.767H129.417L131.693 174.383H121.484L119.208 184.767Z" fill="#CBB6FF" stroke="#6A44C5" stroke-miterlimit="10"/>
<path d="M113.55 186.459H112.325V188.617H113.55V186.459Z" fill="white" stroke="#6A44C5" stroke-miterlimit="10"/>
<path d="M119.15 186.459H117.925V188.617H119.15V186.459Z" fill="white" stroke="#6A44C5" stroke-miterlimit="10"/>
<path d="M131.693 186.459H130.468V188.617H131.693V186.459Z" fill="white" stroke="#6A44C5" stroke-miterlimit="10"/>
<path d="M121.425 186.459H120.2V188.617H121.425V186.459Z" fill="white" stroke="#6A44C5" stroke-miterlimit="10"/>
<path d="M129.359 185.001H111.917V186.459H129.359V185.001Z" fill="#CBB6FF" stroke="#6A44C5" stroke-miterlimit="10"/>
<path d="M132.334 185.001H120.025V186.459H132.334V185.001Z" fill="#AE8FF7" stroke="#6A44C5" stroke-miterlimit="10"/>
<path d="M149.835 184.767H160.044L162.319 174.383H152.11L149.835 184.767Z" fill="#CBB6FF" stroke="#6A44C5" stroke-miterlimit="10"/>
<path d="M144.176 186.459H142.951V188.617H144.176V186.459Z" fill="white" stroke="#6A44C5" stroke-miterlimit="10"/>
<path d="M149.777 186.459H148.552V188.617H149.777V186.459Z" fill="white" stroke="#6A44C5" stroke-miterlimit="10"/>
<path d="M162.319 186.459H161.094V188.617H162.319V186.459Z" fill="white" stroke="#6A44C5" stroke-miterlimit="10"/>
<path d="M152.11 186.459H150.885V188.617H152.11V186.459Z" fill="white" stroke="#6A44C5" stroke-miterlimit="10"/>
<path d="M160.044 185.001H142.602V186.459H160.044V185.001Z" fill="#AE8FF7" stroke="#6A44C5" stroke-miterlimit="10"/>
<path d="M162.961 185.001H150.652V186.459H162.961V185.001Z" fill="#AE8FF7" stroke="#6A44C5" stroke-miterlimit="10"/>
<path d="M180.462 184.767H190.671L193.004 174.383H182.737L180.462 184.767Z" fill="#CBB6FF" stroke="#6A44C5" stroke-miterlimit="10"/>
<path d="M174.803 186.459H173.578V188.617H174.803V186.459Z" fill="white" stroke="#6A44C5" stroke-miterlimit="10"/>
<path d="M180.404 186.459H179.178V188.617H180.404V186.459Z" fill="white" stroke="#6A44C5" stroke-miterlimit="10"/>
<path d="M192.946 186.459H191.721V188.617H192.946V186.459Z" fill="white" stroke="#6A44C5" stroke-miterlimit="10"/>
<path d="M182.737 186.459H181.512V188.617H182.737V186.459Z" fill="white" stroke="#6A44C5" stroke-miterlimit="10"/>
<path d="M190.671 185.001H173.228V186.459H190.671V185.001Z" fill="#CBB6FF" stroke="#6A44C5" stroke-miterlimit="10"/>
<path d="M193.646 185.001H181.337V186.459H193.646V185.001Z" fill="#CBB6FF" stroke="#6A44C5" stroke-miterlimit="10"/>
<path d="M-4 189L323 189" stroke="#6A44C5" stroke-miterlimit="10"/>
</g>
</svg>
