<svg width="324" height="232" viewBox="0 0 324 232" fill="none" xmlns="http://www.w3.org/2000/svg">
<mask id="mask0_73_6923" style="mask-type:alpha" maskUnits="userSpaceOnUse" x="0" y="0" width="324" height="232">
<rect x="0.666748" width="323" height="232" rx="8" fill="#D9D9D9"/>
</mask>
<g mask="url(#mask0_73_6923)">
<rect x="0.666748" width="323" height="232" rx="8" fill="#ECE4FF"/>
<path d="M17.3648 204.751H279.143C279.316 200.149 278.483 195.28 276.441 190.301C262.824 156.925 254.154 157.349 269.703 136.036C285.253 114.722 258.175 44.436 204.648 90.0159C151.12 135.596 145.293 108.691 122.645 84.9898C121.702 84.0003 98.8023 66.1579 67.1697 60.6921C54.6832 58.5246 49.7828 59.8597 46.3431 62.4355C37.8616 68.7495 39.9663 81.1889 32.2388 84.4715C25.8934 87.173 21.3071 80.1052 16.1083 81.1732C0.826046 84.3302 -19.5137 158.009 16.5167 203.714C16.8151 204.075 17.0978 204.421 17.3648 204.751Z" fill="#E6DBFF"/>
<path d="M272.663 57.8054C280.027 57.8054 285.997 51.8352 285.997 44.4707C285.997 37.1061 280.027 31.136 272.663 31.136C265.298 31.136 259.328 37.1061 259.328 44.4707C259.328 51.8352 265.298 57.8054 272.663 57.8054Z" fill="white"/>
<path d="M274.233 27.4919C274.233 28.0417 273.794 28.4814 273.244 28.4814H273.04C272.49 28.4814 272.05 28.0417 272.05 27.4919V20.9895C272.05 20.4398 272.49 20 273.04 20H273.244C273.794 20 274.233 20.4398 274.233 20.9895V27.4919Z" fill="white"/>
<path d="M274.233 68.1404C274.233 68.6901 273.793 69.1299 273.244 69.1299H273.04C272.49 69.1299 272.05 68.6901 272.05 68.1404V61.6379C272.05 61.0882 272.49 60.6484 273.04 60.6484H273.244C273.793 60.6484 274.233 61.0882 274.233 61.6379V68.1404Z" fill="white"/>
<path d="M297.714 44.6746C297.714 45.2244 297.274 45.6641 296.725 45.6641H290.222C289.673 45.6641 289.233 45.2244 289.233 44.6746V44.4705C289.233 43.9207 289.673 43.481 290.222 43.481H296.725C297.274 43.481 297.714 43.9207 297.714 44.4705V44.6746Z" fill="white"/>
<path d="M256.815 44.6749C256.815 45.2246 256.375 45.6644 255.825 45.6644H249.323C248.773 45.6644 248.333 45.2246 248.333 44.6749V44.4707C248.333 43.921 248.773 43.4812 249.323 43.4812H255.825C256.375 43.4812 256.815 43.921 256.815 44.4707V44.6749Z" fill="white"/>
<path d="M285.84 23.4092L285.793 23.3777C285.322 23.095 284.725 23.2521 284.442 23.7076L281.05 29.2833C280.767 29.7545 280.924 30.3514 281.38 30.6341L281.427 30.6655C281.898 30.9482 282.495 30.7911 282.778 30.3357L286.154 24.7599C286.453 24.3044 286.296 23.6919 285.84 23.4092Z" fill="white"/>
<path d="M264.684 58.3095L264.637 58.2781C264.165 57.9954 263.569 58.1525 263.286 58.608L259.909 64.1837C259.626 64.6549 259.783 65.2518 260.239 65.5345L260.286 65.5659C260.757 65.8486 261.354 65.6915 261.637 65.236L265.014 59.6603C265.296 59.1891 265.155 58.5923 264.684 58.3095Z" fill="white"/>
<path d="M293.803 55.8747L288.228 52.4979C287.756 52.2151 287.16 52.3722 286.877 52.8277L286.846 52.8748C286.563 53.346 286.72 53.9428 287.175 54.2256L292.751 57.6024C293.222 57.8851 293.819 57.7281 294.102 57.2726L294.133 57.2255C294.416 56.7543 294.259 56.1574 293.803 55.8747Z" fill="white"/>
<path d="M258.904 34.7177L253.328 31.3409C252.857 31.0582 252.26 31.2152 251.977 31.6707L251.946 31.7178C251.663 32.189 251.82 32.7859 252.276 33.0686L257.852 36.4454C258.323 36.7282 258.92 36.5711 259.202 36.1156L259.234 36.0685C259.516 35.613 259.375 35.0005 258.904 34.7177Z" fill="white"/>
<path d="M261.637 23.7063C261.354 23.2351 260.741 23.0938 260.286 23.3765L260.239 23.4079C259.768 23.6906 259.626 24.3032 259.909 24.7587L263.286 30.3344C263.569 30.8056 264.181 30.947 264.637 30.6643L264.684 30.6328C265.155 30.3501 265.296 29.7376 265.014 29.2821L261.637 23.7063Z" fill="white"/>
<path d="M282.793 58.6065C282.51 58.1353 281.898 57.9939 281.442 58.2766L281.395 58.3081C280.924 58.5908 280.783 59.2033 281.065 59.6588L284.442 65.2346C284.725 65.7058 285.338 65.8471 285.793 65.5644L285.84 65.533C286.311 65.2503 286.453 64.6534 286.17 64.1822L282.793 58.6065Z" fill="white"/>
<path d="M259.202 52.8265C258.92 52.3553 258.307 52.2139 257.852 52.4966L252.276 55.8735C251.805 56.1562 251.663 56.7687 251.946 57.2242L251.977 57.2714C252.26 57.7425 252.873 57.8839 253.328 57.6012L258.904 54.2243C259.375 53.9416 259.516 53.3291 259.234 52.8736L259.202 52.8265Z" fill="white"/>
<path d="M294.133 31.7163L294.102 31.6692C293.819 31.198 293.206 31.0567 292.751 31.3394L287.175 34.7163C286.704 34.999 286.563 35.6115 286.845 36.067L286.877 36.1141C287.16 36.5853 287.772 36.7267 288.228 36.444L293.803 33.0671C294.259 32.8001 294.416 32.1875 294.133 31.7163Z" fill="white"/>
<path d="M142.843 46.2273C142.89 45.4734 146.377 45.3321 149.581 45.1907C154.167 45.0022 158.314 44.8452 164.078 45.7247C167.502 46.243 172.245 46.9655 177.523 49.2744C178.811 49.8398 184.763 52.5256 189.365 57.583C194.376 63.0803 190.983 63.9127 196.763 75.6611C197.611 77.373 200.313 80.4515 199.292 80.9541C197.894 81.6452 191.878 78.0641 187.747 75.7396C186.868 75.2527 186.067 74.7815 185.313 74.3574L186.051 67.0226L179.769 70.8706C178.182 69.7712 176.863 68.7031 175.449 67.4623C173.439 65.6875 172.214 64.3211 171.272 63.1431L177.004 62.0751L168.759 59.9704C167.848 58.9495 166.701 57.8972 164.801 56.5778C163.591 55.7454 162.335 54.9758 161.094 54.269L169.355 54.4418L155.141 51.2377C151.686 49.667 149.157 48.8189 149.157 48.8189C145.937 47.7037 142.812 46.9341 142.843 46.2273Z" fill="#D1BEFE"/>
<path d="M152.204 106.367C152.314 101.592 154.12 97.9642 157.733 90.9278C160.685 85.1792 162.162 82.305 164.062 80.2631C165.68 78.5197 173.675 69.9126 183.303 72.033C190.261 73.5722 193.92 79.7919 195.993 83.2788C196.873 84.7709 199.245 88.7917 198.082 89.9854C196.936 91.1634 193.559 88.3833 189.161 86.8598C188.973 85.6818 188.768 84.5824 188.643 84.2526C188.501 83.8756 188.297 85.1321 188.124 86.53C186.067 85.9488 183.837 85.7132 181.528 86.2944C180.523 86.5457 179.627 86.9383 178.842 87.3624L175.591 84.6923L177.476 88.2263C176.266 89.0901 175.465 89.9854 175.104 90.378C173.675 91.9644 173.203 93.2837 172.858 94.7915L166.575 91.8701L171.994 98.6867C171.758 99.5348 171.444 100.477 170.989 101.545C169.481 105.158 169.135 103.791 158.424 116.294C157.874 116.937 157.057 117.896 156.083 117.801C153.806 117.55 152.094 111.472 152.204 106.367Z" fill="#AE8FF7"/>
<path d="M199.951 84.2998C202.527 92.3729 205.338 100.352 208.401 108.236C211.464 116.121 214.778 123.864 218.312 131.545C221.83 139.225 225.505 146.795 229.511 154.162C231.505 157.853 233.579 161.497 235.715 165.093C237.866 168.69 240.081 172.24 242.358 175.742L234.851 180.234C232.793 176.465 230.799 172.648 228.882 168.8C226.982 164.952 225.16 161.073 223.401 157.146C219.898 149.324 216.757 141.361 213.82 133.366C210.851 125.388 208.119 117.299 205.653 109.163C203.171 101.011 200.972 92.7969 199.025 84.5354L199.951 84.2998Z" fill="#AE8FF7"/>
<path d="M200.689 93.9117C199.668 94.1159 198.255 91.0375 196.983 88.2103C195.161 84.1581 193.512 80.4985 192.711 75.0484C192.224 71.8129 191.564 67.3366 192.868 61.8551C193.182 60.52 194.752 54.316 199.998 48.5518C205.7 42.2849 207.977 45.065 221.83 36.0809C223.856 34.7773 227.076 31.3533 228.097 32.1072C229.511 33.1438 226.746 39.6934 225.034 44.1383C224.673 45.0807 224.327 45.9445 223.998 46.7612L213.851 48.4575L221.202 52.8396C220.26 54.6144 219.27 56.1536 218.076 57.8028C216.38 60.1745 214.951 61.7137 213.694 62.9388L210.27 58.1484V66.2214C209.202 67.368 208.166 68.7344 207.066 70.8705C206.359 72.2213 205.747 73.6034 205.213 74.9385L202.637 67.5093L203.202 81.2838C202.276 84.8806 201.993 87.425 201.993 87.425C201.632 90.6762 201.663 93.7233 200.689 93.9117Z" fill="#D1BEFE"/>
<path d="M245.908 63.9598C244.495 62.0594 241.887 58.6354 237.16 56.7035C231.003 54.1905 225.301 55.8553 222.396 56.7035C214.307 59.0752 209.501 64.5567 207.585 67.0383C203.894 74.4831 199.7 83.4357 200.658 84.0012C201.208 84.3153 202.857 81.6138 206.061 78.6453C208.197 76.6663 210.459 75.1114 212.689 73.8705L211.543 68.656L216.349 72.0957C219.757 70.6664 222.945 69.8968 225.38 69.4256L223.982 64.2583L228.788 68.8288C231.977 68.2948 234.929 67.855 237.38 67.9964L238.589 63.7714L239.154 68.2163C240.568 68.5147 241.746 69.0958 242.625 70.101C244.762 72.5669 243.866 76.2108 247.4 79.729C248.704 81.0326 250.086 81.7866 251.013 82.2106C251.201 79.1793 251.248 71.1376 245.908 63.9598Z" fill="#D1BEFE"/>
<path d="M234.191 76.5712C231.914 72.6603 227.013 71.6394 225.05 71.2154C214.527 69.0165 205.606 77.2152 204.286 78.4717C197.658 84.5343 200.595 83.0265 203.752 82.414C205.496 82.0842 208.276 81.5816 213.616 81.2831C214.338 81.236 214.998 81.2046 215.642 81.1732L216.867 77.7178L218.108 81.0632C219.506 81.0161 220.684 81.0161 221.657 81.079L224.862 77.3251L224.547 81.7072C224.705 81.7857 224.846 81.8643 224.987 81.9585C226.872 83.1993 226.919 84.5186 228.961 86.7961L232.526 83.6705L230.265 88.1154C232.087 89.796 233.846 90.864 235.024 91.508C235.149 90.7384 235.306 89.6546 235.401 88.3353C235.73 84.2202 236.076 79.8067 234.191 76.5712Z" fill="#AE8FF7"/>
<path d="M230.83 100.807C230.076 97.3825 228.553 95.0894 225.521 90.5189C222.725 86.2939 221.312 84.1735 218.893 82.5714C214.715 79.8228 210.255 79.5715 208.464 79.5715C205.354 79.5715 202.48 80.7809 200.894 81.4406C200.689 81.5348 200.532 81.7076 200.485 81.9275C200.203 83.5924 200.375 85.7441 201.318 88.6184C202.182 91.2728 203.799 93.4088 205.621 95.1522C205.998 95.5135 206.611 95.325 206.736 94.8224L206.784 94.6653C206.972 93.9586 207.993 94.0057 208.103 94.7439L208.464 97.2726C208.496 97.4611 208.59 97.6181 208.731 97.7281C209.611 98.372 210.475 98.9532 211.26 99.4715C212.092 100.021 212.83 100.477 213.522 100.854C213.789 100.995 214.118 100.964 214.338 100.744L215.72 99.3458C216.145 98.9061 216.898 99.2359 216.883 99.8484L216.804 101.985C216.788 102.267 216.961 102.519 217.213 102.628C218.862 103.335 219.961 103.869 221.061 105.581C221.139 105.691 221.202 105.817 221.28 105.927C221.532 106.367 222.16 106.382 222.443 105.943C222.835 105.33 223.778 105.676 223.684 106.398L223.087 110.639C223.071 110.733 223.087 110.843 223.102 110.937C223.401 111.895 223.762 113.042 224.249 114.471C224.909 116.434 225.521 118.115 226.008 119.466C226.212 120.015 226.966 120.063 227.233 119.56C228.333 117.502 229.558 114.722 230.327 111.314C230.956 108.471 231.772 105.032 230.83 100.807Z" fill="#AE8FF7"/>
<path d="M204.066 86.7968C204.145 84.4879 204.365 82.8545 203.815 82.666C203.265 82.4618 202.511 83.8911 201.035 85.5246C198.789 88.0062 197.391 88.226 194.705 90.315C192.365 92.1369 191.014 93.8489 189.145 96.2206C187.418 98.4195 183.632 103.32 181.465 110.812C180.444 114.346 179.046 119.168 179.973 125.12C181.025 131.795 183.852 132.455 185.077 140.088C186.083 146.308 184.81 149.512 186.35 150.219C187.747 150.863 190.449 149.01 192.931 146.104L190.418 133.052L195.444 142.649C195.773 142.13 196.072 141.596 196.355 141.047C197.328 139.177 197.784 137.748 198.098 135.816L195.287 132.22L198.459 133.068C198.663 131.277 198.883 129.047 199.276 126.016L190.527 115.995L200.014 120.785C200.061 120.44 200.124 120.094 200.171 119.749C200.784 115.822 201.365 112.555 201.71 110.592L198.648 106.241L202.292 107.482C203.422 101.686 204.161 98.7179 204.302 94.1159C204.443 91.6186 203.941 90.4406 204.066 86.7968Z" fill="#AE8FF7"/>
<path d="M207.176 110.561C207.223 110.231 208.81 110.31 210.239 110.388C212.297 110.514 214.166 110.608 216.71 111.252C218.218 111.629 220.323 112.163 222.584 113.435C223.134 113.75 225.694 115.21 227.532 117.676C229.526 120.362 227.971 120.582 230.045 126.095C230.343 126.896 231.427 128.404 230.94 128.576C230.28 128.828 227.752 126.959 225.992 125.734C225.616 125.467 225.286 125.231 224.972 125.011L225.631 121.76L222.647 123.205C221.987 122.639 221.438 122.105 220.872 121.493C220.055 120.613 219.569 119.938 219.192 119.372L221.815 119.137L218.202 117.833C217.841 117.331 217.37 116.812 216.569 116.137C216.066 115.713 215.532 115.305 215.014 114.943L218.705 115.383L212.469 113.326C210.993 112.477 209.893 111.975 209.893 111.975C208.48 111.362 207.113 110.875 207.176 110.561Z" fill="#AE8FF7"/>
<path d="M224.956 121.555C225.27 125.356 225.678 129.141 226.228 132.91C226.778 136.68 227.437 140.418 228.207 144.14C228.961 147.863 229.809 151.554 230.814 155.198C231.317 157.02 231.851 158.826 232.416 160.632C232.997 162.423 233.61 164.213 234.238 165.972L230.484 167.182C229.966 165.313 229.479 163.444 229.024 161.559C228.584 159.674 228.176 157.789 227.814 155.889C227.076 152.104 226.511 148.287 226.04 144.486C225.553 140.685 225.176 136.853 224.924 133.036C224.673 129.219 224.532 125.387 224.516 121.555H224.956Z" fill="#AE8FF7"/>
<path d="M247.761 112.869C246.803 112.084 245.044 110.655 242.39 110.262C238.934 109.744 236.233 111.314 234.866 112.115C231.034 114.346 229.275 117.738 228.6 119.246C227.657 123.502 226.636 128.607 227.202 128.764C227.516 128.858 228.018 127.272 229.291 125.356C230.139 124.084 231.081 123 232.071 122.089L230.83 119.576L233.72 120.722C235.275 119.56 236.814 118.775 237.992 118.225L236.626 115.759L239.657 117.487C241.212 116.811 242.673 116.215 243.929 115.979L244.023 113.67L244.871 115.869C245.625 115.838 246.301 115.995 246.882 116.403C248.28 117.393 248.28 119.356 250.526 120.722C251.358 121.225 252.143 121.429 252.677 121.539C252.379 119.953 251.39 115.853 247.761 112.869Z" fill="#AE8FF7"/>
<path d="M243.222 124.759C242.374 122.905 240.222 122.23 239.359 121.963C234.741 120.518 230.39 123.801 229.731 124.303C226.495 126.738 227.877 126.188 229.322 126.047C230.123 125.968 231.395 125.874 233.783 125.968C234.113 125.984 234.411 126 234.694 126.015L235.401 124.523L235.809 126.078C236.437 126.125 236.971 126.172 237.395 126.235L238.997 124.696L238.667 126.643C238.73 126.691 238.793 126.722 238.856 126.769C239.641 127.413 239.61 127.994 240.427 129.109L242.17 127.869L240.961 129.769C241.699 130.601 242.453 131.167 242.94 131.497C243.034 131.151 243.144 130.68 243.254 130.099C243.568 128.261 243.913 126.298 243.222 124.759Z" fill="#AE8FF7"/>
<path d="M239.374 135.99C239.186 134.419 238.604 133.335 237.442 131.152C236.374 129.142 235.84 128.121 234.819 127.304C233.06 125.891 231.081 125.576 230.28 125.514C228.882 125.372 227.547 125.796 226.809 126.016C226.715 126.048 226.636 126.126 226.605 126.22C226.401 126.959 226.385 127.932 226.683 129.252C226.95 130.477 227.579 131.513 228.317 132.362C228.474 132.534 228.757 132.487 228.835 132.267L228.867 132.189C228.976 131.875 229.448 131.953 229.448 132.283L229.495 133.43C229.495 133.508 229.542 133.587 229.605 133.649C229.966 133.979 230.327 134.278 230.657 134.545C231.003 134.827 231.317 135.063 231.599 135.267C231.709 135.346 231.866 135.346 231.961 135.252L232.636 134.686C232.856 134.513 233.17 134.686 233.139 134.953L233.013 135.911C232.997 136.037 233.06 136.163 233.17 136.21C233.877 136.602 234.348 136.885 234.772 137.702C234.804 137.765 234.835 137.812 234.851 137.875C234.945 138.079 235.228 138.11 235.369 137.937C235.573 137.67 235.981 137.875 235.903 138.189L235.447 140.058C235.432 140.105 235.432 140.152 235.447 140.183C235.542 140.623 235.652 141.157 235.809 141.817C236.013 142.728 236.217 143.513 236.374 144.126C236.437 144.377 236.767 144.44 236.924 144.22C237.505 143.34 238.18 142.162 238.667 140.655C239.091 139.429 239.594 137.922 239.374 135.99Z" fill="#AE8FF7"/>
<path d="M229.73 124.305C229.935 122.655 220.872 117.315 215.752 121.32C210.867 125.137 213.317 134.529 214.307 134.639C214.825 134.702 214.715 132.095 216.678 129.582C220.903 124.147 229.542 125.891 229.73 124.305Z" fill="#AE8FF7"/>
<path d="M325.963 155.653C323.576 153.579 320.466 153.312 305.529 153.909C298.116 154.208 298.43 154.459 296.498 154.317C288.661 153.736 283.98 150.689 273.347 150.611C258.771 150.517 239.515 155.228 237.929 163.082C234.819 178.442 296.341 215.714 318.55 197.793C326.89 191.055 330.707 175.725 329.497 164.668C328.822 158.511 326.89 156.469 325.963 155.653Z" fill="#AE8FF7"/>
<path d="M315.487 154.209C318.314 155.638 324.173 150.895 326.544 145.397C328.209 141.534 327.942 137.78 327.817 136.178C327.424 131.372 325.68 130.084 325.288 127.649C325.288 127.649 325.178 126.817 325.256 125.78C325.618 120.864 332.057 115.068 332.324 108.754C332.481 105.126 330.597 101.357 327.722 99.4405C325.995 98.2939 322.508 96.8804 319.775 98.2154C315.581 100.257 315.644 107.576 314.576 131.858C314.325 137.685 314.231 139.382 313.885 141.895C313.665 143.481 313.508 144.329 313.477 145.806C313.398 148.507 313.288 153.093 315.487 154.209Z" fill="#CEC9F7"/>
<path d="M320.34 134.214C320.105 137.811 320.262 141.392 320.152 144.879C320.089 146.622 319.916 148.334 319.508 149.952C319.115 151.554 318.471 153.062 317.67 154.46L319.618 154.821C320.277 153.407 320.796 151.884 321.11 150.329C321.487 148.46 321.581 146.575 321.581 144.769C321.534 141.156 321.235 137.685 321.298 134.167C321.314 132.408 321.408 130.649 321.565 128.89C321.754 127.131 322.036 125.387 322.413 123.644C323.199 120.188 324.361 116.78 326.12 113.78C324.235 116.686 322.916 120.063 321.974 123.518C321.518 125.262 321.141 127.036 320.874 128.827C320.607 130.618 320.434 132.424 320.34 134.214Z" fill="white"/>
<path d="M22.0419 159.925C55.3842 162.379 88.8694 154.226 122.259 155.92C164.969 158.089 183.26 153.213 214.76 153.007C225.843 152.944 232.257 153.324 236.909 153.814C239.767 154.115 240.132 154.194 248.722 155.303C263.551 157.202 270.982 158.152 273.57 158.295C286.637 159.007 289.193 157.25 297.497 159.688C302.673 161.208 302.212 162.047 308.166 164.089C322.583 169.045 328.172 165.134 332.538 169.06C339.572 175.377 336.682 195.911 325.092 206.709C314.279 216.778 298.529 215.923 292.734 215.654C232.575 212.867 349.701 231.739 151.95 222.366C104.54 220.118 62.1956 217.348 25.9319 214.577C23.074 215.48 12.4203 218.187 4.08473 213.089C3.59253 212.788 2.36998 211.838 0.988659 210.239C-7.09288 200.819 -12.38 176.391 -1.56758 165.562C5.40254 158.58 16.7707 159.53 22.0419 159.925Z" fill="#E4E2F6"/>
<path d="M266.358 126.565L238.62 131.057V133.036V152.983H266.389L266.358 126.565Z" fill="#6A44C5"/>
<path d="M267.127 123.236L237.348 129.346C237.065 129.409 236.83 129.582 236.688 129.817C236.547 130.069 236.516 130.351 236.61 130.618L237.003 131.781C237.16 132.252 237.647 132.519 238.118 132.425L268.007 126.535L267.127 123.236Z" fill="#AE8FF7"/>
<path d="M309.739 84.2373H272.326V100.713H309.739V84.2373Z" fill="#6A44C5"/>
<path d="M273.661 82.9014H270.991V99.3773H273.661V82.9014Z" fill="#AE8FF7"/>
<path d="M286.431 82.9014H283.761V99.3773H286.431V82.9014Z" fill="#AE8FF7"/>
<path d="M298.744 84.2373H296.074V99.3782H298.744V84.2373Z" fill="#AE8FF7"/>
<path d="M311.074 84.2373H308.404V99.3782H311.074V84.2373Z" fill="#AE8FF7"/>
<path d="M313.54 98.4824L269.436 96.0793C268.635 96.0322 267.866 96.3149 267.284 96.8646C266.703 97.4143 266.373 98.1682 266.373 98.9693V154.413L315.66 153.376V100.728C315.676 99.5347 314.733 98.5452 313.54 98.4824Z" fill="#AE8FF7"/>
<path d="M310.351 104.749C310.336 104.199 309.911 103.759 309.362 103.744L271.619 102.047C271.337 102.032 271.054 102.142 270.85 102.33C270.646 102.519 270.52 102.801 270.52 103.084V154.255L311.498 153.439L310.351 104.749Z" fill="#6A44C5"/>
<path d="M316.084 84.4882L265.352 79.5407C263.609 79.3679 265.148 82.6976 265.368 83.4515C265.478 83.8128 265.777 84.0641 266.153 84.1112L315.707 89.6399C316.163 89.687 316.681 89.5456 317.026 89.2315C317.372 88.9174 317.623 88.4776 317.623 88.0221V86.1216C317.608 85.2735 316.916 84.5667 316.084 84.4882Z" fill="#AE8FF7"/>
<path d="M313.885 118.901C313.885 119.513 313.383 120.016 312.77 120.016H269.122C268.509 120.016 268.007 119.513 268.007 118.901C268.007 118.288 268.509 117.785 269.122 117.785H312.77C313.398 117.801 313.885 118.288 313.885 118.901Z" fill="#C3A9FF"/>
<path d="M313.885 133.76C313.885 134.372 313.383 134.875 312.77 134.875H269.122C268.509 134.875 268.007 134.372 268.007 133.76C268.007 133.147 268.509 132.645 269.122 132.645H312.77C313.398 132.645 313.885 133.147 313.885 133.76Z" fill="#C3A9FF"/>
<path d="M309.142 90.3322C309.142 90.662 308.875 90.929 308.545 90.929H273.363C273.033 90.929 272.766 90.662 272.766 90.3322C272.766 90.0024 273.033 89.7354 273.363 89.7354H308.545C308.875 89.7354 309.142 90.0024 309.142 90.3322Z" fill="#AE8FF7"/>
<path d="M285.959 142.288C285.959 141.55 288.237 141.173 291.048 141.173C293.86 141.173 296.137 141.534 296.137 142.288H285.959Z" fill="#AE8FF7"/>
<path opacity="0.9" d="M290.734 142.744H285.834V153.283H290.734V142.744Z" fill="#AE8FF7"/>
<path opacity="0.9" d="M296.074 142.744H291.174V153.283H296.074V142.744Z" fill="#AE8FF7"/>
<path d="M298.273 135.769L283.211 136.146C282.3 136.161 281.624 136.884 281.718 137.748V137.811C281.797 138.659 282.598 139.35 283.493 139.35L298.304 139.287C299.404 139.287 300.378 138.517 300.378 137.559V137.481C300.378 136.507 299.388 135.753 298.273 135.769Z" fill="#AE8FF7"/>
<path d="M284.797 139.319H283.305V153.125H284.797V139.319Z" fill="#AE8FF7"/>
<path d="M298.76 139.319H297.268V153.125H298.76V139.319Z" fill="#AE8FF7"/>
<path d="M277.525 115.272C277.525 115.524 277.321 115.712 277.085 115.712C276.834 115.712 276.645 115.508 276.645 115.272V106.665C276.645 106.414 276.849 106.225 277.085 106.225C277.336 106.225 277.525 106.43 277.525 106.665V115.272Z" fill="#AE8FF7"/>
<path d="M291.032 115.272C291.032 115.524 290.828 115.712 290.592 115.712C290.357 115.712 290.153 115.508 290.153 115.272V106.665C290.153 106.414 290.357 106.225 290.592 106.225C290.828 106.225 291.032 106.43 291.032 106.665V115.272Z" fill="#AE8FF7"/>
<path d="M284.341 115.272C284.341 115.524 284.137 115.712 283.902 115.712C283.65 115.712 283.462 115.508 283.462 115.272V106.665C283.462 106.414 283.666 106.225 283.902 106.225C284.153 106.225 284.341 106.43 284.341 106.665V115.272Z" fill="#AE8FF7"/>
<path d="M298.446 115.272C298.446 115.524 298.241 115.712 298.006 115.712C297.755 115.712 297.566 115.508 297.566 115.272V106.665C297.566 106.414 297.77 106.225 298.006 106.225C298.257 106.225 298.446 106.43 298.446 106.665V115.272Z" fill="#AE8FF7"/>
<path d="M305.278 115.272C305.278 115.524 305.074 115.712 304.838 115.712C304.602 115.712 304.398 115.508 304.398 115.272V106.665C304.398 106.414 304.602 106.225 304.838 106.225C305.074 106.225 305.278 106.43 305.278 106.665V115.272Z" fill="#AE8FF7"/>
<path d="M277.525 130.853C277.525 131.105 277.321 131.293 277.085 131.293C276.834 131.293 276.645 131.089 276.645 130.853V122.246C276.645 121.995 276.849 121.806 277.085 121.806C277.336 121.806 277.525 122.011 277.525 122.246V130.853Z" fill="#AE8FF7"/>
<path d="M291.032 130.854C291.032 131.105 290.828 131.293 290.592 131.293C290.357 131.293 290.153 131.089 290.153 130.854V122.246C290.153 121.995 290.357 121.807 290.592 121.807C290.828 121.807 291.032 122.011 291.032 122.246V130.854Z" fill="#AE8FF7"/>
<path d="M284.341 130.854C284.341 131.105 284.137 131.293 283.902 131.293C283.65 131.293 283.462 131.089 283.462 130.854V122.246C283.462 121.995 283.666 121.807 283.902 121.807C284.153 121.807 284.341 122.011 284.341 122.246V130.854Z" fill="#AE8FF7"/>
<path d="M298.446 130.854C298.446 131.105 298.241 131.293 298.006 131.293C297.755 131.293 297.566 131.089 297.566 130.854V122.246C297.566 121.995 297.77 121.807 298.006 121.807C298.257 121.807 298.446 122.011 298.446 122.246V130.854Z" fill="#AE8FF7"/>
<path d="M305.278 130.854C305.278 131.105 305.074 131.293 304.838 131.293C304.602 131.293 304.398 131.089 304.398 130.854V122.246C304.398 121.995 304.602 121.807 304.838 121.807C305.074 121.807 305.278 122.011 305.278 122.246V130.854Z" fill="#AE8FF7"/>
<path opacity="0.9" d="M279.692 141.69H274.022C273.457 141.69 272.923 141.973 272.923 142.366V150.156H280.65V142.366C280.635 141.989 280.258 141.69 279.692 141.69Z" fill="#AE8FF7"/>
<path opacity="0.9" d="M308.042 141.69H302.372C301.807 141.69 301.273 141.973 301.273 142.366V150.156H309V142.366C308.985 141.989 308.608 141.69 308.042 141.69Z" fill="#AE8FF7"/>
<path d="M330.188 154.068C330.188 153.314 329.45 152.67 328.523 152.67H237.898C236.987 152.67 236.233 153.298 236.233 154.068V154.146C236.233 154.9 236.971 155.638 237.898 155.638H328.523C329.434 155.638 330.188 154.9 330.188 154.146V154.068Z" fill="#C3A9FF"/>
<path opacity="0.9" d="M247.981 134.12L243.175 135.015C242.437 135.156 241.887 135.8 241.887 136.57V152.685H247.981V134.12Z" fill="#AE8FF7"/>
<path opacity="0.9" d="M248.861 152.684H255.992V132.627L248.861 133.962V152.684Z" fill="#AE8FF7"/>
<path opacity="0.9" d="M262.84 131.937C262.478 131.638 262.007 131.512 261.552 131.607L256.871 132.471C256.871 132.486 256.871 132.486 256.871 132.502V152.685H263.405V133.146C263.421 132.675 263.201 132.235 262.84 131.937Z" fill="#AE8FF7"/>
<path d="M266.97 143.152C266.97 143.654 266.688 144.078 266.326 144.078H237.756C237.411 144.078 237.112 143.654 237.112 143.152V143.057C237.112 142.555 237.395 142.131 237.756 142.131H266.326C266.672 142.131 266.97 142.539 266.97 143.057V143.152Z" fill="#C3A9FF"/>
<path d="M102.572 172.853L102.729 172.586C105.43 165.785 99.8232 160.633 94.4203 162.062C94.0276 162.172 93.6507 162.298 93.3051 162.455C92.1585 162.973 90.8078 162.785 89.8968 161.921C86.8498 159.063 82.452 157.775 78.1013 158.921C77.0804 159.188 76.1223 159.581 75.2271 160.068C73.7036 160.916 71.8502 161.01 70.2953 160.225C66.4315 158.277 61.8767 157.68 57.3689 158.874C56.4894 159.11 55.657 159.392 54.8402 159.738C53.4109 160.35 51.7932 160.382 50.3325 159.832C48.3064 159.047 46.0132 158.874 43.7515 159.471C43.2646 159.597 42.7777 159.769 42.3223 159.958C40.9401 160.539 39.3538 160.303 38.1915 159.361C34.3748 156.267 29.176 154.963 24.0715 156.314C23.6788 156.424 23.3019 156.534 22.9249 156.659C21.1658 157.272 19.5166 155.937 18.9512 155.591C17.0664 154.398 12.9828 151.822 10.3598 151.257C6.26045 150.361 1.203 153.393 -1.04301 157.335C-2.70788 160.272 -3.27331 164.481 -1.73409 167.89C3.11918 178.57 27.3541 177.879 40.5946 177.518C45.4792 177.376 43.6887 177.172 59.2537 176.198C65.8975 176.198 72.5413 179.842 76.9862 181.161C90.5251 185.167 102.446 173.057 102.572 172.853Z" fill="#AD8EF5"/>
<path opacity="0.5" d="M2.14539 167.842C2.50664 168.392 2.915 168.895 3.38619 169.35L4.12439 169.397C3.52755 168.863 3.00924 168.235 2.58517 167.56C1.89409 166.46 1.47002 165.204 1.32866 163.9C1.1873 162.612 1.37578 161.293 1.81556 160.084C1.94121 159.785 2.05115 159.471 2.20822 159.204C2.28675 159.063 2.34957 158.921 2.42811 158.78L2.67941 158.372C2.75794 158.23 2.85218 158.105 2.94642 157.979L3.22913 157.586L3.55896 157.225L3.71603 157.036L3.8888 156.864L4.23434 156.534L4.61129 156.235C4.86259 156.016 5.14531 155.859 5.41231 155.686C5.97774 155.356 6.55888 155.073 7.17143 154.885C9.63733 154.037 12.4802 154.414 14.6948 155.843C14.7576 155.89 14.8518 155.874 14.899 155.811C14.9461 155.749 14.9304 155.654 14.8675 155.607C13.7681 154.806 12.4645 154.272 11.098 154.052C9.74727 153.832 8.31799 153.927 7.01436 154.351C4.35999 155.152 2.1611 157.288 1.21872 159.895C0.747525 161.199 0.574755 162.612 0.731819 163.979C0.920295 165.345 1.39149 166.68 2.14539 167.842Z" fill="white"/>
<path opacity="0.5" d="M88.5618 164.403C89.7084 165.109 91.0434 165.408 92.3313 165.282C92.9753 165.235 93.6192 165.062 94.2004 164.811C94.3417 164.748 94.5302 164.67 94.703 164.607C94.8757 164.544 95.0642 164.497 95.237 164.45C95.5982 164.371 95.9752 164.34 96.3521 164.34C97.8442 164.371 99.2892 165.204 100.059 166.46C100.436 167.088 100.687 167.795 100.734 168.518C100.781 169.24 100.671 169.963 100.467 170.622C100.436 170.701 100.357 170.748 100.279 170.717C100.216 170.701 100.169 170.622 100.184 170.544C100.31 169.884 100.357 169.209 100.263 168.565C100.169 167.921 99.9332 167.308 99.5719 166.774C99.2107 166.256 98.7081 165.816 98.1584 165.518C97.6086 165.219 96.9804 165.062 96.3521 165.047C96.038 165.047 95.7239 165.078 95.4098 165.141C95.2527 165.172 95.1113 165.219 94.9543 165.267C94.7972 165.314 94.6716 165.376 94.4988 165.455C93.8234 165.738 93.1009 165.895 92.3784 165.926C91.6559 165.958 90.9335 165.863 90.2424 165.643C89.567 165.424 88.923 165.062 88.389 164.607C88.3262 164.56 88.3262 164.465 88.3733 164.403C88.4204 164.387 88.499 164.371 88.5618 164.403Z" fill="white"/>
<g opacity="0.72">
<path d="M21.2756 168.754C21.417 169.147 21.5426 169.54 21.7468 169.916C21.841 170.105 21.9353 170.293 22.0452 170.466L23.4117 170.545C23.1447 170.199 22.9248 169.822 22.7363 169.43C22.5635 169.115 22.4693 168.77 22.3436 168.44C22.2651 168.095 22.1709 167.749 22.1395 167.388C22.0452 166.681 22.0766 165.958 22.218 165.267C22.3594 164.576 22.6107 163.901 22.9562 163.273C23.3174 162.66 23.7729 162.095 24.2912 161.592C25.3436 160.603 26.6786 159.927 28.1079 159.644C29.5372 159.362 31.0607 159.487 32.4428 160.037C33.825 160.571 35.0501 161.529 35.8982 162.786C35.9454 162.849 36.0239 162.864 36.0867 162.833C36.1652 162.801 36.1809 162.707 36.1495 162.644C35.427 161.231 34.1862 160.084 32.7256 159.393C31.2649 158.702 29.5686 158.451 27.9508 158.718C26.3331 158.953 24.7781 159.692 23.553 160.791C22.9405 161.356 22.4222 162 21.9981 162.723C21.574 163.445 21.2913 164.231 21.1028 165.047C20.9144 165.864 20.9144 166.712 21.0243 167.545C21.0714 167.953 21.1814 168.362 21.2756 168.754Z" fill="white"/>
<path d="M34.359 171.188L34.736 171.204C34.2648 170.623 33.9507 169.932 33.8093 169.193C33.5737 167.984 33.825 166.759 34.5161 165.754C35.2072 164.733 36.2595 164.057 37.4532 163.822C38.6626 163.586 39.8877 163.838 40.8929 164.529C41.9138 165.22 42.5892 166.256 42.8248 167.466C43.0604 168.675 42.8091 169.9 42.118 170.905C41.9452 171.157 41.741 171.392 41.5368 171.597L41.9138 171.612C42.0709 171.439 42.2279 171.251 42.3536 171.063C43.0918 169.979 43.3588 168.675 43.1075 167.403C42.8562 166.115 42.1337 165.016 41.0499 164.277C39.9662 163.539 38.6626 163.272 37.3904 163.523C37.2804 163.539 37.1548 163.571 37.0448 163.602C35.914 163.9 34.9245 164.592 34.2648 165.581C33.5266 166.665 33.2596 167.968 33.5109 169.241C33.668 169.963 33.9507 170.623 34.359 171.188Z" fill="white"/>
<path d="M41.1757 167.325C41.2699 167.828 40.9401 168.315 40.4375 168.409C39.9349 168.503 39.448 168.173 39.3537 167.671C39.2595 167.168 39.5893 166.681 40.0919 166.587C40.5945 166.493 41.0814 166.823 41.1757 167.325Z" fill="white"/>
</g>
<path d="M296.043 184.428C295.791 184.397 295.556 184.35 295.32 184.287C294.268 183.988 293.404 184.852 293.278 184.931C291.331 186.203 253.258 191.009 249.269 179.779C248.625 177.973 248.829 175.633 248.939 174.392C249.096 172.491 249.709 168.91 252.363 166.005C252.614 165.738 252.913 165.502 253.243 165.314C257.986 162.738 262.525 163.382 265.666 165.722C267.677 167.214 270.206 167.795 272.656 167.324C273.74 167.12 274.886 167.057 276.048 167.183C276.959 167.277 277.823 167.481 278.64 167.764C279.692 168.141 280.839 167.968 281.797 167.418C283.085 166.664 284.608 166.303 286.21 166.476C290.184 166.9 293.09 175.099 293.31 175.381C293.687 175.868 294.331 176.072 294.912 175.853C298.163 174.58 299.168 176.277 300.048 177.046C301.179 178.036 301.336 180.187 300.613 181.774C299.639 183.878 297.283 184.57 296.043 184.428Z" fill="#AD8EF5"/>
<path opacity="0.5" d="M292.242 183.534C292.886 183 293.671 182.685 294.472 182.638C294.88 182.607 295.273 182.654 295.666 182.748C295.76 182.78 295.885 182.811 295.995 182.827C296.105 182.842 296.231 182.858 296.341 182.874C296.577 182.89 296.796 182.874 297.032 182.827C297.943 182.67 298.76 182.026 299.105 181.178C299.278 180.754 299.372 180.298 299.325 179.843C299.294 179.403 299.152 178.963 298.964 178.57C298.948 178.523 298.885 178.508 298.838 178.523C298.791 178.539 298.775 178.586 298.791 178.633C298.932 179.026 299.027 179.434 299.027 179.843C299.027 180.251 298.948 180.644 298.775 181.005C298.603 181.366 298.336 181.664 298.022 181.9C297.707 182.136 297.346 182.293 296.953 182.356C296.765 182.387 296.561 182.403 296.372 182.387C296.278 182.387 296.184 182.371 296.09 182.356C295.995 182.34 295.917 182.324 295.791 182.293C295.351 182.183 294.896 182.151 294.456 182.199C294.016 182.246 293.577 182.371 293.168 182.575C292.776 182.78 292.414 183.047 292.132 183.376C292.1 183.408 292.1 183.471 292.147 183.502C292.163 183.565 292.21 183.565 292.242 183.534Z" fill="white"/>
<g opacity="0.72">
<path d="M283.336 176.529C283.965 177.016 284.766 177.314 285.582 177.346C285.991 177.361 286.399 177.33 286.807 177.236C287.2 177.142 287.593 176.984 287.954 176.78C288.661 176.356 289.273 175.697 289.572 174.911C289.666 174.723 289.713 174.519 289.776 174.314C289.807 174.11 289.855 173.89 289.855 173.686C289.886 173.262 289.839 172.838 289.713 172.43C289.588 172.021 289.415 171.629 289.179 171.283C288.944 170.938 288.645 170.623 288.315 170.372C287.985 170.105 287.609 169.901 287.216 169.76C286.823 169.602 286.399 169.54 285.991 169.493C285.158 169.43 284.31 169.618 283.603 170.042C282.897 170.451 282.315 171.095 282.033 171.848C282.017 171.896 282.033 171.943 282.08 171.958C282.127 171.974 282.174 171.958 282.19 171.927C282.582 171.267 283.164 170.765 283.823 170.451C284.483 170.136 285.221 170.011 285.944 170.105C286.666 170.184 287.341 170.466 287.907 170.906C288.19 171.126 288.425 171.393 288.629 171.676C288.834 171.974 288.975 172.288 289.085 172.618C289.195 172.948 289.226 173.309 289.211 173.655C289.211 173.827 289.179 174 289.148 174.173C289.101 174.346 289.069 174.519 288.991 174.676C288.739 175.335 288.268 175.916 287.671 176.325C286.462 177.142 284.766 177.173 283.446 176.388C283.399 176.356 283.352 176.372 283.321 176.419C283.289 176.45 283.289 176.498 283.336 176.529Z" fill="white"/>
<path d="M280.902 177.236C282.252 177.377 283.478 176.403 283.619 175.037C283.76 173.686 282.786 172.461 281.42 172.32C280.069 172.178 278.844 173.152 278.703 174.519C278.561 175.869 279.535 177.095 280.902 177.236ZM281.404 172.508C282.661 172.65 283.572 173.78 283.43 175.037C283.289 176.293 282.158 177.204 280.902 177.079C279.645 176.937 278.734 175.807 278.86 174.55C279.017 173.278 280.148 172.367 281.404 172.508Z" fill="white"/>
<path d="M279.692 174.394C279.661 174.645 279.849 174.881 280.101 174.912C280.352 174.943 280.588 174.755 280.619 174.504C280.65 174.252 280.462 174.017 280.211 173.985C279.944 173.954 279.724 174.127 279.692 174.394Z" fill="white"/>
</g>
<g opacity="0.72">
<path d="M263.153 170.135C262.855 168.659 261.913 167.324 260.625 166.491C259.981 166.083 259.243 165.8 258.473 165.674C257.703 165.565 256.918 165.596 256.164 165.8C255.41 166.004 254.703 166.397 254.122 166.915C253.84 167.182 253.573 167.465 253.353 167.795C253.243 167.952 253.133 168.125 253.039 168.297C252.991 168.376 252.96 168.47 252.913 168.564C252.866 168.659 252.834 168.737 252.803 168.831C252.222 170.276 252.379 171.973 253.117 173.276C253.148 173.323 253.196 173.339 253.243 173.308C253.274 173.292 253.29 173.245 253.29 173.198C252.803 171.831 252.787 170.339 253.353 169.067C253.902 167.795 255.018 166.79 256.353 166.413C257.672 166.02 259.164 166.208 260.389 166.915C261.002 167.261 261.551 167.732 261.991 168.297C262.447 168.847 262.776 169.507 262.996 170.198C263.012 170.245 263.059 170.276 263.106 170.261C263.138 170.229 263.169 170.182 263.153 170.135Z" fill="white"/>
</g>
<g opacity="0.72">
<path d="M252.913 177.062C252.96 177.062 252.991 177.046 253.007 176.999C253.023 176.952 252.991 176.905 252.944 176.889C252.253 176.653 251.766 175.978 251.751 175.209C251.719 174.219 252.473 173.387 253.415 173.371C254.358 173.355 255.143 174.14 255.159 175.13C255.159 175.444 255.096 175.743 254.955 176.025C254.939 176.072 254.955 176.119 255.002 176.151C255.049 176.167 255.096 176.151 255.127 176.104C255.284 175.805 255.347 175.476 255.347 175.13C255.316 174.031 254.452 173.167 253.415 173.198C252.379 173.23 251.546 174.14 251.578 175.224C251.593 176.072 252.127 176.811 252.897 177.062H252.913Z" fill="white"/>
</g>
<path d="M346.497 187.575C343.003 185.296 338.497 188.301 334.084 190.196C317.735 197.213 310.673 185.74 278.73 186.748C269.002 187.05 259.531 188.341 259.531 188.341C251.237 189.47 245.831 191.043 223.892 194.007C187.958 198.867 158.571 196.488 132.439 194.37C114.417 192.918 107.025 191.366 88.2853 188.906C76.4055 187.333 67.9646 186.365 61.3994 185.659C56.4709 185.135 51.9838 184.691 49.6483 184.469C17.4478 181.505 3.48989 184.812 -22.5133 179.69C-25.566 179.085 -30.9358 177.956 -37.6665 176C-36.9677 178.621 -36.0666 181.424 -34.8713 184.348C-30.9174 193.947 -25.4557 200.742 -21.1157 205.158C-21.0605 205.219 -13.1529 214.676 -3.29595 218.286C48.6185 237.281 323.546 234.357 345.191 213.749C349.2 209.938 350.211 203.061 350.211 203.061C350.579 197.395 350.322 190.075 346.497 187.575Z" fill="#AE8FF7"/>
<path d="M137.874 197.559C138.015 197.512 139.444 196.868 139.633 196.742C140.34 196.255 140.779 195.753 140.701 195.281H140.717C139.853 192.611 137.622 176.779 137.952 176.575L142.083 176.952C141.722 183.282 142.13 189.47 142.79 195.564C142.79 195.564 143.214 196.789 143.167 197.213C143.151 197.386 143.12 197.575 142.978 197.669C142.9 197.716 142.601 197.936 140.999 197.999C139.601 198.062 137.921 198.156 137.795 197.952C137.701 197.81 137.732 197.622 137.874 197.559Z" fill="#E3A382"/>
<path d="M148.004 176.072C148.004 176.072 148.852 183.376 150.25 183.925C151.366 184.365 153.533 182.528 154.381 181.742C154.538 181.554 155.119 180.721 155.622 180.501C156.015 180.329 156.517 180.69 157.287 182.088C157.946 183.313 158.779 184.789 158.653 184.993C158.559 185.151 158.371 185.213 158.261 185.103C158.151 184.993 156.957 183.988 156.753 183.878C156.25 183.596 155.952 183.501 155.685 183.564C154.381 184.852 150.533 188.245 148.004 186.187C144.91 183.658 144.36 176.088 144.36 176.088H148.004V176.072Z" fill="#E3A382"/>
<path fill-rule="evenodd" clip-rule="evenodd" d="M158.528 136.021C158.056 135.801 157.789 136.257 157.884 137.262C157.884 137.262 156.988 138.299 156.957 139.854C155.873 141.738 155.057 143.293 154.507 144.377C153.015 147.314 152.653 148.335 151.334 149.262C150.643 149.749 145.994 151.241 144.957 151.476L144.549 147.016L140.717 147.801L140.34 151.838C140.261 151.822 136.57 151.508 134.026 149.199C132.989 148.257 132.612 147.33 131.01 144.142C130.35 142.822 129.471 141.079 128.419 139.053C128.387 137.482 127.492 136.445 127.492 136.445C127.586 135.44 127.319 134.985 126.848 135.205C126.377 135.425 125.12 136.32 125.544 137.325C125.968 138.33 127.193 139.508 127.193 139.508C128.042 143.655 129.345 146.67 130.319 148.602C131.151 150.236 131.843 151.257 132.895 152.183C134.371 153.503 135.989 154.099 137.104 154.398C136.884 158.717 136.931 166.335 137.104 166.366C138.848 166.696 143.01 166.115 147.125 165.377C147.408 162.832 148.004 155.23 147.863 154.492C147.863 154.476 147.863 154.476 147.863 154.461C148.837 154.304 149.905 153.66 151.146 152.921C151.538 152.686 152.889 151.869 154.004 150.738C157.491 147.204 158.056 141.33 158.135 140.325C158.135 140.325 159.344 139.147 159.784 138.142C160.255 137.137 158.999 136.241 158.528 136.021Z" fill="#E3A382"/>
<path fill-rule="evenodd" clip-rule="evenodd" d="M138.816 141.345C138.816 141.345 139.492 140.591 138.753 140.12C138.031 139.633 137.827 142.271 137.827 142.271L138.816 141.345Z" fill="#FF928E"/>
<path fill-rule="evenodd" clip-rule="evenodd" d="M138.235 141.424C138.235 141.424 137.937 139.272 139.602 138.895C139.602 138.895 139.539 137.089 141.298 136.524C141.298 136.524 145.382 132.503 148.366 137.717C148.366 137.717 152.591 138.141 151.884 143.324C151.884 143.324 152.842 144.55 151.554 146.057C151.554 146.057 149.025 152.607 144.235 148.084L138.235 141.424Z" fill="#131018"/>
<path fill-rule="evenodd" clip-rule="evenodd" d="M141.612 138.565C141.612 138.565 133.806 143.858 137.874 148.13C141.722 152.167 145.68 148.146 145.68 148.146C145.68 148.146 148.633 146.858 148.617 144.911C148.586 142.979 143.151 138.141 141.612 138.565Z" fill="#E3A382"/>
<path fill-rule="evenodd" clip-rule="evenodd" d="M146.607 147.188C146.607 147.188 142.492 143.749 144.046 141.126C144.046 141.126 143.198 140.875 143.34 139.806C143.34 139.806 140.167 140.937 140.151 139.225C140.151 139.225 142.036 135.786 144.392 138.11C146.748 140.435 148.837 142.696 149.261 143.843C149.685 145.005 149.481 147.267 146.607 147.188Z" fill="#131018"/>
<path fill-rule="evenodd" clip-rule="evenodd" d="M144.785 148.54L146.575 146.576C146.575 146.576 148.507 146.498 147.769 147.66C147.046 148.822 145.303 148.917 144.785 148.54Z" fill="#FF928E"/>
<path fill-rule="evenodd" clip-rule="evenodd" d="M147.298 165.204C147.298 165.204 139.036 165.503 136.963 166.225C136.963 166.225 136.79 173.403 137.638 177.738C137.67 177.911 137.795 178.036 137.968 178.083C138.533 178.209 139.931 178.397 142.162 177.769C142.366 177.706 142.491 177.534 142.476 177.314L142.24 174.502C142.224 174.314 142.366 174.157 142.554 174.141L142.79 174.11C142.994 174.094 143.151 174.251 143.151 174.455L143.591 177.314C143.591 177.502 143.717 177.659 143.889 177.722C144.549 177.942 146.245 178.35 148.491 177.675C148.68 177.612 148.79 177.455 148.805 177.267C148.821 173.795 148.209 169.649 147.298 165.204Z" fill="#6A44C5"/>
<path d="M227.186 187.111C227.029 184.111 227.139 181.127 227.578 178.755C228.27 175.033 232.4 176.525 233.641 176.619C234.882 176.713 236.28 181.095 236.578 182.336C236.704 182.886 236.688 184.818 236.61 187.111C236.296 187.095 235.793 187.08 235.18 187.08C232.447 187.127 231.364 187.692 229.306 187.519C228.804 187.488 228.081 187.394 227.186 187.111Z" fill="#E3A382"/>
<path d="M255.85 157.332C255.237 152.196 252.363 144.091 247.871 141.374C246.945 140.809 246.709 139.599 247.274 138.673L247.29 138.657C249.238 135.516 247.95 132.044 244.903 130.175C241.856 128.291 238.18 128.715 236.248 131.856C234.945 133.976 234.756 136.804 235.699 139.002C236.091 139.898 235.793 140.95 234.945 141.453C230.296 144.233 226.935 149.73 226.589 155.541C226.401 158.808 227.17 161.698 228.662 164.054C232.338 169.865 239.233 170.494 240.364 170.588C241.573 170.698 248.939 171.389 253.18 166.174C253.494 165.813 256.415 162.106 255.85 157.332Z" fill="#131018"/>
<path d="M253.117 159.671C252.819 157.63 251.876 153.373 248.452 149.776C247.604 148.881 246.944 148.19 245.798 147.625C244.714 147.091 243.944 147.232 240.63 147.043L237.411 139.363L232.919 140.62L233.845 147.075C233.735 147.091 233.625 147.122 233.5 147.138C232.07 147.436 230.908 147.703 229.872 148.661C229.385 149.117 229.102 149.556 227.861 152.101C227.17 153.53 226.887 154.268 226.353 155.274C225.254 157.363 223.997 159.389 222.914 161.478C221.28 164.603 219.647 167.729 218.013 170.87C217.039 172.551 216.16 173.933 215.437 174.812C215.139 175.174 214.731 174.969 214.197 175.299C213.16 175.927 212.076 177.294 212.485 178.315C212.673 178.786 213.191 179.163 213.725 179.21C214.479 179.273 215.265 178.676 215.532 177.718C215.532 177.718 217.699 174.954 219.537 172.629C224.751 165.922 228.474 160.143 230.311 156.499C230.311 156.97 230.327 157.441 230.327 157.912C230.908 162.813 231.285 166.614 231.568 168.922C231.693 170.038 231.866 171.325 231.112 172.189C230.72 172.645 229.982 172.896 229.4 173.964C229.243 174.263 229.102 174.561 228.992 174.875C228.866 175.221 232.337 176.163 232.62 176.304C235.95 177.31 239.829 177.734 243.002 175.975C243.787 175.535 244.384 174.938 245.107 174.42C244.761 173.917 244.416 173.571 244.149 173.336C243.316 172.582 242.452 172.221 242.358 171.42C242.358 171.373 242.358 171.341 242.358 171.31C242.327 170.65 242.311 169.771 242.358 168.734C242.515 165.53 243.206 163.142 243.363 162.624C243.85 160.991 244.023 160.975 245.688 156.499C245.845 156.075 245.986 155.666 246.128 155.289L246.143 155.305C250.054 158.76 252.724 163.315 248.264 164.682C248.107 164.556 247.871 164.399 247.557 164.273C246.693 163.943 245.923 164.132 245.688 164.195C244.651 164.462 244.086 165.184 243.929 165.404C243.756 165.624 243.568 165.875 243.473 166.284C243.316 166.943 243.536 167.713 243.929 168.043C244.604 168.608 246.238 168.31 247.478 166.786C247.683 166.818 247.981 166.833 248.327 166.833C249.897 166.818 251.798 166.237 252.74 165.169C253.824 163.943 253.494 162.263 253.117 159.671Z" fill="#E3A382"/>
<path d="M231.474 133.772C230.358 137.086 231.395 141.044 234.002 141.924C236.61 142.804 239.829 140.275 240.944 136.961C242.06 133.647 240.662 130.788 238.039 129.909C235.432 129.029 232.589 130.458 231.474 133.772Z" fill="#E3A382"/>
<path d="M237.379 187.111C237.395 185.179 237.458 183.529 237.521 182.823C237.662 181.189 244.321 173.823 245.625 175.613C246.693 177.09 246.85 183.011 246.756 187.111C245.437 187.456 244.384 187.456 243.678 187.393C242.06 187.252 241.306 186.686 239.704 186.702C238.699 186.718 237.898 186.938 237.379 187.111Z" fill="#E3A382"/>
<path d="M234.819 127.945C233.091 129.044 232.306 129.94 232.447 130.615C232.683 131.699 235.259 132.296 240.175 132.374C240.599 133.474 241.023 134.557 241.447 135.657C243.112 132.578 242.17 129.107 239.939 127.804C237.709 126.484 235.008 127.851 234.819 127.945Z" fill="#131018"/>
<path d="M244.479 156.248L241.023 147.091C241.007 147.06 240.992 147.044 240.96 147.044L240.615 147.028L240.63 147.06L243.379 155.824L244.479 156.248Z" fill="#6A44C5"/>
<path d="M231.898 155.368L233.861 147.122V147.075L233.735 147.091C233.72 147.091 233.704 147.106 233.688 147.122L231.065 155.069L231.898 155.368Z" fill="#6A44C5"/>
<path d="M241.29 154.708C239.484 154.739 238.431 155.493 236.657 155.226C234.018 154.818 233.453 154.017 231.898 154.425C229.95 154.944 228.238 157.378 228.976 159.09C229.494 160.268 231.002 160.692 231.222 160.755C232.981 161.226 233.625 160.142 235.808 160.001C238.887 159.797 239.876 161.713 242.735 161.226C247.463 160.409 245.782 154.629 241.29 154.708Z" fill="#6A44C5"/>
<path d="M244.4 173.587C244.4 173.587 242.075 175.519 237.159 175.299C232.243 175.079 230.311 172.975 230.311 172.975C230.311 172.975 230.264 172.928 230.249 172.943C230.029 173.163 228.788 174.106 227.798 177.969C227.798 177.969 233.154 179.32 236.468 183.451C236.484 183.467 236.657 183.624 236.672 183.639H237.473C237.473 183.639 237.646 183.577 237.678 183.545C238.18 183.168 242.123 180.184 246.41 178.315C246.19 176.524 245.641 175.189 245.17 174.388C244.855 173.854 244.526 173.619 244.463 173.556C244.447 173.556 244.4 173.587 244.4 173.587Z" fill="#6A44C5"/>
<path fill-rule="evenodd" clip-rule="evenodd" d="M239.845 139.08L240.945 136.661C240.945 136.661 242.751 136.001 242.421 137.321C242.091 138.656 240.458 139.284 239.845 139.08Z" fill="url(#paint0_linear_73_6923)"/>
<path fill-rule="evenodd" clip-rule="evenodd" d="M212.548 173.81C212.988 173.323 212.972 172.428 212.642 171.909C212.265 171.297 211.448 171.234 210.239 171.077C207.176 170.684 204.647 170.637 204.647 170.637C202.559 170.606 201.412 170.669 200.815 169.899C200.642 169.679 200.438 169.302 199.936 168.972C199.543 168.705 198.805 168.344 198.538 168.595C198.208 168.894 198.648 170.197 199.543 170.841C199.998 171.156 200.422 171.218 200.847 171.297C202.009 171.501 203.108 171.988 204.255 172.271C209.422 173.527 211.652 174.784 212.548 173.81Z" fill="#E3A382"/>
<path fill-rule="evenodd" clip-rule="evenodd" d="M209.658 180.751C210.066 181.003 215.375 184.222 217.181 182.715C217.448 182.495 217.668 182.165 217.668 182.165C218.689 180.61 217.747 178.49 217.527 178.034C215.045 177.531 212.564 177.045 210.066 176.542C209.925 177.94 209.799 179.338 209.658 180.751Z" fill="#DA936F"/>
<path fill-rule="evenodd" clip-rule="evenodd" d="M218.328 172.914C218.328 172.914 215.375 170.542 210.035 171.045C210.035 171.045 210.145 174.799 210.066 176.668L217.904 178.333L218.328 172.914Z" fill="#6A44C5"/>
<path fill-rule="evenodd" clip-rule="evenodd" d="M216.176 167.7L215.783 171.564C215.752 171.878 215.5 172.114 215.186 172.114C214.48 172.129 213.223 172.067 212.281 171.47C212.045 171.328 211.935 171.03 212.014 170.763L213.192 166.946L216.176 167.7Z" fill="#E3A382"/>
<path fill-rule="evenodd" clip-rule="evenodd" d="M212.956 161.245C212.956 161.245 214.652 159.973 212.783 158.261C211.024 156.659 209.469 158.45 209.987 159.753C210.019 159.847 209.972 159.942 209.862 159.957C209.689 159.973 209.532 160.13 209.736 160.727C209.752 160.774 209.736 160.837 209.705 160.884C209.438 161.167 208.558 162.345 210.867 162.753C210.914 162.753 210.945 162.753 210.993 162.722L212.956 161.245Z" fill="#131018"/>
<path fill-rule="evenodd" clip-rule="evenodd" d="M220.966 164.072C220.966 164.072 221.28 162.282 222.301 161.795C223.322 161.292 225.238 160.963 225.835 162.989C226.118 163.962 225.961 164.386 225.709 164.575C225.474 164.748 225.427 165.046 225.552 165.297C225.678 165.596 225.678 165.941 225.16 166.224C225.003 166.303 224.908 166.428 224.861 166.585C224.673 167.229 223.872 168.737 220.464 166.695L220.966 164.072Z" fill="#131018"/>
<path fill-rule="evenodd" clip-rule="evenodd" d="M216.773 159.941C217.495 159.705 219.019 159.533 219.992 161.653C220.055 161.794 220.165 161.936 220.307 162.014C220.966 162.454 222.835 164.025 220.793 166.349C220.699 166.459 220.636 166.585 220.605 166.726C220.511 167.15 220.212 168.061 219.6 168.234C219.411 168.281 219.254 168.407 219.129 168.548C218.657 169.176 217.369 170.48 215.563 168.831C215.469 168.752 215.359 168.689 215.249 168.642L212.61 167.81C212.469 167.763 212.328 167.763 212.171 167.779C211.841 167.841 211.165 167.873 210.977 167.072C210.946 166.915 210.867 166.758 210.741 166.648C210.333 166.224 209.469 165.093 210.317 163.711C210.412 163.553 210.459 163.381 210.443 163.192C210.412 162.643 210.474 161.417 211.652 161.009C211.825 160.946 211.982 160.836 212.092 160.679C212.532 159.988 213.93 158.229 215.987 159.8C216.207 159.972 216.506 160.02 216.773 159.941Z" fill="#131018"/>
<path fill-rule="evenodd" clip-rule="evenodd" d="M218.862 166.681C217.951 169.241 215.485 171.33 212.532 170.152C210.49 169.335 210.255 167.183 211.181 164.623C212.092 162.063 214.385 160.43 216.443 161.168C218.516 161.922 219.773 164.121 218.862 166.681Z" fill="#E3A382"/>
<path fill-rule="evenodd" clip-rule="evenodd" d="M217.951 167.607C217.951 167.607 218.736 166.209 219.239 167.01C219.741 167.795 217.919 169.036 217.432 168.926C216.93 168.816 217.951 167.607 217.951 167.607Z" fill="#E3A382"/>
<path fill-rule="evenodd" clip-rule="evenodd" d="M219.192 166.067C219.192 166.067 216.741 168.282 216.035 163.161C216.035 163.161 214.747 164.559 214.338 163.177C214.338 163.177 211.967 163.758 211.794 162.769C211.621 161.779 215.234 159.455 217.762 161.591C220.307 163.727 219.192 166.067 219.192 166.067Z" fill="#131018"/>
<path d="M209.815 179.166C209.799 179.418 209.783 179.81 209.925 180.266C209.925 180.266 210.035 180.643 210.239 180.957C210.726 181.711 211.825 181.993 212.721 182.198C213.176 182.308 214.385 182.559 215.956 182.402C216.977 182.308 217.48 182.103 217.637 182.041C218.155 181.821 219.05 181.444 219.317 180.596C219.443 180.187 219.38 179.795 219.317 179.575C223.966 178.507 227.924 179.826 229.306 182.527C230.406 184.679 229.479 187.051 229.401 187.239C227.045 192.941 216.239 192.878 213.867 192.862C209.312 192.831 201.993 192.862 199.009 187.428C198.663 186.8 197.58 185.025 198.114 183.234C198.977 180.391 203.611 178.585 209.815 179.166Z" fill="#6A44C5"/>
<path d="M210.365 192.8C209.328 192.815 207.977 192.721 206.438 192.375C205.056 192.061 203.909 191.622 203.03 191.197C202.936 191.025 202.841 190.805 202.779 190.554C202.716 190.349 202.684 190.161 202.653 190.004C202.621 189.831 202.433 188.417 202.873 186.957C203.564 184.679 205.48 183.281 206.187 182.763C207.6 181.727 209.045 181.208 210.192 180.957C210.208 180.957 210.223 180.941 210.239 180.957C210.475 181.145 210.805 181.381 211.166 181.585C211.747 181.899 212.249 182.056 212.689 182.182C212.03 183.219 211.181 184.821 210.679 186.941C210.066 189.391 210.192 191.48 210.365 192.8Z" fill="url(#paint1_linear_73_6923)"/>
<path d="M223.684 185.355C223.935 186.344 223.888 187.585 223.809 188.731C223.731 189.878 223.574 190.962 223.432 191.731C220.935 192.517 218.171 192.784 216.145 192.878C215.846 191.386 215.611 189.564 215.579 187.491C215.548 185.559 215.72 183.847 215.94 182.433C216.443 182.386 217.213 182.245 218.029 181.789C218.485 181.538 218.846 181.255 219.129 181.004C220.26 181.459 223.04 182.826 223.684 185.355Z" fill="url(#paint2_linear_73_6923)"/>
<path fill-rule="evenodd" clip-rule="evenodd" d="M218.438 172.961C218.438 172.961 222.411 177.484 218.846 181.332C218.673 181.521 218.233 182.008 217.511 182.196C215.972 182.605 214.055 181.427 212.61 179.259C212.94 179.008 213.27 178.757 213.6 178.505C213.6 178.505 215.061 180.5 216.506 179.746C217.951 178.992 216.851 175.238 216.851 175.238C216.851 175.238 217.369 173.401 218.438 172.961Z" fill="#E3A382"/>
<path fill-rule="evenodd" clip-rule="evenodd" d="M212.736 179.495C212.736 179.495 213.616 179.26 213.663 178.333C213.71 177.406 213.569 177.045 212.516 176.935C211.464 176.825 210.537 177.705 211.668 178.474C212.799 179.244 212.736 179.495 212.736 179.495Z" fill="#E3A382"/>
<path d="M163.402 200.416C163.481 200.29 163.544 200.149 163.544 200.149C165.837 193.206 159.947 188.385 154.623 190.128C154.246 190.254 153.869 190.411 153.523 190.583C152.408 191.165 151.057 191.055 150.099 190.254C146.895 187.568 142.419 186.563 138.147 187.961C137.141 188.29 136.199 188.73 135.351 189.28C133.874 190.222 132.037 190.426 130.435 189.735C126.461 188.023 121.875 187.694 117.446 189.154C116.582 189.437 115.765 189.782 114.98 190.175C113.582 190.866 111.98 191.008 110.488 190.536C108.414 189.877 106.121 189.845 103.891 190.568C103.404 190.725 102.949 190.913 102.493 191.133C101.142 191.793 99.556 191.652 98.3309 190.772C94.3415 187.898 89.0798 186.924 84.0538 188.573C83.6769 188.699 83.2999 188.84 82.9387 188.981C81.2267 189.688 79.499 188.463 78.9178 188.149C76.9702 187.081 72.7295 184.741 70.0751 184.332C65.9287 183.688 61.0597 187.002 59.065 191.07C57.5729 194.102 57.2588 198.342 59.0022 201.641C64.4837 212.023 88.6244 209.902 101.818 208.74C106.687 208.316 104.896 208.222 120.367 206.321C120.367 206.321 135.948 204.421 148.12 204.421C148.12 204.436 160.984 204.892 163.402 200.416Z" fill="#BFA5FA"/>
<path opacity="0.5" d="M62.8661 201.373C63.2587 201.891 63.6985 202.378 64.1854 202.818H64.9236C64.2954 202.316 63.7456 201.734 63.2902 201.075C62.5362 200.007 62.0336 198.782 61.8295 197.509C61.6253 196.237 61.7195 194.902 62.0808 193.661C62.1907 193.363 62.2692 193.049 62.4263 192.75C62.4891 192.609 62.552 192.452 62.6305 192.311L62.8661 191.887C62.9446 191.745 63.0231 191.604 63.1174 191.478L63.3844 191.07L63.6828 190.693L63.8399 190.504L64.0126 190.332L64.3425 189.97L64.7037 189.64C64.9393 189.421 65.2063 189.232 65.4733 189.044C66.0074 188.682 66.5728 188.368 67.1853 188.133C69.5884 187.127 72.447 187.347 74.7401 188.651C74.8029 188.682 74.8972 188.667 74.9286 188.604C74.9757 188.541 74.9443 188.447 74.8814 188.4C73.7349 187.661 72.3998 187.206 71.0334 187.065C69.6669 186.939 68.2534 187.096 66.9654 187.599C64.3582 188.557 62.3007 190.818 61.5153 193.473C61.1227 194.808 61.0284 196.221 61.264 197.588C61.4839 198.954 62.0494 200.258 62.8661 201.373Z" fill="white"/>
<path opacity="0.5" d="M148.921 192.829C150.099 193.473 151.466 193.692 152.738 193.488C153.382 193.394 154.01 193.19 154.576 192.907C154.701 192.844 154.89 192.734 155.062 192.672C155.235 192.593 155.408 192.53 155.596 192.483C155.958 192.389 156.319 192.326 156.696 192.31C158.188 192.247 159.68 193.001 160.513 194.211C160.937 194.808 161.219 195.514 161.298 196.237C161.392 196.959 161.329 197.682 161.157 198.357C161.141 198.436 161.062 198.483 160.984 198.467C160.905 198.451 160.874 198.373 160.874 198.31C160.952 197.65 160.968 196.975 160.827 196.331C160.701 195.687 160.418 195.09 160.026 194.588C159.633 194.085 159.115 193.692 158.549 193.425C157.968 193.158 157.34 193.033 156.712 193.064C156.397 193.08 156.083 193.127 155.785 193.221C155.628 193.268 155.487 193.316 155.345 193.378C155.188 193.441 155.078 193.504 154.905 193.582C154.246 193.897 153.539 194.101 152.816 194.179C152.094 194.258 151.356 194.195 150.665 194.022C149.974 193.834 149.314 193.52 148.749 193.096C148.686 193.048 148.67 192.954 148.717 192.891C148.78 192.813 148.858 192.797 148.921 192.829Z" fill="white"/>
<g opacity="0.72">
<path d="M82.0277 201.155C82.2005 201.532 82.3419 201.924 82.5618 202.285C82.6717 202.474 82.7817 202.647 82.8916 202.819H84.2581C83.9753 202.49 83.724 202.128 83.5199 201.751C83.3314 201.453 83.2057 201.107 83.0644 200.778C82.9701 200.432 82.8445 200.102 82.7974 199.741C82.6717 199.05 82.6403 198.327 82.7502 197.621C82.8602 196.914 83.0644 196.223 83.3785 195.579C83.7083 194.935 84.1167 194.354 84.6036 193.82C85.5931 192.767 86.8967 192.029 88.3103 191.652C89.7239 191.291 91.2474 191.322 92.661 191.778C94.0745 192.233 95.3467 193.113 96.2734 194.322C96.3205 194.385 96.3991 194.401 96.4619 194.354C96.5247 194.307 96.5561 194.228 96.509 194.15C95.708 192.783 94.3887 191.715 92.8966 191.103C91.3887 190.49 89.6925 190.349 88.0904 190.71C86.4884 191.04 84.9805 191.872 83.8183 193.05C83.2371 193.647 82.7502 194.322 82.3733 195.061C81.9963 195.799 81.745 196.615 81.6194 197.432C81.478 198.265 81.5252 199.113 81.6822 199.93C81.7607 200.354 81.9021 200.762 82.0277 201.155Z" fill="white"/>
<path d="M95.221 202.804H95.598C95.0954 202.255 94.7341 201.579 94.5457 200.841C94.2472 199.647 94.42 198.407 95.0483 197.354C95.6765 196.302 96.6817 195.548 97.8754 195.25C99.0691 194.951 100.31 195.124 101.362 195.752C102.415 196.381 103.168 197.386 103.467 198.579C103.765 199.773 103.593 201.014 102.964 202.066C102.807 202.333 102.619 202.569 102.415 202.804H102.791C102.933 202.616 103.074 202.427 103.2 202.223C103.875 201.108 104.064 199.789 103.734 198.517C103.42 197.244 102.619 196.192 101.504 195.517C100.388 194.841 99.0691 194.653 97.7969 194.983C97.6869 195.014 97.577 195.045 97.467 195.077C96.3519 195.438 95.4095 196.192 94.797 197.213C94.1216 198.328 93.9331 199.647 94.2629 200.92C94.4514 201.626 94.7812 202.27 95.221 202.804Z" fill="white"/>
<path d="M101.802 198.532C101.928 199.034 101.629 199.537 101.127 199.663C100.624 199.788 100.121 199.49 99.9957 198.987C99.8701 198.485 100.168 197.982 100.671 197.857C101.174 197.747 101.676 198.045 101.802 198.532Z" fill="white"/>
</g>
<path d="M134.849 122.778C133.828 122.778 133.655 122.919 133.655 123.438C133.655 123.61 133.671 123.799 133.733 123.972C133.262 124.553 132.822 124.867 132.383 125.417C126.54 132.516 118.184 132.657 118.184 132.657C115.969 132.814 116.441 132.343 109.231 132.045C107.425 131.966 105.933 131.935 104.912 131.919L104.237 125.998C104.221 125.809 104.205 125.637 104.19 125.448H104.174L104.158 125.275L99.2422 122.417L99.1951 122.715C98.7396 125.621 98.2998 128.527 97.8286 131.432C97.5459 131.479 97.1061 131.574 96.5721 131.699C95.3313 131.998 93.9648 132.406 90.5252 133.772C89.8027 134.055 88.766 134.479 88.4676 134.605C85.8918 135.751 76.6721 144.123 77.2376 150.955C77.6773 156.468 77.7873 163.567 82.4835 167.855C82.4521 167.965 82.4521 168.028 82.4521 168.028C82.4521 168.028 82.2479 173.384 84.6824 173.714C87.1169 174.059 87.8237 171.358 88.1849 169.991C88.5304 168.688 84.6667 166.316 83.6929 166.19C82.0123 159.217 81.4312 149.919 88.2634 145.458C88.8917 145.05 90.054 144.783 90.8393 144.657C91.4675 147.311 92.0487 149.903 92.6612 152.589C93.3837 155.746 94.1219 159.028 94.8287 162.185C94.9072 162.531 94.9858 162.876 95.0486 163.19C95.3313 164.431 95.5826 165.594 95.8653 166.819C100.357 167.07 104.849 167.321 109.326 167.573C109.97 165.546 110.519 163.646 111.069 161.541C111.572 159.625 112.011 157.473 112.483 155.526C113.912 149.51 114.509 144.076 114.572 139.835C118.263 139.6 126.069 137.495 130.341 132.673C133.246 129.375 135.037 127.851 135.901 124.49C136.812 124.286 137.754 123.877 137.754 123.516C137.754 123.014 135.869 122.778 134.849 122.778Z" fill="#E3A382"/>
<path d="M123.807 219.907C123.666 219.656 123.289 219.593 123.037 219.546C122.613 219.483 121.859 219.389 121.561 219.342C121.263 219.294 121.231 219.263 121.106 219.216C120.336 218.949 120.1 218.698 119.394 218.226C118.388 217.551 117.132 216.75 116.032 216.043C115.624 215.776 115.247 215.541 114.902 215.117C114.556 214.692 114.006 214.096 113.991 213.514C113.991 213.514 113.991 213.514 113.975 213.514C113.692 209.729 112.42 193.065 111.038 178.96C108.87 180.091 106.514 180.861 104.127 181.222C106.404 192.421 110.048 210.043 111.163 215.085C111.163 215.808 111.179 216.514 111.085 217.19C110.991 217.865 110.896 218.383 110.928 219.012C110.959 219.64 111.572 220.221 111.98 220.362C112.388 220.504 112.593 220.425 112.86 220.41C114.085 220.347 115.231 220.205 116.472 220.645C117.603 221.054 118.86 221.399 120.132 221.383C121.294 221.368 122.315 221.383 123.336 220.802C123.493 220.708 123.65 220.582 123.744 220.425C123.87 220.268 123.901 220.08 123.807 219.907Z" fill="#E3A382"/>
<path d="M96.5408 216.656C96.5408 216.405 96.5565 216.107 96.5722 215.855C96.9805 212.557 99.3208 193.646 100.876 181.443C98.3627 181.411 95.9753 180.909 93.745 180.029C93.2895 190.851 93.0382 204.421 93.9178 214.866C93.6351 214.991 93.3995 215.196 93.2738 215.431C93.0539 215.887 93.4152 216.154 93.2424 216.845C93.1953 217.033 93.1325 217.159 92.6927 217.85C92.1587 218.667 91.8917 219.075 91.6404 219.389C91.1221 220.049 90.8393 220.269 90.5409 220.897C90.4153 221.164 90.0854 221.51 90.1168 221.824C90.1326 221.981 90.1954 222.075 90.3367 222.169C91.1692 222.688 94.6246 223.693 96.792 222.813C97.0905 222.688 97.1062 222.248 97.0748 221.274C96.9962 219.232 96.4936 218.337 96.5408 216.656Z" fill="#E3A382"/>
<path d="M110.614 165.86C105.808 165.562 94.8445 165.389 94.8445 165.42C94.4047 166.975 92.5042 179.493 92.2529 183.483C92.2843 183.608 92.3315 183.813 92.4571 184.032C92.9126 184.818 93.9178 185.069 97.8287 185.179C100.813 185.258 101.74 185.148 101.991 184.598C102.085 184.378 102.054 184.142 102.022 183.985C102.022 182.996 102.289 177.42 102.431 176.965C102.509 176.682 102.682 176.572 102.682 176.572C102.855 176.556 102.918 176.713 102.98 176.949C103.122 179.289 103.389 181.394 103.53 183.734C103.514 183.954 103.514 184.284 103.703 184.582C104.41 185.65 106.985 185.1 109.169 184.645C110.142 184.472 113.221 183.671 113.095 182.917C113.001 181.975 110.645 166.064 110.614 165.86Z" fill="#6A44C5"/>
<path d="M94.8915 165.657C98.0956 166.395 102.446 166.254 105.745 166.191C107.237 166.16 110.661 166.034 110.818 165.893C110.928 165.783 110.959 163.6 110.912 163.521C110.849 163.443 110.629 163.458 110.598 163.458C109.655 163.647 95.08 163.238 94.9072 163.238C94.8287 163.238 94.813 163.223 94.7345 163.301C94.7188 163.317 94.7502 163.427 94.7502 163.584C94.703 164.196 94.5303 165.579 94.8915 165.657Z" fill="#5C39B0"/>
<path d="M103.656 116.591C103.656 116.591 107.111 123.109 106.671 125.732C106.232 128.37 101.944 128.166 98.19 126.03L95.567 118.994L103.656 116.591Z" fill="#E3A382"/>
<path d="M98.7552 122.983C98.7552 122.983 96.2893 121.287 96.1166 122.716C95.9438 124.145 98.3312 124.774 99.5248 124.24L98.7552 122.983Z" fill="url(#paint3_linear_73_6923)"/>
<path d="M93.2895 122.527C93.1324 122.166 92.4728 120.611 93.0696 118.946C93.5565 117.548 94.656 116.857 96.2737 115.821C97.8443 114.816 99.2265 114.36 100.452 113.952C101.928 113.465 103.2 113.213 104.111 113.056C104.3 113.402 105.022 114.784 104.488 116.119C104.001 117.297 102.792 117.753 101.802 118.13C99.1009 119.15 96.7135 118.522 96.5878 119.103C96.525 119.339 96.9334 119.512 97.4831 120.14C98.1742 120.941 98.504 121.789 98.6768 122.37C98.6297 122.449 98.5354 122.559 98.3784 122.59C98.1271 122.653 98.0014 122.559 97.6559 122.37C97.6087 122.339 96.9177 121.93 96.4779 122.182C96.0695 122.417 96.0067 122.857 96.2737 123.391C96.4936 123.831 96.9491 124.035 97.3417 124.192C97.7344 124.349 98.0014 124.349 98.237 124.365C98.4255 124.742 98.614 125.339 98.7082 125.857C98.7239 125.936 98.7396 126.014 98.7396 126.093C98.6454 126.171 98.4883 126.265 98.2684 126.313C97.5773 126.485 96.9177 125.983 96.4622 125.606C94.5774 124.129 93.635 123.375 93.2895 122.527Z" fill="#131018"/>
<path d="M137.754 123.36C145.657 123.36 152.063 117.108 152.063 109.397C152.063 101.685 145.657 95.4336 137.754 95.4336C129.852 95.4336 123.446 101.685 123.446 109.397C123.446 117.108 129.852 123.36 137.754 123.36Z" fill="#6A44C5"/>
<path d="M124.152 108.689C125.048 107.699 130.168 103.082 131.299 103.632C132.869 104.385 126.65 115.003 130.686 120.61C131.77 122.102 133.278 122.84 134.236 123.202C135.414 123.484 137.032 123.736 138.932 123.563C143.126 123.17 146.016 120.987 147.178 119.982C146.204 117.783 144.634 114.799 142.042 111.799C137.644 106.71 132.885 104.527 133.451 102.878C133.796 101.888 135.822 101.762 137.393 101.7C139.984 101.574 145.277 101.935 151.481 105.563C151.481 105.563 150.131 98.7626 141.759 95.9668C140.597 95.6841 139.78 95.8412 139.278 96.014C136.435 96.9563 133.513 101.354 133.388 101.558C133.278 101.731 132.964 102.234 132.54 102.234C132.257 102.234 132.053 101.998 131.99 101.92C131.534 101.401 130.356 100.427 128.44 98.951C128.409 98.9353 128.377 98.9353 128.346 98.9196C127.404 99.6892 126.131 100.93 125.111 102.783C124.184 104.464 123.933 105.768 123.556 107.778C123.461 108.249 123.351 108.987 123.571 109.082C123.76 109.144 124.058 108.783 124.152 108.689Z" fill="#AE8FF7"/>
<path d="M347.333 211.591C346.307 211.476 345.178 211.36 344.152 211.186C329.067 208.812 340.561 206.727 321.781 205.8C303.105 204.932 287.404 210.259 265.033 211.186C242.662 212.055 236.71 207.306 223.986 203.715C211.363 200.125 188.377 211.186 161.183 211.765C133.989 212.344 132.86 208.812 112.336 205.221C91.8124 201.631 65.2341 215.066 42.3501 212.981C19.466 210.897 10.9487 207.016 -21.5815 210.897C-26.9177 211.534 -31.946 212.055 -36.6665 212.576C-34.7167 214.255 -32.6644 215.935 -30.612 217.556C7.66487 247.091 70.4677 262.148 133.27 264.638C209.311 267.65 291.817 251.898 342.1 215.529C343.947 214.255 345.692 212.923 347.333 211.591Z" fill="#C5B1F7"/>
</g>
<defs>
<linearGradient id="paint0_linear_73_6923" x1="241.158" y1="125.195" x2="241.158" y2="141.53" gradientUnits="userSpaceOnUse">
<stop stop-color="#FF928E"/>
<stop offset="1" stop-color="#FEB3B1"/>
</linearGradient>
<linearGradient id="paint1_linear_73_6923" x1="208.383" y1="180.651" x2="206.488" y2="192.41" gradientUnits="userSpaceOnUse">
<stop stop-color="#DAE3FE"/>
<stop offset="1" stop-color="#E9EFFD"/>
</linearGradient>
<linearGradient id="paint2_linear_73_6923" x1="220.637" y1="181.225" x2="218.695" y2="193.275" gradientUnits="userSpaceOnUse">
<stop stop-color="#DAE3FE"/>
<stop offset="1" stop-color="#E9EFFD"/>
</linearGradient>
<linearGradient id="paint3_linear_73_6923" x1="93.247" y1="114.068" x2="99.8437" y2="127.994" gradientUnits="userSpaceOnUse">
<stop stop-color="#FF928E"/>
<stop offset="1" stop-color="#FEB3B1"/>
</linearGradient>
</defs>
</svg>
