<svg width="323" height="232" viewBox="0 0 323 232" fill="none" xmlns="http://www.w3.org/2000/svg">
<mask id="mask0_73_7114" style="mask-type:alpha" maskUnits="userSpaceOnUse" x="0" y="0" width="323" height="232">
<rect width="323" height="232" rx="8" fill="#D9D9D9"/>
</mask>
<g mask="url(#mask0_73_7114)">
<rect width="323" height="232" rx="8" fill="#ECE4FF"/>
<path d="M49.209 232H288.98C289.138 227.466 288.376 222.669 286.505 217.764C274.033 184.881 266.092 185.299 280.334 164.3C294.576 143.301 269.774 74.0537 220.747 118.96C171.72 163.867 166.383 137.359 145.638 114.008C144.775 113.033 123.8 95.4547 94.8269 90.0696C83.3901 87.9342 78.9017 89.2495 75.7511 91.7873C67.9827 98.0079 69.9104 110.264 62.8325 113.498C57.0206 116.159 52.8199 109.196 48.0582 110.248C34.0606 113.358 15.4308 185.948 48.4322 230.979C48.7055 231.335 48.9645 231.675 49.209 232Z" fill="#F4F0FC"/>
<path d="M189.209 -82H428.98C429.138 -77.466 428.376 -72.669 426.505 -67.7636C414.033 -34.8807 406.092 -35.2985 420.334 -14.2999C434.576 6.69876 409.774 75.9463 360.747 31.0398C311.72 -13.8666 306.383 12.6409 285.638 35.9916C284.775 36.9665 263.8 54.5453 234.827 59.9304C223.39 62.0658 218.902 60.7505 215.751 58.2127C207.983 51.9921 209.91 39.7364 202.833 36.5023C197.021 33.8407 192.82 40.8041 188.058 39.7519C174.061 36.6415 155.431 -35.9484 188.432 -80.9787C188.706 -81.3346 188.964 -81.675 189.209 -82Z" fill="#F4F0FC"/>
<path d="M139.633 43.0021L148.649 41.7017L139.633 40.4014L141.887 36.847L138.42 39.101L137.033 30.085L135.732 39.101L132.265 36.847L134.519 40.4014L125.503 41.7017L134.519 43.0021L132.265 46.4698L135.732 44.3025L137.033 53.2318L138.42 44.3025L141.887 46.4698L139.633 43.0021Z" fill="#FFFBFB"/>
<path d="M229.707 66.9291L238.636 65.5421L229.707 64.2417L231.874 60.774L228.406 62.9413L227.106 54.012L225.806 62.9413L222.251 60.774L224.505 64.2417L215.576 65.5421L224.505 66.9291L222.251 70.3968L225.806 68.1428L227.106 77.1588L228.406 68.1428L231.874 70.3968L229.707 66.9291Z" fill="#FFFBFB"/>
<path d="M103.829 105.768L112.759 104.381L103.829 103.081L105.997 99.6133L102.529 101.781L101.229 92.8513L99.8415 101.781L96.3738 99.6133L98.6278 103.081L89.6118 104.381L98.6278 105.768L96.3738 109.236L99.8415 106.982L101.229 115.998L102.529 106.982L105.997 109.236L103.829 105.768Z" fill="#FFFBFB"/>
<path d="M28.0601 105.768L37.0761 104.381L28.0601 103.081L30.3141 99.6133L26.8464 101.781L25.4593 92.8513L24.1589 101.781L20.6912 99.6133L22.8585 103.081L13.9292 104.381L22.8585 105.768L20.6912 109.236L24.1589 106.982L25.4593 115.998L26.8464 106.982L30.3141 109.236L28.0601 105.768Z" fill="#FFFBFB"/>
<path d="M70.9728 158.997L79.9021 157.697L70.9728 156.397L73.2268 152.929L69.6724 155.096L68.372 146.167L67.0716 155.096L63.6039 152.929L65.7712 156.397L56.8419 157.697L65.7712 158.997L63.6039 162.552L67.0716 160.298L68.372 169.314L69.6724 160.298L73.2268 162.552L70.9728 158.997Z" fill="#FFFBFB"/>
<path d="M246.872 130.302L255.801 129.001L246.872 127.701L249.126 124.233L245.572 126.401L244.271 117.471L242.971 126.401L239.503 124.233L241.67 127.701L232.741 129.001L241.67 130.302L239.503 133.856L242.971 131.602L244.271 140.531L245.572 131.602L249.126 133.856L246.872 130.302Z" fill="#FFFBFB"/>
<path d="M310.071 209.712L319 208.325L310.071 207.024L312.238 203.556L308.77 205.81L307.47 196.794L306.169 205.81L302.615 203.556L304.869 207.024L295.94 208.325L304.869 209.712L302.615 213.179L306.169 210.925L307.47 219.941L308.77 210.925L312.238 213.179L310.071 209.712Z" fill="#FFFBFB"/>
<path d="M235.342 206.937L244.271 205.637L235.342 204.337L237.509 200.782L234.041 203.036L232.741 194.02L231.441 203.036L227.973 200.782L230.14 204.337L221.211 205.637L230.14 206.937L227.973 210.405L231.441 208.238L232.741 217.167L234.041 208.238L237.509 210.405L235.342 206.937Z" fill="#FFFBFB"/>
<path d="M70.9728 225.578L79.9021 224.277L70.9728 222.977L73.2268 219.422L69.6724 221.676L68.372 212.747L67.0716 221.676L63.6039 219.422L65.7712 222.977L56.8419 224.277L65.7712 225.578L63.6039 229.045L67.0716 226.878L68.372 235.807L69.6724 226.878L73.2268 229.045L70.9728 225.578Z" fill="#FFFBFB"/>
<path d="M168.242 184.918L177.258 183.531L168.242 182.231L170.496 178.763L167.028 180.93L165.728 172.001L164.341 180.93L160.873 178.763L163.127 182.231L154.111 183.531L163.127 184.918L160.873 188.386L164.341 186.132L165.728 195.148L167.028 186.132L170.496 188.386L168.242 184.918Z" fill="#F5F5F5"/>
<path d="M218.263 113.831C212.975 105.942 210.635 93.6317 205.78 88.6902C210.201 85.3959 214.102 82.9685 217.743 80.9746C220.778 89.5572 222.511 102.908 230.227 106.115C225.806 109.41 221.905 111.837 218.263 113.831Z" fill="#AE8FF7"/>
<path d="M227.279 107.589C226.499 107.069 226.759 106.115 227.626 105.508C222.251 101.173 220.344 91.2038 217.917 83.7483C217.136 84.1818 216.183 83.7483 215.836 82.7947C213.495 84.0951 211.068 85.5688 208.467 87.3894C208.901 88.0829 208.554 89.2099 207.6 89.8168C211.241 94.9316 213.409 104.381 217.397 111.403C218.177 111.056 219.304 111.403 219.911 112.183C222.251 110.883 224.679 109.323 227.279 107.589ZM214.276 98.8328C213.495 96.7522 214.189 94.4115 215.836 93.7179C217.483 92.9377 219.304 94.2381 219.997 96.4054C220.778 98.5727 220.171 100.827 218.524 101.52C216.963 102.127 215.056 100.913 214.276 98.8328Z" fill="white"/>
<path d="M215.749 98.6602C215.576 98.7468 215.489 98.7468 215.316 98.8335C215.229 98.6601 215.229 98.5735 215.143 98.4001C215.316 98.3134 215.403 98.3134 215.576 98.2267C215.403 97.7065 215.403 97.1864 215.489 96.8396C215.663 96.8396 215.836 96.8396 215.923 96.9263C215.836 97.2731 215.923 97.7065 216.009 98.0533C216.27 97.9666 216.53 97.7932 216.79 97.7065C216.703 97.0997 216.616 96.4061 217.136 96.1461C217.483 95.9727 218.003 96.2328 218.35 97.013C218.524 96.9263 218.61 96.9263 218.784 96.8396C218.87 97.013 218.87 97.0997 218.957 97.2731C218.784 97.3598 218.697 97.3598 218.524 97.4465C218.61 97.7932 218.697 98.2267 218.697 98.5735C218.524 98.5735 218.35 98.5735 218.263 98.4868C218.263 98.14 218.263 97.8799 218.177 97.5331C217.917 97.6198 217.657 97.7932 217.397 97.8799C217.483 98.4868 217.57 99.1803 217.05 99.4404C216.616 99.7005 216.096 99.4404 215.749 98.6602ZM217.223 97.5331C217.483 97.4465 217.657 97.3598 217.917 97.2731C217.743 96.9263 217.57 96.8396 217.397 96.9263C217.223 96.9263 217.223 97.1864 217.223 97.5331ZM216.703 98.8335C216.876 98.7468 216.876 98.4868 216.876 98.14C216.616 98.2267 216.443 98.3134 216.183 98.4001C216.356 98.8335 216.53 98.9202 216.703 98.8335Z" fill="#E0E0E0"/>
<path d="M97.154 87.9093C89.5251 91.9839 77.995 92.504 73.1402 96.6653C70.366 91.8972 68.3721 87.7359 66.8116 83.9215C74.9607 82.1876 87.3578 82.2743 90.8255 75.1655C93.5996 79.9336 95.5935 84.0949 97.154 87.9093Z" fill="#AE8FF7"/>
<path d="M92.0392 78.287C91.5191 78.9806 90.6522 78.6338 90.132 77.6802C85.7974 82.2749 76.4346 82.795 69.4125 84.0954C69.7593 84.9623 69.2391 85.8293 68.3722 86.0027C69.4125 88.43 70.6262 91.0308 72.1 93.805C72.7935 93.4582 73.7471 93.9784 74.2673 95.0187C79.2088 92.1578 88.0514 91.3776 94.8134 88.43C94.4666 87.5631 94.9001 86.5228 95.6803 86.0893C94.7267 83.662 93.513 81.0612 92.0392 78.287ZM83.0232 89.7304C81.0293 90.1639 78.9487 89.2103 78.4285 87.4764C77.8217 85.8293 79.1221 84.1821 81.2027 83.7486C83.1966 83.3152 85.2772 84.1821 85.7974 85.8293C86.3175 87.5631 85.1038 89.297 83.0232 89.7304Z" fill="white"/>
<path d="M83.0231 88.2562C83.1098 88.4296 83.1098 88.5163 83.1965 88.6897C83.0231 88.6897 82.9364 88.7764 82.7631 88.7764C82.6764 88.603 82.6764 88.5163 82.5897 88.3429C82.0695 88.4296 81.6361 88.4296 81.2893 88.2562C81.2893 88.0828 81.376 87.9961 81.376 87.8227C81.6361 87.9094 82.0695 87.9961 82.4163 87.9094C82.3296 87.6494 82.2429 87.3893 82.1562 87.1292C81.5494 87.1292 80.9425 87.1292 80.7691 86.6091C80.6824 86.1756 80.8558 85.7421 81.6361 85.5687C81.5494 85.3954 81.5494 85.3087 81.4627 85.1353C81.636 85.1353 81.7227 85.0486 81.8961 85.0486C81.9828 85.222 81.9828 85.3087 82.0695 85.482C82.4163 85.3954 82.8497 85.3954 83.1098 85.482C83.1098 85.6554 83.0231 85.7421 83.0231 85.9155C82.7631 85.8288 82.4163 85.8288 82.1562 85.9155C82.2429 86.1756 82.3296 86.4357 82.4163 86.6957C83.0231 86.6957 83.63 86.6957 83.8034 87.2159C83.9767 87.5627 83.7167 87.9961 83.0231 88.2562ZM82.0695 86.6091C81.9828 86.349 81.8961 86.1756 81.8094 85.9155C81.4627 86.0022 81.376 86.1756 81.4627 86.349C81.5494 86.609 81.7227 86.6091 82.0695 86.6091ZM83.2832 87.3893C83.1965 87.2159 82.9364 87.1292 82.6764 87.1292C82.7631 87.3893 82.8497 87.5627 82.9364 87.8227C83.1965 87.7361 83.2832 87.5627 83.2832 87.3893Z" fill="white"/>
<path d="M172.75 76.3798C166.248 70.6581 161.827 59.9083 156.365 56.7873C159.833 52.5394 163.127 49.2451 166.248 46.4709C170.669 53.493 174.83 65.2832 182.633 66.0634C179.165 70.3114 175.871 73.6057 172.75 76.3798Z" fill="#AE8FF7"/>
<path d="M180.119 68.2309C179.338 67.9708 179.338 67.0172 180.032 66.237C174.223 63.7229 170.582 55.1404 166.855 48.9852C166.161 49.592 165.207 49.4187 164.687 48.6384C162.693 50.459 160.699 52.4529 158.619 54.8803C159.139 55.4004 158.966 56.5274 158.272 57.3077C162.607 61.0354 166.421 69.0112 171.449 74.3861C172.143 73.7792 173.27 73.8659 173.963 74.3861C176.044 72.6522 178.038 70.5716 180.119 68.2309ZM166.248 63.8096C165.121 62.0758 165.381 59.8218 166.768 58.6948C168.155 57.5677 170.062 58.1746 171.189 59.9951C172.316 61.729 172.143 63.983 170.756 65.0233C169.455 66.0636 167.375 65.5435 166.248 63.8096Z" fill="white"/>
<path d="M167.635 63.2036C167.548 63.2903 167.375 63.377 167.288 63.4637C167.202 63.377 167.115 63.2036 167.028 63.1169C167.115 63.0302 167.288 62.9435 167.375 62.8568C167.115 62.4234 167.028 61.9899 167.028 61.6431C167.202 61.6431 167.288 61.5565 167.462 61.5565C167.462 61.9032 167.548 62.25 167.722 62.5968C167.982 62.4234 168.155 62.25 168.415 62.0766C168.242 61.5565 167.982 60.9496 168.502 60.6028C168.849 60.3428 169.282 60.4295 169.802 61.0363C169.889 60.9496 170.062 60.8629 170.149 60.7762C170.236 60.8629 170.322 61.0363 170.409 61.123C170.322 61.2097 170.149 61.2964 170.062 61.3831C170.236 61.7298 170.409 62.0766 170.409 62.4234C170.236 62.4234 170.149 62.5101 169.976 62.5101C169.976 62.25 169.802 61.9032 169.716 61.7298C169.456 61.9032 169.282 62.0766 169.022 62.25C169.195 62.7701 169.456 63.377 169.022 63.7238C168.589 63.8971 168.155 63.8105 167.635 63.2036ZM168.849 61.8165C169.022 61.6431 169.282 61.5565 169.456 61.3831C169.195 61.123 169.022 61.0363 168.849 61.2097C168.675 61.2964 168.762 61.4698 168.849 61.8165ZM168.589 63.1169C168.762 63.0302 168.675 62.7701 168.589 62.4234C168.415 62.5968 168.242 62.6835 167.982 62.8568C168.242 63.2036 168.415 63.2903 168.589 63.1169Z" fill="#E0E0E0"/>
<path d="M193.122 166.799C190.175 158.65 191.388 147.12 188.007 141.745C193.122 139.664 197.544 138.364 201.618 137.41C202.138 145.733 200.231 158.043 206.733 162.464C201.618 164.545 197.197 165.845 193.122 166.799Z" fill="#AE8FF7"/>
<path d="M203.439 163.158C202.832 162.551 203.265 161.771 204.306 161.424C200.404 156.483 201.271 147.207 200.925 140.011C200.058 140.185 199.277 139.578 199.191 138.711C196.59 139.404 193.902 140.185 190.868 141.312C191.128 142.005 190.435 142.959 189.394 143.306C191.475 148.594 191.042 157.523 192.862 164.632C193.729 164.459 194.683 164.979 195.029 165.846C197.717 165.065 200.491 164.199 203.439 163.158ZM193.382 152.668C193.209 150.588 194.509 148.767 196.243 148.42C197.977 148.074 199.364 149.547 199.537 151.628C199.711 153.709 198.497 155.616 196.763 155.876C195.116 156.136 193.556 154.662 193.382 152.668Z" fill="white"/>
<path d="M194.856 152.754C194.683 152.754 194.509 152.841 194.423 152.841C194.423 152.668 194.423 152.581 194.423 152.407C194.596 152.407 194.769 152.321 194.856 152.321C194.856 151.801 194.943 151.367 195.116 151.02C195.29 151.107 195.376 151.107 195.55 151.194C195.376 151.454 195.29 151.887 195.29 152.234C195.55 152.147 195.81 152.147 196.07 152.061C196.157 151.454 196.243 150.847 196.85 150.76C197.284 150.674 197.63 151.02 197.717 151.801C197.89 151.801 198.064 151.714 198.151 151.714C198.151 151.887 198.151 151.974 198.151 152.147C197.977 152.147 197.89 152.234 197.717 152.234C197.717 152.581 197.63 153.014 197.544 153.274C197.37 153.188 197.284 153.188 197.11 153.101C197.197 152.841 197.284 152.494 197.284 152.234C197.024 152.321 196.763 152.321 196.417 152.407C196.33 153.014 196.243 153.621 195.723 153.708C195.376 153.881 195.03 153.534 194.856 152.754ZM196.59 152.061C196.85 152.061 197.11 151.974 197.284 151.974C197.197 151.627 197.024 151.541 196.85 151.541C196.763 151.541 196.677 151.801 196.59 152.061ZM195.723 153.188C195.897 153.188 195.983 152.928 196.07 152.581C195.81 152.581 195.55 152.668 195.376 152.668C195.376 153.101 195.55 153.188 195.723 153.188Z" fill="white"/>
<path d="M308.25 133.684C301.748 127.962 297.327 117.212 291.865 114.091C295.333 109.843 298.627 106.549 301.748 103.775C306.169 110.797 310.331 122.587 318.133 123.367C314.579 127.615 311.371 130.91 308.25 133.684Z" fill="#AE8FF7"/>
<path d="M315.619 125.535C314.839 125.275 314.839 124.321 315.532 123.541C309.724 121.027 306.083 112.444 302.355 106.289C301.661 106.896 300.708 106.722 300.188 105.942C298.194 107.763 296.2 109.757 294.119 112.184C294.639 112.704 294.466 113.831 293.772 114.611C298.107 118.339 301.922 126.315 306.95 131.69C307.643 131.083 308.77 131.17 309.464 131.69C311.458 129.869 313.538 127.875 315.619 125.535ZM301.748 121.027C300.621 119.293 300.881 117.039 302.268 115.912C303.655 114.785 305.563 115.392 306.69 117.212C307.817 118.946 307.643 121.2 306.256 122.24C304.956 123.367 302.875 122.76 301.748 121.027Z" fill="white"/>
<path d="M303.135 120.421C303.049 120.508 302.875 120.594 302.788 120.681C302.702 120.594 302.615 120.421 302.528 120.334C302.615 120.248 302.788 120.161 302.875 120.074C302.615 119.641 302.528 119.207 302.528 118.86C302.702 118.86 302.788 118.774 302.962 118.774C302.962 119.121 303.049 119.467 303.222 119.814C303.482 119.641 303.655 119.467 303.915 119.294C303.742 118.774 303.482 118.167 304.002 117.82C304.349 117.56 304.782 117.647 305.303 118.254C305.389 118.167 305.563 118.08 305.649 117.994C305.736 118.08 305.823 118.254 305.909 118.34C305.823 118.427 305.649 118.514 305.563 118.6C305.736 118.947 305.909 119.294 305.909 119.641C305.736 119.641 305.649 119.727 305.476 119.727C305.476 119.467 305.303 119.121 305.216 118.947C304.956 119.121 304.782 119.294 304.522 119.467C304.696 119.987 304.956 120.594 304.522 120.941C304.089 121.201 303.569 121.114 303.135 120.421ZM304.349 119.034C304.522 118.86 304.782 118.774 304.956 118.6C304.696 118.34 304.522 118.254 304.349 118.427C304.176 118.514 304.176 118.774 304.349 119.034ZM304.089 120.421C304.262 120.334 304.176 120.074 304.089 119.727C303.915 119.901 303.742 119.987 303.482 120.161C303.742 120.508 303.915 120.508 304.089 120.421Z" fill="white"/>
<path d="M154.718 116.605C148.91 124.147 143.621 132.123 141.281 140.705C137.38 139.058 133.305 137.411 129.404 135.59C132.438 126.661 137.813 118.859 142.841 111.49C146.742 113.05 150.73 114.697 154.718 116.605Z" fill="#AE8FF7"/>
<path d="M144.662 112.876C144.055 113.657 142.928 114.003 142.061 113.657C137.9 119.812 133.652 126.227 130.878 133.423C131.745 133.856 132.178 134.896 131.831 135.85C134.259 136.977 136.773 138.017 139.2 139.058C139.46 138.104 140.414 137.67 141.367 138.104C143.708 131.082 147.956 124.58 152.551 118.338C151.684 117.905 151.424 116.951 152.031 116.084C149.603 114.957 147.089 113.917 144.662 112.876ZM143.881 127.094C142.841 128.828 140.674 129.695 138.94 128.915C137.206 128.134 136.513 125.967 137.553 124.146C138.593 122.413 140.847 121.632 142.668 122.413C144.402 123.28 144.922 125.36 143.881 127.094Z" fill="white"/>
<path d="M142.581 126.054C142.755 126.141 142.928 126.228 143.015 126.315C142.928 126.401 142.841 126.575 142.841 126.661C142.668 126.575 142.494 126.488 142.408 126.488C142.148 126.921 141.801 127.268 141.454 127.355C141.367 127.268 141.281 127.095 141.107 127.008C141.367 126.835 141.714 126.575 141.888 126.315C141.628 126.141 141.367 126.054 141.021 125.968C140.674 126.401 140.154 126.835 139.634 126.575C139.2 126.401 139.027 125.881 139.374 125.188C139.2 125.101 139.027 125.014 138.94 124.927C139.027 124.841 139.113 124.667 139.113 124.581C139.287 124.667 139.46 124.754 139.547 124.841C139.72 124.494 140.067 124.234 140.327 124.061C140.414 124.147 140.501 124.321 140.674 124.407C140.414 124.581 140.24 124.754 140.067 125.014C140.327 125.188 140.674 125.274 140.934 125.448C141.281 125.014 141.801 124.581 142.321 124.841C142.755 124.841 142.928 125.361 142.581 126.054ZM140.587 125.621C140.327 125.534 140.067 125.361 139.807 125.274C139.72 125.621 139.72 125.794 139.98 125.881C140.154 125.968 140.414 125.794 140.587 125.621ZM142.061 125.274C141.888 125.188 141.628 125.361 141.454 125.534C141.714 125.621 141.974 125.794 142.234 125.881C142.321 125.534 142.234 125.361 142.061 125.274Z" fill="#E0E0E0"/>
<path d="M292.529 154.573C285.065 164.264 278.269 174.513 275.262 185.542C270.249 183.425 265.013 181.308 260 178.969C263.899 167.495 270.806 157.469 277.267 148C282.28 150.117 287.404 152.233 292.529 154.573Z" fill="#AE8FF7"/>
<path d="M279.606 149.894C278.826 150.896 277.378 151.342 276.264 150.896C270.917 158.805 265.458 167.049 261.894 176.295C263.008 176.852 263.565 178.189 263.119 179.414C266.238 180.863 269.469 182.199 272.588 183.536C272.922 182.311 274.147 181.754 275.373 182.311C278.381 173.287 283.839 164.932 289.743 156.912C288.629 156.355 288.295 155.129 289.075 154.015C285.956 152.567 282.725 151.23 279.606 149.894ZM278.603 168.163C277.267 170.391 274.482 171.505 272.254 170.502C270.026 169.5 269.135 166.715 270.471 164.375C271.808 162.147 274.704 161.145 277.044 162.147C279.272 163.15 279.94 165.824 278.603 168.163Z" fill="white"/>
<path d="M276.933 166.825C277.155 166.936 277.378 167.048 277.49 167.159C277.378 167.27 277.267 167.493 277.267 167.605C277.044 167.493 276.821 167.382 276.71 167.382C276.376 167.939 275.93 168.384 275.484 168.496C275.373 168.384 275.262 168.162 275.039 168.05C275.373 167.827 275.819 167.493 276.041 167.159C275.707 166.936 275.373 166.825 274.927 166.713C274.482 167.27 273.813 167.827 273.145 167.493C272.588 167.27 272.365 166.602 272.811 165.711C272.588 165.599 272.365 165.488 272.254 165.377C272.365 165.265 272.477 165.042 272.477 164.931C272.699 165.042 272.922 165.154 273.034 165.265C273.256 164.82 273.702 164.485 274.036 164.263C274.148 164.374 274.259 164.597 274.482 164.708C274.148 164.931 273.925 165.154 273.702 165.488C274.036 165.711 274.482 165.822 274.816 166.045C275.262 165.488 275.93 164.931 276.598 165.265C277.155 165.265 277.378 165.934 276.933 166.825ZM274.37 166.156C274.036 166.045 273.702 165.822 273.368 165.711C273.256 166.156 273.256 166.379 273.591 166.491C273.925 166.602 274.148 166.491 274.37 166.156ZM276.264 165.711C276.041 165.599 275.707 165.822 275.484 166.045C275.819 166.156 276.153 166.379 276.487 166.491C276.598 166.156 276.487 165.822 276.264 165.711Z" fill="white"/>
<path d="M265.164 59.9939C264.73 50.5444 256.234 44.0424 255.801 34.593C259.876 33.1192 263.863 31.6454 267.938 30.085C268.371 39.5344 276.867 46.0364 277.301 55.4858C273.226 57.0463 269.152 58.5201 265.164 59.9939Z" fill="#AE8FF7"/>
<path d="M274.873 55.6593C274.787 54.619 275.307 53.5787 276.261 53.3186C274.787 45.9497 268.978 40.228 267.505 32.8592C266.638 33.2059 265.684 32.6858 265.597 31.7322C263.083 32.6858 260.569 33.5527 258.055 34.5063C258.142 35.5466 257.535 36.587 256.668 36.847C258.142 44.2159 263.95 49.9376 265.424 57.3065C266.291 56.9597 267.245 57.4798 267.331 58.4335C269.845 57.5665 272.359 56.6129 274.873 55.6593ZM263.257 46.1231C262.303 44.3893 262.997 42.3954 264.904 41.7018C266.724 41.0083 268.978 41.8752 270.019 43.609C270.972 45.3429 270.279 47.3368 268.372 48.0304C266.464 48.7239 264.21 47.857 263.257 46.1231Z" fill="white"/>
<path d="M264.991 45.8631C264.817 45.9498 264.644 45.9498 264.47 46.0365C264.384 45.9498 264.384 45.7764 264.297 45.6897C264.471 45.603 264.644 45.603 264.817 45.5163C264.644 45.0829 264.557 44.6494 264.644 44.3893C264.817 44.3893 264.991 44.3893 265.164 44.3893C265.077 44.6494 265.164 44.9962 265.251 45.343C265.511 45.2563 265.858 45.0829 266.118 44.9962C265.944 44.476 265.858 43.9559 266.464 43.6958C266.898 43.5224 267.505 43.6958 267.938 44.3027C268.112 44.216 268.285 44.216 268.458 44.1293C268.545 44.216 268.545 44.3893 268.632 44.476C268.458 44.5627 268.285 44.5627 268.112 44.6494C268.285 44.9962 268.372 45.343 268.285 45.603C268.112 45.603 267.938 45.603 267.765 45.603C267.765 45.343 267.765 45.0829 267.591 44.8228C267.331 44.9095 266.985 45.0829 266.724 45.1696C266.898 45.6897 266.985 46.2099 266.378 46.47C266.031 46.6433 265.424 46.47 264.991 45.8631ZM266.724 44.8228C266.985 44.7361 267.245 44.6494 267.505 44.5627C267.331 44.3027 267.071 44.216 266.898 44.3027C266.638 44.3027 266.638 44.5627 266.724 44.8228ZM266.118 45.9498C266.378 45.8631 266.378 45.603 266.291 45.343C266.031 45.4297 265.771 45.5163 265.511 45.603C265.684 45.9498 265.944 46.0365 266.118 45.9498Z" fill="white"/>
<path d="M19.4775 172.088C19.0441 162.638 10.5482 156.136 10.1147 146.687C14.1893 145.213 18.1771 143.739 22.2517 142.179C22.6852 151.628 31.181 158.13 31.6145 167.58C27.5399 169.054 23.4654 170.527 19.4775 172.088Z" fill="#AE8FF7"/>
<path d="M29.1872 167.667C29.1005 166.626 29.6207 165.586 30.5743 165.326C29.1005 157.957 23.2921 152.235 21.8184 144.867C20.9514 145.213 19.9978 144.693 19.9111 143.74C17.3971 144.693 14.883 145.56 12.3689 146.514C12.4556 147.554 11.8487 148.594 10.9818 148.854C12.4556 156.223 18.264 161.945 19.7377 169.314C20.6047 168.967 21.5583 169.487 21.645 170.441C24.2458 169.574 26.7598 168.62 29.1872 167.667C29.2739 167.753 29.2739 167.667 29.1872 167.667ZM17.5704 158.13C16.6168 156.397 17.3104 154.403 19.2176 153.709C21.0381 153.016 23.2921 153.883 24.3324 155.616C25.2861 157.35 24.5925 159.344 22.6853 160.038C20.7781 160.731 18.5241 159.864 17.5704 158.13Z" fill="white"/>
<path d="M19.3043 157.871C19.1309 157.957 18.9575 157.957 18.7841 158.044C18.6974 157.957 18.6974 157.784 18.6107 157.697C18.7841 157.611 18.9575 157.611 19.1309 157.524C18.9575 157.09 18.8708 156.657 18.9575 156.397C19.1309 156.397 19.3043 156.397 19.4776 156.397C19.391 156.657 19.4776 157.004 19.5643 157.351C19.8244 157.264 20.1712 157.09 20.4313 157.004C20.2579 156.484 20.1712 155.963 20.778 155.703C21.2115 155.53 21.8183 155.703 22.2518 156.31C22.4252 156.224 22.5986 156.224 22.772 156.137C22.8586 156.224 22.8586 156.397 22.9453 156.484C22.772 156.57 22.5986 156.57 22.4252 156.657C22.5986 157.004 22.6853 157.351 22.5986 157.611C22.4252 157.611 22.2518 157.611 22.0784 157.611C22.0784 157.351 22.0784 157.09 21.905 156.83C21.645 156.917 21.2982 157.09 21.0381 157.177C21.2115 157.697 21.2982 158.217 20.6913 158.478C20.3446 158.651 19.7377 158.564 19.3043 157.871ZM21.0381 156.83C21.2982 156.744 21.5583 156.657 21.8183 156.57C21.645 156.31 21.3849 156.224 21.2115 156.31C20.9514 156.31 20.9514 156.57 21.0381 156.83ZM20.4313 158.044C20.6913 157.957 20.6913 157.697 20.6046 157.437C20.3446 157.524 20.0845 157.611 19.8244 157.697C19.9978 157.957 20.2579 158.044 20.4313 158.044Z" fill="#E0E0E0"/>
<path d="M50.4267 59.8206C47.1324 68.9233 35.689 68.75 31.9612 76.4656C28.4068 73.3447 25.0258 70.3971 21.6448 67.7096C24.9391 58.6069 36.3825 58.7803 40.1103 51.0647C43.578 54.1856 47.0457 57.1332 50.4267 59.8206Z" fill="#AE8FF7"/>
<path d="M41.7575 53.4058C41.324 54.186 40.197 54.186 39.4168 53.4925C35.3423 58.8674 27.0198 59.7343 23.2053 66.0629C23.9856 66.6697 24.1589 67.8834 23.8122 68.7503C25.9795 70.4842 28.0601 72.3047 30.3141 74.212C30.7476 73.4317 31.8746 73.4317 32.6548 74.1253C36.7293 68.7503 45.1385 67.8834 48.8663 61.6415C48.0861 61.0347 47.9127 59.821 48.3461 58.9541C46.0921 57.1335 43.9248 55.313 41.7575 53.4058ZM38.7233 66.4096C37.0761 67.2766 34.3886 66.7564 32.8282 65.2826C31.181 63.8089 31.0943 61.8149 32.8282 60.948C34.4753 60.0811 37.1628 60.6012 38.81 62.075C40.2837 63.6355 40.3704 65.5427 38.7233 66.4096Z" fill="white"/>
<path d="M37.596 65.0223C37.7694 65.1957 37.8561 65.2824 38.0295 65.4557C37.9428 65.5424 37.7694 65.5424 37.6827 65.6291C37.5093 65.4557 37.4227 65.369 37.2493 65.1957C36.8158 65.369 36.2957 65.4557 35.9489 65.369C35.8622 65.1957 35.7755 65.0223 35.6888 64.9356C36.0356 64.9356 36.469 64.9356 36.8158 64.7622C36.5557 64.5021 36.2957 64.242 36.0356 64.0687C35.5154 64.242 34.9086 64.3287 34.3017 63.8086C33.8683 63.4618 33.8683 62.9417 34.3884 62.5949C34.215 62.4215 34.1283 62.3348 33.955 62.1614C34.0416 62.0747 34.1283 62.0747 34.3017 61.988C34.4751 62.1614 34.5618 62.2481 34.7352 62.4215C35.082 62.2481 35.4287 62.1614 35.7755 62.2481C35.8622 62.4215 35.9489 62.5082 36.0356 62.6816C35.6888 62.6816 35.4287 62.7683 35.1686 62.855C35.4287 63.115 35.6888 63.3751 35.9489 63.5485C36.469 63.3751 37.0759 63.2884 37.6827 63.8086C38.1162 64.1554 38.2029 64.5888 37.596 65.0223ZM35.6021 63.6352C35.342 63.4618 35.1686 63.2017 34.9086 63.0283C34.6485 63.2017 34.7352 63.3751 34.9086 63.5485C34.9953 63.7219 35.2553 63.7219 35.6021 63.6352ZM37.2493 64.0687C37.0759 63.8953 36.8158 63.8953 36.469 63.982C36.7291 64.1554 36.9025 64.4154 37.1626 64.5888C37.4227 64.4154 37.4227 64.242 37.2493 64.0687Z" fill="white"/>
<path d="M76.9224 190.32C73.0397 201.048 59.5525 200.844 55.1589 209.938C50.9697 206.259 46.9849 202.785 43 199.618C46.8827 188.889 60.3699 189.094 64.7634 180C68.8505 183.678 72.9375 187.152 76.9224 190.32Z" fill="#AE8FF7"/>
<path d="M66.7048 182.759C66.194 183.678 64.8657 183.678 63.9461 182.861C59.1438 189.196 49.2328 190.218 44.8392 197.574C45.7588 198.29 45.9632 199.72 45.5545 200.742C48.1089 202.785 50.5611 204.931 53.2176 207.179C53.7285 206.259 55.0568 206.259 55.9764 207.077C60.7787 200.742 70.6897 199.72 75.0833 192.363C74.1637 191.648 73.9593 190.218 74.4702 189.196C71.8136 187.152 69.2592 185.007 66.7048 182.759ZM63.0265 198.085C61.0852 199.107 57.9177 198.494 56.0786 196.757C54.1372 195.02 54.0351 192.67 56.0786 191.648C58.0199 190.626 61.1874 191.239 63.1287 192.976C64.9679 194.713 64.9679 197.063 63.0265 198.085Z" fill="white"/>
<path d="M61.8002 196.449C62.0045 196.654 62.1067 196.756 62.311 196.96C62.2089 197.062 62.0045 197.063 61.9023 197.165C61.698 196.96 61.5958 196.858 61.3915 196.654C60.8806 196.858 60.2675 196.96 59.8588 196.858C59.7567 196.654 59.6545 196.449 59.5523 196.347C59.961 196.347 60.4719 196.347 60.8806 196.143C60.5741 195.836 60.2675 195.53 59.961 195.326C59.348 195.53 58.6327 195.632 57.9175 195.019C57.4066 194.61 57.4066 193.997 58.0197 193.589C57.8153 193.384 57.7131 193.282 57.5088 193.078C57.611 192.975 57.7131 192.975 57.9175 192.873C58.1218 193.078 58.224 193.18 58.4284 193.384C58.8371 193.18 59.2458 193.078 59.6545 193.18C59.7567 193.384 59.8588 193.486 59.961 193.691C59.5523 193.691 59.2458 193.793 58.9392 193.895C59.2458 194.202 59.5523 194.508 59.8588 194.712C60.4719 194.508 61.1871 194.406 61.9023 195.019C62.4132 195.428 62.4132 195.939 61.8002 196.449ZM59.348 194.815C59.0414 194.61 58.8371 194.304 58.5305 194.099C58.224 194.304 58.3262 194.508 58.5305 194.712C58.7349 194.815 59.0414 194.815 59.348 194.815ZM61.2893 195.326C61.0849 195.121 60.7784 195.121 60.3697 195.223C60.6762 195.428 60.8806 195.734 61.1871 195.939C61.5958 195.734 61.4936 195.53 61.2893 195.326Z" fill="#E0E0E0"/>
<path d="M93.5997 52.0183C85.2772 47.3369 77.735 37.3673 71.1464 35.2C73.5738 30.2585 76.0011 26.2707 78.4285 22.8896C84.9305 29.2182 92.5594 40.4015 100.882 39.708C98.3678 44.6495 96.0271 48.5506 93.5997 52.0183Z" fill="#AE8FF7"/>
<path d="M93.5997 52.0183C85.2772 47.3369 77.735 37.3673 71.1464 35.2C73.5738 30.2585 76.0011 26.2707 78.4285 22.8896C84.9305 29.2182 92.5594 40.4015 100.882 39.708C98.3678 44.6495 96.0271 48.5506 93.5997 52.0183Z" fill="#AE8FF7"/>
<path d="M98.8012 42.3951C97.9343 42.3084 97.6742 41.3548 98.1944 40.4011C91.5191 38.9274 85.2772 30.865 79.8156 25.3167C79.2954 26.0102 78.2551 26.0969 77.5616 25.4033C76.0878 27.5707 74.5274 30.0847 73.0536 32.8589C73.7471 33.2924 73.9205 34.4194 73.4004 35.373C78.9487 38.3205 85.1038 45.7761 91.7792 50.2841C92.2993 49.5905 93.513 49.4172 94.3799 49.8506C95.8537 47.5099 97.3275 45.0825 98.8012 42.3951ZM83.2833 40.4011C81.6361 38.8407 81.2894 36.5 82.3297 35.1129C83.4567 33.7258 85.624 33.9859 87.2712 35.6331C88.9183 37.1935 89.3518 39.4475 88.3115 40.8346C87.1845 42.135 84.9305 41.9616 83.2833 40.4011Z" fill="white"/>
<path d="M84.5835 39.5349C84.4969 39.6215 84.4102 39.7949 84.3235 39.8816C84.2368 39.7949 84.1501 39.7082 83.9767 39.5349C84.0634 39.4482 84.1501 39.2748 84.2368 39.1881C83.89 38.8413 83.5432 38.3212 83.4565 37.9744C83.6299 37.8877 83.7166 37.8877 83.89 37.801C83.9767 38.1478 84.1501 38.4945 84.4968 38.8413C84.6702 38.6679 84.8436 38.4078 85.017 38.2345C84.6702 37.7143 84.3235 37.1942 84.6702 36.674C84.9303 36.3272 85.4505 36.3272 86.144 36.9341C86.2307 36.8474 86.3174 36.674 86.4041 36.5873C86.4908 36.674 86.6642 36.7607 86.7509 36.9341C86.6642 37.0208 86.5775 37.1942 86.4908 37.2808C86.7509 37.5409 87.0109 37.8877 87.0976 38.2345C86.9242 38.3212 86.8375 38.3212 86.6642 38.4078C86.5775 38.1478 86.3174 37.8877 86.144 37.6276C85.9706 37.801 85.7972 38.0611 85.6239 38.2345C85.9706 38.7546 86.4041 39.2748 85.9706 39.7082C85.7972 40.055 85.1904 40.055 84.5835 39.5349ZM85.3638 37.8877C85.5372 37.7143 85.7105 37.5409 85.7972 37.2808C85.4505 37.0208 85.2771 37.0208 85.1904 37.1942C85.1037 37.3675 85.1904 37.6276 85.3638 37.8877ZM85.4505 39.2748C85.6239 39.1014 85.4505 38.8413 85.2771 38.5812C85.1037 38.7546 84.9303 38.928 84.8436 39.1014C85.1904 39.4482 85.3638 39.4482 85.4505 39.2748Z" fill="white"/>
<path d="M159.794 92.2934C150.04 97.5029 135.298 98.1679 129.091 103.488C125.544 97.392 122.995 92.0717 121 87.1948C131.419 84.978 147.269 85.0888 151.703 76C155.249 81.9853 157.799 87.3056 159.794 92.2934Z" fill="#AE8FF7"/>
<path d="M159.794 92.2934C150.04 97.5029 135.298 98.1679 129.091 103.488C125.544 97.392 122.995 92.0717 121 87.1948C131.419 84.978 147.269 85.0888 151.703 76C155.249 81.9853 157.799 87.3056 159.794 92.2934Z" fill="#AE8FF7"/>
<path d="M153.144 79.8787C152.479 80.7654 151.37 80.322 150.705 79.1028C145.163 84.9773 133.192 85.6423 124.214 87.3049C124.658 88.4133 123.993 89.5217 122.884 89.7434C124.214 92.8469 125.766 96.1721 127.651 99.719C128.537 99.2756 129.756 99.9406 130.421 101.271C136.739 97.613 148.045 96.6154 156.69 92.8469C156.247 91.7385 156.801 90.4084 157.799 89.8542C156.58 86.7507 155.028 83.4255 153.144 79.8787ZM141.727 94.6203C139.178 95.1745 136.518 93.9553 135.853 91.7385C135.077 89.6325 136.739 87.5266 139.399 86.9724C141.949 86.4182 144.609 87.5266 145.274 89.6325C145.939 91.7385 144.276 93.9553 141.727 94.6203Z" fill="white"/>
<path d="M141.616 92.7378C141.727 92.9595 141.727 93.0703 141.838 93.292C141.616 93.292 141.505 93.4028 141.283 93.4028C141.173 93.1811 141.173 93.0703 141.062 92.8486C140.397 92.9595 139.843 92.9595 139.399 92.7378C139.399 92.5161 139.51 92.4053 139.51 92.1836C139.843 92.2944 140.397 92.4053 140.84 92.2944C140.729 91.9619 140.618 91.6294 140.508 91.2969C139.732 91.2969 138.956 91.2969 138.734 90.6318C138.623 90.0776 138.845 89.5234 139.843 89.3018C139.732 89.0801 139.732 88.9692 139.621 88.7476C139.843 88.7476 139.953 88.6367 140.175 88.6367C140.286 88.8584 140.286 88.9692 140.397 89.1909C140.84 89.0801 141.394 89.0801 141.727 89.1909C141.727 89.4126 141.616 89.5234 141.616 89.7451C141.283 89.6343 140.84 89.6343 140.508 89.7451C140.618 90.0776 140.729 90.4102 140.84 90.7427C141.616 90.7427 142.392 90.7427 142.614 91.4077C142.946 91.8511 142.614 92.4053 141.616 92.7378ZM140.508 90.6318C140.397 90.2993 140.286 90.0776 140.175 89.7451C139.732 89.856 139.621 90.0776 139.732 90.2993C139.732 90.521 140.064 90.6318 140.508 90.6318ZM141.948 91.5185C141.838 91.2969 141.505 91.186 141.173 91.186C141.283 91.5186 141.394 91.7402 141.505 92.0727C141.948 91.9619 142.059 91.7402 141.948 91.5185Z" fill="white"/>
<path d="M227.106 34.0734C218.09 37.1076 209.247 40.8354 202.572 46.7305C200.231 43.1761 197.717 39.6217 195.55 35.8939C203.006 30.1722 211.761 26.5311 220.084 23.2368C222.425 26.7045 224.852 30.3456 227.106 34.0734Z" fill="#AE8FF7"/>
<path d="M227.106 34.0734C218.09 37.1076 209.247 40.8354 202.572 46.7305C200.231 43.1761 197.717 39.6217 195.55 35.8939C203.006 30.1722 211.761 26.5311 220.084 23.2368C222.425 26.7045 224.852 30.3456 227.106 34.0734Z" fill="#AE8FF7"/>
<path d="M220.778 25.4904C219.824 25.8372 218.697 25.4904 218.177 24.7102C211.328 27.4844 204.219 30.6053 197.891 35.0266C198.411 35.8935 198.151 37.0205 197.371 37.6274C198.758 39.8814 200.318 42.1354 201.792 44.3894C202.572 43.7825 203.612 43.9559 204.133 44.7362C209.941 40.2282 217.136 37.0205 224.419 34.4198C223.899 33.5528 224.245 32.5992 225.199 32.3391C223.725 29.9118 222.251 27.6577 220.778 25.4904ZM212.282 36.8471C210.461 37.7141 208.207 37.2806 207.167 35.6335C206.127 33.9863 206.82 31.819 208.641 30.9521C210.461 30.0851 212.802 30.692 213.842 32.3391C214.796 33.9863 214.102 35.9802 212.282 36.8471Z" fill="white"/>
<path d="M211.761 35.2867C211.848 35.4601 211.935 35.5468 212.022 35.7202C211.935 35.8069 211.761 35.8069 211.675 35.8936C211.588 35.7202 211.501 35.6335 211.415 35.4601C210.981 35.6335 210.461 35.7202 210.114 35.6335C210.114 35.4601 210.114 35.2867 210.028 35.1134C210.374 35.2001 210.721 35.1134 211.068 34.94C210.895 34.6799 210.721 34.4198 210.548 34.1597C210.028 34.3331 209.421 34.4198 209.074 33.8997C208.814 33.4662 208.901 32.946 209.594 32.5993C209.507 32.4259 209.421 32.3392 209.334 32.1658C209.421 32.0791 209.594 32.0791 209.681 31.9924C209.768 32.1658 209.854 32.2525 209.941 32.4259C210.288 32.2525 210.634 32.1658 210.981 32.2525C210.981 32.4259 210.981 32.5993 211.068 32.7727C210.721 32.7727 210.461 32.8594 210.201 32.946C210.374 33.2061 210.548 33.4662 210.721 33.7263C211.241 33.5529 211.935 33.4662 212.195 33.9864C212.542 34.4198 212.455 34.8533 211.761 35.2867ZM210.374 33.813C210.201 33.5529 210.114 33.3795 209.941 33.1194C209.681 33.2928 209.594 33.5529 209.681 33.7263C209.854 33.8997 210.114 33.813 210.374 33.813ZM211.761 34.3331C211.675 34.1597 211.415 34.1597 211.068 34.2464C211.241 34.5065 211.328 34.6799 211.501 34.94C211.761 34.6799 211.848 34.5065 211.761 34.3331Z" fill="white"/>
<path d="M68.6324 126.487C62.0438 119.638 51.4673 120.331 44.8787 113.483C46.9593 109.755 49.0399 105.94 51.0338 102.213C57.6225 109.061 68.1989 108.368 74.7876 115.217C72.7936 118.944 70.713 122.759 68.6324 126.487Z" fill="#AE8FF7"/>
<path d="M68.6324 126.487C62.0438 119.638 51.4673 120.331 44.8787 113.483C46.9593 109.755 49.0399 105.94 51.0338 102.213C57.6225 109.061 68.1989 108.368 74.7876 115.217C72.7936 118.944 70.713 122.759 68.6324 126.487Z" fill="#AE8FF7"/>
<path d="M73.227 116.777C72.5335 116.083 72.2734 114.956 72.7069 114.089C66.8118 109.495 58.576 108.975 52.6809 104.38C52.2474 105.247 51.2071 105.42 50.5136 104.727C49.2132 107.067 47.9128 109.408 46.6124 111.749C47.306 112.442 47.566 113.569 47.1326 114.436C53.0277 119.031 61.2634 119.551 67.1585 124.146C67.592 123.279 68.6323 123.105 69.3258 123.799C70.6262 121.545 71.9266 119.204 73.227 116.777ZM58.1425 117.21C56.2353 116.517 55.5418 114.523 56.4954 112.789C57.449 111.055 59.703 110.275 61.6102 110.882C63.5175 111.575 64.211 113.569 63.2574 115.303C62.3038 117.124 59.9631 117.904 58.1425 117.21Z" fill="white"/>
<path d="M59.2696 115.91C59.1829 116.084 59.0962 116.257 59.0095 116.344C58.9229 116.257 58.7495 116.257 58.6628 116.17C58.7495 115.997 58.8362 115.823 58.9229 115.737C58.4894 115.563 58.1426 115.303 57.9692 114.957C58.1426 114.87 58.2293 114.696 58.4027 114.61C58.5761 114.87 58.8362 115.13 59.0962 115.217C59.2696 114.957 59.443 114.696 59.5297 114.35C59.0962 114.09 58.6628 113.743 58.9229 113.136C59.1829 112.703 59.7031 112.442 60.3966 112.616C60.4833 112.442 60.57 112.269 60.6567 112.182C60.7434 112.269 60.9168 112.269 61.0035 112.356C60.9168 112.529 60.8301 112.703 60.7434 112.789C61.0902 112.963 61.3502 113.136 61.5236 113.396C61.3502 113.483 61.2636 113.656 61.0902 113.743C60.9168 113.569 60.7434 113.396 60.4833 113.223C60.3099 113.483 60.1366 113.743 60.0499 114.09C60.4833 114.35 60.9168 114.696 60.6567 115.303C60.57 115.823 60.0499 116.084 59.2696 115.91ZM59.8765 114.003C60.0499 113.743 60.1366 113.483 60.3099 113.223C59.9632 113.136 59.7031 113.223 59.6164 113.396C59.5297 113.656 59.6164 113.83 59.8765 114.003ZM60.2232 115.217C60.3099 115.043 60.2232 114.87 59.9632 114.696C59.7898 114.957 59.7031 115.217 59.5297 115.477C59.8765 115.477 60.1366 115.39 60.2232 115.217Z" fill="white"/>
<path d="M283.109 91.7235C276.954 99.1791 266.291 95.1912 260.049 101.173C257.795 97.0984 255.541 93.1106 253.287 89.4695C259.442 82.0139 270.105 86.0018 276.347 80.02C278.601 84.0946 280.855 88.0824 283.109 91.7235Z" fill="#AE8FF7"/>
<path d="M283.109 91.7235C276.954 99.1791 266.291 95.1912 260.049 101.173C257.795 97.0984 255.541 93.1106 253.287 89.4695C259.442 82.0139 270.105 86.0018 276.347 80.02C278.601 84.0946 280.855 88.0824 283.109 91.7235Z" fill="#AE8FF7"/>
<path d="M277.127 82.7949C276.434 83.4017 275.394 83.0549 274.873 82.1013C269.152 85.7424 261.003 83.7485 255.368 88.3432C255.888 89.2101 255.714 90.3371 255.021 91.0306C256.408 93.3713 257.882 95.8854 259.269 98.3995C259.962 97.7926 261.003 98.1394 261.523 99.093C267.158 95.452 275.307 97.4459 281.029 92.8512C280.508 91.9843 280.682 90.8573 281.375 90.1637C279.902 87.7363 278.515 85.3089 277.127 82.7949ZM269.845 93.9782C268.025 94.2383 265.684 92.8512 264.644 90.9439C263.603 88.95 264.21 87.1295 266.118 86.8694C267.938 86.6093 270.279 87.9964 271.319 89.9036C272.273 91.8976 271.666 93.7181 269.845 93.9782Z" fill="white"/>
<path d="M269.325 92.2434C269.412 92.4168 269.499 92.5902 269.585 92.7636C269.499 92.7636 269.325 92.7636 269.239 92.8503C269.152 92.6769 269.065 92.5035 268.979 92.3301C268.545 92.3301 268.025 92.2434 267.678 92.0701C267.678 91.8967 267.678 91.7233 267.592 91.5499C267.938 91.7233 268.285 91.81 268.632 91.81C268.458 91.4632 268.285 91.2031 268.112 90.8564C267.592 90.7697 266.898 90.683 266.551 90.0761C266.291 89.556 266.378 89.1225 267.071 88.9491C266.985 88.7757 266.898 88.6024 266.811 88.429C266.898 88.429 267.071 88.429 267.158 88.3423C267.245 88.5157 267.331 88.6891 267.418 88.8624C267.765 88.8624 268.112 88.8624 268.458 89.0358C268.458 89.2092 268.545 89.3826 268.545 89.556C268.198 89.4693 267.938 89.3826 267.678 89.3826C267.852 89.7294 268.025 89.9894 268.198 90.3362C268.719 90.4229 269.412 90.5096 269.759 91.1164C270.019 91.6366 269.932 92.0701 269.325 92.2434ZM267.852 90.3362C267.678 90.0761 267.592 89.8161 267.418 89.4693C267.158 89.556 267.071 89.7294 267.158 89.9894C267.331 90.1628 267.592 90.2495 267.852 90.3362ZM269.239 91.2898C269.152 91.0298 268.892 90.9431 268.545 90.9431C268.719 91.2031 268.805 91.4632 268.979 91.81C269.325 91.6366 269.325 91.4632 269.239 91.2898Z" fill="white"/>
<path d="M217.866 139.741L218.97 133.559C218.97 133.559 216.541 131.241 216.872 129.144C217.093 127.046 227.801 123.625 229.677 123.404C231.554 123.293 230.891 130.91 230.229 132.345C229.677 133.78 223.275 135.436 223.275 135.436L222.502 141.948L217.866 139.741Z" fill="#E3A382"/>
<path d="M95.0082 169.875L90.8136 165.239C90.8136 165.239 91.6967 162.038 90.2617 160.382C88.937 158.727 78.009 161.376 76.3532 162.259C74.6974 163.142 79.3336 169.323 80.5478 170.206C81.762 171.09 88.054 169.103 88.054 169.103L92.1382 174.18L95.0082 169.875Z" fill="#E3A382"/>
<path d="M179.011 160.051C190.932 159.389 201.64 161.818 207.159 160.051C212.678 158.285 218.087 135.215 218.087 135.215L223.937 137.202C223.937 137.202 221.73 161.155 212.126 167.558C202.523 173.96 180.446 173.96 180.446 173.96L179.011 160.051Z" fill="#407BFF"/>
<path opacity="0.7" d="M223.937 137.203C223.937 137.203 221.84 161.156 212.126 167.559C206.607 171.201 197.114 172.747 189.939 173.409C184.53 173.85 180.335 173.85 180.335 173.85L179.673 167.338L178.9 159.942C190.822 159.28 201.529 161.708 207.048 159.942C212.568 158.176 217.976 135.105 217.976 135.105L223.937 137.203Z" fill="#AE8FF7"/>
<path opacity="0.2" d="M190.049 173.409C184.64 173.85 180.446 173.85 180.446 173.85L179.784 167.338C182.433 168.441 186.296 170.208 190.049 173.409Z" fill="black"/>
<path d="M191.043 238.975L188.724 213.035L145.343 214.028C145.343 214.028 140.266 250.235 143.908 256.858C150.531 268.669 194.244 261.935 204.509 263.039C208.704 265.247 231.002 339.315 231.002 339.315L243.475 334.237C243.475 334.237 230.008 271.759 226.918 260.059C222.833 243.611 205.393 243.943 191.043 238.975Z" fill="#6A44C5"/>
<path d="M262.903 332.913L251.864 333.906C251.864 333.906 238.287 265.026 237.294 264.695C235.417 264.143 229.898 263.591 227.028 262.818C206.607 257.52 156.161 247.696 156.161 247.696L174.706 229.813C174.706 229.813 258.929 239.969 260.806 259.728C261.799 269.221 262.903 332.913 262.903 332.913Z" fill="#5B37B4"/>
<path d="M139.603 166.345C139.603 166.345 155.609 157.845 179.011 160.053C179.011 160.053 187.179 180.695 188.725 213.038L145.123 216.018C145.123 216.018 145.895 188.312 139.603 166.345Z" fill="#407BFF"/>
<path opacity="0.7" d="M145.123 216.018C145.123 216.018 145.454 206.083 144.24 193.389C143.908 188.974 143.356 184.338 142.473 179.591C141.811 175.176 140.818 170.65 139.603 166.345C139.603 166.345 155.609 157.845 179.011 160.053C179.011 160.053 187.179 180.695 188.725 213.038L145.123 216.018Z" fill="#AE8FF7"/>
<path opacity="0.2" d="M144.239 193.5C143.908 189.085 143.356 184.448 142.473 179.702C143.356 178.819 144.239 178.267 145.233 177.936L145.343 177.494C145.343 177.936 147.661 186.104 144.239 193.5Z" fill="black"/>
<path d="M151.635 163.364C155.609 167.006 165.433 165.682 165.433 165.682C165.433 165.682 171.505 164.026 170.29 162.149C166.648 161.598 164.992 159.831 164.219 157.734C163.778 156.52 163.778 155.085 163.888 153.65C163.888 152.877 164.109 152.104 164.219 151.332L152.077 142.391C153.622 148.131 155.609 159.059 151.635 163.364Z" fill="#E3A382"/>
<path opacity="0.2" d="M154.836 147.91C155.278 155.196 161.238 157.183 164.219 157.624C163.777 156.41 163.777 154.975 163.888 153.54L154.836 147.91Z" fill="black"/>
<path d="M162.564 117.334C167.089 118.548 170.843 128.924 167.421 135.768C163.999 142.612 153.954 123.405 153.954 123.405C153.954 123.405 159.583 116.561 162.564 117.334Z" fill="#263238"/>
<path d="M171.836 141.067C171.836 141.508 171.836 141.95 171.836 142.281C171.836 143.826 171.505 145.261 170.953 146.586C170.401 148.021 169.518 149.235 168.524 150.339C166.648 152.215 164.109 153.43 161.46 153.65C159.693 153.761 157.817 153.43 155.94 152.436C150.532 149.677 149.097 144.93 146.006 137.203C145.343 135.547 145.012 133.781 145.123 131.905C145.564 125.613 151.083 120.866 157.375 121.308C166.206 121.97 171.173 133.34 171.836 141.067Z" fill="#E3A382"/>
<path d="M158.811 135.436C159.031 136.098 159.583 136.54 159.914 136.319C160.356 136.208 160.466 135.546 160.246 134.884C160.025 134.222 159.473 133.78 159.142 134.001C158.7 134.111 158.59 134.773 158.811 135.436Z" fill="#263238"/>
<path d="M166.096 133.009C166.316 133.671 166.868 134.113 167.2 133.892C167.641 133.781 167.751 133.119 167.531 132.457C167.31 131.795 166.758 131.353 166.427 131.574C166.096 131.684 165.875 132.346 166.096 133.009Z" fill="#263238"/>
<path d="M163.889 134.111C165.324 135.877 166.979 137.312 168.856 138.637C168.194 139.63 167.09 140.182 165.986 140.293L163.889 134.111Z" fill="#D7916D"/>
<path d="M167.752 128.924C167.641 129.035 167.531 129.035 167.31 129.035C166.317 128.814 165.323 129.035 164.44 129.587C164.33 129.697 163.999 129.697 163.888 129.587C163.778 129.476 163.778 129.145 163.888 129.035C164.882 128.262 166.206 127.931 167.421 128.262C167.641 128.262 167.752 128.483 167.752 128.703C167.862 128.814 167.862 128.924 167.752 128.924Z" fill="#263238"/>
<path d="M156.382 132.897C156.272 132.897 156.272 132.897 156.161 132.897C155.941 132.787 155.941 132.566 156.051 132.345C156.713 131.241 157.817 130.469 159.142 130.358C159.363 130.358 159.583 130.579 159.583 130.69C159.583 130.91 159.363 131.131 159.142 131.131C158.148 131.241 157.265 131.793 156.713 132.676C156.603 132.897 156.493 132.897 156.382 132.897Z" fill="#263238"/>
<path d="M148.545 125.28L150.311 128.592C149.428 129.585 149.207 131.131 150.311 132.345C152.518 134.773 152.629 139.961 151.083 142.611C151.083 142.611 150.532 141.396 149.538 142.059C148.545 142.721 151.415 149.234 154.616 151.552C154.616 151.552 150.421 149.896 146.006 143.714C141.922 137.974 139.714 132.786 140.045 129.806L148.545 125.28Z" fill="#263238"/>
<path d="M144.681 144.819C146.116 146.365 148.213 147.137 150.311 147.248C153.07 147.248 153.733 144.599 152.408 142.281C151.194 140.294 148.213 137.755 145.674 138.859C143.136 139.962 142.804 142.943 144.681 144.819Z" fill="#E3A382"/>
<path d="M166.758 142.946C166.096 144.16 165.434 146.368 165.434 146.368C165.213 146.368 164.992 146.368 164.771 146.257C161.901 145.816 160.687 144.712 160.135 143.608C159.915 142.946 159.804 142.394 159.915 141.842C159.915 141.29 160.135 140.849 160.135 140.849C161.57 141.952 164.22 142.504 165.655 142.836C166.317 142.946 166.758 142.946 166.758 142.946Z" fill="#263238"/>
<path d="M165.765 142.836L165.323 143.829C162.564 143.498 160.687 142.836 160.025 141.842C160.025 141.29 160.246 140.849 160.246 140.849C161.681 142.063 164.33 142.615 165.765 142.836Z" fill="white"/>
<path d="M164.771 146.367C161.901 145.925 160.687 144.821 160.135 143.717C161.129 143.938 162.233 144.159 163.226 144.821C164.109 145.152 164.551 145.704 164.771 146.367Z" fill="#DE5753"/>
<path d="M155.941 125.833C155.941 125.833 155.168 120.534 158.479 121.528C161.791 122.521 162.012 120.534 161.018 116.45C160.025 112.366 150.421 110.931 145.013 117.664C139.604 124.398 137.727 129.917 140.376 132.897C143.026 135.878 152.96 127.157 152.96 127.157C152.96 127.157 153.402 124.618 154.837 123.073C154.837 123.073 154.837 124.618 155.941 125.833Z" fill="#263238"/>
<path d="M161.128 165.13L166.427 169.766C166.427 169.766 169.297 189.414 176.472 198.024H180.887L181.77 194.934C181.77 194.934 171.725 184.668 167.862 168.993V162.701L161.128 165.13Z" fill="#263238"/>
<path d="M152.96 159.059L163.888 163.144L164.771 157.625L170.401 159.611L171.836 166.676L164.219 164.689L160.356 169.877L149.317 162.702L152.96 159.059Z" fill="#407BFF"/>
<path opacity="0.5" d="M152.96 159.059L163.888 163.144L164.771 157.625L170.401 159.611L171.836 166.676L164.219 164.689L160.356 169.877L149.317 162.702L152.96 159.059Z" fill="#AB89FA"/>
<path d="M144.461 215.354L189.277 211.049V216.568L144.461 220.211V215.354Z" fill="#5B3AA9"/>
<path d="M179.783 212.152C179.342 211.821 178.79 211.6 178.238 211.711L174.264 212.152C173.27 212.263 172.498 213.146 172.498 214.139V216.678C172.498 217.23 172.718 217.782 173.16 218.113C173.491 218.444 174.043 218.665 174.485 218.555C174.595 218.555 174.595 218.555 174.705 218.555L178.679 218.113C179.673 218.003 180.445 217.12 180.445 216.126V213.587C180.445 213.035 180.114 212.594 179.783 212.152ZM178.569 217.12L174.595 217.561C174.374 217.561 174.043 217.561 173.822 217.34C173.602 217.12 173.491 216.899 173.491 216.678V214.139C173.491 213.587 173.822 213.256 174.374 213.146L178.348 212.704H178.458C178.679 212.704 178.9 212.815 179.121 212.925C179.342 213.146 179.452 213.367 179.452 213.587V213.919H179.342L178.238 214.029C177.907 214.029 177.575 214.36 177.575 214.802C177.575 215.133 177.907 215.464 178.348 215.464L179.452 215.354V216.237C179.452 216.678 179.121 217.12 178.569 217.12Z" fill="white"/>
<path d="M139.603 166.342C132.097 170.758 121.389 185.328 117.636 184.997C113.883 184.666 93.4621 166.563 93.4621 166.563L88.826 171.641C88.826 171.641 107.702 194.159 116.533 195.925C125.363 197.581 144.681 181.355 144.681 181.355C144.681 181.355 146.557 177.05 144.681 172.634C142.583 168.108 139.603 166.342 139.603 166.342Z" fill="#407BFF"/>
<path opacity="0.7" d="M139.603 166.342C132.097 170.758 121.389 185.328 117.636 184.997C113.883 184.666 93.4621 166.563 93.4621 166.563L88.826 171.641C88.826 171.641 107.702 194.159 116.533 195.925C125.363 197.581 144.681 181.355 144.681 181.355C144.681 181.355 146.557 177.05 144.681 172.634C142.583 168.108 139.603 166.342 139.603 166.342Z" fill="#AE8FF7"/>
</g>
</svg>
