<svg width="388" height="225" viewBox="0 0 388 225" fill="none" xmlns="http://www.w3.org/2000/svg">
<g clip-path="url(#clip0_73_6326)">
<path d="M217.937 24.8953C219.952 24.8953 221.863 25.4623 223.413 26.4933C225.221 22.1119 229.509 19.0191 234.572 19.0191C236.742 19.0191 238.809 19.5861 240.617 20.617C242.528 12.679 249.658 6.80273 258.182 6.80273C267.378 6.80273 274.973 13.6583 276.109 22.4727C276.574 22.4211 277.091 22.3696 277.556 22.3696C282.205 22.3696 286.183 25.4623 287.423 29.7406H209.154C210.962 26.8541 214.217 24.8953 217.937 24.8953Z" fill="#E4D9FF"/>
<path d="M133.105 9.48223C134.139 9.48223 135.068 9.7915 135.843 10.2554C136.722 8.03894 138.892 6.49257 141.423 6.49257C142.508 6.49257 143.541 6.80184 144.419 7.3173C145.401 3.34827 148.966 0.410156 153.202 0.410156C157.8 0.410156 161.571 3.81218 162.191 8.24513C162.45 8.19358 162.656 8.19358 162.915 8.19358C165.24 8.19358 167.203 9.73996 167.874 11.8533H128.766C129.644 10.4616 131.297 9.48223 133.105 9.48223Z" fill="#E4D9FF"/>
<path d="M194.222 183.708C299.793 183.708 385.374 181.931 385.374 179.739C385.374 177.547 299.793 175.77 194.222 175.77C88.652 175.77 3.07031 177.547 3.07031 179.739C3.07031 181.931 88.652 183.708 194.222 183.708Z" fill="#BEB1F2"/>
<mask id="mask0_73_6326" style="mask-type:luminance" maskUnits="userSpaceOnUse" x="0" y="6" width="113" height="113">
<path d="M112.906 6.44141H0.642578V118.451H112.906V6.44141Z" fill="white"/>
</mask>
<g mask="url(#mask0_73_6326)">
<path d="M24.82 88.9157C26.6799 88.9157 28.4364 89.4827 29.9346 90.4105C31.5878 86.3384 35.5659 83.5034 40.2155 83.5034C42.2304 83.5034 44.1419 84.0704 45.7951 84.9982C47.5516 77.6787 54.2161 72.2148 62.0689 72.2148C70.5932 72.2148 77.6193 78.555 78.7043 86.7508C79.1692 86.6992 79.5825 86.6477 80.0475 86.6477C84.3872 86.6477 88.0552 89.5342 89.1918 93.4517H16.709C18.4139 90.7198 21.4103 88.9157 24.82 88.9157Z" fill="#E4D9FF"/>
</g>
<path d="M23.7363 167.368H23.7879C24.3046 162.832 28.1276 159.327 32.7773 159.327C34.8438 159.327 36.7553 160.048 38.3052 161.183C38.2535 160.719 38.2018 160.255 38.2018 159.791C38.2018 157.574 38.7701 155.461 39.8034 153.657C39.2868 152.162 39.0285 150.513 39.0285 148.863C39.0285 140.41 45.8996 133.605 54.3206 133.605C62.7933 133.605 69.6128 140.461 69.6128 148.863C76.5356 148.863 82.1668 154.482 82.1668 161.389C82.1668 162.317 82.0635 163.244 81.8568 164.121C81.9602 164.121 82.0635 164.121 82.1668 164.121C85.4732 164.121 88.3147 165.873 89.9162 168.502C90.3812 168.399 90.8978 168.399 91.4144 168.399C96.4257 168.399 100.455 172.42 100.455 177.419H90.1229H82.3218H74.1074H32.8289H32.7773H14.747C14.6953 177.11 14.6953 176.749 14.6953 176.44C14.6953 171.44 18.7767 167.368 23.7363 167.368Z" fill="#9F8CEA"/>
<path d="M372.356 170.462C372.304 170.462 372.304 170.462 372.356 170.462C371.994 167.369 369.308 164.947 366.105 164.947C364.658 164.947 363.366 165.411 362.282 166.235C362.333 165.926 362.333 165.617 362.333 165.256C362.333 163.71 361.92 162.266 361.248 161.029C361.61 159.998 361.765 158.864 361.765 157.73C361.765 151.906 357.064 147.215 351.226 147.215C345.388 147.215 340.687 151.906 340.687 157.73C335.934 157.73 332.059 161.596 332.059 166.338C332.059 167.008 332.111 167.627 332.266 168.246C332.214 168.246 332.111 168.246 332.059 168.246C329.786 168.246 327.823 169.431 326.738 171.235C326.376 171.184 326.066 171.132 325.704 171.132C322.243 171.132 319.453 173.916 319.453 177.369H326.531H331.904H337.535H366.053H366.105H378.504C378.504 177.163 378.555 176.905 378.555 176.699C378.555 173.245 375.766 170.462 372.356 170.462Z" fill="#9F8CEA"/>
<path d="M202.849 179.844H62.0684V55.9275L132.485 34.7422L202.849 55.9275V179.844Z" fill="#DACAFF"/>
<path d="M91.0002 18.3496H77.7229V43.1947H91.0002V18.3496Z" fill="#A993F0"/>
<path d="M202.591 173.812H62.0684V179.843H202.591V173.812Z" fill="#968ADB"/>
<path d="M202.644 34.5352H61.8633V55.669H202.644V34.5352Z" fill="#A993F0"/>
<path d="M55.043 57.7823L132.227 34.5352L209.773 57.7823H55.043Z" fill="#C5B7FF"/>
<path d="M55.043 57.7836V50.8764L81.5976 43.1445L78.8595 50.5671L55.043 57.7836Z" fill="#A993F0"/>
<path d="M209.773 57.7817V51.4415L197.529 46.957V54.1219L209.773 57.7817Z" fill="#A993F0"/>
<path d="M115.127 34.7404L132.847 29.3281L150.516 34.7404L140.597 37.0085L132.227 34.5343L118.898 38.5548L115.127 34.7404Z" fill="#A993F0"/>
<path d="M116.16 179.327V132.214C116.16 122.884 123.755 115.307 133.106 115.307C142.456 115.307 150.051 122.884 150.051 132.214V179.327H116.16Z" fill="#A993F0"/>
<path d="M144.935 179.326H121.377V132.213C121.377 125.719 126.647 120.461 133.156 120.461C139.666 120.461 144.935 125.719 144.935 132.213V179.326Z" fill="#B1A7EA"/>
<path opacity="0.6" d="M134.76 122.112C137.601 122.112 140.236 123.143 142.251 124.792C140.081 122.163 136.826 120.514 133.158 120.514C126.649 120.514 121.379 125.771 121.379 132.266V179.328H122.98V133.864C122.929 127.369 128.25 122.112 134.76 122.112Z" fill="#5363BC"/>
<path d="M100.529 130.835L100.529 89.2891H75.1627V130.835H100.529Z" fill="#A993F0"/>
<path d="M97.9228 91.8535H77.7227V128.245H97.9228V91.8535Z" fill="white"/>
<path opacity="0.25" d="M97.9744 95.4617L77.7227 107.833V91.8535H97.9744V95.4617Z" fill="#9FAFFF"/>
<path d="M102.83 126.441H72.8145V131.905H102.83V126.441Z" fill="#E6EAFF"/>
<path d="M100.04 100.463H76.8438V102.576H100.04V100.463Z" fill="#A993F0"/>
<path d="M100.04 124.328H76.8438V126.442H100.04V124.328Z" fill="#A993F0"/>
<path d="M88.985 90.41H86.6602V126.492H88.985V90.41Z" fill="#A993F0"/>
<path opacity="0.34" d="M102.83 129.637H72.8145V132.059H102.83V129.637Z" fill="#AF9AF3"/>
<path d="M189.908 130.831V89.2852H164.542V130.831H189.908Z" fill="#A993F0"/>
<path d="M187.298 91.8516H167.098V128.243H187.298V91.8516Z" fill="white"/>
<path opacity="0.25" d="M187.349 95.4598L167.098 107.831V91.8516H187.349V95.4598Z" fill="#9FAFFF"/>
<path d="M192.258 126.439H162.242V131.903H192.258V126.439Z" fill="#E6EAFF"/>
<path d="M189.417 100.461H166.221V102.574H189.417V100.461Z" fill="#A993F0"/>
<path d="M189.417 124.326H166.221V126.44H189.417V124.326Z" fill="#A993F0"/>
<path d="M178.36 90.4102H176.035V126.492H178.36V90.4102Z" fill="#A993F0"/>
<path opacity="0.34" d="M192.258 129.635H162.242V132.057H192.258V129.635Z" fill="#AF9AF3"/>
<path d="M138.737 146.956C139.878 146.956 140.803 146.033 140.803 144.894C140.803 143.755 139.878 142.832 138.737 142.832C137.595 142.832 136.67 143.755 136.67 144.894C136.67 146.033 137.595 146.956 138.737 146.956Z" fill="#A993F0"/>
<path d="M150.051 173.812H116.16V179.843H150.051V173.812Z" fill="#E6EAFF"/>
<path d="M144.884 168.244H121.326V173.811H144.884V168.244Z" fill="#A993F0"/>
<path opacity="0.34" d="M61.8633 48.9165L115.902 34.5352H61.8633V48.9165Z" fill="#9FAFFF"/>
<path opacity="0.34" d="M150.516 34.7413L202.643 48.8134V34.5352L150.516 34.7413Z" fill="#9FAFFF"/>
<path d="M120.912 82.2667V62.8339C120.912 56.0298 126.492 50.4629 133.311 50.4629C140.131 50.4629 145.71 56.0298 145.71 62.8339V82.2667H120.912Z" fill="#A993F0"/>
<path d="M143.076 79.6883H123.496V62.8328C123.496 57.4205 127.887 53.0391 133.312 53.0391C138.737 53.0391 143.128 57.4205 143.128 62.8328V79.6883H143.076Z" fill="white"/>
<path d="M144.77 67.8952V65.2148H121.78V67.8952H144.77Z" fill="#A993F0"/>
<path d="M134.499 51.6992H131.812V66.3898H134.499V51.6992Z" fill="#A993F0"/>
<path d="M148.293 82.2676H118.277V87.7314H148.293V82.2676Z" fill="#E6EAFF"/>
<path opacity="0.34" d="M148.293 85.4102H118.277V87.8328H148.293V85.4102Z" fill="#AF9AF3"/>
<path d="M18.3116 174.378C20.6365 174.378 22.8063 175.048 24.6145 176.182C26.681 171.182 31.5889 167.625 37.3752 167.625C39.9066 167.625 42.2315 168.295 44.298 169.481C46.5195 160.409 54.6822 153.656 64.4464 153.656C74.9856 153.656 83.665 161.491 85.0082 171.646C85.5765 171.543 86.0931 171.543 86.6614 171.543C92.0343 171.543 96.529 175.099 97.9755 179.996H8.28906C10.3556 176.594 14.0753 174.378 18.3116 174.378Z" fill="#B1A2F2"/>
<path d="M351.382 90.4102H202.645V179.997H351.382V90.4102Z" fill="#E4E2F7"/>
<path d="M354.738 94.4812H202.85V79.6875L354.738 87.7287V94.4812Z" fill="#9F8CEA"/>
<path d="M320.726 179.958V120.887L230.058 120.887V179.958H320.726Z" fill="#CBBBFE"/>
<path d="M318.162 122.988H232.66V179.483H318.162V122.988Z" fill="white"/>
<path opacity="0.34" d="M318.162 128.656H232.66V130.615H318.162V128.656Z" fill="#E4E2F6"/>
<path opacity="0.34" d="M318.162 136.184H232.66V138.142H318.162V136.184Z" fill="#E4E2F6"/>
<path opacity="0.34" d="M315.423 145.72H229.922L232.66 143.762H318.162L315.423 145.72Z" fill="#E4E2F6"/>
<path opacity="0.34" d="M318.162 151.338H232.66V153.297H318.162V151.338Z" fill="#E4E2F6"/>
<path opacity="0.34" d="M318.162 158.863H232.66V160.822H318.162V158.863Z" fill="#E4E2F6"/>
<path opacity="0.34" d="M318.162 166.441H232.66V168.4H318.162V166.441Z" fill="#E4E2F6"/>
<path opacity="0.34" d="M318.162 174.02H232.66V175.978H318.162V174.02Z" fill="#E4E2F6"/>
<path d="M353.913 177.473H202.645V179.895H353.913V177.473Z" fill="#968ADB"/>
<path d="M354.738 87.7305H202.85V94.483H354.738V87.7305Z" fill="#C1B6EF"/>
<path d="M375.353 176.183C373.7 176.183 372.15 176.647 370.806 177.472C369.36 173.864 365.795 171.338 361.662 171.338C359.854 171.338 358.149 171.802 356.703 172.678C355.101 166.183 349.263 161.338 342.237 161.338C334.694 161.338 328.443 166.956 327.461 174.224C327.048 174.173 326.686 174.121 326.273 174.121C322.45 174.121 319.195 176.699 318.162 180.204H382.586C381.087 177.833 378.401 176.183 375.353 176.183Z" fill="#B1A2F2"/>
<mask id="mask1_73_6326" style="mask-type:luminance" maskUnits="userSpaceOnUse" x="291" y="24" width="90" height="105">
<path d="M380.364 24.1229H291.504V128.246H380.364V24.1229Z" fill="white"/>
</mask>
<g mask="url(#mask1_73_6326)">
<path d="M333.091 36.752C333.711 36.752 334.331 36.9581 334.796 37.2674C335.365 35.8757 336.708 34.8963 338.309 34.8963C338.981 34.8963 339.653 35.1025 340.221 35.4118C340.841 32.9376 343.062 31.0819 345.749 31.0819C348.642 31.0819 351.018 33.2468 351.38 36.0303C351.535 36.0303 351.69 35.9788 351.845 35.9788C353.292 35.9788 354.531 36.9581 354.945 38.2983H330.353C330.922 37.3705 331.903 36.752 333.091 36.752Z" fill="#E4D9FF"/>
</g>
<path d="M277.038 122.832L262.159 133.296L250.69 124.224L245.988 129.069L259.472 140.615C261.125 142.007 263.45 142.265 265.413 141.285L280.861 130.77L277.038 122.832Z" fill="#E3A382"/>
<path d="M300.802 221.699C299.976 221.493 295.378 220.05 293.104 219.328C292.278 219.07 291.399 219.019 290.573 219.225C289.85 219.38 288.92 219.586 288.093 219.792C288.093 219.792 286.492 220.05 284.787 219.998C282.514 219.895 279.775 219.843 276.831 219.843C268.72 219.843 266.498 220.307 266.498 220.874C266.498 221.441 268.72 221.854 276.831 221.854C282.927 221.854 288.145 221.596 290.366 221.235C290.986 221.132 291.658 221.132 292.278 221.338C293.001 221.544 293.828 221.854 294.809 222.472C298.012 224.431 301.939 225.307 302.559 224.483C303.127 223.606 301.887 222.008 300.802 221.699Z" fill="#A188A5"/>
<path d="M222.07 222.986C229.888 222.986 236.225 222.432 236.225 221.749C236.225 221.066 229.888 220.512 222.07 220.512C214.252 220.512 207.914 221.066 207.914 221.749C207.914 222.432 214.252 222.986 222.07 222.986Z" fill="#A188A5"/>
<path d="M222.74 104.482C207.603 104.843 195.359 117.317 195.307 132.42C195.255 142.472 200.525 151.338 208.481 156.338C210.961 157.884 212.511 160.616 212.511 163.554V176.75C212.511 177.471 212.769 178.141 213.286 178.605L215.3 180.667V215.512C215.3 217.213 216.075 218.863 217.367 219.945L217.832 220.306C220.467 222.471 224.29 222.316 226.718 219.894L232.866 213.76C233.176 213.45 233.331 213.09 233.331 212.677V210.77C233.331 210.1 232.866 209.481 232.194 209.275C231.213 209.017 229.973 208.296 229.766 206.234C229.559 203.76 230.799 202.729 231.729 202.316C232.401 202.007 232.762 201.337 232.762 200.667L232.659 180.667L234.622 178.605C235.087 178.09 235.346 177.471 235.346 176.801V162.832C235.346 159.997 236.792 157.42 239.169 155.822C246.608 150.771 251.516 142.265 251.516 132.575C251.568 116.802 238.6 104.07 222.74 104.482ZM236.017 149.637L233.589 147.214H213.492L210.961 149.74C205.381 145.822 201.713 139.327 201.713 132.008C201.713 120.049 211.426 110.359 223.412 110.359C235.397 110.359 245.11 120.049 245.11 132.008C245.11 139.276 241.545 145.719 236.017 149.637Z" fill="#AF9AF3"/>
<path d="M223.411 110.359C211.425 110.359 201.713 120.05 201.713 132.009C201.713 139.328 205.381 145.823 210.961 149.74L213.492 147.215H233.589L236.017 149.637C241.545 145.72 245.161 139.277 245.161 132.009C245.11 120.05 235.397 110.359 223.411 110.359ZM223.411 131.596C219.64 131.596 216.54 128.504 216.54 124.741C216.54 120.978 219.64 117.885 223.411 117.885C227.183 117.885 230.282 120.978 230.282 124.741C230.282 128.504 227.183 131.596 223.411 131.596Z" fill="#CDC3F4"/>
<path d="M225.428 155.307V220.925C225.893 220.667 226.306 220.306 226.719 219.945L230.956 215.718V208.708C230.387 208.244 229.922 207.471 229.819 206.285C229.664 204.481 230.284 203.45 230.956 202.883V155.358H225.428V155.307Z" fill="#CDC3F4"/>
<path d="M217.885 155.307V220.409C219.486 221.698 221.501 222.11 223.413 221.698V155.307H217.885Z" fill="#CDC3F4"/>
<path opacity="0.65" d="M246.764 119.533C246.764 119.533 246.764 121.491 248.469 122.265C248.469 122.265 247.384 127.574 251.258 128.45C251.258 128.45 250.277 122.419 248.159 119.172L246.764 119.533Z" fill="#C48A3D"/>
<path d="M282.463 111.131C282.411 111.028 279.983 108.811 278.64 110.048C277.296 111.285 279.105 114.842 282.308 114.172C285.562 113.502 282.463 111.131 282.463 111.131Z" fill="#D88166"/>
<path d="M252.653 126.389L253.531 122.317C253.738 121.286 253.118 120.306 252.136 120.049L247.641 118.863C246.97 118.708 246.453 119.43 246.866 119.997C247.383 120.719 248.468 121.595 250.638 122.162C250.638 122.162 248.106 123.193 249.76 126.75C251.413 130.255 252.653 126.389 252.653 126.389Z" fill="#E3A382"/>
<path d="M292.432 110.821C291.812 110.1 290.779 110.306 289.953 110.718V110.254C290.056 107.471 287.886 105.151 285.096 105.048C282.875 104.997 280.912 106.337 280.188 108.347C280.188 108.347 280.188 108.347 280.188 108.399C280.085 108.657 280.033 108.914 279.982 109.224C279.775 110.254 279.465 112.162 279.827 114.533V114.584C279.827 114.584 279.827 114.584 279.827 114.636C280.137 117.007 281.325 119.43 285.045 118.553C287.266 118.45 289.126 116.955 289.694 114.842C292.122 114.687 293.466 112.007 292.432 110.821Z" fill="#E3A382"/>
<path d="M294.706 148.914L295.326 126.698C295.481 124.739 295.326 122.213 293.363 121.853L288.971 121.028L287.99 116.646L283.03 116.956L282.358 121.234L277.76 122.471C275.901 122.987 276.676 124.585 276.934 126.492L278.07 152.213L295.429 152.832L294.706 148.914Z" fill="#E3A382"/>
<path d="M278.175 153.707L276.986 179.686V212.315L281.998 212.005L285.717 183.449L284.426 179.789L286.596 164.789L287.009 164.996L288.455 179.789L288.869 184.119L291.71 212.315H297.186L296.876 184.892L296.308 178.861L295.43 167.367L296.515 159.789C296.566 159.377 296.566 158.913 296.463 158.501L295.43 152.882L278.071 152.264L278.175 153.707Z" fill="#AE8FF7"/>
<path d="M278.122 154.686C278.38 154.686 296.049 156.027 296.049 156.027L295.429 152.882L278.07 152.264L278.122 154.686Z" fill="#342256"/>
<path d="M288.971 121.078C288.971 121.078 294.86 122.109 296.617 122.831C297.96 123.398 306.381 131.026 310.669 134.944C312.012 136.181 312.012 138.294 310.721 139.532L297.96 151.799C297.96 151.799 299.613 153.397 298.218 156.232L299.51 157.212C299.923 157.521 299.665 158.14 299.2 158.14H298.477C298.477 158.14 297.65 159.325 296.927 158.449C296.927 158.449 296.358 159.222 295.325 158.037C295.325 158.037 294.189 158.758 294.034 157.521C293.879 156.232 293.879 149.635 293.879 149.635L303.591 137.882L292.742 128.501" fill="#E3A382"/>
<path d="M310.722 134.945C306.434 131.027 298.013 123.398 296.67 122.831C296.05 122.574 295.017 122.264 293.828 122.007C293.002 121.801 292.124 121.646 291.349 121.491L288.972 121.027L284.116 125.666L282.359 121.234L277.761 122.471C277.451 122.574 277.245 122.677 277.038 122.831L262.159 133.295L254.1 126.904C253.325 128.398 251.568 131.852 251 133.347L259.473 140.615C261.126 142.007 263.451 142.264 265.414 141.285L277.193 133.244V153.656H293.88C293.88 151.955 293.88 149.635 293.88 149.635L294.655 148.656L295.172 130.563L303.593 137.883L293.88 149.635L294.242 149.79L294.913 150.202C295.74 150.666 296.928 151.285 298.065 151.903C298.013 151.852 297.961 151.8 297.961 151.8L310.722 139.532C312.065 138.295 312.065 136.182 310.722 134.945Z" fill="#7E6AD3"/>
<path d="M281.996 212.006L282.823 220.511H280.808L280.446 219.532L278.586 220.511L270.475 220.356C269.545 220.356 269.132 219.171 269.804 218.604L270.889 217.624C271.147 217.418 271.457 217.212 271.767 217.109L276.107 215.459L276.933 212.367L281.996 212.006Z" fill="#0F041F"/>
<path d="M297.599 215.718L296.927 212.316H291.761L291.451 219.842C291.451 219.842 292.019 220.151 292.898 220.615C292.898 220.615 293.156 219.584 293.156 219.687C293.156 219.791 293.621 220.615 293.983 221.182C295.687 222.11 298.891 223.193 300.75 223.76C301.474 223.966 302.145 223.399 302.042 222.677L301.939 221.904C301.887 221.388 301.68 220.873 301.319 220.409L297.599 215.718Z" fill="#0F041F"/>
<path d="M298.477 158.192L297.289 156.955L298.116 158.553C298.116 158.553 298.271 158.45 298.477 158.192Z" fill="#D89273"/>
<path d="M296.928 158.502L296.359 156.801C296.359 156.852 296.514 158.708 296.514 158.708C296.514 158.708 296.669 158.811 296.928 158.502Z" fill="#D89273"/>
<path d="M295.327 158.088L295.172 155.82L294.655 158.295C294.604 158.295 294.965 158.346 295.327 158.088Z" fill="#D89273"/>
<path d="M293.931 151.336C293.931 151.336 292.123 154.377 293.983 156.027L293.931 151.336Z" fill="#D89273"/>
<path d="M291.348 107.832C291.348 107.832 292.226 105.615 290.366 103.657C288.507 101.698 280.912 97.2134 280.861 100.409C280.861 100.409 280.809 101.028 281.377 101.337C281.377 101.337 278.587 99.7907 276.831 101.698C275.074 103.605 279.362 106.543 279.362 106.543C279.362 106.543 276.779 107.523 279.879 109.636C279.879 109.636 280.396 107.265 281.894 106.337C281.894 106.337 284.632 109.224 288.558 109.121C288.558 109.121 288.455 113.141 289.333 112.626C290.212 112.11 289.85 110.255 291.813 110.358C291.761 110.409 292.898 109.069 291.348 107.832Z" fill="#141414"/>
<path d="M290.78 114.584C291.658 114.378 289.902 117.419 288.352 118.347L288.094 117.316C288.094 117.316 288.972 116.749 289.644 114.893C289.644 114.842 289.85 114.79 290.78 114.584Z" fill="#65343B"/>
<path d="M282.772 118.709C282.772 118.657 283.547 118.967 286.233 118.451L282.514 120.513L282.772 118.709Z" fill="#D89273"/>
<path d="M284.684 111.698C284.684 112.111 284.942 112.42 285.2 112.42C285.459 112.42 285.665 112.059 285.665 111.698C285.665 111.286 285.407 110.977 285.149 110.977C284.839 110.977 284.632 111.286 284.684 111.698Z" fill="#65343B"/>
<path d="M280.344 111.853C280.344 112.265 280.602 112.574 280.861 112.574C281.119 112.574 281.326 112.213 281.326 111.853C281.326 111.44 281.067 111.131 280.809 111.131C280.551 111.131 280.344 111.44 280.344 111.853Z" fill="#65343B"/>
<path d="M285.459 114.738C285.459 114.738 283.548 115.718 281.895 115.408" stroke="#65343B" stroke-width="0.4679" stroke-miterlimit="10" stroke-linecap="round"/>
<path d="M282.927 110.047C282.876 110.098 281.739 113.14 282.772 113.964" stroke="#C86945" stroke-width="0.4679" stroke-miterlimit="10" stroke-linecap="round"/>
<path d="M277.245 133.245V129.533C277.245 129.533 271.82 136.234 266.912 140.306L277.245 133.245Z" fill="#5D4EB5"/>
<path d="M295.223 130.615L293.932 129.688V149.687L294.707 148.914L295.223 130.615Z" fill="#5D4EB5"/>
<path d="M303.592 137.935L304.005 137.522L295.223 130.615L303.592 137.935Z" fill="#5D4EB5"/>
</g>
<defs>
<clipPath id="clip0_73_6326">
<rect width="387.057" height="224.276" fill="white" transform="translate(0.642578 0.462891)"/>
</clipPath>
</defs>
</svg>
