<svg width="190" height="179" viewBox="0 0 190 179" fill="none" xmlns="http://www.w3.org/2000/svg">
<path d="M175.204 64.577H14.3848V76.2724H175.204V64.577Z" fill="#C0A6FF"/>
<path d="M169.391 70.593H20.1973V174.421H169.391V70.593Z" fill="#F3EEFE"/>
<path d="M94.7941 0L0 61.7584H189.588L94.7941 0Z" fill="#AE8FF7"/>
<g opacity="0.1">
<path d="M183.921 62.5998H5.66699L94.7941 4.53345L95.254 4.83298L183.921 62.5998ZM11.334 60.917H178.255L94.7941 6.5427L11.334 60.917Z" fill="black"/>
</g>
<path d="M187.871 65H1.71701C0.93082 65 0.293945 64.3287 0.293945 63.5C0.293945 62.6713 0.93082 62 1.71701 62H187.871C188.657 62 189.294 62.6713 189.294 63.5C189.294 64.3287 188.657 65 187.871 65Z" fill="#AE8FF7"/>
<path opacity="0.1" d="M177.394 64.577H12.1943V65.2501H177.394V64.577Z" fill="black"/>
<path d="M177.394 71.5454H12.1943V76.4406H177.394V71.5454Z" fill="#AE8FF7"/>
<path d="M115.294 107.924V164H74.2939V107.924C74.2939 107.807 74.3084 107.691 74.3364 107.58C74.5537 106.681 75.6097 106 76.8787 106H112.709C113.978 106 115.034 106.681 115.252 107.58C115.28 107.691 115.294 107.807 115.294 107.924Z" fill="#D9C9FF"/>
<path d="M94.2939 110H78.2939V162H94.2939V110Z" fill="#C0A6FF"/>
<path d="M109.994 110H95.5934C94.8757 110 94.2939 110.426 94.2939 110.952V161.048C94.2939 161.574 94.8757 162 95.5934 162H109.994C110.712 162 111.294 161.574 111.294 161.048V110.952C111.294 110.426 110.712 110 109.994 110Z" fill="#C0A6FF"/>
<path d="M91.9851 111H81.6028C80.8799 111 80.2939 111.274 80.2939 111.613V124.387C80.2939 124.726 80.8799 125 81.6028 125H91.9851C92.708 125 93.2939 124.726 93.2939 124.387V111.613C93.2939 111.274 92.708 111 91.9851 111Z" fill="#D9C9FF"/>
<path d="M92.2939 124.406V112.594C92.2939 112.266 91.7459 112 91.0699 112H82.518C81.842 112 81.2939 112.266 81.2939 112.594V124.406C81.2939 124.734 81.842 125 82.518 125H91.0699C91.7459 125 92.2939 124.734 92.2939 124.406Z" fill="#AE8FF7"/>
<path d="M91.5841 130.29H81.6941C81.0055 130.29 80.4473 130.848 80.4473 131.535V157.484C80.4473 158.172 81.0055 158.729 81.6941 158.729H91.5841C92.2727 158.729 92.8309 158.172 92.8309 157.484V131.535C92.8309 130.848 92.2727 130.29 91.5841 130.29Z" fill="#D9C9FF"/>
<path d="M92.2402 156.895V132.124C92.2402 131.436 91.682 130.879 90.9934 130.879H82.2828C81.5942 130.879 81.036 131.436 81.036 132.124V156.895C81.036 157.583 81.5942 158.14 82.2828 158.14H90.9934C91.682 158.14 92.2402 157.583 92.2402 156.895Z" fill="#AE8FF7"/>
<path d="M107.985 111H97.6028C96.8799 111 96.2939 111.274 96.2939 111.613V124.387C96.2939 124.726 96.8799 125 97.6028 125H107.985C108.708 125 109.294 124.726 109.294 124.387V111.613C109.294 111.274 108.708 111 107.985 111Z" fill="#D9C9FF"/>
<path d="M108.294 124.406V112.594C108.294 112.266 107.746 112 107.07 112H98.518C97.842 112 97.2939 112.266 97.2939 112.594V124.406C97.2939 124.734 97.842 125 98.518 125H107.07C107.746 125 108.294 124.734 108.294 124.406Z" fill="#AE8FF7"/>
<path d="M107.873 130.29H97.9831C97.2945 130.29 96.7363 130.848 96.7363 131.535V157.484C96.7363 158.172 97.2945 158.729 97.9831 158.729H107.873C108.562 158.729 109.12 158.172 109.12 157.484V131.535C109.12 130.848 108.562 130.29 107.873 130.29Z" fill="#D9C9FF"/>
<path d="M108.531 156.895V132.124C108.531 131.436 107.973 130.879 107.284 130.879H98.5738C97.8852 130.879 97.327 131.436 97.327 132.124V156.895C97.327 157.583 97.8852 158.14 98.5738 158.14H107.284C107.973 158.14 108.531 157.583 108.531 156.895Z" fill="#AE8FF7"/>
<path d="M33.8187 76.5249H18.4756V158.561H33.8187V76.5249Z" fill="#AE8FF7"/>
<path d="M33.9923 84.2656H18.3021C16.1387 84.2656 14.3848 82.5139 14.3848 80.3532C14.3848 78.1925 16.1387 76.4407 18.3021 76.4407H33.9923C36.1556 76.4407 37.9095 78.1925 37.9095 80.3532C37.9095 82.5139 36.1556 84.2656 33.9923 84.2656Z" fill="#D9C9FF"/>
<path opacity="0.1" d="M33.992 78.1235H18.3018C17.071 78.1235 16.0693 79.124 16.0693 80.3532C16.0693 81.5825 17.071 82.5829 18.3018 82.5829H33.992C35.2228 82.5829 36.2244 81.5825 36.2244 80.3532C36.2244 79.124 35.2228 78.1235 33.992 78.1235ZM33.992 81.7415H18.3018C17.5352 81.7415 16.9118 81.1189 16.9118 80.3532C16.9118 79.5876 17.5352 78.9649 18.3018 78.9649H33.992C34.7586 78.9649 35.382 79.5876 35.382 80.3532C35.382 81.1189 34.7586 81.7415 33.992 81.7415Z" fill="black"/>
<path d="M18.3909 150.189H33.9016C34.8519 150.189 35.6236 150.96 35.6236 151.909V153.302H16.6689V151.909C16.6689 150.96 17.4406 150.189 18.3909 150.189Z" fill="#D9C9FF"/>
<path d="M35.6236 154.059H16.6689V161.716H35.6236V154.059Z" fill="#D9C9FF"/>
<g opacity="0.1">
<path d="M20.8392 84.2656H20.0811V150H20.8392V84.2656Z" fill="black"/>
<path d="M23.1137 84.2656H22.3555V150H23.1137V84.2656Z" fill="black"/>
<path d="M25.3881 84.2656H24.6299V150H25.3881V84.2656Z" fill="black"/>
<path d="M27.6625 84.2656H26.9043V150H27.6625V84.2656Z" fill="black"/>
<path d="M29.9379 84.2656H29.1797V150H29.9379V84.2656Z" fill="black"/>
<path d="M32.2123 84.2656H31.4541V150H32.2123V84.2656Z" fill="black"/>
</g>
<path d="M63.0199 76.5249H47.6768V158.561H63.0199V76.5249Z" fill="#AE8FF7"/>
<path d="M63.1934 84.2656H47.5032C45.3399 84.2656 43.5859 82.5139 43.5859 80.3532C43.5859 78.1925 45.3399 76.4407 47.5032 76.4407H63.1934C65.3568 76.4407 67.1107 78.1925 67.1107 80.3532C67.1107 82.5139 65.3568 84.2656 63.1934 84.2656Z" fill="#D9C9FF"/>
<path opacity="0.1" d="M63.1922 78.1235H47.502C46.2712 78.1235 45.2695 79.124 45.2695 80.3532C45.2695 81.5825 46.2712 82.5829 47.502 82.5829H63.1922C64.4229 82.5829 65.4246 81.5825 65.4246 80.3532C65.4246 79.124 64.4229 78.1235 63.1922 78.1235ZM63.1922 81.7415H47.502C46.7354 81.7415 46.112 81.1189 46.112 80.3532C46.112 79.5876 46.7354 78.9649 47.502 78.9649H63.1922C63.9588 78.9649 64.5822 79.5876 64.5822 80.3532C64.5822 81.1189 63.9588 81.7415 63.1922 81.7415Z" fill="black"/>
<path d="M47.592 150.189H63.1028C64.0531 150.189 64.8247 150.96 64.8247 151.909V153.302H45.8701V151.909C45.8701 150.96 46.6418 150.189 47.592 150.189Z" fill="#D9C9FF"/>
<path d="M64.8247 154.059H45.8701V161.716H64.8247V154.059Z" fill="#D9C9FF"/>
<g opacity="0.1">
<path d="M50.0404 84.2656H49.2822V150H50.0404V84.2656Z" fill="black"/>
<path d="M52.3148 84.2656H51.5566V150H52.3148V84.2656Z" fill="black"/>
<path d="M54.5892 84.2656H53.8311V150H54.5892V84.2656Z" fill="black"/>
<path d="M56.8637 84.2656H56.1055V150H56.8637V84.2656Z" fill="black"/>
<path d="M59.139 84.2656H58.3809V150H59.139V84.2656Z" fill="black"/>
<path d="M61.4135 84.2656H60.6553V150H61.4135V84.2656Z" fill="black"/>
</g>
<path d="M141.911 76.5249H126.568V158.561H141.911V76.5249Z" fill="#AE8FF7"/>
<path d="M142.086 84.2656H126.396C124.232 84.2656 122.479 82.5139 122.479 80.3532C122.479 78.1925 124.232 76.4407 126.396 76.4407H142.086C144.249 76.4407 146.003 78.1925 146.003 80.3532C146.003 82.5139 144.249 84.2656 142.086 84.2656Z" fill="#D9C9FF"/>
<path opacity="0.1" d="M142.087 78.1235H126.396C125.166 78.1235 124.164 79.124 124.164 80.3532C124.164 81.5825 125.166 82.5829 126.396 82.5829H142.087C143.317 82.5829 144.319 81.5825 144.319 80.3532C144.319 79.124 143.317 78.1235 142.087 78.1235ZM142.087 81.7415H126.396C125.63 81.7415 125.006 81.1189 125.006 80.3532C125.006 79.5876 125.63 78.9649 126.396 78.9649H142.087C142.853 78.9649 143.477 79.5876 143.477 80.3532C143.477 81.1189 142.853 81.7415 142.087 81.7415Z" fill="black"/>
<g opacity="0.1">
<path d="M141.911 151.676H126.568V154.943H141.911V151.676Z" fill="black"/>
</g>
<path d="M126.486 150.189H141.997C142.948 150.189 143.719 150.96 143.719 151.909V153.302H124.765V151.909C124.765 150.96 125.536 150.189 126.487 150.189H126.486Z" fill="#D9C9FF"/>
<path d="M143.718 154.059H124.764V161.716H143.718V154.059Z" fill="#D9C9FF"/>
<g opacity="0.1">
<path d="M128.934 84.2656H128.176V150H128.934V84.2656Z" fill="black"/>
<path d="M131.208 84.2656H130.45V150H131.208V84.2656Z" fill="black"/>
<path d="M133.483 84.2656H132.725V150H133.483V84.2656Z" fill="black"/>
<path d="M135.758 84.2656H135V150H135.758V84.2656Z" fill="black"/>
<path d="M138.032 84.2656H137.273V150H138.032V84.2656Z" fill="black"/>
<path d="M140.307 84.2656H139.549V150H140.307V84.2656Z" fill="black"/>
</g>
<path d="M171.113 76.5249H155.77V158.561H171.113V76.5249Z" fill="#AE8FF7"/>
<path d="M171.286 84.2656H155.596C153.433 84.2656 151.679 82.5139 151.679 80.3532C151.679 78.1925 153.433 76.4407 155.596 76.4407H171.286C173.45 76.4407 175.203 78.1925 175.203 80.3532C175.203 82.5139 173.45 84.2656 171.286 84.2656Z" fill="#D9C9FF"/>
<path opacity="0.1" d="M171.287 78.1235H155.597C154.366 78.1235 153.364 79.124 153.364 80.3532C153.364 81.5825 154.366 82.5829 155.597 82.5829H171.287C172.518 82.5829 173.519 81.5825 173.519 80.3532C173.519 79.124 172.518 78.1235 171.287 78.1235ZM171.287 81.7415H155.597C154.83 81.7415 154.207 81.1189 154.207 80.3532C154.207 79.5876 154.83 78.9649 155.597 78.9649H171.287C172.053 78.9649 172.677 79.5876 172.677 80.3532C172.677 81.1189 172.053 81.7415 171.287 81.7415Z" fill="black"/>
<path d="M155.686 150.189H171.197C172.147 150.189 172.918 150.96 172.918 151.909V153.302H153.964V151.909C153.964 150.96 154.736 150.189 155.686 150.189Z" fill="#D9C9FF"/>
<path d="M172.919 154.059H153.965V161.716H172.919V154.059Z" fill="#D9C9FF"/>
<g opacity="0.1">
<path d="M158.135 84.2656H157.377V150H158.135V84.2656Z" fill="black"/>
<path d="M160.41 84.2656H159.651V150H160.41V84.2656Z" fill="black"/>
<path d="M162.684 84.2656H161.926V150H162.684V84.2656Z" fill="black"/>
<path d="M164.959 84.2656H164.201V150H164.959V84.2656Z" fill="black"/>
<path d="M167.233 84.2656H166.475V150H167.233V84.2656Z" fill="black"/>
<path d="M169.508 84.2656H168.75V150H169.508V84.2656Z" fill="black"/>
</g>
<path d="M178.279 161.716H11.3096V173.243H178.279V161.716Z" fill="#AE8FF7"/>
<path opacity="0.1" d="M178.3 167.48H11.3311V178.165H178.3V167.48Z" fill="black"/>
<path d="M184 169H5V178H184V169Z" fill="#AE8FF7"/>
<path d="M94.7941 51.5354C102.564 51.5354 108.863 45.2445 108.863 37.4842C108.863 29.7238 102.564 23.4329 94.7941 23.4329C87.0243 23.4329 80.7256 29.7238 80.7256 37.4842C80.7256 45.2445 87.0243 51.5354 94.7941 51.5354Z" fill="#D9C9FF"/>
<path opacity="0.08" d="M94.7941 49.9124C87.9325 49.9124 82.3506 44.3373 82.3506 37.4841C82.3506 30.631 87.9325 25.0559 94.7941 25.0559C101.656 25.0559 107.238 30.631 107.238 37.4841C107.238 44.3373 101.656 49.9124 94.7941 49.9124Z" fill="black"/>
<path d="M94.7939 49.2149C88.3174 49.2149 83.0488 43.9528 83.0488 37.4841C83.0488 31.0155 88.3174 25.7534 94.7939 25.7534C101.271 25.7534 106.539 31.0155 106.539 37.4841C106.539 43.9528 101.271 49.2149 94.7939 49.2149Z" fill="#AE8FF7"/>
</svg>
