<svg width="31" height="32" viewBox="0 0 31 32" fill="none" xmlns="http://www.w3.org/2000/svg">
<g clip-path="url(#clip0_73_6129)">
<path d="M26.0253 10.6766L27.8849 10.1831C27.706 9.5109 27.4714 8.8548 27.1836 8.22156L25.4318 9.01907C25.6757 9.55401 25.8742 10.1085 26.0253 10.6766Z" fill="white"/>
<path d="M26.1624 6.40701C25.7729 5.83118 25.3359 5.28896 24.856 4.78601L23.463 6.11359C23.8692 6.5394 24.2392 6.99828 24.5693 7.48542L26.1624 6.40701Z" fill="white"/>
<path d="M28.2497 12.2307L26.3343 12.4115C26.3661 12.7444 26.3815 13.0763 26.3815 13.4101C26.3895 16.2182 25.2733 18.9128 23.2819 20.8927L15.7993 28.3762L8.31678 20.8927C4.18426 16.76 4.18444 10.0597 8.31714 5.92721C10.3016 3.94287 12.993 2.82802 15.7993 2.82796C18.0901 2.82092 20.3202 3.56432 22.1486 4.94439L23.303 3.40517C17.7775 -0.739013 9.93855 0.380832 5.79438 5.9064C4.1708 8.07118 3.29314 10.7041 3.29314 13.4101C3.28394 16.7288 4.60316 19.913 6.95649 22.253L15.7993 31.0968L24.6422 22.253C26.9959 19.9133 28.3151 16.7288 28.3055 13.4101C28.3055 13.0164 28.2869 12.6232 28.2497 12.2307Z" fill="white"/>
<path d="M21.571 20.144V12.9433L22.9294 14.1333L24.1973 12.6903L15.7989 5.32898L7.40051 12.6865L8.66845 14.1295L10.0268 12.9433V20.144H21.571ZM11.9508 11.2579L15.7989 7.89082L19.647 11.2627V18.22H11.9508V11.2579Z" fill="white"/>
</g>
<defs>
<clipPath id="clip0_73_6129">
<rect width="30.1935" height="30.1935" fill="white" transform="translate(0.703247 0.903198)"/>
</clipPath>
</defs>
</svg>
