<svg width="155" height="155" viewBox="0 0 155 155" fill="none" xmlns="http://www.w3.org/2000/svg">
<circle cx="77.4194" cy="77.4194" r="77.4194" fill="#DCCEFF"/>
<path d="M116.575 71.9173L119.603 76.8075L122.629 81.698L116.96 82.6633L111.29 83.6289L112.786 80.3127L45.3501 49.8667L47.6423 44.7876L115.079 75.2334L116.575 71.9173Z" fill="#AE8FF7"/>
<path d="M121.282 115.363L131.639 115.351L131.614 94.2159L121.256 94.2282L121.282 115.363Z" fill="#AE8FF7"/>
<path d="M102.598 115.388L112.956 115.376L112.924 88.218L102.566 88.2303L102.598 115.388Z" fill="#AE8FF7"/>
<path d="M83.927 115.414L94.2847 115.402L94.2437 80.7905L83.886 80.8028L83.927 115.414Z" fill="#AE8FF7"/>
<path d="M65.2565 115.438L75.6142 115.426L75.565 73.9469L65.2073 73.9593L65.2565 115.438Z" fill="#AE8FF7"/>
<path d="M46.5737 115.463L56.9315 115.451L56.8735 66.4407L46.5156 66.4528L46.5737 115.463Z" fill="#AE8FF7"/>
<path d="M27.4664 115.488L37.8241 115.476L37.7556 57.5247L27.3977 57.5369L27.4664 115.488Z" fill="#AE8FF7"/>
<path d="M60.4818 103.981H75.2264C75.8613 103.981 76.3759 104.495 76.3759 105.13C76.3759 105.765 75.8613 106.28 75.2264 106.28H60.4818C59.8469 106.28 59.3323 105.765 59.3323 105.13C59.3323 104.495 59.8469 103.981 60.4818 103.981Z" fill="#AE8FF7"/>
<path d="M60.4818 103.981H75.2264C75.4606 103.981 75.6781 104.051 75.8597 104.171H66.6654C66.0305 104.171 65.5158 104.601 65.5158 105.13C65.5158 105.66 66.0305 106.089 66.6654 106.089H75.8597C75.6781 106.209 75.4606 106.28 75.2264 106.28H60.4818C59.8469 106.28 59.3323 105.765 59.3323 105.13C59.3323 104.495 59.8469 103.981 60.4818 103.981Z" fill="#7456BA"/>
<path d="M60.4818 106.279H75.2264C75.8613 106.279 76.3759 106.794 76.3759 107.429C76.3759 108.063 75.8613 108.578 75.2264 108.578H60.4818C59.8469 108.578 59.3323 108.063 59.3323 107.429C59.3323 106.794 59.8469 106.279 60.4818 106.279Z" fill="#AE8FF7"/>
<path d="M60.4818 106.279H75.2264C75.4606 106.279 75.6781 106.349 75.8597 106.47H66.6654C66.0305 106.47 65.5158 106.899 65.5158 107.429C65.5158 107.958 66.0305 108.388 66.6654 108.388H75.8597C75.6781 108.508 75.4606 108.578 75.2264 108.578H60.4818C59.8469 108.578 59.3323 108.063 59.3323 107.429C59.3323 106.794 59.8469 106.279 60.4818 106.279Z" fill="#7456BA"/>
<path d="M60.4818 108.578H75.2264C75.8613 108.578 76.3759 109.093 76.3759 109.728C76.3759 110.363 75.8613 110.877 75.2264 110.877H60.4818C59.8469 110.877 59.3323 110.363 59.3323 109.728C59.3323 109.093 59.8469 108.578 60.4818 108.578Z" fill="#AE8FF7"/>
<path d="M60.4818 108.578H75.2264C75.4606 108.578 75.6781 108.649 75.8597 108.769H66.6654C66.0305 108.769 65.5158 109.198 65.5158 109.728C65.5158 110.258 66.0305 110.687 66.6654 110.687H75.8597C75.6781 110.807 75.4606 110.877 75.2264 110.877H60.4818C59.8469 110.877 59.3323 110.363 59.3323 109.728C59.3323 109.093 59.8469 108.578 60.4818 108.578Z" fill="#7456BA"/>
<path d="M60.4818 110.878H75.2264C75.8613 110.878 76.3759 111.392 76.3759 112.027C76.3759 112.662 75.8613 113.177 75.2264 113.177H60.4818C59.8469 113.177 59.3323 112.662 59.3323 112.027C59.3323 111.392 59.8469 110.878 60.4818 110.878Z" fill="#AE8FF7"/>
<path d="M60.4818 110.878H75.2264C75.4606 110.878 75.6781 110.948 75.8597 111.068H66.6654C66.0305 111.068 65.5158 111.498 65.5158 112.027C65.5158 112.557 66.0305 112.986 66.6654 112.986H75.8597C75.6781 113.107 75.4606 113.177 75.2264 113.177H60.4818C59.8469 113.177 59.3323 112.662 59.3323 112.027C59.3323 111.392 59.8469 110.878 60.4818 110.878Z" fill="#7456BA"/>
<path d="M60.4818 113.176H75.2264C75.8613 113.176 76.3759 113.691 76.3759 114.325C76.3759 114.96 75.8613 115.475 75.2264 115.475H60.4818C59.8469 115.475 59.3323 114.96 59.3323 114.325C59.3323 113.691 59.8469 113.176 60.4818 113.176Z" fill="#AE8FF7"/>
<path d="M60.4818 113.176H75.2264C75.4606 113.176 75.6781 113.246 75.8597 113.366H66.6654C66.0305 113.366 65.5158 113.796 65.5158 114.325C65.5158 114.855 66.0305 115.284 66.6654 115.284H75.8597C75.6781 115.405 75.4606 115.475 75.2264 115.475H60.4818C59.8469 115.475 59.3323 114.96 59.3323 114.325C59.3323 113.691 59.8469 113.176 60.4818 113.176Z" fill="#7456BA"/>
<path d="M47.4674 103.981H62.2121C62.8469 103.981 63.3615 104.495 63.3615 105.13C63.3615 105.765 62.8469 106.28 62.2121 106.28H47.4674C46.8326 106.28 46.3179 105.765 46.3179 105.13C46.3179 104.495 46.8326 103.981 47.4674 103.981Z" fill="#AE8FF7"/>
<path d="M47.4674 103.981H62.2121C62.4462 103.981 62.6637 104.051 62.8453 104.171H53.651C53.0162 104.171 52.5014 104.601 52.5014 105.13C52.5014 105.66 53.0162 106.089 53.651 106.089H62.8453C62.6637 106.209 62.4462 106.28 62.2121 106.28H47.4674C46.8326 106.28 46.3179 105.765 46.3179 105.13C46.3179 104.495 46.8326 103.981 47.4674 103.981Z" fill="#7456BA"/>
<path d="M47.4674 106.279H62.2121C62.8469 106.279 63.3615 106.794 63.3615 107.429C63.3615 108.063 62.8469 108.578 62.2121 108.578H47.4674C46.8326 108.578 46.3179 108.063 46.3179 107.429C46.3179 106.794 46.8326 106.279 47.4674 106.279Z" fill="#AE8FF7"/>
<path d="M47.4674 106.279H62.2121C62.4462 106.279 62.6637 106.349 62.8453 106.47H53.651C53.0162 106.47 52.5014 106.899 52.5014 107.429C52.5014 107.958 53.0162 108.388 53.651 108.388H62.8453C62.6637 108.508 62.4462 108.578 62.2121 108.578H47.4674C46.8326 108.578 46.3179 108.063 46.3179 107.429C46.3179 106.794 46.8326 106.279 47.4674 106.279Z" fill="#7456BA"/>
<path d="M47.4674 108.578H62.2121C62.8469 108.578 63.3615 109.093 63.3615 109.728C63.3615 110.363 62.8469 110.877 62.2121 110.877H47.4674C46.8326 110.877 46.3179 110.363 46.3179 109.728C46.3179 109.093 46.8326 108.578 47.4674 108.578Z" fill="#AE8FF7"/>
<path d="M47.4674 108.578H62.2121C62.4462 108.578 62.6637 108.649 62.8453 108.769H53.651C53.0162 108.769 52.5014 109.198 52.5014 109.728C52.5014 110.258 53.0162 110.687 53.651 110.687H62.8453C62.6637 110.807 62.4462 110.877 62.2121 110.877H47.4674C46.8326 110.877 46.3179 110.363 46.3179 109.728C46.3179 109.093 46.8326 108.578 47.4674 108.578Z" fill="#7456BA"/>
<path d="M47.4674 110.878H62.2121C62.8469 110.878 63.3615 111.392 63.3615 112.027C63.3615 112.662 62.8469 113.177 62.2121 113.177H47.4674C46.8326 113.177 46.3179 112.662 46.3179 112.027C46.3179 111.392 46.8326 110.878 47.4674 110.878Z" fill="#AE8FF7"/>
<path d="M47.4674 110.878H62.2121C62.4462 110.878 62.6637 110.948 62.8453 111.068H53.651C53.0162 111.068 52.5014 111.498 52.5014 112.027C52.5014 112.557 53.0162 112.986 53.651 112.986H62.8453C62.6637 113.107 62.4462 113.177 62.2121 113.177H47.4674C46.8326 113.177 46.3179 112.662 46.3179 112.027C46.3179 111.392 46.8326 110.878 47.4674 110.878Z" fill="#7456BA"/>
<path d="M47.4674 113.176H62.2121C62.8469 113.176 63.3615 113.691 63.3615 114.325C63.3615 114.96 62.8469 115.475 62.2121 115.475H47.4674C46.8326 115.475 46.3179 114.96 46.3179 114.325C46.3179 113.691 46.8326 113.176 47.4674 113.176Z" fill="#AE8FF7"/>
<path d="M47.4674 113.176H62.2121C62.4462 113.176 62.6637 113.246 62.8453 113.366H53.651C53.0162 113.366 52.5014 113.796 52.5014 114.325C52.5014 114.855 53.0162 115.284 53.651 115.284H62.8453C62.6637 115.405 62.4462 115.475 62.2121 115.475H47.4674C46.8326 115.475 46.3179 114.96 46.3179 114.325C46.3179 113.691 46.8326 113.176 47.4674 113.176Z" fill="#7456BA"/>
<path d="M47.4674 97.2239H62.2121C62.8469 97.2239 63.3615 97.7386 63.3615 98.3735C63.3615 99.0083 62.8469 99.5231 62.2121 99.5231H47.4674C46.8326 99.5231 46.3179 99.0083 46.3179 98.3735C46.3179 97.7386 46.8326 97.2239 47.4674 97.2239Z" fill="#AE8FF7"/>
<path d="M47.4674 97.2239H62.2121C62.4462 97.2239 62.6637 97.2943 62.8453 97.4146H53.651C53.0162 97.4146 52.5014 97.8439 52.5014 98.3735C52.5014 98.9031 53.0162 99.3325 53.651 99.3325H62.8453C62.6637 99.4527 62.4462 99.5231 62.2121 99.5231H47.4674C46.8326 99.5231 46.3179 99.0083 46.3179 98.3735C46.3179 97.7386 46.8326 97.2239 47.4674 97.2239Z" fill="#7456BA"/>
<path d="M47.4674 99.5222H62.2121C62.8469 99.5222 63.3615 100.037 63.3615 100.672V100.672C63.3615 101.307 62.8469 101.821 62.2121 101.821H47.4674C46.8326 101.821 46.3179 101.307 46.3179 100.672V100.672C46.3179 100.037 46.8326 99.5222 47.4674 99.5222Z" fill="#AE8FF7"/>
<path d="M47.4674 99.5222H62.2121C62.4462 99.5222 62.6637 99.5925 62.8453 99.7127H53.651C53.0162 99.7127 52.5014 100.142 52.5014 100.672V100.672C52.5014 101.201 53.0162 101.631 53.651 101.631H62.8453C62.6637 101.751 62.4462 101.821 62.2121 101.821H47.4674C46.8326 101.821 46.3179 101.307 46.3179 100.672V100.672C46.3179 100.037 46.8326 99.5222 47.4674 99.5222Z" fill="#7456BA"/>
<path d="M47.4674 101.822H62.2121C62.8469 101.822 63.3615 102.336 63.3615 102.971C63.3615 103.606 62.8469 104.121 62.2121 104.121H47.4674C46.8326 104.121 46.3179 103.606 46.3179 102.971C46.3179 102.336 46.8326 101.822 47.4674 101.822Z" fill="#AE8FF7"/>
<path d="M47.4674 101.822H62.2121C62.4462 101.822 62.6637 101.892 62.8453 102.012H53.651C53.0162 102.012 52.5014 102.441 52.5014 102.971C52.5014 103.501 53.0162 103.93 53.651 103.93H62.8453C62.6637 104.05 62.4462 104.121 62.2121 104.121H47.4674C46.8326 104.121 46.3179 103.606 46.3179 102.971C46.3179 102.336 46.8326 101.822 47.4674 101.822Z" fill="#7456BA"/>
<path d="M57.745 110.247C57.745 113.324 55.2509 115.818 52.1744 115.818C49.098 115.818 46.604 113.324 46.604 110.247C46.604 107.171 49.098 104.677 52.1744 104.677C55.2509 104.677 57.745 107.171 57.745 110.247Z" fill="#AE8FF7"/>
<path d="M56.8428 110.249C56.8428 112.828 54.7523 114.918 52.1737 114.918C49.595 114.918 47.5046 112.828 47.5046 110.249C47.5046 107.67 49.595 105.58 52.1737 105.58C54.7523 105.58 56.8428 107.67 56.8428 110.249Z" fill="#7456BA"/>
<path d="M52.6926 112.352C52.6104 112.41 52.5101 112.455 52.3922 112.487V110.95C52.5226 111.03 52.6372 111.124 52.735 111.231C52.8844 111.394 52.9592 111.594 52.9592 111.831C52.9592 112.051 52.8704 112.225 52.6926 112.352ZM51.7239 109.225C51.5941 109.141 51.4912 109.042 51.4151 108.929C51.3389 108.816 51.3008 108.681 51.3008 108.523C51.3008 108.298 51.377 108.138 51.5292 108.045C51.6356 107.98 51.7714 107.938 51.9355 107.919V109.354C51.8611 109.312 51.7905 109.269 51.7239 109.225ZM53.9026 110.698C53.7813 110.489 53.6248 110.311 53.433 110.165C53.2411 110.018 53.0324 109.89 52.8069 109.779C52.6652 109.711 52.5272 109.645 52.3922 109.581V107.926C52.6038 107.965 52.7802 108.061 52.921 108.214C53.11 108.42 53.2581 108.752 53.3653 109.208H53.746V107.965C53.6615 107.891 53.5231 107.821 53.3315 107.753C53.1396 107.686 52.9366 107.629 52.7223 107.584C52.6046 107.559 52.4947 107.542 52.3922 107.53V106.966H51.9355V107.523C51.4839 107.55 51.1144 107.663 50.827 107.863C50.4941 108.094 50.3279 108.43 50.3279 108.87C50.3279 109.158 50.3898 109.413 50.514 109.636C50.638 109.859 50.8355 110.064 51.1062 110.253C51.3266 110.407 51.603 110.564 51.9355 110.723V112.542L51.9101 112.542C51.5941 112.542 51.3516 112.444 51.1823 112.246C51.0132 112.048 50.8664 111.696 50.7424 111.188H50.3447V112.601C50.5478 112.703 50.7325 112.782 50.8989 112.838C51.0653 112.895 51.2387 112.934 51.4193 112.957C51.5697 112.975 51.7419 112.986 51.9355 112.99V113.727H52.3922V112.976C52.6734 112.951 52.9232 112.894 53.1411 112.804C53.4428 112.68 53.6754 112.503 53.8391 112.271C54.0027 112.04 54.0845 111.769 54.0845 111.459C54.0845 111.16 54.0238 110.906 53.9026 110.698Z" fill="#C6B0FA"/>
<path d="M104.755 107.602L111.773 111.557C116.018 113.95 119.337 108.063 115.091 105.67L108.073 101.714C104.391 99.639 101.073 105.526 104.755 107.602Z" fill="#284F8A"/>
<path d="M100.275 114.776L107.361 107.404C111.647 102.945 106.775 98.2616 102.489 102.721L95.4028 110.093L100.275 114.776Z" fill="#284F8A"/>
<path d="M119.884 91.3826L116.999 91.9772C117.378 92.8891 116.293 93.8058 116.404 94.72C116.629 96.1456 119.253 96.1733 120.351 95.2484C121.488 94.2922 120.926 92.2434 119.884 91.3826Z" fill="#1C2047"/>
<path d="M112.142 100.014C111.412 101.313 110.798 103.101 110.05 104.672C109.018 107.287 112.04 108.693 113.434 105.909C114.235 104.249 114.913 103.062 115.153 101.234C115.352 99.7167 113.291 97.968 112.142 100.014Z" fill="#FFB29E"/>
<path d="M92.9951 110.196L93.1306 114.786L88.7342 114.813L88.5989 110.224L92.9951 110.196Z" fill="#FFB29E"/>
<path d="M90.709 110.174C90.7281 109.932 90.9535 106.371 88.3691 104.588C87.4464 103.951 86.4874 103.763 85.8501 103.707C85.802 104.668 85.2622 115.439 85.2622 115.44L90.258 114.829C90.258 114.829 88.537 111.863 90.709 110.174Z" fill="#284F8A"/>
<path d="M83.8868 115.145L84.4599 103.802C84.478 103.447 84.7802 103.173 85.1355 103.192L85.2308 103.196C85.5859 103.214 85.8592 103.517 85.8412 103.872L85.2682 115.215C85.2502 115.57 84.9477 115.843 84.5926 115.825L84.4973 115.82C84.1422 115.802 83.8688 115.5 83.8868 115.145Z" fill="#EDEFF7"/>
<path d="M87.8916 107.051C87.8906 107.07 87.8928 107.09 87.8984 107.109C87.9254 107.2 88.0207 107.251 88.1111 107.224C89.6592 106.763 89.8561 106.095 89.8734 106.02C89.8947 105.927 89.8377 105.836 89.7457 105.815C89.6548 105.793 89.5641 105.849 89.5413 105.939C89.5356 105.957 89.3517 106.498 88.0136 106.896C87.9422 106.918 87.8951 106.981 87.8916 107.051Z" fill="white"/>
<path d="M88.5227 108.462C88.5217 108.481 88.5238 108.5 88.5295 108.519C88.5566 108.61 88.6519 108.661 88.7423 108.635C90.2903 108.173 90.4872 107.505 90.5045 107.43C90.5253 107.338 90.4686 107.246 90.3767 107.225C90.2858 107.204 90.1952 107.259 90.1723 107.349C90.1666 107.367 89.9826 107.908 88.6447 108.307C88.5733 108.328 88.5263 108.392 88.5227 108.462Z" fill="white"/>
<path d="M105.873 115.78L117.789 115.625C124.997 115.53 124.909 108.773 117.7 108.867L105.785 109.023C99.5332 109.105 99.6216 115.862 105.873 115.78Z" fill="#3A639E"/>
<path d="M91.7612 115.528L104.102 115.61C111.568 115.66 111.613 108.902 104.147 108.852L91.8063 108.77L91.7612 115.528Z" fill="#3A639E"/>
<path d="M119.479 96.5873C118.951 96.551 118.156 96.9363 117.626 96.8999C117.647 96.4094 117.667 95.9188 117.688 95.4283L117.719 94.8919L119.318 94.4304C118.932 95.0498 119.395 96.1367 119.479 96.5873Z" fill="#FFB29E"/>
<path d="M118.631 95.4633C118.352 95.7701 117.918 95.9942 117.689 95.4281L117.72 94.8917L119.196 94.597C119.196 94.597 118.862 95.21 118.631 95.4633Z" fill="#F56962"/>
<path d="M119.672 93.8343C119.424 94.5285 118.487 95.3111 117.909 95.2169C117.589 95.1644 117.12 94.5586 117.07 94.4281C117.047 94.3683 116.952 94.1342 116.934 93.8223C116.875 92.7807 116.821 91.8407 117.484 91.406C118.029 91.0491 118.92 91.1218 119.413 91.5672C120.225 92.2993 119.745 93.6334 119.672 93.8343Z" fill="#FFB29E"/>
<path d="M114.784 102.669C114.676 103.53 114.016 104.563 113.878 105.007C115.699 106.283 116.778 108.771 116.97 108.959C118.238 110.199 121.801 112.482 123.612 111.718C122.885 109.502 122.936 105.465 122.874 101.691L123.126 97.0705L123.123 97.0695L123.126 97.0204C122.866 96.6253 121.681 96.3416 120.738 96.1733C120.08 96.0248 119.461 95.9677 118.875 95.9677C118.005 95.9677 117.21 96.095 116.472 96.2385C116.423 96.2393 114.915 96.6767 114.615 97.0906C113.337 98.8573 115.015 100.817 114.784 102.669Z" fill="#6A44C5"/>
<path d="M121.809 108.419C122.032 107.615 121.949 101.347 121.949 101.347L123.154 104.37C123.154 104.37 123.071 106.755 123.016 108.169C122.96 109.584 123.585 111.65 123.585 111.65C122.35 112.606 120.062 111.026 120.062 111.026C120.062 111.026 121.588 109.223 121.809 108.419Z" fill="#4A22A8"/>
<path d="M121.32 99.7701C121.338 100.023 123.041 105.131 123.631 107.272C124.806 110.653 128.586 109.315 127.605 105.461C126.993 103.188 126.372 101.243 125.105 99.2959C124.055 97.6791 122.009 96.8296 121.32 99.7701Z" fill="#FFB29E"/>
<path d="M130.439 113.747C130.439 113.747 128.787 108.838 127.697 105.757C126.491 102.346 122.315 103.911 123.778 107.643C124.675 109.84 126.631 114.401 126.631 114.401L130.439 113.747Z" fill="#FFB29E"/>
<path d="M113.375 97.7646C112.318 98.8683 110.75 101.695 110.75 101.695L115.594 103.982L116.472 96.239C115.773 96.4074 114.337 96.7598 113.375 97.7646Z" fill="#6A44C5"/>
<path d="M117.67 96.0398C117.67 96.0398 117.811 96.9024 118.36 96.8904C118.882 96.8787 119.225 96.4963 119.257 95.967C118.543 95.8075 118.143 95.7202 117.67 96.0398Z" fill="#FFB29E"/>
<path d="M118.385 93.0117C118.544 92.9432 118.947 92.9859 119.021 93.2655C118.917 93.1772 118.681 93.0907 118.464 93.1805C118.371 93.2186 118.351 93.0268 118.385 93.0117Z" fill="#1C2047"/>
<path d="M117.614 93.0226C117.455 92.9538 117.052 92.9956 116.978 93.2749C117.082 93.1871 117.317 93.101 117.535 93.1913C117.627 93.2295 117.649 93.0378 117.614 93.0226Z" fill="#1C2047"/>
<path d="M117.101 93.481C117.101 93.3881 117.177 93.313 117.27 93.3131C117.362 93.3132 117.438 93.3885 117.438 93.4815C117.438 93.5742 117.362 93.6494 117.27 93.6493C117.177 93.6492 117.101 93.5739 117.101 93.481Z" fill="#1C2047"/>
<path d="M117.265 93.3127C117.137 93.3192 117.118 93.4304 116.987 93.4247C117.024 93.4633 117.208 93.5048 117.265 93.3127Z" fill="#1C2047"/>
<path d="M117.173 93.4496C117.173 93.4277 117.191 93.4101 117.213 93.4101C117.234 93.4101 117.252 93.4278 117.252 93.4497C117.252 93.4715 117.234 93.4891 117.213 93.4891C117.191 93.489 117.173 93.4715 117.173 93.4496Z" fill="white"/>
<path d="M118.805 93.5317C118.805 93.4387 118.729 93.3635 118.637 93.3636C118.544 93.3637 118.468 93.4392 118.468 93.532C118.469 93.6249 118.544 93.7001 118.637 93.7C118.731 93.6998 118.805 93.6244 118.805 93.5317Z" fill="#1C2047"/>
<path d="M118.643 93.3633C118.77 93.3698 118.788 93.4811 118.919 93.4753C118.883 93.514 118.698 93.5555 118.643 93.3633Z" fill="#1C2047"/>
<path d="M118.735 93.5002C118.735 93.4784 118.717 93.4608 118.695 93.4608C118.674 93.4609 118.656 93.4784 118.656 93.5003C118.656 93.5222 118.674 93.5398 118.695 93.5398C118.717 93.5398 118.735 93.5221 118.735 93.5002Z" fill="white"/>
<path d="M117.638 93.937C117.691 93.7438 117.888 93.5997 117.852 93.3827C117.844 93.3282 117.929 93.3229 117.937 93.3768C117.969 93.5629 117.847 93.7131 117.762 93.8648C117.726 93.9282 117.684 94.0226 117.746 94.0836C117.807 94.1433 117.905 94.1309 117.982 94.1233C118.036 94.1179 118.042 94.2034 117.987 94.2088C117.894 94.218 117.794 94.2229 117.714 94.1672C117.638 94.1148 117.614 94.0243 117.638 93.937Z" fill="#F56962"/>
<path d="M121.017 96.246C120.995 96.462 121.053 96.8142 120.966 97.2218C120.581 99.0333 122.769 105.535 122.769 105.535C122.769 105.535 125.577 104.149 127.396 103.494C127.396 103.494 125.153 97.7932 123.705 96.9278C122.924 96.4617 121.084 96.2882 121.017 96.246Z" fill="#6A44C5"/>
<path d="M118.397 94.3736C118.396 94.4417 118.358 94.5274 118.298 94.5993C118.228 94.6833 118.129 94.7487 118.02 94.7452C117.912 94.7416 117.818 94.6718 117.753 94.5852C117.697 94.5086 117.663 94.4188 117.665 94.3495C117.907 94.4362 118.151 94.4447 118.397 94.3736Z" fill="#1C2047"/>
<path d="M118.299 94.5993C118.229 94.6833 118.129 94.7487 118.021 94.7452C117.912 94.7416 117.819 94.6718 117.754 94.5852C117.822 94.5531 117.922 94.5347 118.032 94.5383C118.139 94.5418 118.234 94.565 118.299 94.5993Z" fill="#FA634D"/>
<path d="M119.646 93.3951C119.646 93.3951 119.92 93.1617 120.025 93.3492C120.131 93.5368 119.995 94.2966 119.46 94.2739C119.46 94.2739 119.588 93.4003 119.646 93.3951Z" fill="#FFB29E"/>
<path d="M119.931 90.5106C120.345 90.4001 120.813 90.4636 121.086 90.9072C121.359 91.3509 121.391 91.9819 120.92 92.1171C120.59 92.2115 119.842 92.1619 119.66 91.6735C119.493 91.223 119.546 90.6135 119.931 90.5106Z" fill="#1C2047"/>
<path d="M107.818 98.8412C107.827 99.0618 107.839 99.2837 107.853 99.5074C107.992 101.687 108.339 103.724 108.817 105.607C109.795 108.589 113.394 107.642 112.606 104.256C112.111 102.258 111.615 100.26 111.12 98.2618C110.019 98.455 108.919 98.6481 107.818 98.8412Z" fill="#FFB29E"/>
<path d="M109.324 97.0887C109.355 97.0857 109.386 97.0801 109.417 97.072C109.745 96.9867 109.941 96.652 109.856 96.3245C109.548 95.1413 109.135 93.8817 108.207 92.6879C107.999 92.4206 107.615 92.3723 107.347 92.5801C107.08 92.7878 107.032 93.1728 107.239 93.4401C107.987 94.4021 108.352 95.4125 108.67 96.6334C108.747 96.93 109.029 97.1191 109.324 97.0887Z" fill="#FFB29E"/>
<path d="M111.16 97.1224L109.325 97.2428C109.115 97.2566 108.924 97.1267 108.858 96.9275L107.538 92.8883C107.445 92.6035 107.646 92.3075 107.944 92.2879L109.78 92.1675C109.989 92.1538 110.181 92.2836 110.246 92.4828L111.566 96.522C111.659 96.8067 111.459 97.1027 111.16 97.1224Z" fill="#3A639E"/>
<path d="M111.565 96.5221L110.245 92.4829C110.18 92.2836 109.988 92.1538 109.779 92.1676L109.578 92.1807C109.711 92.2264 109.82 92.3308 109.866 92.4711L111.186 96.5103C111.279 96.795 111.079 97.0911 110.78 97.1107L109.146 97.2178C109.202 97.2371 109.262 97.247 109.324 97.2429L111.159 97.1224C111.458 97.1028 111.658 96.8068 111.565 96.5221Z" fill="#284F8A"/>
<path d="M108.75 92.5331L108.04 92.5797C107.925 92.5871 107.838 92.6866 107.845 92.8018C107.853 92.917 107.952 93.0043 108.068 92.9966L108.777 92.9502C108.892 92.9426 108.979 92.8431 108.972 92.728C108.964 92.6127 108.865 92.5255 108.75 92.5331Z" fill="#284F8A"/>
<path d="M108.248 95.6358L111.094 95.3451C111.431 95.3108 111.676 95.0098 111.641 94.6731C111.607 94.3364 111.306 94.0913 110.969 94.1257L108.124 94.4164C107.787 94.4508 107.542 94.7517 107.576 95.0884C107.611 95.4251 107.912 95.6702 108.248 95.6358Z" fill="#FFB29E"/>
<path d="M108.56 96.7354L111.406 96.4447C111.743 96.4103 111.988 96.1094 111.953 95.7727C111.919 95.4359 111.618 95.1909 111.281 95.2253L108.436 95.5159C108.099 95.5503 107.854 95.8513 107.888 96.188C107.923 96.5247 108.223 96.7698 108.56 96.7354Z" fill="#FFB29E"/>
<path d="M108.48 97.9057L111.326 97.6151C111.662 97.5807 111.908 97.2797 111.873 96.943C111.839 96.6063 111.538 96.3611 111.201 96.3955L108.356 96.6863C108.019 96.7208 107.774 97.0217 107.808 97.3583C107.843 97.6951 108.143 97.9401 108.48 97.9057Z" fill="#FFB29E"/>
<path d="M111.2 98.8095C111.532 98.7757 111.777 98.482 111.749 98.1486C111.72 97.8112 111.424 97.5607 111.087 97.5891L108.726 97.7874C108.387 97.8156 108.138 98.1121 108.166 98.4494C108.195 98.7866 108.491 99.0371 108.828 99.0088L111.189 98.8106L111.2 98.8095Z" fill="#FFB29E"/>
<path d="M108.95 94.3328L107.97 94.433C107.628 94.4679 107.222 94.7267 107.182 95.0096C106.986 96.3951 107.19 97.3186 107.659 98.5714C107.759 98.839 108.1 99.0837 108.441 99.0488L109.421 98.9487L108.95 94.3328Z" fill="#FFB29E"/>
<path d="M109.277 95.5516L109.278 95.5515L111.391 95.282C111.419 95.2784 111.439 95.2528 111.435 95.2249C111.432 95.197 111.407 95.1788 111.378 95.1808L109.265 95.4501C109.237 95.4536 109.217 95.4792 109.221 95.5073C109.224 95.5348 109.249 95.5544 109.277 95.5516Z" fill="#F56962"/>
<path d="M109.394 96.6937L111.477 96.4809C111.505 96.478 111.525 96.453 111.522 96.4249C111.52 96.3968 111.495 96.3764 111.466 96.3794L109.384 96.5921C109.356 96.595 109.335 96.62 109.338 96.6481C109.341 96.6762 109.366 96.6965 109.394 96.6937Z" fill="#F56962"/>
<path d="M109.512 97.8522L111.331 97.6663C111.359 97.6633 111.379 97.6383 111.376 97.6103C111.374 97.5821 111.349 97.5618 111.32 97.5647L109.502 97.7505C109.473 97.7533 109.453 97.7783 109.456 97.8065C109.459 97.8345 109.484 97.8549 109.512 97.8522Z" fill="#F56962"/>
<path d="M116.892 93.1886C116.505 92.2939 116.736 91.0776 118.032 90.8499C119.438 90.6025 120.435 91.6634 120.12 93.0672C120.13 93.313 119.942 93.4678 119.706 93.3813C118.755 93.1631 118.085 92.1791 118.229 91.214L118.214 91.3316C117.967 92.0716 117.169 92.4493 116.892 93.1886Z" fill="#1C2047"/>
<path d="M126.284 113.429L129.888 113.336C129.888 113.336 133.05 114.08 133.401 114.45C133.752 114.82 133.957 115.499 133.957 115.499L127.688 115.425C127.688 115.425 126.089 115.619 126.089 115.545C126.089 115.471 126.284 113.429 126.284 113.429Z" fill="#FFB29E"/>
<path d="M140.885 116.233H15.8638C15.6645 116.233 15.5029 116.072 15.5029 115.872C15.5029 115.673 15.6645 115.512 15.8638 115.512H140.885C141.085 115.512 141.246 115.673 141.246 115.872C141.246 116.072 141.085 116.233 140.885 116.233Z" fill="#183A70"/>
<path d="M29.385 64.803C29.3679 64.6471 29.3373 64.4868 29.2463 64.359C29.1511 64.2257 28.9922 64.1403 28.8285 64.1347C28.7326 64.1313 28.6313 64.1569 28.5636 64.2251C28.5001 64.2893 28.474 64.3841 28.4792 64.4742C28.4878 64.6213 28.572 64.7548 28.677 64.8579C28.7821 64.9611 28.9082 65.0397 29.0271 65.1265C29.1459 65.2135 29.2609 65.3124 29.3308 65.442L29.3856 65.5177C29.4112 65.2804 29.4109 65.0403 29.385 64.803Z" fill="#1C2047"/>
<path d="M30.3307 69.0349C31.7033 69.1506 35.7515 71.87 36.188 73.0375C36.2407 73.1784 32.8661 76.115 32.8661 76.115L29.842 75.426L30.3307 69.0349Z" fill="#6A44C5"/>
<path d="M25.3786 106.6H21.2698L21.3611 110.687H25.4698L25.3786 106.6Z" fill="#FFB29E"/>
<path d="M26.9893 114.559C27.9602 113.554 27.3304 109.39 23.716 109.212C20.0874 109.161 18.9067 113.612 20.1673 114.662C20.3428 114.777 25.9476 114.872 26.9893 114.559Z" fill="#284F8A"/>
<path d="M25.0842 111.277C25.0559 111.277 25.0271 111.271 25.0008 111.258C23.6627 110.605 22.4657 111.148 22.4154 111.171C22.3346 111.209 22.2335 111.184 22.189 111.117C22.1444 111.049 22.173 110.964 22.253 110.927C22.31 110.9 23.6609 110.281 25.168 111.015C25.2475 111.054 25.2747 111.14 25.2285 111.207C25.1976 111.252 25.1416 111.277 25.0842 111.277Z" fill="white"/>
<path d="M25.0843 110.252C25.0561 110.252 25.0272 110.246 25.001 110.233C23.6575 109.578 22.428 110.141 22.4157 110.147C22.3354 110.184 22.2342 110.16 22.1892 110.093C22.1442 110.025 22.173 109.94 22.2535 109.902C22.3104 109.876 23.6623 109.257 25.1682 109.991C25.2477 110.03 25.2749 110.115 25.2287 110.183C25.1978 110.227 25.1418 110.252 25.0843 110.252Z" fill="white"/>
<path d="M26.8676 115.357H20.2081C19.8458 115.357 19.552 115.064 19.552 114.701C19.552 114.339 19.8458 114.045 20.2081 114.045H26.8676C27.23 114.045 27.5237 114.339 27.5237 114.701C27.5237 115.064 27.23 115.357 26.8676 115.357Z" fill="#EDEFF7"/>
<path d="M34.5222 106.386L30.2964 107.056L31.0305 111.078C32.6291 111.265 34.0967 111.169 35.2563 110.408L34.5222 106.386Z" fill="#FFB29E"/>
<path d="M35.0122 109.146C35.2385 109.14 38.5559 109.097 40.0909 111.581C40.639 112.468 40.7688 113.368 40.7913 113.962C39.8963 113.962 29.8674 113.958 29.8667 113.958L30.6686 109.347C30.6686 109.347 33.3416 111.084 35.0122 109.146Z" fill="#284F8A"/>
<path d="M30.077 115.249H40.6384C40.9689 115.249 41.2371 114.981 41.2371 114.65V114.562C41.2371 114.231 40.9689 113.963 40.6384 113.963H30.077C29.7464 113.963 29.4783 114.231 29.4783 114.562V114.65C29.4783 114.981 29.7464 115.249 30.077 115.249Z" fill="#EDEFF7"/>
<path d="M37.7809 111.91C37.7633 111.91 37.7455 111.907 37.7279 111.901C37.6451 111.872 37.6017 111.781 37.6309 111.698C38.132 110.282 38.7618 110.13 38.8319 110.118C38.9189 110.102 39.0011 110.16 39.0167 110.246C39.032 110.331 38.9763 110.413 38.8919 110.43C38.875 110.435 38.3639 110.58 37.9308 111.804C37.9077 111.869 37.8464 111.91 37.7809 111.91Z" fill="white"/>
<path d="M36.5002 111.257C36.4825 111.257 36.4646 111.254 36.4471 111.248C36.3643 111.218 36.321 111.127 36.3502 111.045C36.8512 109.629 37.4812 109.477 37.5512 109.465C37.6382 109.45 37.7203 109.506 37.736 109.593C37.7512 109.678 37.6956 109.76 37.6111 109.777C37.594 109.781 37.0831 109.927 36.6501 111.151C36.627 111.216 36.5658 111.257 36.5002 111.257Z" fill="white"/>
<path d="M28.418 69.4247C28.407 69.4528 28.2373 69.8679 27.8199 69.9488C27.4578 70.0191 27.0669 69.8072 26.8987 69.4247C26.934 69.1708 27.0407 67.3044 27.0762 67.0517L28.2113 67.5351C28.2355 67.7566 28.2598 67.978 28.284 68.2001C28.3288 68.608 28.3737 69.0161 28.418 69.4247Z" fill="#FFB29E"/>
<path d="M28.2946 67.9602C27.8032 68.7365 27.1378 67.548 27.1732 67.2952H28.222C28.2461 67.5167 28.2703 67.7381 28.2946 67.9602Z" fill="#F56962"/>
<path d="M36.1873 106.955C35.4555 107.467 29.9217 107.767 29.1741 107.632C29.1741 107.632 27.2772 87.5325 26.0415 77.6023C27.6457 77.5915 31.2442 76.1556 31.5061 77.7386C33.2507 88.281 36.2768 107.114 36.1873 106.955Z" fill="#3A639E"/>
<path d="M27.9805 84.8397L28.7891 91.6302L28.4974 100.632L27.1719 90.973L27.9805 84.8397Z" fill="#284F8A"/>
<path d="M20.0842 107.657C20.5249 107.717 26.2899 107.852 27.0937 107.728C27.6935 100.63 28.1518 80.3821 28.4971 77.6026C28.4014 77.6017 28.3068 77.6017 28.2111 77.6007C26.7022 77.5903 25.1921 77.5798 23.6833 77.5703C23.2496 80.8294 20.3467 101.206 20.0842 107.657Z" fill="#3A639E"/>
<path d="M31.1377 78.1282C31.0204 79.188 28.7269 79.3469 27.3746 79.4221C25.8504 79.4161 25.437 79.0129 24.0189 78.7013C23.7565 78.6086 23.5968 78.5518 23.6238 78.0211C24.2521 76.2827 24.5971 75.2334 23.9434 73.9954C22.5179 71.2961 23.8071 68.4831 27.0033 68.8529C27.0033 68.8529 28.3194 69.7146 28.3316 68.8589C31.9608 68.406 30.5779 75.1183 30.7617 76.5362C30.9377 76.9158 31.2292 77.9974 31.1377 78.1282Z" fill="white"/>
<path d="M27.8499 75.062C27.827 77.4596 27.2497 77.4922 28.555 80.3662C28.2638 81.6572 28.0301 83.0313 26.1011 82.7152C25.7842 82.6901 23.0561 82.5627 22.8548 81.9155C22.7458 80.2826 23.0182 77.3627 23.1347 75.296C23.6393 71.6979 22.723 68.8955 25.7579 68.8973C26.2627 69.6284 27.8941 72.0313 27.9607 72.7566C28.0193 73.2281 27.9325 73.5091 27.8499 75.062Z" fill="#6A44C5"/>
<path d="M32.1528 82.0562C31.7516 82.5375 31.1439 82.6263 30.1393 82.7207C28.8809 82.8736 28.3685 82.754 28.1072 81.4915C26.5275 78.8469 27.0595 80.6575 27.3037 76.7679C27.2195 72.0899 27.3179 73.7819 29.2107 68.9167C30.0349 68.7659 31.4122 69.2321 31.5079 70.2001C31.8989 71.8015 32.1111 73.5953 32.2411 75.303C32.3729 76.9328 32.4296 79.0875 32.5126 80.5276C32.5333 80.94 32.5705 81.5374 32.1528 82.0562Z" fill="#6A44C5"/>
<path d="M42.2132 65.3805C45.0718 70.7519 51.7434 72.7892 57.1148 69.9306C62.4863 67.0723 64.5236 60.4006 61.6652 55.029C58.8066 49.6576 52.135 47.6204 46.7635 50.4788C41.392 53.3373 39.3548 60.0091 42.2132 65.3805Z" fill="white"/>
<path d="M44.2372 66.989C40.4176 62.7463 40.7452 56.2242 44.9692 52.4213C49.1931 48.6185 55.7138 48.9749 59.5336 53.2177C63.3533 57.4603 63.0255 63.9825 58.8016 67.7853C54.5777 71.5883 48.057 71.2317 44.2372 66.989ZM60.9241 51.9658C56.4171 46.9596 48.6957 46.5375 43.7117 51.0245C38.7278 55.5117 38.3396 63.2349 42.8468 68.241C47.3538 73.2471 55.0752 73.6691 60.0591 69.182C65.0431 64.6949 65.4311 56.9718 60.9241 51.9658Z" fill="#284F8A"/>
<path d="M42.9446 70.2153L41.4119 68.5128L43.1068 66.9868L44.6397 68.6893L42.9446 70.2153Z" fill="#284F8A"/>
<path d="M28.3803 84.8294C27.4612 85.7103 25.994 85.654 25.139 84.7041C24.2838 83.7544 24.3804 82.2883 25.3534 81.4674L38.536 70.3419L39.2698 69.7219L39.8213 69.258L40.5552 68.6377L41.473 67.8633L43.5963 70.2216L42.7301 71.0535L42.0365 71.7185L41.5174 72.2183L40.8239 72.8831L28.3803 84.8294Z" fill="#284F8A"/>
<path d="M42.0377 71.7188L39.8225 69.2583L40.5564 68.638L42.7313 71.0538L42.0377 71.7188Z" fill="#9B7BE7"/>
<path d="M40.8235 72.8832L38.5356 70.342L39.2694 69.7219L41.517 72.2183L40.8235 72.8832Z" fill="#9B7BE7"/>
<path d="M24.937 73.2774L25.6489 76.3128L28.9419 78.1106L24.0105 77.3203L24.937 73.2774Z" fill="#6A44C5"/>
<path d="M28.4309 73.5688C28.4309 73.7495 28.2845 73.8958 28.1039 73.8958C27.9233 73.8958 27.7769 73.7495 27.7769 73.5688C27.7769 73.3882 27.9233 73.2417 28.1039 73.2417C28.2845 73.2417 28.4309 73.3882 28.4309 73.5688Z" fill="white"/>
<path d="M28.312 75.4265C28.312 75.607 28.1655 75.7535 27.9849 75.7535C27.8042 75.7535 27.658 75.607 27.658 75.4265C27.658 75.2458 27.8042 75.0994 27.9849 75.0994C28.1655 75.0994 28.312 75.2458 28.312 75.4265Z" fill="white"/>
<path d="M28.1039 79.6427C28.1039 79.8232 27.9573 79.9696 27.7768 79.9696C27.5961 79.9696 27.4497 79.8232 27.4497 79.6427C27.4497 79.462 27.5961 79.3156 27.7768 79.3156C27.9573 79.3156 28.1039 79.462 28.1039 79.6427Z" fill="#E7F1F2"/>
<path d="M29.4336 66.0995C29.4336 67.1473 28.8942 67.8418 28.2607 67.8418C27.5283 67.8418 26.781 67.1473 26.781 66.0995C26.781 65.0516 27.3749 64.202 28.1072 64.202C28.8397 64.202 29.4336 65.0516 29.4336 66.0995Z" fill="#FFB29E"/>
<path d="M28.5405 63.5447C27.9298 63.3907 27.1993 63.2667 26.752 63.8282C25.5003 64.2599 26.1749 66.3954 26.9903 66.9811L26.9071 65.9291C27.2185 65.628 27.3581 65.1603 27.2632 64.7377C27.6526 65.0207 28.0731 64.7926 28.4328 64.6094C29.0006 64.8732 29.7669 64.5096 29.4333 63.3799C29.5194 63.6714 28.8417 63.5866 28.5405 63.5447Z" fill="#1C2047"/>
<path d="M27.0461 66.2135C27.0461 66.4977 26.8658 66.728 26.6432 66.728C26.4208 66.728 26.2405 66.4977 26.2405 66.2135C26.2405 65.9293 26.4208 65.6989 26.6432 65.6989C26.8658 65.6989 27.0461 65.9293 27.0461 66.2135Z" fill="#FFB29E"/>
<path d="M28.0093 65.5936C27.8654 65.5314 27.4997 65.57 27.4331 65.8237C27.5273 65.7437 27.7402 65.6651 27.938 65.7466C28.0218 65.7811 28.0411 65.6072 28.0093 65.5936Z" fill="#1C2047"/>
<path d="M28.713 65.5948C28.8568 65.5325 29.2225 65.5703 29.2898 65.8237C29.1954 65.744 28.9822 65.6658 28.7847 65.7478C28.701 65.7826 28.6814 65.6088 28.713 65.5948Z" fill="#1C2047"/>
<path d="M29.0947 66.0984C29.0946 66.0142 29.0262 65.9459 28.942 65.946C28.8576 65.9462 28.7894 66.0146 28.7896 66.0988C28.7897 66.183 28.8581 66.2512 28.9423 66.2511C29.0265 66.251 29.0947 66.1827 29.0947 66.0984Z" fill="#1C2047"/>
<path d="M28.9473 65.9468C29.0631 65.9527 29.0799 66.0536 29.199 66.0484C29.1656 66.0836 28.9981 66.1212 28.9473 65.9468Z" fill="#1C2047"/>
<path d="M29.0295 66.0717C29.0295 66.0517 29.0135 66.0358 28.9936 66.0358C28.9738 66.0358 28.9578 66.0518 28.9578 66.0717C28.9579 66.0915 28.9739 66.1075 28.9936 66.1075C29.0135 66.1074 29.0295 66.0915 29.0295 66.0717Z" fill="white"/>
<path d="M27.5803 66.1409C27.5804 66.0565 27.6488 65.9884 27.7331 65.9885C27.8173 65.9885 27.8855 66.0568 27.8855 66.1413C27.8854 66.2255 27.8169 66.2936 27.7327 66.2936C27.6484 66.2935 27.5803 66.2251 27.5803 66.1409Z" fill="#1C2047"/>
<path d="M27.7287 65.9881C27.6129 65.9938 27.596 66.0948 27.4768 66.0896C27.5104 66.1247 27.6778 66.1622 27.7287 65.9881Z" fill="#1C2047"/>
<path d="M27.645 66.1127C27.645 66.093 27.661 66.0769 27.6809 66.077C27.7007 66.077 27.7167 66.0931 27.7166 66.1128C27.7166 66.1327 27.7006 66.1487 27.6807 66.1487C27.6609 66.1487 27.6449 66.1326 27.645 66.1127Z" fill="white"/>
<path d="M28.5514 66.5293C28.5037 66.354 28.3244 66.2233 28.3571 66.0263C28.3653 65.977 28.2876 65.9721 28.2795 66.021C28.2515 66.1898 28.3617 66.3262 28.4393 66.4638C28.4717 66.5213 28.5101 66.607 28.4533 66.6623C28.3981 66.7165 28.3096 66.7051 28.2398 66.6983C28.19 66.6934 28.1847 66.771 28.2345 66.7759C28.3192 66.7842 28.4092 66.7886 28.4824 66.7381C28.5516 66.6905 28.5729 66.6084 28.5514 66.5293Z" fill="#F56962"/>
<path d="M28.6465 67.0106C28.6437 67.0827 28.6033 67.1729 28.5397 67.2483C28.4653 67.3365 28.3587 67.4048 28.2436 67.4C28.13 67.3951 28.0308 67.3203 27.9634 67.228C27.904 67.1465 27.8696 67.0511 27.8725 66.9778C28.1279 67.072 28.3859 67.0834 28.6465 67.0106Z" fill="#1C2047"/>
<path d="M28.5392 67.2483C28.4648 67.3365 28.3582 67.4048 28.2431 67.4C28.1295 67.3951 28.0303 67.3203 27.9629 67.228C28.0352 67.1948 28.1409 67.1763 28.2575 67.1812C28.3696 67.186 28.4699 67.2114 28.5392 67.2483Z" fill="#FA634D"/>
<path d="M28.2617 81.8204C28.0183 81.7864 27.7732 81.7495 27.5269 81.7098C25.1252 81.3233 22.9034 80.7203 20.8669 79.9884C21.5013 78.636 22.1357 77.2838 22.7701 75.9316C24.9325 76.6947 27.0949 77.4579 29.2574 78.2209C28.9255 79.4207 28.5936 80.6206 28.2617 81.8204Z" fill="#FFB29E"/>
<path d="M23.6047 78.7138C23.1126 79.8633 21.7818 80.3962 20.6323 79.9041C19.4829 79.4119 18.95 78.0811 19.4421 76.9317C19.9343 75.7821 21.2651 75.2492 22.4145 75.7415C23.5641 76.2336 24.097 77.5645 23.6047 78.7138Z" fill="#FFB29E"/>
<path d="M25.0067 68.9846C25.053 69.1891 25.1203 69.5149 25.1721 69.9141C25.2899 70.8189 24.7048 76.557 24.7048 76.557C22.7423 77.1345 21.1754 77.2626 19.353 76.8531C19.353 76.8531 20.1158 71.7018 22.5112 69.9624C23.2218 69.4464 24.9472 69.0332 25.0067 68.9846Z" fill="#6A44C5"/>
<path d="M32.6063 81.8558C33.2707 81.3625 32.7992 80.8468 32.7992 80.8468C33.6926 80.327 32.948 79.565 32.948 79.565C32.948 79.565 33.7133 80.2124 34.0419 79.0625C34.2838 78.2154 31.9412 78.6129 31.8206 78.4405C31.7164 78.1713 32.96 77.1572 32.146 76.8236C31.5344 76.573 29.2564 78.2217 29.2564 78.2217L28.2607 81.8212C28.2607 81.8212 31.2619 83.1533 32.0712 82.8359C32.8804 82.5183 32.6063 81.8558 32.6063 81.8558Z" fill="#FFB29E"/>
<path d="M32.9553 79.5246C32.3535 79.626 31.7341 79.5962 31.1444 79.439C31.0856 79.4235 31.0595 79.5145 31.1186 79.5301C31.7242 79.6915 32.3595 79.7206 32.9776 79.6166C33.0377 79.6065 33.0151 79.5146 32.9553 79.5246Z" fill="#F56962"/>
<path d="M32.818 80.8059C32.2479 80.8895 31.6573 80.7604 31.172 80.4506C31.1208 80.4177 31.0723 80.4992 31.1238 80.5319C31.6305 80.8556 32.2458 80.9851 32.8402 80.8979C32.9006 80.889 32.8778 80.7971 32.818 80.8059Z" fill="#F56962"/>
<path d="M32.6022 81.8195C32.0329 81.8504 31.4644 81.7006 30.9847 81.3921C30.9335 81.3592 30.8851 81.4405 30.9364 81.4736C31.4284 81.7899 32.016 81.9458 32.6003 81.9142C32.6608 81.9108 32.6631 81.8162 32.6022 81.8195Z" fill="#F56962"/>
<path d="M38.2754 75.0399C38.2754 75.0399 39.5559 76.1915 39.4931 76.8965C39.4251 77.6619 36.6398 79.6612 36.1645 79.5483C35.0713 79.2884 34.8034 78.3891 34.632 78.1689C34.2071 77.6529 34.8739 76.8958 35.436 77.2389C35.0122 76.7365 35.6427 75.9799 36.2087 76.2906C35.823 75.7038 36.6499 75.0166 37.1569 75.4951C37.0623 74.8907 37.9124 74.5338 38.2754 75.0399Z" fill="#FFB29E"/>
<path d="M38.4101 77.3027L38.4093 77.3016L37.12 75.541C37.1029 75.5178 37.108 75.4849 37.1313 75.468C37.1546 75.4509 37.1858 75.4569 37.2044 75.4792L38.4937 77.2398C38.5108 77.2631 38.5058 77.2958 38.4824 77.3129C38.4594 77.3296 38.4275 77.3251 38.4101 77.3027Z" fill="#F56962"/>
<path d="M37.4778 78.0207L36.1681 76.323C36.1505 76.3002 36.1547 76.2672 36.1776 76.2496C36.2004 76.232 36.2333 76.2362 36.2509 76.2592L37.5606 77.9569C37.5783 77.9798 37.5741 78.0126 37.5512 78.0301C37.5282 78.0479 37.4954 78.0437 37.4778 78.0207Z" fill="#F56962"/>
<path d="M36.5338 78.7496L35.3901 77.2669C35.3724 77.2439 35.3766 77.2111 35.3995 77.1934C35.4224 77.1758 35.4553 77.18 35.4728 77.203L36.6167 78.6857C36.6343 78.7085 36.6301 78.7414 36.6072 78.759C36.5844 78.7767 36.5515 78.7723 36.5338 78.7496Z" fill="#F56962"/>
<path d="M53.2338 64.0053C53.0438 64.141 52.812 64.2449 52.5395 64.3178V60.7641C52.8409 60.9501 53.1055 61.1663 53.3316 61.4137C53.677 61.792 53.85 62.2547 53.85 62.8024C53.85 63.3109 53.6446 63.7118 53.2338 64.0053ZM50.9943 56.7781C50.6942 56.5826 50.4565 56.3547 50.2804 56.0936C50.1044 55.8329 50.0165 55.5199 50.0165 55.1547C50.0165 54.6334 50.1924 54.2648 50.5444 54.0497C50.7902 53.8996 51.1041 53.803 51.4833 53.7576V57.0747C51.3118 56.9777 51.1485 56.8788 50.9943 56.7781ZM56.0308 60.1814C55.7502 59.6993 55.3884 59.2885 54.9452 58.9491C54.5018 58.6103 54.0193 58.3135 53.4979 58.0593C53.1703 57.8997 52.8515 57.7473 52.5395 57.6004V53.7733C53.0285 53.8635 53.4359 54.086 53.7619 54.4409C54.1987 54.917 54.5409 55.6828 54.7887 56.739H55.6689V53.8639C55.4733 53.6946 55.1537 53.5314 54.7105 53.3749C54.2671 53.2185 53.7978 53.0883 53.3023 52.9838C53.03 52.9265 52.7762 52.8855 52.5395 52.8597V51.5559H51.4833V52.8427C50.4396 52.9056 49.5853 53.1676 48.9211 53.6292C48.1515 54.164 47.7671 54.9396 47.7671 55.9566C47.7671 56.6217 47.9105 57.2119 48.1974 57.7267C48.484 58.2419 48.9407 58.7178 49.5666 59.1546C50.0759 59.5102 50.7149 59.8722 51.4833 60.2406V64.4446C51.4637 64.4449 51.4445 64.4454 51.4246 64.4454C50.6942 64.4454 50.1337 64.2173 49.7425 63.7606C49.3514 63.3044 49.0122 62.4894 48.7255 61.3158H47.8062V64.5821C48.2756 64.8169 48.7026 64.9997 49.0874 65.1298C49.4718 65.2603 49.8727 65.3518 50.2902 65.4037C50.6378 65.447 51.0359 65.4722 51.4833 65.4794V67.1836H52.5395V65.4475C53.1891 65.3899 53.7668 65.2588 54.2705 65.0516C54.9679 64.765 55.5057 64.3543 55.884 63.8195C56.2622 63.2849 56.4513 62.659 56.4513 61.9417C56.4513 61.2507 56.311 60.6639 56.0308 60.1814Z" fill="#6A44C5"/>
<path d="M130.027 78.1292C126.981 78.1263 124.51 80.6002 124.508 83.6549C124.507 84.7166 124.805 85.7084 125.321 86.5512L124.741 89.3119L127.573 88.6154C128.309 88.9823 129.139 89.19 130.016 89.1909C133.062 89.1936 135.534 86.7197 135.537 83.6651C135.539 80.6106 133.073 78.1321 130.027 78.1292Z" fill="#AE8FF7"/>
<path d="M129.686 86.6647C129.347 86.5945 129.087 86.4334 128.909 86.1815C128.73 85.9297 128.641 85.6075 128.641 85.215V84.8109H129.555V85.2765C129.555 85.6339 129.721 85.8124 130.055 85.8124C130.388 85.8124 130.556 85.6279 130.556 85.2589C130.556 85.0304 130.498 84.824 130.38 84.6395C130.263 84.4549 130.047 84.2397 129.73 83.9937C129.337 83.6833 129.063 83.3933 128.904 83.1238C128.746 82.8544 128.667 82.5499 128.667 82.21C128.667 81.8293 128.754 81.5158 128.926 81.2698C129.099 81.0237 129.353 80.8627 129.686 80.7866V80.2506H130.478V80.7866C130.817 80.8568 131.074 81.0166 131.25 81.2654C131.425 81.5144 131.513 81.8351 131.513 82.2275V82.4033H130.6V82.166C130.6 81.8029 130.439 81.6212 130.117 81.6212C129.794 81.6212 129.633 81.7969 129.633 82.1484C129.633 82.3594 129.692 82.5542 129.809 82.7327C129.927 82.9116 130.143 83.1268 130.459 83.3785C130.852 83.6949 131.127 83.9893 131.286 84.2616C131.443 84.534 131.523 84.846 131.523 85.1974C131.523 85.5958 131.433 85.9223 131.255 86.1771C131.075 86.4318 130.817 86.5945 130.478 86.6647V87.2798H129.686V86.6647Z" fill="white"/>
<path d="M29.7638 37.6686C27.3783 35.5935 23.5923 35.1335 20.9146 37.4795C18.2913 39.7779 18.174 43.4762 19.8325 46.0918C21.4367 48.6214 24.512 49.9721 27.655 49.5406C28.3342 49.4472 29.0152 49.7003 29.4789 50.2053L30.2061 50.9974C31.2413 50.047 32.2764 49.0968 33.3117 48.1465C33.0918 47.9069 32.872 47.6675 32.6521 47.428C32.1779 46.9113 31.9956 46.1935 32.1554 45.5109C32.8404 42.5854 31.9282 39.5515 29.7638 37.6686Z" fill="#AE8FF7"/>
<path d="M32.3674 43.1724C32.4065 43.9434 32.3374 44.7313 32.1549 45.5119C31.9957 46.1936 32.1772 46.9114 32.6516 47.4282L33.3107 48.1461L30.2047 50.9974L29.4781 50.2058C29.0146 49.7009 28.3343 49.4482 27.6544 49.5416C24.5117 49.9719 21.4363 48.6226 19.8327 46.0919C18.9449 44.6944 18.5658 42.9853 18.8075 41.3458C19.0084 42.7049 19.6055 44.0203 20.6036 45.1078C23.2642 48.006 27.7712 48.1986 30.6694 45.538C31.4163 44.8525 31.9828 44.0441 32.3674 43.1724Z" fill="#7E60C4"/>
<path d="M28.7149 42.3708C28.7744 42.7708 28.3442 43.1228 27.9556 43.1725C27.0075 42.5032 28.2177 41.1796 28.7149 42.3708ZM25.4973 45.3385C25.27 46.1377 23.9529 46.2722 24.1798 45.2348C24.4206 44.7056 25.3266 44.8458 25.4973 45.3385ZM28.5906 41.6926C27.4657 41.0245 26.7668 42.827 27.7517 43.4422C27.8788 43.9288 27.3385 44.3758 26.8803 44.144C26.8181 44.1151 26.7451 44.1264 26.6944 44.1728C26.6012 44.5502 26.698 45.3124 25.8008 45.1893C25.5342 44.4523 24.1899 44.2978 23.8655 45.11C23.4666 46.4816 25.3082 46.727 25.7524 45.5829C27.4706 46.6929 29.6209 48.931 31.0647 50.3998C31.1465 50.4869 31.2457 50.3773 31.3048 50.3197C30.2623 48.8135 27.7603 46.6441 26.2356 45.5116C26.6731 45.4299 27.027 44.8897 26.9972 44.5295C27.4441 44.6067 27.9257 44.3275 28.0582 43.8845C29.0345 45.482 31.0972 47.7916 32.3488 49.2136C32.4288 49.3066 32.5335 49.1971 32.5926 49.1376C31.5602 47.5119 29.1385 45.2531 28.19 43.4651C28.3868 43.4066 28.5655 43.3067 28.7097 43.1744C29.2017 42.7501 29.1651 42.0217 28.5906 41.6926Z" fill="white"/>
<path d="M30.207 50.9964L33.3101 48.1478C33.6643 48.5142 36.0236 51.0117 34.7485 52.5089C34.6302 52.6477 34.5111 52.7422 34.4352 52.7965C32.8339 53.9402 30.5423 51.3799 30.207 50.9964Z" fill="#05385C"/>
<path d="M34.2451 49.2661L31.2574 52.0088C31.1277 52.1279 30.926 52.1225 30.8105 51.9967C30.695 51.8709 30.7067 51.6694 30.8365 51.5503L33.8241 48.8076C33.9539 48.6886 34.1556 48.6942 34.2711 48.8199C34.3866 48.9457 34.3748 49.1472 34.2451 49.2661Z" fill="#3A639E"/>
<path d="M34.7906 50.11L32.0728 52.6047C31.9549 52.7131 31.7628 52.6987 31.6473 52.573C31.5318 52.4471 31.5339 52.2544 31.6518 52.1462L34.3696 49.6514C34.4876 49.543 34.6797 49.5573 34.7952 49.6832C34.9106 49.809 34.9086 50.0017 34.7906 50.11Z" fill="#3A639E"/>
<path d="M33.6113 48.5031L30.5517 51.3118C30.4189 51.4338 30.2146 51.4305 30.0991 51.3048C29.9837 51.179 29.9978 50.9751 30.1306 50.8533L33.1903 48.0444C33.3231 47.9224 33.5275 47.9257 33.643 48.0515C33.7585 48.1773 33.7441 48.3811 33.6113 48.5031Z" fill="#3A639E"/>
<path d="M24.686 36.5765C26.7779 36.4799 28.521 37.4263 28.5793 38.6904C28.6376 39.9544 26.9891 41.0573 24.8972 41.1539C22.8053 41.2504 21.0623 40.3039 21.0039 39.04C20.9456 37.7759 22.5941 36.6731 24.686 36.5765Z" fill="#B8A0F1"/>
<path d="M27.3091 34.6985C27.5001 34.0087 27.6912 33.3189 27.8822 32.6293C27.9476 32.3931 28.3145 32.4961 28.2488 32.7332C28.0578 33.4228 27.8668 34.1125 27.6758 34.8023C27.6103 35.0385 27.2434 34.9353 27.3091 34.6985Z" fill="#AE8FF7"/>
<path d="M24.168 34.5232C24.0525 33.4602 23.9371 32.397 23.8217 31.334C23.8116 31.2408 23.9126 31.1621 23.9979 31.1634C24.1009 31.165 24.1583 31.2462 24.1684 31.3395C24.2838 32.4027 24.3993 33.4657 24.5146 34.5288C24.5247 34.6219 24.4237 34.7005 24.3385 34.6993C24.2353 34.6978 24.1781 34.6166 24.168 34.5232Z" fill="#AE8FF7"/>
<path d="M20.0426 34.1419C20.4913 34.6203 20.9398 35.0988 21.3885 35.5772C21.5563 35.7563 21.286 36.0249 21.1181 35.8458C20.6694 35.3673 20.2208 34.8889 19.7721 34.4104C19.6043 34.2315 19.8746 33.9628 20.0426 34.1419Z" fill="#AE8FF7"/>
<path d="M58.056 43.7308C58.0501 43.6196 58.0461 43.507 58.0461 43.3922V37.7786C58.0461 36.2314 58.5919 35.9291 59.2652 35.9291H78.1338C78.8072 35.9291 79.3529 36.2314 79.3529 37.7786V43.3922C79.3529 44.9395 78.8072 45.1517 78.1338 45.1517H59.6891C58.2808 46.3722 56.814 45.8192 56.814 45.8192C57.963 45.6037 58.0622 44.56 58.056 43.7308Z" fill="#AE8FF7"/>
<path d="M63.5825 42.776V43.5448C62.8797 43.5237 62.2029 43.2726 61.6587 42.8309L62.101 42.1969C62.5163 42.5517 63.0354 42.7546 63.5825 42.776Z" fill="white"/>
<path d="M63.5825 42.776V43.5448C62.8797 43.5237 62.2029 43.2726 61.6587 42.8309L62.101 42.1969C62.5163 42.5517 63.0354 42.7546 63.5825 42.776Z" fill="#8263CB"/>
<path d="M61.9575 42.0651L61.512 42.7041C60.8549 42.1026 60.4802 41.2553 60.4802 40.3627C60.4802 40.3354 60.4805 40.3107 60.4811 40.2881H61.2535C61.2526 40.3129 61.2524 40.3376 61.2524 40.3627C61.2524 40.9995 61.5084 41.6152 61.9575 42.0651Z" fill="white"/>
<path d="M61.9575 42.0651L61.512 42.7041C60.8549 42.1026 60.4802 41.2553 60.4802 40.3627C60.4802 40.3354 60.4805 40.3107 60.4811 40.2881H61.2535C61.2526 40.3129 61.2524 40.3376 61.2524 40.3627C61.2524 40.9995 61.5084 41.6152 61.9575 42.0651Z" fill="white"/>
<path d="M62.8936 38.0774C62.0098 38.379 61.3707 39.1725 61.2683 40.0963H60.4932C60.5445 39.4721 60.7768 38.8847 61.1682 38.3913C61.5552 37.9036 62.0676 37.5441 62.6542 37.3468L62.8936 38.0774Z" fill="white"/>
<path d="M62.8936 38.0774C62.0098 38.379 61.3707 39.1725 61.2683 40.0963H60.4932C60.5445 39.4721 60.7768 38.8847 61.1682 38.3913C61.5552 37.9036 62.0676 37.5441 62.6542 37.3468L62.8936 38.0774Z" fill="#8263CB"/>
<path d="M66.8768 40.3633C66.8768 40.6729 66.8323 40.9778 66.7445 41.2712L66.0291 40.9605C66.0789 40.7664 66.104 40.5658 66.104 40.3633C66.104 39.6202 65.7575 38.9161 65.1719 38.4597L65.6573 37.8618C66.0171 38.1443 66.3157 38.505 66.5248 38.9096C66.7583 39.3618 66.8768 39.8509 66.8768 40.3633Z" fill="white"/>
<path d="M66.8768 40.3633C66.8768 40.6729 66.8323 40.9778 66.7445 41.2712L66.0291 40.9605C66.0789 40.7664 66.104 40.5658 66.104 40.3633C66.104 39.6202 65.7575 38.9161 65.1719 38.4597L65.6573 37.8618C66.0171 38.1443 66.3157 38.505 66.5248 38.9096C66.7583 39.3618 66.8768 39.8509 66.8768 40.3633Z" fill="#8263CB"/>
<path d="M66.6835 41.4542C66.4667 42.0469 66.082 42.5567 65.5664 42.9325C65.0417 43.3153 64.424 43.5258 63.7744 43.5448V42.776C64.7695 42.7362 65.6511 42.082 65.9734 41.1457L66.6835 41.4542Z" fill="white"/>
<path d="M66.6835 41.4542C66.4667 42.0469 66.082 42.5567 65.5664 42.9325C65.0417 43.3153 64.424 43.5258 63.7744 43.5448V42.776C64.7695 42.7362 65.6511 42.082 65.9734 41.1457L66.6835 41.4542Z" fill="white"/>
<path d="M65.5021 37.7478L65.0152 38.3479C64.6185 38.086 64.1583 37.9482 63.6786 37.9482C63.6235 37.9482 63.5688 37.95 63.5155 37.9536C63.3675 37.9633 63.2203 37.9868 63.0769 38.0233L62.8372 37.2914C63.0941 37.2216 63.3603 37.1844 63.6298 37.1803C63.6459 37.1802 63.6623 37.18 63.6784 37.18C64.3373 37.18 64.9655 37.3759 65.5021 37.7478Z" fill="white"/>
<path d="M65.5021 37.7478L65.0152 38.3479C64.6185 38.086 64.1583 37.9482 63.6786 37.9482C63.6235 37.9482 63.5688 37.95 63.5155 37.9536C63.3675 37.9633 63.2203 37.9868 63.0769 38.0233L62.8372 37.2914C63.0941 37.2216 63.3603 37.1844 63.6298 37.1803C63.6459 37.1802 63.6623 37.18 63.6784 37.18C64.3373 37.18 64.9655 37.3759 65.5021 37.7478Z" fill="white"/>
<path d="M77.2227 38.2974H69.0188C68.9554 38.2974 68.9041 38.246 68.9041 38.1826V38.0882C68.9041 38.0249 68.9554 37.9735 69.0188 37.9735H77.2227C77.2861 37.9735 77.3375 38.0249 77.3375 38.0882V38.1826C77.3375 38.246 77.2861 38.2974 77.2227 38.2974Z" fill="white"/>
<path d="M74.5424 39.7184H69.0188C68.9554 39.7184 68.9041 39.6669 68.9041 39.6036V39.5093C68.9041 39.4459 68.9554 39.3945 69.0188 39.3945H74.5424C74.6058 39.3945 74.6572 39.4459 74.6572 39.5093V39.6036C74.6572 39.6669 74.6058 39.7184 74.5424 39.7184Z" fill="white"/>
<path d="M77.2224 39.7184H75.2445C75.1812 39.7184 75.1299 39.6669 75.1299 39.6036V39.5093C75.1299 39.4459 75.1812 39.3945 75.2445 39.3945H77.2224C77.2858 39.3945 77.3371 39.4459 77.3371 39.5093V39.6036C77.3371 39.6669 77.2858 39.7184 77.2224 39.7184Z" fill="white"/>
<path d="M77.2227 41.5127H69.0188C68.9554 41.5127 68.9041 41.4613 68.9041 41.3981V41.3036C68.9041 41.2404 68.9554 41.189 69.0188 41.189H77.2227C77.2861 41.189 77.3375 41.2404 77.3375 41.3036V41.3981C77.3375 41.4613 77.2861 41.5127 77.2227 41.5127Z" fill="white"/>
<path d="M74.5424 42.9337H69.0188C68.9554 42.9337 68.9041 42.8822 68.9041 42.819V42.7245C68.9041 42.6611 68.9554 42.6098 69.0188 42.6098H74.5424C74.6058 42.6098 74.6572 42.6611 74.6572 42.7245V42.819C74.6572 42.8822 74.6058 42.9337 74.5424 42.9337Z" fill="white"/>
<path d="M77.2224 42.9337H75.2445C75.1812 42.9337 75.1299 42.8822 75.1299 42.819V42.7245C75.1299 42.6611 75.1812 42.6098 75.2445 42.6098H77.2224C77.2858 42.6098 77.3371 42.6611 77.3371 42.7245V42.819C77.3371 42.8822 77.2858 42.9337 77.2224 42.9337Z" fill="white"/>
<path d="M36.2327 39.0921L38.1297 41.9094L40.0267 44.7268L41.9237 41.9094L43.8208 39.0921H41.6721V33.0035H38.3812V39.0921H36.2327Z" fill="#E8EAF2"/>
<path d="M127.728 67.4076L129.625 70.2248L131.522 73.0421L133.419 70.2248L135.316 67.4076H133.168V61.3189H129.876V67.4076H127.728Z" fill="#E8EAF2"/>
<path d="M16.1069 63.5379L17.4215 65.4901L18.7362 67.4426L20.0508 65.4901L21.3654 63.5379H19.8764V59.3184H17.5959V63.5379H16.1069Z" fill="#E8EAF2"/>
<path d="M105.779 65.338L107.093 67.2903L108.408 69.2428L109.723 67.2903L111.037 65.338H109.548V61.1185H107.268V65.338H105.779Z" fill="#E8EAF2"/>
<path d="M13.7084 52.1017C14.1263 51.9766 14.4527 51.5336 14.5448 50.9663L14.5951 50.6568L14.6453 50.9663C14.7374 51.5336 15.0638 51.9766 15.4817 52.1017L15.7096 52.1698L15.4817 52.238C15.0638 52.3631 14.7374 52.8062 14.6453 53.3735L14.5951 53.683L14.5448 53.3735C14.4527 52.8062 14.1263 52.3631 13.7084 52.238L13.4805 52.1698L13.7084 52.1017Z" fill="#4A73B3"/>
<path d="M75.4899 50.5509C75.9078 50.4258 76.2342 49.9828 76.3263 49.4156L76.3765 49.106L76.4268 49.4156C76.5189 49.9828 76.8453 50.4258 77.2632 50.5509L77.4911 50.619L77.2632 50.6874C76.8453 50.8125 76.5189 51.2554 76.4268 51.8227L76.3765 52.1323L76.3263 51.8227C76.2342 51.2554 75.9078 50.8125 75.4899 50.6874L75.262 50.619L75.4899 50.5509Z" fill="#4A73B3"/>
<path d="M49.1301 32.4269C49.548 32.3018 49.8743 31.8588 49.9665 31.2915L50.0167 30.982L50.0669 31.2915C50.159 31.8588 50.4854 32.3018 50.9033 32.4269L51.1314 32.4951L50.9033 32.5633C50.4854 32.6884 50.159 33.1314 50.0669 33.6987L50.0167 34.0082L49.9665 33.6987C49.8743 33.1314 49.548 32.6884 49.1301 32.5633L48.9021 32.4951L49.1301 32.4269Z" fill="#6A44C5"/>
<path d="M139.999 107.863C140.417 107.738 140.743 107.295 140.835 106.728L140.885 106.418L140.936 106.728C141.028 107.295 141.354 107.738 141.772 107.863L142 107.931L141.772 108C141.354 108.125 141.028 108.568 140.936 109.135L140.885 109.445L140.835 109.135C140.743 108.568 140.417 108.125 139.999 108L139.771 107.931L139.999 107.863Z" fill="#6A44C5"/>
<path d="M13.4268 91.1829C14.2088 90.9489 14.8197 90.1196 14.9921 89.058L15.0861 88.4786L15.1802 89.058C15.3526 90.1196 15.9633 90.9489 16.7455 91.1829L17.1723 91.3106L16.7455 91.4383C15.9633 91.6724 15.3526 92.5014 15.1802 93.5631L15.0861 94.1426L14.9921 93.5631C14.8197 92.5014 14.2088 91.6724 13.4268 91.4383L13 91.3106L13.4268 91.1829Z" fill="#AE8FF7"/>
<path d="M117.911 65.0529C118.693 64.8188 119.304 63.9896 119.476 62.928L119.57 62.3484L119.664 62.928C119.837 63.9896 120.447 64.8188 121.23 65.0529L121.656 65.1805L121.23 65.3083C120.447 65.5422 119.837 66.3714 119.664 67.4331L119.57 68.0125L119.476 67.4331C119.304 66.3714 118.693 65.5422 117.911 65.3083L117.484 65.1805L117.911 65.0529Z" fill="#AE8FF7"/>
<path d="M48.9958 124H37.8663C37.6669 124 37.5054 123.839 37.5054 123.639C37.5054 123.44 37.6669 123.278 37.8663 123.278H48.9958C49.1951 123.278 49.3567 123.44 49.3567 123.639C49.3567 123.839 49.1951 124 48.9958 124Z" fill="#183A70"/>
</svg>
