<svg width="155" height="155" viewBox="0 0 155 155" fill="none" xmlns="http://www.w3.org/2000/svg">
<circle cx="77.4194" cy="77.4311" r="77.4194" fill="#DCCEFF"/>
<mask id="mask0_73_7635" style="mask-type:luminance" maskUnits="userSpaceOnUse" x="8" y="8" width="139" height="140">
<path d="M8 8.01173H147V147.012H8V8.01173Z" fill="white"/>
</mask>
<g mask="url(#mask0_73_7635)">
<path d="M57.3012 129.726C63.7583 124.147 64.4061 114.96 63.2938 106.877C63.1084 105.528 63.1098 104.085 62.3433 102.963C61.5763 101.842 59.9898 101.185 58.8363 101.881C57.8797 102.458 57.5623 103.673 57.0994 104.698C56.4839 106.062 55.4787 107.242 54.2368 108.059C53.4209 108.595 52.3823 108.978 51.4827 108.597C50.2484 108.073 49.9442 106.474 49.8136 105.126C49.5703 102.614 49.3268 100.103 49.0838 97.5915C48.9534 96.2444 48.8156 94.8688 48.2648 93.6339C47.7141 92.3988 46.6661 91.3073 45.3481 91.0802C44.0298 90.8539 42.5219 91.7558 42.3876 93.1018C42.3315 93.662 42.5019 94.22 42.5222 94.7826C42.5425 95.3456 42.3459 95.9908 41.8311 96.2013C41.3098 96.4148 40.7313 96.0887 40.2882 95.7359C38.7581 94.5196 37.6341 92.8653 36.573 91.2145C35.5119 89.5632 34.4721 87.8685 33.058 86.5152C31.644 85.1624 29.7781 84.1672 27.8382 84.2567C25.8983 84.3468 23.9662 85.7493 23.6743 87.6928C23.3813 89.6418 24.6877 91.4536 26.0515 92.8658C28.0748 94.9617 30.3983 96.7598 32.9256 98.1862C33.3813 98.4439 33.875 98.7219 34.0888 99.2039C34.4738 100.072 33.7151 101.051 32.8592 101.437C31.8898 101.875 30.79 101.884 29.7528 102.115C28.7153 102.347 27.6256 102.928 27.3309 103.961C26.9214 105.395 28.2213 106.719 29.4515 107.547C31.9148 109.205 34.659 110.433 37.5262 111.16C38.5543 111.42 39.6296 111.63 40.5003 112.244C41.371 112.858 41.9779 114.018 41.5931 115.016C41.2081 116.016 40.0007 116.447 38.9432 116.362C37.8863 116.276 36.8988 115.809 35.8716 115.538C33.9489 115.03 31.5723 115.404 30.5518 117.126C29.8813 118.258 29.9635 119.729 30.487 120.941C31.0099 122.154 31.9207 123.151 32.872 124.059C36.1969 127.233 40.2832 129.642 44.7301 130.688C49.1761 131.734 53.1957 131.726 57.3012 129.726Z" fill="white"/>
<path d="M58.0286 135.731C57.4031 132.547 56.307 128.825 54.6832 124.859C53.0672 120.888 50.9346 116.683 48.5533 112.361C47.9539 111.284 47.3615 110.218 46.778 109.168C46.1931 108.122 45.6129 107.083 44.9826 106.103C43.7305 104.137 42.3772 102.341 41.0389 100.678C39.7012 99.0126 38.3707 97.4811 37.1166 96.0586C35.8587 94.638 34.6613 93.3362 33.5193 92.1958C31.2419 89.9065 29.19 88.2807 27.7361 87.2224C27.01 86.6903 26.4331 86.2964 26.0383 86.0345C25.8487 85.9105 25.7 85.8129 25.588 85.7395C25.4854 85.6745 25.432 85.6431 25.4298 85.6467C25.427 85.65 25.4759 85.6889 25.5735 85.7609C25.6822 85.8393 25.8268 85.9436 26.0103 86.0765C26.395 86.3517 26.9627 86.7581 27.6794 87.301C29.1133 88.3825 31.1405 90.0235 33.3956 92.322C34.5262 93.4671 35.7133 94.7726 36.9624 96.1973C38.2092 97.6251 39.5316 99.1589 40.8616 100.824C42.1913 102.487 43.5354 104.279 44.7778 106.236C45.403 107.212 45.9768 108.241 46.5625 109.291C47.1458 110.341 47.7371 111.406 48.3359 112.483C50.7153 116.802 52.8487 120.994 54.4719 124.947C56.1018 128.897 57.2113 132.598 57.856 135.766" fill="white"/>
<path d="M44.9104 106.1C44.9274 106.101 44.9519 105.891 44.9827 105.511C45.015 105.132 45.0436 104.582 45.0692 103.901C45.1212 102.541 45.129 100.66 45.1298 98.5857C45.1303 96.5104 45.1648 94.6347 45.2374 93.2789C45.2721 92.6006 45.3052 92.0521 45.3333 91.6732C45.3591 91.294 45.3653 91.083 45.3483 91.0811C45.3311 91.0791 45.2924 91.2859 45.2371 91.6629C45.1796 92.0393 45.1189 92.5875 45.0625 93.2661C44.9444 94.6239 44.8815 96.5071 44.881 98.5843C44.8854 100.631 44.8899 102.482 44.8932 103.897C44.8904 104.536 44.8877 105.075 44.8857 105.507C44.8854 105.887 44.8929 106.099 44.9104 106.1Z" fill="white"/>
<path d="M27.2637 104.65C27.2651 104.667 27.5142 104.67 27.9628 104.661C28.4113 104.655 29.0598 104.642 29.8616 104.652C31.4651 104.66 33.6796 104.748 36.1188 104.952C38.558 105.16 40.7578 105.443 42.3427 105.694C43.1364 105.813 43.7758 105.927 44.2186 106.003C44.6609 106.081 44.9072 106.116 44.9114 106.099C44.915 106.082 44.6751 106.015 44.2375 105.907C43.7997 105.801 43.1633 105.66 42.371 105.518C40.7889 105.222 38.5852 104.91 36.1385 104.701C33.6924 104.496 31.4681 104.436 29.8602 104.474C29.0559 104.487 28.406 104.527 27.9576 104.563C27.5097 104.602 27.2628 104.632 27.2637 104.65Z" fill="white"/>
<path d="M54.4376 124.562C54.4457 124.565 54.4787 124.488 54.5346 124.339C54.5972 124.162 54.6736 123.944 54.7659 123.682C54.9644 123.111 55.2302 122.276 55.5446 121.242C56.1754 119.172 56.9566 116.286 57.7755 113.089C58.5954 109.892 59.3487 107.002 59.935 104.922C60.2233 103.911 60.4607 103.079 60.637 102.461C60.7121 102.192 60.7738 101.971 60.8244 101.79C60.8644 101.635 60.8819 101.553 60.8733 101.55C60.8652 101.548 60.8322 101.625 60.7766 101.774C60.714 101.952 60.6376 102.168 60.545 102.431C60.3465 103.002 60.081 103.836 59.7663 104.871C59.1355 106.941 58.3543 109.827 57.5351 113.025C56.7158 116.222 55.9624 119.111 55.3758 121.191C55.087 122.202 54.8501 123.034 54.6739 123.652C54.5988 123.92 54.5374 124.142 54.4868 124.323C54.4465 124.477 54.4293 124.56 54.4376 124.562Z" fill="white"/>
<path d="M30.6641 119.519C30.6627 119.528 30.745 119.552 30.902 119.59C31.0883 119.632 31.3168 119.683 31.5934 119.745C32.2312 119.881 33.0921 120.066 34.1394 120.289C36.2894 120.749 39.2512 121.419 42.523 122.163C45.7959 122.907 48.7669 123.55 50.9269 123.966C52.0067 124.174 52.8821 124.334 53.4893 124.431C53.7701 124.475 54.0011 124.511 54.1893 124.54C54.3497 124.562 54.435 124.569 54.4364 124.561C54.4378 124.552 54.3555 124.529 54.1982 124.49C54.0125 124.448 53.7842 124.398 53.5071 124.335C52.8693 124.199 52.0086 124.015 50.9614 123.791C48.8114 123.331 45.8493 122.662 42.5764 121.917C39.3046 121.172 36.3339 120.53 34.1738 120.114C33.0941 119.906 32.2187 119.747 31.6109 119.649C31.3304 119.605 31.0994 119.569 30.9112 119.54C30.7508 119.518 30.6657 119.511 30.6641 119.519Z" fill="white"/>
<path d="M50.6921 68.2891C50.4838 68.2891 50.284 68.172 50.1875 67.9719L48.9821 65.4624C48.9062 65.3047 48.9087 65.1201 48.9888 64.9647C49.0688 64.8088 49.2173 64.6995 49.3896 64.6695C49.8422 64.5906 50.2573 64.307 50.5278 63.8911C50.7771 63.5086 50.8647 63.0652 50.7674 62.6743C50.6709 62.2845 50.3854 61.9298 49.9846 61.7007C49.555 61.4555 49.0455 61.3847 48.6193 61.5123C47.7492 61.7722 47.1259 62.7911 47.2588 63.7374C47.3019 64.0432 47.0889 64.3256 46.7831 64.3687C46.4717 64.4112 46.1946 64.1986 46.1515 63.8928C45.9427 62.4055 46.906 60.8567 48.2999 60.4408C49.0221 60.2251 49.8392 60.3302 50.5389 60.73C51.2041 61.1097 51.6826 61.7202 51.8527 62.4049C52.0242 63.0957 51.883 63.86 51.4646 64.5013C51.1627 64.965 50.744 65.3289 50.2662 65.5538L51.1958 67.4879C51.3292 67.7661 51.2122 68.1 50.9336 68.2337C50.8552 68.2713 50.7732 68.2891 50.6921 68.2891Z" fill="white"/>
<path d="M51.8936 69.0099C52.009 69.2348 51.92 69.5103 51.6951 69.6254C51.4705 69.7405 51.1947 69.6518 51.0796 69.4269C50.9645 69.2023 51.0535 68.9265 51.2781 68.8114C51.503 68.6963 51.7785 68.785 51.8936 69.0099Z" fill="white"/>
<path d="M35.4134 59.8809C35.268 59.8809 35.1285 59.7991 35.0612 59.6593L34.2194 57.9068C34.1663 57.7967 34.168 57.668 34.2239 57.5593C34.2797 57.4506 34.3834 57.3741 34.5041 57.3533C34.8199 57.298 35.1096 57.1 35.2986 56.8095C35.4729 56.5424 35.5338 56.2327 35.466 55.9599C35.3987 55.6878 35.1994 55.4398 34.9194 55.28C34.6195 55.1087 34.2636 55.0592 33.9659 55.1485C33.3582 55.3297 32.9231 56.0414 33.0157 56.7022C33.0457 56.9157 32.897 57.1131 32.6835 57.1431C32.4663 57.1729 32.2726 57.0241 32.2426 56.8106C32.0966 55.772 32.7694 54.6906 33.7426 54.4001C34.2472 54.2494 34.8179 54.3228 35.3064 54.6019C35.7709 54.8671 36.1054 55.2936 36.2241 55.7717C36.3436 56.2543 36.2452 56.7878 35.953 57.2357C35.742 57.5596 35.4498 57.8134 35.116 57.9707L35.7651 59.3212C35.8585 59.5158 35.7768 59.7488 35.5822 59.8422C35.5274 59.8683 35.4701 59.8809 35.4134 59.8809Z" fill="white"/>
<path d="M36.2521 60.3847C36.3327 60.5417 36.2705 60.7341 36.1134 60.8145C35.9566 60.8948 35.7642 60.8328 35.6836 60.6757C35.6033 60.5189 35.6652 60.3266 35.8223 60.2459C35.9794 60.1656 36.1718 60.2276 36.2521 60.3847Z" fill="white"/>
<path d="M104.781 60.8256C104.843 60.9571 104.829 61.118 104.731 61.2387L103.507 62.7493C103.431 62.8444 103.314 62.8981 103.191 62.8939C103.069 62.89 102.956 62.8289 102.885 62.7288C102.7 62.4669 102.397 62.2898 102.054 62.2431C101.738 62.2 101.432 62.2773 101.214 62.4555C100.997 62.6326 100.858 62.9186 100.834 63.2406C100.807 63.5847 100.915 63.9275 101.122 64.1585C101.546 64.6303 102.376 64.719 102.933 64.3526C103.114 64.2341 103.356 64.2839 103.474 64.464C103.594 64.6481 103.542 64.8866 103.362 65.005C102.486 65.5811 101.22 65.4357 100.541 64.6803C100.19 64.2886 100.012 63.7415 100.055 63.1805C100.096 62.647 100.339 62.1628 100.72 61.8508C101.105 61.5362 101.63 61.3972 102.159 61.4694C102.542 61.5214 102.897 61.6771 103.182 61.9115L104.125 60.7469C104.261 60.5796 104.506 60.5537 104.674 60.6896C104.721 60.7277 104.757 60.7744 104.781 60.8256Z" fill="white"/>
<path d="M104.877 59.8531C104.984 59.7133 105.185 59.6872 105.324 59.7948C105.464 59.9021 105.491 60.1025 105.383 60.2423C105.276 60.3822 105.075 60.4086 104.935 60.301C104.795 60.1934 104.769 59.993 104.877 59.8531Z" fill="white"/>
<path d="M100.704 24.5618C100.767 24.6933 100.753 24.8542 100.655 24.9749L99.4313 26.4855C99.3542 26.5806 99.2372 26.6343 99.1149 26.6301C98.9928 26.6259 98.8797 26.5651 98.8091 26.465C98.6242 26.2031 98.3209 26.026 97.9773 25.9793C97.6618 25.9359 97.3554 26.0135 97.138 26.1914C96.9209 26.3688 96.7822 26.6549 96.7575 26.9765C96.7308 27.3209 96.8383 27.6637 97.0463 27.8947C97.47 28.3662 98.2995 28.4552 98.8569 28.0888C99.0373 27.9703 99.2792 28.0201 99.3976 28.2003C99.5174 28.384 99.466 28.6225 99.2859 28.7412C98.4093 29.3173 97.1441 29.1719 96.4653 28.4165C96.113 28.0248 95.9357 27.4777 95.9788 26.9167C96.0196 26.3832 96.2623 25.8987 96.6437 25.5871C97.0285 25.2724 97.5531 25.1331 98.083 25.2054C98.4658 25.2576 98.8205 25.4133 99.1052 25.6477L100.048 24.4831C100.184 24.3158 100.43 24.2899 100.597 24.4258C100.644 24.4639 100.68 24.5104 100.704 24.5618Z" fill="white"/>
<path d="M100.801 23.5875C100.908 23.4477 101.109 23.4213 101.248 23.5289C101.388 23.6365 101.414 23.8369 101.307 23.9767C101.2 24.1166 100.999 24.143 100.859 24.0354C100.719 23.9278 100.693 23.7274 100.801 23.5875Z" fill="white"/>
<path d="M69.8407 30.1374C70.0297 30.1374 70.211 30.2436 70.2985 30.4251L71.3925 32.7028C71.4614 32.846 71.4592 33.013 71.3866 33.1543C71.3138 33.2958 71.179 33.3947 71.0225 33.422C70.6118 33.4937 70.2354 33.7511 69.9897 34.1284C69.7634 34.4756 69.6842 34.8781 69.7723 35.2329C69.8599 35.5865 70.1187 35.9081 70.4829 36.1161C70.8726 36.3387 71.3349 36.4032 71.7219 36.2873C72.5114 36.0513 73.0769 35.1269 72.9565 34.2679C72.9173 33.9905 73.1105 33.7342 73.388 33.6952C73.6704 33.6566 73.9223 33.8495 73.9612 34.127C74.1508 35.4769 73.2765 36.8822 72.0119 37.2598C71.3561 37.4555 70.6146 37.3601 69.9797 36.9973C69.3761 36.6526 68.9416 36.0986 68.7873 35.4772C68.6317 34.8503 68.7601 34.1567 69.1396 33.5746C69.4137 33.1537 69.7934 32.824 70.2271 32.6197L69.3834 30.8646C69.2622 30.6119 69.3686 30.3089 69.6213 30.1877C69.6925 30.1535 69.767 30.1374 69.8407 30.1374Z" fill="white"/>
<path d="M68.7508 29.4811C68.6463 29.2771 68.7269 29.0272 68.931 28.9226C69.135 28.8181 69.385 28.8987 69.4895 29.1028C69.594 29.3068 69.5134 29.5567 69.3093 29.6613C69.1053 29.7658 68.8551 29.6852 68.7508 29.4811Z" fill="white"/>
<path d="M107.556 75.1159C107.745 75.1159 107.926 75.2221 108.013 75.4039L109.107 77.6813C109.176 77.8245 109.174 77.9918 109.102 78.1331C109.029 78.2743 108.894 78.3735 108.737 78.4005C108.327 78.4722 107.95 78.7296 107.704 79.1069C107.478 79.4541 107.399 79.8567 107.487 80.2114C107.574 80.5653 107.834 80.8869 108.198 81.0949C108.587 81.3173 109.05 81.3818 109.437 81.2658C110.226 81.0301 110.792 80.1055 110.671 79.2464C110.632 78.969 110.825 78.7127 111.103 78.6738C111.385 78.6351 111.637 78.8283 111.676 79.1058C111.865 80.4555 110.991 81.8608 109.727 82.2383C109.071 82.434 108.329 82.3386 107.695 81.9758C107.091 81.6314 106.657 81.0771 106.502 80.4557C106.347 79.8289 106.475 79.1352 106.854 78.5531C107.129 78.1325 107.508 77.8025 107.942 77.5985L107.098 75.8432C106.977 75.5905 107.084 75.2874 107.336 75.1662C107.407 75.1323 107.482 75.1159 107.556 75.1159Z" fill="white"/>
<path d="M106.466 74.4616C106.361 74.2575 106.442 74.0073 106.646 73.9031C106.85 73.7986 107.1 73.8792 107.204 74.0832C107.309 74.287 107.228 74.5372 107.024 74.6417C106.82 74.7463 106.57 74.6657 106.466 74.4616Z" fill="white"/>
<path d="M115.142 89.8331C115.142 89.8331 113.005 88.1901 109.888 93.3601C106.771 98.53 105.514 101.55 105.514 101.55C105.514 101.55 104.711 102.623 103.991 101.833C103.271 101.043 102.362 98.8834 101.023 99.1647C99.6343 99.4569 99.0775 100.944 99.1776 103.195C99.2779 105.446 99.3166 110.385 99.3182 110.832C99.3202 111.271 99.0244 111.895 98.4478 111.436C97.8715 110.976 94.6612 106.843 92.7914 108.484C90.9213 110.125 92.2309 116.35 92.361 117.033C92.4911 117.716 92.3396 117.993 92.0091 118.136C91.6791 118.279 90.7305 116.789 89.7692 115.65C88.8082 114.512 87.4943 113.361 86.4947 114.398C85.495 115.436 84.8739 119.991 88.6992 127.737L90.7069 131.21L94.7354 131.273C103.365 130.885 107.055 128.141 107.481 126.765C107.907 125.389 106.264 124.794 104.804 124.502C103.343 124.209 101.579 124.099 101.546 123.74C101.511 123.382 101.681 123.115 102.342 122.899C103.003 122.683 109.087 120.825 109.621 118.396C110.155 115.966 104.986 115.149 104.305 114.867C103.624 114.583 104.028 114.023 104.413 113.813C104.805 113.599 109.15 111.248 111.17 110.249C113.189 109.251 114.223 108.045 113.808 106.688C113.408 105.379 111.078 105.626 110.039 105.377C108.999 105.128 109.551 103.907 109.551 103.907C109.551 103.907 111.589 101.348 114.612 96.122C117.635 90.8962 115.097 89.8031 115.097 89.8031" fill="white"/>
<path d="M112.344 94.4583C112.344 94.4583 112.326 94.4975 112.286 94.5709C112.243 94.6484 112.183 94.756 112.105 94.8953C111.941 95.1836 111.704 95.6011 111.399 96.1366C110.786 97.2138 109.887 98.7664 108.769 100.681C106.534 104.51 103.401 109.774 99.9239 115.576C96.4453 121.38 93.3011 126.636 91.0471 130.453C89.9237 132.36 89.0138 133.905 88.3821 134.977C88.0691 135.507 87.825 135.921 87.6566 136.207C87.5743 136.343 87.5109 136.449 87.4653 136.525C87.4214 136.596 87.3964 136.631 87.3964 136.631C87.3964 136.631 87.4139 136.592 87.4542 136.518C87.4973 136.441 87.5573 136.333 87.6349 136.194C87.7986 135.906 88.0358 135.488 88.3399 134.953C88.9534 133.876 89.8528 132.323 90.9709 130.409C93.206 126.58 96.3382 121.316 99.8168 115.511C103.295 109.709 106.438 104.453 108.693 100.636C109.816 98.7292 110.726 97.1849 111.358 96.1121C111.67 95.5819 111.915 95.1686 112.083 94.8825C112.165 94.7463 112.229 94.6404 112.275 94.5645C112.318 94.493 112.344 94.4583 112.344 94.4583Z" fill="white"/>
<path d="M102.174 102.238C102.183 102.236 102.211 102.336 102.256 102.517C102.301 102.698 102.359 102.961 102.427 103.287C102.563 103.94 102.727 104.846 102.891 105.849C103.048 106.839 103.19 107.734 103.299 108.419C103.35 108.727 103.393 108.987 103.428 109.197C103.459 109.38 103.472 109.483 103.464 109.484C103.455 109.486 103.426 109.387 103.38 109.206C103.335 109.025 103.277 108.762 103.212 108.435C103.083 107.78 102.931 106.873 102.768 105.87C102.603 104.881 102.455 103.987 102.341 103.304C102.288 102.996 102.244 102.736 102.208 102.526C102.179 102.343 102.166 102.24 102.174 102.238Z" fill="white"/>
<path d="M103.826 109.58C103.819 109.546 105.672 109.125 107.965 108.64C110.259 108.154 112.123 107.788 112.13 107.822C112.137 107.855 110.284 108.276 107.991 108.762C105.698 109.247 103.833 109.614 103.826 109.58Z" fill="white"/>
<path d="M98.0823 118.251C98.0834 118.243 98.1888 118.246 98.3784 118.259C98.5938 118.275 98.8623 118.295 99.1812 118.319C99.859 118.369 100.795 118.434 101.831 118.467C102.867 118.503 103.805 118.503 104.485 118.497C104.805 118.495 105.074 118.493 105.29 118.492C105.48 118.491 105.585 118.495 105.585 118.504C105.586 118.512 105.481 118.525 105.292 118.54C105.102 118.555 104.827 118.572 104.487 118.586C103.807 118.614 102.865 118.628 101.827 118.592C100.788 118.558 99.8498 118.479 99.1734 118.407C98.8351 118.369 98.5618 118.336 98.3733 118.307C98.1849 118.28 98.0814 118.26 98.0823 118.251Z" fill="white"/>
<path d="M95.1261 111.937C95.1336 111.933 95.1836 112.017 95.2667 112.172C95.3599 112.352 95.4738 112.573 95.6087 112.833C95.8925 113.394 96.277 114.172 96.6945 115.035C97.1121 115.898 97.4838 116.682 97.7476 117.253C97.868 117.52 97.9703 117.747 98.0537 117.931C98.1235 118.093 98.1585 118.184 98.1507 118.187C98.1432 118.191 98.0934 118.107 98.01 117.952C97.9169 117.773 97.8029 117.552 97.6684 117.291C97.3843 116.731 96.9998 115.952 96.5822 115.089C96.1647 114.226 95.7927 113.442 95.5292 112.871C95.4088 112.604 95.3062 112.377 95.2231 112.193C95.1533 112.032 95.1183 111.941 95.1261 111.937Z" fill="white"/>
<path d="M89.0828 118.948C89.0906 118.944 89.1531 119.052 89.2599 119.25C89.375 119.471 89.5231 119.755 89.7013 120.096C90.0691 120.812 90.5695 121.806 91.1153 122.907C91.661 124.008 92.1489 125.008 92.4964 125.734C92.6601 126.083 92.7963 126.373 92.9022 126.598C92.9956 126.803 93.0435 126.918 93.036 126.922C93.0279 126.926 92.9656 126.818 92.8589 126.619C92.7438 126.399 92.5956 126.115 92.4174 125.774C92.0499 125.057 91.5492 124.063 91.0035 122.962C90.4578 121.861 89.9696 120.862 89.6221 120.135C89.4587 119.787 89.3222 119.497 89.2162 119.272C89.1234 119.067 89.0753 118.952 89.0828 118.948Z" fill="white"/>
<path d="M92.996 126.706C92.9965 126.697 93.13 126.698 93.3713 126.706C93.6345 126.716 93.9779 126.73 94.3918 126.746C95.2533 126.778 96.4435 126.818 97.7587 126.825C99.0742 126.835 100.265 126.812 101.127 126.789C101.541 126.778 101.885 126.77 102.148 126.763C102.389 126.758 102.523 126.759 102.523 126.767C102.524 126.776 102.391 126.791 102.151 126.811C101.91 126.831 101.561 126.855 101.131 126.877C100.268 126.922 99.0756 126.959 97.7578 126.95C96.4407 126.943 95.2489 126.888 94.3874 126.834C93.9567 126.805 93.6084 126.778 93.3682 126.755C93.128 126.732 92.9951 126.715 92.996 126.706Z" fill="white"/>
</g>
<mask id="mask1_73_7635" style="mask-type:luminance" maskUnits="userSpaceOnUse" x="8" y="8" width="139" height="140">
<path d="M8 8.01173H147V147.012H8V8.01173Z" fill="white"/>
</mask>
<g mask="url(#mask1_73_7635)">
<path d="M124.828 103.241C115.671 117.329 98.1972 125.752 81.5563 125.902C64.9155 126.052 49.3809 118.619 38.3671 107.44C30.5047 99.459 24.6208 89.2456 23.8497 77.8993C23.0785 66.553 24.605 54.1083 34.5763 47.0944C38.3426 44.445 46.4202 42.5685 50.8243 43.1078C57.8563 43.9691 62.1119 50.3389 65.5163 56.1469C68.921 61.9551 73.1557 68.3322 80.1811 69.2234C85.5796 69.9081 90.9978 67.0859 96.4421 65.8032C105.699 63.622 115.634 66.1991 121.912 72.4104C123.638 74.1185 125.073 76.0864 126.194 78.2267C129.971 85.437 129.764 94.0891 125.9 101.253L124.828 103.241Z" fill="white"/>
</g>
<mask id="mask2_73_7635" style="mask-type:luminance" maskUnits="userSpaceOnUse" x="8" y="8" width="139" height="140">
<path d="M8 8.01173H147V147.012H8V8.01173Z" fill="white"/>
</mask>
<g mask="url(#mask2_73_7635)">
<path d="M128.276 135.715C128.276 135.755 105.736 135.787 77.9384 135.787C50.1307 135.787 27.5957 135.755 27.5957 135.715C27.5957 135.675 50.1307 135.642 77.9384 135.642C105.736 135.642 128.276 135.675 128.276 135.715Z" fill="#1A2E35"/>
</g>
<mask id="mask3_73_7635" style="mask-type:luminance" maskUnits="userSpaceOnUse" x="8" y="8" width="139" height="140">
<path d="M8 8.01173H147V147.012H8V8.01173Z" fill="white"/>
</mask>
<g mask="url(#mask3_73_7635)">
<path d="M103.875 118.529L99.6407 98.3344C99.6407 98.3344 97.1588 88.6019 88.6139 85.2479L88.0242 85.0669C88.0117 85.0622 87.2136 84.8181 87.2011 84.8136C86.8577 84.6796 85.4547 84.2346 85.0863 84.12C73.5652 80.1263 70.5086 81.1654 58.5026 85.2623C58.5026 85.2623 53.1689 86.6971 50.5843 93.6546C47.9992 100.612 43.0508 111.494 43.0508 111.494L55.0281 115.723L57.3241 112.313V124.905V135.645H71.5377H90.2669L89.3578 124.905L89.1993 111.675" fill="#6A44C5"/>
<path d="M70.3459 86.5024C70.3523 86.51 70.2545 86.6003 70.0713 86.7577C69.9807 86.838 69.8667 86.9325 69.7257 87.0301C69.5856 87.1296 69.4313 87.2511 69.2442 87.3601C68.8812 87.5964 68.423 87.8363 67.8957 88.0604C67.3644 88.2753 66.7622 88.4682 66.1134 88.5988C65.4626 88.722 64.8321 88.7701 64.2591 88.7715C63.6862 88.7623 63.171 88.7125 62.746 88.6305C62.5316 88.6002 62.3429 88.5457 62.1758 88.5063C62.0082 88.4687 61.8669 88.4243 61.753 88.384C61.5239 88.3072 61.3991 88.2602 61.4024 88.2508C61.411 88.2222 61.9162 88.399 62.7627 88.5296C63.1852 88.598 63.6942 88.6364 64.2591 88.6383C64.824 88.6294 65.4445 88.5783 66.0856 88.4568C66.725 88.3278 67.3191 88.1415 67.8453 87.9369C68.368 87.7226 68.825 87.4952 69.1906 87.2728C69.9256 86.8333 70.327 86.4788 70.3459 86.5024Z" fill="white"/>
<mask id="mask4_73_7635" style="mask-type:luminance" maskUnits="userSpaceOnUse" x="57" y="120" width="34" height="15">
<path d="M57.3242 120.874H90.1327V134.055H57.3242V120.874Z" fill="white"/>
</mask>
<g mask="url(#mask4_73_7635)">
<g opacity="0.300003">
<path d="M57.3243 121.192L60.0254 124.311H62.6795V127.706L90.1328 134.055L89.9087 131.41L64.0809 122.542H59.7527L57.6657 120.874L57.3243 121.192Z" fill="#181818"/>
</g>
</g>
<path d="M65.4094 118.416L63.1196 117.993C63.1196 117.993 57.6919 112.056 56.6741 111.971C55.8365 111.901 51.2189 111.946 49.611 111.965C49.3043 111.968 49.0586 112.217 49.0586 112.524C49.0586 112.825 49.296 113.072 49.5962 113.083L55.0517 113.295L55.0773 113.734L49.6146 113.807C49.0586 113.849 48.7019 114.73 50.4825 114.889L55.0517 115.051V115.336L50.4186 115.983C50.1845 116.016 49.5687 116.136 49.5629 116.372C49.5629 116.372 49.2824 116.952 50.6026 117.118C51.0555 117.174 55.0773 117.041 55.0773 117.041L54.9224 117.402L50.7588 118.3C50.4555 118.366 50.2543 118.654 50.2974 118.961C50.3413 119.274 50.6235 119.498 50.9382 119.468L55.3875 119.056L59.7533 122.543H65.5915L65.4094 118.416Z" fill="#FFC585"/>
<path d="M103.875 118.528L90.5509 121.148L89.1992 111.674" fill="#6A44C5"/>
<path d="M88.7779 118.89L64.082 118.092L64.0859 126.628L80.4707 129.882L91.9757 131.719C99.1262 131.719 104.846 125.156 103.738 118.092L103.708 118.1L88.7779 118.89Z" fill="#6A44C5"/>
<path d="M95.5769 118.734C95.5769 118.741 95.4668 118.748 95.257 118.757C95.0298 118.763 94.724 118.772 94.339 118.783C93.5225 118.798 92.3741 118.819 90.9621 118.844C88.1112 118.886 84.1714 118.934 79.8196 118.892C75.4661 118.849 71.5266 118.692 68.6804 118.499C67.2573 118.404 66.1067 118.313 65.313 118.233C64.9299 118.194 64.6255 118.162 64.3995 118.139C64.1907 118.115 64.0815 118.1 64.082 118.093C64.0826 118.087 64.1932 118.089 64.4028 118.1C64.6294 118.114 64.9349 118.133 65.3191 118.157C66.1142 118.214 67.2657 118.285 68.6885 118.363C71.5349 118.52 75.4709 118.655 79.8216 118.698C84.1709 118.74 88.1098 118.713 90.961 118.707C92.373 118.707 93.522 118.707 94.3382 118.707C94.7235 118.712 95.0293 118.715 95.2567 118.717C95.4666 118.722 95.5769 118.728 95.5769 118.734Z" fill="#1A2E35"/>
<path d="M64.0832 118.171C64.0866 118.171 64.0896 118.222 64.0927 118.322C64.0949 118.431 64.0979 118.578 64.1018 118.765C64.106 119.162 64.1118 119.729 64.1191 120.447C64.1257 121.908 64.1352 123.982 64.1469 126.48L64.0993 126.421C66.888 127.019 70.2312 127.759 73.8296 128.514C78.7641 129.558 83.2549 130.382 86.5203 130.887C88.153 131.137 89.4774 131.321 90.3934 131.442C90.8443 131.502 91.1979 131.548 91.4484 131.581C91.5627 131.598 91.653 131.611 91.7222 131.621C91.784 131.631 91.8154 131.637 91.8151 131.639C91.8148 131.642 91.7829 131.641 91.7206 131.636C91.6508 131.629 91.5599 131.621 91.4451 131.61C91.1938 131.584 90.839 131.546 90.3865 131.498C89.4679 131.394 88.1408 131.226 86.5047 130.988C83.2335 130.509 78.736 129.7 73.7999 128.656C70.2 127.9 66.8588 127.152 64.0735 126.539L64.0254 126.528L64.0257 126.48C64.0354 123.982 64.0435 121.908 64.049 120.447C64.056 119.729 64.0613 119.162 64.0651 118.765C64.0688 118.578 64.0718 118.431 64.074 118.322C64.0771 118.222 64.0802 118.171 64.0832 118.171Z" fill="#1A2E35"/>
<path d="M61.9735 94.8242C61.9635 94.8228 61.9704 94.6744 61.9913 94.4075C62.0082 94.1403 62.0349 93.7539 62.0455 93.276C62.0725 92.3214 62.0297 90.9962 61.7867 89.5589C61.5334 88.1283 61.2134 86.8248 60.7169 86.0144C60.4737 85.6074 60.1918 85.3391 59.9791 85.1829C59.7631 85.0297 59.6247 84.9727 59.6311 84.9594C59.633 84.9547 59.6683 84.9663 59.7342 84.993C59.8018 85.0169 59.8943 85.0664 60.0108 85.1365C60.2391 85.2816 60.5426 85.5485 60.8037 85.9599C61.0681 86.3686 61.2924 86.9059 61.4703 87.5178C61.6491 88.1283 61.8086 88.8105 61.9296 89.5353C62.1745 90.9842 62.2015 92.3211 62.1475 93.2799C62.1242 93.76 62.0816 94.1467 62.0474 94.4131C62.0091 94.6794 61.9835 94.8253 61.9735 94.8242Z" fill="#1A2E35"/>
<path d="M89.1331 87.3219C89.1731 87.3219 89.2054 92.9961 89.2054 99.9942C89.2054 106.995 89.1731 112.668 89.1331 112.668C89.0928 112.668 89.0605 106.995 89.0605 99.9942C89.0605 92.9961 89.0928 87.3219 89.1331 87.3219Z" fill="#1A2E35"/>
<path d="M97.6549 115.827C97.6546 115.854 97.2345 115.841 96.5668 115.924C96.2329 115.963 95.8393 116.038 95.4095 116.149C94.9816 116.267 94.519 116.424 94.0512 116.632C93.5852 116.846 93.1618 117.09 92.791 117.334C92.4243 117.583 92.1074 117.829 91.8575 118.055C91.3548 118.501 91.0877 118.825 91.0671 118.808C91.059 118.802 91.1208 118.717 91.2397 118.568C91.3559 118.418 91.543 118.215 91.7882 117.979C92.0323 117.742 92.347 117.483 92.7159 117.223C93.0884 116.97 93.5177 116.718 93.9914 116.501C94.467 116.288 94.9394 116.132 95.3761 116.02C95.8148 115.914 96.2162 115.848 96.5559 115.822C96.8951 115.793 97.1709 115.787 97.3607 115.799C97.5506 115.807 97.6552 115.817 97.6549 115.827Z" fill="#1A2E35"/>
<mask id="mask5_73_7635" style="mask-type:luminance" maskUnits="userSpaceOnUse" x="60" y="89" width="25" height="29">
<path d="M60.0781 89.5139H84.0306V117.008H60.0781V89.5139Z" fill="white"/>
</mask>
<g mask="url(#mask5_73_7635)">
<g opacity="0.300003">
<path d="M62.2045 117.008C66.3668 114.523 68.9641 110.407 71.5031 106.277C74.0421 102.148 76.4056 97.8122 79.9259 94.4798C81.5428 92.9494 83.4329 91.6581 84.0303 89.5139L77.7033 94.5418L60.0781 114.811L62.2045 117.008Z" fill="#181818"/>
</g>
</g>
<path d="M50.7774 106.133C50.7821 106.188 49.783 106.15 48.6446 106.537C48.078 106.731 47.5907 106.979 47.2387 107.158C46.8873 107.34 46.6697 107.454 46.6585 107.436C46.6488 107.42 46.8481 107.274 47.189 107.069C47.5304 106.865 48.0177 106.599 48.5981 106.4C49.1789 106.203 49.7335 106.127 50.1319 106.109C50.5314 106.091 50.7774 106.116 50.7774 106.133Z" fill="#1A2E35"/>
<path d="M50.7774 106.133C50.7821 106.188 49.783 106.15 48.6446 106.537C48.078 106.731 47.5907 106.979 47.2387 107.158C46.8873 107.34 46.6697 107.454 46.6585 107.436C46.6488 107.42 46.8481 107.274 47.189 107.069C47.5304 106.865 48.0177 106.599 48.5981 106.4C49.1789 106.203 49.7335 106.127 50.1319 106.109C50.5314 106.091 50.7774 106.116 50.7774 106.133Z" fill="#1A2E35"/>
<path d="M89.0267 115.218C89.0139 115.244 88.7259 114.965 88.0662 114.776C87.4143 114.573 86.3885 114.577 85.2245 114.954C84.0458 115.302 82.8237 116.137 81.3128 116.764C80.5583 117.069 79.702 117.305 78.8005 117.245C77.8978 117.199 77.0143 116.857 76.1751 116.439C75.3316 116.018 74.5474 115.544 73.7492 115.173C72.9536 114.798 72.1321 114.566 71.3295 114.49C69.721 114.337 68.2579 114.709 67.1662 115.243C66.0559 115.763 65.3125 116.451 64.8474 116.946C64.7351 117.073 64.6342 117.186 64.5455 117.287C64.4682 117.39 64.4015 117.478 64.3451 117.553C64.2942 117.62 64.2528 117.673 64.2194 117.716C64.1902 117.753 64.1744 117.771 64.1721 117.769C64.1699 117.768 64.1819 117.747 64.2069 117.708C64.2375 117.662 64.275 117.606 64.3214 117.537C64.3751 117.459 64.4382 117.367 64.5116 117.26C64.598 117.157 64.6962 117.039 64.8057 116.908C65.2613 116.398 66.0025 115.69 67.1214 115.151C67.6722 114.87 68.3171 114.642 69.0294 114.493C69.741 114.344 70.5255 114.279 71.3426 114.357C72.1591 114.431 73.0031 114.667 73.8087 115.045C74.6166 115.418 75.4039 115.892 76.2396 116.309C77.0716 116.723 77.9354 117.057 78.8091 117.103C79.6815 117.164 80.5169 116.938 81.263 116.64C82.7567 116.029 83.9941 115.197 85.1939 114.856C86.3763 114.486 87.4232 114.499 88.0824 114.722C88.414 114.824 88.6514 114.956 88.8043 115.053C88.8724 115.102 88.9278 115.142 88.9728 115.173C89.0098 115.201 89.0284 115.216 89.0267 115.218Z" fill="white"/>
<path d="M101.102 104.936C101.096 104.954 100.931 104.854 100.602 104.841C100.276 104.822 99.7994 104.938 99.2953 105.242C98.7821 105.529 98.2865 106.051 97.5862 106.444C97.2384 106.637 96.8159 106.78 96.3697 106.75C95.924 106.725 95.4948 106.549 95.0892 106.343C94.6811 106.137 94.3027 105.907 93.911 105.752C93.521 105.591 93.1246 105.486 92.7415 105.425C92.3581 105.361 91.987 105.348 91.6417 105.365C91.2962 105.378 90.9756 105.425 90.6885 105.49C90.1124 105.617 89.6701 105.809 89.376 105.959C89.0805 106.107 88.9282 106.212 88.9201 106.199C88.917 106.195 88.9535 106.166 89.0252 106.115C89.0966 106.065 89.2023 105.989 89.3496 105.909C89.6385 105.742 90.0813 105.532 90.6654 105.39C90.9564 105.317 91.2825 105.263 91.6353 105.244C91.9878 105.222 92.3681 105.231 92.7615 105.293C93.1549 105.352 93.5627 105.457 93.9647 105.62C94.37 105.78 94.7525 106.011 95.1545 106.214C95.5543 106.417 95.9643 106.584 96.3783 106.609C96.7917 106.638 97.185 106.509 97.5225 106.327C98.2017 105.956 98.7101 105.439 99.2439 105.153C99.7665 104.852 100.268 104.747 100.606 104.785C100.775 104.799 100.901 104.841 100.983 104.873C101.064 104.91 101.105 104.931 101.102 104.936Z" fill="white"/>
<path d="M88.8754 101.132C88.874 101.137 88.8087 101.125 88.6864 101.099C88.6249 101.087 88.5501 101.067 88.4603 101.052C88.3672 101.039 88.2632 101.026 88.1479 101.01C87.6778 100.957 86.9828 100.985 86.1666 101.213C85.3504 101.441 84.4288 101.87 83.4577 102.434C82.4872 102.997 81.4447 103.688 80.231 104.188C79.6261 104.436 79.0058 104.625 78.387 104.693C77.7698 104.765 77.1596 104.72 76.6084 104.57C76.056 104.422 75.5636 104.194 75.1133 103.973C74.6629 103.75 74.2512 103.531 73.8665 103.351C73.1025 102.98 72.4328 102.8 71.9599 102.774C71.7239 102.77 71.5399 102.77 71.4162 102.791C71.2919 102.804 71.2257 102.808 71.2246 102.803C71.2238 102.798 71.288 102.784 71.4123 102.762C71.5357 102.731 71.7217 102.722 71.9624 102.718C72.4445 102.726 73.1342 102.896 73.9095 103.258C74.2996 103.434 74.7155 103.648 75.1658 103.865C75.6159 104.08 76.1038 104.301 76.6426 104.441C77.1797 104.583 77.7696 104.624 78.3703 104.552C78.9725 104.484 79.5796 104.299 80.1762 104.054C81.3733 103.561 82.4113 102.878 83.391 102.319C84.3712 101.758 85.3084 101.333 86.1396 101.114C86.9716 100.895 87.6805 100.883 88.1545 100.954C88.2702 100.975 88.375 100.993 88.4684 101.009C88.5585 101.029 88.6327 101.054 88.6936 101.071C88.8145 101.106 88.8771 101.127 88.8754 101.132Z" fill="white"/>
<path d="M97.4836 92.579C97.488 92.5878 97.3821 92.6496 97.1864 92.7516C96.9901 92.8531 96.7046 92.9973 96.3418 93.1561C95.9788 93.314 95.5373 93.488 95.0241 93.6123C94.514 93.7399 93.9224 93.7974 93.3172 93.7285C92.7117 93.6648 92.1513 93.5361 91.6381 93.4669C91.126 93.3929 90.6587 93.3865 90.2737 93.4419C89.493 93.5469 89.1127 93.9045 89.0999 93.8753C89.0966 93.8714 89.118 93.8494 89.1622 93.8108C89.2056 93.771 89.2759 93.7199 89.3702 93.6604C89.5598 93.5428 89.8619 93.4085 90.2578 93.3409C90.6523 93.2703 91.1338 93.2667 91.6553 93.3346C92.1771 93.3979 92.7387 93.5225 93.3314 93.5842C94.524 93.726 95.5793 93.3457 96.3024 93.0616C96.6674 92.9162 96.959 92.7866 97.1622 92.7004C97.3652 92.6143 97.4791 92.5698 97.4836 92.579Z" fill="white"/>
<path d="M61.5394 97.2095C61.533 97.2276 61.3765 97.1039 61.0471 97.0911C60.7213 97.0739 60.2456 97.2084 59.7733 97.5631C59.5323 97.7333 59.2826 97.9443 58.9849 98.1386C58.6885 98.336 58.326 98.4844 57.9321 98.5606C57.1376 98.713 56.2416 98.5651 55.3831 98.2565C54.5216 97.9457 53.7499 97.5495 53.012 97.2899C52.6445 97.1575 52.287 97.0575 51.9465 96.9985C51.6054 96.9424 51.2823 96.9257 50.989 96.9407C50.4011 96.9705 49.9418 97.1347 49.6571 97.2968C49.3697 97.4583 49.2368 97.5893 49.2268 97.5773C49.2235 97.574 49.2552 97.5404 49.3194 97.48C49.3828 97.4186 49.4853 97.3363 49.6288 97.2485C49.911 97.0675 50.3794 96.8818 50.9826 96.8384C51.2832 96.8162 51.6151 96.8278 51.9657 96.8798C52.3159 96.9354 52.6826 97.0333 53.0565 97.1642C53.8074 97.4208 54.583 97.8145 55.4318 98.12C56.2752 98.4236 57.1456 98.5687 57.9079 98.4297C58.2868 98.3593 58.6313 98.2234 58.9207 98.0374C59.2123 97.8531 59.4661 97.6468 59.7152 97.4795C60.2053 97.1267 60.7121 96.9977 61.0507 97.0349C61.2208 97.0486 61.3473 97.0956 61.426 97.1359C61.5055 97.1762 61.5414 97.2068 61.5394 97.2095Z" fill="white"/>
<path d="M77.2002 118.502C77.2038 118.499 77.2344 118.525 77.2894 118.579C77.3467 118.631 77.4201 118.718 77.5085 118.835C77.6775 119.073 77.8852 119.461 77.9628 119.987C78.0389 120.505 77.9789 121.178 77.5936 121.777C77.2241 122.376 76.5942 122.85 76.2405 123.538C76.071 123.883 76.0282 124.264 76.1021 124.62C76.1705 124.977 76.3156 125.306 76.4629 125.613C76.7668 126.221 77.0476 126.809 77.037 127.354C77.0287 127.898 76.756 128.291 76.5169 128.463C76.3959 128.552 76.2845 128.59 76.2097 128.61C76.133 128.625 76.0927 128.627 76.0921 128.623C76.086 128.607 76.26 128.598 76.4821 128.419C76.6973 128.244 76.9397 127.863 76.9344 127.355C76.9322 126.842 76.6564 126.281 76.3431 125.671C76.1911 125.362 76.0379 125.026 75.9628 124.647C75.8811 124.27 75.9267 123.844 76.1104 123.475C76.2942 123.106 76.5575 122.808 76.8063 122.53C77.0559 122.252 77.2995 121.989 77.481 121.705C77.8524 121.142 77.9219 120.502 77.8613 120.001C77.7993 119.492 77.6128 119.109 77.4615 118.867C77.3053 118.626 77.1891 118.512 77.2002 118.502Z" fill="white"/>
<path d="M88.8527 130.707C88.8493 130.711 88.8138 130.679 88.7484 130.616C88.6862 130.55 88.6022 130.442 88.5335 130.282C88.3856 129.964 88.3673 129.423 88.6036 128.847C88.7187 128.56 88.9022 128.263 89.1437 127.994C89.38 127.719 89.6603 127.455 89.9416 127.17C90.2224 126.885 90.5068 126.574 90.7142 126.199C90.9224 125.825 91.04 125.389 91.0861 124.934C91.1781 124.019 91.0136 123.14 90.9671 122.332C90.9088 121.527 90.9785 120.771 91.2365 120.202C91.4837 119.631 91.8548 119.26 92.1506 119.083C92.2982 118.993 92.423 118.942 92.5089 118.914C92.5962 118.889 92.6421 118.878 92.6435 118.883C92.6496 118.899 92.46 118.94 92.1817 119.131C91.904 119.316 91.5582 119.685 91.3308 120.242C91.0942 120.797 91.0358 121.526 91.1003 122.323C91.1523 123.12 91.3244 124.005 91.2304 124.949C91.1829 125.418 91.0594 125.875 90.8384 126.268C90.618 126.661 90.3219 126.979 90.0364 127.264C89.4604 127.827 88.92 128.321 88.6981 128.886C88.4587 129.437 88.4607 129.952 88.5858 130.261C88.7042 130.576 88.8696 130.694 88.8527 130.707Z" fill="white"/>
<path d="M90.2813 134.393C90.2813 134.393 90.1852 134.477 89.9719 134.589C89.7606 134.702 89.4212 134.834 88.9631 134.877C88.5069 134.924 87.9367 134.875 87.3123 134.691C86.684 134.515 86.0171 134.177 85.3146 133.768C84.6082 133.367 83.8493 132.887 82.9488 132.584C82.0498 132.282 81.0081 132.256 79.9653 132.483C78.9178 132.701 77.8709 133.132 76.792 133.58C75.7122 134.026 74.5894 134.516 73.3584 134.766C72.7451 134.893 72.1179 134.931 71.5077 134.87C70.8961 134.812 70.3104 134.621 69.7808 134.358C68.7166 133.826 67.8679 133.056 67.0011 132.43C66.5679 132.115 66.134 131.822 65.6795 131.603C65.5655 131.549 65.4526 131.494 65.3403 131.441C65.2266 131.392 65.1084 131.355 64.9939 131.311C64.7668 131.218 64.531 131.166 64.302 131.105C63.379 130.879 62.4772 130.885 61.6796 130.998C60.8801 131.117 60.1753 131.342 59.596 131.62C59.4489 131.685 59.3163 131.767 59.1834 131.834C59.0492 131.901 58.9271 131.977 58.8134 132.055C58.6986 132.13 58.5863 132.2 58.4834 132.272C58.3847 132.349 58.2908 132.423 58.2015 132.494C58.0175 132.627 57.8796 132.775 57.7503 132.892C57.6188 133.008 57.5221 133.119 57.4437 133.209C57.3678 133.294 57.3078 133.36 57.2616 133.412C57.2196 133.457 57.1974 133.479 57.1955 133.478C57.1935 133.476 57.2119 133.45 57.2499 133.402C57.2933 133.349 57.35 133.279 57.4217 133.19C57.4968 133.096 57.591 132.981 57.72 132.861C57.8468 132.74 57.983 132.588 58.1657 132.45C58.2544 132.378 58.348 132.301 58.4462 132.221C58.549 132.147 58.6611 132.075 58.7759 131.996C58.8899 131.916 59.0122 131.838 59.1465 131.769C59.2799 131.698 59.4131 131.614 59.5612 131.547C60.1436 131.259 60.855 131.023 61.6646 130.897C62.4722 130.776 63.3879 130.763 64.3289 130.988C64.5627 131.049 64.8032 131.101 65.0356 131.194C65.1524 131.238 65.2727 131.276 65.3892 131.325C65.504 131.379 65.6197 131.434 65.7362 131.489C66.201 131.711 66.6422 132.006 67.0797 132.322C67.9546 132.951 68.8028 133.714 69.8436 134.231C70.3618 134.487 70.9281 134.671 71.523 134.726C72.116 134.786 72.7276 134.748 73.3303 134.624C74.5396 134.379 75.6569 133.894 76.7375 133.449C77.8178 133.002 78.8733 132.57 79.9381 132.352C80.9973 132.125 82.0684 132.156 82.9869 132.471C83.9049 132.785 84.6638 133.274 85.3657 133.679C86.0646 134.094 86.7179 134.433 87.3357 134.614C87.9492 134.803 88.5088 134.859 88.9581 134.82C89.409 134.787 89.7456 134.666 89.9589 134.562C90.174 134.46 90.2761 134.385 90.2813 134.393Z" fill="white"/>
<path d="M74.8157 88.0202C77.9179 88.1734 80.5864 85.8471 80.8588 82.7532C81.0203 80.9176 81.1477 79.3505 81.1477 79.3505C81.1477 79.3505 85.8845 79.2309 86.5436 74.5961C87.2033 69.9613 87.7813 59.1969 87.7813 59.1969C82.707 56.1903 76.403 56.1653 71.3051 59.1318L70.5484 59.5722L69.3291 81.9323C69.1545 85.1315 71.6156 87.8626 74.8157 88.0202Z" fill="#FFC585"/>
<path d="M81.8027 71.3941C81.805 71.3435 82.2108 71.3148 82.865 71.309C83.0348 71.3126 83.1711 71.2918 83.1947 71.2034C83.2378 71.1061 83.1964 70.9192 83.1371 70.7091C83.0273 70.2648 82.9164 69.8153 82.7999 69.3441C82.3415 67.4025 82.0499 65.8102 82.1486 65.7871C82.247 65.7637 82.6985 67.3183 83.1569 69.2599C83.2636 69.7333 83.3654 70.185 83.4657 70.6312C83.5022 70.8328 83.5892 71.0735 83.4671 71.3382C83.4032 71.4705 83.2584 71.5534 83.1444 71.5678C83.0293 71.587 82.9348 71.5748 82.8541 71.5681C82.2025 71.5075 81.8005 71.4447 81.8027 71.3941Z" fill="#1A2E35"/>
<path d="M81.1631 79.2843C81.1631 79.2843 78.1982 79.1422 75.334 76.7792C75.334 76.7792 76.3312 80.3056 81.018 80.4883L81.1631 79.2843Z" fill="#FF9A6C"/>
<path d="M87.7246 60.3781C87.7246 60.3781 84.8045 61.598 81.2052 59.5463C78.8433 58.2002 76.0447 57.4516 75.3936 57.9056C74.7425 58.3595 74.4729 60.8549 72.0265 61.4526C72.0265 61.4526 71.9281 66.2369 70.0338 65.9614C68.1392 65.6862 69.7371 58.3562 69.7371 58.3562L74.5201 56.3388L79.6556 55.6588L84.4072 56.5981L88.0568 57.8174L87.7246 60.3781Z" fill="#1A2E35"/>
<path d="M70.4962 64.4567C70.4214 64.4122 67.4287 63.0995 67.1185 66.2865C66.808 69.4732 70.072 69.1274 70.0861 69.0367C70.1009 68.9458 70.4962 64.4567 70.4962 64.4567Z" fill="#FFC585"/>
<path d="M69.2297 67.7349C69.2167 67.7232 69.1705 67.7686 69.0724 67.8022C68.9767 67.835 68.8166 67.8489 68.6565 67.7705C68.3321 67.614 68.1005 67.0519 68.1408 66.4761C68.1611 66.1851 68.2487 65.9149 68.3738 65.6963C68.4939 65.4726 68.6604 65.3244 68.8327 65.3108C69.0051 65.2882 69.1155 65.4014 69.1458 65.4948C69.1797 65.5882 69.1533 65.6499 69.1697 65.6569C69.1777 65.6658 69.2431 65.6102 69.2303 65.4762C69.2233 65.4114 69.1933 65.3324 69.1244 65.2641C69.054 65.1946 68.9445 65.1517 68.8252 65.1531C68.5778 65.1462 68.3346 65.3508 68.1972 65.5907C68.0463 65.8306 67.9409 66.1336 67.9184 66.4603C67.8761 67.1044 68.1464 67.7374 68.5939 67.9153C68.8127 67.9957 69.0062 67.9465 69.1102 67.8806C69.2164 67.8114 69.2403 67.7416 69.2297 67.7349Z" fill="#FF9A6C"/>
<path d="M74.1431 58.4184C73.4918 59.1123 72.8304 59.8145 72.022 60.3171C71.2136 60.8195 70.2275 61.1072 69.2998 60.8934C68.3724 60.6796 67.5526 59.8771 67.5148 58.926C67.477 57.975 68.4063 57.0473 69.336 57.2508C68.7049 57.2622 68.1775 56.5477 68.3744 55.9481C68.5712 55.3484 69.4196 55.0855 69.9209 55.4685C69.1136 55.3176 69.0227 54.0354 69.6662 53.5248C70.3095 53.0138 71.2525 53.1256 72.0137 53.4344C72.7751 53.743 73.4743 54.2214 74.2774 54.3943C75.537 54.6651 76.83 54.1408 77.9437 53.4936C79.0576 52.8464 80.1168 52.0547 81.3586 51.7116C82.8829 51.2902 84.5295 51.5982 85.9879 52.2101C87.1983 52.718 88.3442 53.4536 89.1318 54.5039C89.9194 55.5542 90.3077 56.9503 89.9572 58.2155C89.6066 59.4804 88.4298 60.5309 87.1171 60.5359C87.1171 60.5359 84.1662 60.8331 81.7651 59.0506C79.3643 57.2683 74.3013 57.5041 74.3013 57.5041L74.1431 58.4184Z" fill="#1A2E35"/>
<path d="M69.7016 54.7055C69.6955 54.7155 69.7586 54.7658 69.8853 54.8526C70.0102 54.9426 70.2042 55.0594 70.4583 55.2034C70.9684 55.4856 71.7435 55.8417 72.7562 56.1169C73.7668 56.3899 75.0228 56.5645 76.4128 56.4647C77.8092 56.373 79.2737 55.9229 80.7988 55.5498C82.3192 55.1753 83.8306 54.9894 85.1347 55.3102C86.438 55.6112 87.4663 56.401 87.9189 57.2937C88.3773 58.1952 88.3228 59.0757 88.1594 59.6067C87.9934 60.1518 87.7616 60.3928 87.7916 60.4134C87.8005 60.4209 87.8575 60.3636 87.959 60.2455C88.0485 60.1204 88.1841 59.9297 88.285 59.6489C88.4958 59.1035 88.5986 58.1708 88.1346 57.1864C87.6737 56.2048 86.5823 55.3396 85.2106 55.0052C83.8315 54.6482 82.2577 54.8398 80.7193 55.2184C79.175 55.5971 77.738 56.0466 76.3878 56.1517C75.0392 56.2656 73.8118 56.1208 72.8152 55.8831C70.8111 55.3958 69.7333 54.6377 69.7016 54.7055Z" fill="#375A64"/>
<path d="M68.2704 59.6314C68.2345 59.6495 68.3385 59.9614 68.6824 60.3564C69.0187 60.7484 69.6303 61.2029 70.4254 61.3753C71.2213 61.5468 71.9658 61.3853 72.4343 61.1676C72.9107 60.95 73.134 60.7087 73.109 60.6775C73.0789 60.6333 72.8123 60.7965 72.3484 60.9422C71.8894 61.0898 71.2116 61.196 70.4977 61.0423C69.7841 60.8874 69.2106 60.511 68.8536 60.1869C68.4911 59.8627 68.316 59.6036 68.2704 59.6314Z" fill="#375A64"/>
<path d="M69.265 58.0577C69.1838 58.0958 69.4279 58.6748 70.0456 59.0985C70.66 59.5269 71.288 59.5514 71.2949 59.4619C71.3138 59.3648 70.7826 59.2003 70.2394 58.8183C69.6903 58.4449 69.3492 58.006 69.265 58.0577Z" fill="#375A64"/>
<path d="M89.2899 62.5034C89.3322 62.5137 89.4222 62.3566 89.4459 62.0711C89.4709 61.7898 89.4083 61.3759 89.164 61.0003C88.9193 60.6247 88.5663 60.3995 88.2991 60.3086C88.0283 60.2147 87.8482 60.2333 87.8407 60.2761C87.8132 60.3681 88.4684 60.5505 88.8785 61.1863C89.2935 61.8182 89.1945 62.4912 89.2899 62.5034Z" fill="#1A2E35"/>
<path d="M90.9419 57.9329C90.8477 57.8935 90.496 58.738 89.6628 59.4333C88.8427 60.1442 87.9531 60.3557 87.977 60.455C87.9729 60.5436 88.9801 60.47 89.8838 59.693C90.796 58.926 91.0298 57.9432 90.9419 57.9329Z" fill="#375A64"/>
<path d="M86.1096 66.2604C86.0737 66.6377 85.7248 66.9184 85.3301 66.8884C84.9362 66.8581 84.6451 66.5287 84.6807 66.1514C84.7165 65.7742 85.0654 65.4929 85.4594 65.5229C85.8541 65.5529 86.1455 65.8832 86.1096 66.2604Z" fill="#1A2E35"/>
<path d="M86.675 66.1979C86.5746 66.2791 86.0879 65.8101 85.3222 65.7122C84.5591 65.6035 83.9461 65.9241 83.8752 65.8195C83.8399 65.7725 83.9514 65.6171 84.2194 65.4709C84.483 65.325 84.9164 65.2063 85.3929 65.2705C85.8691 65.3352 86.2471 65.5629 86.454 65.7728C86.6661 65.9838 86.7236 66.1623 86.675 66.1979Z" fill="#1A2E35"/>
<path d="M79.1467 65.2935C79.1108 65.6708 78.762 65.9515 78.3672 65.9215C77.9733 65.8915 77.6822 65.5618 77.7178 65.1845C77.7537 64.8073 78.1028 64.5259 78.4967 64.556C78.8912 64.5863 79.1826 64.9163 79.1467 65.2935Z" fill="#1A2E35"/>
<path d="M79.6442 65.2738C79.5438 65.355 79.0565 64.886 78.2915 64.7881C77.5283 64.6794 76.9151 65 76.8442 64.8952C76.8092 64.8485 76.9198 64.6928 77.1886 64.5468C77.4524 64.4009 77.8856 64.2822 78.3618 64.3461C78.8383 64.4109 79.2161 64.6389 79.4232 64.8485C79.6345 65.0598 79.6929 65.2379 79.6442 65.2738Z" fill="#1A2E35"/>
<path d="M79.3491 63.1687C79.1981 63.3036 78.6246 62.8852 77.8501 62.8126C77.0773 62.7206 76.4287 63.0089 76.3094 62.8454C76.2538 62.7673 76.3567 62.5696 76.6416 62.3809C76.9208 62.193 77.3945 62.0359 77.9266 62.0926C78.4586 62.1493 78.8887 62.4023 79.1222 62.6447C79.3608 62.8891 79.42 63.1042 79.3491 63.1687Z" fill="#1A2E35"/>
<path d="M86.6253 64.4362C86.6587 64.5269 86.5269 64.6789 86.2486 64.7996C85.9726 64.9205 85.5475 64.9922 85.0899 64.9208C84.632 64.8485 84.2495 64.6498 84.0243 64.4501C83.7961 64.2497 83.7174 64.0646 83.7769 63.9887C83.9095 63.8316 84.4789 64.1021 85.2022 64.2058C85.9222 64.3289 86.5472 64.2461 86.6253 64.4362Z" fill="#1A2E35"/>
<path d="M81.2157 72.6673C81.2955 72.6723 81.3517 72.8163 81.3411 72.989C81.3306 73.1616 81.2574 73.2978 81.1777 73.2928C81.0979 73.2881 81.0417 73.1441 81.052 72.9715C81.0626 72.7986 81.136 72.6626 81.2157 72.6673Z" fill="#1A2E35"/>
<path d="M69.9282 70.2483C69.9357 70.2509 69.9241 70.3229 69.8587 70.4352C69.7945 70.5466 69.6661 70.6962 69.4548 70.803C69.2488 70.9103 68.9433 70.9645 68.6436 70.8511C68.3481 70.7443 68.067 70.491 67.9469 70.1413C67.8299 69.7908 67.8947 69.4232 68.0453 69.1516C68.196 68.8736 68.4354 68.6985 68.6472 68.6065C68.8613 68.5131 69.0517 68.4928 69.1793 68.4944C69.308 68.4969 69.3764 68.5167 69.3756 68.5253C69.3781 68.5537 69.0839 68.5053 68.6908 68.6991C68.4993 68.7961 68.2911 68.9629 68.1629 69.2145C68.0337 69.4616 67.9819 69.7902 68.084 70.0949C68.1877 70.3979 68.4331 70.6264 68.6908 70.7262C68.9508 70.8321 69.2174 70.7963 69.4114 70.7104C69.8123 70.5302 69.9063 70.2292 69.9282 70.2483Z" fill="#375A64"/>
<path d="M73.0059 89.2865C73.0059 89.2865 74.5568 87.0953 75.5312 85.8646C76.7122 84.3731 77.4161 83.0876 77.4161 82.391V78.6997C77.4161 78.6997 78.8861 78.3513 79.096 80.0232C79.3062 81.6946 79.096 82.1124 79.096 82.1124C79.096 82.1124 85.269 77.9552 85.6877 78.2568C86.423 78.7867 85.0282 79.897 85.0282 79.897L81.2664 83.2967L83.4083 82.6186C83.9293 82.4535 84.487 82.734 84.6627 83.2489C84.8067 83.6725 84.6504 84.1396 84.2799 84.3926L83.0119 85.4912L83.6499 85.2346C84.1225 85.0447 84.6624 85.2477 84.8909 85.7008C85.0744 86.0645 85.011 86.5037 84.7316 86.8014L83.5763 88.0327L84.1178 87.7447C84.4667 87.559 84.9006 87.6966 85.0775 88.0491C85.2253 88.3443 85.1453 88.7024 84.8856 88.9078L77.9759 94.3711L73.0059 89.2865Z" fill="#FFC585"/>
<path d="M77.9754 94.3711C77.9754 94.3711 77.9465 94.3458 77.8895 94.2902C77.8289 94.2296 77.7453 94.1465 77.6366 94.0386C77.4094 93.8098 77.08 93.4784 76.6549 93.0506C75.7923 92.1763 74.5416 90.9092 72.9723 89.3187L72.9453 89.2918L72.9678 89.2598C73.4196 88.6201 73.9114 87.9337 74.4443 87.2084C74.7112 86.8465 74.9881 86.4745 75.2791 86.0961C75.5732 85.7195 75.8746 85.3372 76.159 84.9249C76.4442 84.5149 76.7208 84.0826 76.9582 83.6183C77.1879 83.1516 77.4061 82.6581 77.3524 82.1093C77.3513 81.0135 77.3499 79.8748 77.3486 78.6997V78.6444L77.4003 78.6346C77.7753 78.564 78.1778 78.6077 78.5162 78.8184C78.683 78.9257 78.8144 79.0786 78.9209 79.2446C79.0138 79.418 79.0858 79.6029 79.1236 79.7947C79.1984 80.1792 79.2245 80.5576 79.2487 80.9487C79.2587 81.1433 79.2623 81.3393 79.254 81.5372C79.2412 81.7385 79.2365 81.9273 79.1586 82.1441L79.0563 82.054C80.0093 81.4152 80.9976 80.768 82.0184 80.1228C82.5288 79.8006 83.0476 79.4792 83.5777 79.1648C84.1103 78.8545 84.6438 78.5362 85.2257 78.2818C85.3027 78.2502 85.3803 78.2193 85.4637 78.1957C85.5056 78.1843 85.5482 78.1737 85.5979 78.1704C85.6218 78.1679 85.6507 78.1693 85.6824 78.1762C85.7272 78.1915 85.7436 78.2104 85.7581 78.2243C85.9093 78.3249 85.9932 78.5345 85.9677 78.7127C85.9148 79.0741 85.6866 79.3369 85.4723 79.5782C85.2482 79.8195 84.9919 80.0171 84.7623 80.2337C84.5262 80.4469 84.2916 80.6593 84.0578 80.8703C83.1229 81.7146 82.2066 82.5419 81.3128 83.3487L81.2447 83.2297C81.6667 83.0962 82.0848 82.9642 82.4988 82.8335C82.7059 82.7682 82.9119 82.7032 83.1165 82.6384C83.2202 82.6067 83.318 82.5731 83.4256 82.5427C83.5354 82.5111 83.6503 82.4988 83.7634 82.5052C84.2218 82.5194 84.6344 82.8602 84.745 83.2922C84.8673 83.7234 84.6791 84.2069 84.3169 84.447L84.3227 84.4423C83.8913 84.8151 83.4684 85.1807 83.0537 85.5393L82.9875 85.4317C83.1963 85.348 83.4034 85.2649 83.6088 85.1829C83.824 85.094 84.0706 85.0767 84.293 85.1387C84.7442 85.258 85.0692 85.6992 85.0542 86.1476C85.0517 86.37 84.9752 86.5876 84.8426 86.7603C84.703 86.9265 84.5632 87.0619 84.4259 87.212C84.1507 87.5045 83.8807 87.7908 83.6169 88.0713L83.5496 87.9832C83.7453 87.8801 83.9388 87.7783 84.1304 87.678C84.3408 87.5779 84.593 87.5879 84.7931 87.6921C84.9969 87.7931 85.1409 87.9907 85.1865 88.2056C85.2324 88.4216 85.1765 88.6515 85.0439 88.8192C84.9777 88.9056 84.8907 88.9671 84.8156 89.0265C84.7383 89.0874 84.6616 89.148 84.5852 89.2081C84.4328 89.3279 84.2824 89.4463 84.134 89.5628C83.8376 89.7955 83.5505 90.0212 83.2727 90.2395C82.163 91.1088 81.2036 91.8602 80.4163 92.4771C79.6359 93.0859 79.026 93.5616 78.6068 93.8885C78.4033 94.0456 78.2465 94.167 78.1358 94.2524C78.0297 94.3336 77.9754 94.3711 77.9754 94.3711C77.9754 94.3711 78.0302 94.3224 78.1367 94.2357C78.247 94.1465 78.4038 94.0197 78.6068 93.8557C79.0235 93.5215 79.629 93.0361 80.4043 92.4148C81.183 91.7935 82.1318 91.0362 83.2291 90.1605C83.504 89.942 83.7876 89.7163 84.0803 89.483C84.2268 89.3665 84.3753 89.2484 84.5262 89.1286C84.6019 89.0685 84.6777 89.0082 84.7545 88.9473C84.8323 88.8848 84.9082 88.83 84.9635 88.7569C85.0775 88.6112 85.1242 88.4124 85.0842 88.2273C85.0441 88.0427 84.9196 87.8731 84.7447 87.7875C84.5721 87.6988 84.3561 87.6913 84.1765 87.7775C83.9872 87.8781 83.7959 87.9796 83.6022 88.0825L83.305 88.2404L83.5349 87.9946C83.7976 87.7133 84.0664 87.4258 84.3405 87.1323C84.4742 86.986 84.6249 86.8362 84.7481 86.6883C84.8648 86.5351 84.9316 86.3425 84.9332 86.1462C84.9449 85.7503 84.6575 85.3633 84.2596 85.2591C84.0625 85.2052 83.8496 85.2199 83.6561 85.3002C83.4509 85.3828 83.2441 85.4665 83.0353 85.5504L82.6806 85.6936L82.9694 85.4426C83.3837 85.0831 83.8059 84.7164 84.236 84.3425L84.2393 84.3397L84.2421 84.3378C84.5596 84.1268 84.7225 83.7037 84.6152 83.3275C84.5179 82.9503 84.1571 82.6537 83.757 82.642C83.5585 82.6236 83.3673 82.707 83.1582 82.7699C82.9533 82.8347 82.7476 82.9 82.5408 82.9659C82.1271 83.0968 81.709 83.2297 81.287 83.3634L80.9792 83.4613L81.2186 83.2447C82.1124 82.436 83.0289 81.6073 83.9638 80.7616C84.1979 80.55 84.4328 80.3377 84.6686 80.1241C84.9018 79.9048 85.1534 79.7099 85.3666 79.4797C85.574 79.2512 85.7847 78.9877 85.8234 78.6988C85.8395 78.5582 85.7889 78.4211 85.6669 78.3363C85.6499 78.2949 85.5774 78.3183 85.5026 78.3352C85.4292 78.3558 85.355 78.385 85.2813 78.4153C84.7169 78.6619 84.1807 78.9805 83.6514 79.289C83.1232 79.6021 82.605 79.9229 82.0948 80.2445C81.0754 80.8881 80.0871 81.5339 79.135 82.1708L78.9582 82.2892L79.033 82.081C79.088 81.9264 79.105 81.7176 79.1141 81.5311C79.1225 81.3393 79.1191 81.1469 79.1097 80.9551C79.0872 80.5748 79.0591 80.185 78.989 79.8239C78.954 79.6427 78.8867 79.4722 78.8033 79.3141C78.7063 79.1645 78.5904 79.0283 78.4425 78.9324C78.1464 78.7444 77.7667 78.7019 77.4311 78.7647L77.4825 78.6997C77.4812 79.8748 77.4798 81.0135 77.4784 82.1093C77.477 82.2472 77.4828 82.3787 77.47 82.5244C77.452 82.6642 77.4222 82.8005 77.3797 82.9306C77.2974 83.1919 77.1859 83.4371 77.0664 83.6737C76.8237 84.1449 76.5432 84.5794 76.2543 84.9919C75.9672 85.4048 75.6603 85.7912 75.367 86.1643C75.0751 86.5401 74.7968 86.9104 74.5288 87.271C73.9931 87.9929 73.4983 88.6768 73.0429 89.3132L73.0382 89.2545C74.5847 90.8516 75.8173 92.1243 76.6672 93.0022C77.0883 93.4398 77.4144 93.779 77.6393 94.013C77.7472 94.1265 77.8303 94.214 77.8904 94.2771C77.9468 94.3372 77.9754 94.3711 77.9754 94.3711Z" fill="#FF9A6C"/>
<path d="M77.9758 94.3717L59.034 119.38C56.1589 123.176 50.977 124.564 46.6722 122.504C43.5249 120.997 41.217 117.834 43.1483 111.322L61.2933 98.907L72.3227 88.2626L77.9758 94.3717Z" fill="#6A44C5"/>
<path d="M46.6728 122.504C46.6728 122.504 46.7434 122.537 46.8772 122.608C47.0145 122.68 47.2119 122.785 47.4699 122.922C48.0114 123.146 48.8276 123.482 49.9457 123.586C50.502 123.628 51.1269 123.648 51.8011 123.552C52.1405 123.524 52.4861 123.439 52.8478 123.367C53.0274 123.326 53.2064 123.268 53.3913 123.217C53.5767 123.169 53.761 123.106 53.9464 123.035C54.6937 122.769 55.4676 122.406 56.2232 121.917C56.9808 121.432 57.7256 120.826 58.3583 120.051C59.6513 118.521 60.9873 116.775 62.4315 114.912C63.8724 113.045 65.3936 111.036 66.9949 108.923C70.1911 104.691 73.6853 100.023 77.3368 95.112C77.5311 94.8499 77.7252 94.5886 77.9184 94.3284L77.9236 94.4206C75.9854 92.3256 74.0936 90.2809 72.2713 88.3108L72.3681 88.3172C68.507 91.5044 64.9333 94.5474 61.6934 97.2574C58.4567 99.9709 55.5544 102.353 53.1016 104.294C50.6499 106.237 48.6555 107.749 47.2669 108.763C46.5766 109.276 46.0307 109.656 45.6662 109.919C45.4852 110.047 45.3465 110.145 45.2495 110.214C45.1555 110.279 45.1055 110.31 45.1055 110.31C45.1055 110.31 45.1502 110.272 45.2422 110.203C45.3373 110.132 45.4735 110.031 45.6515 109.898C46.0109 109.628 46.5519 109.243 47.2375 108.724C48.6163 107.697 50.6013 106.174 53.0446 104.222C55.4888 102.272 58.3833 99.8828 61.6142 97.1628C64.8482 94.4468 68.4177 91.3991 72.278 88.2082L72.3297 88.1654L72.3753 88.2146C74.1982 90.1839 76.0908 92.2283 78.0296 94.3225L78.0704 94.3664L78.0346 94.4148C77.8416 94.675 77.6473 94.9363 77.453 95.1982C73.8012 100.11 70.3037 104.775 67.1011 109.003C65.4968 111.115 63.9719 113.121 62.5263 114.985C61.0774 116.846 59.7377 118.588 58.4358 120.118C57.7945 120.898 57.0378 121.509 56.2727 121.994C55.5091 122.485 54.7276 122.847 53.9737 123.111C53.7866 123.182 53.6006 123.245 53.4132 123.292C53.227 123.342 53.0463 123.4 52.865 123.44C52.5 123.511 52.1517 123.594 51.8094 123.62C51.1297 123.713 50.5001 123.689 49.9402 123.642C48.8148 123.529 47.9969 123.182 47.4573 122.948C47.1966 122.809 47.002 122.694 46.8697 122.62C46.7382 122.545 46.6728 122.504 46.6728 122.504Z" fill="#1A2E35"/>
<path d="M61.034 115.991C61.0226 116.007 60.8202 115.812 60.3718 115.611C59.9278 115.405 59.2097 115.262 58.3351 115.354C57.8984 115.397 57.425 115.496 56.9307 115.647C56.4364 115.797 55.9221 116.008 55.3778 116.223C54.8337 116.438 54.2583 116.664 53.6378 116.831C53.0187 116.996 52.3456 117.095 51.6609 117.023C50.9765 116.952 50.3374 116.738 49.7472 116.493C49.1553 116.248 48.6065 115.969 48.0753 115.728C47.0217 115.237 45.9969 114.918 45.1182 114.968C44.2397 115.008 43.5739 115.345 43.2067 115.662C42.8311 115.981 42.7182 116.244 42.7015 116.232C42.6974 116.229 42.7293 116.169 42.7952 116.055C42.8697 115.948 42.9809 115.786 43.1694 115.62C43.5339 115.282 44.2111 114.919 45.1126 114.866C46.017 114.802 47.067 115.119 48.13 115.606C48.6663 115.845 49.2154 116.121 49.8014 116.362C50.386 116.603 51.0126 116.811 51.6757 116.879C52.3381 116.948 52.9923 116.854 53.6014 116.694C54.2118 116.532 54.7842 116.31 55.3291 116.099C55.8746 115.887 56.3922 115.679 56.8962 115.532C57.3988 115.383 57.8806 115.289 58.3257 115.252C59.2167 115.172 59.95 115.334 60.3951 115.56C60.8452 115.781 61.034 115.991 61.034 115.991Z" fill="white"/>
<path d="M67.728 107.603C67.7069 107.598 67.8403 107.435 67.8003 107.108C67.7583 106.794 67.5017 106.329 66.9643 106.091C66.6994 105.967 66.3856 105.888 66.0442 105.81C65.7042 105.733 65.3297 105.641 64.9686 105.465C64.2386 105.126 63.5661 104.54 62.942 103.877C62.317 103.212 61.7599 102.548 61.1661 102.038C60.5787 101.523 59.9537 101.176 59.385 101.021C58.8184 100.859 58.3297 100.866 58.0072 100.927C57.6822 100.986 57.5132 101.065 57.5079 101.051C57.5057 101.047 57.5468 101.026 57.6277 100.989C57.7083 100.954 57.8315 100.907 57.9963 100.872C58.3224 100.792 58.8262 100.768 59.4122 100.922C59.9993 101.068 60.6507 101.418 61.2528 101.937C61.8622 102.451 62.4268 103.118 63.047 103.777C63.6662 104.435 64.3222 105.01 65.0256 105.344C65.7209 105.689 66.4603 105.715 67.0083 105.998C67.5726 106.264 67.8295 106.766 67.8562 107.101C67.8695 107.273 67.8356 107.406 67.7981 107.487C67.7603 107.568 67.7308 107.605 67.728 107.603Z" fill="white"/>
</g>
<mask id="mask6_73_7635" style="mask-type:luminance" maskUnits="userSpaceOnUse" x="8" y="8" width="139" height="140">
<path d="M8 8.01173H147V147.012H8V8.01173Z" fill="white"/>
</mask>
<g mask="url(#mask6_73_7635)">
<path d="M120.929 41.7405L120.101 41.7956L118.461 44.4341L118.571 46.087C118.571 46.087 117.296 46.2508 117.303 44.0763C117.31 41.902 117.183 42.4639 117.183 42.4639C117.183 42.4639 114.465 42.634 114.223 42.4127C114.048 42.2523 113.794 39.5574 113.669 38.0954C113.605 37.3592 114.012 36.6437 114.686 36.4238C114.781 36.3926 114.879 36.3715 114.975 36.3651C115.653 36.3201 119.153 36.6412 119.153 36.6412L120.584 36.5458L120.929 41.7405Z" fill="#375A64"/>
<path d="M123.329 42.0366L122.443 36.4068L121.025 36.5011L121.394 42.0508L123.329 42.0366Z" fill="#375A64"/>
<path d="M101.532 46.7987C101.534 46.7939 101.574 46.8039 101.652 46.8276C101.69 46.8376 101.737 46.8551 101.79 46.8809C101.844 46.9043 101.906 46.9335 101.97 46.9752C102.233 47.1281 102.583 47.4433 102.795 47.9587C102.898 48.2145 102.967 48.5192 102.945 48.8478C102.921 49.1744 102.805 49.5236 102.578 49.8169C102.358 50.113 102.04 50.3607 101.667 50.5091C101.296 50.6631 100.86 50.7082 100.442 50.6031C100.026 50.488 99.6689 50.2333 99.4226 49.9164C99.1715 49.6031 99.0175 49.2309 98.9725 48.8645C98.9197 48.4972 98.9911 48.1364 99.1318 47.8406C99.2752 47.544 99.4851 47.313 99.7008 47.1411C100.14 46.7981 100.6 46.6969 100.904 46.6933C100.981 46.6888 101.049 46.6941 101.107 46.7005C101.166 46.7041 101.215 46.7119 101.254 46.7225C101.333 46.74 101.373 46.7514 101.372 46.7564C101.369 46.7722 101.204 46.7283 100.907 46.7497C100.613 46.7697 100.176 46.8837 99.7653 47.2209C99.5635 47.3894 99.3697 47.6124 99.2405 47.8917C99.1143 48.1709 99.0517 48.5042 99.1048 48.8467C99.1938 49.5228 99.7033 50.2506 100.479 50.4632C101.258 50.6609 102.06 50.28 102.471 49.736C102.687 49.4644 102.797 49.1439 102.825 48.8389C102.851 48.5317 102.792 48.2423 102.7 47.9963C102.51 47.5003 102.185 47.1851 101.94 47.0227C101.692 46.857 101.526 46.8137 101.532 46.7987Z" fill="#1A2E35"/>
<path d="M95.7466 51.7495C95.7475 51.7434 95.8573 51.7553 96.0282 51.8518C96.1961 51.9463 96.4216 52.1448 96.5592 52.4728C96.6262 52.6358 96.671 52.8304 96.6579 53.0411C96.6437 53.251 96.5698 53.4759 96.4244 53.6646C96.1458 54.041 95.6021 54.3079 95.0533 54.1703C94.5076 54.0191 94.1667 53.5184 94.1103 53.0533C94.077 52.8176 94.1242 52.5852 94.2151 52.3958C94.308 52.206 94.4431 52.0589 94.5818 51.9505C94.8634 51.7331 95.1575 51.6716 95.3502 51.6728C95.5462 51.6733 95.6479 51.717 95.6457 51.7228C95.6432 51.7364 95.5387 51.7125 95.3533 51.7289C95.1706 51.7448 94.899 51.819 94.646 52.03C94.3953 52.2332 94.1737 52.6066 94.2426 53.0355C94.2985 53.4522 94.6152 53.9007 95.0903 54.0305C95.567 54.1522 96.0638 53.9184 96.3182 53.5837C96.5898 53.2449 96.5817 52.8109 96.4639 52.5104C96.3482 52.2018 96.1489 52.0033 95.9977 51.8993C95.8448 51.7931 95.7419 51.7623 95.7466 51.7495Z" fill="#1A2E35"/>
<path d="M104.171 38.3049C104.171 38.3049 104.18 38.2262 104.204 38.0733C104.229 37.9165 104.266 37.6903 104.314 37.395C104.339 37.2455 104.367 37.0787 104.397 36.8952C104.436 36.7128 104.497 36.5179 104.553 36.3041C104.612 36.0909 104.675 35.8613 104.742 35.6158C104.772 35.4916 104.816 35.3681 104.868 35.2425C104.917 35.1163 104.967 34.9861 105.019 34.8521C105.398 33.7682 106.07 32.5125 107.055 31.2123C108.045 29.919 109.412 28.606 111.189 27.5644C111.412 27.4359 111.637 27.3064 111.866 27.1749C112.101 27.0576 112.347 26.9533 112.591 26.8402C112.839 26.7357 113.078 26.6014 113.34 26.518C113.601 26.429 113.864 26.3392 114.13 26.2483C114.263 26.2038 114.395 26.1555 114.531 26.1135C114.669 26.081 114.808 26.0484 114.947 26.0156C115.226 25.95 115.508 25.8839 115.792 25.8172C116.078 25.7591 116.373 25.7346 116.666 25.6909C116.962 25.6601 117.257 25.5928 117.561 25.5978C118.166 25.5842 118.782 25.5339 119.405 25.6048C119.716 25.6312 120.033 25.6384 120.347 25.6809C120.66 25.7349 120.976 25.7891 121.293 25.8441C121.452 25.8744 121.613 25.8928 121.771 25.9331C121.927 25.9764 122.084 26.0204 122.241 26.064C122.555 26.1555 122.876 26.2325 123.191 26.3378C123.805 26.5864 124.448 26.7949 125.042 27.1313C125.194 27.2085 125.346 27.2861 125.499 27.3639C125.574 27.4037 125.652 27.4401 125.727 27.4824L125.944 27.6216C126.234 27.8074 126.526 27.9944 126.82 28.1824C127.104 28.3836 127.372 28.6108 127.652 28.8257C127.788 28.9377 127.935 29.0372 128.063 29.1604L128.448 29.5287C128.985 30.0011 129.436 30.5651 129.913 31.1139C130.124 31.4105 130.335 31.7085 130.548 32.0082L130.707 32.2331L130.846 32.4719L131.122 32.9529L131.399 33.4357L131.632 33.9445L131.864 34.4563L131.98 34.7132C132.013 34.8007 132.041 34.8908 132.072 34.9798C132.194 35.3364 132.316 35.6948 132.438 36.0545C132.525 36.4242 132.612 36.7954 132.699 37.1682C132.994 38.6702 133.06 40.2362 132.89 41.8002C132.68 43.3598 132.24 44.8649 131.594 46.2529C131.42 46.5938 131.246 46.9335 131.073 47.2718C130.868 47.5915 130.663 47.9101 130.46 48.2276L130.306 48.4641L130.132 48.6857L129.784 49.1272L129.436 49.5653L129.051 49.9678L128.667 50.3684L128.475 50.5672L128.266 50.7474C127.988 50.987 127.711 51.2258 127.436 51.4635C126.841 51.8819 126.267 52.3208 125.633 52.6508L125.17 52.916C125.017 53.005 124.85 53.0662 124.691 53.1423C124.368 53.2841 124.053 53.4398 123.729 53.5674C123.399 53.6794 123.07 53.7909 122.744 53.9015L122.499 53.9844C122.417 54.0075 122.332 54.0244 122.249 54.0447C122.082 54.0836 121.916 54.1223 121.75 54.1612C121.092 54.345 120.419 54.3933 119.762 54.487C119.432 54.514 119.102 54.5115 118.775 54.5248C118.611 54.5295 118.448 54.5343 118.286 54.539C118.124 54.5404 117.962 54.5195 117.802 54.5109C117.48 54.4878 117.161 54.4648 116.844 54.4423C116.528 54.4078 116.22 54.3391 115.911 54.2899C115.289 54.209 114.703 54.0122 114.119 53.854C113.823 53.7859 113.552 53.6497 113.273 53.5485C112.998 53.4359 112.718 53.3414 112.454 53.2163C112.194 53.0834 111.937 52.9513 111.682 52.8207C111.555 52.7553 111.428 52.6906 111.301 52.6258C111.182 52.5496 111.063 52.474 110.944 52.3987C110.708 52.2466 110.474 52.0962 110.243 51.9475C110.008 51.8032 109.808 51.6155 109.592 51.4546C109.382 51.2858 109.169 51.1263 108.969 50.9556C108.779 50.7735 108.591 50.5931 108.405 50.4151C106.931 48.9773 105.919 47.3747 105.268 45.8812C104.624 44.3831 104.273 43.0028 104.165 41.8597C104.147 41.7174 104.129 41.5789 104.112 41.4444C104.093 41.3104 104.079 41.1797 104.081 41.0518C104.074 40.7977 104.068 40.5598 104.062 40.3385C104.059 40.1177 104.047 39.9137 104.052 39.7274C104.067 39.542 104.08 39.3733 104.092 39.2223C104.116 38.9243 104.134 38.6958 104.147 38.5373C104.161 38.3833 104.171 38.3049 104.171 38.3049C104.171 38.3049 104.17 38.3847 104.162 38.539C104.153 38.6974 104.139 38.9257 104.121 39.224C104.111 39.3749 104.1 39.5431 104.088 39.7283C104.085 39.9143 104.1 40.1177 104.105 40.3376C104.113 40.5581 104.121 40.7952 104.13 41.0485C104.13 41.1758 104.144 41.3056 104.165 41.4394C104.183 41.5731 104.202 41.711 104.221 41.8527C104.337 42.9903 104.695 44.362 105.342 45.8487C105.996 47.3305 107.008 48.9189 108.477 50.3418C108.661 50.518 108.849 50.6962 109.038 50.8766C109.237 51.0456 109.449 51.2033 109.658 51.3701C109.873 51.5294 110.072 51.7151 110.305 51.8574C110.535 52.0045 110.768 52.1532 111.002 52.3033C111.12 52.3778 111.239 52.4526 111.357 52.5279C111.483 52.5919 111.609 52.6558 111.736 52.7203C111.989 52.8493 112.245 52.9794 112.503 53.1109C112.764 53.2343 113.042 53.3272 113.316 53.4387C113.593 53.5379 113.861 53.6727 114.155 53.7395C114.734 53.8949 115.316 54.0895 115.933 54.1681C116.239 54.2162 116.546 54.2841 116.858 54.3174C117.172 54.3394 117.489 54.3614 117.808 54.3839C117.968 54.3922 118.127 54.4125 118.288 54.4111C118.449 54.4061 118.611 54.4008 118.773 54.3958C119.096 54.3822 119.424 54.3842 119.751 54.3572C120.401 54.2627 121.069 54.2146 121.72 54.0311C121.885 53.9927 122.049 53.9541 122.215 53.9152C122.297 53.8951 122.38 53.8785 122.462 53.8554L122.704 53.7728C123.027 53.6627 123.352 53.5518 123.68 53.4406C124 53.3139 124.312 53.159 124.632 53.0183C124.789 52.9427 124.955 52.8824 125.107 52.7937L125.564 52.5304C126.193 52.2032 126.76 51.7676 127.349 51.3528C127.622 51.1174 127.896 50.8808 128.171 50.6431L128.378 50.4646L128.568 50.2678L128.948 49.8708L129.329 49.4719L129.673 49.0377L130.017 48.6006L130.19 48.3813L130.342 48.1467C130.543 47.8322 130.745 47.517 130.948 47.2001C131.12 46.8651 131.291 46.529 131.464 46.1912C132.103 44.8168 132.537 43.327 132.746 41.7827C132.914 40.234 132.849 38.6838 132.558 37.1968C132.472 36.8279 132.386 36.4601 132.3 36.094C132.179 35.7379 132.058 35.3831 131.938 35.0298C131.908 34.9419 131.88 34.8527 131.847 34.766L131.732 34.5116L131.503 34.0045L131.273 33.5008L130.998 33.0224L130.725 32.5459L130.588 32.3093L130.43 32.0863C130.22 31.7897 130.011 31.4942 129.803 31.2001C129.33 30.6566 128.884 30.0975 128.353 29.6291L127.972 29.2638C127.845 29.1415 127.699 29.0431 127.565 28.9319C127.288 28.7189 127.023 28.4935 126.741 28.2936C126.451 28.107 126.162 27.9213 125.875 27.737L125.66 27.5989C125.586 27.5569 125.509 27.5207 125.433 27.4813C125.283 27.404 125.132 27.327 124.982 27.2502C124.393 26.9161 123.757 26.709 123.149 26.461C122.838 26.3565 122.519 26.28 122.208 26.1888C122.052 26.1449 121.897 26.1013 121.742 26.0576C121.586 26.0176 121.426 25.9992 121.269 25.9689C120.954 25.9142 120.641 25.8594 120.331 25.8055C120.019 25.7627 119.706 25.7549 119.397 25.7282C118.779 25.6565 118.168 25.7057 117.568 25.7176C117.267 25.7121 116.974 25.7782 116.681 25.8083C116.39 25.8508 116.097 25.8741 115.814 25.9311C115.531 25.9967 115.252 26.0615 114.975 26.126C114.837 26.1583 114.699 26.1902 114.562 26.2222C114.428 26.2633 114.296 26.3109 114.163 26.3548C113.9 26.444 113.638 26.5327 113.379 26.6203C113.119 26.7023 112.881 26.8352 112.635 26.938C112.392 27.0498 112.148 27.1521 111.914 27.268C111.687 27.3979 111.463 27.526 111.241 27.6528C109.473 28.6814 108.11 29.9805 107.119 31.2618C106.134 32.5498 105.457 33.7957 105.071 34.8722C105.019 35.0053 104.967 35.1346 104.918 35.2603C104.865 35.3848 104.82 35.5077 104.79 35.6311C104.721 35.8749 104.655 36.1032 104.595 36.3153C104.537 36.5277 104.474 36.7217 104.433 36.903C104.399 37.0856 104.37 37.2516 104.343 37.4003C104.289 37.6941 104.247 37.9193 104.218 38.0753C104.19 38.2273 104.171 38.3049 104.171 38.3049Z" fill="#1A2E35"/>
<path d="M60.5113 43.0615C60.5152 43.0771 60.3459 43.1001 60.0793 43.2347C59.8163 43.3659 59.4563 43.64 59.2075 44.1093C59.0863 44.3422 58.9932 44.6225 58.9815 44.9305C58.9723 45.2366 59.0432 45.5682 59.2239 45.864C59.5667 46.4537 60.317 46.9288 61.114 46.8265C61.9097 46.7091 62.5035 46.0483 62.6736 45.3881C62.7676 45.0542 62.7459 44.7159 62.6544 44.4234C62.5596 44.1304 62.3942 43.8858 62.2144 43.6942C61.848 43.31 61.4271 43.1438 61.1382 43.0885C60.8455 43.0315 60.6762 43.0548 60.6756 43.0387C60.6751 43.0337 60.7165 43.0273 60.7966 43.0195C60.8366 43.014 60.8864 43.012 60.9453 43.0154C61.0042 43.0159 61.0723 43.0192 61.1482 43.0329C61.4488 43.0729 61.8936 43.2291 62.288 43.6231C62.4815 43.8193 62.6619 44.0743 62.7684 44.3859C62.8721 44.6967 62.8996 45.0634 62.8029 45.4214C62.7137 45.7798 62.516 46.1309 62.2288 46.4114C61.9458 46.6963 61.5605 46.9057 61.1341 46.9699C60.7059 47.0233 60.2784 46.926 59.9292 46.7283C59.5767 46.5362 59.2915 46.2518 59.1088 45.931C58.9187 45.6127 58.8458 45.2521 58.8614 44.9249C58.8795 44.5961 58.9843 44.3019 59.1174 44.0604C59.3904 43.5744 59.7763 43.3036 60.0549 43.1835C60.1241 43.1502 60.1889 43.1285 60.2456 43.1121C60.3012 43.0926 60.3495 43.081 60.3899 43.0757C60.4691 43.0615 60.5105 43.0565 60.5113 43.0615Z" fill="#1A2E35"/>
<path d="M65.789 47.5505C65.7921 47.5638 65.6864 47.5822 65.5216 47.6689C65.3589 47.7537 65.1368 47.9269 64.9848 48.2191C64.8316 48.5032 64.771 48.933 64.9998 49.3021C65.2119 49.6652 65.6764 49.9571 66.1649 49.8943C66.6522 49.8228 67.0206 49.4158 67.1265 49.0089C67.2466 48.5913 67.072 48.194 66.8476 47.9619C66.6219 47.7217 66.3614 47.6155 66.1818 47.5777C65.9997 47.5388 65.8933 47.5499 65.8924 47.5363C65.891 47.5302 65.9972 47.499 66.1916 47.5221C66.3831 47.5446 66.6675 47.6411 66.921 47.8907C67.0456 48.0153 67.1618 48.1776 67.231 48.3772C67.2986 48.5763 67.3172 48.8126 67.2555 49.0425C67.1434 49.4973 66.7445 49.9532 66.1846 50.0375C65.6228 50.1075 65.116 49.777 64.8847 49.3694C64.7632 49.1648 64.717 48.9324 64.7282 48.7225C64.7407 48.5118 64.8088 48.3239 64.8947 48.1704C65.0712 47.8613 65.3189 47.6914 65.4971 47.618C65.6784 47.5432 65.7887 47.5444 65.789 47.5505Z" fill="#1A2E35"/>
<path d="M45.2753 32.2901H44.3777L42.4183 29.5596V27.7673C42.4183 27.7673 41.0306 27.6823 41.1937 30.0289C41.3572 32.3755 41.1804 31.778 41.1804 31.778C41.1804 31.778 38.2339 31.7894 37.9892 32.0455C37.8108 32.2314 37.7304 35.1582 37.6996 36.7456C37.6843 37.5449 38.1744 38.288 38.9175 38.4767C39.0231 38.504 39.1299 38.5195 39.2347 38.5195C39.9694 38.5195 43.7244 37.9221 43.7244 37.9221H45.2753V32.2901Z" fill="#6A44C5"/>
<path d="M47.8459 31.799L47.2938 37.9395H45.7559V31.9224L47.8459 31.799Z" fill="#6A44C5"/>
<path d="M58.9186 33.1451C58.9186 33.1451 58.9095 33.0595 58.8986 32.8924C58.8883 32.7217 58.8733 32.4743 58.8539 32.151C58.8444 31.9878 58.8341 31.806 58.8227 31.6053C58.8021 31.4051 58.7599 31.1886 58.7254 30.9528C58.6882 30.7171 58.6484 30.4635 58.6059 30.1925C58.5895 30.056 58.557 29.9181 58.5172 29.7774C58.4802 29.6359 58.4421 29.4905 58.4032 29.3404C58.1299 28.1336 57.5667 26.7069 56.6774 25.1946C55.7808 23.6884 54.4865 22.1144 52.7223 20.778C52.501 20.6129 52.2767 20.4458 52.0498 20.2765C51.8138 20.1217 51.5647 19.9796 51.3187 19.8278C51.195 19.753 51.0707 19.6777 50.9456 19.6018C50.8213 19.5251 50.6962 19.4478 50.5603 19.3889C50.294 19.261 50.0249 19.1317 49.753 19.0013C49.6167 18.9368 49.4814 18.8684 49.3424 18.8064C49.1992 18.7542 49.0555 18.7019 48.9109 18.6491C48.6221 18.5437 48.3304 18.4375 48.036 18.33C47.7386 18.2315 47.4275 18.1682 47.1198 18.0845C46.9652 18.045 46.8098 18.005 46.6538 17.9652C46.5757 17.9463 46.4984 17.9227 46.4192 17.9074L46.1787 17.871C45.536 17.7798 44.8863 17.6469 44.213 17.643C43.8777 17.6313 43.5399 17.5985 43.1994 17.6038C42.8591 17.6213 42.5164 17.6388 42.1705 17.6566C41.9982 17.6686 41.8239 17.6675 41.6512 17.69C41.4791 17.7164 41.3062 17.7431 41.133 17.7695C40.7869 17.8268 40.435 17.8674 40.0872 17.9394C39.4011 18.1259 38.6902 18.2649 38.0144 18.5471C37.8432 18.6099 37.6714 18.6727 37.4987 18.7361C37.4131 18.7686 37.3255 18.7975 37.2405 18.8329L36.9914 18.9532C36.6586 19.1136 36.3239 19.2752 35.9872 19.4375C35.6592 19.6154 35.3445 19.8225 35.0195 20.0155C34.8602 20.1172 34.6907 20.204 34.5391 20.3188L34.0816 20.6613C33.4497 21.0949 32.897 21.637 32.3185 22.1594C32.0566 22.448 31.7931 22.7379 31.5287 23.0293L31.3299 23.2481C31.2685 23.3248 31.2112 23.4054 31.1514 23.4844L30.7956 23.9603L30.4381 24.4384L30.1253 24.9497L29.8129 25.4643L29.6561 25.7223C29.6091 25.8112 29.5677 25.9035 29.5232 25.9939C29.3481 26.3578 29.1721 26.7231 28.9955 27.0897C28.8554 27.472 28.715 27.8556 28.5738 28.2407C28.067 29.8002 27.794 31.4571 27.7718 33.1426C27.794 34.829 28.0662 36.4864 28.5727 38.0465C28.7139 38.4319 28.8543 38.8155 28.9942 39.1977C29.171 39.5647 29.3469 39.93 29.5221 40.2939L29.6547 40.5658L29.8115 40.824L30.1242 41.3389L30.437 41.8501L30.7945 42.3286L31.1503 42.8048L31.3288 43.0411L31.5276 43.2599C31.7922 43.5512 32.0555 43.8412 32.3176 44.13C32.8964 44.6524 33.4491 45.1948 34.081 45.6284L34.5386 45.9709C34.6901 46.086 34.86 46.1728 35.019 46.2745C35.344 46.4672 35.6589 46.6746 35.987 46.8525C36.3239 47.0151 36.6586 47.1763 36.9914 47.337L37.2405 47.4571C37.3255 47.4927 37.4128 47.5216 37.4987 47.5541C37.6711 47.6173 37.8432 47.6804 38.0144 47.7432C38.6902 48.0254 39.4011 48.1644 40.0875 48.3509C40.4355 48.4229 40.7872 48.4632 41.1333 48.5205C41.3068 48.5472 41.4797 48.5738 41.6518 48.6C41.8244 48.6228 41.9987 48.6217 42.1711 48.6336C42.5166 48.6514 42.8597 48.6689 43.2 48.6864C43.5405 48.6914 43.8783 48.6589 44.2135 48.6472C44.8871 48.6433 45.5368 48.5105 46.1796 48.419L46.42 48.3826C46.4993 48.367 46.5765 48.3437 46.6549 48.3248C46.8109 48.2847 46.966 48.245 47.1209 48.2055C47.4283 48.1218 47.7397 48.0584 48.0369 47.9597C48.3313 47.8524 48.6229 47.746 48.912 47.6406C49.0563 47.5881 49.2003 47.5355 49.3435 47.4833C49.4808 47.4179 49.6176 47.3529 49.7538 47.2884C50.0257 47.1577 50.2948 47.0284 50.5614 46.9006C50.6971 46.8419 50.8222 46.7643 50.9467 46.6876C51.0715 46.6117 51.1961 46.5367 51.3198 46.4616C51.5658 46.3098 51.8146 46.168 52.0509 46.0129C52.2775 45.8436 52.5018 45.6765 52.7234 45.5114C54.4873 44.1748 55.7814 42.601 56.6779 41.0948C56.7914 40.9066 56.9076 40.7245 57.0129 40.5408C57.1055 40.3501 57.1961 40.1627 57.2854 39.9789C57.3743 39.7952 57.4616 39.6147 57.5473 39.4382C57.5887 39.3493 57.6357 39.2639 57.6715 39.1747C57.7046 39.0843 57.7377 38.9951 57.7702 38.907C57.9006 38.5539 58.0254 38.2158 58.1444 37.8934C58.2545 37.5684 58.3198 37.2467 58.4032 36.949C58.4424 36.7994 58.4802 36.6538 58.5172 36.5123C58.5572 36.3716 58.5898 36.2337 58.6059 36.0972C58.6484 35.8262 58.6884 35.5726 58.7254 35.3369C58.7599 35.1014 58.8024 34.8846 58.8227 34.6847C58.8341 34.484 58.8447 34.3019 58.8539 34.1387C58.8733 33.8157 58.8883 33.5682 58.8986 33.3978C58.9095 33.2308 58.9186 33.1451 58.9186 33.1451C58.9186 33.1451 58.9192 33.2308 58.9133 33.3981C58.9064 33.5691 58.8961 33.8168 58.883 34.1406C58.8758 34.3044 58.8678 34.487 58.8589 34.6883C58.8405 34.8887 58.8005 35.1064 58.768 35.343C58.7329 35.5796 58.6951 35.8342 58.6548 36.1067C58.6395 36.2437 58.6081 36.3824 58.5692 36.5237C58.533 36.666 58.4961 36.8122 58.458 36.9626C58.3763 37.2623 58.3126 37.5853 58.2044 37.9125C58.0866 38.237 57.9631 38.577 57.8344 38.9325C57.8019 39.0212 57.7694 39.111 57.7366 39.2019C57.7013 39.2917 57.6546 39.3779 57.6134 39.4674C57.5281 39.6453 57.4413 39.8269 57.3527 40.012C57.264 40.1972 57.1736 40.3856 57.0816 40.5777C56.9765 40.7629 56.8606 40.9466 56.7474 41.1362C55.8531 42.6541 54.5568 44.2423 52.7854 45.5929C52.5627 45.7597 52.3375 45.9287 52.1099 46.0994C51.8724 46.2564 51.6222 46.3999 51.3751 46.5533C51.2506 46.6292 51.1257 46.7054 51.0001 46.7819C50.8747 46.8597 50.749 46.9378 50.6125 46.9976C50.3446 47.1269 50.0738 47.2578 49.8002 47.3901C49.6632 47.4552 49.527 47.5244 49.3871 47.5872C49.2431 47.6403 49.0983 47.6934 48.9529 47.7468C48.6621 47.8536 48.3685 47.9614 48.0719 48.0704C47.7728 48.1702 47.4595 48.235 47.1498 48.32C46.9938 48.3601 46.8373 48.4004 46.6805 48.441C46.6016 48.4604 46.5237 48.4841 46.4437 48.4996L46.2018 48.5369C45.5541 48.6306 44.8994 48.7654 44.2208 48.7707C43.883 48.7832 43.5425 48.8165 43.1994 48.8121C42.8561 48.7949 42.5105 48.7779 42.1622 48.7607C41.9882 48.7487 41.8125 48.7501 41.6382 48.7276C41.4647 48.7012 41.2904 48.6748 41.1155 48.6484C40.7666 48.5911 40.4116 48.5508 40.0605 48.4785C39.3683 48.292 38.651 48.1518 37.9691 47.8686C37.7962 47.8052 37.6227 47.7418 37.4487 47.6784C37.362 47.6459 37.2738 47.6167 37.1882 47.5811L36.9363 47.4599C36.6005 47.2984 36.2627 47.136 35.9227 46.9723C35.5914 46.7933 35.2736 46.5848 34.9456 46.3904C34.7849 46.2879 34.6136 46.2003 34.4607 46.0846L33.9987 45.7394C33.361 45.3023 32.8025 44.7561 32.2187 44.229C31.9537 43.9379 31.6877 43.6455 31.4205 43.3516L31.2198 43.1309L31.0397 42.8926L30.6802 42.4123L30.3194 41.9299L30.0033 41.4142L29.6875 40.8947L29.5293 40.6342L29.395 40.3601C29.2182 39.9925 29.0403 39.6239 28.8621 39.2539C28.7206 38.868 28.5785 38.4808 28.4359 38.0921C27.9241 36.5173 27.6492 34.8445 27.627 33.1426C27.6495 31.4415 27.925 29.7691 28.437 28.1951C28.5797 27.8067 28.7217 27.4194 28.8632 27.0339C29.0417 26.6638 29.2193 26.2952 29.3961 25.928C29.4412 25.8365 29.4832 25.7437 29.5304 25.6539L29.6886 25.3934L30.0044 24.8744L30.3205 24.3587L30.6813 23.8763L31.0408 23.3962C31.1011 23.3167 31.1589 23.2355 31.2209 23.158L31.4217 22.9372C31.6888 22.6437 31.9546 22.3512 32.2192 22.0602C32.8033 21.5333 33.3615 20.9874 33.9993 20.5503L34.4613 20.2051C34.6142 20.0897 34.7855 20.0021 34.9461 19.8995C35.2742 19.7052 35.5919 19.4967 35.9233 19.3177C36.263 19.1542 36.6008 18.9916 36.9366 18.8301L37.1882 18.7091C37.2738 18.6736 37.362 18.6444 37.4487 18.6118C37.6227 18.5482 37.7962 18.4848 37.9691 18.4217C38.651 18.1381 39.368 17.9983 40.0602 17.8115C40.4111 17.7395 40.7661 17.6992 41.115 17.6419C41.2898 17.6155 41.4641 17.5891 41.6379 17.5627C41.8119 17.5402 41.9876 17.5413 42.1616 17.5296C42.5097 17.5124 42.8555 17.4951 43.1986 17.4782C43.5416 17.4734 43.8822 17.5071 44.2199 17.5193C44.8985 17.5249 45.5532 17.6594 46.2007 17.7531L46.4428 17.7904C46.5226 17.8059 46.6007 17.8296 46.6794 17.8487C46.8368 17.8893 46.993 17.9299 47.1487 17.9699C47.4586 18.055 47.7717 18.1198 48.0711 18.2196C48.3674 18.3283 48.6613 18.4361 48.9521 18.5429C49.0974 18.5966 49.242 18.6497 49.386 18.7025C49.5258 18.765 49.6621 18.8345 49.7991 18.8996C50.0727 19.0319 50.3434 19.1626 50.6114 19.2921C50.7479 19.3519 50.8739 19.43 50.999 19.5076C51.1246 19.5843 51.2497 19.6605 51.374 19.7361C51.6214 19.8895 51.8716 20.0333 52.1087 20.1901C52.3367 20.3607 52.5619 20.5298 52.7846 20.6966C54.556 22.0471 55.8523 23.6353 56.7469 25.1529C57.6343 26.6775 58.1917 28.1133 58.4577 29.3268C58.4958 29.4775 58.533 29.6237 58.5689 29.766C58.6078 29.9075 58.6395 30.046 58.6548 30.183C58.6951 30.4555 58.7329 30.7101 58.768 30.9467C58.8005 31.1836 58.8405 31.401 58.8589 31.6017C58.8678 31.8029 58.8758 31.9856 58.883 32.1493C58.8961 32.4732 58.9064 32.7212 58.9133 32.8921C58.9192 33.0595 58.9186 33.1451 58.9186 33.1451Z" fill="#1A2E35"/>
</g>
<mask id="mask7_73_7635" style="mask-type:luminance" maskUnits="userSpaceOnUse" x="8" y="8" width="139" height="140">
<path d="M8 8.01173H147V147.012H8V8.01173Z" fill="white"/>
</mask>
<g mask="url(#mask7_73_7635)">
<path d="M83.878 38.5664C83.8741 38.5664 83.8708 38.5664 83.8671 38.5664C83.637 38.5606 83.4552 38.369 83.4607 38.1388L83.5552 34.4273C83.5588 34.2966 83.6231 34.1751 83.7293 34.0989C83.8357 34.0228 83.9714 34.0005 84.0957 34.0395C84.767 34.248 85.5274 34.1529 86.1807 33.7787C86.7878 33.4315 87.2182 32.8816 87.3613 32.2703C87.5039 31.662 87.3644 30.9745 86.9782 30.3838C86.5637 29.7491 85.9369 29.3129 85.2583 29.187C83.8924 28.9332 82.396 29.8442 81.9203 31.2161C81.845 31.4335 81.6065 31.5486 81.3899 31.4732C81.1722 31.3976 81.0571 31.1602 81.1325 30.9425C81.7377 29.1973 83.657 28.0422 85.4103 28.3669C86.3119 28.5342 87.1381 29.103 87.6766 29.9276C88.1864 30.7082 88.3674 31.6314 88.1731 32.4607C87.9774 33.2964 87.4022 34.0406 86.5949 34.5026C85.9066 34.8968 85.1206 35.0514 84.3762 34.9521L84.2944 38.16C84.2889 38.3868 84.1034 38.5664 83.878 38.5664Z" fill="#6A44C5"/>
<path d="M84.5226 40.4018C84.5226 40.7384 84.2496 41.0117 83.9129 41.0117C83.576 41.0117 83.3027 40.7384 83.3027 40.4018C83.3027 40.0649 83.576 39.7919 83.9129 39.7919C84.2496 39.7919 84.5226 40.0649 84.5226 40.4018Z" fill="#6A44C5"/>
<path d="M38.2479 81.3555C37.6221 81.3555 37.0041 81.1745 36.5087 80.8028C35.9247 80.365 35.5368 79.6683 35.4443 78.8916C35.3564 78.1551 35.5544 77.4323 35.9872 76.9083C36.4237 76.3798 37.0978 76.0512 37.8367 76.007C38.4264 75.9703 39.0046 76.1163 39.4839 76.4118L40.5831 74.3282C40.6904 74.1247 40.9428 74.0466 41.1466 74.1542C41.3504 74.2615 41.4282 74.5139 41.3209 74.7177L39.9918 77.2363C39.9309 77.352 39.8192 77.4323 39.6902 77.4535C39.5623 77.4751 39.43 77.4343 39.3354 77.3439C38.9643 76.9903 38.4372 76.8063 37.8865 76.8396C37.3778 76.8699 36.9199 77.0887 36.6302 77.4396C36.3419 77.7885 36.2115 78.2816 36.2724 78.7929C36.338 79.3444 36.6066 79.8334 37.0091 80.1353C37.81 80.7361 39.1194 80.6215 39.8681 79.8862C40.0321 79.7244 40.2959 79.7269 40.4577 79.891C40.6192 80.0553 40.6167 80.3194 40.4527 80.4809C39.8661 81.0575 39.0508 81.3555 38.2479 81.3555Z" fill="#6A44C5"/>
<path d="M41.2734 72.756C41.3882 72.5244 41.6687 72.4299 41.9003 72.5444C42.1319 72.6592 42.2264 72.94 42.1118 73.1716C41.997 73.4029 41.7165 73.4977 41.4849 73.3829C41.2534 73.268 41.1586 72.9875 41.2734 72.756Z" fill="#6A44C5"/>
<path d="M122.408 74.3398C122.278 74.3398 122.151 74.2801 122.069 74.1672L120.4 71.8592C120.324 71.7533 120.301 71.6177 120.34 71.4928C120.378 71.368 120.472 71.2682 120.595 71.2232C121.076 71.0472 121.475 70.6552 121.689 70.1482C121.888 69.6783 121.895 69.171 121.709 68.7559C121.524 68.3428 121.139 68.007 120.654 67.8349C120.131 67.6498 119.574 67.6734 119.124 67.9003C118.231 68.352 117.753 69.5763 118.08 70.5738C118.152 70.7926 118.033 71.028 117.814 71.1C117.596 71.172 117.36 71.0528 117.288 70.834C116.831 69.444 117.486 67.7941 118.748 67.156C119.4 66.8266 120.196 66.7877 120.933 67.049C121.632 67.2967 122.192 67.7946 122.47 68.4151C122.75 69.0406 122.746 69.7904 122.458 70.4726C122.228 71.0177 121.842 71.4709 121.365 71.7695L122.745 73.6785C122.88 73.865 122.838 74.1258 122.652 74.2606C122.578 74.3143 122.492 74.3398 122.408 74.3398Z" fill="#6A44C5"/>
<path d="M123.848 74.9946C124.004 75.2 123.965 75.4936 123.76 75.6501C123.554 75.8069 123.261 75.7674 123.104 75.562C122.947 75.3566 122.987 75.063 123.192 74.9062C123.398 74.7497 123.691 74.7892 123.848 74.9946Z" fill="#6A44C5"/>
</g>
</svg>
