<svg width="155" height="155" viewBox="0 0 155 155" fill="none" xmlns="http://www.w3.org/2000/svg">
<circle cx="77.4194" cy="77.4194" r="77.4194" fill="#DCCEFF"/>
<path d="M109.39 103.061L51.6976 45.7984C67.7091 33.2005 91.0348 34.2152 105.856 48.9271C120.678 63.638 121.867 86.9557 109.39 103.061ZM48.1433 107.073C33.3214 92.3626 32.1315 69.0446 44.6097 52.9392L102.302 110.202C86.2908 122.8 62.9646 121.784 48.1433 107.073ZM112.945 41.7862C92.9761 21.9662 60.6056 22.0875 40.7858 42.0554C20.9665 62.0243 21.0873 94.3943 41.0558 114.214C61.0242 134.034 93.3945 133.913 113.214 113.945C133.034 93.976 132.912 61.6058 112.945 41.7862Z" fill="#6A44C5"/>
<path d="M124.906 88.785L51.4886 120.219C50.6667 120.571 49.7152 120.189 49.3633 119.368L32.6748 80.39C32.3229 79.5681 32.7039 78.6165 33.5258 78.2646L106.943 46.8307C107.765 46.4789 108.716 46.8599 109.068 47.6818L125.757 86.6597C126.109 87.4816 125.728 88.4331 124.906 88.785Z" fill="#F3F2E7"/>
<path d="M60.6594 40.1838L32.8468 77.8087C32.2838 78.5702 33.0597 79.6537 33.9365 79.2961L33.9627 79.2851L107.38 47.8513L107.406 47.8398C108.27 47.4522 108.021 46.143 107.082 46.0248L60.6594 40.1838Z" fill="white"/>
<path d="M48.4461 105.576C48.4045 105.576 48.3642 105.56 48.3342 105.531C48.3191 105.516 48.3066 105.498 48.2979 105.478L44.6345 96.9218L48.0964 105.008C48.0967 105.008 48.0971 105.009 48.0974 105.01C48.0976 105.01 48.0979 105.011 48.0981 105.011C48.1249 105.07 48.183 105.105 48.2439 105.105C48.2442 105.105 48.2444 105.105 48.2447 105.105C48.2449 105.105 48.2451 105.105 48.2454 105.105C48.2648 105.105 48.2846 105.102 48.3036 105.094C48.3051 105.094 48.3065 105.093 48.308 105.092L100.012 82.9552C100.016 82.9556 100.021 82.9558 100.025 82.9558C100.031 82.9558 100.037 82.9554 100.043 82.9546C100.064 82.9519 100.084 82.9452 100.102 82.9345C100.111 82.929 100.12 82.9227 100.129 82.9153L100.148 82.8978C100.208 82.8873 100.255 82.8448 100.274 82.7906L100.431 83.1572C100.439 83.1777 100.443 83.1989 100.444 83.2198C100.444 83.2722 100.418 83.3225 100.374 83.3531C100.366 83.3592 100.356 83.3644 100.346 83.3688L48.5095 105.563C48.4888 105.572 48.4673 105.576 48.4461 105.576Z" fill="#F3F3F3"/>
<path d="M100.144 82.8987L48.3076 105.093C48.2257 105.128 48.131 105.09 48.0959 105.008L39.2946 84.4512C39.2595 84.3693 39.2974 84.2747 39.3793 84.2396L91.2157 62.0457C91.2974 62.0107 91.3922 62.0486 91.4272 62.1304L100.229 82.6872C100.264 82.7689 100.226 82.8637 100.144 82.8987Z" fill="#AE8FF7"/>
<path d="M72.2571 88.1214C73.4015 87.4599 73.688 86.4622 73.1169 85.1281C72.8809 84.5771 72.5775 84.2129 72.2063 84.0355C71.8328 83.8523 71.2512 83.8164 70.4617 83.9281L72.2571 88.1214ZM68.9709 82.7544L67.3506 78.97C66.3305 79.6331 66.054 80.5099 66.5209 81.6003C66.7691 82.1804 67.1013 82.5392 67.5171 82.6769C67.9246 82.8112 68.4092 82.8371 68.9709 82.7544ZM69.8806 82.5708C71.3023 82.2847 72.3474 82.2971 73.0158 82.608C73.6984 82.9197 74.2259 83.5106 74.5983 84.3806C74.9907 85.297 75.0364 86.2211 74.7353 87.153C74.4409 88.0684 73.7825 88.7827 72.7599 89.2959L73.2777 90.5051L72.4425 90.8628L71.9322 89.6709C69.6986 90.3527 68.0671 89.6923 67.038 87.6896L68.5605 87.0377C69.227 88.2897 70.1808 88.7702 71.4219 88.479L69.5483 84.1029C67.2475 84.5801 65.747 84.0009 65.0468 82.3653C64.6544 81.449 64.6207 80.5849 64.9457 79.7731C65.2823 78.9564 65.9164 78.2972 66.8477 77.7955L66.3337 76.5949L67.1689 76.2373L67.6829 77.4379C69.6043 76.7799 71.0311 77.2912 71.9634 78.9716L70.4322 79.6272C69.942 78.6909 69.1958 78.3584 68.1932 78.6298L69.8806 82.5708Z" fill="#C4ADFB"/>
<path d="M49.0999 88.9341L52.936 83.8104L59.2913 84.5707L61.8105 90.4547L57.9745 95.5784L51.6192 94.8181L49.0999 88.9341Z" fill="#C4ADFB"/>
<path d="M77.7139 76.6829L81.5499 71.5592L87.9052 72.3194L90.4245 78.2034L86.5884 83.3271L80.2331 82.5669L77.7139 76.6829Z" fill="#C4ADFB"/>
<path d="M95.0493 78.9205L94.9941 78.9441L94.5552 82.6135L51.9584 100.851L49.1315 98.735L44.5487 88.0312L44.968 84.5248L87.5649 66.2868V66.2869L90.5232 68.5017L90.5784 68.478L95.0493 78.9205ZM91.2157 62.0457L39.3793 84.2396C39.2974 84.2747 39.2595 84.3693 39.2946 84.4512L48.0959 105.008C48.131 105.09 48.2257 105.128 48.3076 105.093L100.144 82.8987C100.226 82.8637 100.264 82.7689 100.229 82.6872L91.4272 62.1304C91.3922 62.0486 91.2974 62.0106 91.2157 62.0457Z" fill="#C4ADFB"/>
<path d="M42.7638 87.0749C43.044 86.9129 43.1142 86.6686 42.9743 86.342C42.9165 86.2071 42.8423 86.1178 42.7514 86.0744C42.6599 86.0296 42.5175 86.0208 42.3242 86.0481L42.7638 87.0749ZM41.9592 85.7607L41.5624 84.8341C41.3126 84.9965 41.2449 85.2111 41.3591 85.4782C41.42 85.6202 41.5013 85.708 41.6031 85.7417C41.703 85.7747 41.8216 85.781 41.9592 85.7607ZM42.1819 85.7157C42.53 85.6457 42.7859 85.6487 42.9496 85.7249C43.1167 85.8012 43.2459 85.9459 43.3371 86.1589C43.4331 86.3833 43.4444 86.6096 43.3706 86.8378C43.2986 87.0619 43.1373 87.2368 42.887 87.3625L43.0138 87.6587L42.8093 87.7462L42.6842 87.4543C42.1373 87.6213 41.7378 87.4596 41.4859 86.9692L41.8587 86.8096C42.0219 87.1161 42.2554 87.2338 42.5593 87.1625L42.1005 86.0909C41.5371 86.2078 41.1697 86.066 40.9982 85.6654C40.9022 85.4411 40.8939 85.2295 40.9735 85.0307C41.0559 84.8307 41.2112 84.6693 41.4392 84.5464L41.3134 84.2525L41.5179 84.1649L41.6437 84.4589C42.1143 84.2977 42.4636 84.423 42.6919 84.8345L42.3169 84.995C42.1969 84.7657 42.0142 84.6843 41.7688 84.7507L42.1819 85.7157Z" fill="#AE8FF7"/>
<path d="M91.1586 66.3548C91.4388 66.1929 91.509 65.9485 91.3692 65.6219C91.3114 65.487 91.2371 65.3978 91.1461 65.3543C91.0547 65.3095 90.9123 65.3007 90.719 65.328L91.1586 66.3548ZM90.3539 65.0407L89.9571 64.114C89.7074 64.2764 89.6397 64.491 89.754 64.7581C89.8147 64.9001 89.8961 64.9879 89.998 65.0216C90.0978 65.0546 90.2164 65.0609 90.3539 65.0407ZM90.5767 64.9957C90.9248 64.9256 91.1808 64.9287 91.3444 65.0048C91.5116 65.0811 91.6407 65.2259 91.732 65.4388C91.828 65.6633 91.8392 65.8895 91.7655 66.1178C91.6933 66.3419 91.5321 66.5167 91.2817 66.6424L91.4085 66.9386L91.204 67.0261L91.0791 66.7342C90.5321 66.9012 90.1327 66.7395 89.8806 66.2491L90.2534 66.0896C90.4166 66.3961 90.6502 66.5137 90.9541 66.4424L90.4953 65.3708C89.932 65.4877 89.5645 65.3459 89.393 64.9454C89.297 64.721 89.2887 64.5094 89.3684 64.3107C89.4508 64.1107 89.606 63.9492 89.8341 63.8264L89.7082 63.5324L89.9127 63.4448L90.0386 63.7389C90.509 63.5777 90.8584 63.7029 91.0867 64.1144L90.7118 64.2749C90.5918 64.0456 90.409 63.9642 90.1635 64.0306L90.5767 64.9957Z" fill="#AE8FF7"/>
<path d="M49.5877 103.013C49.868 102.851 49.9382 102.607 49.7982 102.28C49.7406 102.145 49.6662 102.056 49.5753 102.013C49.4839 101.968 49.3415 101.959 49.1481 101.986L49.5877 103.013ZM48.7831 101.699L48.3863 100.772C48.1365 100.935 48.0689 101.149 48.1832 101.416C48.244 101.558 48.3253 101.646 48.4271 101.68C48.5269 101.713 48.6455 101.719 48.7831 101.699ZM49.0058 101.654C49.354 101.584 49.6099 101.587 49.7736 101.663C49.9406 101.739 50.0698 101.884 50.161 102.097C50.2572 102.321 50.2683 102.548 50.1946 102.776C50.1225 103 49.9612 103.175 49.7109 103.301L49.8377 103.597L49.6332 103.684L49.5082 103.392C48.9613 103.559 48.5618 103.398 48.3098 102.907L48.6826 102.748C48.8458 103.054 49.0794 103.172 49.3833 103.101L48.9245 102.029C48.3612 102.146 47.9936 102.004 47.8222 101.604C47.7261 101.379 47.7179 101.168 47.7975 100.969C47.88 100.769 48.0352 100.607 48.2632 100.485L48.1373 100.191L48.3418 100.103L48.4677 100.397C48.9382 100.236 49.2876 100.361 49.5158 100.773L49.1409 100.933C49.0209 100.704 48.8381 100.622 48.5927 100.689L49.0058 101.654Z" fill="#AE8FF7"/>
<path d="M97.9823 82.2922C98.2625 82.1302 98.3327 81.8858 98.1928 81.5592C98.1351 81.4242 98.0607 81.3351 97.9699 81.2916C97.8784 81.2467 97.736 81.238 97.5427 81.2654L97.9823 82.2922ZM97.1777 80.9779L96.7809 80.0512C96.5311 80.2136 96.4634 80.4283 96.5777 80.6953C96.6385 80.8374 96.7198 80.9253 96.8216 80.9589C96.9214 80.9918 97.0401 80.9981 97.1777 80.9779ZM97.4004 80.933C97.7485 80.863 98.0044 80.8659 98.1681 80.9421C98.3352 81.0185 98.4644 81.1631 98.5556 81.3761C98.6517 81.6005 98.6628 81.8268 98.5891 82.055C98.5171 82.2791 98.3558 82.4541 98.1055 82.5797L98.2322 82.8758L98.0277 82.9634L97.9027 82.6715C97.3558 82.8385 96.9563 82.6768 96.7044 82.1864L97.0772 82.0268C97.2403 82.3334 97.4739 82.451 97.7778 82.3797L97.319 81.3082C96.7556 81.425 96.3882 81.2831 96.2168 80.8827C96.1207 80.6582 96.1124 80.4467 96.192 80.2479C96.2744 80.048 96.4296 79.8865 96.6577 79.7637L96.5319 79.4696L96.7363 79.3821L96.8622 79.6761C97.3327 79.515 97.6822 79.6402 97.9103 80.0516L97.5354 80.2121C97.4154 79.9829 97.2327 79.9015 96.9872 79.968L97.4004 80.933Z" fill="#AE8FF7"/>
<path d="M47.4675 82.1262C47.3951 81.9571 47.4743 81.7594 47.6434 81.6869L83.6662 66.2637C83.8354 66.1912 84.0331 66.2704 84.1055 66.4396C84.178 66.6087 84.0988 66.8064 83.9297 66.8789L47.9069 82.3021C47.7377 82.3746 47.54 82.2954 47.4675 82.1262Z" fill="#AE8FF7"/>
<path d="M55.4185 100.698C55.346 100.529 55.4252 100.331 55.5944 100.259L91.6172 84.8356C91.7863 84.7632 91.984 84.8423 92.0565 85.0115C92.1289 85.1807 92.0498 85.3784 91.8806 85.4508L55.8578 100.874C55.6886 100.947 55.4909 100.867 55.4185 100.698Z" fill="#AE8FF7"/>
<path d="M47.0132 98.5965C46.7577 98.7059 46.4593 98.5864 46.3499 98.331L42.9212 90.3227C42.8118 90.0673 42.9312 89.7688 43.1867 89.6595C43.4421 89.5501 43.7406 89.6696 43.85 89.925L47.2787 97.9333C47.3881 98.1887 47.2686 98.4872 47.0132 98.5965Z" fill="#AE8FF7"/>
<path d="M96.3364 77.479C96.081 77.5883 95.7825 77.4688 95.6732 77.2134L92.2444 69.2053C92.1351 68.9498 92.2546 68.6514 92.5101 68.542C92.7655 68.4327 93.0639 68.5521 93.1733 68.8076L96.6021 76.8157C96.7114 77.0712 96.5919 77.3696 96.3364 77.479Z" fill="#AE8FF7"/>
<path d="M46.4889 92.5626L45.7915 90.9338L49.7074 90.3549L50.3545 91.8664L46.4889 92.5626ZM61.5507 89.8497L61.0492 88.6782L67.0876 87.7855C67.2818 88.1486 67.4967 88.4654 67.7322 88.7364L61.5507 89.8497ZM69.8216 88.3601C69.4608 88.1894 69.1405 87.9105 68.8603 87.5234L70.8839 87.2242L71.2593 88.1011L69.8216 88.3601ZM72.177 87.9358L71.8134 87.0869L73.334 86.8621C73.2294 87.2388 73.0034 87.568 72.6558 87.8496L72.177 87.9358ZM74.6019 87.4991C74.6523 87.3871 74.6966 87.272 74.7347 87.1533C74.7906 86.9804 74.8345 86.8078 74.8665 86.6355L90.5903 84.311L89.347 84.8433L74.6019 87.4991Z" fill="#8F6AE7"/>
<path d="M67.7328 88.7366C67.4973 88.4656 67.2824 88.1488 67.0881 87.7857L68.8609 87.5236C69.141 87.9107 69.4614 88.1896 69.8222 88.3603L67.7328 88.7366ZM71.2599 88.1012L70.8845 87.2244L71.814 87.0871L72.1775 87.936L71.2599 88.1012ZM72.6564 87.8498C73.004 87.5682 73.23 87.239 73.3346 86.8623L74.867 86.6357C74.8351 86.808 74.7912 86.9806 74.7353 87.1535C74.6971 87.2722 74.6529 87.3873 74.6025 87.4993L72.6564 87.8498Z" fill="#BCA2F9"/>
<path d="M50.3547 91.8665L49.7075 90.355L61.0493 88.6783L61.5508 89.8498L50.3547 91.8665Z" fill="#BCA2F9"/>
<path d="M45.0874 92.8153L44.3718 91.144L45.7916 90.9342L46.4889 92.563L45.0874 92.8153ZM89.3471 84.8436L90.5904 84.3113L99.9329 82.9302C99.9359 82.932 99.9388 82.9337 99.9419 82.9354L89.3471 84.8436Z" fill="#BCA2F9"/>
<path d="M42.6733 82.8296L41.457 76.0767L41.9419 75.8691L42.9532 82.7098L42.6733 82.8296Z" fill="#F3F3F3"/>
<path d="M41.4571 76.0763L40.4989 70.7562C40.4885 70.6984 40.5106 70.6427 40.5519 70.6067C40.5731 70.588 40.5991 70.5743 40.6289 70.569L41.1447 70.4761L41.9419 75.8687L41.4571 76.0763Z" fill="#F3F3F3"/>
<path d="M44.1083 90.5288L44.0237 90.3311L43.3854 86.7872C43.4418 86.5763 43.4256 86.3672 43.3367 86.1596C43.3081 86.093 43.2759 86.033 43.24 85.9797L42.6726 82.8297L42.9525 82.7099L44.1083 90.5288Z" fill="#BCA2F9"/>
<path d="M43.3859 86.7871L43.2405 85.9796C43.2764 86.033 43.3086 86.0929 43.3372 86.1596C43.4261 86.3671 43.4423 86.5763 43.3859 86.7871Z" fill="#8F6AE7"/>
<path d="M44.6211 92.8967C44.5553 92.8967 44.496 92.8563 44.4716 92.7955C44.4677 92.7855 44.4646 92.7751 44.4626 92.7641L44.0244 90.331L44.109 90.5287L44.1801 91.0094C44.1802 91.01 44.1803 91.0107 44.1804 91.0113C44.1929 91.0901 44.2609 91.1466 44.3384 91.147C44.3388 91.147 44.3391 91.147 44.3394 91.147C44.3395 91.147 44.3395 91.147 44.3396 91.147C44.3474 91.147 44.3552 91.1465 44.3631 91.1453L44.3724 91.1439L45.088 92.8152L44.6498 92.8942C44.6401 92.8959 44.6306 92.8967 44.6211 92.8967Z" fill="#8F6AE7"/>
<path d="M100.144 82.8985L44.3628 91.145C44.2747 91.158 44.1928 91.0971 44.1798 91.0091L40.9095 68.8878C40.8965 68.7997 40.9573 68.7178 41.0453 68.7048L96.8268 60.4584C96.9149 60.4454 96.9968 60.5061 97.0098 60.5943L100.28 82.7155C100.293 82.8035 100.232 82.8855 100.144 82.8985Z" fill="#AE8FF7"/>
<path d="M71.8468 80.8403C73.1219 80.4924 73.6534 79.6006 73.4412 78.165C73.3535 77.5721 73.1529 77.1426 72.8393 76.8764C72.5248 76.6041 71.9716 76.4212 71.1797 76.3278L71.8468 80.8403ZM70.0373 74.8129L69.4353 70.7404C68.2798 71.1217 67.7889 71.8991 67.9624 73.0724C68.0546 73.6966 68.2843 74.1282 68.6513 74.3673C69.0111 74.6011 69.4731 74.7497 70.0373 74.8129ZM70.9638 74.8673C72.4115 74.953 73.4188 75.2314 73.9859 75.7024C74.5664 76.1778 74.9259 76.8837 75.0643 77.8199C75.2101 78.806 75.0186 79.7113 74.49 80.5357C73.9719 81.3457 73.1532 81.8685 72.0336 82.1042L72.2261 83.4055L71.3273 83.5383L71.1377 82.2558C68.8039 82.3457 67.3948 81.2912 66.9103 79.0923L68.5486 78.8501C68.8739 80.2307 69.6737 80.9384 70.948 80.9732L70.2519 76.264C67.9054 76.139 66.6022 75.1964 66.342 73.4363C66.1962 72.4502 66.3839 71.6061 66.9052 70.904C67.4389 70.2001 68.22 69.7243 69.2485 69.4766L69.0574 68.1845L69.9562 68.0517L70.1472 69.3437C72.1728 69.1972 73.4222 70.0553 73.8952 71.9179L72.2475 72.1615C72.0123 71.1311 71.3754 70.6194 70.3368 70.6262L70.9638 74.8673Z" fill="#C4ADFB"/>
<path d="M49.2476 75.7228L54.263 71.7462L60.2145 74.1014L61.1506 80.4333L56.1352 84.4098L50.1836 82.0546L49.2476 75.7228Z" fill="#C4ADFB"/>
<path d="M80.0396 71.1707L85.055 67.1942L91.0065 69.5494L91.9426 75.8812L86.927 79.8578L80.9755 77.5025L80.0396 71.1707Z" fill="#C4ADFB"/>
<path d="M96.2321 77.753L96.1728 77.7617L94.8129 81.198L48.9741 87.9746L46.7801 85.2075L45.0773 73.6889L46.3767 70.4053L92.2155 63.6287V63.6288L94.5114 66.5246L94.5709 66.5158L96.2321 77.753ZM96.8268 60.4584L41.0453 68.7048C40.9573 68.7178 40.8965 68.7997 40.9095 68.8878L44.1798 91.0091C44.1928 91.0971 44.2747 91.158 44.3628 91.145L100.144 82.8985C100.232 82.8855 100.293 82.8035 100.28 82.7155L97.0098 60.5943C96.9968 60.5061 96.9149 60.4454 96.8268 60.4584Z" fill="#C4ADFB"/>
<path d="M43.595 72.3099C43.9072 72.2247 44.0374 72.0064 43.9854 71.6549C43.9639 71.5096 43.9148 71.4045 43.838 71.3393C43.761 71.2726 43.6256 71.2278 43.4316 71.2049L43.595 72.3099ZM43.152 70.834L43.0045 69.8368C42.7216 69.9301 42.6013 70.1205 42.6438 70.4078C42.6664 70.5606 42.7226 70.6663 42.8126 70.7249C42.9006 70.7822 43.0137 70.8185 43.152 70.834ZM43.3788 70.8474C43.7333 70.8684 43.98 70.9365 44.1188 71.0519C44.2609 71.1682 44.349 71.3411 44.3829 71.5704C44.4186 71.8118 44.3716 72.0334 44.2422 72.2353C44.1154 72.4337 43.9149 72.5617 43.6408 72.6194L43.6879 72.938L43.4678 72.9706L43.4214 72.6565C42.8499 72.6785 42.5048 72.4204 42.3862 71.8819L42.7874 71.8226C42.867 72.1606 43.0629 72.3339 43.3749 72.3425L43.2044 71.1893C42.6298 71.1587 42.3108 70.9279 42.2471 70.4969C42.2114 70.2554 42.2573 70.0488 42.385 69.8769C42.5157 69.7045 42.7069 69.588 42.9587 69.5273L42.912 69.211L43.1321 69.1785L43.1788 69.4948C43.6748 69.459 43.9808 69.6691 44.0966 70.1251L43.6931 70.1848C43.6355 69.9325 43.4795 69.8072 43.2252 69.8088L43.3788 70.8474Z" fill="#AE8FF7"/>
<path d="M95.6726 64.6108C95.9849 64.5256 96.115 64.3073 96.063 63.9558C96.0416 63.8106 95.9925 63.7054 95.9157 63.6402C95.8387 63.5736 95.7032 63.5288 95.5092 63.5059L95.6726 64.6108ZM95.2296 63.135L95.0822 62.1378C94.7992 62.2311 94.679 62.4214 94.7215 62.7088C94.7441 62.8616 94.8004 62.9673 94.8902 63.0258C94.9782 63.0831 95.0914 63.1195 95.2296 63.135ZM95.4565 63.1483C95.8109 63.1693 96.0576 63.2374 96.1964 63.3528C96.3386 63.4692 96.4266 63.642 96.4605 63.8713C96.4962 64.1128 96.4494 64.3344 96.3199 64.5363C96.1931 64.7346 95.9925 64.8627 95.7184 64.9203L95.7655 65.2389L95.5454 65.2715L95.499 64.9574C94.9276 64.9795 94.5825 64.7213 94.4639 64.1829L94.865 64.1235C94.9447 64.4616 95.1406 64.6349 95.4525 64.6434L95.2822 63.4902C94.7076 63.4597 94.3885 63.2288 94.3247 62.7978C94.289 62.5564 94.335 62.3498 94.4626 62.1778C94.5933 62.0054 94.7846 61.889 95.0364 61.8283L94.9896 61.5119L95.2097 61.4794L95.2565 61.7957C95.7525 61.7599 96.0584 61.97 96.1743 62.4261L95.7708 62.4857C95.7132 62.2334 95.5572 62.1081 95.3029 62.1097L95.4565 63.1483Z" fill="#AE8FF7"/>
<path d="M46.1304 89.4605C46.4427 89.3754 46.5728 89.157 46.5208 88.8055C46.4994 88.6604 46.4503 88.5551 46.3735 88.49C46.2965 88.4233 46.161 88.3784 45.9671 88.3557L46.1304 89.4605ZM45.6874 87.9847L45.5399 86.9875C45.257 87.0809 45.1367 87.2712 45.1792 87.5585C45.2018 87.7114 45.2581 87.817 45.348 87.8755C45.436 87.9328 45.5492 87.9692 45.6874 87.9847ZM45.9142 87.998C46.2686 88.019 46.5154 88.0872 46.6542 88.2025C46.7964 88.3189 46.8843 88.4917 46.9183 88.721C46.954 88.9625 46.9071 89.1842 46.7777 89.386C46.6508 89.5843 46.4503 89.7123 46.1762 89.7701L46.2233 90.0887L46.0032 90.1212L45.9568 89.8072C45.3853 89.8291 45.0403 89.571 44.9217 89.0326L45.3228 88.9732C45.4025 89.3113 45.5983 89.4846 45.9103 89.4931L45.7399 88.34C45.1653 88.3094 44.8462 88.0786 44.7824 87.6476C44.7467 87.4061 44.7928 87.1994 44.9204 87.0275C45.051 86.8552 45.2423 86.7386 45.4942 86.678L45.4474 86.3616L45.6674 86.3291L45.7143 86.6454C46.2103 86.6096 46.5162 86.8198 46.632 87.2758L46.2285 87.3355C46.1709 87.0831 46.015 86.9578 45.7606 86.9595L45.9142 87.998Z" fill="#AE8FF7"/>
<path d="M98.2078 81.7616C98.52 81.6763 98.6502 81.4579 98.5982 81.1064C98.5767 80.9613 98.5276 80.856 98.4508 80.7909C98.3738 80.7242 98.2383 80.6794 98.0444 80.6566L98.2078 81.7616ZM97.7647 80.2856L97.6173 79.2884C97.3344 79.3818 97.2141 79.5721 97.2566 79.8594C97.2792 80.0123 97.3354 80.118 97.4253 80.1764C97.5134 80.2337 97.6265 80.2701 97.7647 80.2856ZM97.9916 80.2989C98.3461 80.3199 98.5927 80.3881 98.7316 80.5034C98.8737 80.6199 98.9618 80.7926 98.9957 81.0219C99.0313 81.2634 98.9844 81.4851 98.855 81.6869C98.7282 81.8852 98.5277 82.0133 98.2536 82.071L98.3006 82.3897L98.0805 82.4221L98.0341 82.1081C97.4626 82.1301 97.1176 81.8719 96.999 81.3335L97.4001 81.2741C97.4798 81.6123 97.6756 81.7855 97.9877 81.794L97.8172 80.641C97.2426 80.6103 96.9235 80.3795 96.8598 79.9486C96.8242 79.7071 96.8701 79.5004 96.9977 79.3284C97.1285 79.1561 97.3197 79.0396 97.5715 78.979L97.5248 78.6625L97.7448 78.63L97.7916 78.9464C98.2876 78.9105 98.5935 79.1207 98.7093 79.5767L98.3059 79.6364C98.2483 79.384 98.0923 79.2588 97.838 79.2604L97.9916 80.2989Z" fill="#AE8FF7"/>
<path d="M49.4045 68.7235C49.3776 68.5414 49.5046 68.3704 49.6866 68.3435L88.451 62.6128C88.633 62.5858 88.8041 62.7129 88.831 62.8949C88.8579 63.0769 88.7309 63.2479 88.5489 63.2748L49.7844 69.0056C49.6024 69.0325 49.4314 68.9056 49.4045 68.7235Z" fill="#AE8FF7"/>
<path d="M52.3583 88.7091C52.3314 88.527 52.4584 88.356 52.6405 88.3291L91.4048 82.5984C91.5869 82.5714 91.7579 82.6984 91.7849 82.8805C91.8118 83.0625 91.6848 83.2335 91.5027 83.2604L52.7384 88.9911C52.5562 89.0181 52.3853 88.8912 52.3583 88.7091Z" fill="#AE8FF7"/>
<path d="M44.7673 84.5335C44.4925 84.5742 44.2344 84.3825 44.1937 84.1076L42.9197 75.4899C42.8791 75.215 43.0707 74.957 43.3456 74.9163C43.6204 74.8756 43.8786 75.0673 43.9192 75.3421L45.1932 83.9599C45.2338 84.2347 45.0423 84.4929 44.7673 84.5335Z" fill="#AE8FF7"/>
<path d="M97.844 76.6872C97.5691 76.7278 97.311 76.5362 97.2704 76.2613L95.9964 67.6436C95.9558 67.3687 96.1474 67.1107 96.4223 67.07C96.6971 67.0293 96.9553 67.221 96.9959 67.4958L98.2699 76.1136C98.3105 76.3884 98.1188 76.6466 97.844 76.6872Z" fill="#AE8FF7"/>
<path d="M45.6609 60.4738L46.3002 54.6168L46.936 55.2479L46.3112 59.5941L45.6609 60.4738Z" fill="#F6F6F5"/>
<path d="M46.9359 55.2482L46.3 54.6171L46.331 54.3331C46.3335 54.311 46.3403 54.2904 46.3504 54.2722C46.3607 54.2539 46.3743 54.2378 46.3904 54.2249C46.4064 54.2121 46.425 54.2022 46.445 54.1962C46.4597 54.1918 46.4751 54.1894 46.491 54.1894C46.4969 54.1894 46.5028 54.1897 46.5087 54.1904L47.079 54.2526L46.9359 55.2482Z" fill="#5029AE"/>
<path d="M44.823 68.1464L45.6604 60.4739L46.3107 59.5942L45.0868 68.1074L44.823 68.1464Z" fill="#F3F3F3"/>
<path d="M90.5989 81.8213L74.7389 80.0902C74.8696 79.8179 74.9659 79.5372 75.0279 79.2482L91.746 81.6517L90.5989 81.8213ZM73.1949 79.9217L71.6866 79.7571L71.5371 78.7463L73.4739 79.0248C73.442 79.3684 73.349 79.6675 73.1949 79.9217ZM70.753 79.6553L68.7303 79.4345C68.6587 79.2553 68.5981 79.0605 68.5485 78.8501L66.9101 79.0923C66.9211 79.1419 66.9325 79.191 66.9444 79.2396L60.876 78.5772L60.67 77.1841L70.5987 78.6114L70.753 79.6553ZM49.4855 77.3341L45.5527 76.9048L45.2666 74.9696L49.4404 75.5696L49.2473 75.7228L49.4855 77.3341Z" fill="#8F6AE7"/>
<path d="M74.7387 80.0901L73.1946 79.9216C73.3488 79.6674 73.4417 79.3683 73.4737 79.0246L75.0276 79.2481C74.9657 79.537 74.8694 79.8177 74.7387 80.0901ZM71.6863 79.757L70.7528 79.6551L70.5985 78.6113L71.5368 78.7462L71.6863 79.757ZM68.7301 79.4344L66.9441 79.2394C66.9323 79.1909 66.9209 79.1418 66.9099 79.0922L68.5483 78.8499C68.5979 79.0603 68.6585 79.2552 68.7301 79.4344Z" fill="#BCA2F9"/>
<path d="M60.8763 78.5771L49.4858 77.334L49.2476 75.7228L49.4407 75.5695L60.6703 77.184L60.8763 78.5771Z" fill="#BCA2F9"/>
<path d="M99.6921 82.814L90.599 81.8215L91.7461 81.6519L99.6219 82.7842L99.6921 82.814ZM45.5527 76.905L44.127 76.7494L43.9875 75.8059L44.8234 68.1468L45.0872 68.1078L44.1472 74.646C44.1461 74.6536 44.1456 74.6611 44.1455 74.6685C44.1453 74.7476 44.2033 74.8168 44.2839 74.8285L45.2667 74.9698L45.5527 76.905Z" fill="#BCA2F9"/>
<path d="M44.1269 76.749L44.0475 76.7403C44.0143 76.7367 43.9846 76.7233 43.9609 76.7032C43.9451 76.6899 43.932 76.6735 43.9223 76.6551L43.9221 76.6548C43.9078 76.6273 43.9011 76.5957 43.9048 76.5627L43.9874 75.8055L44.1269 76.749Z" fill="#8F6AE7"/>
<path d="M100.098 82.8522L44.2841 74.8281C44.1959 74.8154 44.1348 74.7337 44.1474 74.6456L47.3295 52.5115C47.3423 52.4234 47.4239 52.3623 47.512 52.3749L103.326 60.399C103.414 60.4117 103.475 60.4934 103.463 60.5815L100.28 82.7156C100.268 82.8037 100.186 82.8649 100.098 82.8522Z" fill="#AE8FF7"/>
<path d="M73.566 72.7992C74.8874 72.8299 75.6514 72.127 75.8579 70.6906C75.9432 70.0974 75.8736 69.6284 75.6491 69.2838C75.4253 68.933 74.9474 68.5998 74.2151 68.2841L73.566 72.7992ZM73.5529 66.5061L74.1387 62.4313C72.9226 62.4668 72.2301 63.0716 72.0612 64.2457C71.9715 64.8701 72.0683 65.3494 72.3517 65.6833C72.6298 66.0101 73.0303 66.2844 73.5529 66.5061ZM74.4253 66.8228C75.7882 67.3183 76.6742 67.8727 77.0831 68.4861C77.5038 69.1075 77.6467 69.8866 77.512 70.8233C77.3701 71.81 76.9282 72.6229 76.1862 73.262C75.4585 73.8904 74.5244 74.1576 73.3843 74.0639L73.197 75.366L72.2977 75.2367L72.4823 73.9533C70.22 73.3731 69.1706 71.9602 69.3342 69.7145L70.9734 69.9502C70.891 71.3662 71.4554 72.2728 72.6668 72.67L73.3441 67.9581C71.1312 67.1683 70.1513 65.8928 70.4045 64.1317C70.5463 63.145 70.9672 62.3897 71.6672 61.8656C72.3797 61.3434 73.2642 61.1105 74.3205 61.1667L74.5064 59.8739L75.4057 60.0032L75.2198 61.2959C77.2029 61.734 78.1553 62.9131 78.0768 64.8332L76.4282 64.5962C76.4969 63.5416 76.0325 62.8693 75.0353 62.5793L74.4253 66.8228Z" fill="#C4ADFB"/>
<path d="M53.3688 61.4426L59.3109 59.0637L64.3422 63.0202L63.4314 69.3557L57.4892 71.7346L52.458 67.7781L53.3688 61.4426Z" fill="#C4ADFB"/>
<path d="M84.1789 65.8718L90.121 63.4928L95.1522 67.4494L94.2414 73.7849L88.2993 76.1638L83.2681 72.2073L84.1789 65.8718Z" fill="#C4ADFB"/>
<path d="M97.8178 76.8038L97.7584 76.7953L95.474 79.7003L49.6087 73.1064L48.2961 69.8279L49.9531 58.3027L52.1359 55.5269L98.0013 62.1207L99.3749 65.5515L99.4344 65.5601L97.8178 76.8038ZM103.326 60.399L47.512 52.3749C47.4239 52.3622 47.3423 52.4234 47.3295 52.5115L44.1474 74.6456C44.1348 74.7337 44.1959 74.8154 44.2841 74.8281L100.098 82.8522C100.186 82.8649 100.268 82.8037 100.28 82.7156L103.463 60.5815C103.475 60.4934 103.414 60.4117 103.326 60.399Z" fill="#C4ADFB"/>
<path d="M48.9261 56.5574C49.2496 56.5649 49.4366 56.3928 49.4872 56.0411C49.5081 55.8958 49.4911 55.781 49.436 55.6966C49.3813 55.6107 49.2643 55.5291 49.085 55.4518L48.9261 56.5574ZM48.9228 55.0165L49.0663 54.0187C48.7685 54.0273 48.5989 54.1754 48.5576 54.4629C48.5356 54.6158 48.5593 54.7332 48.6287 54.815C48.6968 54.895 48.7948 54.9621 48.9228 55.0165ZM49.1365 55.094C49.4702 55.2154 49.6871 55.351 49.7873 55.5012C49.8902 55.6535 49.9252 55.8442 49.8923 56.0735C49.8575 56.3151 49.7493 56.5142 49.5676 56.6707C49.3894 56.8246 49.1607 56.89 48.8815 56.867L48.8356 57.1859L48.6154 57.1543L48.6607 56.84C48.1067 56.6979 47.8498 56.3519 47.8898 55.8021L48.2912 55.8598C48.271 56.2065 48.4093 56.4285 48.7059 56.5257L48.8717 55.372C48.3298 55.1786 48.0899 54.8663 48.1519 54.4351C48.1866 54.1934 48.2897 54.0085 48.4611 53.8801C48.6356 53.7522 48.8521 53.6952 49.1107 53.709L49.1563 53.3924L49.3765 53.4241L49.3309 53.7407C49.8166 53.848 50.0498 54.1367 50.0305 54.6068L49.6269 54.5488C49.6437 54.2905 49.53 54.1259 49.2859 54.0549L49.1365 55.094Z" fill="#AE8FF7"/>
<path d="M101.034 64.0492C101.358 64.0567 101.545 63.8845 101.595 63.5329C101.616 63.3876 101.599 63.2728 101.544 63.1884C101.489 63.1025 101.373 63.0208 101.193 62.9435L101.034 64.0492ZM101.031 62.5082L101.174 61.5104C100.877 61.5192 100.707 61.6673 100.666 61.9547C100.644 62.1076 100.667 62.225 100.737 62.3067C100.805 62.3868 100.903 62.4539 101.031 62.5082ZM101.245 62.5858C101.578 62.7071 101.795 62.8429 101.895 62.993C101.998 63.1452 102.033 63.336 102 63.5653C101.966 63.8069 101.857 64.006 101.676 64.1625C101.498 64.3163 101.269 64.3818 100.99 64.3588L100.944 64.6777L100.724 64.646L100.769 64.3317C100.215 64.1897 99.9579 63.8437 99.9979 63.2939L100.399 63.3516C100.379 63.6983 100.517 63.9202 100.814 64.0176L100.98 62.8638C100.438 62.6704 100.198 62.358 100.26 61.9268C100.295 61.6852 100.398 61.5002 100.569 61.3719C100.744 61.244 100.96 61.187 101.219 61.2008L101.264 60.8842L101.485 60.9159L101.439 61.2324C101.925 61.3397 102.158 61.6284 102.139 62.0986L101.735 62.0405C101.752 61.7823 101.638 61.6177 101.394 61.5467L101.245 62.5858Z" fill="#AE8FF7"/>
<path d="M46.4588 73.7182C46.7823 73.7257 46.9694 73.5536 47.0199 73.2019C47.0408 73.0566 47.0238 72.9417 46.9688 72.8574C46.914 72.7714 46.797 72.6899 46.6177 72.6126L46.4588 73.7182ZM46.4555 72.1772L46.599 71.1794C46.3012 71.1881 46.1316 71.3362 46.0903 71.6237C46.0683 71.7766 46.092 71.8939 46.1614 71.9758C46.2295 72.0557 46.3275 72.1229 46.4555 72.1772ZM46.6691 72.2547C47.0029 72.3761 47.2198 72.5119 47.32 72.6621C47.4229 72.8142 47.4579 73.0049 47.425 73.2344C47.3902 73.476 47.282 73.675 47.1003 73.8315C46.9221 73.9854 46.6935 74.0509 46.4142 74.0279L46.3683 74.3467L46.1482 74.315L46.1933 74.0008C45.6394 73.8587 45.3825 73.5128 45.4225 72.9628L45.8239 73.0205C45.8037 73.3673 45.942 73.5893 46.2386 73.6865L46.4044 72.5328C45.8625 72.3393 45.6226 72.027 45.6846 71.5958C45.7193 71.3543 45.8224 71.1693 45.9938 71.0409C46.1683 70.9131 46.3848 70.856 46.6435 70.8698L46.689 70.5533L46.9092 70.5849L46.8637 70.9014C47.3493 71.0087 47.5825 71.2975 47.5633 71.7676L47.1596 71.7095C47.1764 71.4513 47.0627 71.2867 46.8185 71.2157L46.6691 72.2547Z" fill="#AE8FF7"/>
<path d="M98.5667 81.2092C98.8903 81.2167 99.0774 81.0447 99.1278 80.6929C99.1488 80.5477 99.1317 80.4328 99.0768 80.3484C99.0219 80.2625 98.9049 80.1809 98.7256 80.1036L98.5667 81.2092ZM98.5634 79.6683L98.7069 78.6705C98.4091 78.6792 98.2396 78.8273 98.1982 79.1147C98.1762 79.2677 98.2 79.385 98.2694 79.4667C98.3374 79.5468 98.4354 79.614 98.5634 79.6683ZM98.7771 79.7458C99.1108 79.8671 99.3277 80.0029 99.4279 80.153C99.5309 80.3052 99.5659 80.496 99.5329 80.7254C99.4981 80.9669 99.3899 81.166 99.2082 81.3225C99.03 81.4763 98.8014 81.5418 98.5221 81.5188L98.4763 81.8376L98.2561 81.8061L98.3013 81.4918C97.7473 81.3497 97.4904 81.0037 97.5304 80.4539L97.9318 80.5116C97.9116 80.8583 98.0499 81.0802 98.3465 81.1776L98.5123 80.0238C97.9705 79.8304 97.7306 79.5181 97.7925 79.0868C97.8272 78.8452 97.9304 78.6602 98.1017 78.5319C98.2762 78.4041 98.4928 78.3471 98.7515 78.3608L98.7969 78.0442L99.0171 78.0759L98.9717 78.3924C99.4572 78.4997 99.6904 78.7884 99.6712 79.2586L99.2675 79.2006C99.2843 78.9423 99.1706 78.7777 98.9265 78.7067L98.7771 79.7458Z" fill="#AE8FF7"/>
<path d="M55.5178 54.779C55.544 54.5968 55.7144 54.4691 55.8967 54.4954L94.6835 60.0716C94.8657 60.0978 94.9933 60.2683 94.9671 60.4504C94.941 60.6326 94.7705 60.7602 94.5884 60.734L55.8014 55.1578C55.6193 55.1316 55.4916 54.9612 55.5178 54.779Z" fill="#AE8FF7"/>
<path d="M52.6431 74.7763C52.6692 74.5941 52.8397 74.4665 53.0219 74.4927L91.8088 80.0689C91.991 80.095 92.1186 80.2655 92.0924 80.4478C92.0662 80.6299 91.8957 80.7575 91.7135 80.7313L52.9267 75.1551C52.7444 75.1289 52.6168 74.9584 52.6431 74.7763Z" fill="#AE8FF7"/>
<path d="M46.5588 68.6074C46.2838 68.5679 46.0911 68.3105 46.1306 68.0355L47.3703 59.4128C47.4099 59.1378 47.6672 58.9451 47.9422 58.9846C48.2173 59.0242 48.4099 59.2816 48.3704 59.5566L47.1308 68.1793C47.0913 68.4543 46.8338 68.6469 46.5588 68.6074Z" fill="#AE8FF7"/>
<path d="M99.6667 76.2424C99.3917 76.2029 99.199 75.9455 99.2385 75.6705L100.478 67.0477C100.518 66.7727 100.775 66.58 101.05 66.6196C101.325 66.6591 101.518 66.9165 101.478 67.1916L100.239 75.8143C100.199 76.0893 99.9417 76.282 99.6667 76.2424Z" fill="#AE8FF7"/>
<path d="M53.7879 47.8729L53.4648 47.5523L55.2744 43.2827C55.5657 43.1003 55.8587 42.9221 56.1536 42.7477L53.7879 47.8729Z" fill="#F6F6F5"/>
<path d="M51.2504 52.9124L51.1963 52.9046L53.4645 47.5522L53.7876 47.8727L51.8121 52.1525L51.2504 52.9124ZM55.2741 43.2825L56.6231 40.099C56.6275 40.0891 56.6327 40.0792 56.6388 40.0704C56.657 40.0437 56.6824 40.024 56.7111 40.0122C56.7301 40.0053 56.7506 40.0013 56.7715 40.0013C56.7925 40.0013 56.8138 40.0053 56.8343 40.0142L57.3202 40.2193L56.1533 42.7475C55.8584 42.9219 55.5654 43.1002 55.2741 43.2825Z" fill="#5029AE"/>
<path d="M51.4481 52.9404L51.2502 52.912L51.8119 52.1522L51.4481 52.9404Z" fill="#F3F3F3"/>
<path d="M99.9008 82.9023L99.6919 82.8138L99.7143 82.8163L99.9008 82.9023Z" fill="#BCA2F9"/>
<path d="M99.7158 82.8163L99.6932 82.8138L99.6223 82.7837L99.6558 82.7885L99.7158 82.8163Z" fill="#C7DBBE"/>
<path d="M91.8291 79.1764L90.7398 79.0198L76.4849 72.9786C76.6782 72.7759 76.8454 72.5582 76.9867 72.3254L91.8291 79.1764ZM75.0453 72.3686L73.7092 71.8024L73.8427 70.8742L75.5778 71.6751C75.4415 71.9605 75.2641 72.1917 75.0453 72.3686ZM72.8441 71.4357L70.9897 70.6498C70.9643 70.4325 70.9588 70.1995 70.9733 69.9506L69.334 69.715C69.3284 69.7919 69.3242 69.8679 69.3214 69.9428L63.6898 67.5562L63.8743 66.2729L72.982 70.4769L72.8441 71.4357ZM53.1328 63.0822L49.4878 61.5375L49.7446 59.7508L53.3904 61.4336L53.3686 61.4424L53.1328 63.0822Z" fill="#8F6AE7"/>
<path d="M76.485 72.9784L75.0455 72.3683C75.2643 72.1914 75.4417 71.9603 75.5779 71.6748L76.9868 72.3251C76.8455 72.5579 76.6783 72.7757 76.485 72.9784ZM73.7093 71.8021L72.8443 71.4355L72.9821 70.4766L73.8429 70.8739L73.7093 71.8021ZM70.9899 70.6496L69.3215 69.9426C69.3243 69.8676 69.3285 69.7916 69.3342 69.7147L70.9734 69.9504C70.9589 70.1993 70.9644 70.4323 70.9899 70.6496Z" fill="#BCA2F9"/>
<path d="M63.6903 67.5557L53.1333 63.0817L53.3691 61.4419L53.3909 61.4332L63.8748 66.2724L63.6903 67.5557Z" fill="#BCA2F9"/>
<path d="M99.6551 82.7889L99.622 82.7842L90.74 79.0201L91.8293 79.1767L99.6551 82.7889ZM49.4879 61.5378L48.1665 60.9777L48.3674 59.5806L49.6213 56.6217C49.7707 56.4734 49.8611 56.2909 49.8922 56.0741C49.898 56.0336 49.9017 55.9944 49.9034 55.9562L51.1964 52.905L51.4483 52.9412L48.6254 59.0569C48.6153 59.0791 48.6104 59.1023 48.6105 59.1251C48.6108 59.1858 48.6455 59.2438 48.7042 59.2709L49.7447 59.7511L49.4879 61.5378Z" fill="#BCA2F9"/>
<path d="M49.6208 56.6211L49.903 55.9556C49.9013 55.9938 49.8976 56.033 49.8918 56.0735C49.8607 56.2903 49.7703 56.4728 49.6208 56.6211Z" fill="#8F6AE7"/>
<path d="M48.1666 60.9775L47.9833 60.8999C47.973 60.8956 47.9635 60.8903 47.9547 60.8843C47.9371 60.8721 47.9224 60.8567 47.9111 60.8394C47.8998 60.822 47.892 60.8026 47.888 60.7823C47.882 60.7519 47.8848 60.7194 47.8978 60.6886L48.3675 59.5805L48.1666 60.9775Z" fill="#8F6AE7"/>
<path d="M99.9007 82.9024L48.7038 59.2707C48.6229 59.2334 48.5877 59.1376 48.625 59.0567L57.9966 38.7533C58.034 38.6724 58.1297 38.6379 58.2105 38.6754L109.407 62.3065C109.488 62.3438 109.523 62.4396 109.486 62.5204L100.115 82.8236C100.077 82.9044 99.9815 82.9396 99.9007 82.9024Z" fill="#AE8FF7"/>
<path d="M77.3456 65.6903C78.6032 66.0971 79.536 65.6416 80.1442 64.3241C80.3954 63.7799 80.4626 63.3107 80.3459 62.9162C80.2318 62.5162 79.8689 62.0602 79.2573 61.5487L77.3456 65.6903ZM79.1305 59.6556L80.8558 55.9178C79.6801 55.6044 78.8437 55.9862 78.3466 57.0632C78.0823 57.636 78.0381 58.1229 78.2144 58.524C78.3876 58.9165 78.6929 59.2938 79.1305 59.6556ZM79.876 60.2082C81.0407 61.0724 81.7313 61.8568 81.9482 62.5613C82.1737 63.277 82.0882 64.0645 81.6916 64.9237C81.2738 65.8288 80.6181 66.4817 79.7244 66.8821C78.8475 67.2765 77.8761 67.2659 76.8101 66.8503L76.2588 68.0447L75.434 67.664L75.9773 66.4867C73.975 65.2846 73.3729 63.6307 74.171 61.5253L75.6748 62.2194C75.1913 63.5528 75.4733 64.5829 76.5207 65.3095L78.5157 60.9875C76.6205 59.5984 76.0457 58.0962 76.7914 56.4808C77.2091 55.5757 77.8283 54.9721 78.6488 54.6698C79.4808 54.3728 80.3949 54.4022 81.3912 54.7578L81.9385 53.572L82.7634 53.9528L82.2161 55.1385C83.9915 56.1249 84.5674 57.5268 83.9438 59.3445L82.4314 58.6464C82.7985 57.6553 82.5456 56.8785 81.6727 56.3158L79.876 60.2082Z" fill="#C4ADFB"/>
<path d="M61.2337 49.037L67.6077 48.4543L71.2994 53.6832L68.6169 59.4946L62.2428 60.0771L58.5513 54.8484L61.2337 49.037Z" fill="#C4ADFB"/>
<path d="M89.4949 62.0823L95.869 61.4996L99.5605 66.7285L96.8781 72.5399L90.504 73.1224L86.8125 67.8937L89.4949 62.0823Z" fill="#C4ADFB"/>
<path d="M99.4432 76.4547L99.3886 76.4295L96.3697 78.561L54.2983 59.1415L53.9769 55.6248L58.8567 45.053L61.7415 43.0163L103.813 62.4357L104.149 66.1159L104.204 66.1411L99.4432 76.4547ZM109.407 62.3065L58.2105 38.6754C58.1297 38.6379 58.034 38.6724 57.9966 38.7533L48.625 59.0567C48.5877 59.1376 48.6229 59.2334 48.7038 59.2707L99.9007 82.9024C99.9815 82.9396 100.077 82.9044 100.115 82.8236L109.486 62.5204C109.523 62.4396 109.488 62.3438 109.407 62.3065Z" fill="#C4ADFB"/>
<path d="M58.3716 43.087C58.6796 43.1866 58.9079 43.0751 59.0568 42.7524C59.1184 42.6192 59.1348 42.5042 59.1062 42.4077C59.0783 42.3098 58.9895 42.1983 58.8397 42.0731L58.3716 43.087ZM58.8086 41.6097L59.2311 40.6936C58.9432 40.6177 58.7384 40.7104 58.6168 40.9746C58.552 41.1147 58.5412 41.234 58.5843 41.3326C58.6267 41.4282 58.7015 41.5209 58.8086 41.6097ZM58.9912 41.7448C59.2763 41.9558 59.4454 42.1481 59.4986 42.3208C59.5538 42.496 59.5329 42.6888 59.4358 42.8992C59.3334 43.1209 59.1729 43.2808 58.9541 43.3788C58.7393 43.4754 58.5015 43.4727 58.2405 43.371L58.1055 43.6635L57.9034 43.5703L58.0365 43.282C57.5463 42.9876 57.3989 42.5826 57.5943 42.0672L57.9625 42.2368C57.8441 42.5636 57.9131 42.8158 58.1696 42.9937L58.6581 41.9351C58.194 41.5949 58.0533 41.2271 58.2358 40.8317C58.3382 40.6108 58.4897 40.4629 58.6907 40.3889C58.8944 40.3159 59.1183 40.3228 59.3622 40.4096L59.4962 40.1197L59.6982 40.2134L59.5642 40.5033C59.9989 40.7449 60.1399 41.088 59.9872 41.5328L59.6169 41.3622C59.7069 41.1196 59.6449 40.9293 59.4311 40.7912L58.9912 41.7448Z" fill="#AE8FF7"/>
<path d="M106.169 65.1494C106.477 65.249 106.705 65.1375 106.854 64.8149C106.916 64.6816 106.932 64.5667 106.903 64.4701C106.876 64.3722 106.787 64.2606 106.637 64.1352L106.169 65.1494ZM106.606 63.6717L107.028 62.7565C106.74 62.6798 106.536 62.7733 106.414 63.0369C106.349 63.1772 106.338 63.2965 106.382 63.3946C106.424 63.4907 106.499 63.5831 106.606 63.6717ZM106.788 63.8071C107.074 64.0186 107.243 64.2107 107.296 64.3832C107.351 64.5584 107.33 64.7513 107.233 64.9616C107.131 65.1833 106.97 65.3432 106.751 65.4413C106.537 65.5378 106.299 65.5352 106.038 65.4335L105.903 65.726L105.701 65.6327L105.834 65.3444C105.343 65.05 105.196 64.6451 105.391 64.1295L105.76 64.2995C105.641 64.626 105.71 64.8782 105.967 65.0561L106.455 63.9979C105.991 63.6578 105.851 63.2899 106.033 62.8944C106.135 62.6727 106.287 62.5249 106.488 62.4508C106.692 62.3781 106.915 62.3853 107.159 62.4724L107.293 62.182L107.495 62.2753L107.361 62.5657C107.796 62.8072 107.937 63.1504 107.784 63.5955L107.414 63.4246C107.504 63.182 107.442 62.9917 107.228 62.8539L106.788 63.8071Z" fill="#AE8FF7"/>
<path d="M51.106 58.8279C51.4139 58.9275 51.6424 58.8159 51.7913 58.4934C51.8528 58.3601 51.8693 58.2452 51.8407 58.1487C51.8127 58.0506 51.7239 57.939 51.5742 57.8137L51.106 58.8279ZM51.5431 57.3502L51.9655 56.435C51.6776 56.3583 51.4729 56.4517 51.3511 56.7154C51.2864 56.8556 51.2756 56.9749 51.3188 57.0731C51.3612 57.1692 51.4359 57.2616 51.5431 57.3502ZM51.7256 57.4855C52.0108 57.6971 52.1799 57.8892 52.2331 58.0617C52.2883 58.2369 52.2673 58.4298 52.1702 58.6402C52.0679 58.8618 51.9074 59.0216 51.6886 59.1197C51.4738 59.2163 51.236 59.2137 50.9749 59.1119L50.8399 59.4044L50.6379 59.3111L50.771 59.0229C50.2806 58.7286 50.1332 58.3236 50.3287 57.808L50.6969 57.978C50.5785 58.3045 50.6476 58.5567 50.904 58.7347L51.3925 57.6763C50.9285 57.3362 50.7877 56.9683 50.9703 56.5728C51.0726 56.3512 51.2242 56.2033 51.4251 56.1294C51.6288 56.0566 51.8526 56.0638 52.0967 56.1509L52.2307 55.8606L52.4326 55.9538L52.2986 56.2442C52.7334 56.4857 52.8744 56.8289 52.7217 57.274L52.3514 57.103C52.4412 56.8604 52.3793 56.6701 52.1656 56.5324L51.7256 57.4855Z" fill="#AE8FF7"/>
<path d="M98.9029 80.8904C99.2108 80.9901 99.4393 80.8785 99.5882 80.5559C99.6497 80.4226 99.6662 80.3077 99.6376 80.2112C99.6096 80.1131 99.5207 80.0015 99.371 79.8763L98.9029 80.8904ZM99.3399 79.4127L99.7624 78.4975C99.4746 78.4208 99.2698 78.5142 99.148 78.7779C99.0833 78.9182 99.0725 79.0374 99.1157 79.1356C99.1581 79.2318 99.2328 79.3241 99.3399 79.4127ZM99.5225 79.548C99.8077 79.7596 99.9768 79.9517 100.03 80.1242C100.085 80.2995 100.064 80.4923 99.967 80.7027C99.8648 80.9243 99.7041 81.0842 99.4853 81.1822C99.2707 81.2788 99.0328 81.2762 98.7717 81.1744L98.6367 81.4669L98.4348 81.3737L98.5678 81.0854C98.0775 80.7911 97.9301 80.3861 98.1255 79.8706L98.4937 80.0405C98.3754 80.3671 98.4444 80.6192 98.7009 80.7972L99.1894 79.7388C98.7254 79.3987 98.5846 79.0308 98.7672 78.6353C98.8694 78.4137 99.0211 78.2659 99.222 78.1919C99.4257 78.1192 99.6495 78.1263 99.8936 78.2134L100.028 77.9231L100.23 78.0163L100.096 78.3067C100.53 78.5482 100.671 78.8914 100.519 79.3365L100.148 79.1656C100.238 78.923 100.176 78.7327 99.9625 78.5949L99.5225 79.548Z" fill="#AE8FF7"/>
<path d="M65.1959 43.2653C65.273 43.0983 65.4729 43.0246 65.6399 43.1017L101.218 59.5242C101.385 59.6013 101.459 59.8012 101.382 59.9683C101.305 60.1354 101.105 60.209 100.938 60.1318L65.3595 43.7095C65.1924 43.6322 65.1188 43.4325 65.1959 43.2653Z" fill="#AE8FF7"/>
<path d="M56.7294 61.6081C56.8065 61.4411 57.0062 61.3674 57.1734 61.4445L92.7518 77.867C92.9189 77.9441 92.9925 78.144 92.9153 78.311C92.8382 78.4782 92.6385 78.5517 92.4713 78.4746L56.8929 62.0522C56.7258 61.975 56.6523 61.7752 56.7294 61.6081Z" fill="#AE8FF7"/>
<path d="M52.6614 53.9589C52.4091 53.8425 52.298 53.5408 52.4144 53.2885L56.0653 45.3791C56.1818 45.1268 56.4834 45.0157 56.7357 45.1322C56.988 45.2485 57.0991 45.5503 56.9827 45.8025L53.3318 53.712C53.2153 53.9642 52.9137 54.0753 52.6614 53.9589Z" fill="#AE8FF7"/>
<path d="M101.376 76.4446C101.124 76.3281 101.013 76.0265 101.129 75.7742L104.78 67.8648C104.896 67.6125 105.198 67.5013 105.45 67.6178C105.703 67.7342 105.814 68.0359 105.697 68.2882L102.046 76.1977C101.93 76.4499 101.628 76.561 101.376 76.4446Z" fill="#AE8FF7"/>
<path d="M90.9183 76.0442L88.9185 75.1211L77.5702 67.0811C77.8458 67.1402 78.1145 67.1698 78.3763 67.1698C78.648 67.1698 78.9122 67.1379 79.169 67.0742L90.9183 76.0442ZM77.3632 65.6956C77.3573 65.6937 77.3515 65.6918 77.3456 65.69L77.3482 65.6842L77.3632 65.6956ZM76.5207 65.3091C76.1496 65.0517 75.8745 64.7561 75.6956 64.4225L76.6083 65.1192L76.5207 65.3091ZM74.1617 64.6662L67.0624 59.6365L68.6167 59.4945L68.7793 59.1422L73.8358 63.0026C73.802 63.6031 73.9107 64.1577 74.1617 64.6662ZM58.9831 53.9125L55.8062 51.6617L56.6334 49.8695L59.7507 52.2493L58.9831 53.9125Z" fill="#8F6AE7"/>
<path d="M78.3763 67.17C78.1145 67.17 77.8458 67.1405 77.5702 67.0814L74.1617 64.6665C73.9107 64.158 73.802 63.6033 73.8359 63.0029L75.6956 64.4228C75.8746 64.7563 76.1496 65.052 76.5207 65.3094L76.6083 65.1195L77.3482 65.6844L77.3456 65.6903C77.3515 65.6921 77.3573 65.694 77.3632 65.6959L79.169 67.0745C78.9122 67.1382 78.648 67.17 78.3763 67.17Z" fill="#BCA2F9"/>
<path d="M67.0625 59.6367L58.9832 53.9127L59.7508 52.2496L68.7794 59.1424L68.6168 59.4947L67.0625 59.6367Z" fill="#BCA2F9"/>
<path d="M99.9009 82.9023L88.9185 75.1216L90.9184 76.0446L99.9009 82.9023ZM55.8062 51.6621L54.6545 50.8461L55.5033 49.0071L56.6334 49.8699L55.8062 51.6621ZM53.8298 50.2219C53.8151 50.1755 53.8215 50.1229 53.8519 50.08L53.9763 49.9045L53.8298 50.2219Z" fill="#BCA2F9"/>
<path d="M61.3984 40.1456L61.3884 40.1416C61.3951 40.1387 61.4014 40.1357 61.408 40.1337L61.3984 40.1456Z" fill="#F6F6F5"/>
<path d="M61.3884 40.1417L61.0154 39.9692L66.7794 31.8341C66.7923 31.8154 66.8082 31.8006 66.826 31.7897C66.835 31.7838 66.8442 31.7799 66.854 31.7759C66.8722 31.769 66.8916 31.7661 66.9111 31.7661C66.9432 31.7661 66.9758 31.7749 67.0041 31.7956L67.5035 32.1496L61.4078 40.1338C61.4012 40.1358 61.395 40.1388 61.3884 40.1417Z" fill="#5029AE"/>
<path d="M56.8342 46.1238L56.9827 45.8021C57.0136 45.7354 57.0284 45.6651 57.029 45.5956L58.5519 43.4461C58.576 43.4482 58.6 43.4492 58.6237 43.4492C58.7264 43.4492 58.8247 43.4305 58.9187 43.3935L56.8342 46.1238ZM58.8423 43.0363L59.0768 42.7052C59.0707 42.7206 59.064 42.7362 59.0566 42.7522C58.9977 42.8801 58.9262 42.9748 58.8423 43.0363ZM59.5236 42.6011C59.5349 42.5031 59.5264 42.4096 59.4984 42.3206C59.4856 42.2791 59.4661 42.2366 59.4399 42.1922L59.927 41.5049L59.987 41.5325C60.008 41.4714 60.0235 41.4122 60.0333 41.3551L61.0154 39.9686L61.3983 40.1451L59.5236 42.6011Z" fill="#BCA2F9"/>
<path d="M58.6239 43.4491C58.6001 43.4491 58.5762 43.4481 58.552 43.446L58.8424 43.0362C58.9263 42.9747 58.9978 42.88 59.0568 42.7521C59.0642 42.7362 59.0709 42.7205 59.077 42.7051L59.4401 42.1922C59.4663 42.2365 59.4857 42.279 59.4985 42.3205C59.5265 42.4095 59.535 42.5031 59.5238 42.6011L58.9188 43.3934C58.8248 43.4305 58.7265 43.4491 58.6239 43.4491ZM59.9871 41.5325L59.9272 41.5049L60.0335 41.355C60.0236 41.4122 60.0081 41.4713 59.9871 41.5325Z" fill="#8F6AE7"/>
<path d="M54.6547 50.8463L53.8905 50.305C53.8633 50.2856 53.8439 50.2594 53.8329 50.2304C53.8319 50.2277 53.8309 50.2249 53.8301 50.2221L53.9765 49.9047L57.029 45.5963C57.0284 45.6657 57.0136 45.736 56.9827 45.8028L56.8342 46.1244L55.0516 48.4594C55.0292 48.4887 55.0185 48.5232 55.0185 48.5574C55.0186 48.6059 55.0405 48.6537 55.0819 48.6853L55.5035 49.0073L54.6547 50.8463Z" fill="#8F6AE7"/>
<path d="M99.9011 82.9021L55.0819 48.6849C55.0112 48.6309 54.9976 48.5298 55.0516 48.459L68.6211 30.685C68.6752 30.614 68.7762 30.6012 68.847 30.6545L113.666 64.872C113.736 64.926 113.75 65.0271 113.696 65.0979L100.127 82.8719C100.073 82.9426 99.9718 82.9561 99.9011 82.9021Z" fill="#AE8FF7"/>
<path d="M81.637 61.1898C82.7758 61.8607 83.7854 61.6195 84.6661 60.4661C85.0297 59.9897 85.1976 59.5463 85.1696 59.136C85.1453 58.7206 84.8905 58.1966 84.4051 57.564L81.637 61.1898ZM84.6936 55.6888L87.1918 52.4166C86.1126 51.8547 85.2131 52.0452 84.4934 52.9879C84.1105 53.4894 83.9614 53.9551 84.046 54.3848C84.1295 54.8058 84.3454 55.2404 84.6936 55.6888ZM85.3009 56.3906C86.2493 57.4877 86.7525 58.4037 86.8106 59.1386C86.8749 59.8862 86.6199 60.6361 86.0456 61.3884C85.4406 62.1807 84.6585 62.675 83.699 62.8712C82.7572 63.0651 81.8115 62.8431 80.8617 62.2052L80.0635 63.2509L79.3413 62.6995L80.1281 61.669C78.4358 60.0594 78.2084 58.3142 79.446 56.4333L80.7624 57.4383C80.0001 58.6343 80.0509 59.701 80.9149 60.6385L83.8035 56.8547C82.2564 55.0863 82.0227 53.4949 83.1024 52.0807C83.7072 51.2884 84.443 50.8341 85.3097 50.7178C86.1863 50.6092 87.0722 50.837 87.967 51.4012L88.7595 50.3631L89.4816 50.9144L88.6891 51.9525C90.207 53.3018 90.4637 54.7955 89.4591 56.4337L88.1352 55.4229C88.7093 54.5357 88.6317 53.7224 87.9024 52.983L85.3009 56.3906Z" fill="#C4ADFB"/>
<path d="M69.5398 41.4272L75.8877 42.2466L78.3516 48.1542L74.4675 53.2417L68.1196 52.4218L65.6558 46.5143L69.5398 41.4272Z" fill="#C4ADFB"/>
<path d="M94.28 60.3148L100.628 61.1348L103.092 67.0422L99.2077 72.1296L92.8599 71.3097L90.396 65.4024L94.28 60.3148Z" fill="#C4ADFB"/>
<path d="M100.859 76.5097L100.811 76.4732L97.4007 77.8958L60.5702 49.7777L61.0226 46.2754L68.0883 37.0205L71.3475 35.6607L108.178 63.7793L107.704 67.4443L107.752 67.4808L100.859 76.5097ZM113.666 64.872L68.847 30.6545C68.7762 30.6012 68.6752 30.614 68.6211 30.685L55.0516 48.459C54.9976 48.5298 55.0112 48.6309 55.0819 48.6849L99.9011 82.9021C99.9718 82.9561 100.073 82.9426 100.127 82.8719L113.696 65.0979C113.75 65.0271 113.737 64.926 113.666 64.872Z" fill="#C4ADFB"/>
<path d="M68.042 34.9964C68.3208 35.161 68.568 35.1019 68.7837 34.8189C68.8727 34.7025 68.9139 34.594 68.907 34.4935C68.901 34.3919 68.8386 34.2637 68.7198 34.1089L68.042 34.9964ZM68.7904 33.6494L69.4022 32.8477C69.1379 32.7106 68.9176 32.757 68.7414 32.9877C68.6476 33.111 68.6111 33.2244 68.6318 33.3299C68.6523 33.4334 68.7051 33.5399 68.7904 33.6494ZM68.9391 33.821C69.1713 34.0902 69.2946 34.314 69.3088 34.4944C69.3246 34.6769 69.2621 34.8603 69.1215 35.0447C68.9733 35.2389 68.7818 35.3602 68.5468 35.4075C68.3163 35.4559 68.0847 35.4016 67.8522 35.2448L67.6566 35.5012L67.4798 35.3661L67.6725 35.1137C67.2581 34.7193 67.2024 34.2923 67.5055 33.8318L67.8278 34.0773C67.6411 34.3702 67.6536 34.6315 67.8652 34.8613L68.5725 33.9353C68.1936 33.5015 68.1364 33.112 68.4008 32.7659C68.5489 32.5716 68.7291 32.4612 68.9413 32.4326C69.1559 32.4059 69.3729 32.4612 69.592 32.5992L69.786 32.3448L69.9628 32.4799L69.7688 32.7343C70.1404 33.0646 70.2033 33.4305 69.9573 33.8318L69.6331 33.5843C69.7737 33.3674 69.7548 33.1682 69.5761 32.9867L68.9391 33.821Z" fill="#AE8FF7"/>
<path d="M109.886 66.9415C110.165 67.1058 110.412 67.0467 110.627 66.7643C110.717 66.6476 110.758 66.5391 110.751 66.4386C110.745 66.3368 110.682 66.2085 110.564 66.0536L109.886 66.9415ZM110.634 65.5944L111.246 64.7932C110.982 64.6557 110.761 64.7023 110.585 64.9332C110.491 65.0559 110.455 65.1699 110.476 65.2751C110.496 65.3783 110.549 65.4847 110.634 65.5944ZM110.783 65.7663C111.015 66.035 111.138 66.2593 111.153 66.4392C111.168 66.6223 111.106 66.8059 110.965 66.9901C110.817 67.1842 110.626 67.3052 110.391 67.3532C110.16 67.4007 109.928 67.3463 109.696 67.1902L109.5 67.4462L109.324 67.3112L109.516 67.0588C109.102 66.6647 109.046 66.2373 109.349 65.7767L109.672 66.0229C109.485 66.3157 109.497 66.5769 109.709 66.8065L110.416 65.88C110.037 65.4469 109.98 65.0573 110.244 64.711C110.393 64.5169 110.573 64.4057 110.785 64.3772C111 64.3507 111.217 64.4064 111.436 64.5446L111.63 64.2903L111.807 64.4254L111.613 64.6795C111.984 65.01 112.047 65.3757 111.801 65.7768L111.477 65.5293C111.617 65.3121 111.598 65.113 111.42 64.9319L110.783 65.7663Z" fill="#AE8FF7"/>
<path d="M57.522 48.7763C57.8008 48.9406 58.048 48.8816 58.2637 48.5991C58.3527 48.4825 58.3938 48.3739 58.3869 48.2734C58.381 48.1717 58.3186 48.0434 58.1998 47.8885L57.522 48.7763ZM58.2704 47.4294L58.8821 46.6281C58.6179 46.4905 58.3977 46.5372 58.2214 46.768C58.1276 46.8908 58.0911 47.0048 58.1118 47.1101C58.1323 47.2131 58.1852 47.3195 58.2704 47.4294ZM58.4191 47.6011C58.6514 47.8698 58.7746 48.0942 58.7888 48.2741C58.8045 48.4572 58.7421 48.6408 58.6015 48.8249C58.4534 49.019 58.2618 49.14 58.0269 49.188C57.7963 49.2356 57.5646 49.1812 57.3321 49.025L57.1367 49.281L56.9598 49.146L57.1525 48.8937C56.7381 48.4996 56.6824 48.0722 56.9854 47.6116L57.3078 47.8577C57.1211 48.1506 57.1335 48.4118 57.3452 48.6413L58.0525 47.7148C57.6736 47.2817 57.6164 46.8922 57.8808 46.5458C58.0289 46.3518 58.209 46.2406 58.4212 46.2122C58.6359 46.1855 58.8529 46.2414 59.072 46.3794L59.266 46.1253L59.4428 46.2603L59.2488 46.5145C59.6205 46.8448 59.6833 47.2107 59.4373 47.6118L59.1132 47.3643C59.2538 47.147 59.2348 46.9479 59.0562 46.7668L58.4191 47.6011Z" fill="#AE8FF7"/>
<path d="M99.365 80.7213C99.6439 80.8856 99.8911 80.8265 100.107 80.5441C100.196 80.4274 100.237 80.3189 100.23 80.2184C100.224 80.1166 100.162 79.9883 100.043 79.8334L99.365 80.7213ZM100.113 79.3743L100.725 78.573C100.461 78.4355 100.241 78.482 100.064 78.7129C99.9706 78.8357 99.9342 78.9497 99.9549 79.0549C99.9753 79.1581 100.028 79.2645 100.113 79.3743ZM100.262 79.5461C100.494 79.8147 100.618 80.039 100.632 80.219C100.648 80.4021 100.585 80.5857 100.445 80.7699C100.296 80.9639 100.105 81.0849 99.8699 81.133C99.6393 81.1804 99.4077 81.1261 99.1752 80.9699L98.9796 81.226L98.8028 81.091L98.9955 80.8386C98.5811 80.4445 98.5255 80.0171 98.8285 79.5565L99.1508 79.8027C98.9642 80.0955 98.9766 80.3567 99.1882 80.5863L99.8955 79.6598C99.5167 79.2267 99.4595 78.8371 99.7238 78.4908C99.8719 78.2967 100.052 78.1855 100.264 78.157C100.479 78.1305 100.696 78.1862 100.915 78.3243L101.109 78.0702L101.286 78.2052L101.092 78.4593C101.463 78.7898 101.526 79.1555 101.28 79.5566L100.956 79.3091C101.097 79.0919 101.078 78.8927 100.899 78.7117L100.262 79.5461Z" fill="#AE8FF7"/>
<path d="M74.6648 36.6565C74.7764 36.5106 74.9875 36.482 75.1337 36.5944L106.28 60.3727C106.426 60.4844 106.455 60.6954 106.343 60.8417C106.231 60.988 106.02 61.0163 105.874 60.9047L74.7277 37.1259C74.5813 37.0145 74.553 36.8034 74.6648 36.6565Z" fill="#AE8FF7"/>
<path d="M62.405 52.7155C62.5166 52.5691 62.7277 52.5408 62.874 52.6525L94.0204 76.4311C94.1666 76.5429 94.1949 76.7539 94.0833 76.9002C93.9715 77.0464 93.7605 77.0747 93.6142 76.9631L62.4679 53.1844C62.3216 53.0727 62.2933 52.8617 62.405 52.7155Z" fill="#AE8FF7"/>
<path d="M60.1011 44.3629C59.8803 44.1943 59.8375 43.8757 60.0062 43.6548L65.2924 36.7307C65.461 36.5098 65.7797 36.4674 66.0005 36.636C66.2214 36.8046 66.2641 37.1231 66.0954 37.344L60.8092 44.268C60.6406 44.4889 60.322 44.5316 60.1011 44.3629Z" fill="#AE8FF7"/>
<path d="M102.748 76.9213C102.527 76.7527 102.484 76.4341 102.653 76.2132L107.939 69.2891C108.107 69.0682 108.426 69.0255 108.647 69.1941C108.868 69.3627 108.911 69.6813 108.742 69.9022L103.456 76.8263C103.287 77.0472 102.968 77.0899 102.748 76.9213Z" fill="#AE8FF7"/>
<path d="M96.2668 44.6641L85.4072 43.2978L77.2405 37.0627C82.2664 37.0904 87.2865 38.034 92.0295 39.8957L96.2668 44.6641ZM80.6867 27.132C79.6823 27.0601 78.6783 27.0177 77.6719 27.0048L79.1725 25.6707C79.1808 25.6638 79.1896 25.6569 79.1989 25.652C79.2082 25.646 79.2178 25.6421 79.2278 25.6391C79.2446 25.6332 79.262 25.6303 79.2795 25.6303C79.3239 25.6303 79.3682 25.648 79.4 25.6845L80.6867 27.132Z" fill="#F6F6F5"/>
<path d="M92.0299 39.896C87.2868 38.0343 82.2667 37.0906 77.2408 37.063L71.3845 32.5922L77.6722 27.0051C78.6786 27.0179 79.6826 27.0603 80.687 27.1323L92.0299 39.896Z" fill="#5029AE"/>
<path d="M100.275 82.785C100.279 82.7706 100.282 82.7556 100.282 82.74C100.282 82.7319 100.281 82.7237 100.28 82.7154L100.288 82.6606L113.696 65.0977C113.75 65.0269 113.737 64.9258 113.666 64.8718L97.1235 52.2424L101.382 50.4193L116.857 67.8337C116.887 67.8669 116.9 67.909 116.898 67.9501C116.897 67.9605 116.896 67.9707 116.893 67.9807C116.888 68.0008 116.879 68.0199 116.866 68.0371L116.843 68.0611L100.275 82.785Z" fill="#F3F3F3"/>
<path d="M97.1235 52.2427L85.4075 43.298L96.2671 44.6643L101.382 50.4195L97.1235 52.2427Z" fill="#F3F3F3"/>
<path d="M100.025 82.9563C100.021 82.9563 100.016 82.9561 100.012 82.9557L100.144 82.8989C100.146 82.8987 100.147 82.8985 100.148 82.8983L100.128 82.9159C100.12 82.9233 100.111 82.9296 100.102 82.935C100.084 82.9457 100.063 82.9525 100.043 82.9551C100.037 82.9559 100.031 82.9563 100.025 82.9563Z" fill="#AE8FF7"/>
<path d="M100.012 82.9556C100.008 82.9553 100.004 82.9549 100.001 82.9544C99.9892 82.9529 99.9781 82.9501 99.9673 82.9463C99.9587 82.9431 99.9502 82.9396 99.9421 82.9353L99.9632 82.9314C99.9744 82.934 99.9857 82.9353 99.9971 82.9353C99.9976 82.9353 99.9981 82.9353 99.9987 82.9353C99.9991 82.9353 99.9994 82.9353 99.9998 82.9353C100.03 82.9352 100.061 82.9263 100.087 82.9091L100.144 82.8988L100.012 82.9556Z" fill="#BCA2F9"/>
<path d="M99.9418 82.9352C99.9388 82.9335 99.9358 82.9318 99.9329 82.93L99.949 82.9276C99.9536 82.9291 99.9582 82.9303 99.9629 82.9313L99.9418 82.9352ZM100.087 82.9091C100.088 82.9083 100.089 82.9075 100.09 82.9067L100.144 82.8987L100.087 82.9091Z" fill="#C7DBBE"/>
<path d="M99.9328 82.9298C99.93 82.928 99.9274 82.9262 99.9247 82.9242L99.9006 82.9021C99.9156 82.9135 99.932 82.9219 99.9489 82.9274L99.9328 82.9298ZM100.09 82.9065C100.103 82.8977 100.115 82.8868 100.125 82.874C100.125 82.8732 100.126 82.8725 100.127 82.8718L100.137 82.8584C100.157 82.8562 100.177 82.85 100.195 82.8407C100.204 82.8359 100.212 82.8302 100.221 82.8237C100.245 82.8044 100.263 82.7782 100.273 82.7475C100.276 82.7373 100.279 82.7267 100.28 82.7155C100.281 82.7238 100.282 82.732 100.282 82.7401C100.281 82.7557 100.279 82.7708 100.275 82.7852L100.148 82.898C100.147 82.8982 100.145 82.8984 100.144 82.8986L100.09 82.9065Z" fill="#BCA2F9"/>
<path d="M100.137 82.8585L100.141 82.8526C100.209 82.8437 100.265 82.7926 100.279 82.7232C100.279 82.7222 100.279 82.7213 100.279 82.7202C100.279 82.7187 100.28 82.7172 100.28 82.7156C100.279 82.7268 100.276 82.7374 100.273 82.7476C100.263 82.7783 100.245 82.8045 100.221 82.8238C100.213 82.8303 100.204 82.836 100.195 82.8408C100.177 82.8501 100.157 82.8563 100.137 82.8585Z" fill="#C7DBBE"/>
<path d="M100.142 82.8523L100.288 82.6605L100.28 82.7153C100.28 82.7169 100.28 82.7184 100.279 82.7199C100.279 82.7209 100.279 82.7219 100.279 82.7229C100.266 82.7922 100.209 82.8434 100.142 82.8523Z" fill="#BCA2F9"/>
<path d="M99.997 82.9352C99.9856 82.9351 99.9743 82.9338 99.9632 82.9312C99.9584 82.9303 99.9538 82.929 99.9493 82.9275C99.9323 82.922 99.9159 82.9136 99.9009 82.9021C99.9296 82.924 99.9635 82.9349 99.997 82.9352ZM97.4005 77.8958L91.3408 73.2695L82.0159 62.7765C82.3578 62.8849 82.6991 62.9392 83.0398 62.9392C83.2597 62.9392 83.4795 62.9166 83.699 62.8714C84.6585 62.6752 85.4406 62.1809 86.0456 61.3886C86.6199 60.6363 86.8749 59.8864 86.8106 59.1389C86.7525 58.4039 86.2493 57.4879 85.3009 56.3908L87.9024 52.9832C88.6317 53.7226 88.7093 54.5359 88.1352 55.4231L89.4591 56.4339C90.4637 54.7957 90.207 53.302 88.6891 51.9527L89.4816 50.9146L88.7595 50.3633L87.967 51.4014C87.2165 50.9282 86.4725 50.6918 85.7349 50.6918C85.593 50.6918 85.4511 50.7005 85.3097 50.718C84.443 50.8343 83.7072 51.2886 83.1024 52.0809C82.0227 53.4951 82.2564 55.0865 83.8035 56.8549L80.9149 60.6387C80.0509 59.7012 80.0001 58.6345 80.7624 57.4385L79.446 56.4335C78.8598 57.3245 78.6022 58.1851 78.6734 59.0152L73.4228 53.1068L74.4673 53.2418L78.3515 48.1542L75.8876 42.2467L69.5397 41.4273L66.5377 45.3591L63.9473 42.4442L68.0881 37.0205L71.3473 35.6607L108.178 63.7793L107.704 67.4443L107.752 67.4808L100.859 76.5097L100.811 76.4732L97.4005 77.8958ZM94.2803 60.3151L90.3963 65.4027L92.8602 71.31L99.208 72.1299L103.092 67.0425L100.628 61.1351L94.2803 60.3151ZM82.841 61.5602C82.4572 61.5601 82.0557 61.4367 81.637 61.19L84.4051 57.5642C84.8905 58.1968 85.1453 58.7208 85.1696 59.1362C85.1976 59.5465 85.0297 59.9899 84.6661 60.4663C84.1092 61.1956 83.501 61.5602 82.841 61.5602ZM84.6936 55.689C84.3454 55.2406 84.1295 54.806 84.046 54.385C83.9614 53.9553 84.1105 53.4896 84.4934 52.9881C84.9443 52.3974 85.4658 52.1021 86.0579 52.1021C86.4107 52.1021 86.7888 52.207 87.1918 52.4168L84.6936 55.689Z" fill="#8F6AE7"/>
<path d="M83.0398 62.9395C82.6991 62.9395 82.3578 62.8852 82.0159 62.7768L81.194 61.8519L78.6734 59.0155C78.6022 58.1854 78.8598 57.3248 79.446 56.4338L80.7624 57.4388C80.0001 58.6348 80.0509 59.7015 80.9149 60.639L83.8035 56.8552C82.2564 55.0868 82.0227 53.4954 83.1024 52.0812C83.7072 51.2888 84.443 50.8346 85.3097 50.7183C85.4511 50.7008 85.593 50.6921 85.7349 50.6921C86.4725 50.6921 87.2165 50.9285 87.967 51.4017L88.7595 50.3636L89.4816 50.9149L88.6891 51.953C90.207 53.3023 90.4637 54.796 89.4591 56.4342L88.1352 55.4234C88.7093 54.5362 88.6317 53.7229 87.9024 52.9835L85.3009 56.3911C86.2493 57.4882 86.7525 58.4042 86.8106 59.1391C86.8749 59.8867 86.6199 60.6366 86.0456 61.3889C85.4406 62.1812 84.6585 62.6755 83.699 62.8717C83.4795 62.9169 83.2597 62.9395 83.0398 62.9395ZM84.4051 57.5645L81.637 61.1903C82.0557 61.437 82.4572 61.5603 82.8411 61.5604C83.501 61.5604 84.1092 61.1959 84.6661 60.4666C85.0297 59.9902 85.1976 59.5468 85.1696 59.1365C85.1453 58.7211 84.8905 58.1971 84.4051 57.5645ZM86.0579 52.1024C85.4658 52.1024 84.9443 52.3977 84.4934 52.9884C84.1105 53.4899 83.9614 53.9556 84.046 54.3853C84.1295 54.8063 84.3454 55.2409 84.6936 55.6893L87.1918 52.4171C86.7888 52.2073 86.4107 52.1024 86.0579 52.1024Z" fill="#BCA2F9"/>
<path d="M74.467 53.2417L73.4225 53.1067L66.5374 45.3591L69.5393 41.4272L75.8873 42.2466L78.3512 48.1542L74.467 53.2417Z" fill="#BCA2F9"/>
<path d="M99.2077 72.1296L92.8599 71.3097L90.396 65.4024L94.28 60.3148L100.628 61.1348L103.092 67.0422L99.2077 72.1296Z" fill="#BCA2F9"/>
<path d="M99.999 82.9352C99.9984 82.9352 99.9979 82.9352 99.9973 82.9352C99.9638 82.9349 99.93 82.924 99.9013 82.9021L91.3411 73.2695L97.4008 77.8958L100.812 76.4732L100.859 76.5097L107.752 67.4808L107.705 67.4443L108.178 63.7793L71.3476 35.6607L68.0884 37.0205L63.9476 42.4442L63.0085 41.3878L66.0956 37.344C66.1214 37.3104 66.1422 37.274 66.1581 37.2365L68.2179 35.4063C68.274 35.4182 68.3301 35.4241 68.3861 35.4241C68.4399 35.4241 68.4937 35.4192 68.5474 35.4073C68.7824 35.36 68.9739 35.2387 69.1221 35.0445C69.2627 34.8601 69.3251 34.6766 69.3093 34.4942C69.3081 34.4775 69.3058 34.4597 69.3025 34.4429L71.3848 32.5921L113.667 64.872C113.738 64.926 113.75 65.0271 113.696 65.0979L100.288 82.6608L100.142 82.8525L100.137 82.8585L100.127 82.8719C100.127 82.8726 100.126 82.8733 100.125 82.874C100.115 82.8869 100.104 82.8977 100.091 82.9066C100.09 82.9074 100.089 82.9082 100.087 82.909C100.061 82.9261 100.031 82.935 100 82.9352C99.9997 82.9352 99.9994 82.9352 99.999 82.9352ZM98.829 79.5565C98.526 80.0171 98.5816 80.4445 98.996 80.8386L98.8034 81.0909L98.9802 81.2259L99.1757 80.9698C99.3541 81.0897 99.5319 81.1495 99.7091 81.1495C99.7629 81.1495 99.8167 81.144 99.8704 81.1329C100.105 81.0849 100.297 80.9638 100.445 80.7699C100.586 80.5857 100.648 80.4021 100.632 80.219C100.618 80.039 100.495 79.8147 100.263 79.5461L100.9 78.7116C101.078 78.8927 101.097 79.0919 100.957 79.3091L101.281 79.5566C101.527 79.1555 101.464 78.7897 101.092 78.4593L101.286 78.2052L101.11 78.0702L100.916 78.3243C100.732 78.2085 100.55 78.1506 100.369 78.1506C100.334 78.1506 100.299 78.1527 100.265 78.157C100.053 78.1855 99.8725 78.2967 99.7243 78.4908C99.46 78.8371 99.5172 79.2267 99.896 79.6598L99.1887 80.5863C98.9771 80.3567 98.9647 80.0955 99.1513 79.8026L98.829 79.5565ZM108.341 69.0909C108.189 69.0909 108.038 69.1592 107.939 69.289L102.653 76.2131C102.484 76.434 102.527 76.7526 102.748 76.9212C102.839 76.9908 102.946 77.0243 103.053 77.0243C103.206 77.0243 103.357 76.9561 103.456 76.8262L108.742 69.9021C108.911 69.6812 108.868 69.3626 108.647 69.194C108.556 69.1245 108.448 69.0909 108.341 69.0909ZM109.349 65.7766C109.046 66.2372 109.102 66.6645 109.516 67.0587L109.324 67.311L109.5 67.446L109.696 67.19C109.874 67.3097 110.052 67.3696 110.229 67.3696C110.283 67.3696 110.337 67.3641 110.391 67.353C110.626 67.305 110.817 67.184 110.965 66.9899C111.106 66.8057 111.168 66.6221 111.153 66.439C111.138 66.2592 111.015 66.0348 110.783 65.7661L111.42 64.9317C111.599 65.1129 111.618 65.3119 111.477 65.5292L111.801 65.7767C112.047 65.3756 111.984 65.0098 111.613 64.6794L111.807 64.4253L111.63 64.2902L111.436 64.5444C111.252 64.4285 111.07 64.3706 110.889 64.3706C110.854 64.3706 110.82 64.3728 110.785 64.3771C110.573 64.4056 110.393 64.5168 110.245 64.7108C109.98 65.0572 110.037 65.4467 110.416 65.8798L109.709 66.8063C109.497 66.5768 109.485 66.3156 109.672 66.0227L109.349 65.7766ZM74.9313 36.5255C74.8303 36.5255 74.7303 36.5709 74.6648 36.6567C74.5531 36.8036 74.5814 37.0146 74.7277 37.126L105.874 60.9048C105.934 60.9509 106.006 60.973 106.077 60.973C106.177 60.973 106.277 60.9278 106.343 60.8419C106.455 60.6956 106.426 60.4845 106.28 60.3728L75.1337 36.5945C75.0735 36.5482 75.0022 36.5255 74.9313 36.5255Z" fill="#BCA2F9"/>
<path d="M68.386 35.4238C68.33 35.4238 68.2739 35.4179 68.2178 35.4061L69.3025 34.4427C69.3057 34.4595 69.308 34.4772 69.3093 34.494C69.325 34.6764 69.2626 34.8598 69.122 35.0442C68.9738 35.2384 68.7823 35.3597 68.5473 35.4071C68.4936 35.4189 68.4398 35.4238 68.386 35.4238Z" fill="#8F6AE7"/>
<path d="M99.6606 80.8121C99.5666 80.8121 99.4683 80.7819 99.3657 80.7215L100.043 79.8337C100.162 79.9886 100.225 80.1169 100.231 80.2186C100.238 80.3191 100.196 80.4277 100.107 80.5443C99.9711 80.7229 99.8222 80.8121 99.6606 80.8121ZM100.114 79.3745C100.029 79.2647 99.976 79.1583 99.9556 79.0552C99.9349 78.9499 99.9714 78.836 100.065 78.7131C100.176 78.5685 100.303 78.4962 100.448 78.4962C100.535 78.4962 100.627 78.5219 100.726 78.5733L100.114 79.3745ZM110.181 67.0322C110.087 67.0322 109.989 67.002 109.886 66.9416L110.564 66.0537C110.683 66.2086 110.745 66.3369 110.751 66.4387C110.758 66.5392 110.717 66.6477 110.628 66.7644C110.491 66.943 110.342 67.0322 110.181 67.0322ZM110.634 65.5945C110.549 65.4848 110.496 65.3784 110.476 65.2752C110.455 65.17 110.492 65.056 110.585 64.9333C110.696 64.7886 110.824 64.7162 110.969 64.7162C111.055 64.7162 111.147 64.742 111.246 64.7933L110.634 65.5945Z" fill="#BCA2F9"/>
<path d="M109.5 67.4462L109.324 67.3112L109.516 67.0588C109.102 66.6647 109.046 66.2373 109.349 65.7767L109.672 66.0229C109.485 66.3157 109.497 66.5769 109.709 66.8065L110.416 65.88C110.037 65.4469 109.98 65.0573 110.244 64.711C110.393 64.5169 110.573 64.4057 110.785 64.3772C110.82 64.373 110.854 64.3708 110.889 64.3708C111.07 64.3708 111.252 64.4287 111.436 64.5446L111.63 64.2903L111.807 64.4254L111.613 64.6795C111.984 65.01 112.047 65.3757 111.801 65.7768L111.477 65.5293C111.617 65.3121 111.598 65.113 111.42 64.9319L110.783 65.7663C111.015 66.035 111.138 66.2593 111.153 66.4392C111.168 66.6223 111.106 66.8059 110.965 66.9901C110.817 67.1842 110.626 67.3052 110.391 67.3532C110.337 67.3642 110.283 67.3697 110.229 67.3697C110.052 67.3697 109.874 67.3099 109.696 67.1902L109.5 67.4462ZM110.564 66.0536L109.886 66.9415C109.988 67.0019 110.087 67.0321 110.181 67.0321C110.342 67.0321 110.491 66.9429 110.627 66.7643C110.717 66.6476 110.758 66.5391 110.751 66.4386C110.745 66.3368 110.682 66.2085 110.564 66.0536ZM110.968 64.7161C110.823 64.7161 110.696 64.7885 110.585 64.9332C110.491 65.0559 110.455 65.1699 110.476 65.2751C110.496 65.3783 110.549 65.4847 110.634 65.5944L111.246 64.7932C111.147 64.7419 111.055 64.7161 110.968 64.7161Z" fill="#8F6AE7"/>
<path d="M98.9796 81.226L98.8028 81.091L98.9955 80.8386C98.5811 80.4445 98.5255 80.0171 98.8285 79.5565L99.1508 79.8027C98.9642 80.0955 98.9766 80.3567 99.1882 80.5863L99.8955 79.6598C99.5167 79.2267 99.4595 78.8371 99.7238 78.4908C99.8719 78.2967 100.052 78.1855 100.264 78.157C100.299 78.1528 100.334 78.1506 100.368 78.1506C100.549 78.1506 100.731 78.2085 100.915 78.3243L101.109 78.0702L101.286 78.2052L101.092 78.4593C101.463 78.7898 101.526 79.1555 101.28 79.5566L100.956 79.3091C101.097 79.0919 101.078 78.8927 100.899 78.7117L100.262 79.5461C100.494 79.8147 100.618 80.039 100.632 80.219C100.648 80.4021 100.585 80.5857 100.445 80.7699C100.296 80.9639 100.105 81.0849 99.8699 81.133C99.8161 81.144 99.7624 81.1495 99.7086 81.1495C99.5314 81.1495 99.3536 81.0897 99.1752 80.9699L98.9796 81.226ZM100.043 79.8334L99.365 80.7213C99.4676 80.7816 99.5659 80.8119 99.6598 80.8119C99.8215 80.8119 99.9704 80.7227 100.107 80.5441C100.196 80.4274 100.237 80.3189 100.23 80.2184C100.224 80.1166 100.162 79.9883 100.043 79.8334ZM100.448 78.4959C100.303 78.4959 100.175 78.5683 100.064 78.7129C99.9706 78.8357 99.9342 78.9497 99.9549 79.0549C99.9753 79.1581 100.028 79.2645 100.113 79.3743L100.725 78.573C100.626 78.5217 100.534 78.4959 100.448 78.4959Z" fill="#8F6AE7"/>
<path d="M106.077 60.9729C106.006 60.9729 105.934 60.9507 105.874 60.9047L74.7277 37.1259C74.5813 37.0145 74.553 36.8035 74.6648 36.6565C74.7303 36.5707 74.8303 36.5254 74.9313 36.5254C75.0022 36.5254 75.0735 36.5481 75.1337 36.5944L106.28 60.3727C106.426 60.4844 106.455 60.6954 106.343 60.8418C106.277 60.9276 106.177 60.9729 106.077 60.9729Z" fill="#8F6AE7"/>
<path d="M63.0078 41.3878L62.4438 40.7528C62.4364 40.7439 62.43 40.736 62.4247 40.7262C62.4139 40.7074 62.4072 40.6877 62.4045 40.667C62.4031 40.6571 62.4028 40.6463 62.4034 40.6364C62.4045 40.6157 62.4097 40.595 62.4187 40.5763C62.4277 40.5575 62.4405 40.5398 62.4572 40.525L66.1574 37.2365C66.1415 37.2739 66.1207 37.3104 66.0949 37.3439L63.0078 41.3878Z" fill="#8F6AE7"/>
<path d="M103.053 77.0244C102.946 77.0244 102.839 76.9909 102.748 76.9214C102.527 76.7528 102.484 76.4342 102.653 76.2133L107.939 69.2891C108.038 69.1593 108.189 69.091 108.341 69.091C108.448 69.091 108.556 69.1246 108.647 69.1941C108.868 69.3628 108.911 69.6814 108.742 69.9022L103.456 76.8263C103.357 76.9562 103.206 77.0244 103.053 77.0244Z" fill="#8F6AE7"/>
<path d="M99.9012 82.9021L64.1304 39.3131C64.0739 39.2441 64.0838 39.1425 64.1527 39.0863L81.4389 24.9007C81.5077 24.8435 81.6093 24.8544 81.6657 24.9224L117.436 68.5119C117.494 68.5808 117.483 68.6823 117.415 68.7388L100.128 82.9245C100.059 82.9809 99.9577 82.971 99.9012 82.9021Z" fill="#AE8FF7"/>
<path d="M87.1068 57.5782C88.0612 58.4926 89.0993 58.4895 90.221 57.569C90.6844 57.1888 90.9495 56.7958 91.0164 56.3899C91.0882 55.9801 90.9604 55.4116 90.633 54.6845L87.1068 57.5782ZM91.3443 52.9255L94.5266 50.314C93.6052 49.5194 92.686 49.4984 91.7692 50.2508C91.2814 50.6511 91.0294 51.0701 91.0132 51.5078C90.9978 51.9366 91.1082 52.4092 91.3443 52.9255ZM91.7743 53.7479C92.4456 55.0335 92.7251 56.0405 92.613 56.7691C92.5041 57.5115 92.0837 58.1829 91.3521 58.7832C90.5815 59.4157 89.7068 59.7172 88.7279 59.688C87.7668 59.6606 86.8972 59.2275 86.1192 58.3888L85.1022 59.2233L84.5259 58.5209L85.5282 57.6984C84.2504 55.7435 84.4295 53.9927 86.0658 52.4459L87.1165 53.7261C86.1 54.7154 85.9047 55.7653 86.5305 56.8759L90.2103 53.8561C89.1103 51.7797 89.248 50.1773 90.6233 49.0486C91.394 48.4163 92.2144 48.1429 93.0846 48.2286C93.9628 48.3241 94.7726 48.749 95.5142 49.5035L96.5238 48.675L97.1001 49.3774L96.0906 50.2059C97.2583 51.8675 97.1653 53.3802 95.8115 54.7442L94.755 53.4566C95.5174 52.7248 95.6285 51.9153 95.0883 51.0284L91.7743 53.7479Z" fill="#C4ADFB"/>
<path d="M79.8682 35.5661L85.8585 37.8213L86.901 44.1364L81.9532 48.1968L75.9629 45.942L74.9204 39.6267L79.8682 35.5661Z" fill="#C4ADFB"/>
<path d="M99.6136 59.6285L105.604 61.8833L106.646 68.1985L101.699 72.2588L95.7082 70.004L94.6658 63.6889L99.6136 59.6285Z" fill="#C4ADFB"/>
<path d="M102.301 76.9001L102.263 76.8537L98.6164 77.4556L69.2215 41.6363L70.4655 38.331L79.4663 30.9443L82.9506 30.3695L112.346 66.1889L111.044 69.6477L111.082 69.694L102.301 76.9001ZM117.436 68.5119L81.6658 24.9224C81.6093 24.8544 81.5077 24.8435 81.4389 24.9007L64.1527 39.0863C64.0838 39.1425 64.0739 39.2441 64.1304 39.3131L99.9012 82.9021C99.9577 82.971 100.059 82.9809 100.128 82.9245L117.415 68.7388C117.483 68.6823 117.494 68.5808 117.436 68.5119Z" fill="#C4ADFB"/>
<path d="M79.8861 28.9637C80.1198 29.1875 80.374 29.1875 80.6488 28.9617C80.7621 28.869 80.8271 28.7724 80.8435 28.6728C80.8611 28.5722 80.8297 28.4332 80.7496 28.2557L79.8861 28.9637ZM80.9238 27.8248L81.703 27.1848C81.4773 26.9906 81.2523 26.9856 81.0278 27.17C80.9084 27.2676 80.8467 27.3702 80.8427 27.4777C80.839 27.5822 80.866 27.6986 80.9238 27.8248ZM81.0291 28.0259C81.1935 28.3405 81.2619 28.587 81.2344 28.7655C81.2077 28.9479 81.1048 29.1116 80.9256 29.2585C80.737 29.4143 80.5228 29.4873 80.2831 29.4804C80.0477 29.4735 79.8348 29.368 79.6443 29.1629L79.3953 29.367L79.2542 29.1944L79.4996 28.9933C79.1867 28.515 79.2306 28.0861 79.6312 27.7074L79.8885 28.021C79.6396 28.2626 79.5918 28.52 79.745 28.7921L80.6461 28.0526C80.3767 27.5437 80.4104 27.1513 80.7473 26.8752C80.9359 26.7204 81.1369 26.6533 81.3498 26.675C81.5649 26.6977 81.7632 26.8022 81.9448 26.9866L82.192 26.7835L82.3332 26.956L82.0859 27.1582C82.3719 27.5654 82.3491 27.9362 82.0176 28.2705L81.7589 27.9549C81.9456 27.7755 81.9728 27.5773 81.8405 27.3603L81.0291 28.0259Z" fill="#AE8FF7"/>
<path d="M113.281 69.6585C113.515 69.8824 113.769 69.8816 114.044 69.6562C114.157 69.5631 114.222 69.4669 114.239 69.3675C114.257 69.2671 114.225 69.128 114.145 68.9499L113.281 69.6585ZM114.319 68.5192L115.099 67.8797C114.873 67.6851 114.647 67.68 114.423 67.8642C114.304 67.9622 114.242 68.0648 114.238 68.172C114.234 68.277 114.262 68.3927 114.319 68.5192ZM114.424 68.7205C114.589 69.0354 114.657 69.2819 114.629 69.4604C114.603 69.6421 114.5 69.8065 114.321 69.9535C114.132 70.1084 113.918 70.1822 113.679 70.1751C113.443 70.1684 113.23 70.0623 113.04 69.8569L112.791 70.0613L112.649 69.8893L112.895 69.6879C112.582 69.2092 112.626 68.7805 113.026 68.4017L113.284 68.7152C113.035 68.9575 112.987 69.2145 113.14 69.4865L114.042 68.747C113.772 68.2386 113.806 67.8462 114.142 67.5699C114.332 67.415 114.532 67.3481 114.745 67.369C114.961 67.3925 115.159 67.4965 115.34 67.6812L115.588 67.4784L115.729 67.6503L115.481 67.8532C115.767 68.2601 115.745 68.6305 115.413 68.9645L115.154 68.6492C115.341 68.4701 115.368 68.2719 115.236 68.0546L114.424 68.7205Z" fill="#AE8FF7"/>
<path d="M66.4843 39.9617C66.718 40.1856 66.9722 40.1846 67.2469 39.9588C67.3603 39.8661 67.4253 39.7695 67.4416 39.6708C67.4592 39.5703 67.4279 39.4302 67.3478 39.2528L66.4843 39.9617ZM67.5219 38.8218L68.3012 38.1829C68.0755 37.9876 67.8505 37.9827 67.6259 38.1671C67.5065 38.2647 67.4448 38.3673 67.4409 38.4747C67.4371 38.5803 67.4641 38.6956 67.5219 38.8218ZM67.6272 39.023C67.7916 39.3385 67.86 39.5851 67.8326 39.7635C67.8059 39.945 67.703 40.1096 67.5239 40.2566C67.3351 40.4114 67.121 40.4853 66.8813 40.4775C66.6459 40.4715 66.433 40.365 66.2425 40.1599L65.9935 40.3641L65.8523 40.1925L66.0977 39.9903C65.7848 39.5121 65.8287 39.0831 66.2294 38.7045L66.4866 39.0181C66.2378 39.2606 66.1899 39.517 66.3432 39.7892L67.2442 39.0496C66.9749 38.5418 67.0086 38.1493 67.3454 37.8723C67.534 37.7174 67.735 37.6504 67.9481 37.6721C68.1631 37.6948 68.3614 37.7993 68.543 37.9837L68.7902 37.7815L68.9313 37.9531L68.6841 38.1562C68.97 38.5625 68.9473 38.9333 68.6158 39.2675L68.3571 38.952C68.5438 38.7725 68.571 38.5743 68.4387 38.3574L67.6272 39.023Z" fill="#AE8FF7"/>
<path d="M99.8803 80.6565C100.114 80.8804 100.368 80.8796 100.643 80.6542C100.756 80.5611 100.821 80.4649 100.838 80.3655C100.855 80.2651 100.824 80.126 100.744 79.9479L99.8803 80.6565ZM100.918 79.5172L101.697 78.8777C101.472 78.6832 101.246 78.6781 101.022 78.8622C100.903 78.9603 100.841 79.0629 100.837 79.1701C100.833 79.2751 100.86 79.3908 100.918 79.5172ZM101.023 79.7187C101.188 80.0334 101.256 80.28 101.229 80.4584C101.202 80.6401 101.099 80.8046 100.92 80.9515C100.731 81.1064 100.517 81.1803 100.277 81.1731C100.042 81.1664 99.829 81.0604 99.6385 80.855L99.3895 81.0593L99.2483 80.8873L99.4937 80.686C99.1809 80.2072 99.2247 79.7785 99.6254 79.3998L99.8826 79.7133C99.6337 79.9555 99.5859 80.2126 99.7392 80.4845L100.64 79.7451C100.371 79.2367 100.405 78.8443 100.741 78.5679C100.93 78.4131 101.131 78.3461 101.344 78.3671C101.559 78.3905 101.757 78.4945 101.939 78.6793L102.186 78.4764L102.327 78.6484L102.08 78.8513C102.366 79.2582 102.343 79.6285 102.012 79.9625L101.753 79.6473C101.94 79.4681 101.967 79.2699 101.835 79.0527L101.023 79.7187Z" fill="#AE8FF7"/>
<path d="M85.9503 32.0997C86.0926 31.9824 86.3045 32.0041 86.4212 32.1461L111.28 62.4376C111.396 62.5798 111.375 62.7918 111.233 62.9086C111.091 63.0253 110.879 63.0044 110.762 62.8621L85.9039 32.5711C85.7872 32.4281 85.8081 32.2161 85.9503 32.0997Z" fill="#AE8FF7"/>
<path d="M70.3329 44.9164C70.4752 44.7996 70.6871 44.8205 70.8038 44.9628L95.6623 75.2544C95.779 75.3967 95.7581 75.6086 95.6158 75.7253C95.4735 75.8421 95.2616 75.8212 95.1449 75.679L70.2865 45.3873C70.1698 45.245 70.1906 45.0331 70.3329 44.9164Z" fill="#AE8FF7"/>
<path d="M70.0074 36.2584C69.8311 36.0434 69.8627 35.723 70.0774 35.5475L76.8116 30.0205C77.0264 29.845 77.3463 29.8766 77.5226 30.0905C77.6989 30.3055 77.6673 30.626 77.4525 30.8015L70.7184 36.3284C70.5036 36.5039 70.1836 36.4734 70.0074 36.2584Z" fill="#AE8FF7"/>
<path d="M104.044 77.7343C103.868 77.5196 103.899 77.1996 104.114 77.0233L110.848 71.497C111.063 71.3208 111.383 71.3523 111.559 71.5671C111.736 71.7819 111.704 72.1018 111.489 72.2781L104.755 77.8043C104.54 77.9807 104.221 77.9491 104.044 77.7343Z" fill="#AE8FF7"/>
<path d="M107.818 46.7233C107.852 46.7285 107.887 46.7327 107.92 46.7401C107.887 46.7328 107.853 46.7284 107.818 46.7233Z" fill="white"/>
<path d="M107.524 46.7054C107.56 46.7042 107.596 46.7047 107.631 46.7058C107.596 46.7047 107.56 46.7042 107.524 46.7054Z" fill="white"/>
<path d="M108.443 46.9508C108.468 46.9665 108.49 46.986 108.514 47.0031C108.49 46.986 108.468 46.9665 108.443 46.9508Z" fill="white"/>
<path d="M108.67 47.1261C108.698 47.1518 108.724 47.1801 108.751 47.208C108.724 47.18 108.698 47.1519 108.67 47.1261Z" fill="white"/>
<path d="M108.195 46.8231C108.171 46.8131 108.145 46.8069 108.12 46.798C108.145 46.807 108.171 46.813 108.195 46.8231Z" fill="white"/>
<path d="M107.231 46.741C107.263 46.734 107.294 46.731 107.326 46.7259C107.294 46.731 107.263 46.734 107.231 46.741Z" fill="white"/>
<path d="M32.9598 78.6765C32.9837 78.6497 33.0081 78.6233 33.034 78.5981C33.008 78.6235 32.9838 78.6496 32.9598 78.6765Z" fill="white"/>
<path d="M32.5512 79.8319C32.5495 79.7937 32.547 79.7558 32.5478 79.7178C32.547 79.7558 32.5495 79.7936 32.5512 79.8319Z" fill="white"/>
<path d="M108.815 47.284L80.2465 85.9316L32.5618 79.9322C32.5789 80.0862 32.6109 80.2402 32.675 80.39L49.3635 119.368C49.7154 120.189 50.6668 120.571 51.4889 120.219L124.906 88.785C125.728 88.4331 126.109 87.4816 125.757 86.6597L109.069 47.6817C109.004 47.532 108.915 47.4027 108.815 47.284Z" fill="white"/>
<path d="M32.69 79.0934C32.6794 79.1174 32.666 79.14 32.6564 79.1647C32.6658 79.1401 32.6795 79.1174 32.69 79.0934Z" fill="white"/>
<path d="M32.5664 79.5198C32.5706 79.4908 32.572 79.4611 32.5777 79.4326C32.5719 79.4612 32.5707 79.4907 32.5664 79.5198Z" fill="white"/>
<path d="M32.7854 78.9088C32.8035 78.879 32.8241 78.851 32.8442 78.8224C32.824 78.8511 32.8036 78.8789 32.7854 78.9088Z" fill="white"/>
<path d="M33.186 78.4684C33.2114 78.4491 33.2353 78.4284 33.2619 78.4105C33.2351 78.4285 33.2115 78.4491 33.186 78.4684Z" fill="white"/>
<path d="M125.846 87.6535L78.4292 81.6879L50.0205 120.119C50.4505 120.376 50.9928 120.431 51.4887 120.219L124.906 88.7855C125.402 88.5732 125.736 88.1422 125.846 87.6535Z" fill="#F4F4F0"/>
<path d="M114.741 108.288L107.669 115.432L42.7024 51.1093L49.7748 43.9662L114.741 108.288Z" fill="#6A44C5"/>
</svg>
