<svg width="32" height="32" viewBox="0 0 32 32" fill="none" xmlns="http://www.w3.org/2000/svg">
<g clip-path="url(#clip0_73_6107)">
<path d="M14.2305 11.1356C16.3664 11.1356 18.1534 9.61371 18.5644 7.59736H23.9608V9.3665H25.7299V7.59736H27.4991V11.1356H29.2682V5.82821H18.5644C18.1534 3.81185 16.3664 2.28992 14.2305 2.28992C11.7917 2.28992 9.80762 4.27401 9.80762 6.71278C9.80762 9.15155 11.7917 11.1356 14.2305 11.1356ZM14.2305 4.05906C15.6937 4.05906 16.8842 5.24952 16.8842 6.71278C16.8842 8.17604 15.6937 9.3665 14.2305 9.3665C12.7672 9.3665 11.5768 8.17604 11.5768 6.71278C11.5768 5.24952 12.7672 4.05906 14.2305 4.05906Z" fill="white"/>
<path d="M30.4714 15.4532C28.747 13.729 25.9413 13.7289 24.217 15.4532L23.5904 16.0798C23.1434 15.2431 22.2615 14.6723 21.2484 14.6723H18.1274C17.1275 13.5573 15.6802 12.9032 14.1719 12.9032C12.5321 12.9032 10.9648 13.676 9.96571 14.9738L5.54061 19.3989L4.65592 18.5143L0.90332 22.2669L8.34635 29.71L12.099 25.9574L11.2144 25.0728L12.7691 23.5181H23.6575L31.0969 16.0788L30.4714 15.4532ZM8.34635 27.208L3.40525 22.2669L4.65592 21.0162L9.59702 25.9574L8.34635 27.208ZM22.9247 21.749H12.0363L9.96347 23.8218L6.79157 20.6499L11.3035 16.138C11.31 16.1326 12.3312 14.6724 14.1719 14.6724C16.2515 14.6724 17.164 16.3491 17.2679 16.4416H21.2484C21.7362 16.4416 22.133 16.8384 22.133 17.3261C22.133 17.8139 21.7362 18.2107 21.2484 18.2107H15.941V19.9798H21.2484C22.2537 19.9798 23.1301 19.418 23.5803 18.5919L25.4679 16.7043C26.2832 15.889 27.5016 15.7163 28.4876 16.186L22.9247 21.749Z" fill="white"/>
</g>
<defs>
<clipPath id="clip0_73_6107">
<rect width="30.1935" height="30.1935" fill="white" transform="translate(0.90332 0.903198)"/>
</clipPath>
</defs>
</svg>
