<svg width="220" height="224" viewBox="0 0 220 224" fill="none" xmlns="http://www.w3.org/2000/svg">
<path d="M88.9734 2.02832C65.2052 6.65698 43.6284 18.9991 27.5895 37.1405C11.5506 55.2818 1.94602 78.2086 0.265291 102.365C-1.41544 126.521 4.92164 150.557 18.2937 170.745C31.6657 190.933 51.3254 206.144 74.2237 214.019L77.8013 203.618C57.1929 196.53 39.4992 182.839 27.4643 164.67C15.4295 146.502 9.7261 124.869 11.2388 103.128C12.7514 81.3877 21.3956 60.7536 35.8306 44.4264C50.2656 28.0992 69.6847 16.9913 91.0761 12.8255L88.9734 2.02832Z" fill="#AE8FF7"/>
<path d="M84.0406 212.486L67.1562 218.431L76.1577 196.415L84.0406 212.486Z" fill="white" stroke="#AE8FF7" stroke-width="4"/>
</svg>
