<svg width="96" height="96" viewBox="0 0 96 96" fill="none" xmlns="http://www.w3.org/2000/svg">
<path d="M51.3709 62.2549C72.0029 72.3578 87.7818 57.7786 87.7818 57.7786L90.5225 55.0452C91.5775 53.9914 93.3723 54.2515 94.049 55.5802C94.7206 56.8991 95.0557 58.3445 95.0587 59.7916C95.0537 62.1676 94.1537 64.5385 92.3392 66.353L92.4752 66.2172C92.4752 66.2172 95.1026 72.7832 87.4189 75.2608C87.4189 75.2608 89.7172 83.9075 77.7463 87.2948C77.7463 87.2948 76.1157 98.7286 63.7095 93.3481C63.7095 93.3481 62.2611 93.6058 60.0539 93.4503C52.5879 92.9244 46.1488 88.0448 43.2916 81.1271C39.6182 72.233 43.0361 66.6829 51.3709 62.2549Z" fill="#D2BFFF"/>
<path d="M92.4768 66.2168C88.8573 69.107 84.4701 71.0016 79.9305 72.0286C78.7948 72.2999 77.634 72.4448 76.4805 72.614C75.3142 72.6734 74.1551 72.8371 72.9863 72.7637C70.653 72.8018 68.338 72.3586 66.1152 71.7751C68.4261 71.8866 70.6962 71.9989 72.9597 71.8025C75.2184 71.6533 77.4625 71.3438 79.6628 70.8263C81.8707 70.3479 84.0465 69.7046 86.1825 68.9304C88.3127 68.142 90.4228 67.267 92.4768 66.2168Z" fill="#7E6AD3"/>
<path d="M77.7471 87.294C76.4599 87.8436 75.0674 88.1058 73.6757 88.2241C72.2802 88.3472 70.869 88.2978 69.4793 88.1006C68.0934 87.885 66.7168 87.5673 65.4169 87.0377C64.1044 86.5526 62.8736 85.858 61.7539 85.0371C63.1053 85.3995 64.3878 85.8223 65.7056 86.1204C67.0115 86.4466 68.3289 86.6957 69.6531 86.881C70.975 87.093 72.3119 87.1915 73.6566 87.2661C75.0046 87.3289 76.3571 87.3433 77.7471 87.294Z" fill="#7E6AD3"/>
<path d="M33.7477 44.6297C23.6446 23.9978 38.2235 8.2185 38.2235 8.2185L40.9567 5.47759C42.0104 4.42259 41.7504 2.62777 40.4217 1.95115C39.1027 1.27952 37.6574 0.944406 36.2103 0.941406C33.8342 0.946464 31.4634 1.84649 29.6489 3.66103L29.7849 3.52519C29.7849 3.52519 23.2189 0.897799 20.7415 8.58162C20.7415 8.58162 12.0948 6.28344 8.70765 18.2545C8.70765 18.2545 -2.72608 19.8853 2.65459 32.2915C2.65459 32.2915 2.39692 33.7399 2.55241 35.9471C3.07838 43.4132 7.95803 49.8523 14.8758 52.7094C23.7698 56.3827 29.3198 52.9647 33.7477 44.6297Z" fill="#D2BFFF"/>
<path d="M29.7856 3.52539C26.8955 7.14504 25.001 11.5322 23.974 16.072C23.7027 17.2076 23.5578 18.3684 23.3887 19.522C23.3293 20.6883 23.1656 21.8474 23.2391 23.0162C23.201 25.3495 23.6442 27.6645 24.2277 29.8873C24.1162 27.5764 24.0038 25.3063 24.2002 23.0428C24.3494 20.784 24.6588 18.5399 25.1763 16.3396C25.6547 14.1317 26.2979 11.9559 27.0721 9.81984C27.8605 7.68956 28.7355 5.57949 29.7856 3.52539Z" fill="#7E6AD3"/>
<path d="M8.70804 18.2559C8.1584 19.5431 7.89624 20.9356 7.77792 22.3272C7.65492 23.7227 7.70429 25.134 7.90154 26.5237C8.1171 27.9096 8.43479 29.2862 8.96442 30.5861C9.44959 31.8986 10.1441 33.1294 10.9651 34.2491C10.6027 32.8977 10.1799 31.6152 9.88177 30.2974C9.55556 28.9914 9.30639 27.6741 9.12105 26.3498C8.90911 25.028 8.81059 23.691 8.73591 22.3464C8.67313 20.9983 8.65867 19.6458 8.70804 18.2559Z" fill="#7E6AD3"/>
<path d="M57.9888 11.7359L84.2653 38.0114C86.2102 39.9562 86.2102 43.0852 84.2654 45.03L35.6952 93.6016C33.7506 95.5463 30.6214 95.5465 28.6766 93.6017L2.40003 67.3263C0.455158 65.3815 0.45529 62.2523 2.39988 60.3077L50.9701 11.736C52.9149 9.7912 56.0439 9.7911 57.9888 11.7359Z" fill="#7E6AD3"/>
<path d="M37.0787 85.0197C34.5584 82.4994 30.4721 82.4996 27.9518 85.02L10.9727 68.0416C13.493 65.5212 13.493 61.4349 10.9727 58.9147L49.5734 20.3128C52.0938 22.833 56.18 22.8329 58.7003 20.3125L75.6794 37.2909C73.1591 39.8113 73.1591 43.8975 75.6795 46.4178L37.0787 85.0197Z" fill="#D2BFFF"/>
<path d="M63.1674 32.8207C64.907 34.5602 64.9073 37.3935 63.1809 39.12C61.4407 40.8603 58.6212 40.8739 56.881 39.1337C55.1407 37.3935 55.1411 34.5609 56.8675 32.8344C58.6077 31.0941 61.4404 31.0937 63.1674 32.8207Z" fill="#7E6AD3"/>
<path d="M29.7807 66.2074C31.5203 67.947 31.5206 70.7803 29.7942 72.5067C28.054 74.247 25.2345 74.2606 23.4942 72.5204C21.754 70.7803 21.7543 67.9476 23.4807 66.2212C25.221 64.4809 28.0536 64.4804 29.7807 66.2074Z" fill="#7E6AD3"/>
<path d="M51.8913 59.8461C55.8562 55.1018 55.2244 48.0415 50.4801 44.0765C45.7357 40.1116 38.6754 40.7434 34.7105 45.4877C30.7455 50.2321 31.3773 57.2924 36.1216 61.2573C40.866 65.2223 47.9263 64.5905 51.8913 59.8461Z" fill="#7E6AD3"/>
<path d="M48.4165 52.3207C49.1823 53.446 49.0394 54.6039 48.3568 55.7282C48.3013 55.8193 48.242 55.9092 48.1776 56.004C48.0817 56.1457 48.1009 56.3365 48.221 56.4564L48.965 57.1988C49.1042 57.3376 49.1045 57.5651 48.9656 57.7043L48.3873 58.2838C48.2484 58.423 48.0209 58.4232 47.8818 58.2844L47.0555 57.46C46.9328 57.3376 46.7419 57.3213 46.598 57.4201C46.435 57.5328 46.2671 57.6682 46.1016 57.753C44.8118 58.4105 43.2962 58.1809 42.241 57.1633C42.0993 57.0271 42.1003 56.7982 42.2404 56.6578L43.5763 55.3191C43.6975 55.1976 43.8921 55.1797 44.0338 55.2782C44.1881 55.3867 44.3373 55.4902 44.4954 55.5747C45.1505 55.9278 45.9377 55.726 46.3339 55.1087C46.5585 54.7596 46.6226 54.3867 46.3972 54.0129C46.1086 53.5379 45.7126 53.1858 45.13 53.2104C44.7837 53.226 44.4362 53.3465 44.1014 53.4568C43.4267 53.68 42.7736 53.9778 42.0875 54.1568C40.6344 54.5426 39.4521 54.1104 38.6168 52.936C37.7876 51.7678 37.9204 50.5822 38.6042 49.406C38.6055 49.4047 38.6055 49.4047 38.6055 49.4021C38.6862 49.263 38.6633 49.0861 38.5481 48.9712L37.7081 48.133C37.5689 47.9941 37.5686 47.7666 37.7075 47.6274L38.2858 47.0479C38.4247 46.9087 38.6522 46.9085 38.7913 47.0473L39.6074 47.8617C39.7238 47.9778 39.9033 48.0003 40.0422 47.9142C40.8671 47.4115 41.826 47.0679 42.7615 47.2742C43.3418 47.4011 43.8362 47.6748 44.3005 48.0623C44.4599 48.1961 44.469 48.44 44.3213 48.588L42.9678 49.9445C42.8415 50.071 42.6419 50.0839 42.5002 49.9779C42.4344 49.9299 42.3686 49.882 42.3003 49.8365C41.7451 49.4643 41.2597 49.4497 40.8443 49.7852C40.4477 50.104 40.3092 50.5567 40.4714 50.9837C40.6755 51.5156 41.2661 51.9509 41.802 51.8897C42.1798 51.8475 42.5525 51.7194 42.9215 51.6103C43.6884 51.3782 44.4388 51.0639 45.2224 50.9088C46.5858 50.6406 47.6607 51.2081 48.4165 52.3207Z" fill="#D2BFFF"/>
<path d="M20.7402 8.58203C19.7028 10.3042 18.8633 12.2029 18.245 14.144C17.6059 16.0875 17.1725 18.0969 16.8929 20.1265C16.3747 24.1834 16.5377 28.3742 17.7119 32.2797C17.5048 28.2203 17.5815 24.2394 18.1145 20.2867C18.6229 16.3367 19.546 12.4387 20.7402 8.58203Z" fill="#7E6AD3"/>
<path d="M87.4182 75.2598C85.6961 76.2972 83.7973 77.1367 81.8562 77.7551C79.9128 78.3941 77.9034 78.8276 75.8738 79.1072C71.817 79.6255 67.6263 79.4625 63.7207 78.2884C67.7801 78.4954 71.761 78.4187 75.7136 77.8856C79.6636 77.3772 83.5615 76.454 87.4182 75.2598Z" fill="#7E6AD3"/>
</svg>
