<svg width="31" height="32" viewBox="0 0 31 32" fill="none" xmlns="http://www.w3.org/2000/svg">
<g clip-path="url(#clip0_73_6116)">
<path d="M29.6447 11.2624L28.7529 9.86451L28.089 11.384C27.6174 12.4632 26.9366 12.9161 26.3896 13.28C25.7696 13.6924 25.7904 13.7009 25.0915 14.5477C24.6884 15.036 24.3077 15.4973 23.9551 15.8511C23.7001 16.107 23.5301 16.2332 23.4292 16.2949C23.3797 16.203 23.31 16.0418 23.2376 15.7715C23.1667 15.5072 22.9514 14.7031 22.215 14.4646C21.4542 14.218 20.795 14.7536 20.2137 15.2261C20.0604 15.3506 19.9759 15.289 19.9482 15.2688C19.8541 15.2 19.7914 15.0299 19.8976 14.7585C19.9003 14.7516 20.5957 13.3977 20.5989 13.3916C19.8107 13.0528 19.7288 12.9539 18.9562 12.7352C20.5523 10.3538 21.3541 9.11904 21.3541 7.09271C21.3542 3.67977 18.5776 0.903198 15.1648 0.903198C11.752 0.903198 8.97538 3.67977 8.97538 7.09259C8.97538 8.6179 9.43005 9.69355 10.3357 11.1484C8.50543 10.8647 6.63685 10.5857 4.93539 10.3317C2.25866 9.93209 2.18141 9.91794 1.40811 9.80141C1.26345 10.6293 1.24511 10.9174 0.713714 13.6874C0.0674995 17.0559 -0.359398 19.2813 0.844336 21.3011C1.93974 23.1391 4.26813 24.6587 9.74219 27.1081C11.8528 28.0526 12.3419 28.6293 12.8149 29.1871C13.1446 29.5758 13.5183 30.0165 14.285 30.4862L15.2605 31.0838C15.5511 30.0633 15.6337 29.9934 15.8405 28.9666C15.8814 28.7636 15.9374 28.4857 15.9779 28.4281C15.9818 28.4246 16.0796 28.3424 16.5455 28.2696C18.0303 28.0378 19.1318 27.7556 19.936 27.5496C21.0828 27.2558 21.5633 27.144 21.9402 27.3279C22.4498 27.5764 23.1247 28.4394 24.1918 29.9447L25.0085 31.0969L25.6883 29.859C26.2461 28.8431 26.3011 27.9298 25.8669 26.898C25.2608 25.4576 25.5986 24.8857 26.1582 23.9382C26.6444 23.115 27.2494 22.0906 27.2357 20.4185C27.2241 18.9957 27.7247 17.836 28.724 16.9716C29.1459 16.6065 29.3733 15.9863 29.672 15.0819C29.7726 14.7773 29.8767 14.4623 29.957 14.3022C30.4387 13.3413 30.3367 12.3471 29.6447 11.2624ZM15.1647 2.67165C17.6024 2.67165 19.5857 4.65493 19.5857 7.09265C19.5857 8.62085 18.9886 9.51133 17.393 11.8913C16.7761 12.8113 16.0409 13.9078 15.1648 15.3086C14.2852 13.902 13.5485 12.8028 12.9304 11.8807C11.3392 9.50643 10.7437 8.61808 10.7437 7.09265C10.7437 4.65493 12.7269 2.67165 15.1647 2.67165ZM27.9928 14.5271C27.8819 14.8629 27.6771 15.483 27.5495 15.6492C26.1713 16.8499 25.4514 18.5035 25.4673 20.4329C25.477 21.614 25.0682 22.306 24.6354 23.0388C24.0891 23.9637 23.4798 24.9952 23.9363 26.715C23.5079 26.2474 23.1265 25.939 22.7152 25.7384C21.7388 25.2622 20.8471 25.4908 19.4971 25.8365C18.6847 26.0446 17.6736 26.3036 16.2725 26.5224C15.2026 26.6894 14.5068 27.0606 14.2206 28.1105C14.2018 28.0884 14.1827 28.0659 14.1634 28.0432C13.5906 27.3678 12.9415 26.6024 10.4643 25.4939C5.4317 23.242 3.23606 21.8603 2.36322 20.3958C1.50382 18.9538 1.84002 17.2016 2.4502 14.0206C2.57894 13.3495 2.72041 12.6119 2.8623 11.8097C3.43851 11.8962 4.04563 11.9869 4.67409 12.0807C6.8692 12.4084 9.34289 12.7778 11.6485 13.1444C12.3926 14.2558 13.3007 15.6245 14.4082 17.4535L15.1645 18.7026L15.9209 17.4535C16.6749 16.2082 17.3372 15.1759 17.9184 14.2926C18.0086 14.3144 18.0924 14.3352 18.1697 14.355C17.914 15.2597 18.194 16.1775 18.9053 16.6968C19.6307 17.2265 20.6047 17.1869 21.3289 16.5983C21.3959 16.5438 21.4856 16.471 21.5768 16.4C21.7233 16.9023 22.088 17.8809 23.0219 18.0841C24.3298 18.3685 25.475 16.8609 26.4552 15.6734C27.0903 14.904 26.9731 15.0156 27.3689 14.7524C27.5734 14.6163 27.8233 14.4501 28.0907 14.2329C28.0584 14.3287 28.0258 14.4272 27.9928 14.5271Z" fill="white"/>
<path d="M15.1653 4.44031C13.7027 4.44031 12.5127 5.63024 12.5127 7.09292C12.5127 8.55554 13.7026 9.74554 15.1653 9.74554C16.6279 9.74554 17.8179 8.5556 17.8179 7.09292C17.8179 5.6303 16.6279 4.44031 15.1653 4.44031ZM15.1653 7.97709C14.6778 7.97709 14.2811 7.58044 14.2811 7.09286C14.2811 6.60528 14.6777 6.20864 15.1653 6.20864C15.6529 6.20864 16.0495 6.60528 16.0495 7.09286C16.0495 7.58044 15.6528 7.97709 15.1653 7.97709Z" fill="white"/>
</g>
<defs>
<clipPath id="clip0_73_6116">
<rect width="30.1935" height="30.1935" fill="white" transform="translate(0.0710449 0.903198)"/>
</clipPath>
</defs>
</svg>
