<svg width="155" height="156" viewBox="0 0 155 156" fill="none" xmlns="http://www.w3.org/2000/svg">
<mask id="mask0_467_27021" style="mask-type:alpha" maskUnits="userSpaceOnUse" x="0" y="0" width="155" height="156">
<circle cx="77.5004" cy="77.9999" r="76.9194" fill="#AE8FF7" stroke="#AE8FF7"/>
</mask>
<g mask="url(#mask0_467_27021)">
<circle cx="77.5004" cy="77.9999" r="77.4194" fill="#DCCEFF"/>
</g>
<g clip-path="url(#clip0_467_27021)">
<path d="M41.1156 83.8176C51.1206 83.8176 59.2313 75.6475 59.2313 65.5692C59.2313 55.4909 51.1206 47.3208 41.1156 47.3208C31.1106 47.3208 23 55.4909 23 65.5692C23 75.6475 31.1106 83.8176 41.1156 83.8176Z" fill="#936FE9"/>
<path d="M41.1161 47.3208C39.589 47.3208 38.1061 47.5112 36.6895 47.8695C44.5547 49.8592 50.3787 57.0292 50.3787 65.5692C50.3787 74.1092 44.5549 81.279 36.6895 83.2689C38.1061 83.6273 39.589 83.8176 41.1161 83.8176C51.1212 83.8176 59.2317 75.6475 59.2317 65.5692C59.2317 55.4909 51.1212 47.3208 41.1161 47.3208Z" fill="#7732EF"/>
<path d="M78.0004 59.4973C88.0054 59.4973 96.116 51.3272 96.116 41.2489C96.116 31.1706 88.0054 23.0005 78.0004 23.0005C67.9954 23.0005 59.8848 31.1706 59.8848 41.2489C59.8848 51.3272 67.9954 59.4973 78.0004 59.4973Z" fill="#936FE9"/>
<path d="M77.9999 23.0005C76.4728 23.0005 74.9899 23.1908 73.5732 23.5492C81.4385 25.5389 87.2624 32.7086 87.2624 41.2489C87.2624 49.7889 81.4387 56.9587 73.5732 58.9486C74.9899 59.3069 76.4728 59.4973 77.9999 59.4973C88.0049 59.4973 96.1155 51.3272 96.1155 41.2489C96.1155 31.1706 88.0049 23.0005 77.9999 23.0005Z" fill="#7732EF"/>
<path d="M114.885 83.8175C124.89 83.8175 133.001 75.6474 133.001 65.5691C133.001 55.4908 124.89 47.3207 114.885 47.3207C104.88 47.3207 96.7695 55.4908 96.7695 65.5691C96.7695 75.6474 104.88 83.8175 114.885 83.8175Z" fill="#936FE9"/>
<path d="M114.885 47.3209C113.358 47.3209 111.875 47.5113 110.458 47.8696C118.323 49.8593 124.147 57.0291 124.147 65.5693C124.147 74.1096 118.323 81.2791 110.458 83.2688C111.875 83.6272 113.358 83.8175 114.885 83.8175C124.89 83.8175 133 75.6474 133 65.5691C133 55.4908 124.89 47.3209 114.885 47.3209Z" fill="#7732EF"/>
<path d="M42.9905 58.0803C42.9849 58.0652 42.9789 58.0504 42.9729 58.0354C42.6669 57.286 41.9401 56.8047 41.1383 56.8032C40.3296 56.8041 39.6106 57.2892 39.3061 58.0392C39.3012 58.0515 39.2962 58.0639 39.2917 58.0764L33.9935 72.0894C33.6693 72.9468 34.1015 73.9048 34.959 74.229C35.1523 74.3022 35.3506 74.3368 35.5457 74.3368C36.216 74.3368 36.8477 73.9278 37.0986 73.2635L38.0125 70.8463H44.2278L45.1316 73.2588C45.4532 74.1173 46.4099 74.5523 47.2684 74.2309C48.127 73.9093 48.5622 72.9526 48.2406 72.0941L42.9905 58.0803ZM39.2679 67.5263L41.1344 62.5894L42.984 67.5263H39.2679Z" fill="white"/>
<path d="M82.3538 40.1803C82.8884 39.391 83.2012 38.4382 83.2012 37.4134C83.2012 34.6947 81.0001 32.4829 78.2946 32.4829H74.196C73.2793 32.4829 72.5361 33.2261 72.5361 34.1428V48.356C72.5361 48.7975 72.7121 49.221 73.0249 49.5325C73.3362 49.8423 73.7571 50.0161 74.196 50.0161H74.2035C74.204 50.0161 77.9719 49.9991 79.0105 49.9991C82.02 49.9991 84.4683 47.5383 84.4683 44.5135C84.4683 42.7537 83.6397 41.1849 82.3538 40.1803ZM78.2948 35.8029C79.1696 35.8029 79.8814 36.5254 79.8814 37.4134C79.8814 38.3015 79.1697 39.0238 78.289 39.0238L77.2111 39.0277H75.8561V35.8029H78.2948ZM79.0105 46.6791C78.4314 46.6791 77.0075 46.6845 75.8559 46.689V42.3524L77.2176 42.3477H79.0105C80.1893 42.3477 81.1484 43.3192 81.1484 44.5135C81.1484 45.7076 80.1893 46.6791 79.0105 46.6791Z" fill="white"/>
<path d="M120.693 69.3944C119.989 68.8078 118.942 68.9034 118.355 69.6081C118.229 69.76 118.093 69.9016 117.95 70.0296C117.22 70.6845 116.29 71.0164 115.187 71.0164C112.212 71.0164 109.792 68.573 109.792 65.5697C109.792 62.5664 112.212 60.123 115.187 60.123C116.266 60.123 117.307 60.4431 118.197 61.049C118.955 61.5646 119.988 61.3682 120.503 60.6105C121.019 59.8525 120.823 58.8202 120.065 58.3043C118.622 57.3223 116.935 56.8032 115.187 56.8032C110.381 56.8032 106.472 60.7359 106.472 65.5697C106.472 70.4035 110.381 74.3362 115.187 74.3362C117.106 74.3362 118.829 73.7015 120.167 72.5008C120.429 72.2657 120.678 72.0073 120.907 71.7321C121.493 71.0276 121.398 69.9811 120.693 69.3944Z" fill="white"/>
<path d="M68.9002 133.001V123.729L49.0822 100.602C45.7588 96.5385 51.0873 90.7831 55.3967 93.87L68.9 105.835C68.9 105.835 68.8841 60.7045 68.8794 59.5472C68.8545 53.3715 78.4747 53.3743 78.4747 59.5495V90.1684V85.7854C78.4747 79.6617 87.9852 79.6886 87.9852 85.7854V88.1053V88.0776C87.9852 81.9498 97.4957 82.1423 97.4957 88.3068V95.4407V91.2869C97.4957 85.1256 107.062 85.2242 107.062 91.7454L107.072 110.106C107.072 113.894 105.658 117.543 103.112 120.33L99.9626 123.729L99.9561 133.001H68.9002Z" fill="#FFBE9E"/>
<path d="M107.063 91.7458C107.063 85.5993 98.5645 85.1584 97.588 90.2874C97.7034 90.7315 97.7663 91.2175 97.7663 91.7458L97.7762 110.106C97.7762 113.894 96.3628 117.543 93.8162 120.331L90.667 123.729L90.6602 133.001H99.9569L99.9635 123.729L103.113 120.331C105.659 117.543 107.073 113.894 107.073 110.106L107.063 91.7458Z" fill="#FAA176"/>
<path d="M87.9861 86.4183C87.0693 86.4183 86.3262 87.1615 86.3262 88.0782V92.4501C86.3262 93.3668 87.0693 94.11 87.9861 94.11C88.9028 94.11 89.6459 93.3668 89.6459 92.4501V88.0782C89.6459 87.1615 88.9028 86.4183 87.9861 86.4183Z" fill="#EB8C5E"/>
<path d="M78.5017 83.8168C77.5849 83.8168 76.8418 84.5599 76.8418 85.4767V89.8485C76.8418 90.7653 77.5849 91.5084 78.5017 91.5084C79.4184 91.5084 80.1616 90.7653 80.1616 89.8485V85.4767C80.1616 84.5599 79.4184 83.8168 78.5017 83.8168Z" fill="#EB8C5E"/>
<path d="M97.7761 88.981C96.8594 88.981 96.1162 89.7241 96.1162 90.6408V95.0127C96.1162 95.9294 96.8594 96.6726 97.7761 96.6726C98.6928 96.6726 99.436 95.9294 99.436 95.0127V90.6408C99.436 89.7241 98.6928 88.981 97.7761 88.981Z" fill="#EB8C5E"/>
</g>
<defs>
<clipPath id="clip0_467_27021">
<rect width="110" height="110" fill="white" transform="translate(23 23.0005)"/>
</clipPath>
</defs>
</svg>
