<svg width="60" height="60" viewBox="0 0 60 60" fill="none" xmlns="http://www.w3.org/2000/svg">
<path fill-rule="evenodd" clip-rule="evenodd" d="M22.8885 18.8262C16.1637 24.783 12.0417 31.4334 9.85887 38.3886C8.93727 41.7126 8.76807 45.0534 8.40687 48.6006C8.30247 49.617 8.34327 50.6754 8.18607 51.7302C7.89687 53.6562 3.87327 57.171 4.93047 58.8114C5.77527 60.1218 7.59207 59.4078 11.1441 58.6038C15.4485 57.6882 17.7921 58.953 20.9433 59.2458C25.9797 60.2502 34.0233 60.2502 39.0609 59.2458C42.2109 58.9518 44.5557 57.6882 48.8601 58.6038C52.4121 59.4078 54.2301 60.123 55.0737 58.8114C56.1297 57.171 52.1061 53.6562 51.8181 51.7302C51.6609 50.6754 51.7005 49.617 51.5973 48.6006C51.2349 45.0534 51.0669 41.7126 50.1441 38.3886C47.9613 31.4334 44.1453 24.417 37.1145 18.8262C35.4573 17.5086 34.3089 14.7918 35.7969 12.8874L41.3325 5.805C41.9409 5.127 42.4005 4.5642 42.1653 4.197C41.9313 3.8298 41.4693 4.0206 40.3449 4.029C39.0321 4.1646 38.0697 4.0242 37.6785 3.4362C32.6289 -1.1454 27.3753 -1.1454 22.3257 3.4362C21.9345 4.0242 20.9721 4.1646 19.6593 4.029C18.5349 4.0206 18.0729 3.8298 17.8389 4.197C17.6037 4.5642 18.0633 5.127 18.6717 5.805L24.2073 12.8874C25.5201 14.5698 24.2661 17.6046 22.8885 18.8262Z" fill="#AE8FF7"/>
<path fill-rule="evenodd" clip-rule="evenodd" d="M31.4965 16.2277C31.9501 17.7841 33.6433 19.4497 34.5841 20.7121C35.0317 21.3121 36.1645 23.8045 35.0953 24.3649C33.8593 25.0129 32.3425 22.4689 31.9897 21.6445C31.6933 20.9533 30.8761 17.7853 30.1669 17.2369C28.7017 18.3373 28.2385 21.0961 27.2101 22.4185C26.8237 22.9153 25.6501 24.6457 24.8437 24.1237C24.0385 23.6041 25.1233 21.8401 25.4161 21.2857C25.8037 20.5525 26.3869 19.8301 26.8549 19.1377C27.5557 18.0997 28.1329 17.0425 28.5961 15.8761L28.6129 15.8329L28.6369 15.7933C28.9405 15.2341 25.5829 10.9585 25.1677 10.0189C24.9493 9.52331 23.2045 6.02531 24.8437 6.13331C25.4869 6.17651 26.3629 7.66451 26.6797 8.14811C28.0441 10.2301 28.2913 12.6205 30.1957 14.5189C31.3525 13.4653 32.0173 10.5481 33.0793 9.15251C33.5017 8.59691 35.3701 6.12731 36.0769 7.47491C36.5305 8.34011 34.2349 10.5457 33.7501 11.6353C33.0385 13.2349 32.5225 14.7913 31.4965 16.2277ZM29.7925 57.5257C5.94012 57.5257 11.7805 42.0601 13.6105 29.9377C11.9965 32.6833 10.7605 35.5093 9.85692 38.3869C8.93532 41.7109 8.76612 45.0517 8.40492 48.5989C8.30052 49.6153 8.34132 50.6737 8.18412 51.7285C7.89492 53.6545 3.87132 57.1693 4.92852 58.8097C5.77332 60.1201 7.59012 59.4061 11.1421 58.6021C15.4465 57.6865 17.7901 58.9513 20.9413 59.2441C25.9777 60.2485 34.0213 60.2485 39.0589 59.2441C42.2089 58.9501 44.5537 57.6865 48.8581 58.6021C52.4101 59.4061 54.2281 60.1213 55.0717 58.8097C56.1277 57.1693 52.1041 53.6545 51.8161 51.7285C51.6589 50.6737 51.6985 49.6153 51.5953 48.5989C51.2329 45.0517 51.0649 41.7109 50.1421 38.3869C49.2805 35.6425 48.1645 32.8885 46.6969 30.2161C47.7085 40.5121 53.3257 57.5257 29.7925 57.5257Z" fill="#7E6AD3"/>
<path fill-rule="evenodd" clip-rule="evenodd" d="M23.6777 4.55748C29.3993 3.06708 31.1513 7.27908 36.5825 4.52148C36.3605 4.44228 36.1901 4.32228 36.0797 4.15548C32.2049 0.638278 28.1729 0.638278 24.2981 4.15548C24.1685 4.34988 23.9573 4.48068 23.6777 4.55748Z" fill="#5D4EB5"/>
<path d="M24.6923 15C24.5495 14.7888 24.4799 14.5272 24.5135 14.2536C24.5867 13.6524 25.1351 13.224 25.7375 13.2972L34.6235 14.1648C35.0939 14.2212 35.4575 14.568 35.5595 15.0048C36.1223 15.0528 36.5627 15.5244 36.5627 16.0992C36.5627 16.7064 36.0707 17.1972 35.4647 17.1972H24.5387C23.9315 17.1972 23.4395 16.7052 23.4395 16.0992C23.4395 15.4932 23.9315 15 24.5387 15H24.6923Z" fill="white"/>
<path opacity="0.3" fill-rule="evenodd" clip-rule="evenodd" d="M24.5367 15.4104H35.4627C35.9991 15.4104 36.4455 15.7956 36.5427 16.3032C36.5547 16.2372 36.5607 16.1688 36.5607 16.0992C36.5607 15.492 36.0687 15 35.4627 15H24.5367C23.9295 15 23.4375 15.492 23.4375 16.0992C23.4375 16.1688 23.4447 16.2384 23.4567 16.3032C23.5539 15.7956 24.0015 15.4104 24.5367 15.4104Z" fill="#B08C7D"/>
<path d="M15 39H17.672C18.3319 39 18.866 39.186 19.2743 39.5581C19.6856 39.9302 19.8913 40.42 19.8913 41.0274C19.8913 41.632 19.6797 42.1218 19.2565 42.4966C18.8334 42.8687 18.283 43.0547 17.6054 43.0547H16.3404V44.922H15V39ZM16.3404 39.9808V42.0862H17.3125C17.6971 42.0862 17.996 41.9945 18.2091 41.8112C18.4221 41.6279 18.5286 41.368 18.5286 41.0315C18.5286 40.6949 18.4221 40.4364 18.2091 40.2558C17.999 40.0725 17.7016 39.9808 17.3169 39.9808H16.3404Z" fill="white"/>
<path d="M20.5881 44.922V40.4036H21.8398V41.212H21.8664C21.9493 40.9357 22.0913 40.7237 22.2925 40.5759C22.4937 40.4254 22.7393 40.3502 23.0293 40.3502C23.1743 40.3502 23.2956 40.3653 23.3933 40.3953V41.4583C23.2779 41.409 23.1225 41.3844 22.9272 41.3844C22.5988 41.3844 22.3428 41.4733 22.1593 41.6512C21.9759 41.829 21.8842 42.0766 21.8842 42.394V44.922H20.5881Z" fill="white"/>
<path d="M25.9809 41.2202C25.685 41.2202 25.4379 41.3105 25.2397 41.4911C25.0444 41.6717 24.9349 41.907 24.9112 42.197H27.0195C27.0077 41.9015 26.9071 41.6648 26.7177 41.487C26.5283 41.3092 26.2827 41.2202 25.9809 41.2202ZM27.0373 43.5431H28.2312C28.1602 43.9808 27.922 44.3338 27.5166 44.6019C27.1113 44.8673 26.6112 45 26.0164 45C25.2737 45 24.6878 44.7934 24.2588 44.3803C23.8327 43.9672 23.6196 43.4008 23.6196 42.6813C23.6196 41.9617 23.8312 41.3899 24.2543 40.9658C24.6804 40.539 25.2515 40.3256 25.9676 40.3256C26.6718 40.3256 27.2311 40.528 27.6454 40.933C28.0626 41.3379 28.2712 41.8837 28.2712 42.5705V42.9398H24.8979V43.0137C24.8979 43.3393 25.003 43.6033 25.213 43.8057C25.4231 44.0055 25.6983 44.1053 26.0386 44.1053C26.2842 44.1053 26.4958 44.0561 26.6733 43.9576C26.8538 43.8564 26.9751 43.7182 27.0373 43.5431Z" fill="white"/>
<path d="M33.9081 44.922H32.5677V40.0219H30.6946V39H35.7856V40.0219H33.9081V44.922Z" fill="white"/>
<path d="M37.4146 44.1012C37.7193 44.1012 37.9753 44.0233 38.1824 43.8673C38.3896 43.7086 38.4931 43.5075 38.4931 43.264V42.9316L37.4678 42.9973C37.1985 43.0137 36.9929 43.0698 36.8509 43.1655C36.7088 43.2613 36.6378 43.3926 36.6378 43.5595C36.6378 43.7264 36.7074 43.8591 36.8464 43.9576C36.9885 44.0534 37.1778 44.1012 37.4146 44.1012ZM36.9929 44.9754C36.5165 44.9754 36.1229 44.8495 35.8123 44.5978C35.5016 44.3461 35.3462 44.0205 35.3462 43.6211C35.3462 43.2134 35.5104 42.8947 35.8389 42.6648C36.1673 42.435 36.6452 42.3023 37.2725 42.2668L38.4931 42.197V41.8974C38.4931 41.6813 38.4177 41.5157 38.2668 41.4008C38.1158 41.2832 37.9058 41.2244 37.6365 41.2244C37.4057 41.2244 37.2119 41.2763 37.055 41.3803C36.9012 41.4815 36.808 41.6156 36.7754 41.7825H35.5903C35.6081 41.3502 35.8093 41 36.194 40.7319C36.5816 40.461 37.0802 40.3256 37.6897 40.3256C38.3171 40.3256 38.8201 40.4624 39.1988 40.736C39.5776 41.0096 39.767 41.3721 39.767 41.8235V44.922H38.5153V44.2243H38.4887C38.3585 44.4569 38.1558 44.6402 37.8806 44.7743C37.6084 44.9083 37.3125 44.9754 36.9929 44.9754Z" fill="white"/>
<path d="M42.6343 43.342H42.6076L41.6711 44.922H40.304L41.8486 42.6689L40.3174 40.4036H41.7776L42.6742 41.9425H42.7008L43.593 40.4036H45L43.4643 42.6402L44.9911 44.922H43.5752L42.6343 43.342Z" fill="white"/>
</svg>
