<svg width="35" height="35" viewBox="0 0 35 35" fill="none" xmlns="http://www.w3.org/2000/svg">
<path fill-rule="evenodd" clip-rule="evenodd" d="M17.7075 2.60938C16.623 2.61151 15.5577 3.00393 14.5143 3.78947C14.2933 3.95663 14.1892 4.23784 14.2487 4.50842L14.8898 7.42888C12.016 8.57709 9.98242 11.3849 9.98242 14.6659V17.4993C9.98242 17.8903 10.2998 18.2076 10.6908 18.2076C11.0818 18.2076 11.3991 17.8903 11.3991 17.4993V14.6659C11.3991 11.1476 14.2558 8.29093 17.7741 8.29093C21.2924 8.29093 24.1491 11.1476 24.1491 14.6659V20.3326C24.1491 20.7236 24.4664 21.0409 24.8574 21.0409C25.2484 21.0409 25.5658 20.7236 25.5658 20.3326V14.6659C25.5658 11.3849 23.5321 8.57709 20.6584 7.42888L21.2995 4.50842C21.3604 4.22863 21.2478 3.93963 21.0126 3.7753C19.8955 2.99613 18.792 2.60726 17.7075 2.60938ZM17.7436 4.0558C18.4236 4.06005 19.1121 4.27113 19.8091 4.68409L19.2956 7.02513C18.8033 6.92738 18.2954 6.87426 17.7741 6.87426C17.2528 6.87426 16.7449 6.92738 16.2526 7.02513L15.7348 4.6678C16.3935 4.25413 17.0636 4.05226 17.7436 4.0558ZM17.7741 8.99926C17.3831 8.99926 17.0658 9.31659 17.0658 9.70759V10.4159C15.892 10.4159 14.9408 11.3672 14.9408 12.5409V13.9576C14.9408 14.3486 15.2581 14.6659 15.6491 14.6659H19.1908V15.3743C19.1908 15.7653 18.8734 16.0826 18.4824 16.0826H15.6491C15.2581 16.0826 14.9408 16.3999 14.9408 16.7909C14.9408 17.1819 15.2581 17.4993 15.6491 17.4993H17.0658V18.2076C17.0658 18.5986 17.3831 18.9159 17.7741 18.9159C18.1651 18.9159 18.4824 18.5986 18.4824 18.2076V17.4993C19.6561 17.4993 20.6074 16.548 20.6074 15.3743V13.9576C20.6074 13.5666 20.2901 13.2493 19.8991 13.2493H16.3574V12.5409C16.3574 12.1499 16.6748 11.8326 17.0658 11.8326H19.8991C20.2901 11.8326 20.6074 11.5153 20.6074 11.1243C20.6074 10.7333 20.2901 10.4159 19.8991 10.4159H18.4824V9.70759C18.4824 9.31659 18.1651 8.99926 17.7741 8.99926ZM12.2916 19.6243C11.3984 19.6243 9.91301 20.2582 8.78321 21.575C8.27251 20.8263 7.41471 20.334 6.44076 20.334C4.87676 20.334 3.60742 21.6033 3.60742 23.1673V29.5423C3.60742 31.1063 4.87676 32.3743 6.44076 32.3743C7.52167 32.3743 8.46163 31.7679 8.93905 30.8776C9.4958 31.2487 10.1234 31.6673 10.649 32.0173C10.9982 32.2503 11.4083 32.3743 11.8276 32.3743H20.844C20.9892 32.3743 21.1302 32.3289 21.2492 32.2453L31.0376 25.4057C31.0638 25.3865 31.09 25.366 31.1134 25.3433C32.1632 24.368 32.2227 22.7225 31.2466 21.6735C30.2918 20.6478 28.698 20.567 27.6468 21.4751C27.6483 21.4744 18.7771 26.2344 18.7771 26.2344H14.7042C14.3132 26.2344 13.9958 25.9171 13.9958 25.5261C13.9958 25.1868 14.2983 24.8178 14.7042 24.8178H18.0107C19.4436 24.8178 20.6074 23.6547 20.6074 22.221C20.6074 20.7873 19.4436 19.6243 18.0107 19.6243H12.2916ZM12.2916 21.0409H18.0107C18.6623 21.0409 19.1908 21.5693 19.1908 22.221C19.1908 22.8727 18.6623 23.4011 18.0107 23.4011H14.7042C13.4873 23.4011 12.5792 24.5082 12.5792 25.5261C12.5792 26.6998 13.5312 27.6511 14.7042 27.6511H18.9542C19.0718 27.6511 19.1872 27.6228 19.2906 27.5682L28.392 22.6828C28.4458 22.6545 28.4954 22.6184 28.54 22.578C29.0168 22.1339 29.7648 22.1608 30.2089 22.6375C30.6417 23.1029 30.6268 23.8261 30.1827 24.2738C30.1798 24.2759 20.6202 30.9576 20.6202 30.9576H11.8276C11.6881 30.9576 11.5514 30.9158 11.4352 30.8386C10.7708 30.3959 9.61763 29.6259 9.27409 29.3971V23.343C10.083 21.8442 11.4848 21.0409 12.2916 21.0409ZM6.44076 21.7493C7.22276 21.7493 7.85742 22.386 7.85742 23.1673V29.5423C7.85742 30.3236 7.22276 30.959 6.44076 30.959C5.65876 30.959 5.02409 30.3236 5.02409 29.5423V23.1673C5.02409 22.386 5.65876 21.7493 6.44076 21.7493Z" fill="#181818"/>
</svg>
