<svg width="25" height="53" viewBox="0 0 25 53" fill="none" xmlns="http://www.w3.org/2000/svg">
<g opacity="0.4">
<mask id="path-1-outside-1_91_14802" maskUnits="userSpaceOnUse" x="-1" y="0" width="26" height="53" fill="black">
<rect fill="white" x="-1" width="26" height="53"/>
<path d="M1.49 2H22.63V51H11.29V11.1H1.49V2Z"/>
</mask>
<path d="M1.49 2V1.25H0.74V2H1.49ZM22.63 2H23.38V1.25H22.63V2ZM22.63 51V51.75H23.38V51H22.63ZM11.29 51H10.54V51.75H11.29V51ZM11.29 11.1H12.04V10.35H11.29V11.1ZM1.49 11.1H0.74V11.85H1.49V11.1ZM0.74 2V3.1375H2.24V2H0.74ZM0.74 5.4125V7.6875H2.24V5.4125H0.74ZM0.74 9.9625V11.1H2.24V9.9625H0.74ZM1.49 11.85H2.715V10.35H1.49V11.85ZM5.165 11.85H7.615V10.35H5.165V11.85ZM10.065 11.85H11.29V10.35H10.065V11.85ZM10.54 11.1V12.525H12.04V11.1H10.54ZM10.54 15.375V18.225H12.04V15.375H10.54ZM10.54 21.075V23.925H12.04V21.075H10.54ZM10.54 26.775V29.625H12.04V26.775H10.54ZM10.54 32.475V35.325H12.04V32.475H10.54ZM10.54 38.175V41.025H12.04V38.175H10.54ZM10.54 43.875V46.725H12.04V43.875H10.54ZM10.54 49.575V51H12.04V49.575H10.54ZM11.29 51.75H12.7075V50.25H11.29V51.75ZM15.5425 51.75H18.3775V50.25H15.5425V51.75ZM21.2125 51.75H22.63V50.25H21.2125V51.75ZM23.38 51V49.4688H21.88V51H23.38ZM23.38 46.4062V43.3438H21.88V46.4062H23.38ZM23.38 40.2812V37.2188H21.88V40.2812H23.38ZM23.38 34.1562V31.0938H21.88V34.1562H23.38ZM23.38 28.0312V24.9688H21.88V28.0312H23.38ZM23.38 21.9062V18.8437H21.88V21.9062H23.38ZM23.38 15.7812V12.7187H21.88V15.7812H23.38ZM23.38 9.65625V6.59375H21.88V9.65625H23.38ZM23.38 3.53125V2H21.88V3.53125H23.38ZM22.63 1.25H21.3088V2.75H22.63V1.25ZM18.6663 1.25H16.0238V2.75H18.6663V1.25ZM13.3813 1.25H10.7388V2.75H13.3813V1.25ZM8.09625 1.25H5.45375V2.75H8.09625V1.25ZM2.81125 1.25H1.49V2.75H2.81125V1.25ZM1.49 2V0.499996H-0.00999999V2H1.49ZM22.63 2H24.13V0.499996H22.63V2ZM22.63 51V52.5H24.13V51H22.63ZM11.29 51H9.79V52.5H11.29V51ZM11.29 11.1H12.79V9.6H11.29V11.1ZM1.49 11.1H-0.00999999V12.6H1.49V11.1ZM-0.00999999 2V3.1375H2.99V2H-0.00999999ZM-0.00999999 5.4125V7.6875H2.99V5.4125H-0.00999999ZM-0.00999999 9.9625V11.1H2.99V9.9625H-0.00999999ZM1.49 12.6H2.715V9.6H1.49V12.6ZM5.165 12.6H7.615V9.6H5.165V12.6ZM10.065 12.6H11.29V9.6H10.065V12.6ZM9.79 11.1V12.525H12.79V11.1H9.79ZM9.79 15.375V18.225H12.79V15.375H9.79ZM9.79 21.075V23.925H12.79V21.075H9.79ZM9.79 26.775V29.625H12.79V26.775H9.79ZM9.79 32.475V35.325H12.79V32.475H9.79ZM9.79 38.175V41.025H12.79V38.175H9.79ZM9.79 43.875V46.725H12.79V43.875H9.79ZM9.79 49.575V51H12.79V49.575H9.79ZM11.29 52.5H12.7075V49.5H11.29V52.5ZM15.5425 52.5H18.3775V49.5H15.5425V52.5ZM21.2125 52.5H22.63V49.5H21.2125V52.5ZM24.13 51V49.4688H21.13V51H24.13ZM24.13 46.4062V43.3438H21.13V46.4062H24.13ZM24.13 40.2812V37.2188H21.13V40.2812H24.13ZM24.13 34.1562V31.0938H21.13V34.1562H24.13ZM24.13 28.0312V24.9688H21.13V28.0312H24.13ZM24.13 21.9062V18.8437H21.13V21.9062H24.13ZM24.13 15.7812V12.7187H21.13V15.7812H24.13ZM24.13 9.65625V6.59375H21.13V9.65625H24.13ZM24.13 3.53125V2H21.13V3.53125H24.13ZM22.63 0.499996H21.3088V3.5H22.63V0.499996ZM18.6663 0.499996H16.0238V3.5H18.6663V0.499996ZM13.3813 0.499996H10.7388V3.5H13.3813V0.499996ZM8.09625 0.499996H5.45375V3.5H8.09625V0.499996ZM2.81125 0.499996H1.49V3.5H2.81125V0.499996Z" fill="#7732EF" mask="url(#path-1-outside-1_91_14802)"/>
</g>
</svg>
