<svg width="100" height="100" viewBox="0 0 100 100" fill="none" xmlns="http://www.w3.org/2000/svg">
<path d="M67.5781 53.125V29.2969C67.5781 19.6037 59.6932 11.7188 50 11.7188C40.3068 11.7188 32.4219 19.6037 32.4219 29.2969V53.125H20.7031V29.2969C20.7031 13.1436 33.8467 0 50 0C66.1533 0 79.2969 13.1436 79.2969 29.2969V53.125H67.5781Z" fill="#AE8FF7"/>
<path d="M67.5781 29.2969V53.125H79.2969V29.2969C79.2969 13.1436 66.1533 0 50 0V11.7188C59.6932 11.7188 67.5781 19.6037 67.5781 29.2969Z" fill="#5D4EB5"/>
<path d="M79.2969 100H20.7031C15.8566 100 11.9141 96.0574 11.9141 91.2109V56.0547C11.9141 51.2082 15.8566 47.2656 20.7031 47.2656H79.2969C84.1434 47.2656 88.0859 51.2082 88.0859 56.0547V91.2109C88.0859 96.0574 84.1434 100 79.2969 100Z" fill="#9F8CEA"/>
<path d="M79.2969 47.2656H50V100H79.2969C84.1434 100 88.0859 96.0574 88.0859 91.2109V56.0547C88.0859 51.2082 84.1434 47.2656 79.2969 47.2656Z" fill="#7E6AD3"/>
<path d="M58.7891 67.7734C58.7891 62.927 54.8465 58.9844 50 58.9844C45.1535 58.9844 41.2109 62.927 41.2109 67.7734C41.2109 71.59 43.6672 74.8115 47.0703 76.0246V85.3516C47.0703 86.9709 48.3807 88.2812 50 88.2812C51.6193 88.2812 52.9297 86.9709 52.9297 85.3516V76.0246C56.3328 74.8115 58.7891 71.59 58.7891 67.7734Z" fill="#DACAFF"/>
<path d="M52.9297 85.3516V76.0246C56.3328 74.8115 58.7891 71.59 58.7891 67.7734C58.7891 62.927 54.8465 58.9844 50 58.9844V88.2812C51.6193 88.2812 52.9297 86.9709 52.9297 85.3516Z" fill="white"/>
</svg>
