<svg width="40" height="40" viewBox="0 0 40 40" fill="none" xmlns="http://www.w3.org/2000/svg">
<g clip-path="url(#clip0_73_8556)">
<path d="M34.1421 5.85781C30.3646 2.08039 25.3422 0 20 0C14.6577 0 9.63531 2.08039 5.85781 5.85781C2.08039 9.63531 0 14.6577 0 20C0 25.3423 2.08039 30.3647 5.85781 34.1422C9.63531 37.9196 14.6577 40 20 40C25.3422 40 30.3646 37.9196 34.1421 34.1422C37.9196 30.3647 40 25.3422 40 20C40 14.6578 37.9196 9.63531 34.1421 5.85781ZM20 37.6562C10.2643 37.6562 2.34375 29.7357 2.34375 20C2.34375 10.2643 10.2643 2.34375 20 2.34375C29.7357 2.34375 37.6562 10.2643 37.6562 20C37.6562 29.7357 29.7357 37.6562 20 37.6562Z" fill="#181818"/>
<path d="M23.7656 10.7596C23.1184 10.7596 22.5938 11.2843 22.5938 11.9315V28.0688C22.5938 28.716 23.1184 29.2407 23.7656 29.2407C24.4128 29.2407 24.9375 28.716 24.9375 28.0688V11.9315C24.9375 11.2843 24.4128 10.7596 23.7656 10.7596Z" fill="#181818"/>
<path d="M16.2344 10.7596C15.5872 10.7596 15.0625 11.2843 15.0625 11.9315V28.0688C15.0625 28.716 15.5872 29.2407 16.2344 29.2407C16.8816 29.2407 17.4062 28.716 17.4062 28.0688V11.9315C17.4062 11.2843 16.8816 10.7596 16.2344 10.7596Z" fill="#181818"/>
</g>
<defs>
<clipPath id="clip0_73_8556">
<rect width="40" height="40" fill="white"/>
</clipPath>
</defs>
</svg>
