<svg width="37" height="37" viewBox="0 0 37 37" fill="none" xmlns="http://www.w3.org/2000/svg">
<path d="M21.8956 25.1948C21.0857 26.0363 19.9836 26.4955 18.8281 26.4863C17.6599 26.4779 16.5779 26.0028 15.7813 25.1487L21.8956 25.1948ZM21.8956 25.1948L21.7876 25.0908L21.7875 25.0908L21.8956 25.1948ZM4.37503 30.284L4.37502 30.2841L3.90112 33.5972C3.90112 33.5972 3.90112 33.5973 3.90112 33.5973C3.87839 33.7566 3.92371 33.9105 4.02927 34.0325C4.13558 34.1549 4.28196 34.2215 4.44528 34.2215H33.1699C33.3333 34.2215 33.4797 34.1549 33.586 34.0324C33.6915 33.9103 33.7368 33.7565 33.7141 33.5973C33.7141 33.5973 33.7141 33.5973 33.7141 33.5973L33.2402 30.2841L33.2402 30.2841C33.0529 28.9722 32.0238 28.0849 30.9841 27.5143C29.9497 26.9467 28.9415 26.7134 28.8619 26.6954C28.8619 26.6954 28.8618 26.6954 28.8617 26.6954L28.2161 26.5533L28.2159 26.5533L28.1733 26.544C26.9879 26.2843 25.0329 25.8561 24.0196 25.5439L24.0194 25.5439C23.8993 25.5067 23.7834 25.4602 23.6736 25.4154L22.9299 26.1887C22.9299 26.1887 22.9299 26.1888 22.9298 26.1888C21.8548 27.3073 20.4105 27.921 18.8615 27.921H18.8184H18.8173C17.2517 27.909 15.8005 27.272 14.7323 26.1277L14.7323 26.1277L14.0358 25.3811C13.8944 25.4398 13.7484 25.4967 13.5961 25.5438L13.5959 25.5439C12.5821 25.8561 10.6268 26.2844 9.44141 26.544L9.39933 26.5532L9.39911 26.5533L8.755 26.6954L4.37503 30.284ZM4.37503 30.284C4.56231 28.9721 5.59134 28.0848 6.63136 27.5142M4.37503 30.284L6.63136 27.5142M6.63136 27.5142C7.66555 26.9468 8.67382 26.7135 8.75471 26.6955L6.63136 27.5142ZM29.2094 25.1496L29.209 25.1495L28.5553 25.0056L28.5552 25.0056L28.5389 25.002C27.4436 24.762 25.4407 24.3232 24.4869 24.0292C23.3838 23.6882 22.5156 22.8951 22.0724 21.8564C23.8563 21.0564 25.2952 19.572 26.2567 17.6243H27.3758C28.2963 17.6243 29.1595 17.217 29.7423 16.5072C30.3267 15.796 30.5609 14.8706 30.3842 13.9691L30.3841 13.969C30.114 12.5928 28.9374 11.5807 27.5509 11.5012V10.4488C27.5509 9.66068 27.4258 8.88213 27.1924 8.12464C27.936 7.49015 28.6514 6.72115 29.3244 5.79606L29.3246 5.7958C29.4877 5.57071 29.5204 5.27772 29.4128 5.02218C29.3052 4.76596 29.0706 4.58572 28.7965 4.54556L28.7747 4.69397L28.7969 4.54562C28.797 4.54563 28.7947 4.54528 28.7901 4.54454L28.7702 4.5412C28.7525 4.53818 28.7264 4.5335 28.6917 4.52684C28.6224 4.51351 28.5192 4.49224 28.3828 4.46037C28.1099 4.39662 27.7041 4.29042 27.1708 4.12041C26.1044 3.7804 24.5279 3.18508 22.4852 2.16342L22.4181 2.29758L22.4852 2.16342C20.4025 1.12204 16.9143 0.659677 14.1653 2.11739L14.1653 2.11741C12.2109 3.15443 11.0111 4.98917 10.6879 7.40468C10.2709 8.36082 10.0513 9.38205 10.0513 10.4488V10.449L10.0524 11.4992C8.66735 11.5829 7.49623 12.5934 7.23188 13.9669C7.05531 14.8737 7.28898 15.8001 7.87453 16.5075L7.87454 16.5076C8.46033 17.2151 9.32203 17.6217 10.2376 17.6217H11.374C12.258 19.4 13.5297 20.813 15.1162 21.6365C15.2562 21.7135 15.3985 21.7851 15.5444 21.8521C15.1021 22.8924 14.2329 23.6877 13.1288 24.0292C12.1724 24.3238 10.1644 24.7636 9.0705 25.0032L9.05993 25.0055L9.05969 25.0055L8.40783 25.1494L8.40759 25.1495C8.14695 25.2074 6.88558 25.5147 5.62187 26.2617C4.35915 27.0081 3.07035 28.2086 2.80623 30.0592C2.80623 30.0592 2.80623 30.0592 2.80623 30.0592L2.33233 33.3724L2.33231 33.3725C2.24513 33.9851 2.42716 34.6033 2.83202 35.0703C3.23758 35.5382 3.82558 35.8063 4.44528 35.8063H33.1699C33.7896 35.8063 34.3778 35.5382 34.7831 35.0703C35.188 34.6033 35.3701 33.9851 35.2829 33.3725L35.2829 33.3724L34.809 30.0593C34.809 30.0593 34.8089 30.0593 34.8089 30.0593C34.5449 28.2087 33.2561 27.0082 31.9936 26.2618C30.73 25.5147 29.4691 25.2075 29.2094 25.1496ZM8.78772 14.2683L8.78776 14.268C8.91189 13.6239 9.45109 13.1437 10.0977 13.0826C10.2055 14.129 10.4215 15.1163 10.7256 16.0369H10.2376C9.7959 16.0369 9.37991 15.8405 9.09532 15.4966C8.81449 15.157 8.7017 14.711 8.78772 14.2683ZM14.9081 3.51748L14.9081 3.51745C17.0478 2.38168 19.9871 2.68742 21.7765 3.5811C24.3025 4.84407 26.1553 5.49031 27.2836 5.81234C24.5838 8.87508 21.3162 9.46215 18.4803 9.15131C15.6789 8.84424 13.3053 7.66033 12.3415 7.11862C12.6786 5.44702 13.5415 4.24233 14.9081 3.51748ZM11.636 10.4488C11.636 9.83393 11.7251 9.23822 11.8995 8.66867C13.3309 9.40968 16.4179 10.7644 19.8757 10.7644C21.817 10.7644 23.8759 10.335 25.8192 9.12859C25.9143 9.56479 25.9662 10.0057 25.9662 10.4488V10.4489L25.9678 12.5913C25.7317 15.78 24.2447 19.5293 20.8353 20.6389L20.8349 20.639C19.5632 21.0573 18.0167 21.0514 16.7876 20.6401L16.7872 20.64C16.4572 20.5307 16.1598 20.4014 15.8645 20.2393L15.8645 20.2393L15.8614 20.2377C13.5059 19.016 11.9129 16.1682 11.636 12.6379V10.4488ZM22.2515 24.6084C22.2911 24.6395 22.3311 24.6701 22.3715 24.7001L22.4764 24.5911C22.4358 24.5612 22.3957 24.5308 22.356 24.4998L22.2515 24.6084ZM20.5116 22.2049C20.5267 22.2464 20.5424 22.2878 20.5585 22.3288C20.6014 22.3193 20.6442 22.3095 20.6868 22.2994L20.6525 22.1534L20.5116 22.2049ZM17.1037 22.2046L16.9627 22.1532L16.9283 22.2992C16.971 22.3093 17.0138 22.3191 17.0567 22.3287C17.0728 22.2876 17.0885 22.2462 17.1037 22.2046ZM15.3153 24.6494C15.3551 24.6188 15.3945 24.5877 15.4334 24.5561L15.3308 24.4461C15.2918 24.4777 15.2524 24.5087 15.2124 24.5392L15.3153 24.6494ZM26.8962 16.0396C27.1951 15.1226 27.4019 14.1329 27.5077 13.0849C28.1566 13.1429 28.7014 13.6255 28.8289 14.2745C28.9142 14.7095 28.8013 15.1559 28.518 15.5013C28.2366 15.8429 27.8207 16.0396 27.3758 16.0396H26.8962Z" fill="#181818" stroke="#181818" stroke-width="0.3"/>
<path d="M21.3299 14.5775H22.1706C22.6086 14.5775 22.963 14.2224 22.963 13.785C22.963 13.3476 22.6086 12.9926 22.1706 12.9926H21.3299C20.8923 12.9926 20.5375 13.3476 20.5375 13.785C20.5375 14.2225 20.8923 14.5775 21.3299 14.5775Z" fill="#181818" stroke="#181818" stroke-width="0.3"/>
<path d="M16.2858 14.5775H16.2859C16.7234 14.5774 17.0782 14.2225 17.0782 13.785C17.0782 13.3476 16.7234 12.9926 16.2858 12.9926H15.4451C15.0073 12.9926 14.6527 13.3476 14.6527 13.785C14.6527 14.2225 15.0073 14.5775 15.4451 14.5775H16.2858Z" fill="#181818" stroke="#181818" stroke-width="0.3"/>
<path d="M16.473 16.8209L16.473 16.8209L16.4727 16.8211C16.1229 17.0842 16.0528 17.5815 16.3158 17.9312L16.3158 17.9312C16.9025 18.7107 17.8338 19.1763 18.8079 19.1763C19.7819 19.1763 20.7133 18.7107 21.2999 17.9312L21.3 17.9312C21.563 17.5814 21.4928 17.0842 21.143 16.8211V16.8211L21.1427 16.8209C20.7927 16.5591 20.2967 16.629 20.0335 16.9778L20.0334 16.978C19.7496 17.3554 19.2836 17.5505 18.8078 17.5505C18.3321 17.5505 17.8661 17.3554 17.5823 16.978L17.5821 16.9779C17.3191 16.6289 16.823 16.5591 16.473 16.8209Z" fill="#181818" stroke="#181818" stroke-width="0.3"/>
</svg>
