<svg width="155" height="156" viewBox="0 0 155 156" fill="none" xmlns="http://www.w3.org/2000/svg">
<mask id="mask0_467_27159" style="mask-type:alpha" maskUnits="userSpaceOnUse" x="0" y="0" width="155" height="156">
<circle cx="77.5004" cy="78.0116" r="76.9194" fill="#AE8FF7" stroke="#AE8FF7"/>
</mask>
<g mask="url(#mask0_467_27159)">
<circle cx="77.4194" cy="78.4198" r="77.4194" fill="#DCCEFF"/>
</g>
<g clip-path="url(#clip0_467_27159)">
<path d="M75.7849 116.755C53.7939 116.755 35.9668 98.9276 35.9668 76.9365C35.9668 54.9459 53.7939 37.1187 75.7849 37.1187C97.776 37.1187 115.603 54.9459 115.603 76.9365C115.603 98.9276 97.776 116.755 75.7849 116.755Z" fill="#F3EEFF"/>
<path d="M103.53 121.821H50.1533V90.9673H103.53V121.821Z" fill="#936FE9"/>
<path d="M103.53 94.9302H50.1533V90.9666H103.53V94.9302Z" fill="#6A44C5"/>
<path d="M105.056 92.1665H48.6289V88.2496H105.056V92.1665Z" fill="#936FE9"/>
<path d="M105.056 88.2485H48.6289L60.6232 75.8851H93.8795L105.056 88.2485Z" fill="#AE8FF7"/>
<path d="M69.1311 80.869L67.332 82.7231H86.3519L84.6757 80.869H69.1311Z" fill="#6A44C5"/>
<path d="M69.742 81.5783H85.3199L84.6757 80.869H69.1311L67.332 82.7231H68.6315L69.742 81.5783Z" fill="#5D4EB5"/>
<path d="M77.4093 109.295V113.3C78.4432 113.022 78.9604 112.39 78.9604 111.402C78.9604 110.538 78.4432 109.836 77.4093 109.295ZM76.2983 106.054V102.281C75.2484 102.544 74.7239 103.145 74.7239 104.086C74.7239 104.92 75.2484 105.576 76.2983 106.054ZM77.5712 115.801V116.843C77.5712 117.151 77.4093 117.305 77.0853 117.305H76.6221C76.2983 117.305 76.1361 117.151 76.1361 116.843V115.801C75.5583 115.801 74.7777 115.685 73.7944 115.454C72.6388 115.176 72.0615 114.883 72.0615 114.574C72.0615 114.527 72.0773 114.458 72.1082 114.366L72.7876 112.421C72.8498 112.297 72.9198 112.235 72.998 112.235C72.9671 112.235 73.3379 112.398 74.1106 112.721C74.8829 113.046 75.5583 113.239 76.1361 113.3V108.763C74.8086 108.176 73.9521 107.729 73.5664 107.42C72.563 106.633 72.0615 105.584 72.0615 104.272C72.0615 102.79 72.6092 101.633 73.7055 100.799C74.4924 100.197 75.3027 99.8809 76.1361 99.85V98.7158C76.1361 98.4073 76.2983 98.2524 76.6221 98.2524H77.0853C77.4093 98.2524 77.5712 98.4073 77.5712 98.7158V99.85C78.1577 99.8964 78.8444 100.028 79.6316 100.243C80.681 100.537 81.2061 100.853 81.2061 101.193C81.2061 101.255 81.1827 101.339 81.1365 101.447L80.4188 103.021C80.3569 103.145 80.2874 103.207 80.2108 103.207C80.2412 103.207 79.9093 103.053 79.2152 102.743C78.5206 102.435 77.9727 102.281 77.5712 102.281V106.564C78.8675 107.197 79.7321 107.698 80.1643 108.068C81.1365 108.917 81.6228 109.982 81.6228 111.263C81.6228 112.698 81.1365 113.825 80.1643 114.643C79.4697 115.245 78.6051 115.63 77.5712 115.801Z" fill="#6A44C5"/>
<path d="M78.1261 108.496V112.501C79.16 112.223 79.6772 111.591 79.6772 110.603C79.6772 109.739 79.16 109.036 78.1261 108.496ZM77.0151 105.255V101.482C75.9652 101.744 75.4407 102.346 75.4407 103.287C75.4407 104.121 75.9652 104.777 77.0151 105.255ZM78.2883 115.001V116.043C78.2883 116.352 78.1261 116.506 77.8021 116.506H77.3392C77.0151 116.506 76.8529 116.352 76.8529 116.043V115.001C76.2754 115.001 75.4947 114.886 74.511 114.655C73.3559 114.377 72.7783 114.083 72.7783 113.774C72.7783 113.728 72.7941 113.659 72.8253 113.566L73.5044 111.622C73.5666 111.498 73.6369 111.436 73.7148 111.436C73.6841 111.436 74.0547 111.599 74.8272 111.923C75.5997 112.247 76.2754 112.44 76.8529 112.501V107.964C75.5254 107.378 74.6687 106.93 74.2832 106.621C73.2798 105.834 72.7783 104.784 72.7783 103.473C72.7783 101.991 73.3262 100.833 74.4223 100C75.2092 99.3981 76.0193 99.0819 76.8529 99.0509V97.9168C76.8529 97.6079 77.0151 97.4534 77.3392 97.4534H77.8021C78.1261 97.4534 78.2883 97.6079 78.2883 97.9168V99.0509C78.8745 99.0976 79.5615 99.2286 80.3487 99.4445C81.398 99.7379 81.9229 100.054 81.9229 100.394C81.9229 100.456 81.8998 100.541 81.8536 100.648L81.1359 102.223C81.074 102.346 81.0044 102.408 80.9276 102.408C80.9583 102.408 80.6263 102.254 79.932 101.945C79.2377 101.636 78.6895 101.482 78.2883 101.482V105.765C79.5846 106.398 80.4489 106.899 80.8814 107.269C81.8536 108.118 82.3396 109.183 82.3396 110.464C82.3396 111.899 81.8536 113.026 80.8814 113.844C80.1865 114.446 79.3219 114.832 78.2883 115.001Z" fill="#DACAFF"/>
<path d="M96.1623 79.1616C93.4252 80.7489 88.123 79.6893 88.123 79.6893L88.2359 75.1691L96.4473 73.2774C96.4473 73.2774 98.9008 77.5753 96.1623 79.1616Z" fill="#BD7055"/>
<path d="M100.014 74.7519C97.7892 76.6711 92.5821 77.0435 92.5821 77.0435L92.0693 72.5516L99.1296 69.636C99.1296 69.636 102.238 72.8329 100.014 74.7519Z" fill="#BD7055"/>
<path d="M102.101 71.1796C99.8761 73.0988 94.6693 73.4712 94.6693 73.4712L94.1562 68.9799L101.216 66.0635C101.216 66.0635 104.325 69.2604 102.101 71.1796Z" fill="#BD7055"/>
<path d="M105.084 53.0583L111.079 59.2865L97.9416 67.2011L90.8704 71.8782C90.8704 71.8782 90.5518 75.8468 92.1861 76.9122C94.8867 78.6742 92.2246 83.0259 88.7735 81.7034C85.3226 80.3809 79.7801 76.0308 80.4408 73.0703C81.1018 70.1083 86.7238 61.9005 88.2419 60.5226C91.0115 58.0083 105.084 53.0583 105.084 53.0583Z" fill="#F8A680"/>
<path d="M107.369 60.1117C104.395 60.2342 101.437 60.3951 98.4771 60.7265C97.9615 60.7845 97.6017 60.5287 97.4199 60.1744C95.7439 60.8548 94.3988 61.9643 93.2595 63.5077C91.8506 65.4175 90.5601 67.2727 88.8432 68.9266C87.4965 70.2227 85.6959 71.7362 85.5815 73.752C85.5708 73.938 85.5107 75.0716 85.8387 75.1168C86.3464 75.1876 86.8765 74.9465 87.3268 74.7376C88.4945 74.1965 89.5409 73.4445 90.6884 72.8672C90.742 72.8401 90.7944 72.8192 90.8464 72.8021C90.8409 72.2534 90.8705 71.8792 90.8705 71.8792L97.9418 67.2021L109.788 60.0647C109.628 60.0458 109.468 60.0246 109.308 60.0038C108.647 60.0387 107.995 60.0862 107.369 60.1117Z" fill="#D8906F"/>
<path d="M90.2432 64.4421L93.8701 69.7778L94.8961 69.2171L90.2432 64.4421Z" fill="#BD7055"/>
<path d="M82.0527 74.0073L88.4908 74.436L88.6806 73.2828L82.0527 74.0073Z" fill="#BD7055"/>
<path d="M91.2235 73.788C93.3104 75.7878 93.3807 79.0996 91.3809 81.187C89.3814 83.2734 86.0691 83.3442 83.9824 81.345C81.8958 79.3452 81.8252 76.0321 83.825 73.9452C85.8245 71.8593 89.1369 71.7885 91.2235 73.788Z" fill="#936FE9"/>
<path d="M91.4786 80.5328C89.4788 82.6192 86.1662 82.6903 84.0801 80.6908C82.8906 79.5509 82.3577 77.9854 82.4881 76.4627C82.1197 78.1791 82.6222 80.0416 83.9825 81.345C86.0691 83.3442 89.3815 83.2734 91.381 81.187C92.2414 80.2893 92.7172 79.1649 92.8153 78.0161C92.619 78.9324 92.1742 79.8076 91.4786 80.5328Z" fill="#936FE9"/>
<path d="M90.5906 79.8458C89.0789 81.4234 86.5748 81.4771 84.997 79.9652C84.0982 79.1037 83.6949 77.92 83.7936 76.7686C83.5149 78.0667 83.8951 79.4742 84.9235 80.459C86.5011 81.9707 89.0052 81.9177 90.5166 80.3401C91.1674 79.6618 91.5266 78.8119 91.6014 77.9436C91.4526 78.6361 91.1168 79.2974 90.5906 79.8458Z" fill="#936FE9"/>
<path d="M90.3981 74.6501L90.2907 74.7622C91.0871 75.525 91.4876 76.5444 91.4876 77.5668C91.4876 78.5337 91.1297 79.5007 90.4078 80.2541C89.6447 81.0502 88.6255 81.4501 87.6032 81.4504C86.6362 81.4501 85.6693 81.0922 84.9159 80.3708C84.1198 79.6077 83.7193 78.5883 83.7193 77.566C83.7193 76.5988 84.0773 75.6318 84.7989 74.8784C85.5622 74.0823 86.5811 73.6819 87.6035 73.6819C88.5704 73.6819 89.5371 74.0401 90.2907 74.7622L90.3981 74.6501L90.5054 74.5384C89.6925 73.759 88.6465 73.3714 87.6035 73.3717C86.5008 73.3714 85.3985 73.8047 84.575 74.6638C83.7965 75.4765 83.4092 76.5227 83.4092 77.566C83.4092 78.6689 83.8422 79.7712 84.7015 80.5947C85.5139 81.3732 86.5601 81.7605 87.6032 81.7603C88.7058 81.7605 89.8084 81.3275 90.6316 80.4687C91.4104 79.656 91.798 78.6098 91.7977 77.5668C91.798 76.4639 91.3648 75.3613 90.5051 74.5384L90.3981 74.6501Z" fill="#7732EF"/>
<path d="M84.4839 74.3916C84.5374 74.4423 84.539 74.5273 84.4881 74.5806C84.4369 74.633 84.3522 74.6359 84.2989 74.5848L83.99 74.2888C83.937 74.2376 83.9355 74.1521 83.9864 74.0996C84.0373 74.0461 84.122 74.0442 84.1753 74.0954L84.4839 74.3916Z" fill="#7732EF"/>
<path d="M91.2619 80.8867C91.3147 80.9379 91.3168 81.0223 91.2661 81.0761C91.2144 81.1297 91.1299 81.1312 91.0767 81.0803L90.7678 80.7841C90.7143 80.7334 90.7127 80.6484 90.7639 80.5946C90.8145 80.5414 90.8996 80.54 90.9528 80.591L91.2619 80.8867Z" fill="#7732EF"/>
<path d="M90.8223 74.4458C90.7708 74.4986 90.6866 74.5009 90.6331 74.45C90.5795 74.3981 90.578 74.3141 90.6291 74.2608L90.9251 73.9514C90.976 73.8979 91.0608 73.8966 91.1143 73.9475C91.1673 73.9984 91.1691 74.0832 91.118 74.1364L90.8223 74.4458Z" fill="#7732EF"/>
<path d="M84.3269 81.225C84.2757 81.2783 84.191 81.2801 84.138 81.2287C84.0844 81.1775 84.0829 81.093 84.1338 81.04L84.43 80.7304C84.4815 80.6768 84.5657 80.6755 84.6187 80.7267C84.6722 80.7776 84.6741 80.8618 84.6229 80.9156L84.3269 81.225Z" fill="#7732EF"/>
<path d="M87.6646 73.1059C87.6656 73.1799 87.6068 73.2408 87.5331 73.2426C87.4596 73.2442 87.3985 73.1849 87.3967 73.1117L87.3877 72.6837C87.3859 72.6102 87.4449 72.5491 87.5184 72.5475C87.5921 72.5457 87.6533 72.6042 87.6551 72.6782L87.6646 73.1059Z" fill="#7732EF"/>
<path d="M87.8635 82.4907C87.8654 82.565 87.8066 82.6258 87.7326 82.6274C87.6591 82.629 87.5977 82.5707 87.5961 82.4965L87.5869 82.0693C87.5854 81.995 87.6441 81.9341 87.7176 81.932C87.7919 81.9307 87.8533 81.9892 87.8546 82.063L87.8635 82.4907Z" fill="#7732EF"/>
<path d="M92.1074 77.6274C92.0337 77.6295 91.9726 77.5699 91.9707 77.4964C91.9694 77.4227 92.0282 77.3618 92.1022 77.36L92.5296 77.3508C92.6034 77.3492 92.6645 77.4078 92.6664 77.4818C92.6679 77.555 92.6092 77.6164 92.5354 77.6185L92.1074 77.6274Z" fill="#7732EF"/>
<path d="M82.722 77.8266C82.6477 77.8282 82.5866 77.7702 82.585 77.6957C82.5837 77.6214 82.6422 77.5611 82.7159 77.559L83.1436 77.5501C83.2174 77.5485 83.2788 77.6067 83.2804 77.681C83.2819 77.7553 83.2232 77.8156 83.1497 77.8174L82.722 77.8266Z" fill="#7732EF"/>
<path d="M85.9136 73.4465C85.944 73.5139 85.9136 73.5929 85.8462 73.6231C85.779 73.6538 85.6997 73.6231 85.6698 73.5556L85.494 73.166C85.4641 73.0985 85.494 73.0193 85.5614 72.9891C85.6289 72.9584 85.7081 72.9891 85.7383 73.0558L85.9136 73.4465Z" fill="#7732EF"/>
<path d="M89.7574 82.0109C89.7875 82.0786 89.7573 82.1573 89.6899 82.188C89.6225 82.2182 89.5435 82.188 89.5128 82.1203L89.3378 81.7298C89.3079 81.6629 89.3378 81.5842 89.4052 81.5538C89.4726 81.5228 89.5516 81.5527 89.5821 81.6202L89.7574 82.0109Z" fill="#7732EF"/>
<path d="M91.7677 75.8754C91.6998 75.9058 91.6208 75.8762 91.5909 75.809C91.5607 75.7413 91.5906 75.6615 91.6578 75.6319L92.0488 75.4566C92.1157 75.4264 92.1952 75.4558 92.2254 75.5235C92.2555 75.5907 92.2254 75.6696 92.1582 75.7003L91.7677 75.8754Z" fill="#7732EF"/>
<path d="M83.2031 79.719C83.1359 79.7497 83.0567 79.719 83.0262 79.6518C82.9963 79.5847 83.0262 79.5054 83.0934 79.4758L83.4841 79.2997C83.5516 79.27 83.6306 79.2997 83.6607 79.3671C83.6909 79.4346 83.661 79.5138 83.5933 79.544L83.2031 79.719Z" fill="#7732EF"/>
<path d="M89.3432 73.4496C89.3167 73.5178 89.2396 73.5532 89.1705 73.527C89.1013 73.5005 89.0666 73.4233 89.0926 73.3543L89.2445 72.9544C89.271 72.8851 89.3485 72.8508 89.4177 72.8773C89.4867 72.9035 89.5214 72.9801 89.4949 73.0499L89.3432 73.4496Z" fill="#7732EF"/>
<path d="M86.0059 82.2231C85.9794 82.2922 85.9023 82.3268 85.8333 82.3003C85.764 82.2741 85.7296 82.1966 85.7559 82.1271L85.9083 81.7277C85.9346 81.6587 86.0117 81.6238 86.0802 81.6501C86.1495 81.6766 86.1844 81.7542 86.1581 81.8232L86.0059 82.2231Z" fill="#7732EF"/>
<path d="M91.765 79.3056C91.696 79.2791 91.6614 79.202 91.6873 79.1322C91.7138 79.0637 91.791 79.0288 91.8603 79.0551L92.2596 79.2078C92.3289 79.2335 92.3638 79.3104 92.3376 79.3791C92.3111 79.4484 92.2339 79.4828 92.1649 79.4565L91.765 79.3056Z" fill="#7732EF"/>
<path d="M82.9913 75.9679C82.9228 75.942 82.8876 75.8646 82.9141 75.7958C82.9401 75.7265 83.0172 75.6919 83.0863 75.7179L83.4862 75.8701C83.5554 75.8968 83.5901 75.974 83.5638 76.043C83.5376 76.112 83.4607 76.1469 83.3917 76.1204L82.9913 75.9679Z" fill="#7732EF"/>
<path d="M86.7348 73.1953C86.7515 73.2675 86.7067 73.3391 86.6348 73.3564C86.5634 73.373 86.4912 73.3283 86.4745 73.2559L86.3763 72.84C86.3603 72.7681 86.4047 72.6957 86.4766 72.6794C86.5485 72.6624 86.6203 72.7067 86.6374 72.7791L86.7348 73.1953Z" fill="#7732EF"/>
<path d="M88.8742 82.3362C88.8913 82.4078 88.8464 82.48 88.7748 82.4971C88.7024 82.5136 88.6307 82.4687 88.6142 82.3971L88.5163 81.9801C88.4993 81.9088 88.5439 81.8371 88.616 81.8198C88.6879 81.803 88.7601 81.8476 88.7769 81.9195L88.8742 82.3362Z" fill="#7732EF"/>
<path d="M92.0176 76.6983C91.9454 76.7146 91.8735 76.6705 91.857 76.5986C91.8404 76.5261 91.8848 76.454 91.9567 76.4375L92.3731 76.3404C92.4453 76.323 92.5172 76.3674 92.534 76.4398C92.551 76.5115 92.5062 76.5831 92.4345 76.6004L92.0176 76.6983Z" fill="#7732EF"/>
<path d="M82.8772 78.8363C82.805 78.8542 82.7331 78.8085 82.7163 78.7371C82.6998 78.6645 82.7442 78.5933 82.8163 78.5766L83.233 78.4787C83.3049 78.4624 83.3768 78.5065 83.3936 78.5784C83.4107 78.6511 83.3658 78.7224 83.2939 78.7395L82.8772 78.8363Z" fill="#7732EF"/>
<path d="M90.1017 73.8534C90.0626 73.9159 89.9805 73.9355 89.9175 73.8962C89.8553 73.8576 89.8356 73.7752 89.8745 73.712L90.1009 73.3483C90.1392 73.2861 90.2216 73.2672 90.2843 73.3058C90.3473 73.3441 90.3662 73.4273 90.3276 73.49L90.1017 73.8534Z" fill="#7732EF"/>
<path d="M85.1516 81.8274C85.1125 81.8907 85.0304 81.9101 84.9677 81.8707C84.9044 81.8324 84.8855 81.7495 84.9246 81.6871L85.1498 81.3236C85.1891 81.2607 85.2713 81.241 85.3342 81.2806C85.3972 81.3192 85.4161 81.4013 85.3773 81.464L85.1516 81.8274Z" fill="#7732EF"/>
<path d="M91.361 80.0651C91.2981 80.0262 91.2792 79.9433 91.318 79.8811C91.3568 79.8187 91.4395 79.799 91.5019 79.8376L91.8656 80.0637C91.9283 80.1026 91.948 80.1855 91.9087 80.248C91.8696 80.3101 91.7874 80.3303 91.7247 80.2905L91.361 80.0651Z" fill="#7732EF"/>
<path d="M83.3856 75.114C83.3226 75.0754 83.3032 74.9925 83.3428 74.9295C83.3814 74.8674 83.4635 74.8477 83.5265 74.887L83.8899 75.1124C83.9529 75.1513 83.9721 75.2334 83.9333 75.2967C83.8942 75.3594 83.8115 75.3791 83.749 75.3392L83.3856 75.114Z" fill="#7732EF"/>
<path d="M85.0952 73.8896C85.1388 73.9496 85.1257 74.0328 85.0661 74.0764C85.0063 74.1199 84.9226 74.1068 84.8795 74.0465L84.6274 73.7014C84.5838 73.6413 84.5967 73.5579 84.6565 73.5146C84.7166 73.4708 84.8 73.4839 84.8436 73.544L85.0952 73.8896Z" fill="#7732EF"/>
<path d="M90.6236 81.4756C90.6669 81.5347 90.6538 81.6187 90.5942 81.6622C90.5347 81.7058 90.451 81.6929 90.4074 81.6328L90.1555 81.2872C90.1122 81.2271 90.1251 81.1429 90.1846 81.1004C90.2442 81.0568 90.3282 81.07 90.3717 81.1301L90.6236 81.4756Z" fill="#7732EF"/>
<path d="M91.3248 75.0568C91.265 75.1003 91.1818 75.0872 91.1382 75.0279C91.0944 74.9681 91.1075 74.8849 91.1673 74.8414L91.5132 74.5889C91.5725 74.5451 91.6565 74.5585 91.6995 74.6186C91.7433 74.6787 91.7305 74.7616 91.6706 74.8051L91.3248 75.0568Z" fill="#7732EF"/>
<path d="M83.7379 80.5862C83.6781 80.6293 83.5947 80.6169 83.5511 80.5574C83.5076 80.4968 83.5207 80.4136 83.5802 80.3703L83.9266 80.1176C83.9859 80.0743 84.0699 80.0874 84.1132 80.1478C84.1565 80.2078 84.1436 80.2908 84.0838 80.3343L83.7379 80.5862Z" fill="#7732EF"/>
<path d="M88.4521 73.1839C88.4411 73.2571 88.3723 73.3067 88.2996 73.2959C88.2264 73.2844 88.1768 73.2153 88.1881 73.1429L88.2548 72.7202C88.2658 72.647 88.3345 72.5974 88.4072 72.6081C88.4802 72.6197 88.5303 72.6882 88.519 72.7611L88.4521 73.1839Z" fill="#7732EF"/>
<path d="M86.9966 82.4579C86.9853 82.5311 86.9163 82.5807 86.8439 82.5691C86.771 82.5576 86.7206 82.4894 86.7321 82.4161L86.7988 81.9942C86.8103 81.9207 86.8785 81.8709 86.9517 81.8824C87.0244 81.894 87.0743 81.9619 87.0627 82.0354L86.9966 82.4579Z" fill="#7732EF"/>
<path d="M92.0299 78.4154C91.957 78.4038 91.9071 78.3343 91.9187 78.2627C91.9305 78.1889 91.9987 78.1391 92.0716 78.1506L92.4941 78.217C92.5668 78.2283 92.6172 78.2968 92.6054 78.37C92.5941 78.4432 92.5259 78.4925 92.4526 78.481L92.0299 78.4154Z" fill="#7732EF"/>
<path d="M82.7565 76.9606C82.6838 76.949 82.6337 76.8797 82.6452 76.8073C82.6565 76.7344 82.725 76.684 82.7979 76.6955L83.2207 76.7622C83.2936 76.7737 83.3435 76.8419 83.3319 76.9149C83.3206 76.9884 83.2522 77.0377 83.1795 77.0262L82.7565 76.9606Z" fill="#7732EF"/>
<path d="M88.1933 77.6841L89.1603 78.6107C89.3322 78.2968 89.2991 78.0253 89.0606 77.797C88.852 77.597 88.5625 77.559 88.1933 77.6841ZM87.1537 77.2021L86.2426 76.3293C86.0634 76.6434 86.0873 76.9092 86.3148 77.1276C86.5158 77.3199 86.7955 77.3456 87.1537 77.2021ZM89.8014 79.1502L90.0525 79.3913C90.127 79.4622 90.127 79.537 90.052 79.6157L89.9449 79.7275C89.8696 79.8054 89.7953 79.8091 89.7205 79.7369L89.4689 79.4963C89.3353 79.6362 89.127 79.7975 88.8436 79.9815C88.5093 80.1964 88.3049 80.2678 88.2303 80.1964C88.2193 80.1854 88.2057 80.1657 88.191 80.1368L87.8785 79.522C87.863 79.479 87.8643 79.4477 87.8824 79.4296C87.8751 79.4367 88 79.3845 88.2576 79.2733C88.514 79.1617 88.7174 79.0431 88.8654 78.918L87.7701 77.8683C87.3216 78.0525 87.0154 78.1565 86.8514 78.1788C86.4295 78.2375 86.0603 78.1158 85.7435 77.8132C85.3856 77.4705 85.2332 77.0704 85.2854 76.6125C85.3221 76.2834 85.4334 76.0145 85.6189 75.8064L85.3452 75.5437C85.2702 75.4726 85.2702 75.3975 85.3455 75.3193L85.4528 75.2076C85.5276 75.1291 85.6024 75.1259 85.6769 75.1973L85.9508 75.46C86.0975 75.329 86.2878 75.1934 86.5221 75.0538C86.8357 74.868 87.0335 74.8142 87.1157 74.8932C87.1306 74.9071 87.1453 74.9326 87.161 74.968L87.3749 75.5062C87.3906 75.5497 87.3893 75.5807 87.3718 75.5988C87.3786 75.5915 87.2647 75.6361 87.0296 75.7321C86.7942 75.8284 86.6302 75.9258 86.5376 76.0218L87.5714 77.0129C88.0241 76.8468 88.3448 76.7539 88.5342 76.7347C88.964 76.6959 89.3338 76.8253 89.6429 77.1221C89.9898 77.4543 90.1496 77.8324 90.1218 78.2564C90.106 78.5637 89.9992 78.8613 89.8014 79.1502Z" fill="#7732EF"/>
<path d="M90.0613 79.0865C90.2537 78.8052 90.4087 78.2389 90.4334 77.9248C90.4717 77.4446 90.0776 76.8345 89.6499 76.6083C89.2594 76.4002 88.6826 76.3365 88.2657 76.4391C87.6813 76.5839 87.4349 76.6595 87.1565 76.1263C87.0271 75.878 87.0631 75.935 87.2864 75.8067C87.512 75.6776 87.6472 75.666 87.533 75.4317C87.3386 75.0328 87.2638 74.6279 86.9684 74.66C86.686 74.6901 86.0292 75.1609 85.8342 75.073C85.6687 74.999 85.2939 74.6293 85.2939 74.6293C85.2939 74.6293 87.8923 73.0638 89.9007 74.7505C91.3374 75.957 91.9191 78.263 90.5824 79.5806C90.4565 79.4717 90.0613 79.0865 90.0613 79.0865Z" fill="#AE8FF7"/>
<path d="M89.4708 79.7257L89.9231 80.159C89.9231 80.159 87.222 81.7995 85.2914 79.8685C83.0634 77.7333 84.7483 75.199 84.7483 75.199L85.3759 75.8012C85.3759 75.8012 84.5034 76.7508 85.4959 77.7826C86.6987 79.0322 87.5156 78.1287 87.6861 78.1447C87.857 78.1597 88.4261 78.6866 88.4287 78.8194C88.4319 78.9511 87.6415 79.3177 87.5901 79.4843C87.5387 79.6512 88.0189 80.4822 88.2133 80.4828C88.4072 80.4838 89.4708 79.7257 89.4708 79.7257Z" fill="#AE8FF7"/>
<path d="M97.3366 59.4838L111.079 59.2862C111.079 59.2862 105.989 62.4818 105.271 63.8347C104.165 65.9182 104.783 67.3404 101.439 69.9026C98.3505 72.2687 93.791 75.2346 89.9578 77.0499C86.9608 78.469 84.1408 76.1271 86.4232 73.7576C88.2214 71.8903 90.6623 70.043 92.1738 68.7071C93.6847 67.3714 93.4273 62.1905 97.3366 59.4838Z" fill="#F8A680"/>
<path d="M124.006 40.2318V54.8317L108.869 62.3149L101.998 52.8377L124.006 40.2318Z" fill="#AE8FF7"/>
<path d="M89.2791 56.3241C86.9518 58.4677 81.546 58.5845 81.546 58.5845L80.6748 54.148L88.2796 50.5184C88.2796 50.5184 91.6076 54.1811 89.2791 56.3241Z" fill="#BD7055"/>
<path d="M92.0823 51.1834C90.3276 53.5393 85.3254 55.0337 85.3254 55.0337L83.8496 50.7604L90.1082 46.3814C90.1082 46.3814 93.837 48.827 92.0823 51.1834Z" fill="#BD7055"/>
<path d="M93.3428 47.242C91.5881 49.5979 86.5861 51.0923 86.5861 51.0923L85.1104 46.819L91.369 42.4395C91.369 42.4395 95.0977 44.8854 93.3428 47.242Z" fill="#BD7055"/>
<path d="M92.3202 28.9065L99.5237 33.6846L88.4187 44.2627L82.5314 50.3633C82.5314 50.3633 83.0819 54.3065 84.9085 54.9913C87.9275 56.1249 86.2738 60.9508 82.6175 60.4095C78.9619 59.8676 72.6073 56.8248 72.6094 53.7911C72.6115 50.7564 76.3174 41.5239 77.5001 39.8493C79.6581 36.7938 92.3202 28.9065 92.3202 28.9065Z" fill="#F8A680"/>
<path d="M96.0827 35.2936C93.2062 36.059 90.3534 36.8583 87.5362 37.8242C87.0452 37.993 86.6385 37.8214 86.3842 37.5146C84.8956 38.543 83.8237 39.9182 83.0467 41.6721C82.0861 43.8422 81.229 45.9331 79.912 47.9205C78.8789 49.4781 77.4499 51.3465 77.7758 53.3389C77.8057 53.5228 77.9931 54.6423 78.3232 54.6152C78.8341 54.574 79.2993 54.2237 79.6934 53.922C80.7158 53.1403 81.5741 52.1791 82.5689 51.3664C82.6153 51.3284 82.662 51.2966 82.709 51.2685C82.5846 50.7343 82.5321 50.3624 82.5321 50.3624L88.4194 44.2618L98.4333 34.7229C98.273 34.7391 98.1121 34.7528 97.9516 34.7675C97.3139 34.9451 96.6881 35.1327 96.0827 35.2936Z" fill="#D8906F"/>
<path d="M80.3047 43.2397L85.0038 47.6606L85.8834 46.8905L80.3047 43.2397Z" fill="#BD7055"/>
<path d="M74.3877 54.3558L80.7654 53.3765L80.7001 52.2096L74.3877 54.3558Z" fill="#BD7055"/>
<path d="M83.2916 52.1503C85.7624 53.6492 86.5504 56.867 85.0515 59.3381C83.5524 61.8091 80.3348 62.5974 77.8638 61.0986C75.3924 59.5997 74.6044 56.381 76.1033 53.91C77.6024 51.4397 80.8205 50.6514 83.2916 52.1503Z" fill="#936FE9"/>
<path d="M85.0053 58.6787C83.5065 61.1497 80.2884 61.9377 77.8173 60.4394C76.4092 59.5845 75.5491 58.1725 75.3457 56.6579C75.3586 58.4128 76.2534 60.1216 77.8645 61.0986C80.3356 62.5974 83.5532 61.8091 85.0523 59.3381C85.697 58.2756 85.9177 57.0746 85.764 55.9315C85.771 56.8689 85.527 57.8195 85.0053 58.6787Z" fill="#936FE9"/>
<path d="M83.9895 58.2005C82.8559 60.0683 80.4232 60.6645 78.5551 59.5315C77.4905 58.8854 76.84 57.818 76.6865 56.6723C76.6962 57.9998 77.3727 59.2911 78.5905 60.0295C80.4586 61.1628 82.8913 60.5672 84.0244 58.6991C84.5122 57.8956 84.6786 56.9877 84.5631 56.1239C84.5681 56.8321 84.3836 57.5508 83.9895 58.2005Z" fill="#936FE9"/>
<path d="M82.6726 53.1711L82.5924 53.3038C83.7971 54.0341 84.4622 55.3147 84.4625 56.6282C84.4625 57.3144 84.2809 58.0088 83.8986 58.6391C83.1681 59.8435 81.8873 60.5087 80.5739 60.5089C79.8875 60.5087 79.1932 60.3271 78.5631 59.945C77.3584 59.2142 76.6932 57.9337 76.693 56.6201C76.693 55.9339 76.8746 55.2396 77.2564 54.6093C77.9872 53.4049 79.2674 52.7397 80.5808 52.7394C81.2672 52.7394 81.9618 52.921 82.5921 53.3036L82.6726 53.1711L82.7529 53.0386C82.0733 52.6261 81.3218 52.4292 80.5808 52.4292C79.1635 52.429 77.7801 53.1485 76.9913 54.4485C76.5794 55.1281 76.3828 55.8793 76.3828 56.6201C76.3826 58.0376 77.1018 59.4213 78.4023 60.2103C79.0816 60.6223 79.8326 60.8188 80.5739 60.8188C81.9909 60.8191 83.3748 60.1001 84.1636 58.7996C84.5759 58.1203 84.7727 57.369 84.7727 56.6282C84.7729 55.2107 84.0534 53.8271 82.7529 53.0386L82.6726 53.1711Z" fill="#7732EF"/>
<path d="M76.8442 54.2036C76.9072 54.2419 76.9271 54.324 76.8891 54.3873C76.8508 54.45 76.7686 54.4707 76.7054 54.4324L76.3396 54.2104C76.2766 54.1721 76.2564 54.0892 76.295 54.0264C76.333 53.9635 76.4154 53.9433 76.4784 53.9816L76.8442 54.2036Z" fill="#7732EF"/>
<path d="M84.8697 59.0706C84.9327 59.1089 84.9529 59.1908 84.9148 59.2546C84.876 59.3178 84.7941 59.3375 84.7312 59.2997L84.3654 59.0777C84.3019 59.0391 84.2819 58.9567 84.3202 58.8935C84.3583 58.8305 84.4407 58.8108 84.5037 58.8486L84.8697 59.0706Z" fill="#7732EF"/>
<path d="M83.0422 52.8796C83.0036 52.9421 82.9218 52.9628 82.8585 52.9248C82.795 52.8857 82.7751 52.8043 82.8134 52.7408L83.0351 52.3745C83.0734 52.3113 83.1556 52.2916 83.2191 52.3296C83.2818 52.3679 83.3023 52.4501 83.2637 52.5133L83.0422 52.8796Z" fill="#7732EF"/>
<path d="M78.1735 60.9067C78.1355 60.97 78.0531 60.9902 77.9901 60.9516C77.9269 60.913 77.9069 60.8312 77.9452 60.7679L78.167 60.4016C78.2058 60.3386 78.2877 60.3184 78.3504 60.357C78.4139 60.3948 78.4341 60.4774 78.3955 60.5407L78.1735 60.9067Z" fill="#7732EF"/>
<path d="M79.6696 52.2567C79.6867 52.3289 79.6426 52.4008 79.571 52.4186C79.4993 52.4359 79.4269 52.3916 79.4091 52.3202L79.3078 51.9048C79.2897 51.8329 79.334 51.7608 79.4056 51.7432C79.477 51.7256 79.5497 51.7694 79.5673 51.8413L79.6696 52.2567Z" fill="#7732EF"/>
<path d="M81.9014 61.3759C81.9193 61.448 81.8752 61.5202 81.8033 61.5375C81.7319 61.5554 81.6595 61.5115 81.6416 61.4399L81.5401 61.0245C81.5222 60.9524 81.5666 60.8799 81.6377 60.8624C81.7099 60.845 81.7823 60.8889 81.8001 60.9608L81.9014 61.3759Z" fill="#7732EF"/>
<path d="M84.9878 55.7055C84.9164 55.7234 84.8437 55.6788 84.8261 55.6077C84.8085 55.536 84.8526 55.4636 84.9245 55.4458L85.3402 55.3442C85.4115 55.3266 85.4842 55.3704 85.5016 55.4423C85.5191 55.5135 85.4751 55.5861 85.4034 55.604L84.9878 55.7055Z" fill="#7732EF"/>
<path d="M75.8698 57.938C75.7979 57.9556 75.7255 57.912 75.7079 57.8401C75.6906 57.768 75.7344 57.6961 75.8063 57.6782L76.2217 57.5764C76.2933 57.5591 76.3655 57.6024 76.3836 57.6746C76.4009 57.7467 76.3568 57.8183 76.2854 57.8362L75.8698 57.938Z" fill="#7732EF"/>
<path d="M78.0337 52.9701C78.0783 53.0294 78.0654 53.1131 78.0064 53.1577C77.9476 53.2018 77.8634 53.1892 77.8195 53.1299L77.5634 52.7875C77.5196 52.7282 77.5317 52.6445 77.591 52.6004C77.65 52.5558 77.734 52.5684 77.7781 52.6269L78.0337 52.9701Z" fill="#7732EF"/>
<path d="M83.645 60.4939C83.6893 60.5532 83.677 60.6364 83.6177 60.6813C83.5587 60.7251 83.475 60.7128 83.4306 60.6535L83.1748 60.3108C83.1309 60.2517 83.143 60.168 83.2021 60.1234C83.2616 60.0793 83.3451 60.0912 83.3892 60.1505L83.645 60.4939Z" fill="#7732EF"/>
<path d="M84.2753 54.0693C84.2157 54.1136 84.132 54.1021 84.0882 54.0428C84.0438 53.9835 84.0562 53.8987 84.1152 53.8554L84.4587 53.5996C84.5175 53.5555 84.6012 53.567 84.6455 53.6263C84.6896 53.6854 84.6775 53.7693 84.6182 53.8134L84.2753 54.0693Z" fill="#7732EF"/>
<path d="M76.7506 59.6812C76.6915 59.7252 76.6078 59.7126 76.5635 59.6539C76.5196 59.5943 76.5317 59.5108 76.5905 59.4673L76.9337 59.2104C76.9933 59.1668 77.0767 59.1786 77.1208 59.2379C77.1649 59.2975 77.1531 59.381 77.0938 59.4253L76.7506 59.6812Z" fill="#7732EF"/>
<path d="M81.3828 52.2281C81.3718 52.3002 81.3041 52.3514 81.2309 52.3409C81.1579 52.3302 81.1073 52.2622 81.1175 52.1892L81.1792 51.766C81.1899 51.6928 81.2579 51.6421 81.3311 51.6526C81.4041 51.6637 81.4547 51.7308 81.444 51.8046L81.3828 52.2281Z" fill="#7732EF"/>
<path d="M80.0301 61.5171C80.0191 61.5903 79.9514 61.6407 79.8782 61.6299C79.8047 61.6191 79.7546 61.5512 79.7651 61.4777L79.827 61.055C79.8375 60.9818 79.9057 60.9309 79.9784 60.9419C80.0513 60.9524 80.1025 61.0206 80.0918 61.0935L80.0301 61.5171Z" fill="#7732EF"/>
<path d="M85.018 57.4186C84.9448 57.4081 84.8944 57.3404 84.9046 57.2667C84.9154 57.194 84.9834 57.1431 85.0566 57.1541L85.4796 57.2161C85.5528 57.2266 85.6037 57.2937 85.5929 57.3667C85.5822 57.4399 85.5142 57.4903 85.441 57.4795L85.018 57.4186Z" fill="#7732EF"/>
<path d="M75.7285 56.0663C75.6558 56.0555 75.6049 55.9876 75.6157 55.9146C75.6257 55.8417 75.6939 55.7908 75.7671 55.8018L76.1901 55.8635C76.2638 55.8739 76.3142 55.9422 76.3037 56.0151C76.293 56.0881 76.2255 56.1387 76.1523 56.128L75.7285 56.0663Z" fill="#7732EF"/>
<path d="M78.7816 52.5469C78.8136 52.6138 78.7855 52.6935 78.7191 52.7258C78.653 52.7573 78.573 52.7295 78.5407 52.6628L78.3549 52.2779C78.3232 52.2115 78.351 52.1312 78.4176 52.0997C78.4843 52.0672 78.5638 52.095 78.5961 52.1616L78.7816 52.5469Z" fill="#7732EF"/>
<path d="M82.8542 61.0047C82.8862 61.0705 82.8584 61.1508 82.7917 61.1826C82.7251 61.2148 82.6453 61.1865 82.6133 61.1201L82.4272 60.7341C82.3952 60.6683 82.4236 60.589 82.49 60.5562C82.5566 60.5242 82.6364 60.552 82.6687 60.6184L82.8542 61.0047Z" fill="#7732EF"/>
<path d="M84.6985 54.8175C84.6315 54.849 84.5515 54.8217 84.5203 54.7553C84.488 54.6879 84.5158 54.6078 84.5822 54.5758L84.968 54.3908C85.0343 54.3583 85.1144 54.3861 85.1464 54.4533C85.1787 54.5194 85.1501 54.5989 85.0839 54.6315L84.6985 54.8175Z" fill="#7732EF"/>
<path d="M76.2404 58.8894C76.1738 58.9219 76.0937 58.8933 76.062 58.8272C76.0302 58.7597 76.0578 58.6805 76.1247 58.6487L76.5102 58.4627C76.5768 58.4312 76.6566 58.4588 76.6883 58.5251C76.7206 58.5923 76.6925 58.6716 76.6259 58.7041L76.2404 58.8894Z" fill="#7732EF"/>
<path d="M82.2104 52.456C82.1858 52.5253 82.1099 52.5626 82.0399 52.5377C81.9703 52.5132 81.9336 52.4374 81.9575 52.3674L82.0994 51.963C82.1236 51.8937 82.1999 51.8575 82.2697 51.8814C82.3393 51.9055 82.376 51.9827 82.3516 52.0519L82.2104 52.456Z" fill="#7732EF"/>
<path d="M79.1092 61.3172C79.0848 61.3872 79.009 61.4237 78.9392 61.399C78.8691 61.3752 78.8326 61.2983 78.8573 61.2287L78.9982 60.8252C79.0226 60.7554 79.0987 60.7186 79.1688 60.7435C79.2389 60.7674 79.2751 60.8433 79.2507 60.9128L79.1092 61.3172Z" fill="#7732EF"/>
<path d="M84.7886 58.246C84.7188 58.2221 84.6826 58.1452 84.7067 58.0757C84.7311 58.0064 84.8077 57.9691 84.877 57.9933L85.2811 58.135C85.3506 58.1594 85.3879 58.2362 85.363 58.3055C85.3386 58.3751 85.2625 58.4123 85.1927 58.3871L84.7886 58.246Z" fill="#7732EF"/>
<path d="M75.9283 55.1462C75.8585 55.1223 75.8218 55.0455 75.8467 54.9757C75.8708 54.9064 75.9469 54.8694 76.0167 54.8941L76.4206 55.0352C76.4904 55.0594 76.5268 55.1352 76.5027 55.2055C76.4783 55.2753 76.4019 55.3126 76.3321 55.2877L75.9283 55.1462Z" fill="#7732EF"/>
<path d="M77.3311 53.5791C77.3867 53.6282 77.392 53.7122 77.3431 53.7678C77.2943 53.8232 77.2098 53.8284 77.1545 53.7793L76.8336 53.497C76.7779 53.4477 76.7727 53.3637 76.8215 53.3083C76.8703 53.2527 76.955 53.2475 77.0104 53.2968L77.3311 53.5791Z" fill="#7732EF"/>
<path d="M84.3752 59.784C84.4308 59.8325 84.4361 59.917 84.3873 59.9726C84.3385 60.0283 84.2537 60.0335 84.1986 59.9844L83.8774 59.7018C83.822 59.6528 83.8165 59.5678 83.8653 59.5132C83.9141 59.4578 83.9989 59.4523 84.0545 59.5014L84.3752 59.784Z" fill="#7732EF"/>
<path d="M83.6658 53.3673C83.617 53.4227 83.5325 53.4279 83.4771 53.3796C83.4215 53.3305 83.4162 53.2468 83.465 53.1909L83.7482 52.8695C83.7967 52.8141 83.8815 52.8086 83.9366 52.858C83.9922 52.9073 83.9975 52.991 83.9486 53.0464L83.6658 53.3673Z" fill="#7732EF"/>
<path d="M77.4606 60.41C77.4118 60.4654 77.3275 60.4711 77.2719 60.4226C77.2165 60.373 77.211 60.2888 77.2601 60.2339L77.543 59.912C77.5915 59.8568 77.6763 59.8513 77.7319 59.9007C77.787 59.9497 77.7928 60.0337 77.7434 60.0891L77.4606 60.41Z" fill="#7732EF"/>
<path d="M80.4548 52.1607C80.4598 52.2347 80.4036 52.298 80.3304 52.3029C80.2567 52.3077 80.1929 52.2513 80.1882 52.178L80.1614 51.7508C80.1565 51.6771 80.2126 51.6136 80.2861 51.6084C80.3598 51.6039 80.4236 51.6598 80.428 51.7335L80.4548 52.1607Z" fill="#7732EF"/>
<path d="M81.048 61.5304C81.053 61.6046 80.9964 61.6676 80.9231 61.6721C80.8494 61.6768 80.7854 61.6209 80.7807 61.5472L80.7542 61.1208C80.7497 61.0468 80.8056 60.983 80.8793 60.9783C80.9528 60.9738 81.0163 61.0297 81.021 61.1037L81.048 61.5304Z" fill="#7732EF"/>
<path d="M85.0831 56.4924C85.0096 56.4971 84.9461 56.4404 84.9417 56.3675C84.937 56.2932 84.9926 56.2295 85.0669 56.225L85.4933 56.198C85.567 56.1938 85.6308 56.2497 85.6355 56.3234C85.6399 56.3974 85.5841 56.4601 85.5101 56.4651L85.0831 56.4924Z" fill="#7732EF"/>
<path d="M75.7155 57.084C75.642 57.0884 75.578 57.0318 75.5735 56.9586C75.569 56.8848 75.6247 56.8208 75.6984 56.8163L76.1256 56.7896C76.1993 56.7846 76.2628 56.8407 76.2673 56.915C76.2723 56.9885 76.2161 57.0517 76.1424 57.0562L75.7155 57.084Z" fill="#7732EF"/>
<path d="M81.179 56.6102L82.3236 57.304C82.4236 56.9611 82.3326 56.7028 82.05 56.5318C81.803 56.3819 81.5123 56.4076 81.179 56.6102ZM80.0594 56.3651L78.9806 55.711C78.8738 56.0565 78.9549 56.3111 79.2241 56.4743C79.4621 56.6186 79.7408 56.5827 80.0594 56.3651ZM83.0668 57.6918L83.3643 57.8724C83.4528 57.9259 83.4688 57.9989 83.4124 58.0918L83.3323 58.2243C83.2759 58.3164 83.2038 58.3363 83.1156 58.2823L82.8175 58.1017C82.7175 58.2673 82.5491 58.4699 82.3124 58.7113C82.0326 58.9934 81.8487 59.1078 81.7603 59.054C81.7471 59.0459 81.7298 59.0299 81.7091 59.0047L81.2706 58.4728C81.246 58.4337 81.2407 58.4027 81.2543 58.3812C81.2488 58.3901 81.3593 58.3116 81.5866 58.1474C81.8127 57.9823 81.9854 57.8225 82.103 57.6685L80.8056 56.8818C80.4078 57.1589 80.1315 57.3266 79.9764 57.3838C79.5773 57.5331 79.1903 57.4945 78.8156 57.2678C78.3918 57.0106 78.1561 56.6535 78.1073 56.1951C78.0719 55.866 78.1223 55.5792 78.2582 55.3357L77.9339 55.1392C77.8452 55.0856 77.8289 55.0124 77.8856 54.9198L77.9659 54.7873C78.0218 54.6949 78.0942 54.6755 78.1826 54.729L78.507 54.9256C78.6216 54.7663 78.7783 54.5923 78.9764 54.4052C79.2422 54.1554 79.4238 54.0604 79.5209 54.1197C79.5387 54.13 79.5587 54.1518 79.5815 54.1827L79.9072 54.6616C79.9321 54.7007 79.9376 54.7314 79.9242 54.7529C79.9292 54.7443 79.8277 54.8122 79.619 54.9573C79.4104 55.1022 79.2714 55.2329 79.2018 55.3467L80.4265 56.0896C80.8316 55.8293 81.1247 55.669 81.3055 55.6094C81.7167 55.4782 82.1056 55.5241 82.4722 55.7469C82.8823 55.9951 83.1203 56.33 83.1854 56.7496C83.2368 57.0529 83.1972 57.3667 83.0668 57.6918Z" fill="#7732EF"/>
<path d="M83.307 57.5752C83.4335 57.2582 83.4621 56.672 83.418 56.36C83.3511 55.8834 82.8342 55.3733 82.3674 55.245C81.941 55.1269 81.3642 55.1899 80.9795 55.3807C80.4405 55.6489 80.2164 55.7761 79.8289 55.3164C79.6486 55.1017 79.6961 55.1495 79.8861 54.9758C80.0787 54.8008 80.2078 54.7604 80.0456 54.5559C79.769 54.209 79.6082 53.8299 79.3266 53.9254C79.0579 54.0164 78.5187 54.6184 78.3095 54.5748C78.1316 54.5384 77.6855 54.2592 77.6855 54.2592C77.6855 54.2592 79.8821 52.1665 82.2089 53.3772C83.8736 54.2432 84.9418 56.3676 83.9229 57.9438C83.7762 57.8651 83.307 57.5752 83.307 57.5752Z" fill="#AE8FF7"/>
<path d="M82.8694 58.325L83.405 58.6496C83.405 58.6496 81.1244 60.8376 78.8208 59.372C76.1823 57.7714 77.2768 54.9316 77.2768 54.9316L78.0202 55.3832C78.0202 55.3832 77.3749 56.4998 78.5676 57.2914C80.0129 58.25 80.6143 57.1907 80.7844 57.1691C80.9541 57.1466 81.6243 57.5378 81.6555 57.6667C81.6873 57.7947 80.9951 58.3237 80.9812 58.498C80.9673 58.6719 81.6164 59.3789 81.8062 59.3371C81.9959 59.2957 82.8694 58.325 82.8694 58.325Z" fill="#AE8FF7"/>
<path d="M86.1528 36.8602L99.5241 33.6841C99.5241 33.6841 95.2498 37.9085 94.8425 39.3851C94.2149 41.6591 95.1275 42.9131 92.4192 46.1399C89.9183 49.12 86.1113 53.0054 82.7641 55.6095C80.1466 57.6453 76.8851 55.9717 78.5987 53.1629C79.949 50.95 81.9304 48.6167 83.1157 46.9843C84.3007 45.3527 82.9244 40.3512 86.1528 36.8602Z" fill="#F8A680"/>
<path d="M95.3047 23.0009H112.326L98.0261 37.1196L89.2607 29.3601L95.3047 23.0009Z" fill="#936FE9"/>
<path d="M58.4352 73.9098C61.1723 75.4969 66.4745 74.4373 66.4745 74.4373L66.3616 69.9173L58.1505 68.0254C58.1505 68.0254 55.6968 72.3233 58.4352 73.9098Z" fill="#BD7055"/>
<path d="M54.5833 69.5019C56.8077 71.4208 62.0148 71.7935 62.0148 71.7935L62.5273 67.3019L55.4674 64.386C55.4674 64.386 52.3588 67.5829 54.5833 69.5019Z" fill="#BD7055"/>
<path d="M52.4964 65.9277C54.7209 67.8466 59.928 68.2192 59.928 68.2192L60.4408 63.7277L53.3806 60.8113C53.3806 60.8113 50.2718 64.0084 52.4964 65.9277Z" fill="#BD7055"/>
<path d="M49.5142 47.8066L43.5195 54.0345L56.6562 61.9494L63.7278 66.6265C63.7278 66.6265 64.0466 70.5949 62.4121 71.6602C59.7114 73.4223 62.3735 77.774 65.8246 76.4515C69.2755 75.129 74.818 70.7793 74.1575 67.8184C73.4963 64.8563 67.8743 56.6486 66.3565 55.2707C63.5866 52.7566 49.5142 47.8066 49.5142 47.8066Z" fill="#F8A680"/>
<path d="M47.2288 54.8598C50.203 54.9821 53.1612 55.1432 56.121 55.4744C56.6368 55.5326 56.9966 55.2765 57.1784 54.9223C58.8544 55.603 60.1995 56.7124 61.3388 58.2559C62.7474 60.1656 64.0382 62.0206 65.7551 63.6748C67.1018 64.9708 68.9024 66.4841 69.0168 68.5001C69.0275 68.6859 69.0876 69.8195 68.7596 69.8649C68.2519 69.9355 67.7218 69.6943 67.2715 69.4855C66.1038 68.9441 65.0574 68.1923 63.9099 67.615C63.8563 67.588 63.8039 67.5675 63.7519 67.55C63.7574 67.0015 63.7278 66.6274 63.7278 66.6274L56.6562 61.9503L44.8105 54.8129C44.9705 54.794 45.1307 54.7724 45.2905 54.752C45.9515 54.7869 46.6031 54.8341 47.2288 54.8598Z" fill="#D8906F"/>
<path d="M64.3541 59.1903L60.7272 64.5258L59.7012 63.965L64.3541 59.1903Z" fill="#BD7055"/>
<path d="M72.5438 68.7575L66.1055 69.186L65.916 68.033L72.5438 68.7575Z" fill="#BD7055"/>
<path d="M62.2521 74.5281C61.0298 71.9093 62.1618 68.7958 64.7809 67.5733C67.3994 66.351 70.5134 67.483 71.7359 70.1016C72.9582 72.7209 71.8256 75.8354 69.2066 77.0577C66.588 78.2789 63.4744 77.1469 62.2521 74.5281Z" fill="#936FE9"/>
<path d="M64.4533 68.148C67.0724 66.9257 70.1863 68.0578 71.4086 70.6765C72.1048 72.1691 72.0358 73.8215 71.3635 75.1938C72.3278 73.7273 72.5328 71.8094 71.7358 70.1016C70.5133 67.4831 67.3993 66.3511 64.7808 67.5734C63.6543 68.0987 62.8038 68.9751 62.2969 70.0108C62.8115 69.2278 63.5425 68.5726 64.4533 68.148Z" fill="#936FE9"/>
<path d="M65.0327 69.1109C67.0128 68.187 69.3668 69.0427 70.2907 71.0225C70.8176 72.1509 70.7654 73.3999 70.2569 74.438C70.9861 73.3283 71.1409 71.879 70.5382 70.5888C69.614 68.6087 67.2605 67.7527 65.2809 68.6766C64.4289 69.0742 63.7862 69.7365 63.4023 70.519C63.7918 69.9267 64.3441 69.4324 65.0327 69.1109Z" fill="#936FE9"/>
<path d="M63.3344 74.0224L63.4748 73.9568C63.2263 73.4252 63.109 72.8668 63.109 72.3168C63.1093 70.8544 63.939 69.4537 65.3515 68.7945C65.8831 68.5465 66.4413 68.4292 66.9913 68.4292C68.4539 68.4295 69.8549 69.259 70.514 70.672C70.762 71.2036 70.8793 71.7618 70.8793 72.3115C70.8791 73.7739 70.0496 75.1746 68.6368 75.8354C68.1054 76.0831 67.5473 76.2001 66.9973 76.2004C65.5347 76.2001 64.1342 75.3704 63.4748 73.9568L63.3344 74.0224L63.1937 74.088C63.9059 75.6139 65.4184 76.5105 66.9973 76.5103C67.5911 76.5103 68.1949 76.3835 68.768 76.1164C70.2931 75.4026 71.1895 73.8904 71.1892 72.3115C71.1895 71.7177 71.0625 71.1142 70.7948 70.5408C70.0829 69.0157 68.5704 68.1191 66.9913 68.1191C66.3972 68.1191 65.7934 68.2461 65.2203 68.5137C63.6955 69.2254 62.7988 70.7379 62.7988 72.3168C62.7988 72.9108 62.9261 73.5146 63.1937 74.088L63.3344 74.0224Z" fill="#7732EF"/>
<path d="M68.7548 76.4031C68.7235 76.3359 68.7524 76.2564 68.8196 76.2244C68.8862 76.1944 68.966 76.2228 68.9972 76.2894L69.178 76.6773C69.209 76.7439 69.1799 76.8245 69.1132 76.8552C69.0463 76.8864 68.9668 76.857 68.9358 76.7904L68.7548 76.4031Z" fill="#7732EF"/>
<path d="M64.784 67.8969C64.753 67.83 64.7816 67.7508 64.8488 67.7185C64.9162 67.6878 64.9952 67.7169 65.0264 67.7836L65.2075 68.1711C65.239 68.2383 65.2096 68.3181 65.1427 68.3493C65.076 68.3808 64.9965 68.3512 64.9653 68.2848L64.784 67.8969Z" fill="#7732EF"/>
<path d="M62.8644 74.06C62.9311 74.0298 63.0106 74.0582 63.0421 74.1248C63.0733 74.1925 63.0447 74.2718 62.9775 74.303L62.5897 74.4843C62.5228 74.5153 62.4433 74.4862 62.412 74.4195C62.3808 74.3526 62.4094 74.2728 62.4769 74.2413L62.8644 74.06Z" fill="#7732EF"/>
<path d="M71.3714 70.0915C71.4383 70.0598 71.5181 70.0889 71.549 70.1561C71.5803 70.2232 71.5511 70.3025 71.4845 70.334L71.0964 70.5153C71.0292 70.5465 70.9497 70.5174 70.919 70.4502C70.8875 70.3836 70.9164 70.3041 70.9835 70.2728L71.3714 70.0915Z" fill="#7732EF"/>
<path d="M65.324 76.4519C65.3497 76.3831 65.4263 76.3469 65.4956 76.3718C65.5646 76.3973 65.6003 76.4744 65.5754 76.5434L65.4292 76.9454C65.404 77.0152 65.3274 77.0509 65.2578 77.0255C65.1888 77.0006 65.1526 76.9237 65.1781 76.8544L65.324 76.4519Z" fill="#7732EF"/>
<path d="M68.5318 67.6298C68.5567 67.5597 68.6336 67.5243 68.7032 67.5497C68.7722 67.5747 68.8084 67.6516 68.7829 67.7208L68.6368 68.1226C68.6116 68.1924 68.5347 68.2283 68.4654 68.2034C68.3959 68.1777 68.3599 68.1008 68.3849 68.0313L68.5318 67.6298Z" fill="#7732EF"/>
<path d="M62.8161 70.6304C62.8854 70.655 62.9208 70.7324 62.8962 70.8012C62.871 70.8705 62.7938 70.9061 62.7243 70.8812L62.3223 70.7351C62.2533 70.7096 62.2171 70.6333 62.2425 70.5637C62.2672 70.4944 62.3446 70.4587 62.4136 70.4834L62.8161 70.6304Z" fill="#7732EF"/>
<path d="M71.6382 73.8394C71.7077 73.8646 71.7437 73.9407 71.7185 74.0103C71.6925 74.0798 71.6164 74.1152 71.5469 74.09L71.1449 73.9444C71.0753 73.9187 71.0394 73.8423 71.0648 73.7725C71.0903 73.703 71.1666 73.6676 71.2362 73.6928L71.6382 73.8394Z" fill="#7732EF"/>
<path d="M67.0793 76.7686C67.0754 76.6954 67.1323 76.6324 67.2063 76.6287C67.2798 76.6242 67.3427 76.6815 67.3462 76.7552L67.3687 77.1819C67.3727 77.2559 67.3157 77.3186 67.242 77.3225C67.1683 77.327 67.1055 77.2698 67.1013 77.1966L67.0793 76.7686Z" fill="#7732EF"/>
<path d="M66.5929 67.3936C66.5895 67.3196 66.6457 67.2574 66.7199 67.253C66.7937 67.249 66.8564 67.306 66.8603 67.3797L66.8826 67.8069C66.886 67.8804 66.8299 67.9431 66.7556 67.9476C66.6819 67.9515 66.6189 67.8951 66.615 67.8211L66.5929 67.3936Z" fill="#7732EF"/>
<path d="M62.4997 72.3857C62.5737 72.3815 62.6367 72.4379 62.6403 72.5117C62.6443 72.5854 62.5871 72.6489 62.5138 72.6523L62.0861 72.6741C62.0129 72.6783 61.9492 72.6219 61.9455 72.5481C61.9418 72.4744 61.9985 72.4114 62.0722 72.4078L62.4997 72.3857Z" fill="#7732EF"/>
<path d="M71.8742 71.9001C71.9482 71.8957 72.0109 71.9531 72.0151 72.0266C72.0185 72.1003 71.9621 72.1633 71.8889 72.1667L71.4603 72.1898C71.3871 72.193 71.3242 72.1368 71.3205 72.0628C71.3168 71.9888 71.3732 71.9261 71.4472 71.9222L71.8742 71.9001Z" fill="#7732EF"/>
<path d="M63.8824 75.525C63.9315 75.4712 64.0163 75.466 64.0711 75.5156C64.1262 75.5652 64.1304 75.6497 64.0813 75.7043L63.7951 76.0223C63.7455 76.0774 63.6607 76.0819 63.6059 76.0325C63.551 75.9824 63.5463 75.8987 63.5959 75.8433L63.8824 75.525Z" fill="#7732EF"/>
<path d="M70.1666 68.5526C70.216 68.4981 70.3004 68.4939 70.3553 68.5432C70.4101 68.5931 70.4146 68.6776 70.365 68.7327L70.0782 69.0499C70.0289 69.105 69.9444 69.1092 69.89 69.0599C69.8352 69.0103 69.8305 68.9253 69.8801 68.8707L70.1666 68.5526Z" fill="#7732EF"/>
<path d="M63.7423 69.1891C63.7971 69.2382 63.8016 69.323 63.7522 69.3781C63.7026 69.4329 63.6179 69.4376 63.5633 69.3878L63.2458 69.1012C63.1907 69.0519 63.186 68.9677 63.2353 68.9128C63.2846 68.858 63.3694 68.8538 63.4242 68.9031L63.7423 69.1891Z" fill="#7732EF"/>
<path d="M70.7162 75.4745C70.7708 75.5238 70.7753 75.608 70.7254 75.6631C70.6766 75.718 70.5919 75.7227 70.5368 75.6734L70.2192 75.3871C70.1641 75.3372 70.1597 75.2522 70.2093 75.1976C70.2589 75.1425 70.3428 75.1381 70.3979 75.1879L70.7162 75.4745Z" fill="#7732EF"/>
<path d="M66.2223 76.7049C66.2328 76.6311 66.3005 76.581 66.3737 76.5907C66.4462 76.6012 66.4973 76.6686 66.4871 76.7421L66.4278 77.1654C66.4173 77.2383 66.3498 77.2898 66.2766 77.2785C66.2034 77.269 66.152 77.2013 66.1625 77.1281L66.2223 76.7049Z" fill="#7732EF"/>
<path d="M67.5341 67.4085C67.544 67.3356 67.6117 67.2847 67.6847 67.2949C67.7584 67.3051 67.8088 67.3731 67.7986 67.4461L67.7387 67.8704C67.7288 67.943 67.6613 67.9932 67.5878 67.9837C67.5149 67.973 67.4637 67.9058 67.474 67.8326L67.5341 67.4085Z" fill="#7732EF"/>
<path d="M62.5636 71.5289C62.6365 71.5394 62.6877 71.6068 62.6772 71.6798C62.6665 71.7532 62.599 71.8047 62.5261 71.7942L62.1026 71.7338C62.0293 71.7238 61.9782 71.6561 61.9887 71.5829C61.9989 71.51 62.0663 71.4596 62.1396 71.4693L62.5636 71.5289Z" fill="#7732EF"/>
<path d="M71.8584 72.8396C71.9319 72.8501 71.9828 72.9181 71.9725 72.991C71.9618 73.0645 71.8944 73.1149 71.8211 73.1046L71.3976 73.0451C71.3244 73.0341 71.2735 72.9666 71.2835 72.8939C71.294 72.8205 71.3617 72.7698 71.4349 72.7795L71.8584 72.8396Z" fill="#7732EF"/>
<path d="M63.321 74.8736C63.38 74.8297 63.464 74.8408 63.5083 74.9006C63.5527 74.9591 63.5411 75.0428 63.4821 75.0879L63.1394 75.3448C63.0809 75.3892 62.9972 75.3771 62.9526 75.3181C62.908 75.2596 62.9205 75.1751 62.9793 75.131L63.321 74.8736Z" fill="#7732EF"/>
<path d="M70.8211 69.2292C70.8802 69.1846 70.9636 69.1964 71.0077 69.2557C71.0531 69.3145 71.0405 69.399 70.9817 69.4431L70.6398 69.7002C70.581 69.7446 70.497 69.7328 70.4527 69.6735C70.4081 69.6147 70.4204 69.5315 70.4787 69.4869L70.8211 69.2292Z" fill="#7732EF"/>
<path d="M64.3934 68.6283C64.4382 68.6868 64.4256 68.7713 64.3669 68.8154C64.3081 68.8598 64.2241 68.8479 64.1795 68.7894L63.9224 68.4467C63.878 68.3882 63.8898 68.304 63.9489 68.2599C64.0076 68.2158 64.0913 68.2268 64.1359 68.2864L64.3934 68.6283Z" fill="#7732EF"/>
<path d="M70.0387 76.1278C70.0836 76.1868 70.0715 76.2711 70.0122 76.3149C69.9534 76.3595 69.8697 76.3485 69.8254 76.2884L69.568 75.9473C69.5234 75.888 69.5354 75.8045 69.5945 75.7597C69.6533 75.7156 69.7375 75.7269 69.7816 75.7864L70.0387 76.1278Z" fill="#7732EF"/>
<path d="M68.0017 76.6516C67.9825 76.5797 68.0248 76.5073 68.0964 76.4881C68.1675 76.4695 68.241 76.5117 68.2596 76.5831L68.3696 76.9964C68.3885 77.0683 68.3465 77.1407 68.2751 77.1599C68.2032 77.1793 68.1303 77.1365 68.1111 77.0646L68.0017 76.6516Z" fill="#7732EF"/>
<path d="M65.5915 67.5794C65.5723 67.5086 65.6151 67.4346 65.6865 67.4157C65.7579 67.3965 65.8313 67.4393 65.85 67.5109L65.9599 67.9242C65.9788 67.9959 65.936 68.0696 65.8649 68.0877C65.7935 68.1069 65.7201 68.0641 65.7014 67.9925L65.5915 67.5794Z" fill="#7732EF"/>
<path d="M62.617 73.3094C62.6884 73.2903 62.7616 73.3328 62.7805 73.4036C62.7999 73.4753 62.7577 73.5479 62.686 73.5674L62.2722 73.6776C62.2008 73.6967 62.1274 73.6537 62.109 73.5826C62.0901 73.5107 62.1324 73.438 62.2035 73.4186L62.617 73.3094Z" fill="#7732EF"/>
<path d="M71.6897 70.8991C71.7611 70.8797 71.8341 70.9222 71.8535 70.9933C71.8721 71.0649 71.8296 71.1387 71.7585 71.157L71.3444 71.2675C71.2736 71.2864 71.1998 71.2436 71.1812 71.1715C71.1626 71.1001 71.2043 71.0274 71.2762 71.0085L71.6897 70.8991Z" fill="#7732EF"/>
<path d="M64.6168 76.0961C64.6538 76.0318 64.7357 76.0103 64.7997 76.0467C64.8632 76.0837 64.8853 76.1661 64.8483 76.2296L64.6334 76.5996C64.5964 76.6639 64.5142 76.6849 64.4505 76.6492C64.3867 76.6117 64.3647 76.5301 64.4019 76.4658L64.6168 76.0961Z" fill="#7732EF"/>
<path d="M69.3284 67.9745C69.3656 67.9104 69.4475 67.8889 69.5107 67.9262C69.575 67.9632 69.5968 68.045 69.5598 68.1093L69.3452 68.4783C69.3076 68.5423 69.226 68.5646 69.1623 68.5273C69.0982 68.4903 69.0767 68.4087 69.114 68.3447L69.3284 67.9745Z" fill="#7732EF"/>
<path d="M63.1738 69.9225C63.2376 69.9595 63.2589 70.0425 63.2221 70.1052C63.1846 70.1695 63.103 70.1915 63.039 70.1542L62.6692 69.9393C62.6055 69.9026 62.5834 69.8207 62.6207 69.7567C62.6579 69.6927 62.7396 69.6711 62.8036 69.7081L63.1738 69.9225Z" fill="#7732EF"/>
<path d="M71.2927 74.6352C71.3562 74.6725 71.3782 74.7548 71.3412 74.8181C71.3042 74.8819 71.2221 74.9044 71.158 74.8674L70.7881 74.6523C70.7243 74.615 70.7028 74.5331 70.7398 74.4696C70.7768 74.4053 70.8586 74.3841 70.9224 74.4211L71.2927 74.6352Z" fill="#7732EF"/>
<path d="M66.4862 71.9922L65.9199 70.7791C65.6462 71.009 65.5783 71.2745 65.7187 71.5737C65.8407 71.8353 66.0971 71.9754 66.4862 71.9922ZM67.2813 72.818L67.8148 73.961C68.0958 73.7325 68.1695 73.4761 68.0365 73.1909C67.9184 72.939 67.667 72.8135 67.2813 72.818ZM65.5171 70.0444L65.3699 69.729C65.3264 69.635 65.3534 69.5655 65.4521 69.5198L65.5922 69.454C65.6906 69.4086 65.7614 69.4322 65.8047 69.5259L65.9522 69.8415C66.1275 69.7594 66.3799 69.6846 66.7111 69.6153C67.1002 69.5361 67.3167 69.5434 67.3603 69.6371C67.3666 69.6513 67.3723 69.6741 67.3755 69.7067L67.4448 70.3926C67.4435 70.4385 67.4309 70.4674 67.4072 70.4773C67.4167 70.4734 67.2816 70.4771 67.0013 70.4873C66.7213 70.4989 66.4891 70.5361 66.3059 70.5991L66.9475 71.9738C67.4322 71.9641 67.7555 71.978 67.9163 72.0171C68.3309 72.1142 68.6314 72.3611 68.8169 72.7582C69.0265 73.2071 69.0242 73.6354 68.8098 74.0432C68.6566 74.3368 68.4556 74.5467 68.2073 74.6745L68.3676 75.018C68.4117 75.1119 68.3847 75.1815 68.2863 75.2269L68.1459 75.2925C68.0478 75.3381 67.9769 75.3142 67.9334 75.2206L67.7725 74.8768C67.5886 74.9458 67.3618 75.0036 67.0931 75.049C66.7334 75.109 66.5298 75.0873 66.482 74.9841C66.4731 74.9655 66.4681 74.9364 66.4665 74.8978L66.4615 74.3187C66.4628 74.2725 66.4752 74.2439 66.498 74.2337C66.4888 74.2381 66.6114 74.2376 66.8654 74.2334C67.1194 74.2287 67.3075 74.1972 67.4288 74.1408L66.8234 72.8427C66.3414 72.8345 66.0089 72.8049 65.8249 72.754C65.4103 72.6348 65.1125 72.3806 64.9317 71.9919C64.7284 71.5569 64.7163 71.147 64.8952 70.7618C65.0209 70.4807 65.2285 70.242 65.5171 70.0444Z" fill="#7732EF"/>
<path d="M65.2516 70.0098C64.9703 70.2029 64.621 70.6747 64.4843 70.9589C64.2752 71.3919 64.4218 72.1035 64.7388 72.469C65.0277 72.8044 65.5423 73.0726 65.9682 73.1271C66.5652 73.2038 66.8223 73.2224 66.8892 73.8199C66.9199 74.0988 66.9066 74.0324 66.652 74.0713C66.3951 74.1101 66.2652 74.0718 66.2865 74.3318C66.3238 74.774 66.2471 75.1784 66.5339 75.2555C66.8084 75.3292 67.5906 75.128 67.7407 75.281C67.8683 75.4095 68.0845 75.8895 68.0845 75.8895C68.0845 75.8895 65.0954 76.4096 63.833 74.1104C62.9298 72.4661 63.2213 70.1058 64.944 69.3611C65.0225 69.5078 65.2516 70.0098 65.2516 70.0098Z" fill="#AE8FF7"/>
<path d="M66.0333 69.6277L65.7686 69.0601C65.7686 69.0601 68.8799 68.5075 69.9815 71.0059C71.2867 73.802 68.7993 75.5552 68.7993 75.5552L68.4317 74.7672C68.4317 74.7672 69.5889 74.197 69.0365 72.8763C68.3669 71.2764 67.2787 71.8235 67.1252 71.7466C66.9717 71.6713 66.6316 70.9739 66.677 70.8492C66.7216 70.7251 67.5912 70.6697 67.6996 70.5327C67.808 70.3955 67.6605 69.4472 67.48 69.3763C67.2992 69.3055 66.0333 69.6277 66.0333 69.6277Z" fill="#AE8FF7"/>
<path d="M57.2618 54.2338L43.5195 54.0362C43.5195 54.0362 48.6094 57.2318 49.3275 58.5847C50.4337 60.6682 49.8151 62.0904 53.1595 64.6526C56.2479 67.0189 60.8075 69.9849 64.6404 71.7999C67.6371 73.219 70.4574 70.8771 68.175 68.5076C66.3765 66.6405 63.9358 64.7932 62.4244 63.4571C60.9135 62.1214 61.1709 56.9405 57.2618 54.2338Z" fill="#F8A680"/>
<path d="M30 35.73V51.3908L45.7276 57.063L52.5992 47.5852L30 35.73Z" fill="#AE8FF7"/>
</g>
<defs>
<clipPath id="clip0_467_27159">
<rect width="94.0064" height="110" fill="white" transform="translate(30 23.0005)"/>
</clipPath>
</defs>
</svg>
