<svg width="41" height="40" viewBox="0 0 41 40" fill="none" xmlns="http://www.w3.org/2000/svg">
<g clip-path="url(#clip0_73_4965)">
<path d="M14.6876 8.74945C9.27141 10.1363 5.26758 15.0498 5.26758 20.8983C5.26758 25.0912 7.32578 28.8029 10.4866 31.0797V35.2573C10.4866 37.0763 11.9612 38.5509 13.7802 38.5509C15.5991 38.5509 17.0737 37.0763 17.0737 35.2573V33.4164C17.3167 33.4305 24.457 33.4292 24.7044 33.4147V35.2573C24.7044 37.0763 26.179 38.5509 27.998 38.5509C29.817 38.5509 31.2916 37.0763 31.2916 35.2573V31.0693C32.8635 29.9335 34.1623 28.443 35.069 26.714C35.6096 25.683 36.6618 25.0217 37.8255 24.9901L38.5285 24.9237C39.337 24.9018 39.9809 24.2401 39.9809 23.4314V18.3652C39.9809 17.5565 39.337 16.8948 38.5285 16.8728L37.8255 16.8065C36.6618 16.7748 35.6096 16.1136 35.069 15.0826C34.5265 14.048 33.8435 13.0989 33.0458 12.2598C32.9245 12.1322 32.8591 11.9614 32.8591 11.7853V6.09906C32.8591 5.73906 32.5673 5.44727 32.2073 5.44727C30.5248 5.44727 29.0413 6.29867 28.1638 7.59414" stroke="#181818" stroke-width="2" stroke-miterlimit="10" stroke-linecap="round" stroke-linejoin="round"/>
<path d="M16.1934 14.6172H26.7545" stroke="#181818" stroke-width="2" stroke-miterlimit="10" stroke-linecap="round" stroke-linejoin="round"/>
<path d="M1.69922 13.8438C1.69922 17.1047 2.54703 18.4042 5.42422 18.4042" stroke="#181818" stroke-width="2" stroke-miterlimit="10" stroke-linecap="round" stroke-linejoin="round"/>
<path d="M30.8262 16.1348V16.9827" stroke="#181818" stroke-width="2" stroke-miterlimit="10" stroke-linecap="round" stroke-linejoin="round"/>
<path d="M10.4862 31.0792V28.3301" stroke="#181818" stroke-width="2" stroke-miterlimit="10" stroke-linecap="round" stroke-linejoin="round"/>
<path d="M24.7031 33.4926V31.3711" stroke="#181818" stroke-width="2" stroke-miterlimit="10" stroke-linecap="round" stroke-linejoin="round"/>
<path d="M22.6131 5.89741C22.6131 5.89741 21.7988 5.46038 21.189 5.67788C20.5245 5.91491 20.2438 6.68397 20.6198 7.26327C20.8451 7.61022 21.3617 7.78866 21.9698 8.00358C23.3308 8.48467 22.8277 10.404 21.4432 10.4132C20.903 10.4168 20.63 10.4134 20.1758 10.072" stroke="#181818" stroke-width="2" stroke-miterlimit="10" stroke-linecap="round" stroke-linejoin="round"/>
<path d="M21.4434 10.4141V11.1146" stroke="#181818" stroke-width="2" stroke-miterlimit="10" stroke-linecap="round" stroke-linejoin="round"/>
<path d="M21.4434 4.94922V5.38664" stroke="#181818" stroke-width="2" stroke-miterlimit="10" stroke-linecap="round" stroke-linejoin="round"/>
<path d="M21.4741 14.6179C25.1111 14.6179 28.0595 11.6695 28.0595 8.03258C28.0595 4.39561 25.1111 1.44727 21.4741 1.44727C17.8372 1.44727 14.8888 4.39561 14.8888 8.03258C14.8888 11.6695 17.8372 14.6179 21.4741 14.6179Z" stroke="#181818" stroke-width="2" stroke-miterlimit="10" stroke-linecap="round" stroke-linejoin="round"/>
</g>
<defs>
<clipPath id="clip0_73_4965">
<rect width="40" height="40" fill="white" transform="translate(0.839844)"/>
</clipPath>
</defs>
</svg>
