<svg width="100" height="100" viewBox="0 0 100 100" fill="none" xmlns="http://www.w3.org/2000/svg">
<g clip-path="url(#clip0_73_9106)">
<path d="M14.1875 12.4414V90.0837C14.1875 95.5609 18.6277 100.001 24.105 100.001H51.3034C56.7807 100.001 61.2209 95.5609 61.2209 90.0837V12.4414H14.1875Z" fill="#9F8CEA"/>
<path d="M47.2151 31.8516H28.4037C25.4075 31.8516 22.9785 34.2805 22.9785 37.2767V70.9007C22.9785 73.8968 25.4075 76.3258 28.4037 76.3258H47.2151C50.2113 76.3258 52.6403 73.8968 52.6403 70.9007V37.2765C52.6403 34.2803 50.2113 31.8516 47.2151 31.8516Z" fill="white"/>
<path d="M79.8694 82.2919L71.7531 90.4082C66.2951 95.8621 57.4599 95.8599 52.0042 90.4082C46.5507 84.9546 46.5507 76.1128 52.0042 70.6593L60.1205 62.543L76.0982 66.3142L79.8694 82.2919Z" fill="#AE8FF7"/>
<path d="M61.2183 81.9142C61.2183 75.217 63.5165 69.0697 67.3483 64.249L60.1205 62.543L52.0042 70.6593C46.5507 76.1128 46.5507 84.9546 52.0042 90.4082C55.2861 93.6876 59.7905 94.9921 64.0475 94.3263C62.2374 90.5848 61.2183 86.3715 61.2183 81.9142Z" fill="#7E6AD3"/>
<path d="M87.9863 74.177L79.87 82.2913L60.1211 62.5424L68.2374 54.4261C73.6909 48.9726 82.5328 48.9726 87.9863 54.4261C93.4398 59.8796 93.4398 68.7214 87.9863 74.177Z" fill="#7E6AD3"/>
<path d="M45.3471 54.8799L40.9159 58.7799C40.4525 58.2534 42.9175 61.0546 34.4314 51.4109C37.2368 50.9852 39.3891 48.6477 39.3891 45.8361C39.3891 42.7236 36.7519 40.1914 33.5104 40.1914C30.5581 40.1916 29.2175 40.1914 29.2766 40.1914C28.4432 40.1914 27.7676 40.8671 27.7676 41.7005V57.6135C27.7676 58.4469 28.4432 59.1226 29.2766 59.1226C30.11 59.1226 30.7857 58.4469 30.7857 57.6135V51.8369C31.1873 52.2932 28.7175 49.4866 38.6505 60.7741L34.2195 64.6741C33.5939 65.2246 33.533 66.1783 34.0837 66.8039C34.635 67.4302 35.5887 67.4896 36.2135 66.9397L40.6444 63.0397L44.5444 67.4709C45.0957 68.0972 46.0495 68.1566 46.6742 67.6067C47.2998 67.0562 47.3607 66.1025 46.81 65.4769L42.91 61.0457L47.3412 57.1457C47.9668 56.5952 48.0277 55.6415 47.477 55.016C46.9263 54.39 45.9726 54.329 45.3471 54.8799ZM33.5104 43.2093C35.0611 43.2093 36.371 44.4121 36.371 45.8359C36.371 47.2596 35.0609 48.4624 33.5104 48.4624C32.8887 48.4624 31.7483 48.4675 30.8114 48.4723C30.7974 45.8884 30.8048 46.4824 30.7953 43.2091L33.5104 43.2093Z" fill="#7E6AD3"/>
<path d="M14.1875 12.4395H61.2211V26.0205H14.1875V12.4395Z" fill="#7E6AD3"/>
<path d="M61.2208 0H14.1872C10.7281 0 7.92383 2.80423 7.92383 6.26338V13.7215C7.92383 17.1807 10.7281 19.9849 14.1872 19.9849H61.2208C64.68 19.9849 67.4842 17.1807 67.4842 13.7215V6.26338C67.4842 2.80423 64.68 0 61.2208 0Z" fill="#DACAFF"/>
<path d="M21.7337 6.03516C20.9003 6.03516 20.2246 6.71081 20.2246 7.54421V10.6128C20.2246 11.4462 20.9003 12.1219 21.7337 12.1219C22.5671 12.1219 23.2427 11.4462 23.2427 10.6128V7.54421C23.2427 6.71081 22.5673 6.03516 21.7337 6.03516Z" fill="#7E6AD3"/>
<path d="M53.6731 6.03516C52.8397 6.03516 52.1641 6.71081 52.1641 7.54421V10.6128C52.1641 11.4462 52.8397 12.1219 53.6731 12.1219C54.5065 12.1219 55.1822 11.4462 55.1822 10.6128V7.54421C55.1822 6.71081 54.5065 6.03516 53.6731 6.03516Z" fill="#7E6AD3"/>
<path d="M43.0519 11.5123C43.5994 10.884 43.534 9.93085 42.9056 9.38316C42.2775 8.83568 41.3242 8.90107 40.7765 9.52944C39.1525 11.393 36.26 11.3985 34.6312 9.52944C34.0837 8.90087 33.1304 8.83568 32.502 9.38316C31.8737 9.93065 31.8083 10.884 32.3557 11.5123C35.1859 14.76 40.2248 14.7566 43.0519 11.5123Z" fill="#7E6AD3"/>
<path d="M16.9904 6.9493C16.9904 4.54145 17.3506 2.21107 18.0222 0H14.1872C10.7281 0 7.92383 2.80423 7.92383 6.26338V13.7215C7.92383 17.1807 10.7281 19.9849 14.1872 19.9849H20.8357C18.3926 16.1596 16.9904 11.7052 16.9904 6.9493Z" fill="#AE8FF7"/>
<path d="M87.4489 53.9163C81.9666 48.9785 73.5153 49.1479 68.2374 54.4258L60.1211 62.5421L65.1032 67.5242C69.7032 59.6769 77.9505 54.3242 87.4489 53.9163Z" fill="#5D4EB5"/>
</g>
<defs>
<clipPath id="clip0_73_9106">
<rect width="100" height="100" fill="white"/>
</clipPath>
</defs>
</svg>
