<svg width="40" height="40" viewBox="0 0 40 40" fill="none" xmlns="http://www.w3.org/2000/svg">
<path d="M17.6818 36.1687H8.27829C7.12009 36.1687 6.00934 35.7086 5.19037 34.8896C4.37141 34.0707 3.91132 32.9599 3.91132 31.8017V13.7224H36.1687V17.6818C36.1687 18.0679 36.322 18.4382 36.595 18.7111C36.868 18.9841 37.2383 19.1375 37.6243 19.1375C38.0104 19.1375 38.3807 18.9841 38.6537 18.7111C38.9266 18.4382 39.08 18.0679 39.08 17.6818V8.27829C39.08 6.34797 38.3132 4.49671 36.9482 3.13176C35.5833 1.76682 33.732 1 31.8017 1H8.27829C6.34797 1 4.49671 1.76682 3.13176 3.13176C1.76682 4.49671 1 6.34797 1 8.27829V31.8017C1 33.732 1.76682 35.5833 3.13176 36.9482C4.49671 38.3132 6.34797 39.08 8.27829 39.08H17.6818C18.0679 39.08 18.4382 38.9266 18.7111 38.6537C18.9841 38.3807 19.1375 38.0104 19.1375 37.6243C19.1375 37.2383 18.9841 36.868 18.7111 36.595C18.4382 36.322 18.0679 36.1687 17.6818 36.1687ZM3.91132 8.27829C3.91132 7.12009 4.37141 6.00934 5.19037 5.19037C6.00934 4.37141 7.12009 3.91132 8.27829 3.91132H31.8017C32.9599 3.91132 34.0707 4.37141 34.8896 5.19037C35.7086 6.00934 36.1687 7.12009 36.1687 8.27829V10.8111H3.91132V8.27829Z" fill="white" stroke="#AE8FF7" stroke-width="0.5"/>
<path d="M31.0954 9.4509C30.7656 9.58752 30.4026 9.62327 30.0525 9.55362C29.7023 9.48397 29.3807 9.31206 29.1283 9.05963C28.8759 8.80719 28.7039 8.48557 28.6343 8.13543C28.5646 7.78529 28.6004 7.42236 28.737 7.09254C28.8736 6.76271 29.105 6.48081 29.4018 6.28247C29.6986 6.08413 30.0476 5.97827 30.4046 5.97827C30.8833 5.97827 31.3425 6.16844 31.681 6.50695C32.0195 6.84545 32.2096 7.30457 32.2096 7.78329" stroke="#AE8FF7" stroke-width="0.5"/>
<path d="M8.39977 9.05963C8.06126 8.72112 7.87109 8.26201 7.87109 7.78329C7.87109 7.30457 8.06126 6.84545 8.39977 6.50695C8.73828 6.16844 9.19739 5.97827 9.67611 5.97827C10.1548 5.97827 10.6139 6.16844 10.9524 6.50695C11.291 6.84545 11.4811 7.30457 11.4811 7.78329C11.4811 8.26201 11.291 8.72112 10.9524 9.05963" stroke="#AE8FF7" stroke-width="0.5"/>
<path d="M30.9723 28.148H29.6476V25.717C29.6476 25.3309 29.4943 24.9607 29.2213 24.6877C28.9483 24.4147 28.5781 24.2614 28.192 24.2614C27.8059 24.2614 27.4357 24.4147 27.1627 24.6877C26.8897 24.9607 26.7363 25.3309 26.7363 25.717V29.6036C26.7363 29.9897 26.8897 30.3599 27.1627 30.6329C27.4357 30.9059 27.8059 31.0593 28.192 31.0593H30.9723C31.3584 31.0593 31.7286 30.9059 32.0016 30.6329C32.2746 30.3599 32.4279 29.9897 32.4279 29.6036C32.4279 29.2176 32.2746 28.8473 32.0016 28.5743C31.7286 28.3013 31.3584 28.148 30.9723 28.148Z" fill="white" stroke="#AE8FF7" stroke-width="0.5"/>
<path d="M28.8908 18.6863C26.8755 18.6863 24.9054 19.2839 23.2297 20.4035C21.5541 21.5232 20.248 23.1146 19.4768 24.9765C18.7056 26.8384 18.5038 28.8872 18.897 30.8638C19.2901 32.8404 20.2606 34.656 21.6856 36.081C23.1107 37.5061 24.9263 38.4765 26.9029 38.8697C28.8795 39.2629 30.9283 39.0611 32.7902 38.2899C34.6521 37.5186 36.2435 36.2126 37.3631 34.5369C38.4828 32.8613 39.0804 30.8912 39.0804 28.8759C39.0804 26.1734 38.0068 23.5817 36.0959 21.6707C34.185 19.7598 31.5932 18.6863 28.8908 18.6863ZM28.8908 36.1542C27.4513 36.1542 26.0441 35.7273 24.8472 34.9276C23.6503 34.1278 22.7174 32.9911 22.1665 31.6612C21.6156 30.3312 21.4715 28.8678 21.7523 27.456C22.0332 26.0441 22.7264 24.7472 23.7443 23.7294C24.7621 22.7115 26.059 22.0183 27.4709 21.7374C28.8827 21.4566 30.3461 21.6007 31.6761 22.1516C33.006 22.7025 34.1427 23.6354 34.9425 24.8323C35.7422 26.0292 36.1691 27.4364 36.1691 28.8759C36.171 29.8329 35.9841 30.7809 35.6192 31.6656C35.2543 32.5504 34.7185 33.3544 34.0425 34.0318C33.3664 34.7092 32.5634 35.2466 31.6794 35.6133C30.7954 35.98 29.8478 36.1687 28.8908 36.1687V36.1542Z" fill="white" stroke="#AE8FF7" stroke-width="0.5"/>
</svg>
