<svg width="44" height="46" viewBox="0 0 44 46" fill="none" xmlns="http://www.w3.org/2000/svg">
<path d="M33.7367 45.7778H3.79232C2.9417 45.7768 2.12619 45.4385 1.52471 44.837C0.923232 44.2355 0.584914 43.42 0.583986 42.5694V9.11744C0.583347 8.36756 0.844913 7.64105 1.32341 7.06367L5.53799 2.01567C5.83843 1.65277 6.21559 1.361 6.64232 1.16136C7.06905 0.961718 7.53474 0.859174 8.00586 0.861111H33.7367C34.5874 0.862039 35.4029 1.20036 36.0043 1.80184C36.6058 2.40331 36.9441 3.21883 36.9451 4.06944V34.0995C36.9451 34.3831 36.8324 34.6552 36.6318 34.8557C36.4313 35.0563 36.1593 35.169 35.8756 35.169C35.592 35.169 35.32 35.0563 35.1194 34.8557C34.9189 34.6552 34.8062 34.3831 34.8062 34.0995V4.06944C34.8058 3.78592 34.693 3.51412 34.4925 3.31364C34.2921 3.11316 34.0203 3.00037 33.7367 3H8.00586C7.84903 2.99774 7.6937 3.03083 7.55141 3.09682C7.40912 3.16282 7.28352 3.26002 7.18394 3.3812L2.96621 8.43338C2.80885 8.62663 2.72291 8.86822 2.72287 9.11744V42.5694C2.72324 42.8529 2.83603 43.1247 3.03651 43.3252C3.23699 43.5257 3.5088 43.6385 3.79232 43.6389H33.7367C34.0204 43.6389 34.2924 43.7515 34.493 43.9521C34.6935 44.1527 34.8062 44.4247 34.8062 44.7083C34.8062 44.9919 34.6935 45.264 34.493 45.4645C34.2924 45.6651 34.0204 45.7778 33.7367 45.7778Z" fill="white"/>
<path d="M7.00065 10.4861H1.65343C1.36979 10.4861 1.09778 10.3734 0.897217 10.1728C0.696658 9.97228 0.583984 9.70027 0.583984 9.41663C0.583984 9.133 0.696658 8.86098 0.897217 8.66042C1.09778 8.45986 1.36979 8.34719 1.65343 8.34719H7.00065V1.93053C7.00065 1.64689 7.11332 1.37488 7.31388 1.17432C7.51444 0.973757 7.78646 0.861084 8.07009 0.861084C8.35373 0.861084 8.62574 0.973757 8.8263 1.17432C9.02686 1.37488 9.13953 1.64689 9.13953 1.93053V8.34719C9.13897 8.91428 8.91344 9.45799 8.51244 9.85899C8.11145 10.26 7.56774 10.4855 7.00065 10.4861Z" fill="white"/>
<path d="M33.7373 40.4304C30.1624 40.4304 24.1123 39.6419 24.1123 36.6874C24.1123 33.7328 30.1624 32.9443 33.7373 32.9443C37.3122 32.9443 43.3623 33.7328 43.3623 36.6874C43.3623 39.6419 37.3122 40.4304 33.7373 40.4304ZM26.2799 36.6874C26.6705 37.1965 29.1958 38.2916 33.7373 38.2916C38.2788 38.2916 40.8041 37.1965 41.1947 36.6874C40.8041 36.1783 38.2788 35.0832 33.7373 35.0832C29.1958 35.0832 26.6705 36.1783 26.2799 36.6874Z" fill="white"/>
<path d="M33.7373 45.7777C31.6273 45.6579 29.5288 45.3846 27.4585 44.9599C26.83 44.8458 26.2504 44.5454 25.7947 44.0978C25.339 43.6502 25.0283 43.0761 24.9029 42.4498C24.4776 40.5547 24.2132 38.627 24.1123 36.6874C24.1123 36.4038 24.225 36.1318 24.4255 35.9312C24.6261 35.7306 24.8981 35.618 25.1817 35.618C25.4654 35.618 25.7374 35.7306 25.938 35.9312C26.1385 36.1318 26.2512 36.4038 26.2512 36.6874C26.3477 38.4843 26.5978 40.2695 26.999 42.0237C27.0407 42.2315 27.1438 42.4219 27.295 42.5704C27.4462 42.7189 27.6385 42.8186 27.847 42.8566C29.7884 43.2629 31.7572 43.5244 33.7373 43.6388C35.6967 43.593 37.6468 43.355 39.5597 42.9281C39.7704 42.8817 39.9622 42.7727 40.1098 42.6152C40.2573 42.4578 40.3538 42.2594 40.3864 42.0461L41.236 36.525C41.2572 36.3861 41.3055 36.2527 41.3783 36.1325C41.4511 36.0123 41.5468 35.9076 41.6601 35.8244C41.7734 35.7412 41.9019 35.6812 42.0384 35.6477C42.1749 35.6142 42.3166 35.608 42.4555 35.6293C42.5944 35.6507 42.7277 35.6992 42.8478 35.7721C42.968 35.845 43.0726 35.9409 43.1556 36.0542C43.2387 36.1676 43.2986 36.2962 43.3319 36.4327C43.3652 36.5692 43.3713 36.711 43.3498 36.8498L42.5002 42.3709C42.4004 43.0133 42.1083 43.6103 41.6624 44.0834C41.2166 44.5564 40.6379 44.8833 40.0026 45.021C37.9441 45.4784 35.8455 45.7319 33.7373 45.7777Z" fill="white"/>
<path d="M29.4583 21.1805H8.06944C7.78581 21.1805 7.51379 21.0678 7.31323 20.8673C7.11267 20.6667 7 20.3947 7 20.1111C7 19.8274 7.11267 19.5554 7.31323 19.3549C7.51379 19.1543 7.78581 19.0416 8.06944 19.0416H29.4583C29.742 19.0416 30.014 19.1543 30.2145 19.3549C30.4151 19.5554 30.5278 19.8274 30.5278 20.1111C30.5278 20.3947 30.4151 20.6667 30.2145 20.8673C30.014 21.0678 29.742 21.1805 29.4583 21.1805Z" fill="white"/>
<path d="M29.4583 25.4583H8.06944C7.78581 25.4583 7.51379 25.3457 7.31323 25.1451C7.11267 24.9446 7 24.6725 7 24.3889C7 24.1053 7.11267 23.8332 7.31323 23.6327C7.51379 23.4321 7.78581 23.3195 8.06944 23.3195H29.4583C29.742 23.3195 30.014 23.4321 30.2145 23.6327C30.4151 23.8332 30.5278 24.1053 30.5278 24.3889C30.5278 24.6725 30.4151 24.9446 30.2145 25.1451C30.014 25.3457 29.742 25.4583 29.4583 25.4583Z" fill="white"/>
<path d="M29.4583 29.7361H8.06944C7.78581 29.7361 7.51379 29.6234 7.31323 29.4228C7.11267 29.2223 7 28.9502 7 28.6666C7 28.383 7.11267 28.111 7.31323 27.9104C7.51379 27.7098 7.78581 27.5972 8.06944 27.5972H29.4583C29.742 27.5972 30.014 27.7098 30.2145 27.9104C30.4151 28.111 30.5278 28.383 30.5278 28.6666C30.5278 28.9502 30.4151 29.2223 30.2145 29.4228C30.014 29.6234 29.742 29.7361 29.4583 29.7361Z" fill="white"/>
<path d="M19.8333 34.0139H8.06944C7.78581 34.0139 7.51379 33.9012 7.31323 33.7007C7.11267 33.5001 7 33.2281 7 32.9444C7 32.6608 7.11267 32.3888 7.31323 32.1882C7.51379 31.9877 7.78581 31.875 8.06944 31.875H19.8333C20.117 31.875 20.389 31.9877 20.5895 32.1882C20.7901 32.3888 20.9028 32.6608 20.9028 32.9444C20.9028 33.2281 20.7901 33.5001 20.5895 33.7007C20.389 33.9012 20.117 34.0139 19.8333 34.0139Z" fill="white"/>
<path d="M19.8333 38.2916H8.06944C7.78581 38.2916 7.51379 38.1789 7.31323 37.9784C7.11267 37.7778 7 37.5058 7 37.2222C7 36.9385 7.11267 36.6665 7.31323 36.4659C7.51379 36.2654 7.78581 36.1527 8.06944 36.1527H19.8333C20.117 36.1527 20.389 36.2654 20.5895 36.4659C20.7901 36.6665 20.9028 36.9385 20.9028 37.2222C20.9028 37.5058 20.7901 37.7778 20.5895 37.9784C20.389 38.1789 20.117 38.2916 19.8333 38.2916Z" fill="white"/>
<path d="M16.0905 10.486C16.9764 10.486 17.6947 9.76783 17.6947 8.88188C17.6947 7.99592 16.9764 7.27771 16.0905 7.27771C15.2045 7.27771 14.4863 7.99592 14.4863 8.88188C14.4863 9.76783 15.2045 10.486 16.0905 10.486Z" fill="white"/>
<path d="M21.4381 15.8333C22.3241 15.8333 23.0423 15.1151 23.0423 14.2292C23.0423 13.3432 22.3241 12.625 21.4381 12.625C20.5522 12.625 19.834 13.3432 19.834 14.2292C19.834 15.1151 20.5522 15.8333 21.4381 15.8333Z" fill="white"/>
<path d="M15.5555 15.8334C15.3441 15.8333 15.1373 15.7706 14.9615 15.6531C14.7857 15.5356 14.6486 15.3685 14.5677 15.1732C14.4868 14.9778 14.4656 14.7628 14.5069 14.5554C14.5481 14.3479 14.6499 14.1574 14.7994 14.0078L21.2161 7.59117C21.4173 7.39363 21.6883 7.28352 21.9702 7.2848C22.2521 7.28608 22.5221 7.39864 22.7215 7.59799C22.9208 7.79734 23.0334 8.06735 23.0347 8.34927C23.036 8.6312 22.9258 8.90222 22.7283 9.10336L16.3116 15.52C16.2125 15.6195 16.0946 15.6984 15.9649 15.7522C15.8351 15.8059 15.696 15.8335 15.5555 15.8334Z" fill="white"/>
</svg>
