<svg width="45" height="45" viewBox="0 0 45 45" fill="none" xmlns="http://www.w3.org/2000/svg">
<path d="M19.2913 2.26733V6.90212C19.2913 8.77386 17.7761 10.2891 15.9043 10.2891H11.2695" stroke="white" stroke-width="2.3" stroke-miterlimit="10" stroke-linecap="round" stroke-linejoin="round"/>
<path d="M11.002 40.0587C11.2693 41.7522 12.6954 43 14.3889 43H39.5237C41.3954 43 42.9107 41.4848 42.9107 39.613V5.38696C42.9998 3.51522 41.4846 2 39.6128 2H20.7172C19.8259 2 18.9346 2.35652 18.3106 2.98043L11.9824 9.3087C11.3585 9.93261 11.002 10.8239 11.002 11.7152V27.313" stroke="white" stroke-width="2.3" stroke-miterlimit="10" stroke-linecap="round" stroke-linejoin="round"/>
<path d="M16.3496 14.5869H37.6518" stroke="white" stroke-width="2.3" stroke-miterlimit="10" stroke-linecap="round" stroke-linejoin="round"/>
<path d="M16.3496 21H30.5213" stroke="white" stroke-width="2.3" stroke-miterlimit="10" stroke-linecap="round" stroke-linejoin="round"/>
<path d="M11.0914 39.8804C14.488 39.8804 17.2414 37.127 17.2414 33.7304C17.2414 30.3339 14.488 27.5804 11.0914 27.5804C7.69485 27.5804 4.94141 30.3339 4.94141 33.7304C4.94141 37.127 7.69485 39.8804 11.0914 39.8804Z" stroke="white" stroke-width="2.3" stroke-miterlimit="10" stroke-linecap="round" stroke-linejoin="round"/>
<path d="M27.5807 39.8804C30.9772 39.8804 33.7307 37.127 33.7307 33.7304C33.7307 30.3339 30.9772 27.5804 27.5807 27.5804C24.1841 27.5804 21.4307 30.3339 21.4307 33.7304C21.4307 37.127 24.1841 39.8804 27.5807 39.8804Z" stroke="white" stroke-width="2.3" stroke-miterlimit="10" stroke-linecap="round" stroke-linejoin="round"/>
<path d="M21.7869 31.8586H16.8848" stroke="white" stroke-width="2.3" stroke-miterlimit="10" stroke-linecap="round" stroke-linejoin="round"/>
<path d="M36.6716 31.8586H33.4629" stroke="white" stroke-width="2.3" stroke-miterlimit="10" stroke-linecap="round" stroke-linejoin="round"/>
<path d="M5.2087 31.8586H2" stroke="white" stroke-width="2.3" stroke-miterlimit="10" stroke-linecap="round" stroke-linejoin="round"/>
</svg>
