<svg width="46" height="46" viewBox="0 0 46 46" fill="none" xmlns="http://www.w3.org/2000/svg">
<path fill-rule="evenodd" clip-rule="evenodd" d="M41.3983 1.77819L41.6041 2.66191L42.5281 1.73788C42.9768 1.28924 43.7042 1.28924 44.1528 1.73788C44.6014 2.18652 44.6014 2.91391 44.1528 3.36255L43.2274 4.28789L44.1102 4.49314C45.8662 4.90141 46.4894 7.08081 45.2145 8.35571L42.2646 11.3056C41.6991 11.8711 41.0068 12.2694 40.2611 12.4794C40.2207 12.4908 40.1801 12.5016 40.1394 12.5119C39.4962 12.6742 38.817 12.6976 38.148 12.5689C38.0901 12.5578 38.0324 12.5456 37.9747 12.5322L35.5475 11.9678L33.118 14.3973C35.3879 17.0169 36.7615 20.4344 36.7615 24.1727C36.7615 32.4208 30.0751 39.1072 21.827 39.1072C13.5789 39.1072 6.89258 32.4208 6.89258 24.1727C6.89258 15.9247 13.5789 9.23826 21.827 9.23826C24.2292 9.23826 26.4989 9.80541 28.5095 10.8131C29.1822 11.1502 29.2815 12.0408 28.7494 12.573C28.3744 12.9479 27.797 13.0196 27.3196 12.7888C25.6587 11.986 23.7954 11.5359 21.827 11.5359C14.8479 11.5359 9.1902 17.1936 9.1902 24.1727C9.1902 31.1519 14.8479 36.8096 21.827 36.8096C28.8062 36.8096 34.4639 31.1519 34.4639 24.1727C34.4639 21.069 33.3449 18.2266 31.4884 16.0269L28.2207 19.2946C29.2545 20.6476 29.8687 22.3385 29.8687 24.1727C29.8687 28.614 26.2683 32.2144 21.827 32.2144C17.3858 32.2144 13.7854 28.614 13.7854 24.1727C13.7854 19.7315 17.3858 16.1311 21.827 16.1311C22.1424 16.1311 22.4536 16.1493 22.7596 16.1846C23.6794 16.2908 23.9319 17.3904 23.2771 18.0451C22.9841 18.3382 22.5674 18.461 22.1536 18.4379C22.0455 18.4318 21.9366 18.4287 21.827 18.4287C18.6547 18.4287 16.083 21.0004 16.083 24.1727C16.083 27.345 18.6547 29.9167 21.827 29.9167C24.9994 29.9167 27.571 27.345 27.571 24.1727C27.571 22.9738 27.2037 21.8607 26.5755 20.9398L23.033 24.4823C22.5843 24.931 21.857 24.931 21.4083 24.4823C20.9597 24.0337 20.9597 23.3063 21.4083 22.8577L33.9242 10.3418L33.3594 7.91655C33.3369 7.81989 33.3176 7.72295 33.3015 7.62584C33.1917 6.96435 33.2294 6.29553 33.4019 5.66387C33.6092 4.90483 34.0111 4.19945 34.5856 3.62503L37.5359 0.674633C38.8105 -0.599971 40.9895 0.0225888 41.3983 1.77819ZM39.6816 4.53664L39.1606 2.29929L36.2102 5.24969C35.6489 5.81099 35.4171 6.6223 35.5971 7.39545L35.8286 8.38962L39.6816 4.53664ZM43.5899 6.73104L41.3578 6.21209L37.5057 10.0642L38.495 10.2942C39.2679 10.4739 40.0788 10.2421 40.6399 9.68095L43.5899 6.73104Z" fill="white"/>
<path d="M21.8272 2.34546C24.9418 2.34546 27.9039 2.9978 30.5845 4.17327C31.0257 4.36671 31.2227 4.8695 31.1154 5.33909C30.9571 6.03174 30.1807 6.50029 29.5278 6.21994C27.165 5.2051 24.5618 4.64308 21.8272 4.64308C11.0414 4.64308 2.29762 13.3868 2.29762 24.1728C2.29762 34.9587 11.0414 43.7024 21.8272 43.7024C32.6132 43.7024 41.3569 34.9587 41.3569 24.1728C41.3569 21.3939 40.7766 18.7506 39.7304 16.3575C39.446 15.7068 39.9086 14.9278 40.5997 14.7646C41.0689 14.6538 41.5739 14.8475 41.7703 15.2878C42.9813 18.0019 43.6546 21.0087 43.6546 24.1728C43.6546 36.2276 33.8821 46 21.8272 46C9.77242 46 0 36.2276 0 24.1728C0 12.1179 9.77242 2.34546 21.8272 2.34546Z" fill="white"/>
</svg>
