<svg width="37" height="43" viewBox="0 0 37 43" fill="none" xmlns="http://www.w3.org/2000/svg">
<path d="M36.9251 31.7402C36.9251 26.5283 36.9251 21.3164 36.9251 16.1045C36.9251 14.161 35.9534 12.7476 34.6283 11.5109C32.5965 9.56749 30.6531 7.53573 28.6214 5.50397C27.1196 4.00223 25.7946 2.32382 24.1161 1.08709C22.4377 -0.149633 20.141 0.115379 18.1975 0.115379C15.1941 0.115379 12.2789 0.115379 9.27544 0.115379C7.50869 0.115379 5.30025 -0.23797 3.5335 0.292055C1.59008 0.82208 0 2.76551 0 4.88561V33.3303V37.9238C0 40.7506 2.03176 42.7824 4.85856 42.8707C9.36378 42.9591 13.869 42.8707 18.3742 42.8707C22.9678 42.8707 27.473 42.9591 32.0665 42.8707C34.8933 42.7824 36.9251 40.6623 36.9251 37.8355C36.9251 35.7154 36.9251 33.772 36.9251 31.7402ZM24.0278 4.62059C24.3812 4.97394 24.7345 5.32729 25.0879 5.68064C25.7062 6.29901 26.4129 7.00571 27.0313 7.62407L32.4199 13.0127C31.5365 13.0127 30.5648 13.0127 29.6814 13.0127C28.4447 13.0127 27.208 13.0127 25.8829 13.0127C24.6462 13.0127 24.0278 12.1293 24.0278 10.9809C24.0278 8.8608 24.0278 6.74069 24.0278 4.62059ZM32.1549 40.0439C28.533 40.2206 24.8228 40.0439 21.201 40.0439C16.1658 40.0439 11.1305 40.0439 6.09529 40.0439C4.59355 40.0439 2.8268 40.0439 2.65013 37.9238C2.56179 36.8638 2.65013 35.8037 2.65013 34.7437C2.65013 25.0266 2.65013 15.2211 2.65013 5.50397C2.65013 5.23896 2.65013 4.97394 2.65013 4.79727C2.73846 2.32382 5.47692 2.7655 7.24367 2.7655H15.5474C17.4908 2.7655 19.4343 2.67717 21.2893 2.7655H21.3777V10.8926C21.3777 11.6876 21.466 12.4826 21.8194 13.1893C22.5261 14.6027 23.9395 15.4861 25.4412 15.6628C26.5896 15.7511 27.8263 15.6628 29.063 15.6628H34.0983H34.275C34.3633 17.0762 34.275 18.5779 34.275 19.9913V28.3834V36.0688C34.275 37.6588 34.54 39.9556 32.1549 40.0439Z" fill="white"/>
<path d="M5.65348 8.33079H16.519H18.0207C19.6991 8.33079 19.6991 5.68066 18.0207 5.68066C14.3989 5.68066 10.7771 5.68066 7.15522 5.68066C6.62519 5.68066 6.09516 5.68066 5.65348 5.68066C3.97506 5.68066 3.88673 8.33079 5.65348 8.33079Z" fill="white"/>
<path d="M5.65348 13.6311H16.519H18.0207C19.6991 13.6311 19.6991 10.981 18.0207 10.981C14.3989 10.981 10.7771 10.981 7.15522 10.981C6.62519 10.981 6.09516 10.981 5.65348 10.981C3.97506 10.981 3.88673 13.6311 5.65348 13.6311Z" fill="white"/>
<path d="M11.5724 16.0161C9.894 16.0161 8.30393 16.0161 6.62551 16.0161C6.3605 16.0161 6.18383 16.0161 5.91881 16.0161C5.21211 16.0161 4.59375 16.6345 4.59375 17.3412C4.59375 18.0479 5.21211 18.6662 5.91881 18.6662H10.8657H11.5724C12.2791 18.6662 12.8975 18.0479 12.8975 17.3412C12.8091 16.6345 12.2791 16.0161 11.5724 16.0161Z" fill="white"/>
<path d="M17.7559 26.4399C17.9325 26.5283 17.9325 26.5283 17.7559 26.4399V26.4399Z" fill="white"/>
<path d="M19.6992 23.9666C19.7876 24.0549 19.7876 24.0549 19.6992 23.9666C19.7876 23.9666 19.7876 23.9666 19.6992 23.9666Z" fill="white"/>
<path d="M19.4346 23.7015C19.4346 23.7015 19.4346 23.7015 19.5229 23.7899C19.5229 23.7015 19.5229 23.7015 19.4346 23.7015Z" fill="white"/>
<path d="M19.9642 24.3199C20.0526 24.5849 20.1409 24.7616 20.1409 25.0266C20.1409 25.7333 20.7593 26.3517 21.466 26.3517C22.1727 26.3517 22.791 25.7333 22.791 25.0266C22.791 23.6132 22.0843 22.3765 21.0243 21.5814C20.6709 21.3164 20.2292 21.1397 19.8759 20.9631C19.8759 20.6097 19.8759 20.3447 19.8759 19.9913C19.8759 19.903 19.8759 19.8147 19.8759 19.7263C19.8759 19.373 19.6992 19.0196 19.5225 18.7546C19.2575 18.4896 18.9042 18.3129 18.5508 18.4013C18.1975 18.4013 17.8441 18.4896 17.5791 18.7546C17.3141 19.0196 17.2258 19.373 17.2258 19.7263V20.9631C15.989 21.4048 15.0173 22.2881 14.5756 23.5249C14.134 24.6732 14.2223 26.175 14.929 27.235C15.724 28.5601 17.1374 29.3551 18.6392 29.3551C19.8759 29.3551 20.6709 30.6802 20.0526 31.7402C19.6992 32.4469 18.9042 32.8003 18.1091 32.5353C17.4024 32.3586 16.9608 31.6519 16.9608 30.9452C16.9608 30.2385 16.3424 29.6201 15.6357 29.6201C14.929 29.6201 14.3106 30.2385 14.3106 30.9452C14.3106 32.3586 15.0173 33.5953 16.0774 34.3904C16.4307 34.6554 16.8724 34.8321 17.2258 35.0087V36.1571V36.4221C17.2258 36.7755 17.4024 37.1288 17.5791 37.3938C17.8441 37.6589 18.1975 37.8355 18.5508 37.7472C18.9042 37.7472 19.2575 37.6589 19.5225 37.3938C19.7876 37.1288 19.8759 36.7755 19.8759 36.4221C19.8759 35.8921 19.8759 35.4504 19.8759 34.9204C21.1126 34.4787 22.0843 33.5953 22.526 32.3586C22.9677 31.2102 22.8794 29.7085 22.1727 28.6484C21.6426 27.8534 20.9359 27.1467 19.9642 26.7933C19.5225 26.6167 18.9925 26.5283 18.5508 26.5283C17.8441 26.5283 17.2258 26.175 16.9608 25.4683C16.6074 24.6732 16.9608 23.7899 17.7558 23.4365C18.5508 23.0832 19.5225 23.4365 19.9642 24.3199ZM19.5225 32.1819C19.6109 32.1819 19.6109 32.1819 19.5225 32.1819V32.1819ZM19.5225 29.6201C19.6109 29.7085 19.6109 29.7085 19.5225 29.6201V29.6201ZM19.6992 29.8852C19.7876 29.9735 19.8759 29.9735 19.6992 29.8852V29.8852ZM17.4024 26.2633C17.3141 26.175 17.3141 26.2633 17.4024 26.2633V26.2633ZM17.2258 26.0866C17.0491 25.91 17.1374 25.9983 17.2258 26.0866V26.0866ZM17.4024 23.7015C17.3141 23.7899 17.3141 23.7899 17.4024 23.7015V23.7015Z" fill="white"/>
<path d="M17.2254 32.0052C17.1371 31.8285 17.1371 31.9169 17.2254 32.0052C17.1371 31.9169 17.1371 31.9169 17.2254 32.0052Z" fill="white"/>
<path d="M17.4917 32.2702C17.4917 32.2702 17.4917 32.2702 17.4033 32.1819C17.4033 32.1819 17.4033 32.1819 17.4917 32.2702Z" fill="white"/>
<path d="M19.6992 31.9169C19.7876 31.9169 19.7876 31.9169 19.6992 31.9169C19.6992 32.0052 19.6992 32.0052 19.6992 31.9169Z" fill="white"/>
<path d="M19.1696 29.4434C18.9929 29.3551 18.9929 29.4434 19.1696 29.4434V29.4434Z" fill="white"/>
</svg>
