<svg width="41" height="47" viewBox="0 0 41 47" fill="none" xmlns="http://www.w3.org/2000/svg">
<path d="M22.1667 13.7C22.6529 13.7 23.1192 13.4998 23.463 13.1435C23.8068 12.7872 24 12.3039 24 11.8C24 11.2961 23.8068 10.8128 23.463 10.4565C23.1192 10.1002 22.6529 9.9 22.1667 9.9H20.3333C20.3333 9.39609 20.1402 8.91282 19.7964 8.5565C19.4525 8.20018 18.9862 8 18.5 8C18.0138 8 17.5475 8.20018 17.2036 8.5565C16.8598 8.91282 16.6667 9.39609 16.6667 9.9C15.6942 9.9 14.7616 10.3004 14.0739 11.013C13.3863 11.7256 13 12.6922 13 13.7V15.6C13 16.6078 13.3863 17.5744 14.0739 18.287C14.7616 18.9996 15.6942 19.4 16.6667 19.4H20.3333V21.3H14.8333C14.3471 21.3 13.8808 21.5002 13.537 21.8565C13.1932 22.2128 13 22.6961 13 23.2C13 23.7039 13.1932 24.1872 13.537 24.5435C13.8808 24.8998 14.3471 25.1 14.8333 25.1H16.6667C16.6667 25.6039 16.8598 26.0872 17.2036 26.4435C17.5475 26.7998 18.0138 27 18.5 27C18.9862 27 19.4525 26.7998 19.7964 26.4435C20.1402 26.0872 20.3333 25.6039 20.3333 25.1C21.3058 25.1 22.2384 24.6996 22.9261 23.987C23.6137 23.2744 24 22.3078 24 21.3V19.4C24 18.3922 23.6137 17.4256 22.9261 16.713C22.2384 16.0004 21.3058 15.6 20.3333 15.6H16.6667V13.7H22.1667Z" fill="white" stroke="#AE8FF7" stroke-width="1.4"/>
<path d="M39.0866 33.5933C38.9372 33.4428 38.7596 33.3233 38.5638 33.2417C38.3681 33.1601 38.1581 33.1182 37.946 33.1182C37.734 33.1182 37.524 33.1601 37.3283 33.2417C37.1325 33.3233 36.9549 33.4428 36.8055 33.5933L36.2754 34.1234C36.1616 32.7207 35.6812 31.3726 34.8823 30.214C34.0835 29.0554 32.9943 28.1271 31.7238 27.5219C30.4532 26.9167 29.046 26.656 27.643 26.7658C26.24 26.8757 24.8905 27.3522 23.7296 28.1477C23.4043 28.3999 23.1882 28.7673 23.1259 29.1741C23.0636 29.581 23.1599 29.9962 23.3948 30.3342C23.6297 30.6721 23.9854 30.907 24.3885 30.9904C24.7915 31.0737 25.2112 30.9992 25.5609 30.7822C26.3667 30.2197 27.3251 29.917 28.3078 29.9147C29.4676 29.901 30.5935 30.3061 31.4787 31.0556C32.3639 31.8051 32.9491 32.8487 33.1269 33.9949L32.7414 33.5933C32.5916 33.4435 32.4138 33.3247 32.2181 33.2437C32.0224 33.1626 31.8127 33.1209 31.6009 33.1209C31.389 33.1209 31.1793 33.1626 30.9836 33.2437C30.7879 33.3247 30.6101 33.4435 30.4603 33.5933C30.3106 33.7431 30.1918 33.9209 30.1107 34.1166C30.0296 34.3123 29.9879 34.522 29.9879 34.7338C29.9879 34.9457 30.0296 35.1554 30.1107 35.3511C30.1918 35.5468 30.3106 35.7246 30.4603 35.8744L33.6731 39.0871C33.8224 39.2377 34.0001 39.3572 34.1958 39.4387C34.3916 39.5203 34.6016 39.5623 34.8136 39.5623C35.0257 39.5623 35.2356 39.5203 35.4314 39.4387C35.6271 39.3572 35.8048 39.2377 35.9541 39.0871L39.1669 35.8744C39.3123 35.7198 39.4257 35.5379 39.5004 35.3393C39.5751 35.1407 39.6098 34.9292 39.6023 34.7171C39.5948 34.505 39.5454 34.2965 39.4569 34.1036C39.3684 33.9107 39.2425 33.7373 39.0866 33.5933Z" fill="white" stroke="#AE8FF7"/>
<path d="M31.0547 41.8983C30.249 42.4607 29.2905 42.7634 28.3078 42.7657C27.1618 42.7602 26.0553 42.3464 25.1868 41.5986C24.3183 40.8508 23.7447 39.818 23.569 38.6855L23.9546 39.0871C24.1039 39.2377 24.2816 39.3572 24.4773 39.4388C24.6731 39.5203 24.883 39.5623 25.0951 39.5623C25.3071 39.5623 25.5171 39.5203 25.7129 39.4388C25.9086 39.3572 26.0863 39.2377 26.2356 39.0871C26.3862 38.9378 26.5057 38.7601 26.5872 38.5644C26.6688 38.3686 26.7108 38.1587 26.7108 37.9466C26.7108 37.7345 26.6688 37.5246 26.5872 37.3288C26.5057 37.1331 26.3862 36.9554 26.2356 36.8061L23.0229 33.5933C22.8735 33.4428 22.6959 33.3233 22.5001 33.2417C22.3044 33.1602 22.0944 33.1182 21.8823 33.1182C21.6703 33.1182 21.4603 33.1602 21.2646 33.2417C21.0688 33.3233 20.8911 33.4428 20.7418 33.5933L17.5291 36.8061C17.2266 37.1086 17.0566 37.5188 17.0566 37.9466C17.0566 38.3744 17.2266 38.7846 17.5291 39.0871C17.8315 39.3896 18.2418 39.5595 18.6696 39.5595C19.0974 39.5595 19.5076 39.3896 19.8101 39.0871L20.3402 38.557C20.4541 39.9597 20.9345 41.3078 21.7333 42.4664C22.5321 43.625 23.6213 44.5534 24.8919 45.1586C26.1624 45.7637 27.5696 46.0244 28.9726 45.9146C30.3756 45.8048 31.7251 45.3282 32.886 44.5327C33.0712 44.4178 33.2311 44.2663 33.3559 44.0876C33.4807 43.9089 33.5678 43.7067 33.612 43.4932C33.6561 43.2798 33.6564 43.0595 33.6127 42.846C33.569 42.6324 33.4823 42.43 33.3579 42.251C33.2335 42.072 33.074 41.9202 32.889 41.8049C32.704 41.6895 32.4975 41.613 32.2821 41.58C32.0666 41.547 31.8467 41.5582 31.6357 41.6129C31.4247 41.6676 31.227 41.7647 31.0547 41.8983Z" fill="white" stroke="#AE8FF7"/>
<path d="M16.8067 41.8983L15.4252 42.589L12.9032 41.4646C12.6961 41.3715 12.4717 41.3233 12.2446 41.3233C12.0176 41.3233 11.7931 41.3715 11.586 41.4646L9.03187 42.6051L6.47774 41.4646C6.27065 41.3715 6.04617 41.3233 5.81912 41.3233C5.59207 41.3233 5.3676 41.3715 5.16051 41.4646L4.21275 41.8822V5.81912C4.21275 5.39309 4.38199 4.9845 4.68324 4.68325C4.9845 4.38199 5.39309 4.21275 5.81912 4.21275H31.5211C31.9471 4.21275 32.3557 4.38199 32.657 4.68325C32.9582 4.9845 33.1275 5.39309 33.1275 5.81912V23.4892C33.1275 23.9153 33.2967 24.3239 33.598 24.6251C33.8992 24.9264 34.3078 25.0956 34.7339 25.0956C35.1599 25.0956 35.5685 24.9264 35.8697 24.6251C36.171 24.3239 36.3402 23.9153 36.3402 23.4892V5.81912C36.3402 4.54101 35.8325 3.31525 34.9287 2.41149C34.025 1.50773 32.7992 1 31.5211 1H5.81912C4.54101 1 3.31525 1.50773 2.41149 2.41149C1.50773 3.31525 1 4.54101 1 5.81912V44.3721C1.00045 44.6409 1.06833 44.9053 1.19743 45.141C1.32652 45.3767 1.51271 45.5763 1.73893 45.7215C1.99748 45.8885 2.29857 45.9777 2.60637 45.9785C2.83367 45.9774 3.05815 45.9282 3.26499 45.8339L5.81912 44.6934L8.37326 45.8339C8.58035 45.927 8.80482 45.9751 9.03187 45.9751C9.25892 45.9751 9.48339 45.927 9.69048 45.8339L12.2446 44.6934L14.7988 45.8339C15.0145 45.9367 15.2505 45.99 15.4895 45.99C15.7285 45.99 15.9645 45.9367 16.1802 45.8339L18.2525 44.7898C18.4564 44.7048 18.6406 44.5788 18.7936 44.4195C18.9466 44.2601 19.0651 44.0709 19.1417 43.8637C19.2183 43.6565 19.2513 43.4358 19.2387 43.2152C19.2261 42.9947 19.1682 42.7791 19.0685 42.582C18.9688 42.3849 18.8295 42.2104 18.6594 42.0695C18.4893 41.9287 18.2919 41.8244 18.0796 41.7632C17.8674 41.7021 17.6448 41.6854 17.4257 41.7141C17.2067 41.7429 16.996 41.8165 16.8067 41.9304V41.8983Z" fill="white" stroke="#AE8FF7"/>
</svg>
