<svg width="46" height="46" viewBox="0 0 46 46" fill="none" xmlns="http://www.w3.org/2000/svg">
<path d="M19.9808 34.2525C19.4553 34.2525 19.0292 33.8275 19.0292 33.3013C19.0292 31.7274 20.3097 30.4469 21.8836 30.4469H30.4467C31.4962 30.4469 32.3495 29.5933 32.3495 28.5438C32.3495 27.4943 31.4962 26.641 30.4467 26.641H21.8836C21.7818 26.641 21.6801 26.6239 21.5829 26.5915L18.8752 25.6894H14.272C12.7075 25.6894 11.2197 26.2814 10.1873 27.3138L9.23573 28.265C8.86395 28.6372 8.26255 28.6372 7.89042 28.265C7.5183 27.8933 7.5183 27.2919 7.89042 26.9197L8.842 25.9682C10.2281 24.5821 12.2072 23.7866 14.272 23.7866H19.0292C19.1309 23.7866 19.2327 23.8037 19.3299 23.8361L22.0376 24.7382H30.4467C32.5456 24.7382 34.2526 26.4448 34.2526 28.5438C34.2526 30.6428 32.5456 32.3497 30.4467 32.3497H21.8836C21.3592 32.3497 20.932 32.7759 20.932 33.3013C20.932 33.8275 20.5058 34.2525 19.9808 34.2525Z" fill="white"/>
<path d="M14.9449 39.6825L13.5996 38.3372L15.5024 36.4344C15.6805 36.2553 15.923 36.1557 16.1752 36.1557H29.1562L39.2385 27.9065L43.4556 21.1597C43.2329 21.0294 42.9988 20.9322 42.8162 20.9322C41.973 20.9322 41.3071 20.9322 39.6831 22.5563L37.7799 24.4594C37.7249 24.5145 37.6639 24.5619 37.5973 24.6019L32.8402 27.4563L31.8611 25.8246L36.5182 23.0301L38.3385 21.2099C40.3583 19.19 41.5144 19.0294 42.8162 19.0294C44.1242 19.0294 45.266 20.134 45.3918 20.2594C45.7047 20.5726 45.7608 21.0608 45.526 21.4364L40.7684 29.0483C40.7134 29.1358 40.6447 29.2145 40.5639 29.2804L30.098 37.8435C29.9276 37.9825 29.7144 38.0585 29.4955 38.0585H16.5693L14.9449 39.6825Z" fill="white"/>
<path d="M12.3691 45.67C12.1255 45.67 11.882 45.577 11.6966 45.3913C11.3245 45.0195 11.3245 44.4181 11.6966 44.046L14.8297 40.9129L4.75752 30.8407L1.6244 33.9738C1.25227 34.3459 0.650876 34.3459 0.279096 33.9738C-0.093032 33.602 -0.093032 33.0006 0.279096 32.6285L4.0847 28.8225C4.45683 28.4508 5.05822 28.4508 5.43035 28.8225L16.8479 40.24C17.2196 40.6122 17.2196 41.2136 16.8479 41.5857L13.0419 45.3913C12.8562 45.577 12.6126 45.67 12.3691 45.67Z" fill="white"/>
<path d="M34.2518 21.8838C34.0891 21.8838 33.9246 21.8427 33.7741 21.7542C33.3194 21.4897 33.1661 20.9064 33.4305 20.4528C34.5905 18.4611 35.2041 16.3242 35.2041 14.2719C35.2041 7.45197 29.6553 1.90315 22.8354 1.90315C16.0151 1.90315 10.4663 7.45197 10.4663 14.2719C10.4663 16.3242 11.0799 18.4611 12.2398 20.4534C12.5043 20.9075 12.3503 21.4897 11.8963 21.7552C11.4415 22.0186 10.8604 21.8667 10.5948 21.4116C9.26662 19.129 8.56348 16.66 8.56348 14.2719C8.56348 6.40248 14.9656 0 22.8354 0C30.7047 0 37.1072 6.40248 37.1072 14.2719C37.1072 16.66 36.4048 19.129 35.0748 21.4109C34.8988 21.7144 34.579 21.8838 34.2518 21.8838Z" fill="white"/>
<path d="M24.7384 20.9322H20.9325C19.359 20.9322 18.0781 19.6517 18.0781 18.0779C18.0781 17.5528 18.5046 17.1263 19.0297 17.1263C19.5548 17.1263 19.9813 17.5528 19.9813 18.0779C19.9813 18.6023 20.4085 19.0294 20.9325 19.0294H24.7384C25.2635 19.0294 25.69 18.6023 25.69 18.0779V16.1751C25.69 15.6507 25.2635 15.2235 24.7384 15.2235H20.9325C19.359 15.2235 18.0781 13.943 18.0781 12.3691V10.4663C18.0781 8.89244 19.359 7.61194 20.9325 7.61194H24.7384C26.3123 7.61194 27.5928 8.89244 27.5928 10.4663C27.5928 10.9914 27.1674 11.4175 26.6413 11.4175C26.1151 11.4175 25.69 10.9914 25.69 10.4663C25.69 9.94192 25.2635 9.51474 24.7384 9.51474H20.9325C20.4085 9.51474 19.9813 9.94192 19.9813 10.4663V12.3691C19.9813 12.8935 20.4085 13.3207 20.9325 13.3207H24.7384C26.3123 13.3207 27.5928 14.6012 27.5928 16.1751V18.0779C27.5928 19.6517 26.3123 20.9322 24.7384 20.9322Z" fill="white"/>
</svg>
