<svg width="46" height="48" viewBox="0 0 46 48" fill="none" xmlns="http://www.w3.org/2000/svg">
<path d="M44.398 23.6278C42.7423 22.2617 40.2964 22.3242 38.7109 23.769L33.3489 28.6546C32.5988 27.6286 31.3921 26.9726 30.0297 26.9726H24.3433C23.6283 26.9726 22.936 26.8505 22.2857 26.609C20.6789 26.0126 17.5049 25.2089 14.3095 26.5288C13.7 26.7801 13.0926 27.1571 12.5036 27.6484L6.949 32.2885C6.08049 31.7814 4.94853 31.8929 4.20583 32.6355L1.66475 35.1766C0.778781 36.0618 0.778054 37.4971 1.66475 38.383L10.1482 46.8669C11.0319 47.7512 12.47 47.7509 13.3546 46.8669L15.8957 44.3251C16.7793 43.4418 16.7793 42.0034 15.8957 41.1187L15.8147 41.0377L16.4275 40.425C17.582 39.2713 19.1344 38.6599 20.6988 38.7693C24.4548 39.0128 28.259 38.7132 32.007 37.8754C33.317 37.5829 34.5134 36.924 35.4669 35.9705L44.5549 26.8817C45.4718 25.9649 45.4005 24.453 44.398 23.6278ZM14.8676 43.297L12.3265 45.8388C12.0095 46.1562 11.494 46.1555 11.1763 45.8388L2.6928 37.355C2.37508 37.0365 2.37472 36.5236 2.6928 36.2048L5.23388 33.6637C5.55242 33.3459 6.06767 33.3473 6.38411 33.6637C6.6791 33.9587 14.9407 42.2203 14.8672 42.1468C15.1842 42.4642 15.1846 42.9804 14.8676 43.297ZM43.5269 25.8537L34.4389 34.9424C33.6806 35.7007 32.7299 36.224 31.6904 36.4568C28.0765 37.2627 24.4079 37.5552 20.7937 37.3181C18.8188 37.1874 16.8496 37.9451 15.3994 39.397L14.7866 40.0097C5.58315 30.741 8.75739 33.9377 8.07069 33.2462L13.4355 28.7647C13.9108 28.3685 14.3915 28.0682 14.8647 27.8722C17.6003 26.7426 20.3715 27.4505 21.7798 27.9723C22.5928 28.274 23.455 28.4267 24.3433 28.4267H30.0297C31.523 28.4267 32.6948 29.6403 32.6829 31.0935C32.6801 31.5351 32.3116 31.8944 31.8614 31.8944H19.0804C18.6788 31.8944 18.3533 32.2195 18.3533 32.6214C18.3533 33.0233 18.6788 33.3485 19.0804 33.3485H31.8615C33.1076 33.3485 34.1285 32.341 34.1371 31.1041C34.1399 30.7363 34.0944 30.375 34.0022 30.0271L39.6907 24.8441C40.745 23.882 42.3724 23.8423 43.4735 24.7496C43.8142 25.03 43.8391 25.5414 43.5269 25.8537Z" fill="white" stroke="white" stroke-width="0.7"/>
<path d="M26.019 24.1325C31.5804 24.1325 36.106 19.6084 36.1074 14.0469C36.1074 13.6466 35.7824 13.3199 35.3803 13.3199H26.7488V4.68909C26.7488 4.28729 26.4209 3.9613 26.019 3.9613C20.4596 3.9613 15.9365 8.48477 15.9365 14.0441C15.9365 19.607 20.4596 24.1325 26.019 24.1325ZM25.2947 5.44525V14.0469C25.2947 14.4488 25.6199 14.774 26.0218 14.774H34.6227C34.2506 19.1945 30.5338 22.6785 26.0189 22.6785C21.2611 22.6785 17.3906 18.8055 17.3906 14.0441C17.3906 9.52991 20.8746 5.81451 25.2947 5.44525Z" fill="white" stroke="white" stroke-width="0.7"/>
<path d="M28.9839 11.812H38.3417C38.7436 11.812 39.0688 11.484 39.0688 11.0821C39.0688 5.52419 34.5447 1.00145 28.9839 1C28.5826 1 28.2568 1.32581 28.2568 1.72706V11.0849C28.2568 11.4867 28.582 11.812 28.9839 11.812ZM29.711 2.48458C33.8922 2.83602 37.2356 6.17871 37.5849 10.3578H29.711V2.48458Z" fill="white" stroke="white" stroke-width="0.7"/>
</svg>
