<svg width="61" height="61" viewBox="0 0 61 61" fill="none" xmlns="http://www.w3.org/2000/svg">
<path d="M30.5 0C24.4677 0 18.5708 1.7888 13.5551 5.14018C8.53942 8.49156 4.63016 13.255 2.32169 18.8281C0.0132191 24.4013 -0.590788 30.5338 0.586061 36.4502C1.76291 42.3666 4.66775 47.8012 8.93325 52.0667C13.1987 56.3322 18.6333 59.2371 24.5497 60.4139C30.4662 61.5908 36.5987 60.9868 42.1718 58.6783C47.745 56.3698 52.5084 52.4606 55.8598 47.4449C59.2112 42.4292 61 36.5323 61 30.5C60.9904 22.4138 57.774 14.6616 52.0562 8.94377C46.3384 3.22598 38.5862 0.00953948 30.5 0ZM30.5 55.4545C25.5645 55.4545 20.7397 53.991 16.636 51.2489C12.5322 48.5069 9.33377 44.6095 7.44502 40.0497C5.55627 35.4898 5.06208 30.4723 6.02496 25.6316C6.98783 20.7909 9.36453 16.3444 12.8545 12.8545C16.3444 9.36451 20.7909 6.98782 25.6316 6.02494C30.4723 5.06207 35.4898 5.55626 40.0497 7.445C44.6095 9.33375 48.5069 12.5322 51.2489 16.636C53.991 20.7397 55.4545 25.5644 55.4545 30.5C55.4465 37.1159 52.8147 43.4584 48.1366 48.1366C43.4585 52.8147 37.1159 55.4464 30.5 55.4545Z" fill="white"/>
<path d="M20.8296 28.2684C23.2947 28.2684 25.293 26.27 25.293 23.805C25.293 21.3399 23.2947 19.3416 20.8296 19.3416C18.3645 19.3416 16.3662 21.3399 16.3662 23.805C16.3662 26.27 18.3645 28.2684 20.8296 28.2684Z" fill="white"/>
<path d="M40.1704 28.2684C42.6355 28.2684 44.6339 26.27 44.6339 23.805C44.6339 21.3399 42.6355 19.3416 40.1704 19.3416C37.7054 19.3416 35.707 21.3399 35.707 23.805C35.707 26.27 37.7054 28.2684 40.1704 28.2684Z" fill="white"/>
<path d="M30.5006 37.4684C35.6973 37.4684 39.9234 40.6725 39.9234 44.6099H44.6348C44.6348 38.0469 38.2956 32.7074 30.5006 32.7074C22.7056 32.7074 16.3665 38.0469 16.3665 44.6099H21.0779C21.0779 40.6725 25.304 37.4684 30.5006 37.4684Z" fill="white"/>
</svg>
