<svg width="292" height="210" viewBox="0 0 292 210" fill="none" xmlns="http://www.w3.org/2000/svg">
<path opacity="0.25" d="M256.418 129.919C264.628 120.715 268.65 108.362 267.097 96.0495C265.796 85.7337 260.851 76.4593 246.278 80.6256C211.399 90.5968 197.393 77.975 193.955 59.5977C190.518 41.2203 187.392 -1.53255 156.469 1.60986C125.546 4.7525 115.818 64.7975 88.7008 55.7455C61.5833 46.6934 34.6212 45.7911 16.3366 64.9217C1.26776 80.6877 -8.36182 110.221 10.2145 130.531C28.6112 150.643 46.2358 122.314 63.3977 173.029C73.4904 202.854 135.01 208.548 141.718 179.171C148.426 149.794 181.603 131.487 207.835 148.533C225.134 159.774 244.937 142.79 256.418 129.919Z" fill="#D9C9FF"/>
<path d="M215.983 14.685C215.39 14.0504 214.488 13.7227 213.342 13.7227H213.013C207.197 13.9885 201.4 14.2753 195.583 14.5411C194.805 14.5821 193.74 14.6231 192.9 15.4625C192.634 15.7284 192.429 16.0353 192.265 16.4038C191.404 18.2664 192.613 19.4732 193.186 20.0462L194.641 21.5197C195.645 22.5429 196.669 23.5662 197.693 24.5683L195.334 26.9274L184.476 36.7884C184.51 36.8129 184.577 36.8072 184.621 36.8218L154.788 66.6473L138.996 50.8685C138.054 49.9273 136.784 49.3956 135.433 49.3956C134.081 49.3956 132.832 49.927 131.889 50.8685L110.855 71.8651C108.887 73.8293 108.887 77.0011 110.855 78.9666L111.797 79.9081C112.739 80.8491 114.008 81.3806 115.36 81.3806C116.712 81.3806 117.961 80.8491 118.903 79.9081L135.433 63.3929L151.224 79.1706C152.166 80.1116 153.435 80.6441 154.787 80.6441C156.139 80.6441 157.389 80.1116 158.352 79.1706L191.879 45.6727C191.884 45.6784 191.881 45.6915 191.887 45.6967L205.762 32.6111L210.248 37.0725C210.781 37.604 211.518 38.3405 212.644 38.3405C213.115 38.3405 213.586 38.2188 214.078 37.9519C214.406 37.7678 214.692 37.563 214.938 37.3172C215.819 36.4382 215.982 35.3118 216.023 34.4327C216.187 30.6664 216.372 26.9018 216.556 23.1157L216.822 17.4471C216.884 16.2612 216.618 15.3393 215.983 14.685Z" fill="#AE8FF7"/>
<path d="M125.763 43.0257L125.763 177.142C125.763 183.357 120.714 188.402 114.495 188.402H23.3142C17.0955 188.402 12.0467 183.357 12.0467 177.142L12.0467 43.0257C12.0467 36.811 17.0956 31.7654 23.3143 31.7654L114.495 31.7654C120.714 31.7654 125.763 36.8109 125.763 43.0257Z" fill="#6A44C5"/>
<path d="M114.495 38.176H23.3145C20.6345 38.176 18.4619 40.3472 18.4619 43.0255V177.142C18.4619 179.82 20.6345 181.992 23.3145 181.992H114.495C117.175 181.992 119.348 179.82 119.348 177.142V43.0255C119.348 40.3472 117.175 38.176 114.495 38.176Z" fill="white"/>
<g opacity="0.19">
<path d="M84.8517 30.1355V36.7242C84.8517 37.4686 84.2047 38.0692 83.403 38.0692H52.8452C52.0434 38.0692 51.3975 37.4686 51.3975 36.7242V30.1355H84.8517Z" fill="#936FE9"/>
</g>
<path d="M83.403 22.202H77.8077C77.0802 22.202 76.4812 21.6941 76.3742 21.0254C75.761 17.3063 72.3022 14.4556 68.122 14.4556C63.9469 14.4556 60.4841 17.3063 59.8738 21.0254C59.7669 21.6941 59.1689 22.202 58.4404 22.202H52.8451C52.0434 22.202 51.3975 22.8026 51.3975 23.5441V36.7243C51.3975 37.4687 52.0434 38.0693 52.8451 38.0693H83.403C84.2047 38.0693 84.8517 37.4687 84.8517 36.7243V23.5441C84.8517 22.8026 84.2047 22.202 83.403 22.202ZM68.1243 24.4047C66.8132 24.4047 65.7501 23.4178 65.7501 22.2005C65.7501 20.9832 66.8132 19.9964 68.1243 19.9964C69.4354 19.9964 70.4985 20.9832 70.4985 22.2005C70.4985 23.4178 69.4356 24.4047 68.1243 24.4047Z" fill="#D9C9FF"/>
<path d="M84.8527 30.0344V36.7243C84.8527 37.4687 84.2057 38.0693 83.4039 38.0693H52.8461C52.0444 38.0693 51.3984 37.4687 51.3984 36.7243V30.0344H84.8527Z" fill="#6A44C5"/>
<path d="M92.391 128.345H86.6845C86.3733 128.345 86.1211 128.096 86.1211 127.789C86.1211 127.481 86.3733 127.232 86.6845 127.232H92.391C92.7021 127.232 92.9544 127.481 92.9544 127.789C92.9544 128.096 92.7021 128.345 92.391 128.345Z" fill="#6A44C5"/>
<path d="M61.9535 129.325H56.247C55.9358 129.325 55.6836 129.076 55.6836 128.769C55.6836 128.461 55.9358 128.212 56.247 128.212H61.9535C62.2647 128.212 62.5169 128.461 62.5169 128.769C62.5169 129.076 62.2647 129.325 61.9535 129.325Z" fill="#6A44C5"/>
<path d="M42.89 122.538H37.1836C36.8724 122.538 36.6201 122.289 36.6201 121.982C36.6201 121.675 36.8724 121.426 37.1836 121.426H42.89C43.2012 121.426 43.4534 121.675 43.4534 121.982C43.4534 122.289 43.2012 122.538 42.89 122.538Z" fill="#6A44C5"/>
<path d="M72.1009 133.685H66.3945C66.0833 133.685 65.8311 133.436 65.8311 133.128C65.8311 132.821 66.0833 132.572 66.3945 132.572H72.1009C72.4121 132.572 72.6644 132.821 72.6644 133.128C72.6644 133.436 72.4121 133.685 72.1009 133.685Z" fill="#6A44C5"/>
<path d="M41.6625 133.685H35.956C35.6449 133.685 35.3926 133.436 35.3926 133.128C35.3926 132.821 35.6449 132.572 35.956 132.572H41.6625C41.9736 132.572 42.2259 132.821 42.2259 133.128C42.2259 133.436 41.9736 133.685 41.6625 133.685Z" fill="#6A44C5"/>
<path d="M82.2455 119.171H76.5391C76.2279 119.171 75.9756 118.922 75.9756 118.615C75.9756 118.307 76.2279 118.058 76.5391 118.058H82.2455C82.5567 118.058 82.8089 118.307 82.8089 118.615C82.8089 118.922 82.5567 119.171 82.2455 119.171Z" fill="#6A44C5"/>
<path d="M108.568 143.049H107.229C107.035 143.049 106.878 142.892 106.878 142.698C106.878 142.505 107.035 142.348 107.229 142.348H108.217V141.36C108.217 141.167 108.374 141.01 108.568 141.01C108.761 141.01 108.918 141.167 108.918 141.36V142.698C108.918 142.892 108.761 143.049 108.568 143.049Z" fill="#DDCFFF"/>
<path d="M104.584 143.049H101.941C101.747 143.049 101.591 142.892 101.591 142.698C101.591 142.505 101.747 142.348 101.941 142.348H104.584C104.778 142.348 104.935 142.505 104.935 142.698C104.935 142.892 104.778 143.049 104.584 143.049ZM99.2979 143.049H96.655C96.4613 143.049 96.3044 142.892 96.3044 142.698C96.3044 142.505 96.4613 142.348 96.655 142.348H99.2979C99.4917 142.348 99.6485 142.505 99.6485 142.698C99.6485 142.892 99.4917 143.049 99.2979 143.049ZM94.0118 143.049H91.3689C91.1752 143.049 91.0183 142.892 91.0183 142.698C91.0183 142.505 91.1752 142.348 91.3689 142.348H94.0118C94.2055 142.348 94.3624 142.505 94.3624 142.698C94.3624 142.892 94.2055 143.049 94.0118 143.049ZM88.7261 143.049H86.0828C85.8891 143.049 85.7322 142.892 85.7322 142.698C85.7322 142.505 85.8891 142.348 86.0828 142.348H88.7261C88.9198 142.348 89.0767 142.505 89.0767 142.698C89.0767 142.892 88.9198 143.049 88.7261 143.049ZM83.4399 143.049H80.797C80.6033 143.049 80.4464 142.892 80.4464 142.698C80.4464 142.505 80.6033 142.348 80.797 142.348H83.4399C83.6337 142.348 83.7905 142.505 83.7905 142.698C83.7905 142.892 83.6337 143.049 83.4399 143.049ZM78.1538 143.049H75.5109C75.3172 143.049 75.1603 142.892 75.1603 142.698C75.1603 142.505 75.3172 142.348 75.5109 142.348H78.1538C78.3475 142.348 78.5044 142.505 78.5044 142.698C78.5044 142.892 78.3475 143.049 78.1538 143.049ZM72.8677 143.049H70.2248C70.0311 143.049 69.8742 142.892 69.8742 142.698C69.8742 142.505 70.0311 142.348 70.2248 142.348H72.8677C73.0614 142.348 73.2183 142.505 73.2183 142.698C73.2183 142.892 73.0614 143.049 72.8677 143.049ZM67.5819 143.049H64.9387C64.745 143.049 64.5881 142.892 64.5881 142.698C64.5881 142.505 64.745 142.348 64.9387 142.348H67.5819C67.7757 142.348 67.9325 142.505 67.9325 142.698C67.9325 142.892 67.7757 143.049 67.5819 143.049ZM62.2958 143.049H59.6526C59.4588 143.049 59.3019 142.892 59.3019 142.698C59.3019 142.505 59.4588 142.348 59.6526 142.348H62.2958C62.4895 142.348 62.6464 142.505 62.6464 142.698C62.6464 142.892 62.4895 143.049 62.2958 143.049ZM57.0097 143.049H54.3668C54.1731 143.049 54.0162 142.892 54.0162 142.698C54.0162 142.505 54.1731 142.348 54.3668 142.348H57.0097C57.2034 142.348 57.3603 142.505 57.3603 142.698C57.3603 142.892 57.2034 143.049 57.0097 143.049ZM51.7236 143.049H49.0807C48.887 143.049 48.7301 142.892 48.7301 142.698C48.7301 142.505 48.887 142.348 49.0807 142.348H51.7236C51.9173 142.348 52.0742 142.505 52.0742 142.698C52.0742 142.892 51.9173 143.049 51.7236 143.049ZM46.4378 143.049H43.7946C43.6008 143.049 43.4439 142.892 43.4439 142.698C43.4439 142.505 43.6008 142.348 43.7946 142.348H46.4378C46.6315 142.348 46.7884 142.505 46.7884 142.698C46.7884 142.892 46.6315 143.049 46.4378 143.049ZM41.1517 143.049H38.5084C38.3147 143.049 38.1578 142.892 38.1578 142.698C38.1578 142.505 38.3147 142.348 38.5084 142.348H41.1517C41.3454 142.348 41.5023 142.505 41.5023 142.698C41.5023 142.892 41.3454 143.049 41.1517 143.049ZM35.8656 143.049H33.2227C33.029 143.049 32.8721 142.892 32.8721 142.698C32.8721 142.505 33.029 142.348 33.2227 142.348H35.8656C36.0593 142.348 36.2162 142.505 36.2162 142.698C36.2162 142.892 36.0593 143.049 35.8656 143.049Z" fill="#DDCFFF"/>
<path d="M30.5804 143.049H29.2412C29.0475 143.049 28.8906 142.892 28.8906 142.698V141.36C28.8906 141.167 29.0475 141.01 29.2412 141.01C29.435 141.01 29.5919 141.167 29.5919 141.36V142.348H30.5804C30.7741 142.348 30.931 142.505 30.931 142.698C30.931 142.892 30.7741 143.049 30.5804 143.049Z" fill="#DDCFFF"/>
<path d="M29.2412 139.095C29.0475 139.095 28.8906 138.938 28.8906 138.745V136.129C28.8906 135.936 29.0475 135.779 29.2412 135.779C29.435 135.779 29.5919 135.936 29.5919 136.129V138.745C29.5919 138.938 29.435 139.095 29.2412 139.095ZM29.2412 133.864C29.0475 133.864 28.8906 133.708 28.8906 133.514V130.899C28.8906 130.705 29.0475 130.548 29.2412 130.548C29.435 130.548 29.5919 130.705 29.5919 130.899V133.514C29.5919 133.708 29.435 133.864 29.2412 133.864ZM29.2412 128.634C29.0475 128.634 28.8906 128.477 28.8906 128.283V125.668C28.8906 125.474 29.0475 125.317 29.2412 125.317C29.435 125.317 29.5919 125.474 29.5919 125.668V128.283C29.5919 128.477 29.435 128.634 29.2412 128.634ZM29.2412 123.403C29.0475 123.403 28.8906 123.246 28.8906 123.052V120.437C28.8906 120.243 29.0475 120.087 29.2412 120.087C29.435 120.087 29.5919 120.243 29.5919 120.437V123.052C29.5919 123.246 29.435 123.403 29.2412 123.403ZM29.2412 118.172C29.0475 118.172 28.8906 118.015 28.8906 117.821V115.206C28.8906 115.013 29.0475 114.856 29.2412 114.856C29.435 114.856 29.5919 115.013 29.5919 115.206V117.821C29.5919 118.015 29.435 118.172 29.2412 118.172Z" fill="#DDCFFF"/>
<path d="M29.2412 112.941C29.0475 112.941 28.8906 112.785 28.8906 112.591V111.253C28.8906 111.059 29.0475 110.902 29.2412 110.902H30.5804C30.7741 110.902 30.931 111.059 30.931 111.253C30.931 111.446 30.7741 111.603 30.5804 111.603H29.5919V112.591C29.5919 112.785 29.435 112.941 29.2412 112.941Z" fill="#DDCFFF"/>
<path d="M104.584 111.603H101.941C101.747 111.603 101.591 111.446 101.591 111.253C101.591 111.059 101.747 110.902 101.941 110.902H104.584C104.778 110.902 104.935 111.059 104.935 111.253C104.935 111.446 104.778 111.603 104.584 111.603ZM99.2983 111.603H96.655C96.4613 111.603 96.3044 111.446 96.3044 111.253C96.3044 111.059 96.4613 110.902 96.655 110.902H99.2983C99.492 110.902 99.6489 111.059 99.6489 111.253C99.6489 111.446 99.492 111.603 99.2983 111.603ZM94.0122 111.603H91.3689C91.1752 111.603 91.0183 111.446 91.0183 111.253C91.0183 111.059 91.1752 110.902 91.3689 110.902H94.0122C94.2059 110.902 94.3628 111.059 94.3628 111.253C94.3628 111.446 94.2059 111.603 94.0122 111.603ZM88.7261 111.603H86.0832C85.8894 111.603 85.7326 111.446 85.7326 111.253C85.7326 111.059 85.8894 110.902 86.0832 110.902H88.7261C88.9198 110.902 89.0767 111.059 89.0767 111.253C89.0767 111.446 88.9198 111.603 88.7261 111.603ZM83.4399 111.603H80.797C80.6033 111.603 80.4464 111.446 80.4464 111.253C80.4464 111.059 80.6033 110.902 80.797 110.902H83.4399C83.6337 110.902 83.7905 111.059 83.7905 111.253C83.7905 111.446 83.6337 111.603 83.4399 111.603ZM78.1542 111.603H75.5109C75.3172 111.603 75.1603 111.446 75.1603 111.253C75.1603 111.059 75.3172 110.902 75.5109 110.902H78.1542C78.3479 110.902 78.5048 111.059 78.5048 111.253C78.5048 111.446 78.3479 111.603 78.1542 111.603ZM72.8681 111.603H70.2248C70.0311 111.603 69.8742 111.446 69.8742 111.253C69.8742 111.059 70.0311 110.902 70.2248 110.902H72.8681C73.0618 110.902 73.2187 111.059 73.2187 111.253C73.2187 111.446 73.0618 111.603 72.8681 111.603ZM67.5819 111.603H64.939C64.7453 111.603 64.5884 111.446 64.5884 111.253C64.5884 111.059 64.7453 110.902 64.939 110.902H67.5819C67.7757 110.902 67.9325 111.059 67.9325 111.253C67.9325 111.446 67.7757 111.603 67.5819 111.603ZM62.2958 111.603H59.6529C59.4592 111.603 59.3023 111.446 59.3023 111.253C59.3023 111.059 59.4592 110.902 59.6529 110.902H62.2958C62.4895 110.902 62.6464 111.059 62.6464 111.253C62.6464 111.446 62.4895 111.603 62.2958 111.603ZM57.0097 111.603H54.3668C54.1731 111.603 54.0162 111.446 54.0162 111.253C54.0162 111.059 54.1731 110.902 54.3668 110.902H57.0097C57.2034 110.902 57.3603 111.059 57.3603 111.253C57.3603 111.446 57.2034 111.603 57.0097 111.603ZM51.7239 111.603H49.0807C48.887 111.603 48.7301 111.446 48.7301 111.253C48.7301 111.059 48.887 110.902 49.0807 110.902H51.7239C51.9176 110.902 52.0745 111.059 52.0745 111.253C52.0745 111.446 51.9176 111.603 51.7239 111.603ZM46.4378 111.603H43.7949C43.6012 111.603 43.4443 111.446 43.4443 111.253C43.4443 111.059 43.6012 110.902 43.7949 110.902H46.4378C46.6315 110.902 46.7884 111.059 46.7884 111.253C46.7884 111.446 46.6315 111.603 46.4378 111.603ZM41.1517 111.603H38.5088C38.3151 111.603 38.1582 111.446 38.1582 111.253C38.1582 111.059 38.3151 110.902 38.5088 110.902H41.1517C41.3454 110.902 41.5023 111.059 41.5023 111.253C41.5023 111.446 41.3454 111.603 41.1517 111.603ZM35.8656 111.603H33.2227C33.029 111.603 32.8721 111.446 32.8721 111.253C32.8721 111.059 33.029 110.902 33.2227 110.902H35.8656C36.0593 110.902 36.2162 111.059 36.2162 111.253C36.2162 111.446 36.0593 111.603 35.8656 111.603Z" fill="#DDCFFF"/>
<path d="M108.568 112.941C108.374 112.941 108.217 112.785 108.217 112.591V111.603H107.229C107.035 111.603 106.878 111.446 106.878 111.253C106.878 111.059 107.035 110.902 107.229 110.902H108.568C108.761 110.902 108.918 111.059 108.918 111.253V112.591C108.918 112.785 108.761 112.941 108.568 112.941Z" fill="#DDCFFF"/>
<path d="M108.568 139.095C108.375 139.095 108.218 138.938 108.218 138.745V136.129C108.218 135.936 108.375 135.779 108.568 135.779C108.762 135.779 108.919 135.936 108.919 136.129V138.745C108.919 138.938 108.762 139.095 108.568 139.095ZM108.568 133.864C108.375 133.864 108.218 133.708 108.218 133.514V130.899C108.218 130.705 108.375 130.548 108.568 130.548C108.762 130.548 108.919 130.705 108.919 130.899V133.514C108.919 133.708 108.762 133.864 108.568 133.864ZM108.568 128.634C108.375 128.634 108.218 128.477 108.218 128.283V125.668C108.218 125.474 108.375 125.317 108.568 125.317C108.762 125.317 108.919 125.474 108.919 125.668V128.283C108.919 128.477 108.762 128.634 108.568 128.634ZM108.568 123.403C108.375 123.403 108.218 123.246 108.218 123.052V120.437C108.218 120.243 108.375 120.087 108.568 120.087C108.762 120.087 108.919 120.243 108.919 120.437V123.052C108.919 123.246 108.762 123.403 108.568 123.403ZM108.568 118.172C108.375 118.172 108.218 118.015 108.218 117.821V115.206C108.218 115.013 108.375 114.856 108.568 114.856C108.762 114.856 108.919 115.013 108.919 115.206V117.821C108.919 118.015 108.762 118.172 108.568 118.172Z" fill="#DDCFFF"/>
<path d="M107.478 45.8713H30.3313C29.7816 45.8713 29.3359 46.3167 29.3359 46.866V46.8661C29.3359 47.4154 29.7816 47.8608 30.3313 47.8608H107.478C108.028 47.8608 108.473 47.4154 108.473 46.8661V46.866C108.473 46.3167 108.028 45.8713 107.478 45.8713Z" fill="#DDCFFF"/>
<path d="M94.3668 53.4313H43.4426C42.8929 53.4313 42.4473 52.986 42.4473 52.4366C42.4473 51.8873 42.8929 51.4419 43.4426 51.4419H94.3668C94.9165 51.4419 95.3621 51.8873 95.3621 52.4366C95.3621 52.986 94.9165 53.4313 94.3668 53.4313Z" fill="#DDCFFF"/>
<path d="M107.478 71.7954H30.3313C29.7816 71.7954 29.3359 72.2408 29.3359 72.7901V72.7901C29.3359 73.3395 29.7816 73.7849 30.3313 73.7849H107.478C108.028 73.7849 108.473 73.3395 108.473 72.7901V72.7901C108.473 72.2408 108.028 71.7954 107.478 71.7954Z" fill="#DDCFFF"/>
<path d="M94.3668 79.3554H43.4426C42.8929 79.3554 42.4473 78.9101 42.4473 78.3607C42.4473 77.8113 42.8929 77.366 43.4426 77.366H94.3668C94.9165 77.366 95.3621 77.8113 95.3621 78.3607C95.3621 78.9101 94.9165 79.3554 94.3668 79.3554Z" fill="#DDCFFF"/>
<path d="M107.478 60.7746H30.3313C29.7816 60.7746 29.3359 60.3293 29.3359 59.7799C29.3359 59.2305 29.7816 58.7852 30.3313 58.7852H107.478C108.028 58.7852 108.473 59.2305 108.473 59.7799C108.473 60.3293 108.028 60.7746 107.478 60.7746Z" fill="#DDCFFF"/>
<path d="M81.2554 66.3452H30.3313C29.7816 66.3452 29.3359 65.8998 29.3359 65.3504C29.3359 64.8011 29.7816 64.3557 30.3313 64.3557H81.2554C81.8052 64.3557 82.2508 64.8011 82.2508 65.3504C82.2508 65.8998 81.8052 66.3452 81.2554 66.3452Z" fill="#DDCFFF"/>
<path d="M29.0341 174.296H108.774C109.519 174.296 110.123 173.896 110.123 173.404C110.123 172.911 109.519 172.511 108.774 172.511H29.0341C28.2894 172.511 27.6855 172.911 27.6855 173.404C27.6855 173.896 28.2894 174.296 29.0341 174.296Z" fill="#DDCFFF"/>
<path d="M28.5369 168.164H91.9241C92.5161 168.164 92.9961 167.733 92.9961 167.201C92.9961 166.669 92.5161 166.237 91.9241 166.237H28.5369C27.9448 166.237 27.4648 166.669 27.4648 167.201C27.4648 167.733 27.9448 168.164 28.5369 168.164Z" fill="#DDCFFF"/>
<path d="M109.23 149.303H28.5787C28.0854 149.303 27.6855 148.904 27.6855 148.411C27.6855 147.918 28.0854 147.518 28.5787 147.518H109.23C109.723 147.518 110.123 147.918 110.123 148.411C110.123 148.904 109.723 149.303 109.23 149.303Z" fill="#DDCFFF"/>
<path d="M74.1743 155.636H27.9764C27.6939 155.636 27.4648 155.205 27.4648 154.673C27.4648 154.14 27.6939 153.709 27.9764 153.709H74.1743C74.4568 153.709 74.6859 154.14 74.6859 154.673C74.6859 155.205 74.4568 155.636 74.1743 155.636Z" fill="#DDCFFF"/>
<path d="M109.23 161.8H28.5787C28.0854 161.8 27.6855 161.4 27.6855 160.907C27.6855 160.414 28.0854 160.015 28.5787 160.015H109.23C109.723 160.015 110.123 160.414 110.123 160.907C110.123 161.4 109.723 161.8 109.23 161.8Z" fill="#DDCFFF"/>
<path d="M106.554 94.1389H31.6504V95.0956H106.554V94.1389Z" fill="#DDCFFF"/>
<path d="M31.6506 97.0095C32.9726 97.0095 34.0443 95.9385 34.0443 94.6173C34.0443 93.2961 32.9726 92.2251 31.6506 92.2251C30.3286 92.2251 29.2568 93.2961 29.2568 94.6173C29.2568 95.9385 30.3286 97.0095 31.6506 97.0095Z" fill="#6A44C5"/>
<path d="M56.4865 97.0095C57.8086 97.0095 58.8803 95.9385 58.8803 94.6173C58.8803 93.2961 57.8086 92.2251 56.4865 92.2251C55.1645 92.2251 54.0928 93.2961 54.0928 94.6173C54.0928 95.9385 55.1645 97.0095 56.4865 97.0095Z" fill="#6A44C5"/>
<path d="M81.3205 97.0095C82.6425 97.0095 83.7143 95.9385 83.7143 94.6173C83.7143 93.2961 82.6425 92.2251 81.3205 92.2251C79.9985 92.2251 78.9268 93.2961 78.9268 94.6173C78.9268 95.9385 79.9985 97.0095 81.3205 97.0095Z" fill="#6A44C5"/>
<path d="M106.156 97.0095C107.478 97.0095 108.55 95.9385 108.55 94.6173C108.55 93.2961 107.478 92.2251 106.156 92.2251C104.834 92.2251 103.763 93.2961 103.763 94.6173C103.763 95.9385 104.834 97.0095 106.156 97.0095Z" fill="#6A44C5"/>
<path opacity="0.25" d="M41.8708 210C53.2859 210 62.5395 205.227 62.5395 199.34C62.5395 193.453 53.2859 188.681 41.8708 188.681C30.4558 188.681 21.2021 193.453 21.2021 199.34C21.2021 205.227 30.4558 210 41.8708 210Z" fill="#D9C9FF"/>
<path d="M60.3175 197.278C60.3181 197.306 60.3181 197.333 60.3181 197.36C60.3181 198.365 59.9805 199.332 59.3582 200.233C59.2062 200.454 59.0371 200.67 58.8521 200.882C58.3342 201.476 57.6897 202.036 56.9352 202.555C56.7718 202.668 56.6029 202.778 56.4291 202.886C55.8442 203.253 55.2032 203.594 54.5122 203.91C54.3466 203.986 54.1781 204.061 54.0062 204.134C53.4009 204.392 52.7603 204.629 52.0886 204.846C51.9219 204.9 51.7533 204.953 51.5825 205.004C50.967 205.189 50.327 205.357 49.6656 205.505C49.4983 205.543 49.3298 205.579 49.1596 205.615C48.5371 205.744 47.8978 205.856 47.2426 205.951C47.0746 205.975 46.9062 205.999 46.7364 206.021C46.1102 206.102 45.4702 206.167 44.8195 206.216C44.6517 206.228 44.4831 206.24 44.3135 206.25C43.6838 206.288 43.0444 206.31 42.3966 206.316C42.2843 206.317 42.1709 206.318 42.0579 206.318C42.0023 206.318 41.9461 206.318 41.8906 206.317C41.2427 206.314 40.6034 206.295 39.9731 206.26C39.8035 206.251 39.6348 206.24 39.467 206.228C38.9876 206.195 38.5139 206.152 38.047 206.101C37.8802 206.082 37.7146 206.063 37.55 206.042C37.3803 206.021 37.2119 205.999 37.0439 205.975C36.3892 205.884 35.7494 205.775 35.127 205.649C34.9569 205.615 34.7884 205.58 34.621 205.543C34.2244 205.456 33.8358 205.363 33.4547 205.262C33.201 205.196 32.9508 205.126 32.704 205.054C32.5337 205.004 32.3648 204.952 32.198 204.9C31.5275 204.689 30.887 204.456 30.2804 204.205C30.1608 204.156 30.0421 204.105 29.9248 204.054C29.8743 204.032 29.8244 204.01 29.7744 203.987C29.5006 203.865 29.2333 203.739 28.9752 203.609C28.5837 203.411 28.211 203.205 27.8576 202.991C27.684 202.886 27.5155 202.779 27.3515 202.67C26.7048 202.24 26.1346 201.781 25.6513 201.296C25.5771 201.222 25.5044 201.147 25.4346 201.071C25.3466 200.977 25.262 200.881 25.1816 200.785C25.093 200.681 25.009 200.575 24.9286 200.469C24.1973 199.501 23.7979 198.453 23.7979 197.36C23.7979 197.283 23.8001 197.207 23.8048 197.13L23.8064 190.94L24.9286 190.937L25.4346 190.936L27.3515 190.931L27.8576 190.93L29.3535 190.926L29.7744 190.926L30.2805 190.924L32.1981 190.92L32.7041 190.919L34.6211 190.914L35.1272 190.913L37.0441 190.908L37.5501 190.907L39.467 190.903L39.9731 190.901L41.8906 190.897L42.3966 190.896L44.3135 190.891L44.8195 190.89L46.7364 190.885L47.2426 190.885L49.1596 190.88L49.6656 190.879L51.5825 190.875L52.0886 190.873L54.0062 190.869L54.5122 190.867H54.637L56.4291 190.863L56.9352 190.862L58.8521 190.857L59.3582 190.856L60.3113 190.854L60.3175 197.278Z" fill="#936FE9"/>
<path d="M25.4338 190.936V201.071C25.3458 200.977 25.2612 200.881 25.1807 200.785C25.0921 200.681 25.0082 200.575 24.9277 200.469V190.937L25.4338 190.936Z" fill="#7732EF"/>
<path d="M27.8567 190.93V202.991C27.6831 202.886 27.5147 202.779 27.3506 202.67V190.931L27.8567 190.93Z" fill="#7732EF"/>
<path d="M30.2785 190.924V204.205C30.1588 204.156 30.0402 204.105 29.9228 204.054C29.8723 204.032 29.8224 204.01 29.7725 203.987V190.925L30.2785 190.924Z" fill="#7732EF"/>
<path d="M32.7033 190.919V205.054C32.533 205.004 32.3641 204.952 32.1973 204.9V190.92L32.7033 190.919Z" fill="#7732EF"/>
<path d="M35.1252 190.913V205.649C34.955 205.615 34.7866 205.58 34.6191 205.543V190.914L35.1252 190.913Z" fill="#7732EF"/>
<path d="M37.548 190.907V206.042C37.3784 206.021 37.21 205.999 37.042 205.975V190.908L37.548 190.907Z" fill="#7732EF"/>
<path d="M39.972 190.901V206.26C39.8023 206.251 39.6337 206.24 39.4658 206.228V190.903L39.972 190.901Z" fill="#7732EF"/>
<path d="M42.3947 190.896V206.316C42.2824 206.317 42.169 206.318 42.056 206.318C42.0004 206.318 41.9442 206.318 41.8887 206.317V190.897L42.3947 190.896Z" fill="#7732EF"/>
<path d="M44.8185 190.891V206.216C44.6507 206.228 44.4821 206.24 44.3125 206.25V190.892L44.8185 190.891Z" fill="#7732EF"/>
<path d="M47.2405 190.885V205.951C47.0725 205.975 46.9041 205.999 46.7344 206.02V190.885L47.2405 190.885Z" fill="#7732EF"/>
<path d="M49.6642 190.879V205.505C49.4969 205.544 49.3284 205.58 49.1582 205.615V190.88L49.6642 190.879Z" fill="#7732EF"/>
<path d="M52.0862 190.873V204.846C51.9195 204.901 51.7509 204.953 51.5801 205.004V190.875L52.0862 190.873Z" fill="#7732EF"/>
<path d="M54.5109 190.867V203.91C54.3453 203.986 54.1767 204.061 54.0049 204.134V190.869L54.5109 190.867Z" fill="#7732EF"/>
<path d="M56.9329 190.862V202.555C56.7695 202.668 56.6005 202.778 56.4268 202.886V190.863L56.9329 190.862Z" fill="#7732EF"/>
<path d="M59.3566 190.856V200.233C59.2047 200.454 59.0356 200.67 58.8506 200.882V190.857L59.3566 190.856Z" fill="#7732EF"/>
<path d="M60.3128 190.945C60.3128 196.24 52.1414 200.532 42.0583 200.532C40.6807 200.532 39.3388 200.452 38.0486 200.3C36.4259 200.11 34.8851 199.805 33.4576 199.404C32.1833 199.045 30.9996 198.61 29.9289 198.11C29.6016 197.957 29.2846 197.798 28.9794 197.633C27.6371 196.909 26.5113 196.074 25.6565 195.158C25.4892 194.979 25.332 194.797 25.1869 194.612C24.2954 193.482 23.8037 192.244 23.8037 190.945C23.8037 190.827 23.8083 190.708 23.8184 190.589C24.1723 185.46 32.2035 181.358 42.0583 181.358C44.4834 181.358 46.798 181.607 48.9144 182.058C49.3234 182.145 49.725 182.239 50.1185 182.341C51.8381 182.786 53.4039 183.369 54.7651 184.063C55.065 184.215 55.355 184.373 55.6345 184.536C56.6288 185.117 57.4896 185.761 58.1924 186.457C58.9165 187.174 59.473 187.945 59.8336 188.756C60.0968 189.348 60.2557 189.961 60.2987 190.589C60.3088 190.708 60.3128 190.827 60.3128 190.945Z" fill="#6A44C5"/>
<path opacity="0.2" d="M46.3586 184.326L28.4624 193.723C28.2934 193.498 28.1447 193.266 28.0186 193.031L44.952 184.137C45.4283 184.188 45.8985 184.251 46.3586 184.326Z" fill="white"/>
<path d="M43.9984 194.869V196.142H40.9192V194.926C38.7353 194.858 36.617 194.548 35.3066 194.124L36.9663 192.151C38.4077 192.598 40.3294 192.885 42.0111 192.885C43.4741 192.885 43.9983 192.724 43.9983 192.449C43.9983 191.44 35.5468 192.254 35.5468 189.261C35.5468 187.965 37.3375 186.875 40.9191 186.611V185.361H43.9983V186.588C45.6143 186.668 47.1867 186.887 48.4315 187.254L46.8811 189.215C45.3741 188.813 43.9546 188.618 42.6224 188.618C41.1154 188.618 40.6351 188.848 40.6351 189.123C40.6351 190.087 49.0868 189.284 49.0868 192.243C49.0868 193.482 47.3834 194.56 43.9984 194.869Z" fill="#9895FF"/>
<path d="M59.9014 187.426C59.9021 187.453 59.9021 187.48 59.9021 187.508C59.9021 188.513 59.5645 189.479 58.9421 190.381C58.7902 190.602 58.6211 190.818 58.4361 191.03C57.9182 191.623 57.2738 192.183 56.5192 192.703C56.3558 192.815 56.1868 192.925 56.0132 193.034C55.4283 193.4 54.7873 193.742 54.0963 194.058C53.9307 194.134 53.7621 194.209 53.5903 194.282C52.985 194.539 52.3444 194.777 51.6727 194.994C51.506 195.048 51.3374 195.101 51.1666 195.151C50.5511 195.336 49.9111 195.504 49.2497 195.653C49.0824 195.691 48.9138 195.727 48.7437 195.763C48.1212 195.891 47.4819 196.004 46.8266 196.099C46.6587 196.123 46.4903 196.146 46.3206 196.168C45.6944 196.25 45.0544 196.315 44.4037 196.363C44.2359 196.376 44.0673 196.387 43.8977 196.397C43.268 196.435 42.6286 196.458 41.9808 196.463C41.8685 196.464 41.7551 196.465 41.6421 196.465C41.5865 196.465 41.5303 196.465 41.4748 196.464C40.8269 196.462 40.1876 196.443 39.5573 196.408C39.3877 196.398 39.219 196.387 39.0512 196.376C38.5719 196.343 38.0982 196.299 37.6312 196.248C37.4644 196.23 37.2989 196.211 37.1342 196.19C36.9645 196.169 36.7961 196.147 36.6282 196.122C35.9734 196.031 35.3336 195.922 34.7113 195.797C34.5411 195.763 34.3726 195.728 34.2052 195.69C33.8086 195.604 33.42 195.51 33.0389 195.41C32.7852 195.343 32.5351 195.274 32.2882 195.202C32.118 195.152 31.9491 195.1 31.7822 195.047C31.1117 194.836 30.4712 194.604 29.8646 194.353C29.745 194.303 29.6263 194.253 29.509 194.202C29.4585 194.18 29.4086 194.158 29.3586 194.135C29.0848 194.013 28.8175 193.887 28.5594 193.756C28.1679 193.559 27.7951 193.353 27.4417 193.139C27.2681 193.033 27.0996 192.926 26.9356 192.818C26.2888 192.388 25.7187 191.928 25.2353 191.444C25.161 191.369 25.0884 191.294 25.0186 191.218C24.9306 191.124 24.846 191.029 24.7656 190.933C24.677 190.829 24.593 190.723 24.5125 190.616C23.7813 189.649 23.3818 188.6 23.3818 187.508C23.3818 187.431 23.3841 187.354 23.3887 187.277L23.3904 181.087L24.5125 181.085L25.0186 181.083L26.9355 181.079L27.4416 181.077L28.9376 181.074L29.3585 181.073L29.8645 181.071L31.7821 181.067L32.2881 181.066L34.2051 181.061L34.7111 181.061L36.628 181.056L37.1341 181.055L39.051 181.051L39.5571 181.049L41.4745 181.045L41.9806 181.043L43.8975 181.039L44.4035 181.038L46.3204 181.033L46.8264 181.032L48.7434 181.027L49.2495 181.027L51.1663 181.022L51.6725 181.021L53.59 181.017L54.0961 181.015H54.2209L56.013 181.011L56.519 181.01L58.4359 181.005L58.9419 181.004L59.8951 181.001L59.9014 187.426Z" fill="#936FE9"/>
<path d="M25.0197 181.083V191.218C24.9318 191.124 24.8472 191.029 24.7667 190.933C24.6781 190.829 24.5942 190.723 24.5137 190.616V181.085L25.0197 181.083Z" fill="#7732EF"/>
<path d="M27.4427 181.077V193.139C27.269 193.033 27.1006 192.926 26.9365 192.818V181.079L27.4427 181.077Z" fill="#7732EF"/>
<path d="M29.8654 181.071V194.352C29.7457 194.303 29.6271 194.252 29.5098 194.201C29.4592 194.18 29.4094 194.157 29.3594 194.135V181.073L29.8654 181.071Z" fill="#7732EF"/>
<path d="M32.2902 181.067V195.202C32.12 195.152 31.951 195.1 31.7842 195.047V181.067L32.2902 181.067Z" fill="#7732EF"/>
<path d="M34.7121 181.06V195.797C34.5419 195.763 34.3735 195.728 34.2061 195.69V181.061L34.7121 181.06Z" fill="#7732EF"/>
<path d="M37.1349 181.055V196.19C36.9653 196.169 36.7969 196.146 36.6289 196.122V181.055L37.1349 181.055Z" fill="#7732EF"/>
<path d="M39.5589 181.049V196.408C39.3892 196.398 39.2206 196.387 39.0527 196.376V181.051L39.5589 181.049Z" fill="#7732EF"/>
<path d="M41.9826 181.043V196.463C41.8703 196.464 41.7568 196.465 41.6439 196.465C41.5883 196.465 41.5321 196.465 41.4766 196.464V181.045L41.9826 181.043Z" fill="#7732EF"/>
<path d="M44.4054 181.038V196.363C44.2376 196.376 44.0691 196.387 43.8994 196.398V181.039L44.4054 181.038Z" fill="#7732EF"/>
<path d="M46.8273 181.032V196.099C46.6593 196.123 46.4909 196.147 46.3213 196.168V181.033L46.8273 181.032Z" fill="#7732EF"/>
<path d="M49.2511 181.026V195.653C49.0838 195.691 48.9153 195.727 48.7451 195.763V181.027L49.2511 181.026Z" fill="#7732EF"/>
<path d="M51.6751 181.021V194.994C51.5083 195.048 51.3398 195.101 51.1689 195.151V181.022L51.6751 181.021Z" fill="#7732EF"/>
<path d="M54.0978 181.015V194.058C53.9322 194.134 53.7637 194.209 53.5918 194.282V181.016L54.0978 181.015Z" fill="#7732EF"/>
<path d="M56.5207 181.009V192.703C56.3573 192.815 56.1883 192.925 56.0146 193.034V181.01L56.5207 181.009Z" fill="#7732EF"/>
<path d="M58.9435 181.004V190.381C58.7916 190.602 58.6225 190.818 58.4375 191.03V181.005L58.9435 181.004Z" fill="#7732EF"/>
<path d="M59.8978 181.092C59.8978 186.387 51.7264 190.68 41.6432 190.68C40.2656 190.68 38.9238 190.6 37.6336 190.447C36.011 190.257 34.4701 189.952 33.0425 189.551C31.7682 189.193 30.5845 188.757 29.5138 188.257C29.1864 188.104 28.8695 187.945 28.5643 187.78C27.222 187.056 26.0962 186.221 25.2415 185.305C25.0742 185.126 24.917 184.943 24.7718 184.759C23.8803 183.629 23.3887 182.391 23.3887 181.092C23.3887 180.974 23.3932 180.855 23.4034 180.736C23.7572 175.607 31.7885 171.505 41.6432 171.505C44.0684 171.505 46.383 171.754 48.4994 172.204C48.9083 172.292 49.3099 172.386 49.7035 172.488C51.4231 172.933 52.9889 173.516 54.3501 174.21C54.6501 174.362 54.9401 174.52 55.2196 174.683C56.2138 175.264 57.0747 175.908 57.7774 176.604C58.5017 177.32 59.0581 178.092 59.4187 178.903C59.6819 179.495 59.8408 180.108 59.8839 180.736C59.894 180.855 59.8978 180.974 59.8978 181.092Z" fill="#6A44C5"/>
<path d="M43.6732 185.44V186.713H40.594V185.498C38.4101 185.429 36.2918 185.119 34.9814 184.695L36.6412 182.722C38.0826 183.169 40.0044 183.456 41.6859 183.456C43.1491 183.456 43.6732 183.295 43.6732 183.02C43.6732 182.011 35.2217 182.825 35.2217 179.831C35.2217 178.536 37.0123 177.446 40.594 177.182V175.932H43.6732V177.159C45.2894 177.239 46.8616 177.457 48.1064 177.824L46.5559 179.785C45.0489 179.384 43.6295 179.189 42.2974 179.189C40.7905 179.189 40.3101 179.419 40.3101 179.694C40.3101 180.657 48.7617 179.854 48.7617 182.814C48.7617 184.052 47.0582 185.13 43.6732 185.44Z" fill="#7732EF"/>
<path d="M43.5824 185.017V186.289H40.5032V185.074C38.3192 185.005 36.201 184.695 34.8906 184.271L36.5503 182.298C37.9917 182.746 39.9133 183.032 41.595 183.032C43.0581 183.032 43.5823 182.872 43.5823 182.596C43.5823 181.587 35.1308 182.402 35.1308 179.408C35.1308 178.112 36.9215 177.022 40.5031 176.758V175.509H43.5823V176.735C45.1983 176.816 46.7707 177.034 48.0155 177.401L46.465 179.362C44.9581 178.961 43.5385 178.766 42.2064 178.766C40.6994 178.766 40.219 178.995 40.219 179.27C40.219 180.234 48.6707 179.431 48.6707 182.39C48.6707 183.629 46.9674 184.707 43.5824 185.017Z" fill="#9895FF"/>
<path d="M62.1593 177.821C62.1599 177.848 62.1599 177.875 62.1599 177.903C62.1599 178.908 61.8223 179.874 61.2 180.776C61.048 180.997 60.8789 181.213 60.6939 181.425C60.176 182.018 59.5315 182.578 58.7771 183.098C58.6136 183.21 58.4447 183.32 58.2709 183.429C57.686 183.795 57.045 184.137 56.354 184.453C56.1884 184.529 56.0199 184.604 55.8479 184.677C55.2426 184.934 54.6021 185.172 53.9304 185.389C53.7637 185.443 53.5952 185.496 53.4243 185.546C52.8088 185.731 52.1688 185.899 51.5074 186.048C51.34 186.086 51.1716 186.122 51.0014 186.158C50.3789 186.286 49.7396 186.399 49.0844 186.494C48.9164 186.518 48.748 186.541 48.5782 186.563C47.952 186.645 47.312 186.71 46.6613 186.758C46.4935 186.771 46.3249 186.782 46.1553 186.792C45.5256 186.83 44.8862 186.853 44.2384 186.858C44.1261 186.859 44.0127 186.86 43.8997 186.86C43.8441 186.86 43.7879 186.86 43.7324 186.859C43.0845 186.857 42.4452 186.838 41.8149 186.803C41.6453 186.793 41.4766 186.782 41.3088 186.771C40.8294 186.738 40.3557 186.694 39.8888 186.643C39.722 186.625 39.5564 186.606 39.3918 186.585C39.2221 186.564 39.0537 186.542 38.8857 186.517C38.231 186.426 37.5912 186.317 36.9688 186.192C36.7987 186.158 36.6302 186.123 36.4628 186.085C36.0662 185.999 35.6776 185.905 35.2965 185.805C35.0428 185.739 34.7926 185.669 34.5458 185.597C34.3755 185.547 34.2066 185.495 34.0398 185.442C33.3692 185.231 32.7288 184.999 32.1222 184.748C32.0026 184.698 31.8839 184.648 31.7666 184.597C31.716 184.575 31.6662 184.553 31.6162 184.53C31.3424 184.408 31.0751 184.282 30.817 184.151C30.4255 183.954 30.0528 183.748 29.6994 183.534C29.5258 183.428 29.3574 183.321 29.1933 183.213C28.5466 182.783 27.9764 182.323 27.4931 181.839C27.4189 181.764 27.3462 181.689 27.2764 181.613C27.1884 181.519 27.104 181.424 27.0234 181.328C26.9348 181.224 26.8508 181.118 26.7704 181.011C26.0391 180.044 25.6396 178.995 25.6396 177.903C25.6396 177.826 25.6419 177.749 25.6464 177.673L25.6482 171.483L26.7704 171.48L27.2764 171.478L29.1933 171.474L29.6994 171.473L31.1953 171.469L31.6162 171.468L32.1223 171.467L34.0399 171.462L34.5459 171.462L36.4628 171.457L36.9688 171.456L38.8857 171.451L39.3918 171.45L41.3087 171.446L41.8148 171.444L43.7323 171.44L44.2383 171.438L46.1552 171.434L46.6612 171.433L48.5781 171.428L49.0842 171.427L51.0013 171.422L51.5073 171.422L53.4242 171.418L53.9303 171.416L55.8478 171.412L56.3539 171.41H56.4787L58.2708 171.406L58.7769 171.405L60.6938 171.4L61.1999 171.399L62.153 171.396L62.1593 177.821Z" fill="#936FE9"/>
<path d="M27.2775 171.478V181.613C27.1896 181.519 27.1051 181.424 27.0245 181.328C26.9359 181.224 26.852 181.118 26.7715 181.011V171.48L27.2775 171.478Z" fill="#7732EF"/>
<path d="M29.7014 171.472V183.534C29.5278 183.428 29.3594 183.321 29.1953 183.213V171.474L29.7014 171.472Z" fill="#7732EF"/>
<path d="M32.1232 171.466V184.747C32.0036 184.698 31.8849 184.647 31.7676 184.596C31.717 184.575 31.6672 184.552 31.6172 184.53V171.468L32.1232 171.466Z" fill="#7732EF"/>
<path d="M34.548 171.462V185.597C34.3777 185.547 34.2088 185.495 34.042 185.442V171.462L34.548 171.462Z" fill="#7732EF"/>
<path d="M36.9699 171.456V186.192C36.7997 186.158 36.6313 186.123 36.4639 186.085V171.456L36.9699 171.456Z" fill="#7732EF"/>
<path d="M39.3927 171.45V186.585C39.2231 186.564 39.0547 186.541 38.8867 186.517V171.45L39.3927 171.45Z" fill="#7732EF"/>
<path d="M41.8167 171.444V186.803C41.647 186.793 41.4784 186.782 41.3105 186.771V171.446L41.8167 171.444Z" fill="#7732EF"/>
<path d="M44.2394 171.438V186.858C44.1271 186.859 44.0137 186.86 43.9007 186.86C43.8452 186.86 43.7889 186.86 43.7334 186.859V171.44L44.2394 171.438Z" fill="#7732EF"/>
<path d="M46.6613 171.433V186.758C46.4934 186.771 46.3249 186.782 46.1553 186.793V171.434L46.6613 171.433Z" fill="#7732EF"/>
<path d="M49.0852 171.427V186.494C48.9173 186.518 48.7489 186.542 48.5791 186.563V171.428L49.0852 171.427Z" fill="#7732EF"/>
<path d="M51.509 171.421V186.048C51.3415 186.086 51.1731 186.122 51.0029 186.158V171.422L51.509 171.421Z" fill="#7732EF"/>
<path d="M53.9309 171.416V185.389C53.7642 185.443 53.5957 185.496 53.4248 185.546V171.417L53.9309 171.416Z" fill="#7732EF"/>
<path d="M56.3557 171.41V184.453C56.1901 184.529 56.0216 184.604 55.8496 184.677V171.411L56.3557 171.41Z" fill="#7732EF"/>
<path d="M58.7796 171.404V183.098C58.6162 183.21 58.4472 183.32 58.2734 183.429V171.405L58.7796 171.404Z" fill="#7732EF"/>
<path d="M61.2013 171.399V180.776C61.0494 180.997 60.8803 181.213 60.6953 181.425V171.4L61.2013 171.399Z" fill="#7732EF"/>
<path d="M62.1537 171.488C62.1537 176.782 53.9823 181.075 43.8991 181.075C42.5215 181.075 41.1796 180.995 39.8894 180.842C38.2667 180.652 36.7259 180.347 35.2984 179.946C34.0241 179.588 32.8403 179.152 31.7697 178.652C31.4424 178.499 31.1254 178.34 30.8202 178.175C29.4779 177.451 28.3521 176.617 27.4973 175.7C27.33 175.521 27.173 175.339 27.0277 175.154C26.1363 174.025 25.6445 172.786 25.6445 171.488C25.6445 171.369 25.6491 171.25 25.6592 171.132C26.0131 166.002 34.0443 161.901 43.8991 161.901C46.3242 161.901 48.6389 162.149 50.7552 162.6C51.1642 162.687 51.5658 162.781 51.9593 162.883C53.6789 163.328 55.2448 163.911 56.6059 164.605C56.9059 164.758 57.1958 164.915 57.4753 165.079C58.4696 165.659 59.3305 166.304 60.0332 166.999C60.7574 167.716 61.3138 168.487 61.6745 169.298C61.9376 169.89 62.0966 170.503 62.1395 171.132C62.1497 171.25 62.1537 171.369 62.1537 171.488Z" fill="#6A44C5"/>
<path d="M58.4891 171.488C58.4891 171.606 58.483 171.723 58.4748 171.84C58.1225 175.902 51.7202 179.151 43.8988 179.151C36.0773 179.151 29.6749 175.902 29.3227 171.84C29.3146 171.723 29.3086 171.606 29.3086 171.488C29.3086 167.263 35.8535 163.825 43.8989 163.825C51.9443 163.825 58.4891 167.263 58.4891 171.488Z" fill="#7732EF"/>
<path d="M58.4763 171.84C58.124 175.902 51.7217 179.151 43.9003 179.151C43.7252 179.151 43.5522 179.148 43.3791 179.145C41.6344 179.113 39.9671 178.92 38.4282 178.591C36.8891 178.263 35.4803 177.801 34.2548 177.232C33.9433 177.088 33.6441 176.937 33.3549 176.779C32.0481 176.06 31.0017 175.209 30.3035 174.266C30.1346 174.04 29.9858 173.808 29.8597 173.573C29.5584 173.018 29.3772 172.437 29.3242 171.84C29.6765 167.777 36.0789 164.528 43.9003 164.528C44.8896 164.528 45.8567 164.58 46.793 164.68C47.2693 164.73 47.7396 164.793 48.1998 164.868C50.0787 165.173 51.7969 165.672 53.2687 166.321C53.5864 166.461 53.8937 166.608 54.189 166.763C55.3351 167.362 56.2939 168.06 57.0126 168.831C57.7129 169.583 58.1852 170.402 58.3847 171.265C58.4293 171.454 58.4599 171.646 58.4763 171.84Z" fill="#936FE9"/>
<path d="M45.9271 175.835V177.108H42.8479V175.893C40.6641 175.824 38.5457 175.514 37.2354 175.09L38.8951 173.117C40.3365 173.564 42.2583 173.851 43.9398 173.851C45.403 173.851 45.9271 173.691 45.9271 173.415C45.9271 172.406 37.4757 173.22 37.4757 170.227C37.4757 168.931 39.2663 167.841 42.8479 167.577V166.327H45.9271V167.554C47.5434 167.635 49.1155 167.853 50.3603 168.22L48.8098 170.181C47.3028 169.779 45.8834 169.584 44.5513 169.584C43.0444 169.584 42.5638 169.814 42.5638 170.089C42.5638 171.053 51.0155 170.25 51.0155 173.209C51.0155 174.447 49.3121 175.526 45.9271 175.835Z" fill="#7732EF"/>
<path d="M45.8383 175.412V176.685H42.7591V175.469C40.5751 175.4 38.4568 175.09 37.1465 174.666L38.8061 172.693C40.2475 173.141 42.1692 173.427 43.8509 173.427C45.314 173.427 45.8382 173.267 45.8382 172.991C45.8382 171.982 37.3866 172.797 37.3866 169.803C37.3866 168.507 39.1774 167.417 42.7589 167.154V165.904H45.8382V167.13C47.4542 167.211 49.0266 167.429 50.2713 167.796L48.7209 169.757C47.2139 169.356 45.7944 169.161 44.4622 169.161C42.9553 169.161 42.475 169.39 42.475 169.665C42.475 170.629 50.9267 169.826 50.9267 172.785C50.9267 174.024 49.2233 175.102 45.8383 175.412Z" fill="#D9C9FF"/>
<g clip-path="url(#clip0_91_15037)">
<path d="M115.916 91.0691H239.688C243.029 91.0691 245.742 93.7851 245.742 97.1305V164.994C245.742 168.34 243.029 171.056 239.688 171.056H115.916C112.574 171.056 109.861 168.34 109.861 164.994V97.1306C109.861 93.7851 112.574 91.0691 115.916 91.0691Z" fill="#6A44C5"/>
<path d="M242.263 100.614V161.511C242.263 164.856 239.55 167.572 236.208 167.572H119.395C116.054 167.572 113.341 164.856 113.341 161.511V100.614C113.341 97.2685 116.054 94.5525 119.395 94.5525L236.208 94.5525C239.55 94.5525 242.263 97.2685 242.263 100.614Z" fill="white"/>
<path d="M210.025 133.123C210.025 145.686 199.854 155.866 187.309 155.866C174.763 155.866 164.589 145.686 164.589 133.123C164.589 130.009 165.216 127.038 166.349 124.333L187.309 133.123L186.232 110.409C186.585 110.387 186.947 110.38 187.309 110.38C199.854 110.38 210.025 120.563 210.025 133.123Z" fill="#AE8FF7"/>
<path d="M184.191 107.452C177.403 107.766 171.398 111.063 167.445 116.064C166.174 117.673 165.115 119.458 164.311 121.378L185.268 130.167L184.191 107.452Z" fill="#6A44C5"/>
<path d="M220.915 112.752H217.795V115.875H220.915V112.752Z" fill="#7742CA"/>
<path opacity="0.6" d="M234.001 113.923H223.215C223.088 113.923 222.985 114.026 222.985 114.153V114.475C222.985 114.602 223.088 114.705 223.215 114.705H234.001C234.128 114.705 234.231 114.602 234.231 114.475V114.153C234.231 114.026 234.128 113.923 234.001 113.923Z" fill="#D8D2F2"/>
<path d="M220.915 118.316H217.795V121.44H220.915V118.316Z" fill="#AE8FF7"/>
<path opacity="0.6" d="M234.001 119.487H223.215C223.088 119.487 222.985 119.59 222.985 119.717V120.039C222.985 120.166 223.088 120.269 223.215 120.269H234.001C234.128 120.269 234.231 120.166 234.231 120.039V119.717C234.231 119.59 234.128 119.487 234.001 119.487Z" fill="#D8D2F2"/>
<path opacity="0.6" d="M233.84 131.228H218.186C217.97 131.228 217.795 131.053 217.795 130.837C217.795 130.621 217.97 130.446 218.186 130.446H233.84C234.056 130.446 234.23 130.621 234.23 130.837C234.23 131.053 234.056 131.228 233.84 131.228Z" fill="#D8D2F2"/>
<path opacity="0.6" d="M233.84 137.651H218.186C217.97 137.651 217.795 137.476 217.795 137.26C217.795 137.044 217.97 136.869 218.186 136.869H233.84C234.056 136.869 234.23 137.044 234.23 137.26C234.23 137.476 234.056 137.651 233.84 137.651Z" fill="#D8D2F2"/>
<path opacity="0.6" d="M233.84 140.862H218.186C217.97 140.862 217.795 140.687 217.795 140.471C217.795 140.255 217.97 140.08 218.186 140.08H233.84C234.056 140.08 234.23 140.255 234.23 140.471C234.23 140.687 234.056 140.862 233.84 140.862Z" fill="#D8D2F2"/>
<path opacity="0.6" d="M233.84 144.073H218.186C217.97 144.073 217.795 143.898 217.795 143.682C217.795 143.466 217.97 143.291 218.186 143.291H233.84C234.056 143.291 234.23 143.466 234.23 143.682C234.23 143.898 234.056 144.073 233.84 144.073Z" fill="#D8D2F2"/>
<path opacity="0.6" d="M231.431 147.285H218.186C217.97 147.285 217.795 147.11 217.795 146.894C217.795 146.678 217.97 146.503 218.186 146.503H231.431C231.646 146.503 231.821 146.678 231.821 146.894C231.821 147.11 231.646 147.285 231.431 147.285Z" fill="#D8D2F2"/>
<path opacity="0.6" d="M233.84 150.496H218.186C217.97 150.496 217.795 150.321 217.795 150.105C217.795 149.889 217.97 149.714 218.186 149.714H233.84C234.056 149.714 234.23 149.889 234.23 150.105C234.23 150.321 234.056 150.496 233.84 150.496Z" fill="#D8D2F2"/>
<path d="M128.531 141.632H122.622V155.928H128.531V141.632Z" fill="#AE8FF7"/>
<path d="M137.247 131.48H131.338V155.928H137.247V131.48Z" fill="#AE8FF7"/>
<path d="M146.898 123.989H140.989V155.928H146.898V123.989Z" fill="#AE8FF7"/>
<path d="M156.353 115.197H150.444V155.928H156.353V115.197Z" fill="#AE8FF7"/>
<path d="M145.461 108.934L149.558 110.44L149.086 105.638L145.461 108.934Z" fill="#AE8FF7"/>
<path d="M120.997 134.692C120.817 134.692 120.648 134.581 120.582 134.403C120.496 134.173 120.613 133.918 120.842 133.832C121.021 133.766 138.803 126.944 147.477 108.608C147.582 108.387 147.846 108.292 148.068 108.397C148.289 108.502 148.383 108.767 148.278 108.988C139.445 127.659 121.334 134.596 121.152 134.664C121.101 134.683 121.048 134.692 120.997 134.692Z" fill="#AE8FF7"/>
</g>
<g clip-path="url(#clip1_91_15037)">
<path d="M230.06 74.4796C235.564 64.4835 231.922 51.9187 221.926 46.4152C211.93 40.9117 199.365 44.5536 193.861 54.5497C188.358 64.5457 192 77.1106 201.996 82.6141C211.992 88.1176 224.557 84.4757 230.06 74.4796Z" fill="#7742CA"/>
<path d="M217.045 80.0332C225.616 77.225 230.287 68.0007 227.479 59.43C224.671 50.8593 215.447 46.1879 206.876 48.9961C198.305 51.8043 193.634 61.0287 196.442 69.5994C199.25 78.17 208.475 82.8414 217.045 80.0332Z" fill="white"/>
<path d="M214.139 76.3145C220.656 75.1119 224.964 68.8538 223.761 62.3369C222.558 55.8199 216.3 51.5118 209.783 52.7145C203.266 53.9171 198.958 60.1752 200.161 66.6921C201.364 73.2091 207.622 77.5172 214.139 76.3145Z" fill="#7742CA"/>
<path d="M214.031 71.8981C209.96 73.0397 205.719 70.6562 204.578 66.585C203.436 62.5137 205.819 58.2727 209.891 57.1311C213.962 55.9895 218.203 58.3729 219.345 62.4443C220.486 66.5155 218.103 70.7565 214.031 71.8981Z" fill="white"/>
<path d="M212.862 67.728C211.09 68.2249 209.244 67.1875 208.747 65.4157C208.251 63.6438 209.288 61.7982 211.06 61.3013C212.831 60.8045 214.677 61.8418 215.174 63.6137C215.671 65.3855 214.634 67.2312 212.862 67.728Z" fill="#7742CA"/>
<path d="M235.084 51.7893L230.096 51.03L230.855 46.0418C230.899 45.7531 230.7 45.4833 230.412 45.4395C230.123 45.3955 229.853 45.5939 229.809 45.8827L228.989 51.2725L227.074 52.6817L227.735 48.3374C227.779 48.0488 227.58 47.779 227.292 47.7351C227.003 47.6911 226.733 47.8896 226.689 48.1783L225.869 53.5681L223.45 55.348L224.111 51.0037C224.155 50.7151 223.957 50.4453 223.668 50.4014C223.379 50.3574 223.11 50.5559 223.066 50.8446L222.245 56.2344L212.045 63.7394C211.816 64.3344 211.898 64.7161 212.045 65.0524L222.982 57.0054L228.181 57.7967C228.47 57.8407 228.739 57.6423 228.783 57.3535C228.827 57.0649 228.629 56.7951 228.34 56.7512L224.187 56.119L226.606 54.3391L231.805 55.1304C232.094 55.1744 232.363 54.976 232.407 54.6872C232.451 54.3986 232.253 54.1288 231.964 54.085L227.81 53.4527L229.726 52.0435L234.925 52.8348C235.213 52.8788 235.483 52.6804 235.527 52.3916C235.571 52.103 235.373 51.8331 235.084 51.7893Z" fill="#2E3062"/>
</g>
<g clip-path="url(#clip2_91_15037)">
<path d="M28.6001 14.3715C26.3641 14.3715 24.5449 12.5507 24.5449 10.3126C24.5449 8.07451 26.3641 6.25366 28.6001 6.25366C30.836 6.25366 32.6551 8.07461 32.6551 10.3126C32.6551 12.5506 30.836 14.3715 28.6001 14.3715ZM28.6001 13.0982C30.1345 13.0982 31.3829 11.8485 31.3829 10.3126C31.3829 8.77668 30.1345 7.52713 28.6001 7.52713C27.0656 7.52713 25.8171 8.77668 25.8171 10.3126C25.8171 11.8485 27.0655 13.0982 28.6001 13.0982Z" fill="#7742CA"/>
<path d="M43.3685 27.779C41.1326 27.779 39.3135 25.9581 39.3135 23.7201C39.3135 21.4821 41.1326 19.6611 43.3685 19.6611C45.6044 19.6611 47.4235 21.4821 47.4235 23.7201C47.4235 25.9581 45.6044 27.779 43.3685 27.779ZM43.3685 26.5056C44.9031 26.5056 46.1514 25.256 46.1514 23.7201C46.1514 22.1841 44.9031 20.9345 43.3685 20.9345C41.834 20.9345 40.5856 22.1841 40.5856 23.7201C40.5856 25.256 41.834 26.5056 43.3685 26.5056Z" fill="#D9C9FF"/>
<path d="M48.7179 4.57784C48.7179 4.22629 48.4331 3.94116 48.0818 3.94116H45.2767C44.9254 3.94116 44.6406 4.22629 44.6406 4.57784C44.6406 4.9294 44.9254 5.21452 45.2767 5.21452H48.0818C48.4331 5.21452 48.7179 4.9294 48.7179 4.57784Z" fill="#7742CA"/>
<path d="M53.627 4.57784C53.627 4.22629 53.3422 3.94116 52.9909 3.94116H50.1859C49.8346 3.94116 49.5498 4.22629 49.5498 4.57784C49.5498 4.9294 49.8346 5.21452 50.1859 5.21452H52.9909C53.3422 5.21452 53.627 4.9294 53.627 4.57784Z" fill="#7742CA"/>
<path d="M49.7702 8.51883V5.99654C49.7702 5.64499 49.4854 5.35986 49.1341 5.35986C48.7828 5.35986 48.498 5.64499 48.498 5.99654V8.51883C48.498 8.87038 48.7828 9.15551 49.1341 9.15551C49.4854 9.15551 49.7702 8.87038 49.7702 8.51883Z" fill="#7742CA"/>
<path d="M49.7702 3.15896V0.636681C49.7702 0.285128 49.4854 0 49.1341 0C48.7828 0 48.498 0.285128 48.498 0.636681V3.15896C48.498 3.51052 48.7828 3.79564 49.1341 3.79564C49.4854 3.79564 49.7702 3.51052 49.7702 3.15896Z" fill="#7742CA"/>
<path d="M19.0138 26.5056C19.0138 26.154 18.729 25.8689 18.3777 25.8689H15.5726C15.2213 25.8689 14.9365 26.154 14.9365 26.5056C14.9365 26.8571 15.2213 27.1424 15.5726 27.1424H18.3777C18.729 27.1424 19.0138 26.8572 19.0138 26.5056Z" fill="#D9C9FF"/>
<path d="M23.9229 26.5056C23.9229 26.154 23.6381 25.8689 23.2868 25.8689H20.4818C20.1305 25.8689 19.8457 26.154 19.8457 26.5056C19.8457 26.8571 20.1305 27.1424 20.4818 27.1424H23.2868C23.6381 27.1424 23.9229 26.8572 23.9229 26.5056Z" fill="#D9C9FF"/>
<path d="M20.0662 30.4468V27.9245C20.0662 27.573 19.7814 27.2878 19.4301 27.2878C19.0788 27.2878 18.7939 27.573 18.7939 27.9245V30.4468C18.7939 30.7984 19.0788 31.0835 19.4301 31.0835C19.7814 31.0835 20.0662 30.7984 20.0662 30.4468Z" fill="#D9C9FF"/>
<path d="M20.0662 25.0867V22.5644C20.0662 22.2129 19.7814 21.9277 19.4301 21.9277C19.0788 21.9277 18.7939 22.2129 18.7939 22.5644V25.0867C18.7939 25.4383 19.0788 25.7234 19.4301 25.7234C19.7814 25.7234 20.0662 25.4383 20.0662 25.0867Z" fill="#D9C9FF"/>
<path d="M138.367 16.3828H147.936C151.702 16.3828 154.759 19.4433 154.759 23.2128V32.7904C154.759 36.5599 151.702 39.6204 147.936 39.6204H138.367C134.601 39.6204 131.544 36.5599 131.544 32.7904V23.2128C131.544 19.4433 134.601 16.3828 138.367 16.3828Z" fill="#D9C9FF"/>
<path d="M135.723 25.2281C135.723 23.1447 137.065 21.9514 138.845 21.9514C140.625 21.9514 141.968 23.1447 141.968 25.2281C141.968 27.3293 140.625 28.5055 138.845 28.5055C137.065 28.5055 135.723 27.3293 135.723 25.2281ZM145.745 22.119H148.583L140.557 33.8833H137.72L145.745 22.119ZM139.583 25.2281C139.583 24.1026 139.214 23.766 138.845 23.766C138.476 23.766 138.106 24.1026 138.106 25.2281C138.106 26.3543 138.476 26.6903 138.845 26.6903C139.214 26.6903 139.583 26.3543 139.583 25.2281ZM144.335 30.7743C144.335 28.6902 145.678 27.497 147.458 27.497C149.238 27.497 150.58 28.6902 150.58 30.7743C150.58 32.8748 149.238 34.0517 147.458 34.0517C145.678 34.0517 144.335 32.8748 144.335 30.7743ZM148.196 30.7743C148.196 29.6481 147.827 29.3121 147.458 29.3121C147.089 29.3121 146.72 29.6481 146.72 30.7743C146.72 31.9005 147.089 32.2365 147.458 32.2365C147.827 32.2365 148.196 31.9005 148.196 30.7743Z" fill="white"/>
</g>
<path d="M259.604 35.8609C259.604 33.6228 261.423 31.802 263.659 31.802C265.894 31.802 267.714 33.6228 267.714 35.8609C267.714 38.099 265.894 39.9199 263.659 39.9199C261.423 39.9199 259.604 38.0991 259.604 35.8609ZM260.876 35.8609C260.876 37.397 262.124 38.6465 263.659 38.6465C265.193 38.6465 266.441 37.397 266.441 35.8609C266.441 34.3249 265.193 33.0754 263.659 33.0754C262.124 33.0754 260.876 34.3249 260.876 35.8609Z" fill="#7742CA"/>
<path d="M245.006 50.1008C245.006 47.8627 246.825 46.0417 249.061 46.0417C251.297 46.0417 253.116 47.8627 253.116 50.1008C253.116 52.3389 251.297 54.1597 249.061 54.1597C246.825 54.1597 245.006 52.3389 245.006 50.1008ZM246.278 50.1008C246.278 51.6367 247.526 52.8863 249.061 52.8863C250.595 52.8863 251.844 51.6367 251.844 50.1008C251.844 48.5649 250.595 47.3152 249.061 47.3152C247.526 47.3152 246.278 48.5648 246.278 50.1008Z" fill="#6A44C5"/>
<path d="M244.049 67.3496C244.4 67.3496 244.685 67.0646 244.685 66.7129V63.9051C244.685 63.5534 244.4 63.2683 244.049 63.2683C243.698 63.2683 243.413 63.5534 243.413 63.9051V66.7129C243.413 67.0646 243.698 67.3496 244.049 67.3496Z" fill="#7742CA"/>
<path d="M244.049 72.2633C244.4 72.2633 244.685 71.9782 244.685 71.6265V68.8188C244.685 68.4672 244.4 68.1821 244.049 68.1821C243.698 68.1821 243.413 68.4672 243.413 68.8188V71.6265C243.413 71.9782 243.698 72.2633 244.049 72.2633Z" fill="#7742CA"/>
<path d="M240.112 68.4025H242.632C242.983 68.4025 243.268 68.1175 243.268 67.7658C243.268 67.4142 242.983 67.1292 242.632 67.1292H240.112C239.76 67.1292 239.476 67.4142 239.476 67.7658C239.476 68.1175 239.76 68.4025 240.112 68.4025Z" fill="#7742CA"/>
<path d="M245.467 68.4025H247.987C248.338 68.4025 248.623 68.1175 248.623 67.7658C248.623 67.4142 248.338 67.1292 247.987 67.1292H245.467C245.116 67.1292 244.831 67.4142 244.831 67.7658C244.831 68.1175 245.116 68.4025 245.467 68.4025Z" fill="#7742CA"/>
<path d="M263.068 50.6525C263.419 50.6525 263.704 50.3675 263.704 50.0158V47.208C263.704 46.8563 263.419 46.5713 263.068 46.5713C262.717 46.5713 262.432 46.8563 262.432 47.208V50.0158C262.432 50.3675 262.716 50.6525 263.068 50.6525Z" fill="#DDCFFF"/>
<path d="M263.068 55.5659C263.419 55.5659 263.704 55.2809 263.704 54.9293V52.1215C263.704 51.7699 263.419 51.4849 263.068 51.4849C262.717 51.4849 262.432 51.7699 262.432 52.1215V54.9293C262.432 55.2809 262.716 55.5659 263.068 55.5659Z" fill="#DDCFFF"/>
<path d="M259.131 51.7055H261.651C262.002 51.7055 262.287 51.4205 262.287 51.0688C262.287 50.7172 262.002 50.4321 261.651 50.4321H259.131C258.78 50.4321 258.495 50.7172 258.495 51.0688C258.495 51.4205 258.78 51.7055 259.131 51.7055Z" fill="#DDCFFF"/>
<path d="M264.487 51.7055H267.007C267.358 51.7055 267.643 51.4205 267.643 51.0688C267.643 50.7172 267.358 50.4321 267.007 50.4321H264.487C264.135 50.4321 263.851 50.7172 263.851 51.0688C263.851 51.4205 264.135 51.7055 264.487 51.7055Z" fill="#DDCFFF"/>
<g clip-path="url(#clip3_91_15037)">
<path d="M263.049 152.997L261.492 158.76L247.833 135.68L263.049 152.997Z" fill="#E8E4F7"/>
<path d="M271.932 148.373L252.275 155.214L246.706 133.472L271.932 148.373Z" fill="#AE8FF7"/>
<path d="M246.706 133.472L264.822 150.847L261.492 158.76L260.799 152.247L246.706 133.472Z" fill="#6A44C5"/>
<path d="M263.113 161.435L262.899 161.567C262.483 160.899 262.257 160.49 262.255 160.485L262.476 160.365C262.478 160.369 262.701 160.773 263.113 161.435Z" fill="#004568"/>
<path d="M290.65 169.676C290.426 170.366 290.11 171.019 289.711 171.617L289.501 171.479C289.965 170.784 290.312 170.013 290.531 169.19L290.774 169.254C290.736 169.396 290.695 169.538 290.65 169.676ZM291.036 166.679L290.785 166.693C290.74 165.855 290.569 165.026 290.276 164.231L290.512 164.145C290.814 164.964 290.99 165.816 291.036 166.679ZM287.934 173.509C287.264 174.023 286.499 174.446 285.661 174.765L285.571 174.531C286.386 174.221 287.13 173.81 287.781 173.311L287.934 173.509ZM289.272 161.871L289.071 162.021C288.568 161.353 287.966 160.755 287.282 160.243L287.434 160.043C288.136 160.569 288.755 161.184 289.272 161.871ZM283.141 175.388C282.712 175.444 282.265 175.481 281.812 175.496C281.394 175.511 280.969 175.502 280.547 175.472L280.566 175.222C280.978 175.252 281.394 175.26 281.803 175.246C282.248 175.231 282.687 175.195 283.108 175.139L283.141 175.388ZM278.027 191.037L277.852 191.217C277.229 190.615 276.636 189.983 276.089 189.337L276.282 189.176C276.823 189.815 277.41 190.442 278.027 191.037ZM285.171 158.774L285.076 159.006C284.827 158.905 284.569 158.811 284.309 158.728C284.103 158.662 283.892 158.601 283.683 158.546C283.336 158.456 282.983 158.392 282.633 158.356L282.659 158.107C283.021 158.145 283.387 158.211 283.746 158.304C283.96 158.36 284.176 158.422 284.386 158.49C284.652 158.575 284.916 158.67 285.171 158.774ZM274.74 187.145L274.531 187.285C274.048 186.573 273.602 185.83 273.206 185.077L273.429 184.961C273.821 185.705 274.262 186.44 274.74 187.145ZM277.993 175.019C277.829 174.972 277.663 174.922 277.5 174.87C276.861 174.665 276.212 174.407 275.57 174.103L275.678 173.877C276.31 174.176 276.949 174.431 277.577 174.632C277.737 174.683 277.9 174.732 278.061 174.778L277.993 175.019ZM272.373 182.644L272.139 182.734C271.829 181.937 271.563 181.113 271.347 180.285L271.59 180.222C271.804 181.041 272.067 181.855 272.373 182.644ZM280.13 158.554C279.346 158.76 278.569 159.102 277.82 159.569L277.686 159.357C278.456 158.876 279.257 158.525 280.065 158.312L280.13 158.554ZM273.453 172.626L273.316 172.835C272.623 172.385 271.922 171.872 271.232 171.31L271.391 171.117C272.075 171.673 272.769 172.18 273.453 172.626ZM271.091 177.727L270.842 177.762C270.722 176.916 270.651 176.054 270.629 175.198L270.88 175.192C270.902 176.038 270.973 176.891 271.091 177.727ZM275.849 161.161C275.275 161.739 274.732 162.399 274.235 163.122L274.027 162.98C274.533 162.245 275.086 161.574 275.67 160.985L275.849 161.161ZM270.96 172.649L270.709 172.627C270.785 171.771 270.911 170.914 271.083 170.08L271.33 170.131C271.159 170.956 271.035 171.803 270.96 172.649ZM272.957 165.32C272.592 166.067 272.267 166.859 271.993 167.674L271.754 167.595C272.032 166.769 272.361 165.967 272.73 165.211L272.957 165.32ZM269.481 169.417L269.306 169.596C268.708 169.018 268.108 168.393 267.52 167.739L267.708 167.572C268.292 168.222 268.888 168.843 269.481 169.417ZM266.06 165.615L265.862 165.77C265.337 165.107 264.818 164.413 264.321 163.709L264.527 163.565C265.022 164.266 265.537 164.955 266.06 165.615Z" fill="#004568"/>
<path d="M280.962 193.501L280.813 193.703C280.475 193.455 280.137 193.197 279.812 192.937L279.969 192.742C280.292 193 280.626 193.255 280.962 193.501Z" fill="#004568"/>
</g>
<defs>
<clipPath id="clip0_91_15037">
<rect width="135.881" height="79.9866" fill="white" transform="translate(109.861 91.0691)"/>
</clipPath>
<clipPath id="clip1_91_15037">
<rect width="44.2388" height="41.3332" fill="white" transform="translate(191.294 43.8481)"/>
</clipPath>
<clipPath id="clip2_91_15037">
<rect width="237.069" height="58.7854" fill="white" transform="translate(14.9365)"/>
</clipPath>
<clipPath id="clip3_91_15037">
<rect width="44.33" height="60.2309" fill="white" transform="translate(246.706 133.472)"/>
</clipPath>
</defs>
</svg>
