<svg width="44" height="55" viewBox="0 0 44 55" fill="none" xmlns="http://www.w3.org/2000/svg">
<g opacity="0.4">
<mask id="path-1-outside-1_91_14807" maskUnits="userSpaceOnUse" x="0" y="0" width="44" height="55" fill="black">
<rect fill="white" width="44" height="55"/>
<path d="M25.32 21.27C34.77 21.27 42.19 27.29 42.19 36.53C42.19 46.54 34 52.84 23.64 52.84C10.13 52.84 1.73 44.37 1.73 28.55C1.73 11.61 11.95 2.16 26.72 2.16C31.9 2.16 36.94 3.35 40.37 5.52L36.17 13.85C33.44 12.03 30.29 11.4 27 11.4C18.81 11.4 13.56 16.23 13.21 25.61C16.08 22.74 20.21 21.27 25.32 21.27ZM23.01 44.37C27.84 44.37 31.2 41.57 31.2 37.09C31.2 32.61 27.91 29.74 22.87 29.74C17.9 29.74 14.4 32.82 14.4 37.09C14.4 41.29 17.55 44.37 23.01 44.37Z"/>
</mask>
<path d="M40.37 5.52L41.0397 5.85766L41.3461 5.25002L40.771 4.88619L40.37 5.52ZM36.17 13.85L35.754 14.474L36.4585 14.9437L36.8397 14.1877L36.17 13.85ZM13.21 25.61L12.4605 25.582L12.3893 27.4914L13.7403 26.1403L13.21 25.61ZM25.32 20.52C24.742 20.52 24.1752 20.5383 23.62 20.5749L23.7187 22.0717C24.2397 22.0373 24.7736 22.02 25.32 22.02V20.52ZM20.2375 21.0581C19.079 21.3222 17.9866 21.6838 16.9667 22.1434L17.5829 23.5109C18.5055 23.0952 19.5024 22.7641 20.5709 22.5206L20.2375 21.0581ZM13.9879 23.9263C13.5279 24.2832 13.0915 24.6678 12.6797 25.0797L13.7403 26.1403C14.1076 25.773 14.4969 25.43 14.9075 25.1113L13.9879 23.9263ZM13.9595 25.638C13.9768 25.1742 14.0064 24.7228 14.0479 24.2837L12.5546 24.1424C12.5103 24.611 12.4788 25.0909 12.4605 25.582L13.9595 25.638ZM14.4763 21.6303C14.6912 20.7195 14.9681 19.8775 15.3025 19.1033L13.9254 18.5086C13.5536 19.3695 13.25 20.2958 13.0164 21.2858L14.4763 21.6303ZM16.5918 16.8154C17.1123 16.095 17.7038 15.4592 18.3617 14.9071L17.3974 13.7582C16.6434 14.391 15.9677 15.118 15.376 15.9369L16.5918 16.8154ZM20.5488 13.4918C21.3121 13.1191 22.1381 12.8222 23.0242 12.6034L22.6645 11.1472C21.6823 11.3897 20.7556 11.7216 19.8907 12.1439L20.5488 13.4918ZM25.6563 12.1969C26.0933 12.1657 26.5414 12.15 27 12.15V10.65C26.5071 10.65 26.0234 10.6669 25.5494 10.7007L25.6563 12.1969ZM27 12.15C27.3918 12.15 27.7807 12.1592 28.1663 12.1785L28.2414 10.6804C27.8293 10.6597 27.4153 10.65 27 10.65V12.15ZM30.4686 12.4289C31.23 12.561 31.9728 12.7436 32.6934 12.9846L33.169 11.562C32.3705 11.295 31.5539 11.0948 30.7249 10.951L30.4686 12.4289ZM34.7814 13.8879C35.1114 14.0668 35.4357 14.2619 35.754 14.474L36.586 13.226C36.2294 12.9882 35.8659 12.7696 35.4964 12.5693L34.7814 13.8879ZM36.8397 14.1877L37.3647 13.1464L36.0253 12.4711L35.5003 13.5123L36.8397 14.1877ZM38.4147 11.0639L39.4647 8.98141L38.1253 8.30609L37.0753 10.3886L38.4147 11.0639ZM40.5147 6.89891L41.0397 5.85766L39.7003 5.18234L39.1753 6.22359L40.5147 6.89891ZM40.771 4.88619C40.2594 4.56253 39.7162 4.26118 39.1463 3.9823L38.487 5.32963C39.0119 5.5865 39.5071 5.86157 39.969 6.15381L40.771 4.88619ZM35.7146 2.65862C34.5804 2.32029 33.3866 2.0488 32.1556 1.84651L31.9124 3.32666C33.0852 3.51938 34.2167 3.77711 35.2859 4.09603L35.7146 2.65862ZM28.5378 1.45788C27.9352 1.42607 27.3285 1.41 26.72 1.41V2.91C27.3022 2.91 27.8825 2.92537 28.4587 2.95579L28.5378 1.45788ZM26.72 1.41C26.2147 1.41 25.7142 1.42083 25.2189 1.44243L25.2843 2.94101C25.7575 2.92037 26.2361 2.91 26.72 2.91V1.41ZM22.2239 1.71297C21.2109 1.8539 20.2237 2.04377 19.2644 2.2821L19.6261 3.73784C20.5326 3.51263 21.468 3.33258 22.4306 3.19866L22.2239 1.71297ZM16.3803 3.17656C15.4235 3.53636 14.5014 3.95042 13.6167 4.41804L14.3176 5.74419C15.145 5.30689 16.0092 4.91866 16.9083 4.58056L16.3803 3.17656ZM11.0349 6.01153C10.2102 6.60129 9.42836 7.24604 8.69249 7.94477L9.72535 9.03252C10.4105 8.38192 11.1387 7.78136 11.9074 7.23169L11.0349 6.01153ZM6.64016 10.1837C6.01681 10.9655 5.44015 11.7965 4.91262 12.6757L6.19885 13.4475C6.69274 12.6243 7.23163 11.8479 7.81298 11.1188L6.64016 10.1837ZM3.52112 15.3628C3.12147 16.2653 2.76647 17.2079 2.45791 18.1898L3.88891 18.6395C4.18113 17.7096 4.51644 16.8197 4.89265 15.9702L3.52112 15.3628ZM1.7036 21.104C1.50573 22.0606 1.34739 23.0486 1.22989 24.0673L2.72001 24.2392C2.83259 23.2631 2.98398 22.3192 3.1725 21.4078L1.7036 21.104ZM1.00664 27.0541C0.988921 27.5464 0.98 28.0451 0.98 28.55H2.48C2.48 28.0627 2.48861 27.5821 2.50567 27.108L1.00664 27.0541ZM0.98 28.55C0.98 29.0833 0.989387 29.6087 1.00807 30.1262L2.50709 30.0721C2.48908 29.5731 2.48 29.0657 2.48 28.55H0.98ZM1.24722 33.2768C1.37506 34.3584 1.54832 35.4003 1.76597 36.4017L3.23175 36.0831C3.02486 35.1313 2.85934 34.137 2.73685 33.1007L1.24722 33.2768ZM2.6123 39.4658C2.96515 40.5025 3.37373 41.4863 3.83655 42.4159L5.17933 41.7474C4.74775 40.8805 4.3646 39.9588 4.0323 38.9825L2.6123 39.4658ZM5.47875 45.1729C6.10746 46.0622 6.7983 46.8841 7.54871 47.6373L8.61129 46.5785C7.92138 45.8861 7.28462 45.1288 6.70356 44.3069L5.47875 45.1729ZM10.0119 49.7141C10.8831 50.3279 11.8098 50.8698 12.7888 51.339L13.4371 49.9862C12.5315 49.5523 11.6772 49.0525 10.876 48.4879L10.0119 49.7141ZM15.7789 52.4973C16.7757 52.8004 17.8138 53.0406 18.8909 53.2177L19.1342 51.7376C18.1192 51.5707 17.1457 51.3451 16.2154 51.0622L15.7789 52.4973ZM22.0522 53.5508C22.574 53.5769 23.1033 53.59 23.64 53.59V52.09C23.1276 52.09 22.6233 52.0775 22.1272 52.0527L22.0522 53.5508ZM23.64 53.59C24.1197 53.59 24.5952 53.5769 25.0658 53.5508L24.983 52.0531C24.5402 52.0776 24.0924 52.09 23.64 52.09V53.59ZM27.901 53.2287C28.8573 53.062 29.7866 52.8385 30.6832 52.5603L30.2386 51.1276C29.405 51.3863 28.5383 51.595 27.6434 51.751L27.901 53.2287ZM33.3591 51.5212C34.2391 51.1046 35.0753 50.6276 35.8604 50.0928L35.0159 48.8531C34.2975 49.3425 33.5293 49.781 32.7172 50.1654L33.3591 51.5212ZM38.105 48.2693C38.8021 47.595 39.4359 46.8618 39.9984 46.0728L38.777 45.202C38.2689 45.9148 37.6951 46.5789 37.0621 47.1911L38.105 48.2693ZM41.4549 43.5605C41.8533 42.6952 42.1768 41.7825 42.419 40.8259L40.9649 40.4577C40.745 41.326 40.452 42.1519 40.0924 42.9333L41.4549 43.5605ZM42.8842 37.9731C42.9212 37.5002 42.94 37.019 42.94 36.53H41.44C41.44 36.9806 41.4227 37.4227 41.3888 37.8561L42.8842 37.9731ZM42.94 36.53C42.94 35.9651 42.9134 35.4107 42.8612 34.8678L41.3681 35.0113C41.4156 35.5057 41.44 36.0121 41.44 36.53H42.94ZM42.2011 31.5983C41.8579 30.5125 41.4008 29.4911 40.842 28.5413L39.5492 29.3019C40.0507 30.1543 40.4616 31.0722 40.7708 32.0504L42.2011 31.5983ZM38.8295 25.8681C38.0677 25.0628 37.2161 24.3397 36.2885 23.705L35.4415 24.943C36.2839 25.5193 37.0536 26.1735 37.7398 26.8989L38.8295 25.8681ZM33.3736 22.1075C32.3767 21.6791 31.3245 21.3336 30.2278 21.0757L29.8844 22.5359C30.8987 22.7744 31.8674 23.0929 32.7814 23.4856L33.3736 22.1075ZM26.9663 20.5799C26.4246 20.5401 25.8755 20.52 25.32 20.52V22.02C25.8392 22.02 26.3517 22.0388 26.8564 22.0759L26.9663 20.5799ZM23.01 43.62C22.4867 43.62 21.9887 43.5902 21.5164 43.5331L21.3364 45.0222C21.8715 45.0869 22.4298 45.12 23.01 45.12V43.62ZM18.7047 42.7536C17.7824 42.3162 17.0385 41.7312 16.4752 41.0373L15.3106 41.9827C16.0243 42.8619 16.951 43.582 18.0618 44.1089L18.7047 42.7536ZM15.292 38.5135C15.1984 38.0624 15.15 37.5869 15.15 37.09H13.65C13.65 37.6844 13.7079 38.2623 13.8233 38.8183L15.292 38.5135ZM15.15 37.09C15.15 36.6025 15.2005 36.1353 15.2965 35.691L13.8304 35.374C13.7113 35.925 13.65 36.4986 13.65 37.09H15.15ZM16.4827 33.1921C17.0487 32.4851 17.7844 31.8878 18.6647 31.4356L17.9792 30.1014C16.9227 30.6442 16.0178 31.3726 15.3117 32.2547L16.4827 33.1921ZM21.4089 30.5894C21.876 30.5241 22.3638 30.49 22.87 30.49V28.99C22.2965 28.99 21.7393 29.0286 21.2012 29.1038L21.4089 30.5894ZM22.87 30.49C23.3809 30.49 23.8699 30.5213 24.3355 30.5816L24.5283 29.094C23.9955 29.025 23.442 28.99 22.87 28.99V30.49ZM27.0794 31.3922C27.9564 31.8351 28.6745 32.4278 29.2182 33.1445L30.4132 32.238C29.7226 31.3276 28.8224 30.592 27.7556 30.0533L27.0794 31.3922ZM30.3209 35.6738C30.4056 36.1188 30.45 36.5913 30.45 37.09H31.95C31.95 36.5022 31.8976 35.9355 31.7944 35.3932L30.3209 35.6738ZM30.45 37.09C30.45 37.5809 30.406 38.0455 30.3224 38.4827L31.7957 38.7644C31.8979 38.2299 31.95 37.6708 31.95 37.09H30.45ZM29.2373 40.9724C28.7005 41.6835 27.9942 42.2705 27.1403 42.7102L27.827 44.0438C28.8672 43.5081 29.7528 42.7792 30.4345 41.8761L29.2373 40.9724ZM24.4484 43.5265C23.9897 43.5881 23.5096 43.62 23.01 43.62V45.12C23.5732 45.12 24.1203 45.0841 24.6482 45.0131L24.4484 43.5265ZM40.37 5.52L41.7094 6.19532L42.3221 4.98004L41.172 4.25238L40.37 5.52ZM36.17 13.85L35.338 15.0981L36.747 16.0374L37.5094 14.5253L36.17 13.85ZM13.21 25.61L11.711 25.5541L11.5686 29.3728L14.2707 26.6707L13.21 25.61ZM25.32 19.77C24.7262 19.77 24.1429 19.7888 23.5706 19.8265L23.7681 22.82C24.272 22.7868 24.7894 22.77 25.32 22.77V19.77ZM20.0709 20.3269C18.8672 20.6012 17.7271 20.9781 16.6586 21.4596L17.8911 24.1947C18.765 23.8009 19.7142 23.4851 20.7375 23.2519L20.0709 20.3269ZM13.5281 23.3338C13.0434 23.7099 12.5835 24.1152 12.1493 24.5493L14.2707 26.6707C14.6157 26.3257 14.9813 26.0034 15.3673 25.7038L13.5281 23.3338ZM14.709 25.6659C14.7257 25.2159 14.7544 24.7787 14.7946 24.3544L11.8079 24.0717C11.7622 24.555 11.7299 25.0492 11.711 25.5541L14.709 25.6659ZM15.2062 21.8025C15.4118 20.9313 15.6754 20.1315 15.991 19.4007L13.2369 18.2113C12.8464 19.1155 12.5293 20.084 12.2864 21.1136L15.2062 21.8025ZM17.1998 17.2547C17.6846 16.5836 18.2341 15.9934 18.8438 15.4816L16.9153 13.1837C16.1131 13.8568 15.3954 14.6294 14.7681 15.4977L17.1998 17.2547ZM20.8778 14.1658C21.5904 13.8179 22.3661 13.5385 23.204 13.3315L22.4847 10.419C21.4544 10.6735 20.4773 11.0229 19.5617 11.4699L20.8778 14.1658ZM25.7097 12.945C26.1283 12.9151 26.5585 12.9 27 12.9V9.9C26.49 9.9 25.9885 9.91747 25.496 9.95265L25.7097 12.945ZM27 12.9C27.3801 12.9 27.7565 12.9089 28.1287 12.9276L28.2789 9.93135C27.8535 9.91002 27.427 9.9 27 9.9V12.9ZM30.3404 13.1679C31.0681 13.2941 31.7739 13.4679 32.4555 13.6959L33.4069 10.8507C32.5694 10.5707 31.7159 10.3617 30.853 10.212L30.3404 13.1679ZM34.4239 14.5472C34.7341 14.7154 35.0389 14.8987 35.338 15.0981L37.0021 12.6019C36.6262 12.3513 36.2432 12.1211 35.8539 11.91L34.4239 14.5472ZM37.5094 14.5253L38.0344 13.4841L35.3556 12.1334L34.8306 13.1747L37.5094 14.5253ZM39.0844 11.4016L40.1344 9.31907L37.4556 7.96843L36.4056 10.0509L39.0844 11.4016ZM41.1844 7.23657L41.7094 6.19532L39.0306 4.84468L38.5056 5.88593L41.1844 7.23657ZM41.172 4.25238C40.6355 3.913 40.0684 3.59851 39.476 3.30864L38.1573 6.00329C38.6598 6.24916 39.131 6.5111 39.568 6.78761L41.172 4.25238ZM35.929 1.93991C34.7622 1.59188 33.5373 1.31351 32.2772 1.10644L31.7908 4.06673C32.9344 4.25467 34.0348 4.50553 35.0715 4.81474L35.929 1.93991ZM28.5773 0.708923C27.9616 0.676413 27.3417 0.66 26.72 0.66V3.66C27.289 3.66 27.8561 3.67502 28.4192 3.70475L28.5773 0.708923ZM26.72 0.66C26.2039 0.66 25.6926 0.671057 25.1863 0.693146L25.317 3.69029C25.7791 3.67014 26.2468 3.66 26.72 3.66V0.66ZM22.1205 0.970125C21.0824 1.11456 20.0693 1.30934 19.0836 1.55423L19.8069 4.46572C20.687 4.24706 21.5966 4.07192 22.5339 3.9415L22.1205 0.970125ZM16.1163 2.47456C15.1307 2.84521 14.1796 3.27218 13.2662 3.75497L14.6681 6.40726C15.4667 5.98513 16.3021 5.60981 17.1723 5.28257L16.1163 2.47456ZM10.5987 5.40145C9.74589 6.01125 8.93727 6.6781 8.17606 7.40089L10.2418 9.5764C10.9016 8.94986 11.603 8.3714 12.3436 7.84177L10.5987 5.40145ZM6.05374 9.71611C5.4094 10.5242 4.81385 11.3826 4.26951 12.2898L6.84196 13.8333C7.31904 13.0382 7.83904 12.2892 8.39939 11.5864L6.05374 9.71611ZM2.83536 15.0591C2.42399 15.9881 2.05914 16.9571 1.74241 17.9649L4.60441 18.8643C4.88846 17.9605 5.21393 17.097 5.57842 16.2739L2.83536 15.0591ZM0.969147 20.9521C0.766603 21.9312 0.604793 22.9413 0.484826 23.9814L3.46507 24.3251C3.57518 23.3704 3.7231 22.4486 3.90696 21.5597L0.969147 20.9521ZM0.257122 27.0271C0.239077 27.5286 0.23 28.0363 0.23 28.55H3.23C3.23 28.0716 3.23845 27.5999 3.25518 27.135L0.257122 27.0271ZM0.23 28.55C0.23 29.0921 0.239542 29.6265 0.258554 30.1533L3.2566 30.0451C3.23892 29.5552 3.23 29.0569 3.23 28.55H0.23ZM0.502405 33.3648C0.632927 34.4691 0.810045 35.5348 1.03308 36.561L3.96464 35.9238C3.76313 34.9967 3.60148 34.0263 3.48167 33.0127L0.502405 33.3648ZM1.90229 39.7074C2.26542 40.7744 2.68673 41.7892 3.16516 42.7502L5.85072 41.4131C5.43475 40.5776 5.06433 39.687 4.74231 38.7408L1.90229 39.7074ZM4.86634 45.6058C5.51889 46.5288 6.23676 47.3831 7.01741 48.1666L9.14259 46.0492C8.48292 45.3871 7.8732 44.6622 7.31597 43.874L4.86634 45.6058ZM9.57991 50.3271C10.4861 50.9657 11.449 51.5285 12.4647 52.0153L13.7612 49.3099C12.8924 48.8936 12.0742 48.4148 11.308 47.8748L9.57991 50.3271ZM15.5607 53.2148C16.5907 53.5281 17.6612 53.7756 18.7692 53.9578L19.2559 50.9975C18.2719 50.8357 17.3308 50.6175 16.4336 50.3446L15.5607 53.2148ZM22.0147 54.2999C22.5493 54.3266 23.0911 54.34 23.64 54.34V51.34C23.1398 51.34 22.648 51.3278 22.1647 51.3036L22.0147 54.2999ZM23.64 54.34C24.1334 54.34 24.6227 54.3265 25.1073 54.2997L24.9416 51.3043C24.5127 51.328 24.0787 51.34 23.64 51.34V54.34ZM28.0298 53.9676C29.0168 53.7955 29.9774 53.5646 30.9055 53.2766L30.0164 50.4113C29.2142 50.6603 28.3787 50.8615 27.5146 51.0121L28.0298 53.9676ZM33.68 52.1991C34.5941 51.7663 35.4642 51.2701 36.2827 50.7126L34.5937 48.2332C33.9085 48.7 33.1744 49.1192 32.3963 49.4875L33.68 52.1991ZM38.6264 48.8084C39.3556 48.1031 40.0195 47.3352 40.6091 46.5081L38.1663 44.7667C37.6853 45.4413 37.1416 46.0708 36.5407 46.652L38.6264 48.8084ZM42.1362 43.8741C42.5539 42.9668 42.8927 42.0107 43.1461 41.0099L40.2378 40.2736C40.0292 41.0977 39.7514 41.8803 39.4111 42.6197L42.1362 43.8741ZM43.6319 38.0316C43.6705 37.5389 43.69 37.0382 43.69 36.53H40.69C40.69 36.9614 40.6734 37.384 40.6411 37.7976L43.6319 38.0316ZM43.69 36.53C43.69 35.9415 43.6623 35.3633 43.6078 34.796L40.6215 35.083C40.6667 35.5532 40.69 36.0357 40.69 36.53H43.69ZM42.9162 31.3723C42.556 30.2326 42.0759 29.1595 41.4884 28.161L38.9027 29.6823C39.3756 30.4859 39.7635 31.352 40.0557 32.2764L42.9162 31.3723ZM39.3743 25.3527C38.5747 24.5074 37.6822 23.7499 36.712 23.086L35.018 25.562C35.8178 26.1092 36.5465 26.7288 37.195 27.4143L39.3743 25.3527ZM33.6697 21.4184C32.6313 20.9722 31.5374 20.6132 30.3995 20.3456L29.7127 23.266C30.6858 23.4948 31.6128 23.7998 32.4853 24.1747L33.6697 21.4184ZM27.0212 19.8319C26.461 19.7908 25.8936 19.77 25.32 19.77V22.77C25.8211 22.77 26.3153 22.7882 26.8015 22.8239L27.0212 19.8319ZM23.01 42.87C22.5152 42.87 22.0472 42.8418 21.6064 42.7885L21.2464 45.7668C21.8129 45.8353 22.4013 45.87 23.01 45.87V42.87ZM19.0261 42.076C18.1982 41.6833 17.5456 41.1659 17.0575 40.5646L14.7283 42.4554C15.5172 43.4272 16.5352 44.2149 17.7404 44.7865L19.0261 42.076ZM16.0264 38.3611C15.9436 37.9625 15.9 37.5381 15.9 37.09H12.9C12.9 37.7332 12.9627 38.3623 13.0889 38.9707L16.0264 38.3611ZM15.9 37.09C15.9 36.6545 15.9451 36.2404 16.0296 35.8496L13.0974 35.2154C12.9667 35.8198 12.9 36.4467 12.9 37.09H15.9ZM17.0682 33.6608C17.5642 33.0413 18.2153 32.5097 19.0074 32.1027L17.6365 29.4343C16.4919 30.0224 15.5024 30.8164 14.7262 31.7859L17.0682 33.6608ZM21.5128 31.3321C21.9444 31.2718 22.3974 31.24 22.87 31.24V28.24C22.2629 28.24 21.6709 28.2809 21.0974 28.361L21.5128 31.3321ZM22.87 31.24C23.3504 31.24 23.8071 31.2694 24.2391 31.3254L24.6246 28.3503C24.0583 28.2769 23.4725 28.24 22.87 28.24V31.24ZM26.7413 32.0617C27.5234 32.4567 28.1504 32.9779 28.6207 33.5978L31.0107 31.7847C30.2467 30.7775 29.2553 29.9705 28.0937 29.3838L26.7413 32.0617ZM29.5841 35.8141C29.6596 36.2105 29.7 36.6359 29.7 37.09H32.7C32.7 36.4576 32.6437 35.8438 32.5311 35.2529L29.5841 35.8141ZM29.7 37.09C29.7 37.536 29.66 37.9533 29.5857 38.3418L32.5323 38.9053C32.6438 38.3221 32.7 37.7157 32.7 37.09H29.7ZM28.6387 40.5206C28.1743 41.1357 27.5577 41.6517 26.7969 42.0435L28.1704 44.7106C29.3038 44.1269 30.279 43.327 31.0331 42.3279L28.6387 40.5206ZM24.3485 42.7832C23.9245 42.8402 23.4777 42.87 23.01 42.87V45.87C23.6051 45.87 24.1856 45.8321 24.7481 45.7564L24.3485 42.7832Z" fill="#7732EF" mask="url(#path-1-outside-1_91_14807)"/>
</g>
</svg>
