<svg width="100" height="100" viewBox="0 0 100 100" fill="none" xmlns="http://www.w3.org/2000/svg">
<path fill-rule="evenodd" clip-rule="evenodd" d="M74.9994 66.666C74.9994 68.9673 73.1339 70.8327 70.8327 70.8327H54.166C54.166 80.0373 61.6281 87.4994 70.8327 87.4994H79.166C88.3706 87.4994 95.8327 80.0373 95.8327 70.8327V66.666C95.8327 59.7623 90.2364 54.166 83.3327 54.166H74.9994V66.666ZM45.8327 70.8327H4.16602C4.16602 80.0373 11.6279 87.4994 20.8327 87.4994H29.166C38.3708 87.4994 45.8327 80.0373 45.8327 70.8327Z" fill="#D2BFFF"/>
<path fill-rule="evenodd" clip-rule="evenodd" d="M10.946 24.021C12.2858 17.322 18.1677 12.5 24.9994 12.5C27.3005 12.5 29.166 14.3655 29.166 16.6667C29.166 18.9678 27.3005 20.8333 24.9994 20.8333C22.1401 20.8333 19.6782 22.8515 19.1175 25.6553L16.7485 37.5H33.3327C40.2362 37.5 45.8327 43.0962 45.8327 50C45.8327 53.2017 44.6289 56.1217 42.6498 58.3333C40.3609 55.7762 37.0348 54.1667 33.3327 54.1667C35.6339 54.1667 37.4994 52.3012 37.4994 50C37.4994 47.6987 35.6339 45.8333 33.3327 45.8333H15.0819L14.0367 51.0592C13.8302 52.0917 13.6444 53.1275 13.4794 54.1667H16.666C15.5406 54.1667 14.45 54.3154 13.4127 54.5942C11.499 55.1087 9.76681 56.0658 8.33268 57.3496C5.77539 59.6383 4.16602 62.9646 4.16602 66.6667V66.585C4.16602 60.8229 4.73518 55.075 5.86522 49.4246L10.946 24.021ZM74.9994 12.5C72.6981 12.5 70.8327 14.3655 70.8327 16.6667C70.8327 18.9678 72.6981 20.8333 74.9994 20.8333C77.8585 20.8333 80.3206 22.8515 80.8814 25.6553L85.9619 51.0592C86.1969 52.2329 86.4048 53.4117 86.586 54.5942C91.9123 56.0258 95.8327 60.8883 95.8327 66.6667V66.585C95.8327 60.8229 95.2635 55.075 94.1335 49.4246L89.0527 24.021C87.7131 17.322 81.831 12.5 74.9994 12.5ZM45.8327 66.6667H54.166V70.8333C54.166 72.2721 54.3481 73.6683 54.691 75H45.3077C45.6506 73.6683 45.8327 72.2721 45.8327 70.8333V70.7592V66.6667Z" fill="#7E6AD3"/>
<path fill-rule="evenodd" clip-rule="evenodd" d="M12.4993 66.666C12.4993 64.3648 14.3649 62.4993 16.666 62.4993H33.3327C35.6339 62.4993 37.4994 64.3648 37.4994 66.666V70.8327C37.4994 75.4352 33.7684 79.166 29.166 79.166H20.8327C16.2303 79.166 12.4993 75.4352 12.4993 70.8327V66.666ZM16.666 54.166C9.76247 54.166 4.16602 59.7623 4.16602 66.666V70.8327C4.16602 80.0373 11.6279 87.4994 20.8327 87.4994H29.166C38.3708 87.4994 45.8327 80.0373 45.8327 70.8327V66.666C45.8327 59.7623 40.2362 54.166 33.3327 54.166H16.666ZM62.4994 66.666C62.4994 64.3648 64.3648 62.4993 66.666 62.4993H83.3327C85.6339 62.4993 87.4994 64.3648 87.4994 66.666V70.8327C87.4994 75.4352 83.7685 79.166 79.166 79.166H70.8327C66.2302 79.166 62.4994 75.4352 62.4994 70.8327V66.666ZM66.666 54.166C59.7623 54.166 54.166 59.7623 54.166 66.666V70.8327C54.166 80.0373 61.6281 87.4994 70.8327 87.4994H79.166C88.3706 87.4994 95.8327 80.0373 95.8327 70.8327V66.666C95.8327 59.7623 90.2364 54.166 83.3327 54.166H66.666Z" fill="#9F8CEA"/>
</svg>
