<svg width="40" height="40" viewBox="0 0 40 40" fill="none" xmlns="http://www.w3.org/2000/svg">
<g clip-path="url(#clip0_73_8496)">
<mask id="mask0_73_8496" style="mask-type:luminance" maskUnits="userSpaceOnUse" x="0" y="0" width="40" height="40">
<path d="M40 0H0V40H40V0Z" fill="white"/>
</mask>
<g mask="url(#mask0_73_8496)">
<mask id="mask1_73_8496" style="mask-type:luminance" maskUnits="userSpaceOnUse" x="0" y="0" width="40" height="40">
<path d="M0 3.8147e-06H40V40H0V3.8147e-06Z" fill="white"/>
</mask>
<g mask="url(#mask1_73_8496)">
<path d="M20.8022 18.1953V4.09992C20.8022 2.51516 19.5053 1.18485 17.9208 1.21219C16.3819 1.23883 15.1387 2.49844 15.1387 4.04352V18.1317" stroke="#181818" stroke-width="2" stroke-miterlimit="10" stroke-linecap="round"/>
<path d="M9.50383 18.1943V11.8109C9.50383 10.6004 8.51914 9.61571 7.3025 9.61571C6.09203 9.61571 5.10742 10.6004 5.10742 11.8109L5.10867 28.8678C5.71578 37.6375 11.0949 38.8203 16.2772 38.8203C20.5708 38.8203 24.4273 36.6905 26.3288 33.2862C26.5734 32.8911 27.2351 31.8506 28.0197 30.6183C29.1327 28.8697 30.1432 27.3048 30.8534 26.194C31.8097 24.6987 32.8287 23.245 33.9136 21.8404C34.1819 21.4931 34.4015 21.217 34.5105 21.0981C34.83 20.7495 35.0405 20.3154 35.1034 19.8467C35.3283 18.1673 33.3407 16.9659 31.7395 17.5198C31.527 17.5934 31.3259 17.6969 31.1447 17.8302C30.2646 18.4777 27.723 21.1067 26.7309 22.8408C26.7287 22.8444 26.7266 22.848 26.7246 22.8516C26.4745 23.2801 25.8148 23.0959 25.8105 22.5998L25.8102 22.5573V8.72492C25.8102 7.32094 24.6612 6.1425 23.2575 6.16672C21.8942 6.19024 20.7928 7.30618 20.7928 8.675L20.8025 18.1943" stroke="#181818" stroke-width="2" stroke-miterlimit="10" stroke-linecap="round"/>
<path d="M15.1389 18.1298L15.1257 7.56203C15.1257 6.06344 13.9528 4.79516 12.455 4.75078C10.8985 4.70469 9.53097 5.95727 9.53097 7.50352L9.50378 18.1934" stroke="#181818" stroke-width="2" stroke-miterlimit="10" stroke-linecap="round"/>
</g>
</g>
</g>
<defs>
<clipPath id="clip0_73_8496">
<rect width="40" height="40" fill="white"/>
</clipPath>
</defs>
</svg>
