<svg width="155" height="156" viewBox="0 0 155 156" fill="none" xmlns="http://www.w3.org/2000/svg">
<mask id="mask0_73_5471" style="mask-type:alpha" maskUnits="userSpaceOnUse" x="0" y="0" width="155" height="156">
<circle cx="77.5004" cy="77.953" r="76.9194" fill="#AE8FF7" stroke="#AE8FF7"/>
</mask>
<g mask="url(#mask0_73_5471)">
<rect x="-37" y="-2.04688" width="216" height="216" fill="#DCCEFF"/>
<path d="M92.9712 85.8007C97.8643 69.7811 88.8477 52.8269 72.8319 47.9326C56.8162 43.0383 39.8662 52.0571 34.9731 68.0768C30.08 84.0964 39.0966 101.051 55.1123 105.945C71.1281 110.839 88.078 101.82 92.9712 85.8007Z" stroke="white" stroke-linecap="round" stroke-linejoin="round" stroke-dasharray="3.04 3.04"/>
<path d="M91.2065 106.228C107.952 106.228 121.528 92.6498 121.528 75.8999C121.528 59.1499 107.952 45.5714 91.2065 45.5714C74.4607 45.5714 60.8855 59.1499 60.8855 75.8999C60.8855 92.6498 74.4607 106.228 91.2065 106.228Z" stroke="white" stroke-linecap="round" stroke-linejoin="round" stroke-dasharray="3.04 3.04"/>
<path d="M104.373 137H51.8651V70.3596H97.4733L104.373 77.4194V137Z" fill="white" stroke="#6A44C5" stroke-width="1.5" stroke-miterlimit="10" stroke-linecap="round" stroke-linejoin="round"/>
<path d="M97.4416 70.328L97.41 77.4194H104.373L97.4416 70.328Z" fill="#CDCFD0" stroke="#6A44C5" stroke-width="1.5" stroke-miterlimit="10" stroke-linecap="round" stroke-linejoin="round"/>
<path d="M98.8975 89.3229H56.8975V92.0771H98.8975V89.3229Z" fill="#AE8FF7" stroke="#6A44C5" stroke-width="1.5" stroke-miterlimit="10" stroke-linecap="round" stroke-linejoin="round"/>
<path d="M98.8975 90.8741H56.8975V92.1088H98.8975V90.8741Z" fill="#AE8FF7"/>
<path d="M98.8975 94.0083H56.8975V96.7626H98.8975V94.0083Z" fill="#AE8FF7" stroke="#6A44C5" stroke-width="1.5" stroke-miterlimit="10" stroke-linecap="round" stroke-linejoin="round"/>
<path d="M98.8975 95.5596H56.8975V96.7309H98.8975V95.5596Z" fill="#AE8FF7"/>
<path d="M99.0558 100.815H56.7076V131.776H99.0558V100.815Z" stroke="#6A44C5" stroke-width="1.5" stroke-miterlimit="10" stroke-linecap="round" stroke-linejoin="round"/>
<path d="M72.2479 102.651V131.808" stroke="#6A44C5" stroke-width="1.5" stroke-miterlimit="10" stroke-linecap="round" stroke-linejoin="round"/>
<path d="M99.0875 100.656H56.7076V104.329H99.0875V100.656Z" fill="#DCCEFF" stroke="#6A44C5" stroke-width="1.5" stroke-miterlimit="10" stroke-linecap="round" stroke-linejoin="round"/>
<path d="M99.0875 102.461H56.7076V104.329H99.0875V102.461Z" fill="#AE8FF7"/>
<path d="M56.7709 112.94H98.9609" stroke="#6A44C5" stroke-width="1.5" stroke-miterlimit="10" stroke-linecap="round" stroke-linejoin="round"/>
<path d="M56.7709 121.709H98.9609" stroke="#6A44C5" stroke-width="1.5" stroke-miterlimit="10" stroke-linecap="round" stroke-linejoin="round"/>
<path d="M96.682 79.6671H75.9194V84.3209H96.682V79.6671Z" fill="#AE8FF7" stroke="#6A44C5" stroke-width="1.5" stroke-miterlimit="10" stroke-linecap="round" stroke-linejoin="round"/>
<path d="M96.682 82.0098H75.9194V84.3208H96.682V82.0098Z" fill="#AE8FF7"/>
<path d="M72.786 85.3022H59.0814V85.9987H72.786V85.3022Z" fill="#43486F"/>
<path d="M72.786 77.9893H59.0814V78.6857H72.786V77.9893Z" fill="#43486F"/>
<path d="M66.8673 82.4531L65.6013 79.3506C65.538 79.1606 65.3481 79.0657 65.1582 79.0657H64.81C64.6201 79.0657 64.4302 79.1923 64.3669 79.3506L63.1009 82.4531L62.3097 84.3526C62.2147 84.6058 62.3413 84.8591 62.5629 84.9857C62.6262 85.0174 62.6895 85.0174 62.7528 85.0174C62.9427 85.0174 63.1326 84.8908 63.1959 84.7325L63.8605 83.1179H66.1077L66.7724 84.7325C66.8673 84.9857 67.1522 85.0807 67.4054 84.9857C67.6586 84.8908 67.7535 84.6058 67.6586 84.3526L66.8673 82.4531ZM64.2403 82.1682L64.9683 80.3637L65.6963 82.1682H64.2403Z" fill="#43486F"/>
<path d="M72.3745 79.129C72.1529 78.9707 71.8681 79.034 71.7098 79.224L70.2539 81.2184L68.9246 79.224C68.7664 79.0024 68.4815 78.939 68.2599 79.0973C68.0384 79.2556 67.9751 79.5405 68.1333 79.7621L69.6526 82.0415L68.0067 84.2893C67.8485 84.5109 67.9118 84.7958 68.1017 84.9541C68.1966 85.0174 68.2916 85.0491 68.3865 85.0491C68.5448 85.0491 68.6714 84.9857 68.7664 84.8591L70.1906 82.8963L71.5199 84.8591C71.6149 84.9857 71.7731 85.0807 71.8997 85.0807C71.9947 85.0807 72.0896 85.0491 72.1529 84.9857C72.3745 84.8274 72.4378 84.5425 72.2795 84.3209L70.7603 82.1048L72.4378 79.8255C72.6277 79.5722 72.596 79.2873 72.3745 79.129Z" fill="#43486F"/>
<path d="M62.7845 80.047C63.0377 80.047 63.2592 79.8254 63.2592 79.5722C63.2592 79.3189 63.0377 79.0973 62.7845 79.0973H59.4928C59.2396 79.0973 59.0181 79.3189 59.0181 79.5722C59.0181 79.8254 59.2396 80.047 59.4928 80.047H60.6639V84.4475C60.6639 84.7008 60.8854 84.9224 61.1386 84.9224C61.3918 84.9224 61.6134 84.7008 61.6134 84.4475V80.047H62.7845Z" fill="#43486F"/>
<path d="M54.0807 58.5513C54.0807 65.1362 48.7634 70.4547 42.1801 70.4547C35.5969 70.4547 30.2796 65.1362 30.2796 58.5513C30.2796 51.9664 35.6285 46.6478 42.1801 46.6478C48.7634 46.6478 54.0807 51.9664 54.0807 58.5513Z" fill="white" stroke="#AE8FF7" stroke-miterlimit="10" stroke-linecap="round" stroke-linejoin="round"/>
<path d="M49.4281 58.8994C49.4281 62.9517 46.1681 66.2125 42.1168 66.2125C38.0656 66.2125 34.8056 62.9517 34.8056 58.8994C34.8056 54.8472 38.0656 51.5864 42.1168 51.5864C46.1364 51.5864 49.4281 54.8472 49.4281 58.8994Z" fill="white"/>
<path d="M50.1877 58.8362C50.1877 63.3316 46.5479 66.9406 42.0852 66.9406C37.6225 66.9406 33.9827 63.3 33.9827 58.8362C33.9827 54.3407 37.6225 50.7317 42.0852 50.7317C46.5796 50.7317 50.1877 54.3407 50.1877 58.8362Z" fill="white" stroke="#6A44C5" stroke-width="1.5" stroke-miterlimit="10" stroke-linecap="round" stroke-linejoin="round"/>
<path d="M48.89 58.8362C48.89 62.6035 45.8516 65.6426 42.0852 65.6426C38.3188 65.6426 35.2804 62.6035 35.2804 58.8362C35.2804 55.0688 38.3188 52.0297 42.0852 52.0297C45.8516 52.0297 48.89 55.0688 48.89 58.8362Z" fill="white" stroke="#AE8FF7" stroke-width="1.5" stroke-miterlimit="10" stroke-linecap="round" stroke-linejoin="round"/>
<path d="M42.0852 52.0297C38.3504 52.0297 35.312 55.0688 35.312 58.8045C35.312 62.5402 38.3504 65.5793 42.0852 65.5793C45.8199 65.5793 48.8584 62.5402 48.8584 58.8045C48.89 55.0688 45.8516 52.0297 42.0852 52.0297ZM42.0852 64.8195C38.7936 64.8195 36.1033 62.1286 36.1033 58.8362C36.1033 55.5437 38.7936 52.8528 42.0852 52.8528C45.3768 52.8528 48.0671 55.5437 48.0671 58.8362C48.0671 62.1286 45.4085 64.8195 42.0852 64.8195Z" fill="white"/>
<path d="M42.0852 50.7317C37.6225 50.7317 33.9827 54.3407 33.9827 58.8362C33.9827 63.3 37.6225 66.9406 42.0852 66.9406C46.5479 66.9406 50.1877 63.3 50.1877 58.8362C50.1877 54.3407 46.5796 50.7317 42.0852 50.7317ZM42.0852 66.3708C37.939 66.3708 34.5524 62.9834 34.5524 58.8362C34.5524 54.6573 37.939 51.3015 42.0852 51.3015C46.2314 51.3015 49.618 54.6573 49.618 58.8362C49.618 62.9834 46.2631 66.3708 42.0852 66.3708Z" fill="white"/>
<path d="M42.0852 54.309C41.9902 54.309 41.9269 54.2457 41.9269 54.1507V52.8527C41.9269 52.7578 41.9902 52.6945 42.0852 52.6945C42.1801 52.6945 42.2434 52.7578 42.2434 52.8527V54.1507C42.2751 54.214 42.1801 54.309 42.0852 54.309Z" fill="#43486F"/>
<path d="M42.0852 64.9778C41.9902 64.9778 41.9269 64.9145 41.9269 64.8196V63.5216C41.9269 63.4266 41.9902 63.3633 42.0852 63.3633C42.1801 63.3633 42.2434 63.4266 42.2434 63.5216V64.8196C42.2751 64.9145 42.1801 64.9778 42.0852 64.9778Z" fill="#43486F"/>
<path d="M37.4009 58.9944H36.1033C36.0083 58.9944 35.945 58.9311 35.945 58.8361C35.945 58.7412 36.0083 58.6779 36.1033 58.6779H37.4009C37.4959 58.6779 37.5592 58.7412 37.5592 58.8361C37.5592 58.9311 37.4959 58.9944 37.4009 58.9944Z" fill="#43486F"/>
<path d="M48.0987 58.9944H46.8011C46.7061 58.9944 46.6428 58.9311 46.6428 58.8361C46.6428 58.7412 46.7061 58.6779 46.8011 58.6779H48.0987C48.1937 58.6779 48.257 58.7412 48.257 58.8361C48.257 58.9311 48.1937 58.9944 48.0987 58.9944Z" fill="#43486F"/>
<path d="M46.4529 58.7095H41.9902V58.8044H46.4529V58.7095Z" fill="#3B4063"/>
<path d="M42.6232 58.7412C42.6232 58.4246 42.37 58.1713 42.0535 58.1713C41.9902 58.1713 41.9586 58.1713 41.9269 58.203L40.1862 55.4487L39.838 55.6703L41.6104 58.4562C41.5471 58.5512 41.5155 58.6462 41.5155 58.7412C41.5155 59.0261 41.7054 59.2477 41.9586 59.2794V63.2366H42.2118V59.2794C42.4333 59.216 42.6232 58.9944 42.6232 58.7412Z" fill="#3B4063"/>
<path d="M89.2792 48.7409C91.0065 42.3982 87.2662 35.8559 80.925 34.1282C74.5839 32.4005 68.0432 36.1417 66.3159 42.4844C64.5887 48.8271 68.329 55.3694 74.6701 57.0971C81.0112 58.8248 87.552 55.0836 89.2792 48.7409Z" fill="white" stroke="#AE8FF7" stroke-miterlimit="10" stroke-linecap="round" stroke-linejoin="round"/>
<path d="M84 40.2555H71.2833V50.6412H84V40.2555Z" fill="#6A44C5" stroke="#6A44C5" stroke-width="1.5" stroke-miterlimit="10" stroke-linecap="round" stroke-linejoin="round"/>
<path d="M84 40.2555H71.2833V43.3764H84V40.2555Z" fill="white"/>
<path d="M84 44H71V43H84V44Z" fill="#AE8FF7"/>
<path d="M72.5943 39.9179C72.4107 39.9179 72.2534 39.7606 72.2534 39.577C72.2534 39.3934 72.4107 39.236 72.5943 39.236C72.7778 39.236 72.9351 39.3934 72.9351 39.577H73.1449C73.1187 39.2623 72.8827 39 72.5681 39C72.2534 39 71.9912 39.2623 71.9912 39.577C71.9912 39.8917 72.2272 40.1277 72.5418 40.154C72.5943 40.154 72.6467 40.1015 72.6467 40.0491C72.6992 39.9704 72.6467 39.9179 72.5943 39.9179Z" fill="#8CC0E8" stroke="#6A44C5" stroke-width="0.5" stroke-miterlimit="10" stroke-linecap="round" stroke-linejoin="round"/>
<path d="M73.879 39.9179C73.6955 39.9179 73.5381 39.7606 73.5381 39.577C73.5381 39.3934 73.6955 39.236 73.879 39.236C74.0625 39.236 74.2199 39.3934 74.2199 39.577H74.4296C74.4034 39.2623 74.1674 39 73.8528 39C73.5381 39 73.2759 39.2623 73.2759 39.577C73.2759 39.8917 73.5119 40.1277 73.8266 40.154C73.879 40.154 73.9314 40.1015 73.9314 40.0491C73.9839 39.9704 73.9577 39.9179 73.879 39.9179Z" fill="#8CC0E8" stroke="#6A44C5" stroke-width="0.5" stroke-miterlimit="10" stroke-linecap="round" stroke-linejoin="round"/>
<path d="M75.19 39.9179C75.0065 39.9179 74.8492 39.7606 74.8492 39.577C74.8492 39.3934 75.0065 39.236 75.19 39.236C75.3736 39.236 75.5309 39.3934 75.5309 39.577H75.7407C75.7144 39.2623 75.4785 39 75.1638 39C74.8492 39 74.587 39.2623 74.587 39.577C74.587 39.8917 74.823 40.1277 75.1376 40.154C75.19 40.154 75.2425 40.1015 75.2425 40.0491C75.2949 39.9704 75.2425 39.9179 75.19 39.9179Z" fill="#8CC0E8" stroke="#6A44C5" stroke-width="0.5" stroke-miterlimit="10" stroke-linecap="round" stroke-linejoin="round"/>
<path d="M82.6366 39.9179C82.8201 39.9179 82.9774 39.7606 82.9774 39.577C82.9774 39.3934 82.8201 39.236 82.6366 39.236C82.453 39.236 82.2957 39.3934 82.2957 39.577H82.0859C82.1122 39.2623 82.3481 39 82.6628 39C82.9774 39 83.2396 39.2623 83.2396 39.577C83.2396 39.8917 83.0036 40.1277 82.689 40.154C82.6366 40.154 82.5841 40.1015 82.5841 40.0491C82.5317 39.9704 82.5841 39.9179 82.6366 39.9179Z" fill="#8CC0E8" stroke="#6A44C5" stroke-width="0.5" stroke-miterlimit="10" stroke-linecap="round" stroke-linejoin="round"/>
<path d="M81.3518 39.9179C81.5353 39.9179 81.6926 39.7606 81.6926 39.577C81.6926 39.3934 81.5353 39.236 81.3518 39.236C81.1682 39.236 81.0109 39.3934 81.0109 39.577H80.8011C80.8274 39.2623 81.0633 39 81.378 39C81.6926 39 81.9548 39.2623 81.9548 39.577C81.9548 39.8917 81.7188 40.1277 81.4042 40.154C81.3518 40.154 81.2993 40.1015 81.2993 40.0491C81.2207 39.9704 81.2731 39.9179 81.3518 39.9179Z" fill="#8CC0E8" stroke="#6A44C5" stroke-width="0.5" stroke-miterlimit="10" stroke-linecap="round" stroke-linejoin="round"/>
<path d="M80.0408 39.9179C80.2243 39.9179 80.3817 39.7606 80.3817 39.577C80.3817 39.3934 80.2243 39.236 80.0408 39.236C79.8573 39.236 79.6999 39.3934 79.6999 39.577H79.4902C79.5164 39.2623 79.7524 39 80.067 39C80.3817 39 80.6439 39.2623 80.6439 39.577C80.6439 39.8917 80.4079 40.1277 80.0932 40.154C80.0408 40.154 79.9884 40.1015 79.9884 40.0491C79.9359 39.9704 79.9884 39.9179 80.0408 39.9179Z" fill="#8CC0E8" stroke="#6A44C5" stroke-width="0.5" stroke-miterlimit="10" stroke-linecap="round" stroke-linejoin="round"/>
<path d="M73.3547 45H72.0699V46.1277H73.3547V45Z" fill="white" stroke="#AE8FF7" stroke-width="0.5" stroke-miterlimit="10" stroke-linecap="round" stroke-linejoin="round"/>
<path d="M75.295 45H74.0102V46.1277H75.295V45Z" fill="white" stroke="#AE8FF7" stroke-width="0.5" stroke-miterlimit="10" stroke-linecap="round" stroke-linejoin="round"/>
<path d="M77.209 45H75.9242V46.1277H77.209V45Z" fill="white" stroke="#AE8FF7" stroke-width="0.5" stroke-miterlimit="10" stroke-linecap="round" stroke-linejoin="round"/>
<path d="M79.1493 45H77.8645V46.1277H79.1493V45Z" fill="white" stroke="#AE8FF7" stroke-width="0.5" stroke-miterlimit="10" stroke-linecap="round" stroke-linejoin="round"/>
<path d="M81.0633 45H79.7786V46.1277H81.0633V45Z" fill="white" stroke="#AE8FF7" stroke-width="0.5" stroke-miterlimit="10" stroke-linecap="round" stroke-linejoin="round"/>
<path d="M83.0037 45H81.7189V46.1277H83.0037V45Z" fill="white" stroke="#AE8FF7" stroke-width="0.5" stroke-miterlimit="10" stroke-linecap="round" stroke-linejoin="round"/>
<path d="M73.3547 46.9407H72.0699V48.0684H73.3547V46.9407Z" fill="white" stroke="#AE8FF7" stroke-width="0.5" stroke-miterlimit="10" stroke-linecap="round" stroke-linejoin="round"/>
<path d="M75.295 46.9407H74.0102V48.0684H75.295V46.9407Z" fill="white" stroke="#AE8FF7" stroke-width="0.5" stroke-miterlimit="10" stroke-linecap="round" stroke-linejoin="round"/>
<path d="M77.209 46.9407H75.9242V48.0684H77.209V46.9407Z" fill="white" stroke="#AE8FF7" stroke-width="0.5" stroke-miterlimit="10" stroke-linecap="round" stroke-linejoin="round"/>
<path d="M79.1493 46.9407H77.8645V48.0684H79.1493V46.9407Z" fill="white" stroke="#AE8FF7" stroke-width="0.5" stroke-miterlimit="10" stroke-linecap="round" stroke-linejoin="round"/>
<path d="M81.0633 46.9407H79.7786V48.0684H81.0633V46.9407Z" fill="white" stroke="#AE8FF7" stroke-width="0.5" stroke-miterlimit="10" stroke-linecap="round" stroke-linejoin="round"/>
<path d="M83.0037 46.9407H81.7189V48.0684H83.0037V46.9407Z" fill="white" stroke="#AE8FF7" stroke-width="0.5" stroke-miterlimit="10" stroke-linecap="round" stroke-linejoin="round"/>
<path d="M73.3547 48.934H72.0699V50.0617H73.3547V48.934Z" fill="white" stroke="#AE8FF7" stroke-width="0.5" stroke-miterlimit="10" stroke-linecap="round" stroke-linejoin="round"/>
<path d="M75.295 48.934H74.0102V50.0617H75.295V48.934Z" fill="white" stroke="#AE8FF7" stroke-width="0.5" stroke-miterlimit="10" stroke-linecap="round" stroke-linejoin="round"/>
<path d="M77.209 48.934H75.9242V50.0617H77.209V48.934Z" fill="white" stroke="#AE8FF7" stroke-width="0.5" stroke-miterlimit="10" stroke-linecap="round" stroke-linejoin="round"/>
<path d="M79.1493 48.934H77.8645V50.0617H79.1493V48.934Z" fill="white" stroke="#AE8FF7" stroke-width="0.5" stroke-miterlimit="10" stroke-linecap="round" stroke-linejoin="round"/>
<path d="M81.0633 48.934H79.7786V50.0617H81.0633V48.934Z" fill="white" stroke="#AE8FF7" stroke-width="0.5" stroke-miterlimit="10" stroke-linecap="round" stroke-linejoin="round"/>
<path d="M83.0037 48.934H81.7189V50.0617H83.0037V48.934Z" fill="white" stroke="#AE8FF7" stroke-width="0.5" stroke-miterlimit="10" stroke-linecap="round" stroke-linejoin="round"/>
<path d="M125.326 58.5513C125.326 65.1362 120.008 70.4547 113.425 70.4547C106.842 70.4547 101.525 65.1362 101.525 58.5513C101.525 51.9664 106.842 46.6478 113.425 46.6478C120.008 46.6478 125.326 51.9664 125.326 58.5513Z" fill="white" stroke="#AE8FF7" stroke-miterlimit="10" stroke-linecap="round" stroke-linejoin="round"/>
<path d="M114.006 53.7693C114.006 53.7693 114.587 52 115.823 52C115.823 52 115.726 53.8663 116.211 54.4237L114.006 53.7693Z" fill="white" stroke="#6A44C5" stroke-miterlimit="10" stroke-linecap="round" stroke-linejoin="round"/>
<path d="M115.12 52.6302C115.266 52.3878 115.46 52.1454 115.702 52C114.539 52.0969 114.006 53.7693 114.006 53.7693L114.684 53.9632C114.733 53.5027 114.854 53.0664 115.12 52.6302Z" fill="#E0D0D8"/>
<path d="M107.221 58.1805C107.221 58.1805 106.615 57.5988 105.743 58.0593C104.895 58.5198 105.719 59.1984 106.203 58.8106C106.688 58.4228 106.082 57.3564 104.725 57.7442" stroke="#6A44C5" stroke-miterlimit="10" stroke-linecap="round" stroke-linejoin="round"/>
<path d="M116.962 56.9201C116.962 57.1382 116.768 57.3321 116.55 57.3321C116.332 57.3321 116.138 57.1382 116.138 56.9201C116.138 56.702 116.332 56.5081 116.55 56.5081C116.792 56.5081 116.962 56.702 116.962 56.9201Z" fill="#263642"/>
<path d="M119.821 57.2352C119.821 57.2352 118.852 57.4776 118.755 57.2352C117.81 54.86 115.92 53.5511 113.061 53.5511C109.038 53.5511 106.979 55.781 107.027 58.5198C107.076 60.992 108.457 62.2281 109.208 62.8098C109.571 63.1006 109.402 64.6033 109.402 64.6033H111.655C111.655 64.6033 111.655 63.6096 111.777 63.4399C111.922 63.246 113.037 63.2703 113.158 63.4157C113.352 63.6338 113.255 64.6033 113.255 64.6033H115.581C115.581 64.6033 115.484 63.4399 115.775 63.0764C116.065 62.6643 117.956 62.8825 118.731 59.8528C118.804 59.5862 119.846 59.7316 119.846 59.7316V57.2352H119.821Z" fill="#DED0FF" stroke="#AE8FF7" stroke-width="1.5" stroke-miterlimit="10" stroke-linecap="round" stroke-linejoin="round"/>
<path d="M116.986 56.8716C116.986 57.1383 116.768 57.3321 116.526 57.3321C116.259 57.3321 116.065 57.114 116.065 56.8716C116.065 56.605 116.284 56.4111 116.526 56.4111C116.768 56.4111 116.986 56.605 116.986 56.8716Z" fill="#6A44C5"/>
<path d="M110.856 54.5207C111.219 54.3753 112.116 54.1329 113.279 54.3268" stroke="#6A44C5" stroke-miterlimit="10" stroke-linecap="round" stroke-linejoin="round"/>
<path d="M110.08 64.2398C110.08 64.2398 110.25 62.7371 109.887 62.4463C109.111 61.8646 107.73 60.6285 107.706 58.1563C107.682 56.5324 108.384 55.1024 109.814 54.1814C107.924 55.0297 106.979 56.6536 107.027 58.5199C107.076 60.9921 108.457 62.2282 109.208 62.8098C109.572 63.1007 109.402 64.6034 109.402 64.6034H111.655C111.655 64.6034 111.655 64.4337 111.655 64.2156L110.08 64.2398Z" fill="white"/>
<path d="M113.957 64.2399C113.957 64.2399 114.079 62.8826 112.382 63.3188C112.722 63.3188 113.085 63.3673 113.158 63.44C113.352 63.6582 113.255 64.6277 113.255 64.6277H115.581C115.581 64.6277 115.581 64.4822 115.557 64.2641H113.957V64.2399Z" fill="white"/>
<path d="M120.257 58.4471C120.257 59.15 120.064 59.7074 119.821 59.7074C119.579 59.7074 119.385 59.15 119.385 58.4471C119.385 57.7442 119.579 57.1868 119.821 57.1868C120.064 57.1868 120.257 57.7442 120.257 58.4471Z" fill="#FCFCFF" stroke="#6A44C5" stroke-miterlimit="10" stroke-linecap="round" stroke-linejoin="round"/>
<path d="M120.088 59.4408C119.846 59.4408 119.652 58.8834 119.652 58.1805C119.652 57.7927 119.7 57.4534 119.797 57.2352C119.579 57.2837 119.409 57.8412 119.409 58.4956C119.409 59.1984 119.603 59.7559 119.846 59.7559C119.943 59.7559 120.064 59.6347 120.136 59.4408C120.112 59.4408 120.088 59.4408 120.088 59.4408Z" fill="white"/>
<path d="M46.8011 92.552C46.8011 99.1369 41.4838 104.455 34.9005 104.455C28.3173 104.455 23 99.1369 23 92.552C23 85.9671 28.3173 80.6486 34.9005 80.6486C41.4838 80.6486 46.8011 85.9671 46.8011 92.552Z" fill="white" stroke="#AE8FF7" stroke-miterlimit="10" stroke-linecap="round" stroke-linejoin="round"/>
<path d="M42.6548 92.2671C42.6548 96.6359 39.11 100.213 34.7106 100.213C30.3428 100.213 26.7664 96.6676 26.7664 92.2671C26.7664 87.8983 30.3112 84.3209 34.7106 84.3209C39.11 84.3209 42.6548 87.8666 42.6548 92.2671Z" fill="#6A44C5" stroke="#AE8FF7" stroke-miterlimit="10" stroke-linecap="round" stroke-linejoin="round"/>
<path d="M40.7558 92.2671C40.7558 95.5912 38.0656 98.2822 34.7423 98.2822C31.419 98.2822 28.7287 95.5912 28.7287 92.2671C28.7287 88.943 31.419 86.2521 34.7423 86.2521C38.0656 86.2521 40.7558 88.9114 40.7558 92.2671Z" fill="white"/>
<path d="M34.9321 91.634C34.3308 91.6023 33.6028 91.4441 33.6028 90.9375C33.6028 90.3677 34.0143 90.0194 34.7106 90.0194C35.3119 90.0194 35.8183 90.431 35.8183 90.9375H37.6224C37.6224 89.9245 36.7045 89.0697 35.4702 88.8164V88.1516H33.9826V88.8164C32.6849 89.038 31.8304 89.8611 31.8304 90.9692C31.8304 92.0772 33.0014 92.837 34.8055 92.9636C35.6601 93.027 35.85 93.2486 35.85 93.6601C35.85 94.0717 35.3436 94.5782 34.7422 94.5782C34.1409 94.5782 33.6345 94.1666 33.6345 93.6601H31.862C31.862 94.6732 32.7799 95.5279 34.0143 95.7812V96.4144H35.5018V95.7496C36.7045 95.4963 37.654 94.6099 37.654 93.6285C37.6224 92.4571 36.6412 91.729 34.9321 91.634Z" fill="#6A44C5"/>
<path d="M133.65 92.552C133.65 99.1369 128.332 104.455 121.749 104.455C115.166 104.455 109.849 99.1369 109.849 92.552C109.849 85.9671 115.166 80.6486 121.749 80.6486C128.332 80.6486 133.65 85.9671 133.65 92.552Z" fill="white" stroke="#AE8FF7" stroke-miterlimit="10" stroke-linecap="round" stroke-linejoin="round"/>
<path d="M127.974 86.4775H115.846V98.8165H127.974V86.4775Z" fill="white" stroke="#6A44C5" stroke-width="0.5" stroke-miterlimit="10" stroke-linecap="round" stroke-linejoin="round"/>
<path d="M118.267 90.4603H116.471V90.981H118.267V90.4603Z" fill="white" stroke="#AE8FF7" stroke-width="0.3" stroke-miterlimit="10" stroke-linecap="round" stroke-linejoin="round"/>
<path d="M120.531 90.4603H118.735V90.981H120.531V90.4603Z" fill="white" stroke="#AE8FF7" stroke-width="0.3" stroke-miterlimit="10" stroke-linecap="round" stroke-linejoin="round"/>
<path d="M122.769 90.4603H120.973V90.981H122.769V90.4603Z" fill="white" stroke="#6A44C5" stroke-width="0.3" stroke-miterlimit="10" stroke-linecap="round" stroke-linejoin="round"/>
<path d="M125.033 90.4603H123.238V90.981H125.033V90.4603Z" fill="white" stroke="#6A44C5" stroke-width="0.3" stroke-miterlimit="10" stroke-linecap="round" stroke-linejoin="round"/>
<path d="M127.297 90.4603H125.502V90.981H127.297V90.4603Z" fill="white" stroke="#6A44C5" stroke-width="0.3" stroke-miterlimit="10" stroke-linecap="round" stroke-linejoin="round"/>
<path d="M117.694 91.84H116.497V93.0374H117.694V91.84Z" fill="white" stroke="#6A44C5" stroke-width="0.3" stroke-miterlimit="10" stroke-linecap="round" stroke-linejoin="round"/>
<path d="M119.62 91.84H118.423V93.0374H119.62V91.84Z" fill="white" stroke="#6A44C5" stroke-width="0.3" stroke-miterlimit="10" stroke-linecap="round" stroke-linejoin="round"/>
<path d="M121.546 91.84H120.349V93.0374H121.546V91.84Z" fill="white" stroke="#6A44C5" stroke-width="0.3" stroke-miterlimit="10" stroke-linecap="round" stroke-linejoin="round"/>
<path d="M123.472 91.84H122.275V93.0374H123.472V91.84Z" fill="white" stroke="#AE8FF7" stroke-width="0.3" stroke-miterlimit="10" stroke-linecap="round" stroke-linejoin="round"/>
<path d="M125.398 91.84H124.2V93.0374H125.398V91.84Z" fill="white" stroke="#AE8FF7" stroke-width="0.3" stroke-miterlimit="10" stroke-linecap="round" stroke-linejoin="round"/>
<path d="M127.297 91.84H126.1V93.0374H127.297V91.84Z" fill="white" stroke="#AE8FF7" stroke-width="0.3" stroke-miterlimit="10" stroke-linecap="round" stroke-linejoin="round"/>
<path d="M117.694 93.48H116.497V94.6774H117.694V93.48Z" fill="white" stroke="#6A44C5" stroke-width="0.3" stroke-miterlimit="10" stroke-linecap="round" stroke-linejoin="round"/>
<path d="M119.62 93.48H118.423V94.6774H119.62V93.48Z" fill="white" stroke="#6A44C5" stroke-width="0.3" stroke-miterlimit="10" stroke-linecap="round" stroke-linejoin="round"/>
<path d="M121.546 93.48H120.349V94.6774H121.546V93.48Z" fill="white" stroke="#6A44C5" stroke-width="0.3" stroke-miterlimit="10" stroke-linecap="round" stroke-linejoin="round"/>
<path d="M123.472 93.48H122.275V94.6774H123.472V93.48Z" fill="white" stroke="#AE8FF7" stroke-width="0.3" stroke-miterlimit="10" stroke-linecap="round" stroke-linejoin="round"/>
<path d="M125.398 93.48H124.2V94.6774H125.398V93.48Z" fill="white" stroke="#AE8FF7" stroke-width="0.3" stroke-miterlimit="10" stroke-linecap="round" stroke-linejoin="round"/>
<path d="M127.297 93.48H126.1V94.6774H127.297V93.48Z" fill="white" stroke="#AE8FF7" stroke-width="0.3" stroke-miterlimit="10" stroke-linecap="round" stroke-linejoin="round"/>
<path d="M117.694 95.12H116.497V96.3174H117.694V95.12Z" fill="white" stroke="#6A44C5" stroke-width="0.3" stroke-miterlimit="10" stroke-linecap="round" stroke-linejoin="round"/>
<path d="M119.62 95.12H118.423V96.3174H119.62V95.12Z" fill="white" stroke="#6A44C5" stroke-width="0.3" stroke-miterlimit="10" stroke-linecap="round" stroke-linejoin="round"/>
<path d="M121.546 95.12H120.349V96.3174H121.546V95.12Z" fill="white" stroke="#6A44C5" stroke-width="0.3" stroke-miterlimit="10" stroke-linecap="round" stroke-linejoin="round"/>
<path d="M123.472 95.12H122.275V96.3174H123.472V95.12Z" fill="white" stroke="#AE8FF7" stroke-width="0.3" stroke-miterlimit="10" stroke-linecap="round" stroke-linejoin="round"/>
<path d="M125.398 95.12H124.2V96.3174H125.398V95.12Z" fill="white" stroke="#AE8FF7" stroke-width="0.3" stroke-miterlimit="10" stroke-linecap="round" stroke-linejoin="round"/>
<path d="M127.297 95.12H126.1V96.3174H127.297V95.12Z" fill="white" stroke="#AE8FF7" stroke-width="0.3" stroke-miterlimit="10" stroke-linecap="round" stroke-linejoin="round"/>
<path d="M117.694 96.76H116.497V97.9575H117.694V96.76Z" fill="white" stroke="#AE8FF7" stroke-width="0.3" stroke-miterlimit="10" stroke-linecap="round" stroke-linejoin="round"/>
<path d="M119.62 96.76H118.423V97.9575H119.62V96.76Z" fill="white" stroke="#AE8FF7" stroke-width="0.3" stroke-miterlimit="10" stroke-linecap="round" stroke-linejoin="round"/>
<path d="M121.546 96.76H120.349V97.9575H121.546V96.76Z" fill="white" stroke="#AE8FF7" stroke-width="0.3" stroke-miterlimit="10" stroke-linecap="round" stroke-linejoin="round"/>
<path d="M123.472 96.76H122.275V97.9575H123.472V96.76Z" fill="white" stroke="#AE8FF7" stroke-width="0.3" stroke-miterlimit="10" stroke-linecap="round" stroke-linejoin="round"/>
<path d="M125.398 96.76H124.2V97.9575H125.398V96.76Z" fill="white" stroke="#AE8FF7" stroke-width="0.3" stroke-miterlimit="10" stroke-linecap="round" stroke-linejoin="round"/>
<path d="M127.297 96.76H126.1V97.9575H127.297V96.76Z" fill="white" stroke="#AE8FF7" stroke-width="0.3" stroke-miterlimit="10" stroke-linecap="round" stroke-linejoin="round"/>
<path d="M127.974 86.4775H115.846V89.7575H127.974V86.4775Z" stroke="#6A44C5" stroke-width="0.5" stroke-miterlimit="10" stroke-linecap="round" stroke-linejoin="round"/>
<path d="M127.349 86.9462H116.497V89.289H127.349V86.9462Z" fill="#FCFEFF"/>
</g>
</svg>
