<svg width="155" height="156" viewBox="0 0 155 156" fill="none" xmlns="http://www.w3.org/2000/svg">
<mask id="mask0_73_5217" style="mask-type:alpha" maskUnits="userSpaceOnUse" x="0" y="0" width="155" height="156">
<circle cx="77.5004" cy="77.9999" r="76.9194" fill="#AE8FF7" stroke="#AE8FF7"/>
</mask>
<g mask="url(#mask0_73_5217)">
<circle cx="77.5004" cy="77.9999" r="77.4194" fill="#DCCEFF"/>
<path d="M110.211 35.5286H49.5437V81.6131H110.211V35.5286Z" stroke="white" stroke-miterlimit="10"/>
<path d="M111.546 81.613H48.114V83.9006H111.546V81.613Z" stroke="white" stroke-miterlimit="10"/>
<path d="M103.206 42.439H70.8464V43.4874H103.206V42.439Z" stroke="white" stroke-miterlimit="10"/>
<path d="M103.206 47.6344H56.5018V48.6829H103.206V47.6344Z" stroke="white" stroke-miterlimit="10"/>
<path d="M103.206 52.8278H56.5018V53.8762H103.206V52.8278Z" stroke="white" stroke-miterlimit="10"/>
<path d="M103.206 58.0233H56.5018V59.0718H103.206V58.0233Z" stroke="white" stroke-miterlimit="10"/>
<path d="M103.206 63.2166H56.5018V64.265H103.206V63.2166Z" stroke="white" stroke-miterlimit="10"/>
<path d="M103.206 68.4121H56.5018V69.4606H103.206V68.4121Z" stroke="white" stroke-miterlimit="10"/>
<path d="M103.206 73.6064H56.5018V74.6549H103.206V73.6064Z" stroke="white" stroke-miterlimit="10"/>
<path d="M44.778 140.993H58.408V140.373C58.408 138.134 56.597 136.323 54.3571 136.323H48.8766C46.6367 136.323 44.8257 138.134 44.8257 140.373V140.993H44.778Z" fill="#245472"/>
<path d="M50.5231 136.68H52.7154V116.139H50.5231V136.68Z" fill="#3A739B"/>
<path d="M50.8783 116.163H52.3556C54.0713 116.163 55.4533 114.781 55.4533 113.065V112.589H47.7329V113.065C47.7329 114.733 49.1626 116.163 50.8783 116.163Z" fill="#245472"/>
<path d="M45.4452 79.8486L53.0227 109.158C53.4516 110.778 54.9766 113.066 56.597 113.066H53.6899L37.82 111.874C36.152 111.874 34.7223 110.778 34.2934 109.158L26.7159 79.8486H45.4452Z" fill="#6A44C5"/>
<path d="M55.9299 113.066H71.1326C71.7998 113.066 72.324 112.542 72.324 111.874C72.324 111.207 71.7998 110.683 71.1326 110.683H55.9299C54.8815 110.683 53.976 109.968 53.7377 108.967L46.4462 80.7066C46.3032 80.0871 45.636 79.6582 44.9688 79.8488C44.3492 79.9918 43.9203 80.659 44.111 81.3262L51.4025 109.587C51.9267 111.636 53.833 113.066 55.9299 113.066Z" fill="#AE8FF7"/>
<path d="M37.9629 113.066H53.2133C53.8805 113.066 54.4047 112.542 54.4047 111.874C54.4047 111.207 53.8805 110.683 53.2133 110.683H37.9629C36.9145 110.683 36.009 109.968 35.7707 108.967L28.4315 80.7066C28.2885 80.0871 27.6213 79.6582 26.9541 79.8488C26.3346 79.9918 25.9057 80.659 26.0963 81.3262L33.3878 109.587C33.9597 111.636 35.866 113.066 37.9629 113.066Z" fill="#AE8FF7"/>
<path d="M83.4278 112.826C82.6176 115.495 79.6152 126.17 78.0425 131.746C77.4706 133.795 77.0894 135.129 77.0894 135.129C74.4682 135.987 71.5135 135.129 71.5135 135.129L72.0377 131.365L74.4682 114.446L75.1354 109.681C75.1354 109.681 57.7882 108.966 53.5943 104.724C49.5435 100.626 49.5435 97.0513 49.5911 96.8607L59.0749 95.8123L59.9327 97.2896C59.9327 97.2896 76.1362 99.9584 80.616 101.865C85.0481 103.866 84.7145 108.632 83.4278 112.826Z" fill="#FFB08A"/>
<path d="M76.0885 111.3C75.8026 111.92 75.2307 113.063 74.5159 114.493C72.4666 118.544 69.1306 125.025 66.7001 129.648C65.0321 132.841 63.8406 135.129 63.8406 135.129C61.3625 136.082 58.2171 135.129 58.2171 135.129L60.6953 128.123L67.0337 110.299C67.0337 110.299 53.3084 111.586 46.4457 110.68C39.5831 109.775 38.4393 102.388 40.1073 96.4309L49.6388 96.9075L54.8334 97.1934C54.8334 97.1934 66.986 99.481 71.99 100.482C77.8995 101.626 78.2808 106.63 76.0885 111.3Z" fill="#FFBE9E"/>
<path d="M83.8566 112.921C83.1894 115.59 80.6159 126.694 79.0433 132.222C77.0416 132.556 72.6095 132.032 70.6556 131.508L74.4682 114.542C72.4189 118.592 69.8931 126.837 67.5102 131.412C65.4609 131.174 60.2186 130.316 58.3124 129.506L65.5563 111.301C65.5563 111.301 53.7373 112.492 46.2551 110.824C38.8206 109.156 38.3916 102.389 40.0596 96.4319L49.5911 96.9084L59.0749 95.86L59.9327 97.3374C59.9327 97.3374 76.1362 99.8632 80.6636 101.674C85.5723 103.723 85.0481 108.203 83.8566 112.921Z" fill="#162A45"/>
<path d="M59.9805 98.0526C62.1251 98.4815 64.222 98.9104 66.3666 99.387C67.415 99.6253 68.5112 99.8159 69.5596 100.054C70.4651 100.245 71.3706 100.435 72.2761 100.674C73.1339 100.912 73.9441 101.246 74.6589 101.722C75.3738 102.199 75.9457 102.818 76.3746 103.581C77.1848 105.058 77.3754 106.869 77.0895 108.537C76.8988 109.49 76.5652 110.348 76.184 111.206C75.8027 112.064 75.3261 112.922 74.8972 113.779C74.8019 113.97 74.7066 114.161 74.5636 114.351C74.516 114.399 74.6113 114.447 74.6589 114.399C75.5644 112.731 76.5652 111.015 77.0418 109.157C77.4707 107.536 77.4231 105.678 76.7559 104.105C76.4223 103.343 75.9457 102.628 75.3261 102.103C74.6589 101.532 73.8964 101.15 73.0863 100.864C72.2284 100.578 71.3706 100.388 70.5128 100.197C69.4643 99.9589 68.3682 99.7682 67.2721 99.53C65.1275 99.101 62.9829 98.6245 60.7907 98.1955C60.5048 98.1479 60.2665 98.1002 59.9805 98.0049C59.9329 97.9573 59.9329 98.0526 59.9805 98.0526Z" fill="#4D698F"/>
<path d="M65.9376 111.254C66.7478 111.254 67.5103 111.159 68.2728 110.921C68.5111 110.873 68.7017 110.778 68.8923 110.682C68.94 110.682 68.94 110.587 68.8923 110.587C68.1775 110.873 67.3673 111.064 66.6048 111.111C66.3665 111.111 66.1759 111.159 65.9376 111.159C65.8899 111.159 65.8899 111.254 65.9376 111.254Z" fill="#4D698F"/>
<path d="M67.2719 111.159C67.9391 111.302 68.6063 111.302 69.2259 111.207C69.2735 111.207 69.2735 111.111 69.2259 111.111C68.6063 111.207 67.9391 111.207 67.3196 111.064C67.2243 111.064 67.1766 111.111 67.2719 111.159Z" fill="#4D698F"/>
<path d="M57.3114 140.276V140.419C57.3114 140.515 57.3114 140.61 57.359 140.658C57.359 140.753 57.4067 140.848 57.4067 140.944C57.4067 140.991 57.4067 140.991 57.4544 141.039C57.4544 141.134 57.502 141.182 57.502 141.277V141.372L75.7547 141.277C75.7547 141.277 75.7547 141.23 75.7547 141.182C75.7547 141.087 75.7547 140.944 75.7547 140.753C75.7547 140.61 75.7547 140.419 75.7071 140.229C75.7071 140.181 75.7071 140.133 75.6594 140.133C75.4688 139.085 74.7063 137.703 72.2281 137.226C72.0851 137.179 71.9898 137.179 71.8468 137.179C71.6562 137.131 71.4656 137.131 71.2273 137.131C71.1796 137.131 71.0843 137.131 71.0367 137.131C70.5124 137.083 70.0359 137.036 69.5593 136.988C69.321 136.94 69.0827 136.94 68.8444 136.893C68.5585 136.845 68.3202 136.797 68.0819 136.75C67.8436 136.702 67.6054 136.654 67.3671 136.607C67.1764 136.559 66.9858 136.511 66.7952 136.464C66.5569 136.368 66.3186 136.321 66.0803 136.226C65.7944 136.13 65.5561 136.035 65.3178 135.94C65.0795 135.844 64.8412 135.749 64.6506 135.654C64.0311 135.368 63.7928 135.129 63.7928 135.129C63.5545 135.177 60.7904 135.701 58.2169 135.129C58.2169 135.129 58.0263 135.463 57.788 136.083C57.788 136.13 57.7403 136.13 57.7403 136.178C57.6927 136.321 57.645 136.416 57.5973 136.559C57.5497 136.702 57.502 136.893 57.4544 137.036C57.4544 137.083 57.4544 137.083 57.4067 137.131C57.4067 137.179 57.359 137.274 57.359 137.369C57.359 137.369 57.359 137.417 57.359 137.465V137.512C57.3114 137.894 57.2161 138.322 57.2161 138.751C57.2637 139.228 57.2637 139.752 57.3114 140.276Z" fill="#3A739B"/>
<path d="M65.6515 135.271C65.6039 135.224 65.5086 135.176 65.4133 135.176C65.3179 135.176 65.2703 135.224 65.175 135.271C65.1273 135.319 65.0797 135.367 65.032 135.367C64.7937 135.557 64.5554 135.748 64.3171 135.891C64.2695 135.939 64.1742 135.986 64.1742 136.082C64.1742 136.177 64.1742 136.272 64.2218 136.32C64.3171 136.463 64.5078 136.558 64.6507 136.415C64.9843 136.177 65.3179 135.939 65.6515 135.653C65.6992 135.605 65.7469 135.51 65.7469 135.414C65.7469 135.414 65.6992 135.319 65.6515 135.271Z" fill="white"/>
<path d="M66.9383 135.844C66.7953 135.748 66.6047 135.701 66.4617 135.844C66.2234 136.13 65.9375 136.368 65.6515 136.606C65.6039 136.654 65.5562 136.654 65.5086 136.701C65.4609 136.749 65.3656 136.797 65.3656 136.892C65.3656 136.987 65.3656 137.083 65.4132 137.13C65.5086 137.273 65.6992 137.369 65.8422 137.226C66.2234 136.94 66.6047 136.606 66.8906 136.273C66.9383 136.225 66.9859 136.13 66.9859 136.034C67.0336 135.987 66.9859 135.891 66.9383 135.844Z" fill="white"/>
<path d="M68.1295 136.273C68.0818 136.226 67.9865 136.178 67.8912 136.178C67.7959 136.178 67.7006 136.226 67.6529 136.273L66.938 137.226C66.8904 137.322 66.8427 137.369 66.8427 137.465C66.8427 137.56 66.8904 137.655 66.938 137.703C66.9857 137.751 67.081 137.798 67.1763 137.798C67.2716 137.798 67.367 137.751 67.4146 137.703L68.1295 136.75C68.1771 136.654 68.2248 136.607 68.2248 136.511C68.2248 136.416 68.1771 136.321 68.1295 136.273Z" fill="white"/>
<path d="M69.4641 136.559C69.3211 136.463 69.1305 136.511 69.0351 136.702C68.8922 136.988 68.7015 137.274 68.5586 137.512C68.4633 137.655 68.5109 137.893 68.6539 137.988C68.7969 138.084 68.9875 138.036 69.0828 137.845C69.2258 137.559 69.4164 137.274 69.5594 137.035C69.6547 136.892 69.607 136.654 69.4641 136.559Z" fill="white"/>
<path d="M57.3116 140.371C57.3116 140.562 57.3592 140.705 57.4069 140.896C57.4546 141.039 57.4546 141.229 57.5022 141.372L75.7549 141.277C75.7549 141.277 75.8026 141.086 75.8026 140.8C75.8026 140.657 75.8026 140.467 75.7549 140.276L57.3116 140.371Z" fill="#3A739B"/>
<path d="M70.6079 140.276V140.419C70.6079 140.515 70.6079 140.61 70.6556 140.658C70.6556 140.753 70.7033 140.848 70.7033 140.944C70.7033 140.991 70.7033 140.991 70.7509 141.039C70.7509 141.134 70.7986 141.182 70.7986 141.277V141.372L89.0513 141.277C89.0513 141.277 89.0513 141.23 89.0513 141.182C89.0513 141.087 89.0513 140.944 89.0513 140.753C89.0513 140.61 89.0513 140.419 89.0036 140.229C89.0036 140.181 89.0036 140.133 88.956 140.133C88.7654 139.085 88.0028 137.703 85.5247 137.226C85.3817 137.179 85.2864 137.179 85.1434 137.179C84.9528 137.131 84.7621 137.131 84.5239 137.131C84.4762 137.131 84.3809 137.131 84.3332 137.131C83.809 137.083 83.3324 137.036 82.8559 136.988C82.6176 136.94 82.3793 136.94 82.141 136.893C81.8551 136.845 81.6168 136.797 81.3785 136.75C81.1402 136.702 80.9019 136.654 80.6636 136.607C80.473 136.559 80.2824 136.511 80.0917 136.464C79.8534 136.368 79.6152 136.321 79.3769 136.226C79.0909 136.13 78.8526 136.035 78.6144 135.94C78.3761 135.844 78.1378 135.749 77.9472 135.654C77.3276 135.368 77.0893 135.129 77.0893 135.129C76.851 135.177 74.0869 135.701 71.5134 135.129C71.5134 135.129 71.3228 135.463 71.0845 136.083C71.0845 136.13 71.0369 136.13 71.0369 136.178C70.9892 136.321 70.9415 136.416 70.8939 136.559C70.8462 136.702 70.7986 136.893 70.7509 137.036C70.7509 137.083 70.7509 137.083 70.7033 137.131C70.7033 137.179 70.6556 137.274 70.6556 137.369C70.6556 137.369 70.6556 137.417 70.6556 137.465V137.512C70.6079 137.894 70.5126 138.322 70.5126 138.751C70.5603 139.228 70.5603 139.752 70.6079 140.276Z" fill="#3A739B"/>
<path d="M78.9481 135.271C78.9004 135.224 78.8051 135.176 78.7098 135.176C78.6145 135.176 78.5668 135.224 78.4715 135.271C78.4239 135.319 78.3762 135.367 78.3285 135.367C78.0903 135.557 77.852 135.748 77.6137 135.891C77.566 135.939 77.4707 135.986 77.4707 136.082C77.4707 136.177 77.4707 136.272 77.5184 136.32C77.6137 136.463 77.8043 136.558 77.9473 136.415C78.2809 136.177 78.6145 135.939 78.9481 135.653C78.9958 135.605 79.0434 135.51 79.0434 135.414C79.0434 135.414 78.9958 135.319 78.9481 135.271Z" fill="white"/>
<path d="M80.2348 135.844C80.0919 135.748 79.9012 135.701 79.7583 135.844C79.52 136.13 79.234 136.368 78.9481 136.606C78.9004 136.654 78.8528 136.654 78.8051 136.701C78.7575 136.749 78.6621 136.797 78.6621 136.892C78.6621 136.987 78.6621 137.083 78.7098 137.13C78.8051 137.273 78.9957 137.369 79.1387 137.226C79.52 136.94 79.9012 136.606 80.1872 136.273C80.2348 136.225 80.2825 136.13 80.2825 136.034C80.3301 135.987 80.2825 135.891 80.2348 135.844Z" fill="white"/>
<path d="M81.426 136.273C81.3784 136.226 81.2831 136.178 81.1877 136.178C81.0924 136.178 80.9971 136.226 80.9495 136.273L80.2346 137.226C80.1869 137.322 80.1393 137.369 80.1393 137.465C80.1393 137.56 80.1869 137.655 80.2346 137.703C80.2823 137.751 80.3776 137.798 80.4729 137.798C80.5682 137.798 80.6635 137.751 80.7112 137.703L81.426 136.75C81.4737 136.654 81.5213 136.607 81.5213 136.511C81.5213 136.416 81.4737 136.321 81.426 136.273Z" fill="white"/>
<path d="M82.7606 136.559C82.6176 136.463 82.427 136.511 82.3317 136.702C82.1887 136.988 81.9981 137.274 81.8551 137.512C81.7598 137.655 81.8075 137.893 81.9504 137.988C82.0934 138.084 82.284 138.036 82.3794 137.845C82.5223 137.559 82.713 137.274 82.8559 137.035C82.9512 136.892 82.9036 136.654 82.7606 136.559Z" fill="white"/>
<path d="M70.6081 140.371C70.6081 140.562 70.6558 140.705 70.7035 140.896C70.7511 141.039 70.7511 141.229 70.7988 141.372L89.0515 141.277C89.0515 141.277 89.0991 141.086 89.0991 140.8C89.0991 140.657 89.0991 140.467 89.0515 140.276L70.6081 140.371Z" fill="#3A739B"/>
<path d="M54.3567 49.3469C52.9747 48.9656 51.4497 49.0609 50.0676 49.4898C48.4473 49.9664 46.9699 50.9196 45.8738 52.254C44.6347 52.7305 43.5862 53.8743 43.205 55.1134C42.8237 56.4001 42.8237 57.7345 42.8237 59.0689C42.8237 60.4034 42.776 61.7854 42.2995 63.0245C41.9182 64.0253 41.2987 64.8831 40.7744 65.8363C40.2502 66.7894 39.8213 67.8379 39.9643 68.8863C40.1549 70.2207 41.1557 71.3169 42.2518 72.0794C46.3027 75.0341 52.0692 75.3201 56.406 72.8419C57.8357 72.0317 59.0748 70.8879 59.7897 69.4106C60.5998 67.7902 59.8373 65.455 59.2654 63.8823C58.6936 62.1667 57.9787 60.4987 57.8357 58.6877C57.7404 56.7337 58.3123 54.7321 57.7881 52.8259C57.3592 51.3008 56.1677 50.0141 54.6903 49.4422C54.6427 49.4422 54.4997 49.3945 54.3567 49.3469Z" fill="#181818"/>
<path d="M55.3572 70.9828C58.9315 72.2695 59.3604 75.1766 58.1213 80.7049C57.4541 83.6596 56.4533 88.2347 56.4533 88.2347L70.6075 83.6596L71.8466 86.948C71.8466 86.948 63.0777 91.7613 57.4064 93.2864C51.7352 94.8114 49.7813 91.4277 50.4485 87.9964C51.211 84.4698 55.3572 70.9828 55.3572 70.9828Z" fill="#FFBE9E"/>
<path d="M55.3571 70.9828C58.979 72.3648 59.4556 74.8907 59.0743 77.9884C58.6931 81.0385 58.2641 84.3268 58.2641 84.3268C56.8344 84.5651 52.8312 82.8971 52.8312 82.8971L55.3571 70.9828Z" fill="#9673EA"/>
<path d="M70.3217 84.0401C70.8459 83.7065 71.3225 80.1323 72.1327 80.1799C72.8475 80.2276 72.9905 81.7526 72.5616 82.4198C73.4671 81.9432 76.3742 79.1314 76.8984 79.8463C77.2796 80.3705 74.8015 82.2292 74.8015 82.2292C74.8015 82.2292 77.8515 80.3705 78.2328 81.1331C78.614 81.8479 75.2304 83.3729 75.2304 83.3729C75.2304 83.3729 78.1375 82.2768 78.3281 82.8964C78.5187 83.5159 75.3734 84.4214 75.3734 84.4214C75.3734 84.4214 77.9468 84.0878 77.9945 84.4214C78.0898 84.8027 76.5648 85.3745 75.278 85.4699C73.7053 86.9949 71.7037 86.8996 71.7037 86.8996L70.3217 84.0401Z" fill="#FFBE9E"/>
<path d="M59.5987 95.9079C59.5987 95.9079 57.9783 101.674 39.6303 97.5282C39.6303 97.5282 40.9647 91.2375 42.871 89.7124V88.7593L42.9186 86.5194L43.2046 70.7925L47.1601 69.6011L51.8305 69.6964L55.3572 71.0308L56.215 76.4161C60.2659 79.2278 59.1221 85.1373 56.4533 85.9952C56.4533 85.9952 56.4533 86.0428 56.501 86.1858C56.5963 86.5194 56.8822 87.2819 57.1682 88.2351C58.1213 90.9992 59.551 95.3836 59.5987 95.9079Z" fill="#AE8FF7"/>
<path d="M57.2159 88.2354C52.5932 89.6651 47.6368 89.8558 42.8711 88.7596L42.9188 86.5198C47.3985 87.6635 52.1166 87.5682 56.5487 86.1862C56.644 86.4721 56.93 87.2823 57.2159 88.2354Z" fill="#9A70FF"/>
<path d="M56.1674 76.4152C56.644 76.7965 57.0729 77.1778 57.4542 77.6543C57.8354 78.1309 58.1214 78.6551 58.4073 79.1794C58.5503 79.513 58.6456 79.7989 58.7409 80.1325C58.7409 80.1802 58.8362 80.1802 58.8362 80.1325C58.6456 79.5606 58.4073 78.9887 58.1214 78.4645C57.7878 77.9403 57.4542 77.4637 57.0253 77.0348C56.787 76.7965 56.501 76.5582 56.2628 76.3676C56.1674 76.3199 56.1198 76.4152 56.1674 76.4152Z" fill="#245472"/>
<path d="M55.5481 71.6979C55.691 72.9369 55.8817 74.1284 56.0246 75.3675C56.0723 75.7011 56.1199 76.0347 56.1676 76.4159C56.1676 76.4636 56.2629 76.4636 56.2629 76.4159C56.1199 75.1768 55.9293 73.9854 55.7863 72.7463C55.7387 72.4127 55.691 72.0791 55.6434 71.6979C55.5957 71.6502 55.5004 71.6502 55.5481 71.6979Z" fill="#245472"/>
<path d="M46.2546 83.0877C46.4452 83.7072 46.8265 84.2791 47.3031 84.7557C47.7796 85.2322 48.4468 85.5658 49.114 85.7565C49.4953 85.8518 49.9242 85.8994 50.3055 85.8518C50.3531 85.8518 50.3531 85.7565 50.3055 85.7565C49.5906 85.8041 48.9234 85.6612 48.2562 85.3752C47.6843 85.0893 47.1601 84.6127 46.8265 84.0885C46.6359 83.8025 46.4452 83.4689 46.3499 83.1353C46.3023 82.9924 46.2069 82.9924 46.2546 83.0877Z" fill="#245472"/>
<path d="M57.1205 61.1185C57.1205 61.1662 57.1205 61.1662 57.1205 61.2138C57.1205 61.2615 57.1205 61.2615 57.1205 61.3091C56.8822 63.1201 56.215 64.2639 55.3095 65.1217C54.8329 65.5983 54.3563 65.8842 53.9751 66.2178C53.8321 66.3132 53.7368 66.4085 53.5938 66.5038C53.4985 66.5514 53.4032 66.6468 53.3079 66.7421C52.4024 67.4569 51.8782 68.3148 51.9735 70.65C51.2586 72.6992 48.1609 73.0805 47.0648 70.8406C47.0171 67.9812 46.3499 65.503 45.8257 63.9303C45.6827 63.5014 45.5398 63.1678 45.4444 62.8818C45.2538 62.3576 45.0632 62.024 45.0632 62.024C45.0632 62.024 44.9679 55.6856 45.8257 54.0176C47.875 49.9191 55.6907 51.0152 56.4056 54.2082C57.1205 57.2106 57.3111 59.4505 57.1205 61.1185Z" fill="#FFBE9E"/>
<path d="M57.1205 55.9715C56.4057 55.4949 55.8815 54.7324 55.6432 53.8746C55.4049 54.6371 54.8807 55.2566 54.2134 55.6379C53.4986 56.0191 52.7361 56.1621 51.9259 56.2098C51.1157 56.2574 50.3532 56.1621 49.543 56.0668C48.7329 58.3067 46.636 60.1177 44.3007 60.5942C44.1101 58.5926 44.0148 56.4004 44.9203 54.5894C45.8258 52.7784 47.6844 51.5394 49.686 51.1104C51.6876 50.6815 53.7369 50.9675 55.6908 51.5394C56.1197 51.6823 56.5963 51.8253 56.8823 52.2066C57.2635 52.6831 57.2159 53.398 57.1205 54.0175C57.0252 54.5894 57.2159 55.3519 57.1205 55.9715Z" fill="#181818"/>
<path d="M53.5461 60.5467C53.6414 60.4991 53.7844 60.4514 53.9274 60.4514C54.0227 60.4514 54.1657 60.4514 54.261 60.5467C54.3563 60.642 54.4039 60.7374 54.4039 60.8327C54.4039 60.928 54.3563 61.071 54.3086 61.1663C54.261 61.2139 54.2133 61.2616 54.1657 61.2616C54.118 61.2616 54.0703 61.1663 54.0703 61.1186C54.118 61.0233 54.118 60.9756 54.118 60.8803C54.118 60.8327 54.118 60.785 54.0703 60.7374C54.0703 60.6897 54.0227 60.6897 53.975 60.6897C53.975 60.6897 53.975 60.6897 53.9274 60.6897H53.8797C53.8797 60.6897 53.8797 60.6897 53.8321 60.6897C53.7367 60.6897 53.6891 60.7374 53.6414 60.7374C53.5938 60.7374 53.5461 60.7374 53.4985 60.6897C53.4985 60.642 53.4985 60.5944 53.5461 60.5467Z" fill="#C16B5B"/>
<path d="M56.2148 57.7826C55.6429 57.3537 54.928 57.2107 54.2608 57.449C54.1178 57.4967 53.9749 57.6873 54.0225 57.8779C54.1178 58.1162 54.3085 58.1162 54.4991 58.0686C54.928 57.9732 55.3569 58.0209 55.6905 58.2592C55.6905 58.2592 55.6905 58.2592 55.7382 58.3068C55.8812 58.4022 56.0718 58.4498 56.2148 58.3068C56.3101 58.1162 56.3577 57.8779 56.2148 57.7826Z" fill="#162A45"/>
<path d="M52.1641 57.5441C51.4969 57.3534 50.7343 57.4487 50.2101 57.8777C50.0671 57.973 50.0195 58.2113 50.1625 58.3542C50.2578 58.4972 50.4961 58.5449 50.639 58.4019C50.782 58.2589 50.9726 58.1636 51.2109 58.1159C51.2109 58.1159 51.2109 58.1159 51.1633 58.1159C51.4015 58.0683 51.6875 58.0683 51.9258 58.1159C52.1164 58.1636 52.307 58.1159 52.3547 57.9253C52.4023 57.7823 52.3547 57.5917 52.1641 57.5441Z" fill="#162A45"/>
<path d="M50.8775 59.8315C50.8775 60.1174 51.0681 60.3557 51.4017 60.4034C51.6877 60.4034 51.926 60.2127 51.9736 59.8791C51.9736 59.5932 51.783 59.3549 51.4494 59.3073C51.1158 59.3073 50.8775 59.5455 50.8775 59.8315Z" fill="#181818"/>
<path d="M51.4495 59.689C51.4495 59.7843 51.4971 59.832 51.5925 59.832C51.6878 59.832 51.7354 59.7843 51.7354 59.689C51.7354 59.5937 51.6878 59.546 51.5925 59.546C51.5448 59.546 51.4495 59.5937 51.4495 59.689Z" fill="white"/>
<path d="M54.7853 59.784C54.7853 60.0699 54.9759 60.3082 55.3095 60.3559C55.5955 60.3559 55.8338 60.1653 55.8814 59.8317C55.9291 59.4981 55.6908 59.3074 55.3572 59.2598C55.0236 59.2598 54.7853 59.4981 54.7853 59.784Z" fill="#181818"/>
<path d="M55.3573 59.6404C55.3573 59.7357 55.4049 59.7834 55.5003 59.7834C55.5956 59.7834 55.6432 59.7357 55.6432 59.6404C55.6432 59.5451 55.5956 59.4974 55.5003 59.4974C55.4526 59.4974 55.3573 59.5451 55.3573 59.6404Z" fill="white"/>
<path d="M52.3071 62.024C52.4501 61.8334 52.7837 62.0717 53.2126 62.167C53.6415 62.2623 54.0704 62.1193 54.1181 62.3576C54.2134 62.6436 53.7368 63.3108 53.022 63.1678C52.3548 63.0248 52.0688 62.2623 52.3071 62.024Z" fill="#8E4136"/>
<path d="M52.2591 62.5002C52.4021 62.5002 52.5451 62.5002 52.688 62.5479C53.1646 62.6432 53.5935 62.8338 53.7841 63.0245C53.5935 63.1674 53.3552 63.2628 53.0216 63.1674C52.5927 63.0721 52.3544 62.7862 52.2591 62.5002Z" fill="#C16B5B"/>
<path d="M53.1649 62.4049C52.7836 62.3572 52.45 62.1666 52.4024 61.976C52.593 61.9283 52.8789 62.1189 53.2125 62.1666C53.5461 62.2143 53.8797 62.1666 54.0704 62.2619C53.8797 62.4525 53.5461 62.4525 53.1649 62.4049Z" fill="#E1EFF0"/>
<path d="M43.3951 62.2151C44.11 62.9777 45.1585 63.1683 45.778 62.5964C46.3976 62.0245 46.3022 60.976 45.635 60.2135C44.9202 59.451 43.8717 59.2604 43.2522 59.8323C42.6326 60.3565 42.6803 61.4526 43.3951 62.2151Z" fill="#FFBE9E"/>
<path d="M43.6812 60.1659C43.9672 60.023 44.3484 60.023 44.682 60.1659C44.8727 60.2613 44.968 60.3566 45.0633 60.4519C45.2063 60.5949 45.2063 60.7855 45.1586 60.9761C45.1109 61.1191 45.0156 61.2144 44.8727 61.3097C44.7773 61.3574 44.7297 61.4527 44.682 61.5003C44.6344 61.5957 44.6344 61.7386 44.7297 61.8339C44.825 61.9293 44.968 61.9293 45.0633 61.8816C45.1109 61.8339 45.2063 61.8816 45.2539 61.9293C45.3016 61.9769 45.2539 62.0722 45.2063 62.1199C45.1586 62.1675 45.0633 62.1675 44.968 62.1675C44.825 62.1675 44.6344 62.1199 44.5391 62.0246C44.3961 61.8339 44.3484 61.5957 44.4437 61.3574C44.4914 61.2621 44.5867 61.1667 44.682 61.0714C44.7773 60.9761 44.825 60.9285 44.8727 60.8331C44.9203 60.7378 44.8727 60.6425 44.825 60.5472C44.7773 60.4995 44.7773 60.4995 44.7297 60.4519C44.5867 60.4519 44.4437 60.4995 44.3484 60.5949C44.2531 60.6902 44.2055 60.8331 44.2531 60.9761C44.2531 61.0238 44.2055 61.1191 44.1578 61.1191C44.1101 61.1191 44.0148 61.0714 44.0148 61.0238C43.9672 60.8331 44.0148 60.5949 44.1578 60.4042C44.2055 60.3566 44.3008 60.3089 44.3484 60.2613C44.1101 60.2136 43.9195 60.2136 43.7765 60.3089C43.5859 60.4042 43.4429 60.6902 43.5383 60.9285C43.5859 60.9761 43.5383 61.0714 43.4906 61.1191C43.4429 61.1667 43.3476 61.1191 43.3 61.0714C43.157 60.8331 43.3476 60.3566 43.6812 60.1659Z" fill="#C16B5B"/>
<path d="M43.2046 70.7441C37.4381 72.4598 38.9155 78.274 39.4874 80.1803C40.0592 82.0866 41.9179 87.7101 42.8234 89.7117C44.1578 92.7618 44.682 94.2392 48.2086 95.3353C50.7345 96.1454 64.4597 96.6697 64.4597 96.6697L65.3176 92.7618L49.3524 89.3305L43.2046 70.7441Z" fill="#FFBE9E"/>
<path d="M64.3167 93.1911C64.9363 93.2388 67.3191 90.5223 67.9387 90.9512C68.5105 91.3801 67.7957 92.7622 67.0332 93.0481C68.034 93.1434 72.0372 92.4763 72.0848 93.3341C72.0848 93.9536 69.0348 94.1443 69.0348 94.1443C69.0348 94.1443 72.6091 94.3349 72.5138 95.1451C72.4184 95.9552 68.7965 95.3357 68.7965 95.3357C68.7965 95.3357 71.8465 96.0505 71.6559 96.6701C71.4653 97.2896 68.3676 96.2888 68.3676 96.2888C68.3676 96.2888 70.7028 97.4326 70.5598 97.7662C70.4168 98.0998 68.8441 97.7662 67.748 97.099C65.6035 97.4803 63.9831 96.3365 63.9831 96.3365L64.3167 93.1911Z" fill="#FFBE9E"/>
<path d="M43.2047 70.7452C36.628 72.9375 38.5343 78.704 38.8679 80.1814C39.2015 81.6587 40.1547 85.376 40.1547 85.376C44.4438 85.6143 48.1134 82.7072 48.1134 82.7072L43.2047 70.7452Z" fill="#9673EA"/>
<path d="M45.2062 73.271C45.4922 74.5101 45.8258 75.7016 46.207 76.893C46.5883 78.0844 46.9695 79.2759 47.4461 80.4196C47.6844 81.0868 47.9703 81.7064 48.2563 82.3736C48.2563 82.4212 48.3516 82.3736 48.3516 82.3259C47.875 81.1821 47.3984 80.0384 46.9695 78.8469C46.5406 77.6555 46.1594 76.5117 45.8734 75.2726C45.6828 74.6054 45.4922 73.9382 45.3492 73.2234C45.3015 73.2234 45.2062 73.2234 45.2062 73.271Z" fill="#245472"/>
<path d="M48.2086 82.3263C47.9226 82.7076 47.589 82.9935 47.2078 83.2318C47.1601 83.2795 47.2078 83.3271 47.2554 83.3271C47.6367 83.0888 48.0179 82.8029 48.3039 82.4216C48.3515 82.3263 48.2562 82.2787 48.2086 82.3263Z" fill="#245472"/>
<path d="M27.9072 42.4858C34.7222 42.4858 40.2504 46.4414 40.2504 51.3024C40.2504 53.7806 38.8207 56.0205 36.4855 57.6408C36.9144 58.3557 37.3433 59.0706 37.7722 59.7854C36.6285 59.4518 35.4847 59.1659 34.3409 58.8323C32.4823 59.6424 30.29 60.119 27.9072 60.119C21.0922 60.119 15.564 56.1635 15.564 51.3024C15.564 46.4414 21.0922 42.4858 27.9072 42.4858Z" fill="white"/>
<path d="M26.2396 48.3966C28.3842 48.3966 30.5764 48.3966 32.7686 48.3966C32.8639 48.3966 32.9592 48.3013 32.9592 48.206C32.9592 48.1107 32.8639 48.0154 32.7686 48.0154C28.3842 48.063 24.1427 48.063 19.7582 48.0154C19.6629 48.0154 19.5676 48.1107 19.5676 48.206C19.5676 48.3013 19.6629 48.3966 19.7582 48.3966C21.9504 48.3966 24.095 48.3966 26.2396 48.3966Z" fill="#AE8FF7"/>
<path d="M35.056 48.3969C35.4849 48.3969 35.8662 48.3969 36.2951 48.3969C36.3904 48.3969 36.4857 48.3016 36.4857 48.2063C36.4857 48.1109 36.3904 48.0156 36.2951 48.0156C35.4849 48.0633 34.7224 48.0633 33.7693 48.0156C33.674 48.0156 33.5786 48.1109 33.5786 48.2063C33.5786 48.3016 33.674 48.3969 33.7693 48.3969C34.1982 48.3969 34.6271 48.3969 35.056 48.3969Z" fill="#AE8FF7"/>
<path d="M19.7581 50.4459C21.4738 50.3983 23.3324 50.3983 25.0957 50.4459C25.1911 50.4459 25.2864 50.3506 25.2864 50.2553C25.2864 50.16 25.1911 50.0647 25.0957 50.0647C23.3324 50.017 21.4738 50.017 19.7581 50.0647C19.6628 50.0647 19.5675 50.16 19.5675 50.2553C19.5675 50.3506 19.6628 50.4459 19.7581 50.4459Z" fill="#AE8FF7"/>
<path d="M36.2951 50.4459C36.3904 50.4459 36.4858 50.3506 36.4858 50.2553C36.4858 50.16 36.3904 50.0647 36.2951 50.0647C33.0544 50.017 29.9091 50.017 26.6207 50.0647C26.5254 50.0647 26.4301 50.16 26.4301 50.2553C26.4301 50.3506 26.5254 50.4459 26.6207 50.4459C29.9091 50.3983 33.0544 50.3983 36.2951 50.4459Z" fill="#AE8FF7"/>
<path d="M26.6683 52.5429C28.9558 52.5429 31.1957 52.5429 33.5786 52.5429C33.6739 52.5429 33.7692 52.4476 33.7692 52.3523C33.7692 52.2569 33.6739 52.1616 33.5786 52.1616C28.8605 52.1616 24.476 52.1616 19.8056 52.1616C19.7103 52.1616 19.615 52.2569 19.615 52.3523C19.615 52.4476 19.7103 52.5429 19.8056 52.5429C22.1408 52.5429 24.3807 52.5429 26.6683 52.5429Z" fill="#AE8FF7"/>
<path d="M34.5798 52.5429H36.2954C36.3907 52.5429 36.486 52.4476 36.486 52.3523C36.486 52.2569 36.3907 52.1616 36.2954 52.1616H34.5798C34.4844 52.1616 34.3891 52.2569 34.3891 52.3523C34.3891 52.4476 34.4844 52.5429 34.5798 52.5429Z" fill="#AE8FF7"/>
<path d="M23.0465 54.6396C24.1426 54.6396 25.2387 54.6396 26.3348 54.592C26.4301 54.592 26.5255 54.4966 26.5255 54.4013C26.5255 54.306 26.4301 54.2107 26.3348 54.2107C24.1426 54.2584 21.998 54.2584 19.7581 54.2107C19.6628 54.2107 19.5675 54.306 19.5675 54.4013C19.5675 54.4966 19.6628 54.592 19.7581 54.592C20.8543 54.6396 21.9504 54.6396 23.0465 54.6396Z" fill="#AE8FF7"/>
<path d="M32.0537 54.6396C33.4358 54.6396 34.8655 54.6396 36.2952 54.592C36.3905 54.592 36.4859 54.4966 36.4859 54.4013C36.4859 54.306 36.3905 54.2107 36.2952 54.2107C33.4358 54.2584 30.6717 54.2584 27.8599 54.2107C27.7646 54.2107 27.6693 54.306 27.6693 54.4013C27.6693 54.4966 27.7646 54.592 27.8599 54.592C29.242 54.6396 30.624 54.6396 32.0537 54.6396Z" fill="#AE8FF7"/>
<path d="M115.358 140.995H101.728V140.375C101.728 138.135 103.539 136.324 105.779 136.324H111.259C113.499 136.324 115.31 138.135 115.31 140.375V140.995H115.358Z" fill="#245472"/>
<path d="M109.639 116.165H107.447V136.705H109.639V116.165Z" fill="#3A739B"/>
<path d="M109.258 116.165H107.78C106.065 116.165 104.683 114.783 104.683 113.068V112.591H112.403V113.068C112.403 114.736 110.973 116.165 109.258 116.165Z" fill="#245472"/>
<path d="M114.691 79.8506L107.113 109.16C106.684 110.78 105.159 113.068 103.539 113.068H106.446L122.316 111.876C123.984 111.876 125.414 110.78 125.843 109.16L133.42 79.8506H114.691Z" fill="#6A44C5"/>
<path d="M104.206 113.067H88.9559C88.2887 113.067 87.7644 112.543 87.7644 111.875C87.7644 111.208 88.2887 110.684 88.9559 110.684H104.206C105.255 110.684 106.16 109.969 106.398 108.968L113.738 80.7075C113.881 80.0879 114.548 79.659 115.215 79.8496C115.835 79.9926 116.263 80.6598 116.073 81.327L108.781 109.588C108.209 111.637 106.303 113.067 104.206 113.067Z" fill="#AE8FF7"/>
<path d="M122.173 113.067H106.97C106.303 113.067 105.779 112.543 105.779 111.875C105.779 111.208 106.303 110.684 106.97 110.684H122.173C123.221 110.684 124.127 109.969 124.365 108.968L131.657 80.7075C131.8 80.0879 132.467 79.659 133.134 79.8496C133.754 79.9926 134.183 80.6598 133.992 81.327L126.7 109.588C126.176 111.637 124.317 113.067 122.173 113.067Z" fill="#AE8FF7"/>
<path d="M121.267 82.758C121.029 81.8525 120.505 81.0424 120.219 80.1369C119.838 78.8501 120.028 77.4204 120.219 76.086C120.41 74.7516 120.6 73.3695 120.219 72.0351C119.885 70.8437 118.837 69.6999 117.646 69.6046C117.503 69.6046 117.074 69.0327 116.978 68.8898C116.692 68.6515 116.359 68.4608 116.025 68.2702C115.358 67.9366 114.691 67.746 113.976 67.603C111.688 67.2218 108.305 67.3647 107.018 69.6523C106.255 71.0343 106.541 72.7023 106.351 74.275C106.16 75.6571 105.588 76.9438 105.016 78.2306C104.444 79.5173 103.968 80.8517 103.92 82.2338C103.92 83.6158 104.54 85.0932 105.731 85.7604C107.304 86.6183 109.306 85.8557 111.021 86.4276C111.784 86.6659 112.451 87.1901 113.213 87.5714C114.929 88.4769 117.169 88.6675 118.885 87.7144C120.648 86.7612 121.744 84.6643 121.267 82.758Z" fill="#181818"/>
<path d="M106.255 101.106L105.922 102.107C105.922 102.107 99.4881 103.155 97.3435 103.632C95.1989 104.109 93.8645 105.443 93.3879 107.588C93.102 108.827 91.148 117.405 91.148 117.405C92.4348 118.453 96.295 118.406 96.295 118.406L98.6779 109.494C98.6779 109.494 103.205 110.113 106.494 109.542C109.782 108.97 112.117 101.773 112.117 101.773L106.255 101.106Z" fill="#162A45"/>
<path d="M85.572 119.835C85.572 119.835 85.572 119.787 85.6196 119.787C85.7149 119.12 86.2392 118.405 88.4791 118.357C89.5275 118.357 90.3853 117.976 90.8619 117.785C91.1479 116.928 90.433 116.07 91.0049 115.974C92.3393 115.736 92.244 117.833 92.244 117.833C92.9588 117.976 93.912 118.119 94.8175 118.071C94.8175 118.071 94.9604 118.405 95.0558 118.929C95.0558 119.024 95.1034 119.12 95.1034 119.215V119.263C95.1034 119.31 95.1034 119.358 95.1034 119.406V119.453C95.1034 119.692 95.1034 119.93 95.1034 120.168C95.0558 120.454 95.0558 120.74 94.9604 121.026V121.074C94.9128 121.169 94.9128 121.264 94.8651 121.36C94.8175 121.455 94.8175 121.55 94.7698 121.646L85.572 120.407C85.572 120.407 85.572 120.311 85.572 120.121C85.5243 120.025 85.5243 119.93 85.572 119.835Z" fill="#FFB652"/>
<path d="M94.865 121.121C94.8173 121.217 94.8173 121.312 94.7697 121.407C94.722 121.503 94.722 121.598 94.6744 121.693L85.4765 120.454C85.4765 120.454 85.4765 120.359 85.4765 120.168C85.4765 120.073 85.5242 119.978 85.5718 119.882L94.865 121.121Z" fill="#EA5C4C"/>
<path d="M89.9563 117.785C90.004 117.737 90.0993 117.689 90.1946 117.737C90.4329 117.928 90.5759 118.166 90.7188 118.452C90.7188 118.5 90.7188 118.547 90.7188 118.595C90.7188 118.643 90.6712 118.643 90.6235 118.69C90.5759 118.69 90.5282 118.69 90.4805 118.69C90.4329 118.69 90.4329 118.643 90.3852 118.595C90.3852 118.595 90.3852 118.547 90.3376 118.547C90.3376 118.5 90.2899 118.5 90.2899 118.452C90.2423 118.404 90.1946 118.357 90.1946 118.309C90.1469 118.261 90.0993 118.214 90.0516 118.166C90.0516 118.118 90.004 118.118 90.004 118.071L89.9563 118.023C89.9087 117.975 89.9087 117.975 89.9087 117.928C89.9563 117.832 89.9563 117.785 89.9563 117.785Z" fill="white"/>
<path d="M89.3366 117.88C89.3843 117.833 89.5272 117.833 89.5749 117.88C89.7655 118.119 89.9085 118.357 90.0515 118.643C90.0515 118.691 90.0515 118.738 90.0515 118.786C90.0515 118.834 90.0038 118.834 89.9562 118.881C89.9085 118.881 89.8608 118.881 89.8132 118.881C89.7655 118.881 89.7655 118.834 89.7179 118.786V118.738C89.7179 118.691 89.6702 118.691 89.6702 118.643C89.6226 118.595 89.6226 118.548 89.5749 118.452C89.5272 118.405 89.5272 118.357 89.4796 118.309C89.4796 118.262 89.4319 118.262 89.4319 118.214C89.4319 118.214 89.4319 118.166 89.3843 118.166C89.3366 118.119 89.3366 118.119 89.3366 118.071C89.289 117.976 89.289 117.928 89.3366 117.88Z" fill="white"/>
<path d="M88.6218 117.976C88.6695 117.929 88.8124 117.929 88.8601 118.024C89.0031 118.31 89.0984 118.596 89.146 118.882C89.146 118.929 89.146 118.977 89.0984 118.977C89.0507 119.025 89.0507 119.025 89.0031 119.025C88.9554 119.025 88.9077 119.025 88.9077 118.977C88.8601 118.929 88.8601 118.929 88.8601 118.882V118.834C88.8601 118.786 88.8601 118.786 88.8601 118.739C88.8601 118.691 88.8124 118.596 88.8124 118.548C88.8124 118.5 88.7648 118.405 88.7648 118.358C88.7648 118.31 88.7171 118.31 88.7171 118.262C88.7171 118.262 88.7171 118.215 88.6695 118.215C88.6695 118.167 88.6218 118.119 88.6695 118.119C88.5741 118.024 88.6218 117.976 88.6218 117.976Z" fill="white"/>
<path d="M118.98 101.106C120.124 105.252 118.932 108.779 114.595 110.113C110.83 111.257 105.302 109.97 105.302 109.97L104.587 121.599C102.062 122.075 99.631 121.599 99.631 121.599C99.631 121.599 99.6787 111.114 99.7263 108.112C99.774 105.109 100.87 104.252 104.158 103.346C107.351 102.441 110.83 101.583 110.83 101.583L118.98 101.106Z" fill="#273E5E"/>
<path d="M103.587 109.017C104.015 109.446 104.54 109.78 105.112 109.97C105.159 109.97 105.207 109.923 105.112 109.875C104.54 109.684 104.015 109.351 103.587 108.969C103.634 108.922 103.539 108.969 103.587 109.017Z" fill="#162A45"/>
<path d="M103.539 109.446C103.825 109.589 104.159 109.684 104.492 109.684C104.54 109.684 104.54 109.589 104.492 109.589C104.159 109.589 103.873 109.541 103.587 109.398C103.539 109.351 103.491 109.446 103.539 109.446Z" fill="#162A45"/>
<path d="M99.7744 109.542C99.7267 109.161 99.679 108.78 99.679 108.399C99.679 108.017 99.6314 107.636 99.679 107.255C99.7267 106.445 99.965 105.635 100.537 105.015C101.109 104.395 101.871 104.062 102.634 103.824C103.063 103.681 103.492 103.585 103.921 103.49C104.397 103.395 104.826 103.299 105.303 103.156C106.256 102.966 107.161 102.727 108.114 102.537C108.21 102.489 108.353 102.489 108.448 102.442C108.496 102.442 108.496 102.346 108.448 102.346C107.495 102.584 106.542 102.775 105.589 103.013C105.112 103.109 104.635 103.252 104.159 103.347C103.73 103.442 103.253 103.538 102.824 103.681C102.014 103.919 101.252 104.205 100.632 104.777C100.346 105.063 100.108 105.349 99.9173 105.73C99.7267 106.111 99.6314 106.492 99.5837 106.921C99.5361 107.303 99.5361 107.684 99.5361 108.113C99.5361 108.494 99.5837 108.923 99.6314 109.304C99.6314 109.399 99.6314 109.495 99.679 109.59C99.679 109.638 99.7744 109.638 99.7744 109.542Z" fill="#162A45"/>
<path d="M107.733 102.155C107.447 102.394 107.161 102.584 106.875 102.727C106.828 102.727 106.875 102.823 106.923 102.823C107.257 102.68 107.543 102.489 107.828 102.251C107.876 102.155 107.781 102.108 107.733 102.155Z" fill="#162A45"/>
<path d="M94.6748 124.505V124.458C94.6748 123.791 95.056 123.028 97.2959 122.647C98.3444 122.456 99.1545 122.027 99.5834 121.694C99.7741 120.836 98.9162 120.073 99.4405 119.883C100.727 119.454 100.918 121.551 100.918 121.551C101.633 121.598 102.634 121.598 103.491 121.408C103.491 121.408 103.682 121.694 103.825 122.218C103.873 122.313 103.873 122.409 103.92 122.504V122.551C103.92 122.599 103.92 122.647 103.968 122.694V122.742C104.016 122.98 104.063 123.219 104.063 123.457C104.063 123.743 104.063 124.029 104.063 124.315V124.362C104.063 124.458 104.063 124.553 104.016 124.648C104.016 124.744 103.968 124.839 103.968 124.934L94.6748 125.03C94.6748 125.03 94.6748 124.934 94.6748 124.744C94.6271 124.744 94.6271 124.648 94.6748 124.505Z" fill="#FFB652"/>
<path d="M104.016 124.41C104.016 124.506 104.016 124.601 103.968 124.696C103.968 124.792 103.92 124.887 103.92 124.982L94.6271 125.077C94.6271 125.077 94.6271 124.982 94.6271 124.792C94.6271 124.696 94.6271 124.601 94.6747 124.506L104.016 124.41Z" fill="#EA5C4C"/>
<path d="M98.7254 121.838C98.7731 121.79 98.8684 121.742 98.9637 121.79C99.202 121.981 99.4403 122.171 99.5833 122.409C99.5833 122.457 99.6309 122.505 99.5833 122.552C99.5833 122.6 99.5356 122.648 99.488 122.648C99.4403 122.648 99.3926 122.695 99.345 122.648C99.2973 122.648 99.2973 122.6 99.2497 122.552C99.2497 122.552 99.2497 122.505 99.202 122.505C99.202 122.457 99.1544 122.457 99.1544 122.409C99.1067 122.362 99.059 122.314 99.0114 122.266C98.9637 122.219 98.9161 122.171 98.8684 122.123C98.8208 122.123 98.8208 122.076 98.7731 122.076C98.7731 122.076 98.7254 122.076 98.7254 122.028C98.6778 121.981 98.6778 121.981 98.6301 121.933C98.6778 121.933 98.6778 121.885 98.7254 121.838Z" fill="white"/>
<path d="M98.0585 122.075C98.1061 122.027 98.2014 121.98 98.2967 122.027C98.535 122.218 98.7257 122.456 98.8686 122.694C98.8686 122.742 98.8686 122.79 98.8686 122.837C98.8686 122.885 98.821 122.933 98.7733 122.933C98.7257 122.933 98.678 122.933 98.6303 122.933C98.5827 122.933 98.5827 122.885 98.535 122.837C98.535 122.837 98.535 122.79 98.4874 122.79C98.4874 122.742 98.4397 122.742 98.4397 122.694C98.392 122.647 98.3444 122.599 98.2967 122.551C98.2491 122.504 98.2014 122.456 98.1538 122.408C98.1538 122.361 98.1061 122.361 98.0585 122.313L98.0108 122.265C97.9631 122.218 97.9631 122.218 97.9631 122.17C98.0584 122.123 98.0585 122.075 98.0585 122.075Z" fill="white"/>
<path d="M97.4389 122.218C97.4866 122.17 97.6295 122.17 97.6772 122.218C97.8678 122.456 97.9631 122.742 98.1061 123.028C98.1061 123.075 98.1061 123.123 98.0585 123.171C98.0585 123.218 98.0108 123.218 97.9631 123.218C97.9155 123.218 97.8678 123.218 97.8202 123.171C97.7725 123.123 97.7725 123.123 97.7725 123.075V123.028C97.7725 122.98 97.7725 122.98 97.7249 122.932C97.6772 122.885 97.6772 122.79 97.6295 122.742C97.5819 122.694 97.5819 122.647 97.5342 122.551C97.5342 122.504 97.4866 122.504 97.4866 122.456C97.4866 122.456 97.4866 122.408 97.4389 122.408C97.3913 122.361 97.3913 122.361 97.3913 122.313C97.3436 122.313 97.3913 122.265 97.4389 122.218Z" fill="white"/>
<path d="M101.251 89.5712C100.918 89.2853 101.013 86.6641 100.441 86.5688C99.9168 86.5211 99.6308 87.5696 99.8691 88.0938C99.2972 87.6649 97.5339 85.2821 97.105 85.711C96.7714 86.0446 98.2964 87.6649 98.2964 87.6649C98.2964 87.6649 96.3425 85.9493 96.0089 86.4258C95.6753 86.9024 97.8675 88.3798 97.8675 88.3798C97.8675 88.3798 95.9135 87.236 95.7229 87.6649C95.5323 88.0938 97.6292 89.0946 97.6292 89.0946C97.6292 89.0946 95.8659 88.5227 95.7706 88.761C95.6753 88.9993 96.6761 89.6189 97.5816 89.8095C98.5347 91.0962 99.9168 91.2869 99.9168 91.2869L101.251 89.5712Z" fill="#FFB48F"/>
<path d="M110.354 85.8539C108.304 86.1875 107.113 92.3353 107.113 92.3353L101.108 89.3329L99.7261 91.2868C99.7261 91.2868 103.968 94.5752 105.731 95.3377C107.494 96.0525 109.496 96.5291 110.449 94.3845C111.354 92.2399 110.354 85.8539 110.354 85.8539Z" fill="#FFB48F"/>
<path d="M119.028 101.249C108.114 102.774 105.922 101.44 105.922 101.44L110.354 85.8559L113.213 85.5223L115.787 85.8083L118.599 86.7614L119.028 101.249Z" fill="white"/>
<path d="M118.503 86.8084C120.647 87.571 122.649 93.7187 122.887 96.1969C123.126 98.4845 122.506 99.6282 119.313 99.8665C115.548 100.152 110.163 100.2 110.163 100.2L109.448 97.6266L118.789 96.3399C118.789 96.3399 117.121 92.6226 116.597 91.2882C114.833 86.3795 118.503 86.8084 118.503 86.8084Z" fill="#FFB48F"/>
<path d="M109.925 97.7215C109.496 97.8168 107.494 96.1011 107.113 96.4824C106.732 96.816 107.399 97.7691 107.971 97.9121C107.256 98.1027 104.349 97.9598 104.397 98.5793C104.444 99.0082 106.636 98.8652 106.636 98.8652C106.636 98.8652 104.063 99.3418 104.254 99.9137C104.397 100.486 106.97 99.7231 106.97 99.7231C106.97 99.7231 104.873 100.533 105.064 100.962C105.254 101.391 107.399 100.39 107.399 100.39C107.399 100.39 105.826 101.439 105.969 101.677C106.112 101.915 107.208 101.486 107.923 100.962C109.496 101.057 110.544 100.057 110.544 100.057L109.925 97.7215Z" fill="#FFB48F"/>
<path d="M106.875 77.1351C106.875 77.5164 106.875 77.8977 106.922 78.2313C107.065 80.0899 107.685 81.2813 108.59 82.0915C109.21 82.6634 109.877 82.997 110.544 83.2829C111.736 83.8548 112.689 84.2837 112.594 85.9994C113.594 87.0478 115.167 86.7619 115.691 85.8564C115.834 82.4251 117.502 81.4243 118.027 80.0899C118.217 79.7086 118.312 79.4227 118.36 79.3274C118.36 79.2797 118.36 79.2797 118.36 79.2797C118.36 79.2797 118.36 78.7078 118.36 77.8977V77.5641C118.36 75.6578 118.265 72.6554 117.741 71.5592C115.834 67.556 108.352 68.4615 107.59 71.5116C107.161 73.8944 106.922 75.7054 106.875 77.1351Z" fill="#FFB48F"/>
<path d="M107.542 72.2742C107.828 71.7499 108.066 71.2257 108.352 70.7015C109.782 72.6078 112.165 73.7515 114.547 73.7039C114.738 75.0859 115.119 76.4203 115.977 77.5164C116.787 78.6126 118.026 79.4227 119.361 79.7087C119.79 77.4688 119.933 75.0859 119.456 72.846C119.266 72.0359 119.027 71.2734 118.551 70.6061C117.979 69.8436 117.169 69.3194 116.263 68.9858C115.358 68.6522 114.404 68.5569 113.499 68.4616C112.594 68.3663 111.64 68.3186 110.735 68.5092C109.829 68.6999 108.924 69.0811 108.304 69.7483C107.685 70.4155 107.256 71.3687 107.542 72.2742Z" fill="#181818"/>
<path d="M111.831 78.2311C111.688 77.9451 111.211 78.2311 110.687 78.2311C110.163 78.2787 109.686 78.0405 109.543 78.3264C109.353 78.66 109.877 79.5178 110.735 79.4702C111.592 79.4225 112.021 78.5647 111.831 78.2311Z" fill="#8E4136"/>
<path d="M111.783 78.8031C111.64 78.8031 111.45 78.8031 111.259 78.8031C110.639 78.8508 110.115 78.9937 109.877 79.1844C110.068 79.375 110.401 79.518 110.735 79.518C111.259 79.4703 111.593 79.1367 111.783 78.8031Z" fill="#C16B5B"/>
<path d="M110.687 78.5652C111.164 78.5652 111.545 78.4223 111.688 78.1363C111.497 78.041 111.116 78.2316 110.687 78.2316C110.258 78.2316 109.877 78.1363 109.686 78.2316C109.829 78.4699 110.21 78.5652 110.687 78.5652Z" fill="white"/>
<path d="M109.925 77.5161C109.877 77.5161 109.877 77.5161 109.877 77.4684C109.782 77.0395 109.925 76.9442 110.068 76.8965C110.21 76.8489 110.353 76.8965 110.544 77.0395C110.592 77.0395 110.592 77.0872 110.544 77.1348C110.544 77.1825 110.496 77.1825 110.449 77.1348C110.306 77.0395 110.163 76.9918 110.068 77.0395C109.925 77.0872 109.925 77.2301 109.972 77.4684C110.02 77.4684 109.972 77.5161 109.925 77.5161Z" fill="#C16B5B"/>
<path d="M109.019 75.9903C109.019 76.3239 108.781 76.6099 108.447 76.6099C108.114 76.6099 107.828 76.3716 107.828 76.038C107.828 75.7044 108.066 75.4185 108.4 75.4185C108.733 75.4185 109.019 75.6567 109.019 75.9903Z" fill="#181818"/>
<path d="M108.352 75.8479C108.352 75.9432 108.257 76.0385 108.161 76.0385C108.066 76.0385 107.971 75.9432 107.971 75.8479C107.971 75.7525 108.066 75.6572 108.161 75.6572C108.304 75.6572 108.352 75.7525 108.352 75.8479Z" fill="white"/>
<path d="M113.213 75.9903C113.213 76.3239 112.975 76.6099 112.641 76.6099C112.307 76.6099 112.021 76.3716 112.021 76.038C112.021 75.7044 112.26 75.4185 112.593 75.4185C112.927 75.4185 113.213 75.6567 113.213 75.9903Z" fill="#181818"/>
<path d="M112.593 75.8479C112.593 75.9432 112.498 76.0385 112.403 76.0385C112.308 76.0385 112.212 75.9432 112.212 75.8479C112.212 75.7525 112.308 75.6572 112.403 75.6572C112.498 75.6572 112.593 75.7525 112.593 75.8479Z" fill="white"/>
<path d="M107.685 74.323C108.114 74.0371 108.638 73.9418 109.115 74.0371C109.21 74.0371 109.305 74.2277 109.258 74.323C109.21 74.466 109.115 74.5137 108.972 74.466H108.924H108.876C108.829 74.466 108.781 74.466 108.733 74.466C108.686 74.466 108.638 74.466 108.59 74.466C108.59 74.466 108.59 74.466 108.543 74.466C108.495 74.466 108.495 74.466 108.448 74.466C108.4 74.466 108.352 74.5137 108.305 74.5137H108.257C108.257 74.5137 108.257 74.5137 108.209 74.5137C108.114 74.5613 108.019 74.609 107.923 74.6566C107.828 74.7043 107.685 74.6566 107.59 74.5613C107.542 74.5137 107.59 74.3707 107.685 74.323Z" fill="#162A45"/>
<path d="M113.356 74.3232C112.927 74.0372 112.403 73.9419 111.926 74.0372C111.831 74.0372 111.736 74.2278 111.783 74.3232C111.831 74.4661 111.926 74.5138 112.069 74.4661H112.117H112.165C112.212 74.4661 112.26 74.4661 112.307 74.4661C112.355 74.4661 112.403 74.4661 112.45 74.4661C112.45 74.4661 112.45 74.4661 112.498 74.4661C112.546 74.4661 112.546 74.4661 112.593 74.4661C112.641 74.4661 112.689 74.5138 112.736 74.5138H112.784C112.784 74.5138 112.784 74.5138 112.832 74.5138C112.927 74.5614 113.022 74.6091 113.118 74.6568C113.213 74.7044 113.356 74.6568 113.451 74.5614C113.499 74.5138 113.451 74.3708 113.356 74.3232Z" fill="#162A45"/>
<path d="M120.076 79.9945C119.409 80.7093 118.36 80.8523 117.788 80.3281C117.216 79.8038 117.312 78.7554 117.979 78.0405C118.646 77.3257 119.695 77.1827 120.266 77.7069C120.838 78.2312 120.743 79.2796 120.076 79.9945Z" fill="#FFB48F"/>
<path d="M119.837 78.0416C119.551 77.8986 119.218 77.8509 118.884 77.9939C118.694 78.0416 118.598 78.1369 118.503 78.2799C118.408 78.4228 118.36 78.6135 118.408 78.7564C118.455 78.8994 118.551 78.9947 118.646 79.09C118.694 79.1377 118.789 79.233 118.837 79.2807C118.884 79.376 118.884 79.5189 118.789 79.6143C118.694 79.7096 118.551 79.7096 118.455 79.6619C118.408 79.6143 118.312 79.6619 118.265 79.7096C118.217 79.7572 118.265 79.8526 118.312 79.9002C118.36 79.9479 118.455 79.9479 118.503 79.9479C118.646 79.9479 118.789 79.9002 118.932 79.8049C119.075 79.6619 119.122 79.376 119.027 79.1853C118.98 79.09 118.884 78.9947 118.789 78.9471C118.694 78.8994 118.646 78.8041 118.598 78.7088C118.551 78.6135 118.598 78.5181 118.646 78.4228C118.694 78.3752 118.694 78.3752 118.741 78.3275C118.884 78.3275 119.027 78.3752 119.075 78.4705C119.17 78.5658 119.17 78.7088 119.17 78.8517C119.17 78.8994 119.218 78.9947 119.265 78.9947C119.313 78.9947 119.361 78.9471 119.408 78.8994C119.456 78.7088 119.408 78.4705 119.265 78.3275C119.218 78.2799 119.17 78.2322 119.075 78.1845C119.265 78.1369 119.504 78.1845 119.647 78.2322C119.837 78.3275 119.98 78.6135 119.837 78.8517C119.79 78.8994 119.837 78.9947 119.885 79.0424C119.933 79.09 120.028 79.0424 120.076 78.9947C120.266 78.6611 120.123 78.2322 119.837 78.0416Z" fill="#C16B5B"/>
<path d="M134.04 58.2144C128.511 58.2144 124.032 61.4074 124.032 65.3629C124.032 67.3645 125.223 69.1755 127.082 70.5099C126.748 71.0818 126.414 71.6537 126.033 72.2256C126.939 71.9396 127.892 71.7014 128.797 71.4631C130.322 72.1303 132.086 72.5115 133.992 72.5115C139.52 72.5115 144 69.3185 144 65.3629C144 61.4074 139.568 58.2144 134.04 58.2144Z" fill="white"/>
<path d="M139.663 64.9339C139.425 65.2198 139.139 65.4104 138.805 65.5057C138.853 65.2198 138.901 64.9815 138.948 64.6956C138.996 64.1237 138.948 63.4565 138.662 62.9799C138.376 62.551 137.947 62.2174 137.376 62.2174C136.851 62.2174 136.518 62.5987 136.375 63.0752C136.279 62.9323 136.136 62.7893 135.946 62.694C135.517 62.408 135.04 62.3604 134.564 62.4557C134.468 62.3604 134.373 62.2651 134.23 62.2174C133.897 61.9791 133.515 61.8838 133.134 61.8838C132.848 61.6932 132.562 61.5502 132.229 61.4549C131.704 61.3119 131.132 61.3119 130.656 61.4549C130.179 61.5979 129.75 61.8361 129.417 62.1697C128.654 62.8846 128.273 63.9331 128.416 64.9815C128.559 66.03 129.131 66.9831 129.989 67.6027C130.799 68.2222 131.847 68.5082 132.896 68.4128C133.325 68.3652 133.801 68.2222 134.182 67.9839C134.421 68.1746 134.754 68.3175 135.088 68.4128C136.089 68.6511 137.137 68.2699 137.804 67.555C138.329 67.0308 138.662 66.3636 138.853 65.6964C139.234 65.6011 139.615 65.3628 139.854 65.0768C139.806 64.9815 139.711 64.8862 139.663 64.9339ZM136.47 63.0752C136.565 62.8369 136.708 62.6463 136.899 62.5033C137.09 62.3604 137.376 62.3127 137.614 62.3604C138.138 62.4557 138.519 62.8846 138.662 63.3612C138.853 63.8854 138.853 64.5049 138.758 65.0292C138.71 65.2198 138.71 65.3628 138.662 65.5534C138.186 65.6487 137.709 65.6011 137.28 65.3628C136.994 65.1722 136.756 64.9339 136.613 64.6479C136.708 64.362 136.756 64.1237 136.708 63.8377C136.661 63.5995 136.565 63.4088 136.47 63.2182C136.422 63.1705 136.47 63.1229 136.47 63.0752ZM136.375 63.3612C136.47 63.5995 136.565 63.8377 136.565 64.076C136.565 64.219 136.565 64.3143 136.518 64.4573C136.375 64.1237 136.327 63.7424 136.375 63.3612ZM134.707 62.5033C135.183 62.408 135.66 62.551 135.993 62.8846C136.089 62.9799 136.184 63.0752 136.279 63.2182C136.184 63.6471 136.184 64.076 136.375 64.5049C136.375 64.5526 136.422 64.6003 136.47 64.6956C136.375 65.0292 136.136 65.3151 135.898 65.5534C135.755 65.6964 135.565 65.8394 135.374 65.9823C135.422 65.6964 135.469 65.4104 135.469 65.1245C135.469 64.5526 135.422 63.9331 135.183 63.4088C135.04 63.1229 134.85 62.8369 134.659 62.5987C134.659 62.5033 134.659 62.5033 134.707 62.5033ZM133.515 62.3604C133.611 62.5033 133.706 62.5987 133.801 62.7416C133.611 62.8846 133.468 63.0752 133.325 63.2659C133.039 63.7424 132.943 64.2667 132.943 64.7909C132.943 65.2675 132.991 65.744 133.086 66.2206C133.039 66.2206 133.039 66.173 132.991 66.173C132.562 65.887 132.181 65.5058 131.895 65.1245C131.609 64.6956 131.418 64.219 131.418 63.7424C131.418 63.2659 131.561 62.7893 131.895 62.4557C132.181 62.1221 132.657 61.9791 133.086 61.9791C133.229 62.0744 133.372 62.2174 133.515 62.3604ZM133.086 64.6956C133.134 64.219 133.229 63.6948 133.515 63.2659C133.611 63.1229 133.754 62.9799 133.849 62.8846C133.992 63.1229 134.087 63.3612 134.135 63.6471C134.135 63.7424 134.278 63.6948 134.278 63.5995C134.23 63.3135 134.087 63.0276 133.944 62.7893C134.087 62.694 134.278 62.5987 134.468 62.551C135.231 63.3135 135.422 64.4573 135.279 65.5057C135.279 65.6964 135.231 65.8393 135.183 66.03C134.945 66.1729 134.754 66.2683 134.468 66.3636C134.182 66.4589 133.944 66.5066 133.658 66.4589C133.468 66.4112 133.325 66.3636 133.182 66.3159C133.086 65.7917 133.039 65.2198 133.086 64.6956ZM134.04 66.6019C134.325 66.5542 134.611 66.4589 134.897 66.3159C134.993 66.2683 135.088 66.2206 135.183 66.173C135.088 66.4589 134.993 66.7448 134.85 67.0308C134.659 67.3644 134.421 67.6027 134.087 67.7933C133.944 67.6503 133.801 67.555 133.706 67.3644C133.515 67.0784 133.372 66.7925 133.277 66.4589C133.515 66.6019 133.801 66.6495 134.04 66.6019ZM134.373 62.4557C134.23 62.5033 134.04 62.5987 133.897 62.694C133.706 62.408 133.515 62.1697 133.277 61.9791C133.706 62.0268 134.087 62.2174 134.373 62.4557ZM133.801 67.9839C132.943 68.4128 131.943 68.3652 131.085 68.0792C130.179 67.7456 129.321 67.1261 128.893 66.2683C128.416 65.3628 128.321 64.2667 128.702 63.3135C129.083 62.4557 129.798 61.7885 130.704 61.5502C131.418 61.3596 132.229 61.5025 132.848 61.8838C132.8 61.8838 132.8 61.8838 132.753 61.8838C132.276 61.9791 131.8 62.2174 131.561 62.6463C131.275 63.0752 131.228 63.5995 131.275 64.076C131.371 64.6003 131.609 65.0768 131.943 65.4581C132.276 65.8394 132.657 66.2206 133.086 66.4112C133.229 66.8402 133.42 67.2691 133.706 67.6503C133.801 67.7456 133.849 67.7933 133.944 67.8886C133.944 67.8886 133.897 67.9363 133.801 67.9839ZM137.423 67.6027C137.042 67.9363 136.613 68.1269 136.184 68.2222C135.755 68.3175 135.279 68.3175 134.802 68.1746C134.564 68.1269 134.373 67.9839 134.182 67.8886C134.611 67.6027 134.897 67.2214 135.088 66.7925C135.183 66.5542 135.231 66.3636 135.326 66.1253C135.66 65.9347 135.946 65.6487 136.184 65.3628C136.327 65.2198 136.422 65.0292 136.518 64.8385C136.708 65.1245 136.947 65.3628 137.233 65.5534C137.661 65.7917 138.138 65.8394 138.567 65.744C138.472 65.9823 138.424 66.2683 138.281 66.4589C138.09 66.8878 137.804 67.2691 137.423 67.6027Z" fill="#AE8FF7"/>
</g>
</svg>
