<svg width="155" height="156" viewBox="0 0 155 156" fill="none" xmlns="http://www.w3.org/2000/svg">
<mask id="mask0_73_5407" style="mask-type:alpha" maskUnits="userSpaceOnUse" x="0" y="0" width="155" height="156">
<circle cx="77.5004" cy="77.9999" r="76.9194" fill="#AE8FF7" stroke="#AE8FF7"/>
</mask>
<g mask="url(#mask0_73_5407)">
<circle cx="77.5004" cy="77.9999" r="77.4194" fill="#DCCEFF"/>
<path d="M101 31H30C28.8954 31 28 31.8954 28 33V69C28 70.1046 28.8954 71 30 71H101C102.105 71 103 70.1046 103 69V33C103 31.8954 102.105 31 101 31Z" fill="white"/>
<path d="M60.2568 35.5775H38.8218V37.3364H60.2568V35.5775Z" fill="#878787"/>
<path d="M43.4427 42.6727H33.0383V44.4316H43.4427V42.6727Z" fill="#878787"/>
<path d="M100 65.1567C100 66.713 98.4787 68 96.5855 68H34.4145C32.5213 68 31 66.743 31 65.1567V36.8433C31 35.287 32.5213 34 34.4145 34H96.5517C98.4449 34 99.9662 35.257 99.9662 36.8433V65.1567H100Z" fill="white"/>
<path d="M43.4427 45.3857H33.0383V47.1447H43.4427V45.3857Z" fill="#AC8AFB"/>
<path d="M43.4427 50.8413H33.0383V52.6002H43.4427V50.8413Z" fill="#AC8AFB"/>
<path d="M43.4427 56.2671H33.0383V58.026H43.4427V56.2671Z" fill="#AC8AFB"/>
<path d="M97.0119 52.63H79.8103V52.8387H97.0119V52.63Z" fill="#AC8AFB"/>
<path d="M97.0119 57.8472H79.8103V58.0559H97.0119V57.8472Z" fill="#AC8AFB"/>
<path d="M89.8007 65.0916H58.0805V65.3002H89.8007V65.0916Z" fill="#AC8AFB"/>
<path d="M66.4577 46.9657H43.8899V47.1744H66.4577V46.9657Z" fill="#AC8AFB"/>
<path d="M66.4577 52.3021H43.8899V52.5108H66.4577V52.3021Z" fill="#AC8AFB"/>
<path d="M66.4577 57.8472H43.8899V58.0559H66.4577V57.8472Z" fill="#AC8AFB"/>
<path d="M97.1908 47.2042H79.6016V41.5399H97.1908V47.2042ZM79.9892 46.7272H96.8033V41.9573H79.9892V46.7272Z" fill="#AC8AFB"/>
<path d="M63.3274 38.0817H40.6105V40.0791H63.3274V38.0817Z" fill="#AC8AFB"/>
<path d="M80.2012 84.6083L108.642 86.9933L109.507 68.3607L81.0657 66.0055L80.2012 84.6083Z" fill="#FAA176"/>
<path d="M83.242 69.2848C83.0333 69.2848 82.8247 69.2848 82.616 69.2848C81.0359 69.2848 79.1279 68.2712 78.6808 66.8104C78.5019 66.3036 78.3826 65.7074 78.3826 65.0813L83.242 69.2848Z" fill="#FFBE9E"/>
<path d="M97.1047 69.1954C97.1047 69.1954 87.7437 69.2849 83.242 69.3147L80.9763 67.3769L78.3826 65.141C78.3826 64.3956 78.5615 63.6503 79.0683 63.0541C79.5453 62.5175 80.3204 62.0703 81.5129 61.8914C83.2122 61.6529 84.1066 61.5337 85.4779 61.3846C86.5214 61.2654 87.8033 61.1461 89.8603 60.8778C89.8603 60.8778 89.8603 60.8778 89.8901 60.8778C90.5162 60.9076 93.6465 64.7534 95.5545 67.2278C96.3892 68.2414 96.9854 69.0165 97.1047 69.1954Z" fill="#FFBE9E"/>
<path d="M128.527 144.889C127.454 143.1 126.321 142.295 124.89 141.251C123.161 139.97 110.669 118.833 110.103 118.356C106.436 115.166 99.7282 112.691 95.793 109.174C91.9472 105.745 90.2479 102.048 88.1908 98.7691C85.4183 94.3568 80.4695 88.6925 78.8894 86.7846C78.7106 86.5759 78.5615 86.397 78.4721 86.2777C78.0845 85.8008 77.4883 83.9524 76.9516 82.1935C76.415 80.3749 75.938 78.6458 75.8486 78.4968C73.4934 73.6076 72.3009 71.2822 75.0139 69.0761C75.0437 69.0463 75.0735 69.0165 75.1331 68.9867C75.1927 68.9569 75.2523 68.8972 75.312 68.8674L75.3418 68.8376C75.461 68.7482 75.5505 68.6885 75.6697 68.5991C75.6995 68.5991 75.6995 68.5693 75.6995 68.5693C75.7293 68.5693 75.7293 68.5395 75.7592 68.5395C75.9678 68.4202 76.1765 68.301 76.415 68.2116L77.3392 69.0761L80.7676 72.2958L82.139 73.5777L82.4073 73.8162L88.7275 79.7489L88.7573 79.7787L88.9063 79.9278L95.1669 85.8306L118.808 108.041C118.51 107.713 119.136 106.461 120.209 105.179C121.282 103.927 122.445 103.122 122.803 103.33L103.276 86.5163L101.07 84.6083C103.634 83.863 106.138 83.4754 105.84 81.8954C105.661 80.8817 105.392 79.7787 103.037 76.082C101.457 73.6076 99.7282 71.7592 97.1047 69.1357V69.1059L95.3756 67.1383L89.8901 60.8181C89.8901 60.8181 89.8901 60.8181 89.92 60.8181C90.5162 60.7883 102.501 60.2517 104.617 60.7883C106.227 61.1759 117.317 71.4611 120.15 74.8597C120.507 75.277 120.716 75.605 120.776 75.7839C120.984 76.4397 121.163 77.0956 121.372 77.7515C124.621 88.9608 126.827 102.913 128.139 106.162C128.378 106.759 136.069 116.746 136.069 116.746L132.581 119.727L132.492 120.293L130.524 132.457L128.527 144.889Z" fill="#FFBE9E"/>
<path d="M128.527 144.918C128.735 145.246 132.283 137.346 128.527 144.918V144.918Z" fill="#FFD2A2"/>
<path d="M80.6185 75.2472C80.2906 75.3962 79.9627 75.5453 79.6347 75.6645C76.5939 76.8272 75.7592 77.0359 74.8946 74.9789C74.358 73.6969 73.9406 72.8026 73.8512 71.9678C73.7319 70.7157 74.2089 69.7915 75.0138 69.1059C75.0437 69.076 75.0735 69.0462 75.1331 69.0164C75.1927 68.9866 75.2523 68.927 75.312 68.8972L75.3418 68.8674C75.4014 68.8376 75.4312 68.8077 75.4908 68.7779C75.5803 68.7183 75.6399 68.6587 75.6995 68.6289C75.7293 68.6289 75.7293 68.5991 75.7592 68.5991C75.9678 68.45 76.0573 68.3904 76.415 68.2711L77.3392 69.1357L80.7676 72.3554L82.139 73.6373C82.1688 74.2932 81.4831 74.8298 80.6185 75.2472Z" fill="#F1F1F1"/>
<path d="M112.696 127.597L123.667 145.872L141.674 119.816L136.069 112.214L112.696 127.597Z" fill="white"/>
<path d="M115.26 134.395L121.998 146.23H155V130.757L141.316 117.253L115.26 134.395Z" fill="#6A44C5"/>
<path d="M76.266 64.6639L75.2822 65.6477L75.0437 65.29L74.0599 63.8292L74.3878 63.4714L75.8784 64.4254L76.266 64.6639Z" fill="#878787"/>
<path d="M101.07 84.6381C100.563 84.7872 100.116 84.9064 99.758 85.0257C97.701 85.7412 95.5843 84.2804 94.2427 83.1177C93.885 82.8196 93.5272 82.5513 93.1993 82.3128C93.1397 82.2532 93.0502 82.2233 92.9906 82.1637C92.9608 82.1339 92.9012 82.1041 92.8714 82.1041C92.8117 82.0743 92.7819 82.0445 92.7223 82.0147C92.6627 81.9848 92.6329 81.955 92.5732 81.9252C92.5136 81.8954 92.454 81.8358 92.3646 81.806C92.3049 81.7762 92.2453 81.7463 92.1857 81.6867C92.1559 81.6569 92.1261 81.6569 92.0963 81.6271C92.0366 81.5973 91.977 81.5675 91.8876 81.5377C91.8279 81.5078 91.7683 81.478 91.7087 81.4482C91.6491 81.4184 91.5894 81.3886 91.5298 81.3588C91.4106 81.2992 91.2913 81.2395 91.1721 81.1799C91.0528 81.1203 90.9336 81.0607 90.8143 81.0308C90.7547 81.001 90.6951 80.9712 90.6355 80.9414C90.5162 80.8818 90.4268 80.852 90.3075 80.7924C89.9498 80.6135 89.6218 80.4644 89.3237 80.2855C89.2641 80.2557 89.2343 80.2259 89.1747 80.1961C89.1448 80.1663 89.0852 80.1365 89.0554 80.1067C88.9958 80.0471 88.9362 80.0172 88.8765 79.9576L88.7275 79.8086L88.6977 79.7787C88.6082 79.6893 88.5188 79.5999 88.4592 79.4806C87.6542 78.3478 87.3263 76.2609 86.4021 74.6212C85.4779 73.0114 83.3017 70.4773 80.9167 69.0463C79.6049 68.2712 78.2634 67.824 77.0113 68.0625C76.8026 68.0924 76.6237 68.152 76.415 68.2116L74.7157 66.6017C74.7157 66.6017 74.6263 65.9757 75.0735 65.2602C75.1629 65.1409 75.2524 64.9919 75.3418 64.8726C75.5207 64.664 75.6995 64.5149 75.8784 64.3956C76.5045 64.0081 77.1007 63.9783 77.1007 63.9783L78.3826 65.0813C78.3826 65.6776 78.5317 66.2738 78.6808 66.8104C78.9789 67.7346 79.8732 68.5097 80.9167 68.9271C81.4831 69.1656 82.0793 69.2848 82.6458 69.2848C82.8545 69.2848 83.0333 69.2848 83.2718 69.2848L101.07 84.6381Z" fill="#6A44C5"/>
<path d="M122.803 103.36L118.808 108.071C118.51 107.743 119.136 106.491 120.209 105.209C121.312 103.927 122.445 103.122 122.803 103.36Z" fill="#C72115"/>
<path d="M88.7274 79.8383L82.1091 73.6374C82.0495 72.743 81.7216 72.0872 80.9763 70.9841C79.7242 69.1358 78.5019 68.778 77.3094 69.106L76.3852 68.2414C80.0223 66.8999 84.7922 71.6698 86.3723 74.651C87.3859 76.4994 87.7436 78.8247 88.7274 79.8383Z" fill="#FFBE9E"/>
<path opacity="0.9155" d="M122.624 103.837L122.594 103.807L101.1 84.8468C100.593 84.9958 100.146 85.1151 99.7878 85.2343C97.7307 85.92 95.6141 84.4294 94.3023 83.2667C92.0068 81.2395 90.0988 81.0606 88.9659 80.047L118.54 108.458C118.54 108.458 118.54 108.488 118.569 108.488C118.897 108.786 120.09 107.981 121.223 106.699C122.326 105.417 122.952 104.135 122.624 103.837Z" fill="#E2D6C2"/>
<path opacity="0.9296" d="M122.654 103.748L122.624 103.718L101.07 84.8169C100.563 84.966 100.116 85.0853 99.758 85.2045C97.701 85.8902 95.5843 84.3996 94.2725 83.2369C91.977 81.2097 90.069 81.0606 88.9362 80.047L118.569 108.428C118.569 108.428 118.569 108.458 118.599 108.458C118.927 108.756 120.12 107.951 121.253 106.669C122.356 105.328 123.012 104.046 122.654 103.748Z" fill="#E1D5C1"/>
<path opacity="0.9437" d="M122.684 103.688L122.654 103.658L101.07 84.7871C100.563 84.9362 100.116 85.0555 99.758 85.1747C97.701 85.8902 95.5843 84.3698 94.2725 83.2369C91.9472 81.2097 90.069 81.0606 88.9362 80.047L118.629 108.369C118.629 108.369 118.629 108.398 118.659 108.398C118.987 108.697 120.179 107.892 121.312 106.61C122.415 105.238 123.041 103.956 122.684 103.688Z" fill="#E1D5C0"/>
<path opacity="0.9577" d="M122.743 103.599L122.713 103.569L101.07 84.7275C100.563 84.8765 100.116 84.9958 99.758 85.115C97.7009 85.8305 95.5842 84.3399 94.2725 83.1772C91.9472 81.1798 90.069 81.0009 88.9063 79.9873L118.659 108.249C118.659 108.249 118.659 108.279 118.689 108.279C119.017 108.577 120.209 107.772 121.342 106.461C122.445 105.179 123.071 103.897 122.743 103.599Z" fill="#E0D4BF"/>
<path opacity="0.9718" d="M122.773 103.509L122.743 103.479L101.07 84.6677C100.563 84.8168 100.116 84.936 99.7578 85.0553C97.7007 85.7708 95.5841 84.2802 94.2723 83.1175C91.947 81.1201 90.0688 80.9412 88.9061 79.9574L118.718 108.16C118.718 108.16 118.718 108.16 118.748 108.19C119.076 108.488 120.269 107.683 121.372 106.371C122.475 105.089 123.101 103.807 122.773 103.509Z" fill="#E0D3BE"/>
<path opacity="0.9859" d="M122.803 103.45L122.773 103.42L101.07 84.6678C100.563 84.8169 100.116 84.9361 99.758 85.0554C97.7009 85.7709 95.5843 84.2803 94.2427 83.1474C91.9174 81.15 90.0094 81.0009 88.8765 79.9873L118.748 108.13C118.748 108.13 118.748 108.13 118.778 108.16C119.106 108.458 120.299 107.653 121.402 106.341C122.534 105.03 123.161 103.748 122.803 103.45Z" fill="#DFD3BD"/>
<path d="M122.862 103.36L122.833 103.33L101.07 84.6082C100.563 84.7573 100.116 84.8766 99.758 84.9958C97.7009 85.7113 95.5843 84.2505 94.2427 83.0878C91.9174 81.0904 90.0094 80.9413 88.8765 79.9277L118.808 108.07C118.808 108.07 118.808 108.07 118.838 108.1C119.166 108.398 120.358 107.564 121.461 106.282C122.564 104.94 123.19 103.658 122.862 103.36Z" fill="#DFD2BC"/>
<path d="M121.461 106.252C120.358 107.564 119.166 108.369 118.838 108.07C118.838 108.07 118.838 108.07 118.808 108.041C118.51 107.713 119.136 106.461 120.209 105.179C121.282 103.926 122.445 103.092 122.803 103.33C122.803 103.33 122.833 103.33 122.833 103.36C123.19 103.658 122.564 104.94 121.461 106.252Z" fill="#6A44C5"/>
<path d="M122.803 103.33C122.415 103.122 121.282 103.927 120.209 105.179C119.136 106.461 118.51 107.713 118.808 108.041L88.8765 79.9575C90.0094 80.9711 91.9174 81.1202 94.2427 83.1176C95.5843 84.2505 97.7009 85.7411 99.758 85.0256C100.086 84.9063 100.563 84.7871 101.07 84.638L122.803 103.33Z" fill="#6A44C5"/>
<path d="M82.1091 73.6076L76.3852 68.2414C77.1007 68.0327 78.2335 67.9433 79.2472 68.6886C79.903 69.1656 80.6781 70.209 81.185 70.9245C81.9004 71.9977 82.0495 72.743 82.1091 73.6076Z" fill="#F1F1F1"/>
<path d="M79.7242 64.3061C79.3664 64.008 79.0683 63.0242 79.0683 63.0242C79.5453 62.4876 80.3204 62.0404 81.5129 61.8615C83.2122 61.623 84.1066 61.5038 85.4779 61.3547C85.15 63.6205 80.1117 64.6043 79.7242 64.3061Z" fill="#F1F1F1"/>
<path d="M75.0437 59.2082C71.496 59.2082 67.9484 58.9399 64.4305 58.7908C63.0294 58.7312 61.5387 58.7908 60.1972 59.2082C58.8855 59.6256 58.5575 60.6988 59.75 61.5634C61.1512 62.577 63.9535 62.9645 64.6392 60.9075C64.6988 60.7286 64.4902 60.6392 64.4305 60.8181C63.715 62.9049 60.5848 62.1 59.4221 60.9075C58.17 59.5659 61.4195 59.1784 62.1052 59.1188C63.6256 58.9697 65.1162 59.0889 66.6366 59.1784C66.6963 59.1784 66.7857 59.1784 66.8453 59.1784C66.1298 59.9535 65.8317 60.9373 65.5038 61.9211C65.4143 61.9509 65.3249 61.9807 65.2355 61.9807C64.4901 62.1298 63.7747 62.3683 63.1188 62.6962C61.9263 63.2925 61.2108 64.4551 61.0319 65.7669C60.9425 66.4227 61.0319 67.8239 62.0157 67.7047C63.3573 67.5258 64.1026 66.065 64.5796 64.9918C64.9373 64.157 65.2653 63.2925 65.5932 62.4279C65.623 62.3087 65.6826 62.2192 65.7125 62.1C66.3981 61.9211 67.1136 61.8317 67.5608 62.1298C67.5906 62.1596 67.6204 62.1894 67.6502 62.2192C66.8751 62.6366 66.1894 63.5608 66.4578 64.3657C66.8751 65.6774 67.6502 64.3061 67.8291 63.7098C67.9484 63.2925 68.0676 62.7558 67.9484 62.3683C68.008 62.3385 68.0676 62.3087 68.1571 62.3087C68.7831 62.1 68.962 62.5173 68.962 62.9943C68.7831 63.3223 68.6937 63.6502 68.7831 63.9483C68.8129 64.0676 68.962 64.0378 68.9918 63.9185C69.0812 63.6502 69.1707 63.3521 69.2005 63.0242C69.3197 62.8751 69.4986 62.726 69.6477 62.6366C70.0054 62.3981 70.4526 62.4577 70.6613 62.726C70.3632 63.054 70.1843 63.5012 70.3333 63.8887C70.3632 63.9483 70.4228 63.9781 70.4824 63.9483C70.87 63.7098 71.0786 63.203 70.9892 62.7857C71.1979 62.6664 71.4662 62.6068 71.7047 62.6962C71.7345 62.6962 71.9134 62.9943 72.0326 63.203C71.7643 63.4117 71.5556 63.7396 71.6153 64.0974C71.6153 64.157 71.7047 64.1868 71.7643 64.157C72.0326 63.9781 72.2115 63.6502 72.2413 63.2925C72.45 63.203 72.7183 63.2328 72.6885 63.5608C72.6885 63.6502 72.7481 63.7098 72.8376 63.6502C73.5531 63.203 73.881 63.7695 74.5667 63.7098C74.7157 63.7098 74.7754 63.4117 74.6263 63.4415C74.2387 63.4713 74.0002 63.2627 73.6425 63.1434C73.3742 63.054 73.1357 63.1732 72.927 63.3223C72.8674 62.9645 72.5693 62.9347 72.2711 63.054C72.2413 62.7558 72.0625 62.4577 71.7047 62.3683C71.4364 62.2789 71.1681 62.3683 70.9296 62.5173C70.8402 62.3385 70.6613 62.2192 70.393 62.1596C69.9756 62.0702 69.5582 62.3087 69.2303 62.6664C69.1707 62.2192 68.8725 61.8615 68.1869 62.0105C68.0974 62.0404 67.9782 62.0702 67.8887 62.1C67.7695 61.8913 67.531 61.7124 67.1732 61.6826C66.7261 61.6528 66.2789 61.7422 65.8317 61.8317C66.1298 60.9671 66.3981 60.0429 67.0242 59.3573C67.0838 59.2976 67.0838 59.2082 67.054 59.1486C69.7073 59.2976 72.3606 59.4169 75.0139 59.4467C75.1331 59.5063 75.2225 59.2082 75.0437 59.2082ZM64.4007 64.9023C63.9833 65.8861 63.2082 67.4364 61.9263 67.4364C60.704 67.4065 61.4195 65.0216 61.658 64.5148C62.1648 63.3521 63.3871 62.8155 64.5498 62.4577C64.7883 62.3981 65.1162 62.2789 65.474 62.1894C65.146 63.0838 64.7883 64.008 64.4007 64.9023ZM70.7209 63.3819C70.4526 63.3223 70.4824 63.1732 70.7805 62.9943C70.7805 63.0838 70.7805 63.2328 70.7209 63.3819ZM67.7695 62.4577C67.8589 62.8155 67.7099 63.2627 67.6502 63.531C67.5906 63.7397 67.5012 63.9781 67.4117 64.1868C67.0838 64.9023 66.5174 64.3359 66.6366 63.7397C66.7559 63.203 67.2627 62.726 67.7695 62.4577Z" fill="#181818"/>
</g>
</svg>
