<svg width="155" height="156" viewBox="0 0 155 156" fill="none" xmlns="http://www.w3.org/2000/svg">
<mask id="mask0_73_5039" style="mask-type:alpha" maskUnits="userSpaceOnUse" x="0" y="0" width="155" height="156">
<circle cx="77.5004" cy="78.0234" r="76.9194" fill="#AE8FF7" stroke="#AE8FF7"/>
</mask>
<g mask="url(#mask0_73_5039)">
<circle cx="77.5004" cy="78.0234" r="77.4194" fill="#DCCEFF"/>
<path d="M75.3185 117.884H73.5071V149.468H75.3185V117.884Z" fill="#897C76"/>
<path d="M75.3185 117.884H73.5071V123.136H75.3185V117.884Z" fill="#6D625E"/>
<path d="M87.4412 113.57H61.4192V118.962H87.4412V113.57Z" fill="#AE8FF7"/>
<path d="M87.4412 118.197H61.4192V120.458H87.4412V118.197Z" fill="#6A44C5"/>
<path d="M79.5684 150.894H69.4662C69.3268 150.894 69.2223 150.86 69.1178 150.825C68.9088 150.721 68.7346 150.477 68.7346 150.199C68.7346 150.025 68.8043 149.886 68.874 149.747C69.0133 149.573 69.1875 149.468 69.4313 149.468H79.5336C79.7774 149.468 80.0213 149.607 80.1258 149.816C80.1955 149.92 80.2303 150.06 80.2303 150.199C80.2303 150.442 80.1258 150.651 79.9516 150.755C79.8471 150.825 79.7078 150.894 79.5684 150.894Z" fill="#2E3642"/>
<path d="M70.5112 151.694C70.5112 152.495 69.8494 153.155 69.0481 153.155C68.2469 153.155 67.5851 152.495 67.5851 151.694C67.5851 150.894 68.2469 150.233 69.0481 150.233C69.8494 150.199 70.5112 150.86 70.5112 151.694Z" fill="#1E2733"/>
<path d="M69.919 151.694C69.919 152.181 69.5358 152.564 69.0481 152.564C68.5604 152.564 68.1772 152.181 68.1772 151.694C68.1772 151.207 68.5604 150.825 69.0481 150.825C69.5358 150.79 69.919 151.207 69.919 151.694Z" fill="#897C76"/>
<path d="M81.2754 151.694C81.2754 152.495 80.6135 153.155 79.8123 153.155C79.0111 153.155 78.3492 152.495 78.3492 151.694C78.3492 150.894 79.0111 150.233 79.8123 150.233C80.6135 150.199 81.2754 150.86 81.2754 151.694Z" fill="#1E2733"/>
<path d="M80.6832 151.694C80.6832 152.181 80.3 152.564 79.8123 152.564C79.3246 152.564 78.9414 152.181 78.9414 151.694C78.9414 151.207 79.3246 150.825 79.8123 150.825C80.3 150.825 80.6832 151.207 80.6832 151.694Z" fill="#897C76"/>
<path d="M64.9027 103.344L58.284 108.874L63.997 114.301C63.997 114.301 73.3677 117.397 84.7241 114.301L91.2731 109.535L84.3409 101.952L64.9027 103.344Z" fill="#1E2733"/>
<path d="M86.9884 75.5853L93.9903 84.6294L94.5477 97.5693L84.3757 87.5165L86.9884 75.5853Z" fill="#A987FA"/>
<path d="M44.524 75.5853L43.479 74.0895C43.479 74.0895 43.6183 71.2719 42.7126 70.8197C41.8417 70.3675 41.0056 68.0717 40.5528 68.3848C40.0999 68.6631 40.0651 69.7066 40.5528 70.298C41.0405 70.8893 41.4237 71.4807 41.4237 71.4807C41.4237 71.4807 37.3828 70.7502 36.8951 70.6458C36.4074 70.5415 35.0836 68.4544 34.8049 68.7674C34.5262 69.0457 35.0139 70.3675 35.641 71.098C35.641 71.098 33.8295 69.324 33.725 69.6718C33.6205 70.0197 34.4914 71.6198 35.223 71.9676C35.223 71.9676 33.0283 70.5762 32.889 70.8545C32.7496 71.1328 33.6902 72.4546 34.3869 72.8373C34.3869 72.8373 32.2271 71.4807 32.2271 72.0024C32.2271 72.6981 34.2127 74.4026 34.9094 74.6809C36.6164 75.3418 39.3335 75.794 40.8315 75.6548L41.7023 77.5332L44.524 75.5853Z" fill="#FFC585"/>
<path d="M42.5732 80.003L41.4237 79.2725L40.4134 77.255L45.0814 74.9244L46.2658 76.8028L42.5732 80.003Z" fill="#EFEFEF"/>
<path d="M61.8372 75.5853L53.198 86.3338L46.2309 76.768L41.3888 79.2377C41.3888 79.2377 48.8784 95.0996 51.5608 95.517C54.2431 95.9344 63.997 87.5165 63.997 87.5165L61.8372 75.5853Z" fill="#A987FA"/>
<path d="M70.6854 74.6462C70.4067 74.6462 68.0031 79.9335 68.0031 79.9335L74.4476 87.5513L81.2405 77.2898L76.6074 72.5243L70.6854 74.6462Z" fill="#D8D8D8"/>
<path d="M74.4128 87.5165L76.4332 84.8381L75.1443 77.255H74.4128H73.7161L72.3923 84.8381L74.4128 87.5165Z" fill="#CE4141"/>
<path d="M75.4927 74.6808L74.4476 74.2634H74.4128L73.3677 74.6808L72.9497 75.3418L73.7161 77.2549H74.378H74.4825H75.1443L75.8759 75.3418L75.4927 74.6808Z" fill="#BC3737"/>
<path d="M86.9884 75.5853L80.1955 71.8981L78.0008 83.4814L74.4476 87.5164L70.8596 83.4814L68.665 71.8981L61.8372 75.5853C61.8372 75.5853 61.6282 95.5517 64.2409 103.344H73.8206H74.378H84.5151C87.1974 95.5865 86.9884 75.5853 86.9884 75.5853Z" fill="#6A44C5"/>
<path d="M66.5748 96.7693L62.9519 97.1867C62.9519 97.1867 63.161 100.178 62.3597 102.23C61.5934 104.283 61.4192 106.266 61.4192 106.266C61.4192 106.266 63.997 105.187 65.5646 105.883C67.1322 106.544 69.5358 108.387 71.1383 108.353C71.1383 108.353 74.6566 107.344 75.0398 103.831L66.5748 96.7693Z" fill="#2D136C"/>
<path d="M82.2856 96.7693L85.8737 97.1867C85.8737 97.1867 85.6995 100.178 86.4659 102.23C87.2322 104.283 88.1728 106.092 88.1728 106.092C88.1728 106.092 84.8286 105.187 83.261 105.848C81.6934 106.509 79.2898 108.353 77.6873 108.318C77.6873 108.318 74.169 107.309 73.7858 103.796L82.2856 96.7693Z" fill="#2D136C"/>
<path d="M70.4067 74.6461C70.4067 74.6461 70.8596 81.0465 74.4476 87.5512C74.4476 87.5512 69.8494 84.2467 68.1424 82.1596C68.1424 82.1596 65.8433 77.6028 68.6998 71.9328L71.6608 70.1936L70.4067 74.6461Z" fill="#3A4556"/>
<path d="M78.4537 74.6461C78.4537 74.6461 78.0008 81.0465 74.4128 87.5512C74.4128 87.5512 79.0111 84.2467 80.718 82.1596C80.718 82.1596 83.0171 77.6028 80.1606 71.9328L77.1996 70.1936L78.4537 74.6461Z" fill="#3A4556"/>
<path d="M78.6279 47.9314C78.6279 47.9314 77.757 44.7312 73.089 45.3573C68.3166 46.0182 64.3454 49.8793 64.9376 55.9667C65.5298 62.0888 69.9539 63.4106 69.9539 63.4106L82.4946 60.7322C82.4946 60.7322 85.6995 56.3493 84.3409 51.9317C82.8081 46.7487 78.6279 47.9314 78.6279 47.9314Z" fill="#543239"/>
<path d="M79.4291 71.4806C79.4291 71.4806 78.7672 70.2632 78.175 69.7414C77.0603 68.7674 74.4128 68.5935 74.4128 68.5935C74.4128 68.5935 71.8001 68.8022 70.6506 69.7414C70.0584 70.2632 69.3965 71.4806 69.3965 71.4806C69.3965 71.4806 67.7244 75.0287 69.3965 77.9506C69.3965 77.9506 71.5215 75.4461 74.4128 75.0983C77.3041 75.4461 79.4291 77.9506 79.4291 77.9506C81.1012 75.0287 79.4291 71.4806 79.4291 71.4806Z" fill="#EFEFEF"/>
<path d="M76.6423 65.7064L74.4128 66.8195L72.1833 65.7064C72.4272 67.6544 71.1034 70.7154 71.1034 70.7154C71.3473 73.3939 74.4128 74.6461 74.4128 74.6461C74.4128 74.6461 77.4783 73.3939 77.7222 70.7154C77.7222 70.7154 76.4332 67.6196 76.6423 65.7064Z" fill="#EAA663"/>
<path d="M82.3553 56.0362C81.7282 49.5315 74.4825 49.775 74.4825 49.775C74.4825 49.775 67.2367 49.5315 66.6097 56.0362C66.2613 59.8626 68.2818 69.6371 74.4825 69.6371C80.6832 69.6023 82.7385 59.8626 82.3553 56.0362Z" fill="#FFC585"/>
<path d="M77.2345 64.489L74.4476 64.7673L71.6608 64.489H71.3124C71.5911 66.2978 72.88 67.6544 74.4476 67.6544C76.0152 67.6544 77.3041 66.2978 77.5828 64.489H77.2345Z" fill="#543239"/>
<path d="M77.0951 65.9499C76.2939 65.776 75.4579 65.7064 74.5173 65.7064C73.5419 65.7064 72.6362 65.8108 71.8001 65.9847C72.3575 66.9935 73.3329 67.6544 74.4128 67.6544C75.5624 67.6544 76.5029 66.9587 77.0951 65.9499Z" fill="#CE5555"/>
<path d="M76.7468 65.0804H72.1485C71.8698 65.0804 71.6608 64.8716 71.6608 64.5934V64.489H77.2345V64.5934C77.2345 64.8716 77.0254 65.0804 76.7468 65.0804Z" fill="#FFE9E9"/>
<path d="M78.4189 52.036C78.4189 52.036 74.9353 54.3666 71.6608 54.0187C67.7592 53.6013 67.4109 57.9146 67.7592 60.4539L66.9929 60.6974L65.2511 53.497L72.7755 47.8966L78.1054 48.3488L81.7979 50.262L83.5745 52.8013L83.8532 55.5493L82.9823 57.9494L82.1811 59.3756L81.6934 60.4191L81.3102 60.3496C81.345 60.3843 83.0171 53.8448 78.4189 52.036Z" fill="#543239"/>
<path d="M81.554 60.5931C81.554 60.5931 82.4249 58.4364 83.5048 58.9234C84.3409 59.306 83.9577 61.8801 82.7036 62.8193C81.4495 63.7585 81.2754 62.0193 81.2754 62.0193L81.554 60.5931Z" fill="#FFC585"/>
<path d="M83.0171 59.9669C83.0171 59.9669 82.2159 60.28 82.1463 61.0452C82.1114 61.6018 82.634 61.5322 82.7036 61.1844C82.7733 60.8365 82.4946 60.9061 82.4946 60.9061C82.4946 60.9061 82.5643 60.3148 83.0171 59.9669Z" fill="#EAA663"/>
<path d="M72.1485 58.9233C72.1485 59.3408 71.8698 59.6886 71.5563 59.6886C71.2428 59.6886 70.9641 59.3408 70.9641 58.9233C70.9641 58.5059 71.2428 58.1581 71.5563 58.1581C71.9047 58.1929 72.1485 58.5059 72.1485 58.9233Z" fill="#28171B"/>
<path d="M78.0705 59.6886C78.3976 59.6886 78.6627 59.346 78.6627 58.9233C78.6627 58.5007 78.3976 58.1581 78.0705 58.1581C77.7435 58.1581 77.4783 58.5007 77.4783 58.9233C77.4783 59.346 77.7435 59.6886 78.0705 59.6886Z" fill="#28171B"/>
<path d="M69.6055 57.7059C69.6055 57.7059 70.6506 55.3405 71.9743 57.045C71.9743 57.045 70.6506 56.5928 69.6055 57.7059Z" fill="#543239"/>
<path d="M79.3942 57.7059C79.3942 57.7059 78.3492 55.3405 77.0254 57.045C77.0254 57.045 78.3143 56.5928 79.3942 57.7059Z" fill="#543239"/>
<path d="M73.5419 60.7322C73.5419 60.7322 73.1587 62.1931 73.4722 62.4366C73.7858 62.7149 74.9353 62.5062 74.9353 62.5062C74.9353 62.5062 74.6566 63.2715 74.2386 63.1671C73.8206 63.028 72.9845 62.7497 73.0542 62.2627C73.089 61.7409 73.5419 60.7322 73.5419 60.7322Z" fill="#EAA663"/>
<path d="M74.4128 92.0733C74.7399 92.0733 75.005 91.8086 75.005 91.482C75.005 91.1554 74.7399 90.8906 74.4128 90.8906C74.0857 90.8906 73.8206 91.1554 73.8206 91.482C73.8206 91.8086 74.0857 92.0733 74.4128 92.0733Z" fill="#EFEFEF"/>
<path d="M74.4128 98.752C74.7399 98.752 75.005 98.4873 75.005 98.1607C75.005 97.8341 74.7399 97.5693 74.4128 97.5693C74.0857 97.5693 73.8206 97.8341 73.8206 98.1607C73.8206 98.4873 74.0857 98.752 74.4128 98.752Z" fill="#EFEFEF"/>
<path d="M70.7899 66.8196L69.083 66.3326C68.1772 66.0891 67.4805 65.3586 67.2715 64.4542L66.8883 62.8193L67.167 62.7498L67.5502 64.3846C67.7592 65.1847 68.3514 65.8108 69.1526 66.0543L70.8596 66.5413L70.7899 66.8196Z" fill="#2E3642"/>
<path d="M66.4355 57.2537C65.0769 57.6711 64.1712 58.9929 64.3454 60.4539C64.5195 61.9148 65.7039 62.9584 67.0974 63.0627L66.4355 57.2537Z" fill="#2E3642"/>
<path d="M67.4109 63.2715L66.8187 63.3411C66.7838 63.3411 66.7142 63.3411 66.6793 63.3063C66.6097 63.2715 66.5748 63.2019 66.5748 63.1323L65.8433 57.1146C65.8433 57.045 65.8781 56.9754 65.9129 56.9407C65.9478 56.9059 65.9826 56.8711 66.0523 56.8711L66.6445 56.8015C66.7142 56.8015 66.7838 56.8363 66.8535 56.8711C66.8883 56.9059 66.8883 56.9407 66.8883 56.9754L67.6199 62.9932C67.6199 63.0628 67.6199 63.0976 67.585 63.1671C67.5154 63.2367 67.4805 63.2715 67.4109 63.2715Z" fill="#3A4556"/>
<path d="M70.8596 67.0631L70.0235 66.8891C69.9539 66.8891 69.8842 66.8196 69.8145 66.7848C69.71 66.6804 69.6752 66.5413 69.71 66.4022C69.71 66.3326 69.7797 66.263 69.8145 66.1934C69.919 66.0891 70.0584 66.0543 70.1977 66.0891L71.0338 66.263C71.1383 66.2978 71.2428 66.3674 71.2776 66.4369C71.3473 66.5413 71.3473 66.6456 71.3473 66.75C71.3124 66.8544 71.2776 66.9239 71.2079 66.9935C71.1383 67.0631 70.9989 67.0979 70.8596 67.0631Z" fill="#3A4556"/>
<path d="M65.8781 147.972L58.6324 148.216L55.9152 114.092C55.532 110.788 58.075 107.9 61.4192 107.9C64.6241 107.9 67.167 110.614 66.958 113.814L65.8781 147.972Z" fill="#2E3642"/>
<path d="M58.6672 148.216C58.6672 148.216 55.2185 153.121 55.2185 154.442C55.2185 154.825 55.2185 155.069 55.2185 155.277C55.2185 155.416 55.2882 155.521 55.3578 155.625C55.4623 155.695 55.5668 155.764 55.7062 155.764H66.54C66.6445 155.764 66.749 155.729 66.8187 155.695C66.958 155.59 67.0277 155.451 67.0625 155.277C67.0625 154.964 67.0625 154.547 66.958 153.921C66.749 152.634 65.9478 148.007 65.9478 148.007L58.6672 148.216Z" fill="#1E2733"/>
<path d="M55.1837 154.442C55.1837 154.825 55.1837 155.069 55.1837 155.277C55.1837 155.416 55.2533 155.521 55.323 155.625C55.4275 155.695 55.532 155.764 55.6714 155.764H66.5052C66.6097 155.764 66.7142 155.729 66.7838 155.695C66.9232 155.59 66.9929 155.451 67.0277 155.277C67.0277 154.964 67.0277 154.547 66.9232 153.921C66.9232 153.886 66.9232 153.851 66.9232 153.816H55.3578C55.2533 154.06 55.1837 154.268 55.1837 154.442Z" fill="#2E3642"/>
<path d="M82.9475 147.972L90.1932 148.216L92.9104 114.092C93.2936 110.788 90.7506 107.9 87.4064 107.9C84.2015 107.9 81.6586 110.614 81.8676 113.814L82.9475 147.972Z" fill="#2E3642"/>
<path d="M90.1932 148.216C90.1932 148.216 93.6419 153.121 93.6419 154.442C93.6419 154.825 93.6419 155.069 93.6419 155.277C93.6419 155.416 93.5723 155.521 93.5026 155.625C93.3981 155.695 93.2936 155.764 93.1542 155.764H82.3204C82.2159 155.764 82.1114 155.729 82.0417 155.695C81.9024 155.59 81.8327 155.451 81.7979 155.277C81.7979 154.964 81.7979 154.547 81.9024 153.921C82.1114 152.634 82.9126 148.007 82.9126 148.007L90.1932 148.216Z" fill="#1E2733"/>
<path d="M93.6419 154.442C93.6419 154.825 93.6419 155.069 93.6419 155.277C93.6419 155.416 93.5723 155.521 93.5026 155.625C93.3981 155.695 93.2936 155.764 93.1542 155.764H82.3204C82.2159 155.764 82.1114 155.729 82.0417 155.695C81.9024 155.59 81.8327 155.451 81.7979 155.277C81.7979 154.964 81.7979 154.547 81.9024 153.921C81.9024 153.886 81.9024 153.851 81.9024 153.816H93.4678C93.5723 154.06 93.6419 154.268 93.6419 154.442Z" fill="#2E3642"/>
<path d="M71.9046 101.917H95.9759C96.0108 101.917 96.0804 101.883 96.1153 101.848C96.1501 101.813 96.1849 101.778 96.1849 101.709V100.561C96.1849 100.526 96.1501 100.456 96.1153 100.422C96.0804 100.387 96.0456 100.352 95.9759 100.352H71.9046C71.8698 100.352 71.8001 100.387 71.8001 100.387C71.7653 100.422 71.7305 100.456 71.7305 100.526V101.674C71.7305 101.709 71.7653 101.778 71.8001 101.813C71.8001 101.883 71.835 101.917 71.9046 101.917Z" fill="#8767D5"/>
<path d="M110.084 100.387H86.7097C86.5355 100.387 86.3613 100.352 86.222 100.282C85.804 100.074 85.5253 99.5868 85.6646 99.065L89.601 83.3423C89.6359 83.1684 89.7404 82.9944 89.8449 82.8901C90.0539 82.6814 90.3326 82.5422 90.6461 82.5422H114.021C114.299 82.5422 114.578 82.6466 114.752 82.8553C115.031 83.0988 115.135 83.4814 115.066 83.8988L111.129 99.6216C111.06 99.8651 110.92 100.039 110.746 100.213C110.572 100.317 110.328 100.387 110.084 100.387Z" fill="#6A44C5"/>
<path d="M110.99 100.387H87.6154C87.4412 100.387 87.2671 100.352 87.1277 100.282C86.7097 100.074 86.431 99.5868 86.5704 99.065L90.5068 83.3423C90.5416 83.1684 90.6461 82.9944 90.7506 82.8901C90.9596 82.6814 91.2383 82.5422 91.5518 82.5422H114.926C115.205 82.5422 115.484 82.6466 115.658 82.8553C115.937 83.0988 116.041 83.4814 115.971 83.8988L112.035 99.6216C111.965 99.8651 111.826 100.039 111.652 100.213C111.478 100.317 111.234 100.387 110.99 100.387Z" fill="white"/>
<path d="M103.779 92.3863C103.535 93.8125 102.525 94.9952 101.55 94.9952C100.574 94.9952 99.982 93.8473 100.226 92.3863C100.47 90.9254 101.48 89.7775 102.455 89.7775C103.431 89.7775 104.023 90.9601 103.779 92.3863Z" fill="#AE8FF7"/>
<path d="M86.7097 101.917H110.781C110.816 101.917 110.885 101.883 110.92 101.848C110.955 101.813 110.99 101.778 110.99 101.709V100.561C110.99 100.526 110.955 100.456 110.92 100.422C110.885 100.387 110.851 100.352 110.781 100.352H86.7097C86.6749 100.352 86.6052 100.387 86.6052 100.387C86.5704 100.422 86.5355 100.456 86.5355 100.526V101.674C86.5355 101.709 86.5704 101.778 86.6052 101.813C86.64 101.883 86.6749 101.917 86.7097 101.917Z" fill="#6A44C5"/>
<path d="M54.905 59.2365C54.905 59.2365 51.7001 58.6451 50.1325 56.071C51.6304 53.8796 52.0136 51.3055 50.8989 49.1837C49.1223 45.8095 44.2453 44.8703 39.9606 47.0966C35.7107 49.3228 33.6902 53.8796 35.4668 57.2537C37.2434 60.6279 42.1204 61.567 46.4051 59.3408C47.0322 58.993 47.6244 58.6103 48.1817 58.1929C48.983 58.9582 51.0731 60.2104 54.905 59.2365Z" fill="#EDEDED"/>
<path d="M55.4275 59.2365C55.4275 59.2365 52.2227 58.6451 50.6551 56.071C52.153 53.8796 52.5362 51.3055 51.4214 49.1837C49.6448 45.8095 44.7679 44.8703 40.4831 47.0966C36.2332 49.3228 34.2127 53.8796 35.9893 57.2537C37.766 60.6279 42.6429 61.567 46.9277 59.3408C47.5547 58.993 48.1469 58.6103 48.7043 58.1929C49.5055 58.9582 51.5956 60.2104 55.4275 59.2365Z" fill="white"/>
<path d="M43.3744 51.062C42.5732 51.1663 41.9462 51.7924 41.8417 52.5577C41.772 53.1838 42.0159 53.7752 42.4687 54.123C42.6081 54.2274 42.7126 54.3665 42.7822 54.5056C42.8867 54.6796 42.9216 54.8883 42.9216 55.097H44.2105C44.2105 54.9231 44.2453 54.7491 44.315 54.61C44.3847 54.4361 44.524 54.2622 44.6982 54.123C45.0814 53.8099 45.3252 53.323 45.3252 52.8012C45.3252 51.7576 44.4543 50.9228 43.3744 51.062Z" fill="#AE8FF7"/>
<path d="M44.2802 55.2362H42.9216V55.6188H44.2802V55.2362Z" fill="#AE8FF7"/>
<path d="M43.2699 56.071C43.3396 56.1058 43.4093 56.1406 43.5138 56.1406H43.688C43.7925 56.1406 43.897 56.1058 43.9666 56.0014C44.0363 55.9319 44.0712 55.8275 44.0712 55.7231H43.1306C43.0958 55.8971 43.1654 56.0014 43.2699 56.071Z" fill="#AE8FF7"/>
<path d="M43.5835 50.4707C43.7228 50.4707 43.8273 50.3663 43.8273 50.2272V49.5662C43.8273 49.4271 43.7228 49.3228 43.5835 49.3228C43.4441 49.3228 43.3396 49.4271 43.3396 49.5662V50.2272C43.3396 50.3663 43.4441 50.4707 43.5835 50.4707Z" fill="#AE8FF7"/>
<path d="M42.0159 50.6794C42.0507 50.7489 42.1552 50.7837 42.2249 50.7837C42.2597 50.7837 42.3294 50.7837 42.3642 50.7489C42.4687 50.6794 42.5036 50.5054 42.4339 50.4011L42.0507 49.8445C41.981 49.7402 41.8068 49.7054 41.7023 49.775C41.5978 49.8445 41.563 50.0185 41.6327 50.1228L42.0159 50.6794Z" fill="#AE8FF7"/>
<path d="M41.3888 51.4446L40.7966 51.1663C40.6573 51.0967 40.5179 51.1663 40.4483 51.2707C40.3786 51.4098 40.4483 51.5489 40.5528 51.6185L41.145 51.8968C41.1798 51.9316 41.2147 51.9316 41.2495 51.9316C41.354 51.9316 41.4237 51.8968 41.4585 51.7924C41.563 51.6533 41.4933 51.5142 41.3888 51.4446Z" fill="#AE8FF7"/>
<path d="M45.1162 49.8445L44.733 50.4011C44.6634 50.5054 44.6982 50.6794 44.8027 50.7489C44.8375 50.7837 44.9072 50.7837 44.942 50.7837C45.0117 50.7837 45.1162 50.7489 45.151 50.6794L45.5342 50.1228C45.6039 50.0185 45.5691 49.8445 45.4646 49.775C45.3601 49.7054 45.1859 49.7402 45.1162 49.8445Z" fill="#AE8FF7"/>
<path d="M46.7186 51.2707C46.649 51.1316 46.5096 51.0968 46.3703 51.1664L45.7781 51.4447C45.6387 51.5142 45.6039 51.6534 45.6736 51.7925C45.7084 51.8969 45.8129 51.9316 45.8826 51.9316C45.9174 51.9316 45.9523 51.9316 45.9871 51.8969L46.5793 51.6186C46.7186 51.549 46.7883 51.4099 46.7186 51.2707Z" fill="#AE8FF7"/>
<path d="M67.8986 30.7129C66.958 28.3824 63.8228 27.4432 60.8618 28.6259C57.9008 29.8085 56.2984 32.6261 57.2041 34.9567C58.0402 37.0786 60.7225 38.0525 63.4048 37.322C63.9622 38.0525 64.8331 38.9569 66.0175 39.6874H66.54L65.5994 38.3308L65.5646 38.3656C65.3904 37.8786 65.2163 37.2525 65.0421 36.6611C67.5154 35.3393 68.7346 32.8348 67.8986 30.7129Z" fill="#EDEDED"/>
<path d="M68.4211 30.7129C67.4806 28.3824 64.3454 27.4432 61.3844 28.6259C58.4234 29.8085 56.8209 32.6261 57.7266 34.9567C58.5627 37.0786 61.245 38.0525 63.9273 37.322C64.5195 38.0525 65.3904 38.9917 66.5748 39.6874C66.5748 39.6874 66.0175 38.1917 65.5994 36.6264C68.0031 35.3393 69.2572 32.8348 68.4211 30.7129Z" fill="white"/>
<path d="M60.2348 32.5565L62.8474 35.6176L65.4601 30.3303L62.5688 33.774L60.2348 32.5565Z" fill="#AE8FF7"/>
<path d="M104.302 60.4191C99.6685 58.5756 94.7218 60.0365 93.2239 63.6889C92.7362 64.9064 92.7014 66.1934 93.0149 67.4457C91.5867 67.6892 89.5314 67.8631 87.7896 67.4109L87.3716 67.063H86.8839C86.8839 67.063 89.2179 70.5763 94.2342 69.985C95.3141 71.5503 96.9513 72.8721 99.0066 73.7069C103.64 75.5505 108.586 74.0896 110.084 70.4372C111.513 66.75 108.97 62.2627 104.302 60.4191Z" fill="#EDEDED"/>
<path d="M104.859 60.4191C100.226 58.5756 95.2792 60.0365 93.7813 63.6889C93.2936 64.9064 93.2588 66.1934 93.5723 67.4457C91.8653 67.7239 89.2527 67.9327 87.4064 67.063C87.4064 67.063 89.7404 70.5763 94.7567 69.985C95.8366 71.5503 97.4738 72.8721 99.5291 73.7069C104.162 75.5505 109.109 74.0896 110.607 70.4372C112.035 66.75 109.492 62.2627 104.859 60.4191Z" fill="white"/>
<path d="M102.037 63.9324C103.048 63.9324 103.709 64.4194 103.709 65.3238C103.709 66.4021 102.769 66.6108 102.525 67.3413C102.49 67.4109 102.455 67.4804 102.42 67.5152C102.351 67.6196 102.211 67.6543 102.072 67.6543C101.933 67.6543 101.793 67.5848 101.689 67.4804C101.619 67.3761 101.584 67.2021 101.619 67.063C101.863 66.3673 102.56 66.1934 102.56 65.5325C102.56 65.1498 102.316 64.9759 101.898 64.9759C101.584 64.9759 101.341 65.1151 101.236 65.3933C101.201 65.4977 101.132 65.5673 101.062 65.6368C100.992 65.7064 100.888 65.7412 100.783 65.7412H100.714C100.609 65.7412 100.505 65.7064 100.435 65.6368C100.296 65.5325 100.226 65.3238 100.261 65.1498C100.539 64.3846 101.132 63.9324 102.037 63.9324ZM102.595 68.9762C102.595 69.3588 102.351 69.6023 101.968 69.6023C101.619 69.6023 101.341 69.324 101.341 68.9762C101.341 68.5935 101.619 68.35 101.968 68.35C102.351 68.35 102.595 68.5935 102.595 68.9762Z" fill="#AE8FF7"/>
<path d="M78.0705 38.47C77.966 38.47 77.8963 38.4004 77.8963 38.2961V37.183C77.8963 37.0786 77.966 37.009 78.0705 37.009C78.175 37.009 78.2447 37.0786 78.2447 37.183V38.2961C78.2447 38.4004 78.175 38.47 78.0705 38.47ZM78.2447 40.4179V39.3048C78.2447 39.2005 78.175 39.1309 78.0705 39.1309C77.966 39.1309 77.8963 39.2005 77.8963 39.3048V40.4179C77.8963 40.5223 77.966 40.5919 78.0705 40.5919C78.175 40.5571 78.2447 40.4875 78.2447 40.4179ZM79.8471 38.7831C79.8471 38.6787 79.7775 38.6091 79.6729 38.6091H78.5582C78.4537 38.6091 78.384 38.6787 78.384 38.7831C78.384 38.8874 78.4537 38.957 78.5582 38.957H79.6729C79.7775 38.957 79.8471 38.8874 79.8471 38.7831ZM77.757 38.7831C77.757 38.6787 77.6873 38.6091 77.5828 38.6091H76.4681C76.3636 38.6091 76.2939 38.6787 76.2939 38.7831C76.2939 38.8874 76.3636 38.957 76.4681 38.957H77.5828C77.6873 38.957 77.757 38.8874 77.757 38.7831Z" fill="#AE8FF7"/>
<path d="M32.2968 92.0386C32.1923 92.0386 32.1226 91.969 32.1226 91.8647V90.7516C32.1226 90.6472 32.1923 90.5776 32.2968 90.5776C32.4013 90.5776 32.471 90.6472 32.471 90.7516V91.8647C32.4361 91.969 32.3665 92.0386 32.2968 92.0386ZM32.4361 93.9865V92.8734C32.4361 92.7691 32.3665 92.6995 32.262 92.6995C32.1575 92.6995 32.0878 92.7691 32.0878 92.8734V93.9865C32.0878 94.0909 32.1575 94.1605 32.262 94.1605C32.3665 94.1605 32.4361 94.0909 32.4361 93.9865ZM34.0734 92.3864C34.0734 92.2821 34.0037 92.2125 33.8992 92.2125H32.7845C32.68 92.2125 32.6103 92.2821 32.6103 92.3864C32.6103 92.4908 32.68 92.5604 32.7845 92.5604H33.8992C33.9689 92.5256 34.0734 92.456 34.0734 92.3864ZM31.9484 92.3864C31.9484 92.2821 31.8788 92.2125 31.7743 92.2125H30.6595C30.555 92.2125 30.4854 92.2821 30.4854 92.3864C30.4854 92.4908 30.555 92.5604 30.6595 92.5604H31.7743C31.8788 92.5256 31.9484 92.456 31.9484 92.3864Z" fill="#AE8FF7"/>
<path d="M42.4687 33.6001C42.3642 33.6001 42.2946 33.5306 42.2946 33.4262V32.3131C42.2946 32.2087 42.3642 32.1392 42.4687 32.1392C42.5732 32.1392 42.6429 32.2087 42.6429 32.3131V33.4262C42.6429 33.5306 42.5732 33.6001 42.4687 33.6001ZM42.6429 35.5481V34.435C42.6429 34.3306 42.5732 34.261 42.4687 34.261C42.3642 34.261 42.2946 34.3306 42.2946 34.435V35.5481C42.2946 35.6524 42.3642 35.722 42.4687 35.722C42.5732 35.6872 42.6429 35.6176 42.6429 35.5481ZM44.2453 33.9132C44.2453 33.8088 44.1757 33.7393 44.0712 33.7393H42.9564C42.8519 33.7393 42.7822 33.8088 42.7822 33.9132C42.7822 34.0175 42.8519 34.0871 42.9564 34.0871H44.0712C44.1757 34.0871 44.2453 34.0175 44.2453 33.9132ZM42.1552 33.9132C42.1552 33.8088 42.0855 33.7393 41.981 33.7393H40.8663C40.7618 33.7393 40.6921 33.8088 40.6921 33.9132C40.6921 34.0175 40.7618 34.0871 40.8663 34.0871H41.981C42.0855 34.0871 42.1552 34.0175 42.1552 33.9132Z" fill="#AE8FF7"/>
<path d="M115.867 77.6377C115.762 77.6377 115.693 77.5681 115.693 77.4638V76.3507C115.693 76.2463 115.762 76.1768 115.867 76.1768C115.971 76.1768 116.041 76.2463 116.041 76.3507V77.4638C116.041 77.5681 115.971 77.6377 115.867 77.6377ZM116.041 79.5509V78.4378C116.041 78.3334 115.971 78.2638 115.867 78.2638C115.762 78.2638 115.693 78.3334 115.693 78.4378V79.5509C115.693 79.6552 115.762 79.7248 115.867 79.7248C115.971 79.7248 116.041 79.6552 116.041 79.5509ZM117.644 77.9508C117.644 77.8464 117.574 77.7769 117.469 77.7769H116.355C116.25 77.7769 116.18 77.8464 116.18 77.9508C116.18 78.0551 116.25 78.1247 116.355 78.1247H117.469C117.574 78.1247 117.644 78.0551 117.644 77.9508ZM115.553 77.9508C115.553 77.8464 115.484 77.7769 115.379 77.7769H114.265C114.16 77.7769 114.09 77.8464 114.09 77.9508C114.09 78.0551 114.16 78.1247 114.265 78.1247H115.379C115.484 78.1247 115.553 78.0551 115.553 77.9508Z" fill="#AE8FF7"/>
<path d="M55.4275 70.472C55.323 70.472 55.2533 70.4024 55.2533 70.298V69.1849C55.2533 69.0806 55.323 69.011 55.4275 69.011C55.532 69.011 55.6017 69.0806 55.6017 69.1849V70.298C55.6017 70.4024 55.532 70.472 55.4275 70.472ZM55.6017 72.4199V71.3068C55.6017 71.2024 55.532 71.1329 55.4275 71.1329C55.323 71.1329 55.2533 71.2024 55.2533 71.3068V72.4199C55.2533 72.5243 55.323 72.5938 55.4275 72.5938C55.532 72.5938 55.6017 72.5243 55.6017 72.4199ZM57.2041 70.8198C57.2041 70.7154 57.1344 70.6459 57.0299 70.6459H55.9152C55.8107 70.6459 55.741 70.7154 55.741 70.8198C55.741 70.9242 55.8107 70.9937 55.9152 70.9937H57.0299C57.1344 70.9589 57.2041 70.8894 57.2041 70.8198ZM55.114 70.8198C55.114 70.7154 55.0443 70.6459 54.9398 70.6459H53.8251C53.7206 70.6459 53.6509 70.7154 53.6509 70.8198C53.6509 70.9242 53.7206 70.9937 53.8251 70.9937H54.9398C55.0443 70.9589 55.114 70.8894 55.114 70.8198Z" fill="#AE8FF7"/>
<path d="M32.9587 104.804H30.5899V155.729H32.9587V104.804Z" fill="#6A44C5"/>
<path d="M118.236 104.804H115.867V155.729H118.236V104.804Z" fill="#6A44C5"/>
<path d="M38.8458 104.804H36.477V155.729H38.8458V104.804Z" fill="#B49CED"/>
<path d="M112.314 104.804H109.945V155.729H112.314V104.804Z" fill="#B49CED"/>
<path d="M122.59 101.917H26.2703V106.3H122.59V101.917Z" fill="#6A44C5"/>
<path d="M122.59 101.848H26.2703V102.648H122.59V101.848Z" fill="#AE8FF7"/>
<path d="M111.045 51.9195C119.25 48.41 123.053 38.9228 119.539 30.7291C116.024 22.5354 106.523 18.738 98.3173 22.2474C90.1117 25.7569 86.3088 35.2441 89.8233 43.4378C93.3379 51.6315 102.839 55.4289 111.045 51.9195Z" fill="#EEE7FF"/>
<path d="M104.685 20.1035C95.2792 20.1035 87.6851 27.6866 87.6851 37.0785C87.6851 46.4704 95.2792 54.0535 104.685 54.0535C114.09 54.0535 121.684 46.4704 121.684 37.0785C121.684 27.7214 114.09 20.1035 104.685 20.1035ZM104.685 53.2186C95.7669 53.2186 88.5211 45.9834 88.5211 37.0785C88.5211 28.1736 95.7669 20.9384 104.685 20.9384C113.603 20.9384 120.848 28.1736 120.848 37.0785C120.848 45.9834 113.603 53.2186 104.685 53.2186Z" fill="white"/>
<path d="M92.0395 47.0967C93.2588 48.6272 94.7218 49.949 96.4288 50.923L97.7525 48.6968L96.1849 41.2876L92.0395 47.0967Z" fill="#9A77ED"/>
<path d="M112.383 27.1997C112.383 27.1997 113.01 25.7387 112.07 25.53C112.07 25.53 112.523 24.3821 111.756 23.9299C111.756 23.9299 111.896 22.8516 110.885 22.7473C110.885 22.7473 110.781 21.7385 109.945 21.7385C109.945 21.7385 109.98 21.1472 109.353 21.3211C109.353 21.3211 108.795 20.1384 107.994 20.7297C107.994 20.7297 106.81 19.6166 106.009 20.1384C106.009 20.1384 104.754 19.5818 104.371 20.4167C104.093 20.2775 103.849 19.8949 103.082 20.6254C103.082 20.6254 101.968 20.4167 101.759 21.495C101.759 21.495 100.888 21.2167 100.609 22.6777C100.609 22.6777 99.8078 22.2603 99.5988 23.7908C99.5988 23.7908 98.7279 24.2082 98.9369 25.5996C98.9369 25.5996 98.0312 26.1562 98.6234 27.3736C98.6234 27.3736 98.066 28.4867 98.7628 29.0085C98.7628 29.0085 98.4144 29.4955 99.2504 30.1216C100.086 30.7825 108.238 30.6086 108.238 30.6086L111.722 29.9477C111.722 29.9477 112.209 29.0085 111.965 28.6955C111.965 28.6955 112.697 27.7215 112.383 27.1997Z" fill="#2E3642"/>
<path d="M109.388 38.957L107.263 37.7047L108.099 40.731L106.81 39.3744L102.56 40.9049C102.525 40.9049 102.455 40.9745 102.386 41.1484C102.386 41.0093 102.351 40.9049 102.351 40.9049L103.257 37.6699L101.132 38.9222L96.2198 41.5658C96.2198 41.5658 96.1849 45.9835 96.4636 50.8881C98.9021 52.3491 101.724 53.1839 104.754 53.1839C108.273 53.1839 111.513 52.0708 114.16 50.1577C114.404 45.5661 114.369 41.5658 114.369 41.5658L109.388 38.957Z" fill="#AE8FF7"/>
<path d="M109.144 38.6438C109.144 38.6438 108.691 37.7742 108.238 37.3916C107.437 36.6959 105.521 36.5568 105.521 36.5568C105.521 36.5568 103.64 36.6959 102.804 37.3916C102.351 37.7742 101.898 38.6438 101.898 38.6438C101.898 38.6438 100.714 41.1831 101.898 43.305C101.898 43.305 103.431 41.4962 105.521 41.2527C107.611 41.4962 109.144 43.305 109.144 43.305C110.363 41.1831 109.144 38.6438 109.144 38.6438Z" fill="#8F6CE1"/>
<path d="M106.845 34.4697L105.242 35.2698L103.64 34.4697C103.814 35.8611 102.873 38.0873 102.873 38.0873C103.048 40.0005 105.242 40.9049 105.242 40.9049C105.242 40.9049 107.437 40.0005 107.611 38.0873C107.611 38.0873 106.67 35.8611 106.845 34.4697Z" fill="#EAA663"/>
<path d="M110.99 27.5128C110.293 22.8516 105.312 22.9908 105.312 22.9908C105.312 22.9908 99.7033 22.782 99.6336 27.5128C99.564 33.287 100.853 36.7655 105.312 36.7655C109.771 36.7655 111.722 32.5914 110.99 27.5128Z" fill="#FFC585"/>
<path d="M106.845 33.287L105.277 33.5305L103.709 33.287H103.5C103.64 34.7827 104.371 35.9306 105.277 35.9306C106.183 35.9306 106.914 34.7827 107.054 33.287H106.845Z" fill="#543239"/>
<path d="M106.74 34.5045C106.287 34.3653 105.8 34.2958 105.277 34.2958C104.72 34.2958 104.197 34.3653 103.744 34.5393C104.058 35.3741 104.615 35.9307 105.242 35.9307C105.869 35.9307 106.427 35.3741 106.74 34.5045Z" fill="#CE5555"/>
<path d="M106.357 33.774H104.197C103.918 33.774 103.709 33.5653 103.709 33.287H106.845C106.845 33.5653 106.601 33.774 106.357 33.774Z" fill="#FFE9E9"/>
<path d="M110.363 30.7825C110.363 30.7825 110.99 29.252 111.756 29.5651C112.349 29.8433 112.07 31.6869 111.164 32.3826C110.258 33.0783 110.119 31.7913 110.119 31.7913L110.363 30.7825Z" fill="#FFC585"/>
<path d="M111.547 30.5391C111.547 30.5391 110.99 30.7826 110.92 31.3391C110.885 31.7565 111.269 31.687 111.304 31.4435C111.338 31.2 111.164 31.2348 111.164 31.2348C111.164 31.2348 111.234 30.7826 111.547 30.5391Z" fill="#EAA663"/>
<path d="M100.087 30.7825C100.087 30.7825 99.4595 29.252 98.6931 29.5651C98.1009 29.8433 98.3796 31.6869 99.2853 32.3826C100.191 33.0783 100.33 31.7913 100.33 31.7913L100.087 30.7825Z" fill="#FFC585"/>
<path d="M98.9021 30.5391C98.9021 30.5391 99.4595 30.7826 99.5291 31.3391C99.564 31.7565 99.1808 31.687 99.1459 31.4435C99.1111 31.2 99.2853 31.2348 99.2853 31.2348C99.2853 31.2348 99.2156 30.7826 98.9021 30.5391Z" fill="#EAA663"/>
<path d="M94.896 33.0783L98.066 38.5395C98.1357 38.6786 98.2751 38.7482 98.3796 38.783C98.5189 38.8178 98.6582 38.783 98.7976 38.7134L101.097 37.2177C101.236 37.1481 101.306 37.009 101.341 36.835C101.341 36.7307 101.341 36.6263 101.271 36.522L98.2751 30.9912C98.2402 30.9216 98.1706 30.8521 98.066 30.7825C97.8919 30.6781 97.6829 30.6781 97.5087 30.7825L95.0354 32.3478C94.9657 32.4174 94.896 32.4869 94.8612 32.5565C94.8263 32.7652 94.8264 32.9391 94.896 33.0783Z" fill="#6A44C5"/>
<path d="M94.5825 33.287L97.7525 38.7482C97.8222 38.8874 97.9615 38.9569 98.066 38.9917C98.2054 39.0265 98.3447 38.9917 98.4841 38.9222L100.783 37.4264C100.923 37.3568 100.992 37.2177 101.027 37.0438C101.027 36.9394 101.027 36.8351 100.957 36.7307L97.9615 31.1999C97.9267 31.1304 97.857 31.0608 97.7525 30.9912C97.5783 30.8869 97.3693 30.8869 97.1952 30.9912L94.7218 32.5565C94.6522 32.6261 94.5825 32.6957 94.5477 32.7653C94.5128 32.974 94.5128 33.1479 94.5825 33.287Z" fill="#AE8FF7"/>
<path d="M102.56 30.6434C102.791 30.6434 102.978 30.3942 102.978 30.0868C102.978 29.7795 102.791 29.5303 102.56 29.5303C102.329 29.5303 102.142 29.7795 102.142 30.0868C102.142 30.3942 102.329 30.6434 102.56 30.6434Z" fill="#28171B"/>
<path d="M107.263 30.6434C107.493 30.6434 107.681 30.3942 107.681 30.0868C107.681 29.7795 107.493 29.5303 107.263 29.5303C107.032 29.5303 106.845 29.7795 106.845 30.0868C106.845 30.3942 107.032 30.6434 107.263 30.6434Z" fill="#28171B"/>
<path d="M104.615 30.8868C104.615 30.8868 104.336 31.9304 104.545 32.1043C104.754 32.313 105.59 32.1739 105.59 32.1739C105.59 32.1739 105.381 32.7304 105.103 32.6609C104.824 32.5565 104.197 32.3826 104.232 32C104.302 31.6173 104.615 30.8868 104.615 30.8868Z" fill="#EAA663"/>
<path d="M105.66 44.0008C105.66 44.2443 105.451 44.4182 105.242 44.4182C104.998 44.4182 104.824 44.2095 104.824 44.0008C104.824 43.7573 105.033 43.5834 105.242 43.5834C105.486 43.5834 105.66 43.7573 105.66 44.0008Z" fill="#EFEFEF"/>
<path d="M105.66 48.8359C105.66 49.0794 105.451 49.2533 105.242 49.2533C104.998 49.2533 104.824 49.0446 104.824 48.8359C104.824 48.6272 105.033 48.4185 105.242 48.4185C105.486 48.4185 105.66 48.5924 105.66 48.8359Z" fill="#EFEFEF"/>
<path d="M104.093 25.4605C104.093 25.4605 104.685 26.0171 105.765 25.4257C105.765 25.4257 106.81 26.2606 107.611 25.8779C107.611 25.8779 108.064 27.0606 109.388 26.6432C109.388 26.6432 109.283 28.2781 110.154 28.2433C110.154 28.2433 109.771 29.2868 110.433 29.5303L111.164 29.7043L111.408 27.0954L110.781 24.6952L108.029 22.469L105.59 21.8081L102.246 22.5386L100.609 24.0343L99.0066 26.5736L98.7628 28.3129L99.7033 30.1565C99.7033 30.1565 100.505 30.2956 100.33 29.3564C100.33 29.3564 101.306 28.4868 101.132 27.6867C101.132 27.6867 102.211 27.1302 102.211 26.1562C102.177 26.1214 103.64 26.8519 104.093 25.4605Z" fill="#2E3642"/>
<path d="M102.142 28.1737C102.142 28.1737 103.013 26.8519 103.814 27.5824L103.57 27.965C103.57 27.965 102.734 27.7911 102.142 28.1737Z" fill="#543239"/>
<path d="M108.342 28.2085C108.342 28.2085 107.541 26.8519 106.705 27.5128L106.914 27.9302C106.949 27.9302 107.785 27.8259 108.342 28.2085Z" fill="#543239"/>
<path d="M90.5068 44.8355C91.3428 46.3313 92.3879 47.6879 93.6071 48.8358C94.1645 47.4444 96.1849 41.6353 96.9861 39.2004L95.1399 37.4612C95.1399 37.4264 92.7711 41.3223 90.5068 44.8355Z" fill="#FFC585"/>
<path d="M114.299 41.6006L114.09 50.1924C115.449 49.2185 116.668 48.001 117.678 46.6444L114.299 41.6006Z" fill="#9A77ED"/>
<path d="M95.2444 40.6614L95.1399 37.4264C95.1399 37.4264 95.1747 33.9132 95.3837 33.5305C95.5579 33.1479 97.7525 32.1739 97.9964 32.2783C98.2402 32.3826 98.5189 32.9392 98.7279 33.287C98.9369 33.6349 99.4943 34.1219 99.3201 34.6089C99.1459 35.0959 97.7874 35.5133 97.7177 36.209C97.648 36.9047 98.0312 38.7483 96.9861 39.1657L95.2444 40.6614Z" fill="#FFC585"/>
</g>
</svg>
