<svg width="30" height="30" viewBox="0 0 30 30" fill="none" xmlns="http://www.w3.org/2000/svg">
<path d="M6.36171 25.3316C8.0678 26.1762 9.95743 26.5826 11.8599 26.5139C13.7624 26.4452 15.6178 25.9037 17.2586 24.9382C18.9726 23.9228 20.3935 22.4796 21.3822 20.75C22.3709 19.0204 22.8935 17.0636 22.8987 15.0714C22.8941 13.476 22.5534 11.8995 21.8987 10.4446L22.712 10.0213L25.0454 11.6113C25.1828 11.7054 25.3456 11.7554 25.5121 11.7546C25.6467 11.7555 25.7794 11.7234 25.8988 11.6613L29.5522 9.76127C29.6802 9.69447 29.7887 9.59553 29.867 9.47417C29.9452 9.35281 29.9906 9.21319 29.9987 9.069C30.0068 8.92481 29.9772 8.781 29.913 8.65167C29.8487 8.52233 29.7519 8.41192 29.6322 8.33125L27.2521 6.71788L27.2854 3.84116C27.2872 3.69709 27.2516 3.55503 27.1821 3.42884C27.1125 3.30264 27.0115 3.19663 26.8888 3.12114C26.7653 3.04667 26.6247 3.00511 26.4806 3.00044C26.3364 2.99577 26.1935 3.02815 26.0654 3.09448L22.4387 4.99118C22.3067 5.06227 22.1962 5.16753 22.1188 5.29596C22.0413 5.42438 21.9999 5.57125 21.9987 5.72119L21.9687 8.54458L21.132 8.97459C20.1897 7.47892 18.9139 6.22181 17.4044 5.30179C15.8949 4.38178 14.1929 3.82386 12.4317 3.67178C10.6705 3.51969 8.89804 3.77757 7.2532 4.4252C5.60837 5.07283 4.13588 6.09261 2.95115 7.40461C1.76642 8.7166 0.901659 10.2852 0.424641 11.9873C-0.0523773 13.6895 -0.128686 15.479 0.201697 17.2156C0.532079 18.9522 1.26017 20.5887 2.32891 21.9968C3.39765 23.4048 4.77798 24.5463 6.36171 25.3316ZM25.5921 9.95128L24.4087 9.14793L26.3588 8.12791L27.5455 8.93126L25.5921 9.95128ZM25.5921 5.21785V6.65121L23.6387 7.67123V6.23787L25.5921 5.21785ZM11.4385 5.28785C13.0711 5.28896 14.6776 5.69892 16.1111 6.48032C17.5446 7.26172 18.7597 8.38968 19.6453 9.76127L17.8019 10.718C17.1366 9.74367 16.2567 8.93497 15.2298 8.35409C14.203 7.7732 13.0565 7.4356 11.8787 7.36726C10.701 7.29892 9.52317 7.50166 8.43602 7.95989C7.34887 8.41812 6.38131 9.11962 5.60778 10.0104C4.83426 10.9012 4.27538 11.9576 3.97414 13.0983C3.6729 14.2389 3.63733 15.4335 3.87017 16.5901C4.103 17.7467 4.59804 18.8344 5.31719 19.7697C6.03634 20.7049 6.96045 21.4627 8.01841 21.9848C9.16674 22.5525 10.4382 22.8257 11.7184 22.7797C12.9986 22.7338 14.2472 22.3701 15.3519 21.7215C16.948 20.7818 18.1527 19.299 18.7458 17.5443C19.3388 15.7896 19.2807 13.88 18.5819 12.1647L20.422 11.2113C21.0613 12.7003 21.3208 14.3248 21.1771 15.9388C21.0335 17.5529 20.4911 19.106 19.5988 20.4586C18.7065 21.8113 17.4922 22.9211 16.065 23.6885C14.6377 24.4558 13.0423 24.8566 11.4218 24.8549C8.83114 24.8496 6.34848 23.8163 4.5191 21.9819C2.68971 20.1475 1.66318 17.6621 1.66495 15.0714C1.66848 12.4777 2.70038 9.99128 4.53438 8.15728C6.36838 6.32327 8.85481 5.29138 11.4485 5.28785H11.4385ZM10.7085 15.3147C10.7588 15.4119 10.8278 15.4982 10.9115 15.5687C10.9952 15.6393 11.0919 15.6926 11.1963 15.7257C11.3006 15.7589 11.4104 15.7711 11.5194 15.7618C11.6285 15.7525 11.7346 15.7217 11.8318 15.6714L13.3318 14.898C13.3352 14.9558 13.3352 15.0136 13.3318 15.0714C13.3318 15.4439 13.2214 15.808 13.0144 16.1177C12.8075 16.4274 12.5134 16.6688 12.1692 16.8114C11.8251 16.9539 11.4464 16.9912 11.081 16.9186C10.7157 16.8459 10.3801 16.6665 10.1167 16.4031C9.85334 16.1397 9.67397 15.8041 9.6013 15.4388C9.52863 15.0735 9.56592 14.6948 9.70847 14.3506C9.85102 14.0065 10.0924 13.7124 10.4021 13.5054C10.7119 13.2985 11.076 13.188 11.4485 13.188C11.8027 13.1873 12.1496 13.2879 12.4485 13.478L11.0651 14.1914C10.968 14.2417 10.8816 14.3107 10.8111 14.3944C10.7406 14.4781 10.6872 14.5748 10.6541 14.6792C10.621 14.7835 10.6088 14.8933 10.6181 15.0023C10.6274 15.1114 10.6581 15.2175 10.7085 15.3147ZM11.4485 11.5213C10.6477 11.5209 9.87022 11.7912 9.24244 12.2884C8.61465 12.7855 8.17341 13.4804 7.99038 14.26C7.80735 15.0396 7.89329 15.8582 8.23423 16.5828C8.57518 17.3074 9.1511 17.8955 9.86845 18.2514C10.3588 18.497 10.9001 18.6237 11.4485 18.6214C11.9983 18.6222 12.5408 18.4951 13.0331 18.2501C13.5254 18.0052 13.954 17.6491 14.2851 17.2101C14.6162 16.771 14.8406 16.2611 14.9407 15.7204C15.0408 15.1797 15.0138 14.6231 14.8619 14.0947L17.1019 12.9313C17.3627 13.6124 17.4971 14.3354 17.4986 15.0647C17.5003 15.86 17.3451 16.6479 17.0418 17.3831C16.7384 18.1183 16.2929 18.7864 15.7309 19.3491C15.1688 19.9117 14.5012 20.358 13.7663 20.6621C13.0315 20.9663 12.2438 21.1224 11.4485 21.1215C10.6537 21.1224 9.86659 20.9665 9.13216 20.6627C8.39773 20.359 7.73042 19.9134 7.16844 19.3514C6.60646 18.7894 6.16085 18.1221 5.85711 17.3877C5.55337 16.6533 5.39748 15.8661 5.39836 15.0714C5.39593 13.7982 5.79589 12.5568 6.5411 11.5245C7.28632 10.4922 8.33868 9.72177 9.54789 9.32325C10.7571 8.92474 12.0613 8.91853 13.2743 9.30549C14.4872 9.69246 15.5469 10.4528 16.3019 11.478L14.0385 12.6513C13.7074 12.2954 13.3066 12.0114 12.861 11.817C12.4154 11.6226 11.9346 11.5219 11.4485 11.5213Z" fill="black"/>
</svg>
