<svg width="155" height="155" viewBox="0 0 155 155" fill="none" xmlns="http://www.w3.org/2000/svg">
<circle cx="77.4194" cy="77.4198" r="77.4194" fill="#DCCEFF"/>
<g clip-path="url(#clip0_467_27536)">
<path d="M96.9041 127H43.1729C37.7795 127 33.4072 122.628 33.4072 117.235V36.7661C33.4072 31.3728 37.7795 27.0005 43.1729 27.0005H96.9041C102.297 27.0005 106.67 31.3728 106.67 36.7661V117.235C106.67 122.628 102.297 127 96.9041 127Z" fill="#AE8FF7"/>
<path d="M100.629 27.7388C101.103 28.887 101.367 30.1444 101.367 31.464V116.01C101.367 119.151 98.8197 121.698 95.6779 121.698H37.8697C36.5502 121.698 35.2926 121.435 34.1445 120.961C35.609 124.506 39.0988 127.001 43.1727 127.001H96.9039C102.297 127.001 106.67 122.629 106.67 117.236V36.7669C106.67 32.6929 104.174 29.2032 100.629 27.7388Z" fill="#9B7AEA"/>
<path d="M69.4358 41.8536C69.4308 41.8399 69.4255 41.8265 69.4198 41.813C69.1345 41.1187 68.4653 40.6704 67.7147 40.6704C67.7144 40.6704 67.7138 40.6704 67.7134 40.6704C66.9624 40.6708 66.2931 41.1204 66.0085 41.8155C66.0038 41.8269 65.9991 41.8384 65.9948 41.8499L60.2645 56.8958C59.97 57.6688 60.3581 58.5341 61.1312 58.8286C61.3065 58.8954 61.4866 58.9271 61.664 58.9271C62.2673 58.9271 62.8362 58.5595 63.0638 57.962L64.1235 55.1794H71.2632L72.3116 57.9577C72.6036 58.7317 73.4683 59.1226 74.2417 58.8302C75.0155 58.538 75.4062 57.6739 75.114 56.9001L69.4358 41.8536ZM65.2646 52.1841L67.7097 45.7636L70.1327 52.1841H65.2646Z" fill="#7732EF"/>
<path d="M92.2915 56.3232L87.1489 49.013L91.5352 42.7867C92.0116 42.1105 91.8499 41.1761 91.1735 40.6997C90.4968 40.2234 89.5628 40.3855 89.0866 41.0617L85.3184 46.4107L81.5559 41.0622C81.0806 40.3861 80.1466 40.2232 79.4692 40.699C78.7927 41.1749 78.63 42.1091 79.1061 42.7859L83.486 49.0118L78.336 56.3224C77.8597 56.9986 78.0214 57.9329 78.6977 58.4093C78.96 58.5941 79.261 58.6827 79.5589 58.6827C80.0296 58.6827 80.4931 58.4615 80.7847 58.0474L85.3167 51.6142L89.8417 58.0466C90.1333 58.4611 90.5968 58.6827 91.0681 58.6827C91.3657 58.6827 91.6663 58.5943 91.9284 58.4099C92.605 57.9339 92.7677 56.9997 92.2915 56.3232Z" fill="#7732EF"/>
<path d="M57.866 40.4264H49.4381C48.6107 40.4264 47.9404 41.0969 47.9404 41.9242C47.9404 42.7516 48.6109 43.4221 49.4381 43.4221H52.1371V57.1852C52.1371 58.0123 52.8076 58.683 53.6348 58.683C54.4621 58.683 55.1324 58.0125 55.1324 57.1852V43.4219H57.8658C58.6932 43.4219 59.3637 42.7514 59.3637 41.924C59.3637 41.0967 58.6932 40.4264 57.866 40.4264Z" fill="#7732EF"/>
<path d="M94.8984 66.4794H45.1789C41.9904 66.4794 39.3965 63.8854 39.3965 60.6972V38.4312C39.3965 35.2427 41.9904 32.6489 45.1789 32.6489H94.8984C98.0869 32.6489 100.681 35.2429 100.681 38.4312V60.6972C100.681 63.8854 98.0869 66.4794 94.8984 66.4794ZM45.1789 35.6444C43.6422 35.6444 42.392 36.8946 42.392 38.4312V60.6972C42.392 62.2337 43.642 63.4839 45.1789 63.4839H94.8984C96.4352 63.4839 97.6854 62.2337 97.6854 60.6972V38.4312C97.6854 36.8946 96.4354 35.6444 94.8984 35.6444H45.1789Z" fill="#DACAFF"/>
<path d="M94.8984 72.5688H45.1789C41.9906 72.5688 39.3965 75.1628 39.3965 78.3511V98.4015C39.3965 101.59 41.9904 104.184 45.1789 104.184H94.8984C98.0867 104.184 100.681 101.59 100.681 98.4015V78.3511C100.681 75.1628 98.0869 72.5688 94.8984 72.5688ZM97.6854 78.3511V86.8724H85.84V75.5644H94.8984C96.4352 75.5644 97.6854 76.8144 97.6854 78.3511ZM68.541 89.8679V101.188H57.233V89.8679H68.541ZM57.233 86.8724V75.5644H68.541V86.8724H57.233ZM71.5365 89.8679H82.8445V101.188H71.5365V89.8679ZM71.5365 86.8724V75.5644H82.8445V86.8724H71.5365ZM45.1789 75.5644H54.2373V86.8724H42.3922V78.3511C42.3922 76.8144 43.6422 75.5644 45.1789 75.5644ZM42.3922 98.4015V89.8679H54.2375V101.188H45.1789C43.6422 101.188 42.3922 99.938 42.3922 98.4015ZM94.8984 101.188H85.84V89.8679H97.6854V98.4015C97.6854 99.938 96.4352 101.188 94.8984 101.188Z" fill="#DACAFF"/>
<path d="M51.691 112.41H40.8941C40.0668 112.41 39.3965 111.739 39.3965 110.912C39.3965 110.085 40.067 109.415 40.8941 109.415H51.691C52.5184 109.415 53.1887 110.085 53.1887 110.912C53.1887 111.739 52.5184 112.41 51.691 112.41Z" fill="#DACAFF"/>
<path d="M66.2652 119.431H40.8941C40.0668 119.431 39.3965 118.761 39.3965 117.933C39.3965 117.106 40.067 116.436 40.8941 116.436H66.2652C67.0926 116.436 67.7631 117.106 67.7631 117.933C67.7631 118.761 67.0926 119.431 66.2652 119.431Z" fill="#DACAFF"/>
<path d="M81.4592 112.41H58.8807C58.0533 112.41 57.3828 111.739 57.3828 110.912C57.3828 110.085 58.0533 109.415 58.8807 109.415H81.4594C82.2867 109.415 82.957 110.085 82.957 110.912C82.957 111.739 82.2865 112.41 81.4592 112.41Z" fill="#DACAFF"/>
<path d="M82.773 95.6948L67.0049 79.7311L67.1631 78.7917L91.7482 54.2065L92.7787 53.7622L108.742 69.7257L108.298 70.756L83.7127 95.3411L82.773 95.6948Z" fill="#936FE9"/>
<path d="M104.7 65.7251L79.0449 91.3798L82.7736 95.6944L83.7133 95.3407L108.298 70.7556L108.72 69.7479L104.7 65.7251Z" fill="#936FE9"/>
<path d="M111.932 66.3408L96.1641 50.5727L97.248 48.7074L102.899 43.0566C104.424 41.5312 106.898 41.5312 108.423 43.0566L119.448 54.0818C120.974 55.6072 120.974 58.0807 119.448 59.6061L113.797 65.2568L111.932 66.3408Z" fill="white"/>
<path d="M119.449 54.0823L115.072 49.7056C116.632 51.2653 116.632 53.7942 115.072 55.354L107.813 62.6128L111.542 66.3415L113.798 65.2575L119.449 59.6067C120.974 58.0812 120.974 55.6077 119.449 54.0823Z" fill="#F4F1FC"/>
<path d="M71.8299 86.1941C71.4467 86.1941 71.0633 86.0478 70.7708 85.7554C70.1858 85.1705 70.1858 84.2222 70.7708 83.6373L96.4532 57.9548C97.0383 57.3699 97.9864 57.3699 98.5715 57.9548C99.1565 58.5398 99.1565 59.488 98.5715 60.073L72.8891 85.7554C72.5967 86.048 72.2131 86.1941 71.8299 86.1941Z" fill="white"/>
<path d="M77.7967 92.1611C77.4135 92.1611 77.0301 92.0148 76.7375 91.7224C76.1526 91.1374 76.1526 90.1892 76.7375 89.6042L102.42 63.9216C103.006 63.3367 103.954 63.3367 104.539 63.9216C105.123 64.5066 105.123 65.4548 104.539 66.0398L78.8557 91.7222C78.5633 92.0148 78.1799 92.1611 77.7967 92.1611Z" fill="white"/>
<path d="M97.2451 48.6978L113.792 65.2447L108.293 70.7436L91.7463 54.1966L97.2451 48.6978Z" fill="#DACAFF"/>
<path d="M103.972 66.4458L109.471 60.9469L113.784 65.2609L108.286 70.7597L103.972 66.4458Z" fill="#9F8CEA"/>
<path d="M82.3688 92.4364C81.3719 91.3146 80.0447 90.6884 78.6791 90.5577C78.2404 90.5157 77.8967 90.1769 77.8551 89.738C77.7354 88.4755 77.1922 87.2456 76.2256 86.279C75.2588 85.3122 74.0289 84.769 72.7666 84.6495C72.3277 84.6079 71.9889 84.2644 71.9469 83.8255C71.8162 82.4599 71.19 81.1327 70.0682 80.1358C69.2313 79.3923 68.2158 78.9474 67.1637 78.7915L66.6117 79.3435C66.0328 79.9224 65.5982 80.6292 65.3428 81.4069L61.8604 92.0147L61.8922 93.7026L68.802 100.612L70.4897 100.644L81.0975 97.1618C81.8752 96.9065 82.5822 96.4718 83.1609 95.8929L83.7129 95.3409C83.5572 94.2888 83.1123 93.2733 82.3688 92.4364Z" fill="#DACAFF"/>
<path d="M82.3687 92.4376C81.6182 91.5927 80.6801 91.0292 79.6793 90.7466L79.0447 91.3812L78.8463 91.5796C78.2674 92.1585 77.5605 92.5931 76.7828 92.8485L64.4873 96.8851L68.802 100.614L70.4896 100.646L81.0975 97.1632C81.8752 96.9079 82.582 96.4731 83.1609 95.8942L83.7129 95.3423C83.5572 94.2899 83.1123 93.2743 82.3687 92.4376Z" fill="#CFBCFB"/>
<path d="M61.8602 92.0161L58.7582 101.465C58.2959 102.874 59.6319 104.21 61.0403 103.747L70.4895 100.645L61.8602 92.0161Z" fill="#936FE9"/>
<path d="M66.175 96.3306L59.7516 98.4392L58.7582 101.465C58.2959 102.874 59.6319 104.21 61.0403 103.747L70.4895 100.645L66.175 96.3306Z" fill="#7D59D5"/>
</g>
<defs>
<clipPath id="clip0_467_27536">
<rect width="100" height="100" fill="white" transform="translate(27 27.0005)"/>
</clipPath>
</defs>
</svg>
