<svg width="263" height="276" viewBox="0 0 263 276" fill="none" xmlns="http://www.w3.org/2000/svg">
<path d="M40.5758 188.41C24.0784 178.081 12.0617 161.424 4.75997 143.632C-0.50689 130.797 -2.09689 114.778 7.07909 104.262C11.5683 99.1178 18.1648 95.8886 21.9976 90.2582C27.8114 81.7166 25.688 70.475 25.0793 60.227C24.0638 43.1204 28.5113 24.9512 40.7951 12.7484C53.0792 0.544998 74.171 -3.75278 88.6478 5.87242C99.7628 13.262 104.796 26.4806 111.215 38.0372C117.634 49.5938 128.271 61.223 141.684 60.488C147.288 60.1808 152.509 57.6908 157.398 54.9908C173.272 46.2254 187.731 34.6556 204.939 28.7804C222.147 22.9052 243.901 24.3764 255.206 38.3738C259.063 43.1492 261.382 49.013 262.363 55.0244C263.358 61.1258 263.002 67.4624 261.09 73.3502C257.337 84.908 248.074 93.812 241.553 104.122C234.298 115.593 230.561 130.623 237.109 142.494C239.719 147.227 243.778 151.114 246.125 155.979C250.807 165.68 247.68 177.613 241.141 186.224C234.603 194.835 225.169 200.817 215.932 206.59C205.201 213.298 194.323 220.039 182.271 224.055C161.604 230.94 102.495 227.177 40.5758 188.41Z" fill="#F9F6FF"/>
<mask id="mask0_467_27946" style="mask-type:luminance" maskUnits="userSpaceOnUse" x="0" y="0" width="263" height="227">
<path d="M40.5758 188.41C24.0784 178.081 12.0617 161.424 4.75997 143.632C-0.50689 130.797 -2.09689 114.778 7.07909 104.262C11.5683 99.1178 18.1648 95.8886 21.9976 90.2582C27.8114 81.7166 25.688 70.475 25.0793 60.227C24.0638 43.1204 28.5113 24.9512 40.7951 12.7484C53.0792 0.544998 74.171 -3.75278 88.6478 5.87242C99.7628 13.262 104.796 26.4806 111.215 38.0372C117.634 49.5938 128.271 61.223 141.684 60.488C147.288 60.1808 152.509 57.6908 157.398 54.9908C173.272 46.2254 187.731 34.6556 204.939 28.7804C222.147 22.9052 243.901 24.3764 255.206 38.3738C259.063 43.1492 261.382 49.013 262.363 55.0244C263.358 61.1258 263.002 67.4624 261.09 73.3502C257.337 84.908 248.074 93.812 241.553 104.122C234.298 115.593 230.561 130.623 237.109 142.494C239.719 147.227 243.778 151.114 246.125 155.979C250.807 165.68 247.68 177.613 241.141 186.224C234.603 194.835 225.169 200.817 215.932 206.59C205.201 213.298 194.323 220.039 182.271 224.055C161.604 230.94 102.495 227.177 40.5758 188.41Z" fill="white"/>
</mask>
<g mask="url(#mask0_467_27946)">
<path d="M223.697 68.4176C213.784 68.4716 203.557 62.6666 201.848 52.2206C200.388 43.2914 207.694 34.9178 215.863 33.3314C220.356 32.4596 224.944 32.6655 229.429 33.9813C235.308 35.7069 238.413 40.685 240.206 46.247C241.902 51.5066 242.082 57.5702 238.792 62.2772C235.461 67.0472 229.19 68.3882 223.697 68.4176ZM239.911 42.2444C237.897 37.8674 234.83 34.4505 230.161 32.9463C225.631 31.4859 218.578 32.123 215.444 32.4794C208.257 33.752 202.439 39.2948 200.872 46.484C199.167 54.3062 203.722 62.2874 210.399 66.2348C217.649 70.5206 229.131 71.3084 236.328 66.4196C244.351 60.9692 243.497 50.0408 239.911 42.2444Z" fill="#DACAFF"/>
<path d="M233.645 59.8687C230.985 63.9247 227.095 65.7535 222.289 65.0833C216.909 64.3327 210.728 61.9777 207.975 56.9743C206.062 53.4979 206.211 49.1047 208.039 45.6247C210.061 41.7763 213.476 40.2439 217.301 38.8483C224.377 37.9189 233.619 39.9637 235.696 47.8471C236.755 51.8677 235.917 56.4043 233.645 59.8687ZM217.477 37.8685C210.978 39.1165 205.953 44.5399 205.575 50.6545C205.182 57.0367 209.41 61.7383 214.987 64.1599C220.188 66.4177 226.872 67.8067 231.59 63.9043C236.905 59.5081 238.938 51.3985 235.962 45.1063C232.809 38.4367 224.265 36.5647 217.477 37.8685Z" fill="#DACAFF"/>
<path d="M226.642 49.9025C224.914 50.9099 223.199 51.9371 221.483 52.9631C221.424 50.1749 221.47 47.3771 221.316 44.5967C221.287 44.0555 220.553 44.0783 220.491 44.5967C220.12 47.7227 220.18 50.9405 220.219 54.0845C220.225 54.5705 220.762 54.8891 221.188 54.6401C223.231 53.4467 225.279 52.2593 227.309 51.0437C228.038 50.6075 227.379 49.4723 226.642 49.9025Z" fill="#DACAFF"/>
<path d="M210.293 51.7278C209.555 51.7482 208.813 51.7572 208.078 51.8214C207.566 51.8658 207.565 52.5738 208.078 52.6182C208.813 52.6818 209.555 52.6908 210.293 52.7118C210.875 52.7274 211.387 52.7766 211.853 52.395C211.951 52.3158 211.95 52.1232 211.853 52.044C211.387 51.6624 210.875 51.7116 210.293 51.7278Z" fill="#DACAFF"/>
<path d="M232.463 50.183C231.755 50.0786 231.074 50.1158 230.373 50.2442C229.935 50.3246 230.032 51.0566 230.48 51.0266C231.138 50.9834 231.788 51.023 232.434 51.1574C232.917 51.2576 233.36 51.5204 233.822 51.2756C233.928 51.2198 233.997 51.0632 233.956 50.9474C233.742 50.3552 233.029 50.267 232.463 50.183Z" fill="#DACAFF"/>
<path d="M220.525 42.6184C220.567 43.1422 221.297 43.1434 221.34 42.6184C221.393 41.9632 221.415 41.3062 221.425 40.6486C221.432 40.135 221.541 39.5848 221.148 39.2026C221.029 39.0868 220.837 39.0868 220.717 39.2026C220.324 39.5848 220.433 40.135 220.44 40.6486C220.45 41.3062 220.471 41.9632 220.525 42.6184Z" fill="#DACAFF"/>
<path d="M222.523 59.0188C222.49 58.4464 221.664 58.4452 221.632 59.0188C221.592 59.7112 221.56 60.4025 221.542 61.0961C221.527 61.6871 221.388 62.3122 221.717 62.8294C221.888 63.0988 222.266 63.0988 222.437 62.8294C222.766 62.3122 222.628 61.6871 222.612 61.0961C222.594 60.4025 222.562 59.7112 222.523 59.0188Z" fill="#DACAFF"/>
<path d="M175.717 86.0555C175.52 81.9449 175.387 77.8211 175.034 73.7213C175.035 73.7213 175.036 73.7207 175.036 73.7201C175.933 72.9437 181.112 73.1849 182.63 73.1027C185.975 72.9233 189.321 72.7847 192.668 72.6659C192.861 75.6065 193.178 78.5381 193.471 81.4703C193.583 82.5929 193.853 83.8565 193.789 84.9851C193.787 85.0385 193.786 85.0835 193.787 85.1231C193.484 85.2353 193.028 85.1975 192.718 85.2269C187.085 85.7615 181.376 85.9211 175.717 86.0555ZM194.989 83.3855C194.634 79.5899 194.133 75.8069 193.907 71.9999C193.888 71.6609 193.629 71.3471 193.264 71.3573C189.109 71.4725 184.952 71.6051 180.802 71.8469C179.198 71.9399 175.378 71.5199 174.088 72.7721C173.758 73.0931 174.32 82.3901 174.451 86.7185C174.462 87.0647 174.74 87.3731 175.1 87.3671C178.916 87.3071 182.731 87.1583 186.542 86.9591C188.653 86.8493 192.288 87.2915 194.237 86.3957C195.554 85.7903 195.122 84.8027 194.989 83.3855Z" fill="#DACAFF"/>
<path d="M179.167 82.2615C179.119 80.3649 179.042 78.4683 178.942 76.5741C179.525 76.6977 180.168 76.6053 180.76 76.6041C181.269 76.6035 183.099 76.3389 183.49 76.6941C183.652 76.8411 183.591 78.5691 183.599 78.9789C183.616 79.8339 183.612 80.6895 183.604 81.5451C182.16 82.0485 180.695 82.2813 179.167 82.2615ZM184.172 75.8655C183.646 75.3807 182.366 75.5337 181.729 75.5139C180.788 75.4857 179.471 75.2433 178.565 75.6567C178.335 75.6159 178.075 75.7431 178.064 76.0545C177.991 78.2985 178.102 80.5449 178.102 82.7889C178.102 83.0973 178.351 83.3091 178.643 83.3307C180.598 83.4723 182.479 83.1771 184.307 82.4691C184.54 82.3791 184.711 82.1967 184.714 81.9345C184.726 80.6889 184.724 79.4421 184.647 78.1989C184.609 77.5767 184.688 76.3407 184.172 75.8655Z" fill="#DACAFF"/>
<path d="M186.471 76.3654C186.054 76.5076 186.221 77.1166 186.653 77.0254C187.628 76.8208 188.588 76.7458 189.58 76.8634C190.475 76.9702 191.279 77.3302 192.156 77.4868C192.47 77.5432 192.831 77.1256 192.512 76.8754C190.901 75.6124 188.311 75.7408 186.471 76.3654Z" fill="#DACAFF"/>
<path d="M192.365 79.413C190.958 78.4806 188.445 78.7182 186.882 79.1088C186.517 79.1994 186.587 79.791 186.971 79.7718C187.846 79.728 188.715 79.674 189.59 79.7532C190.451 79.8324 191.316 80.1624 192.175 80.112C192.551 80.0898 192.68 79.6218 192.365 79.413Z" fill="#DACAFF"/>
<path d="M187.304 81.2812C186.877 81.3394 186.976 82.0642 187.406 82.036C188.15 81.9868 188.886 81.9952 189.626 82.0798C190.353 82.1626 191.074 82.3996 191.809 82.3402C192.132 82.3138 192.232 81.9328 191.969 81.7462C190.735 80.8684 188.722 81.0868 187.304 81.2812Z" fill="#DACAFF"/>
<path d="M132.389 84.5458C138.627 84.0413 144.865 83.5378 151.103 83.0296C154.211 82.7765 157.319 82.5233 160.427 82.2701C161.204 82.2071 161.981 82.1435 162.758 82.0805C164.033 81.9761 164.195 81.6502 164.8 82.7752C165.559 84.1858 165.187 86.6831 165.218 88.2413C165.335 94.0691 165.453 99.8662 166.253 105.649C167.093 111.72 168.085 117.802 168.105 123.944C157.033 123.945 145.961 123.936 134.888 123.976C134.076 110.831 133.287 97.6853 132.389 84.5458ZM167.637 105.827C166.598 98.2283 167 90.6527 166.455 83.0351C166.35 81.5795 166.185 80.7023 164.598 80.5607C161.234 80.2601 157.386 81.1085 154.016 81.3737C146.635 81.9545 139.253 82.5401 131.872 83.1251C131.046 83.1905 131.465 84.7169 131.465 86.1167C132.096 99.4685 132.964 111.254 133.68 124.601C133.698 124.938 133.952 125.223 134.304 125.225C145.796 125.276 157.289 125.273 168.782 125.283C169.146 125.283 169.448 124.976 169.452 124.614C169.512 118.304 168.49 112.061 167.637 105.827Z" fill="#DACAFF"/>
<path d="M150.826 89.6714C150.949 91.3724 151.072 93.074 151.195 94.775C146.83 94.7132 142.471 94.8164 138.113 95.0864C137.909 93.2882 137.765 91.4888 137.666 89.6822C142.053 89.4674 146.438 89.9018 150.826 89.6714ZM136.736 89.5514C136.718 91.6118 136.81 93.6542 136.992 95.7104C137.019 96.0152 137.243 96.3266 137.588 96.3056C142.343 96.014 147.098 95.9198 151.862 96.0224C152.181 96.029 152.506 95.732 152.483 95.4014C152.337 93.2714 152.19 91.1414 152.043 89.012C152.021 88.6844 151.772 88.361 151.411 88.379C146.666 88.6214 141.928 88.0508 137.183 88.3238C136.493 88.3634 136.347 89.2064 136.736 89.5514Z" fill="#DACAFF"/>
<path d="M138.412 103.043C138.161 101.755 137.99 100.373 137.596 99.1024C140.375 98.9692 143.154 98.8432 145.932 98.7004C146.617 98.665 149.466 98.0818 149.973 98.5558C150.181 98.7502 150.204 99.6904 150.25 99.9538C150.484 101.297 150.672 102.655 150.803 104.013C150.979 105.842 151.018 105.443 149.181 105.401C145.979 105.329 142.804 104.999 139.611 104.831C138.181 104.756 138.729 104.671 138.412 103.043ZM145.071 106.403C146.439 106.482 147.81 106.548 149.181 106.583C149.725 106.596 151.183 106.868 151.653 106.549C153.027 105.617 151.603 100.366 151.292 99.0052C151.024 97.8298 150.882 97.4824 149.569 97.3126C147.717 97.0744 145.587 97.4518 143.72 97.5376C141.508 97.639 139.297 97.741 137.085 97.8424C136.39 97.8748 136.287 98.7868 136.764 99.0502C136.689 100.815 137.167 102.858 137.531 104.517C137.784 105.673 137.764 105.637 138.861 105.892C140.826 106.35 143.064 106.287 145.071 106.403Z" fill="#DACAFF"/>
<path d="M139.025 110.627C138.689 110.677 138.709 111.22 139.025 111.287C141.359 111.778 143.919 111.539 146.292 111.476C148.712 111.413 151.195 111.409 153.581 110.978C154.11 110.883 153.973 110.059 153.456 110.058C150.913 110.056 148.359 110.346 145.814 110.423C143.568 110.491 141.248 110.295 139.025 110.627Z" fill="#DACAFF"/>
<path d="M139.116 115.511C141.371 115.7 143.633 115.646 145.892 115.597C147.877 115.555 149.999 115.8 151.95 115.467C152.294 115.408 152.238 114.916 151.95 114.825C150.083 114.233 147.825 114.585 145.892 114.667C143.634 114.762 141.377 114.9 139.116 114.78C138.642 114.754 138.653 115.473 139.116 115.511Z" fill="#DACAFF"/>
<path d="M151.862 119.06C147.751 118.539 143.112 118.484 139.028 119.232C138.639 119.303 138.763 119.861 139.116 119.886C143.356 120.176 147.611 119.819 151.862 120.175C152.587 120.236 152.557 119.147 151.862 119.06Z" fill="#DACAFF"/>
<path d="M161.548 108.575C161.831 111.524 162.113 114.474 162.395 117.423C162.443 117.923 162.483 118.427 162.535 118.928C162.154 118.895 161.701 118.946 161.376 118.93C160.401 118.884 159.426 118.842 158.451 118.792C158.446 118.553 158.394 118.284 158.382 118.074C158.227 115.297 158.064 112.52 157.896 109.743C157.474 102.788 157.296 95.6845 156.302 88.7761C157.384 88.5871 158.479 88.4923 159.564 88.3261C160.25 95.0737 160.901 101.824 161.548 108.575ZM158.435 119.02C158.439 118.993 158.438 118.961 158.44 118.931C158.689 119.173 158.337 119.537 158.435 119.02ZM157.276 119.353C157.293 119.683 157.533 119.924 157.864 119.941C159.645 120.034 161.425 120.124 163.206 120.214C163.507 120.23 163.834 119.927 163.804 119.615C162.792 108.956 161.711 98.3029 160.679 87.6451C160.639 87.2377 160.335 87.0037 159.93 87.0745C158.52 87.3235 157.088 87.3631 155.679 87.6115C155.103 87.7135 155.126 88.3873 155.486 88.6885C155.865 98.9113 156.772 109.132 157.276 119.353Z" fill="#DACAFF"/>
<path d="M119.515 112.833C119.032 114.492 116.767 114.409 115.126 114.6C111.848 114.982 108.562 115.301 105.273 115.565C98.9322 116.075 92.5764 116.336 86.2164 116.395C87.018 99.6767 86.172 82.9529 83.7168 66.3989C91.2876 68.1749 99.3054 67.7405 107.006 68.4017C107.197 68.4179 107.338 68.3579 107.443 68.2643C111.199 68.4377 114.957 68.5871 118.712 68.7539C118.19 81.8543 118.403 94.9925 119.199 108.077C119.278 109.382 119.876 111.594 119.515 112.833ZM119.953 68.1707C119.962 67.8341 119.666 67.5683 119.342 67.5599C115.358 67.4567 111.373 67.3271 107.387 67.2287C107.287 67.1429 107.167 67.0751 107.006 67.0613C99.0858 66.3695 90.8208 66.8723 83.0796 64.8347C82.53 64.6901 82.1598 65.1749 82.2366 65.6777C84.828 82.6961 85.674 99.9095 84.7962 117.1C84.777 117.474 85.1298 117.797 85.4904 117.795C97.2174 117.719 108.889 116.866 120.506 115.27C120.778 115.232 121.024 114.883 121.003 114.616C119.814 99.1499 119.554 83.6735 119.953 68.1707Z" fill="#DACAFF"/>
<path d="M96.154 103.838C94.975 103.83 93.2854 103.489 92.0422 103.674C92.125 103.241 91.9684 102.392 91.9642 102.064C91.9108 97.6864 91.8598 93.3088 91.7104 88.9324C91.5568 84.433 91.6744 79.549 90.6742 75.1174C97.6318 75.091 104.586 75.2314 111.536 75.5464C110.982 84.8704 110.673 94.2046 110.549 103.544C105.761 103.846 100.949 103.868 96.154 103.838ZM112.231 74.2528C104.934 73.987 97.6378 73.9828 90.3406 74.2456C90.0148 74.0296 89.4574 74.2048 89.473 74.6854C89.6752 80.941 90.3424 87.175 90.4588 93.4492C90.508 96.103 90.5302 98.7574 90.5506 101.412C90.5584 102.406 90.3838 103.625 90.6328 104.606C90.6928 104.844 90.8926 105.035 91.1266 105.1C93.3454 105.716 96.2938 105.26 98.5636 105.255C102.788 105.248 107.024 105.206 111.24 104.913C111.623 104.886 111.938 104.612 111.943 104.21C112.052 94.4374 112.391 84.673 112.892 74.914C112.911 74.548 112.574 74.2654 112.231 74.2528Z" fill="#DACAFF"/>
<path d="M97.9323 98.8297C97.7626 98.8255 97.1433 98.8819 96.9765 98.7943C96.9429 98.7763 96.9225 98.7667 96.9015 98.7571C96.9219 98.7529 96.9255 98.7277 96.8649 98.6443C96.1167 97.6033 96.2907 95.0792 96.1461 93.8408C95.9853 92.462 95.8702 91.0736 95.6614 89.7002C97.4848 89.6972 99.325 89.4482 101.136 89.2826C101.886 89.2142 102.658 89.1991 103.403 89.0923C103.521 89.0755 103.785 89.0437 103.995 89.0443C103.999 89.0569 104.001 89.0635 104.004 89.0779C104.809 92.1973 105.542 95.5621 105.354 98.8129C103.669 98.8327 101.985 98.852 100.3 98.8508C99.5109 98.8502 98.7213 98.8507 97.9323 98.8297ZM106.148 93.107C105.946 91.8278 105.883 89.3671 105.073 88.2649C104.476 87.4531 103.268 87.8059 102.374 87.8767C100.004 88.0651 97.6293 88.2398 95.2611 88.4408C94.5789 88.499 94.4649 89.3576 94.9545 89.624C94.9119 91.5518 95.1166 93.5072 95.3164 95.4164C95.419 96.3968 95.3284 98.7451 96.0592 99.5485C96.6682 100.219 98.2492 99.9637 99.0292 99.9805C101.328 100.031 103.629 100.027 105.929 100.027C106.285 100.027 106.503 99.7465 106.539 99.4177C106.764 97.3183 106.475 95.1824 106.148 93.107Z" fill="#DACAFF"/>
<path d="M185.126 188.038C184.642 189.697 182.377 189.612 180.737 189.804C177.459 190.187 174.173 190.506 170.884 190.77C164.542 191.28 158.187 191.54 151.827 191.6C152.629 174.882 151.783 158.158 149.328 141.603C156.898 143.38 164.916 142.945 172.617 143.607C172.807 143.623 172.948 143.562 173.054 143.469C176.81 143.643 180.567 143.792 184.322 143.959C183.801 157.059 184.014 170.198 184.81 183.282C184.888 184.587 185.487 186.8 185.126 188.038ZM185.563 143.375C185.572 143.039 185.277 142.773 184.953 142.764C180.969 142.662 176.984 142.532 172.998 142.433C172.897 142.347 172.777 142.28 172.617 142.266C164.696 141.575 156.432 142.077 148.69 140.039C148.141 139.895 147.771 140.38 147.847 140.883C150.438 157.901 151.285 175.114 150.407 192.305C150.387 192.679 150.74 193.002 151.101 193C162.828 192.924 174.499 192.071 186.117 190.475C186.388 190.437 186.635 190.087 186.614 189.821C185.425 174.355 185.165 158.879 185.563 143.375Z" fill="#DACAFF"/>
<path d="M161.764 179.043C160.585 179.036 158.896 178.694 157.653 178.879C157.735 178.446 157.579 177.597 157.575 177.269C157.521 172.891 157.47 168.513 157.321 164.137C157.167 159.638 157.285 154.754 156.285 150.323C163.242 150.296 170.196 150.437 177.147 150.752C176.592 160.075 176.283 169.41 176.159 178.748C171.371 179.051 166.559 179.073 161.764 179.043ZM177.841 149.458C170.544 149.192 163.248 149.187 155.951 149.45C155.625 149.235 155.067 149.41 155.083 149.89C155.286 156.146 155.953 162.38 156.069 168.654C156.118 171.308 156.14 173.962 156.161 176.616C156.168 177.611 155.994 178.83 156.243 179.811C156.303 180.048 156.503 180.239 156.738 180.305C158.956 180.921 161.904 180.464 164.174 180.461C168.399 180.453 172.635 180.411 176.85 180.117C177.233 180.09 177.549 179.817 177.553 179.414C177.662 169.643 178.001 159.878 178.502 150.119C178.521 149.753 178.184 149.471 177.841 149.458Z" fill="#DACAFF"/>
<path d="M163.542 174.035C163.373 174.03 162.754 174.087 162.587 173.999C162.553 173.981 162.533 173.972 162.512 173.962C162.532 173.958 162.536 173.933 162.475 173.849C161.727 172.808 161.901 170.284 161.757 169.045C161.595 167.666 161.481 166.278 161.271 164.905C163.095 164.902 164.935 164.653 166.746 164.488C167.496 164.419 168.268 164.404 169.012 164.297C169.131 164.28 169.395 164.249 169.606 164.249C169.609 164.262 169.611 164.268 169.614 164.283C170.419 167.402 171.153 170.767 170.964 174.017C169.279 174.038 167.595 174.057 165.91 174.056C165.121 174.055 164.332 174.055 163.542 174.035ZM171.758 168.312C171.556 167.033 171.493 164.572 170.683 163.47C170.087 162.658 168.878 163.011 167.985 163.082C165.614 163.27 163.24 163.445 160.871 163.646C160.189 163.703 160.075 164.563 160.564 164.828C160.522 166.757 160.727 168.712 160.927 170.621C161.029 171.601 160.938 173.95 161.67 174.754C162.279 175.423 163.86 175.168 164.64 175.186C166.939 175.236 169.24 175.232 171.54 175.232C171.895 175.232 172.114 174.951 172.149 174.623C172.375 172.523 172.085 170.387 171.758 168.312Z" fill="#DACAFF"/>
<path d="M25.3842 137.818C25.355 138.974 25.0906 140.337 25.2462 141.48C25.2633 141.606 25.2652 141.885 25.2394 142.115C25.1829 142.122 25.1159 142.13 25.0315 142.137C22.1611 142.368 19.2054 142.178 16.3306 142.146C12.2691 142.103 8.20786 142.043 4.14657 141.975C3.37432 141.963 2.22681 142.154 1.48971 141.931C0.509075 141.633 0.834635 141.892 0.661175 140.507C0.443676 138.771 0.287375 137.026 0.119315 135.286C-0.443905 129.437 -0.925525 123.575 -1.39616 117.718C7.42173 118.035 16.2024 117.467 24.916 116.105C25.64 123.293 25.5671 130.609 25.3842 137.818ZM26.7912 132.551C26.8203 126.824 26.7963 121.048 26.176 115.348C26.1258 114.885 25.7933 114.632 25.3334 114.706C16.347 116.156 7.28092 116.672 -1.81358 116.348C-2.5181 116.323 -2.46207 117.396 -2.28489 118.879C-2.22651 122.836 -1.89795 124.54 -1.64223 127.887C-1.26819 132.781 -0.830125 137.669 -0.337225 142.553C-0.301825 142.904 -0.0714853 143.187 0.305195 143.195C6.12705 143.318 11.9489 143.44 17.772 143.492C19.981 143.513 22.1979 143.562 24.4064 143.488C25.0798 143.466 25.9212 143.597 26.3703 143.015C26.854 142.388 26.6234 140.615 26.6513 139.901C26.7467 137.453 26.779 135.001 26.7912 132.551Z" fill="#DACAFF"/>
<path d="M8.94813 123.752C9.81621 123.763 10.8381 123.634 11.6835 123.822C11.9055 123.871 12.2776 123.775 12.4862 123.893C13.3054 124.355 13.2608 125.506 13.1469 126.424C9.68355 126.432 6.21789 126.442 2.75523 126.513C2.72145 125.593 2.67999 124.673 2.61927 123.754C4.72815 123.778 6.83847 123.728 8.94813 123.752ZM11.6835 122.526C8.54547 122.314 5.32701 122.362 2.18427 122.458C1.54395 122.477 1.40031 123.221 1.74717 123.571C1.69863 124.736 1.68855 125.903 1.67847 127.069C1.67589 127.371 1.93233 127.612 2.22765 127.618C6.05097 127.702 9.87903 127.7 13.7031 127.707C13.9539 127.708 14.2857 127.509 14.323 127.235C14.6418 124.889 14.3281 122.705 11.6835 122.526Z" fill="#DACAFF"/>
<path d="M4.05542 136.429C3.64574 134.945 3.92648 133.382 3.8885 131.857C6.70688 131.988 9.52759 131.995 12.3471 132.097C12.297 133.525 12.3945 134.924 12.6143 136.332C9.75865 136.484 6.91478 136.536 4.05542 136.429ZM13.5504 131.523C13.5584 131.209 13.272 130.92 12.957 130.93C9.85873 131.023 6.7601 130.974 3.6626 131.089C3.41324 130.911 3.02252 130.959 2.90978 131.337C2.37632 133.117 2.27132 135.454 2.96156 137.226C3.0689 137.502 3.2735 137.683 3.57824 137.695C6.84074 137.827 10.0786 137.748 13.3366 137.545C13.7653 137.519 14.0175 137.169 13.9392 136.755C13.6104 135.013 13.5042 133.293 13.5504 131.523Z" fill="#DACAFF"/>
<path d="M17.7081 123.404C18.3894 123.669 19.2249 123.458 19.9353 123.38C20.6244 123.305 21.3816 123.339 21.9964 123C22.3255 122.818 22.2502 122.298 21.8923 122.202C21.2148 122.023 20.48 122.245 19.7944 122.339C19.0878 122.435 18.2314 122.433 17.6361 122.855C17.4158 123.012 17.4612 123.308 17.7081 123.404Z" fill="#DACAFF"/>
<path d="M21.508 127.319C21.6997 127.266 21.8504 126.997 21.7126 126.817C21.1651 126.1 20.2165 126.017 19.3604 125.888C18.2996 125.728 17.2503 125.724 16.1843 125.832C15.6085 125.89 15.5813 126.763 16.1843 126.751C17.2126 126.729 18.2407 126.796 19.2516 126.994C20.0056 127.143 20.7485 127.53 21.508 127.319Z" fill="#DACAFF"/>
<path d="M20.1565 130.134C19.1871 130.07 18.2264 130.137 17.2659 130.273C16.7585 130.345 16.8729 131.227 17.3883 131.175C18.2534 131.088 19.1168 131.068 19.9835 131.149C20.7333 131.22 21.5667 131.575 22.2954 131.323C22.5352 131.24 22.6275 130.95 22.4442 130.759C21.89 130.178 20.9227 130.184 20.1565 130.134Z" fill="#DACAFF"/>
<path d="M17.7836 134.961C17.1241 134.991 17.1166 136.003 17.7836 135.991C18.5995 135.977 19.4029 136.038 20.1991 136.223C20.8659 136.378 21.4917 136.594 22.1824 136.629C22.4746 136.643 22.6389 136.241 22.4242 136.044C21.2465 134.964 19.3037 134.891 17.7836 134.961Z" fill="#DACAFF"/>
<path d="M237.092 100.984C237.063 102.14 236.799 103.503 236.954 104.647C236.971 104.773 236.973 105.051 236.948 105.282C236.891 105.289 236.824 105.296 236.739 105.303C233.869 105.535 230.913 105.344 228.038 105.313C223.977 105.269 219.916 105.209 215.855 105.142C215.083 105.129 213.935 105.32 213.198 105.097C212.217 104.8 212.542 105.059 212.369 103.673C212.152 101.937 211.995 100.192 211.828 98.4516C211.264 92.6028 210.783 86.7402 210.312 80.8842C219.13 81.2016 227.91 80.6334 236.624 79.2714C237.348 86.4588 237.275 93.7752 237.092 100.984ZM238.5 95.7168C238.529 89.9892 238.504 84.2136 237.884 78.5142C237.834 78.0516 237.501 77.7984 237.041 77.8722C228.055 79.3224 218.989 79.8378 209.894 79.5138C209.19 79.4886 209.246 80.5626 209.423 82.0458C209.482 86.0016 209.81 87.7062 210.066 91.0536C210.44 95.9478 210.878 100.836 211.371 105.719C211.407 106.07 211.637 106.354 212.013 106.361C217.835 106.485 223.658 106.607 229.48 106.658C231.689 106.678 233.906 106.728 236.114 106.655C236.788 106.632 237.63 106.764 238.079 106.181C238.562 105.554 238.332 103.781 238.359 103.067C238.455 100.619 238.488 98.1672 238.5 95.7168Z" fill="#DACAFF"/>
<path d="M220.656 86.9179C221.524 86.9275 222.546 86.799 223.391 86.9868C223.613 87.0366 223.986 86.9407 224.194 87.0583C225.013 87.5215 224.968 88.6723 224.854 89.5891C221.391 89.5981 217.926 89.6071 214.463 89.6785C214.429 88.7581 214.387 87.8383 214.327 86.9203C216.436 86.9437 218.547 86.8945 220.656 86.9179ZM223.391 85.6921C220.253 85.4791 217.035 85.527 213.892 85.623C213.252 85.6422 213.108 86.3868 213.455 86.736C213.407 87.9012 213.396 89.0683 213.387 90.2347C213.384 90.5365 213.64 90.777 213.936 90.7836C217.759 90.867 221.587 90.8658 225.411 90.873C225.662 90.8736 225.994 90.6745 226.031 90.4009C226.35 88.0549 226.036 85.8715 223.391 85.6921Z" fill="#DACAFF"/>
<path d="M215.763 99.5953C215.354 98.1115 215.635 96.5485 215.596 95.0233C218.414 95.1535 221.236 95.1619 224.055 95.2627C224.005 96.6907 224.102 98.0899 224.322 99.4975C221.466 99.6499 218.623 99.7015 215.763 99.5953ZM225.259 94.6891C225.266 94.3753 224.98 94.0861 224.665 94.0957C221.566 94.1881 218.468 94.1401 215.37 94.2547C215.121 94.0771 214.73 94.1251 214.617 94.5019C214.085 96.2833 213.979 98.6197 214.669 100.392C214.777 100.668 214.982 100.849 215.287 100.861C218.549 100.993 221.787 100.914 225.044 100.712C225.473 100.685 225.725 100.336 225.647 99.9205C225.318 98.1781 225.212 96.4585 225.259 94.6891Z" fill="#DACAFF"/>
<path d="M229.415 86.5696C230.097 86.8348 230.933 86.6236 231.643 86.5462C232.333 86.4706 233.089 86.5048 233.705 86.1658C234.034 85.984 233.958 85.4638 233.6 85.369C232.922 85.189 232.188 85.411 231.503 85.5046C230.796 85.6012 229.939 85.5994 229.344 86.0212C229.124 86.1778 229.169 86.4742 229.415 86.5696Z" fill="#DACAFF"/>
<path d="M233.217 90.4853C233.409 90.4319 233.559 90.1625 233.421 89.9825C232.873 89.2655 231.925 89.1833 231.069 89.0543C230.008 88.8941 228.959 88.8893 227.892 88.9979C227.317 89.0561 227.289 89.9291 227.892 89.9165C228.921 89.8955 229.949 89.9615 230.96 90.1607C231.714 90.3089 232.457 90.6965 233.217 90.4853Z" fill="#DACAFF"/>
<path d="M231.864 93.3001C230.895 93.2365 229.935 93.3031 228.974 93.4393C228.467 93.5113 228.581 94.3933 229.096 94.3417C229.962 94.2547 230.825 94.2337 231.691 94.3153C232.441 94.3861 233.275 94.7413 234.003 94.4887C234.243 94.4059 234.335 94.1167 234.152 93.9247C233.598 93.3445 232.631 93.3505 231.864 93.3001Z" fill="#DACAFF"/>
<path d="M229.492 98.1285C228.832 98.1585 228.824 99.1713 229.492 99.1599C230.308 99.1455 231.111 99.2055 231.907 99.3909C232.574 99.5463 233.2 99.7623 233.89 99.7965C234.183 99.8109 234.347 99.4095 234.133 99.2121C232.955 98.1321 231.012 98.0589 229.492 98.1285Z" fill="#DACAFF"/>
<path d="M51.3864 54.7108C51.672 68.4454 52.0188 82.1788 52.3296 95.9134C44.7894 96.2446 37.2498 96.5872 29.71 96.934C29.1986 82.8838 29.1711 68.83 29.6685 54.7792C31.4746 54.5782 46.17 54.6694 51.3864 54.7108ZM52.6854 54.058C52.6752 53.7046 52.3926 53.3998 52.0284 53.401C46.608 53.4298 31.1575 53.215 28.9644 53.4004C28.562 53.4352 28.2555 53.7058 28.2395 54.1252C27.6913 68.6536 27.6697 83.1976 28.2177 97.726C28.2325 98.122 28.5536 98.5048 28.9768 98.4856C37.0129 98.1154 45.0486 97.7416 53.0838 97.354C53.4732 97.3354 53.832 97.0312 53.8206 96.6166C53.4372 82.4308 53.0958 68.2432 52.6854 54.058Z" fill="#DACAFF"/>
<path d="M45.2827 61.2345C45.3013 61.3299 45.3121 61.4853 45.2827 61.7481C44.8465 65.6475 45.5689 70.0372 45.6403 73.9654C45.6673 75.466 45.6967 76.9689 45.7213 78.4725C45.2785 77.1213 44.2519 75.9297 43.4245 74.7963C42.4825 73.5051 41.4775 72.2728 40.423 71.0716C40.2223 70.8424 39.7931 70.8454 39.5926 71.0716C37.7893 73.1026 36.4106 75.4497 35.483 77.9973C35.3623 78.3285 35.9049 78.5613 36.0572 78.2391C37.0913 76.0509 38.3735 74.1549 39.9809 72.3837C40.9481 73.5597 41.8873 74.7585 42.7651 76.0035C43.5313 77.0889 44.1463 78.3903 45.1639 79.2507C45.3481 79.4067 45.5911 79.3773 45.7333 79.2405C45.7723 81.8889 45.7867 84.5386 45.7063 87.1822C45.6925 87.6448 45.7735 88.2526 45.6373 88.6954C45.3067 88.8034 44.8243 88.8063 44.5369 88.8501C41.7631 89.2743 38.9543 89.5551 36.1608 89.8431C36.701 80.4753 33.5909 71.1897 33.6577 61.8567C36.5204 61.2951 39.5204 61.2501 42.4273 61.2243C43.2313 61.2171 44.4445 61.0443 45.2827 61.2345ZM45.2665 61.1673C45.2083 61.1085 45.2365 61.0791 45.2665 61.1673V61.1673ZM32.8545 61.7235C32.4195 65.9115 33.421 70.4973 33.8675 74.6175C34.4309 79.8207 35.3426 85.2682 34.9203 90.5122C34.8955 90.8152 35.2172 91.1463 35.5233 91.1151C38.7781 90.7899 42.1405 90.6819 45.3529 90.0429C46.5769 89.7999 46.7755 89.6895 46.9615 88.5189C47.7295 83.6847 47.0497 78.2349 46.9651 73.3629C46.9165 70.5561 46.8565 67.7493 46.7647 64.9437C46.7299 63.8817 47.0785 61.5868 46.5349 60.616C45.9073 59.4964 44.2027 59.8641 43.0423 59.8641C39.7451 59.8629 36.3431 59.9163 33.1022 60.5811C32.4994 60.7047 32.5022 61.3893 32.8545 61.7235Z" fill="#DACAFF"/>
<path d="M39.3236 64.9799C39.3846 64.6547 39.5728 64.3391 39.8407 64.1573C39.9131 64.2065 39.9975 64.2377 40.0973 64.2299C41.0888 64.1477 42.1406 63.8309 43.0244 64.4651C44.036 65.1911 43.7954 66.5219 42.5804 66.7901C41.7854 66.9659 40.7524 66.8135 40.0631 66.3773C39.5709 66.0659 39.2111 65.5799 39.3236 64.9799ZM42.5354 67.8965C44.189 67.6829 45.3086 66.2321 44.5424 64.6133C43.7378 62.9141 41.4986 62.5757 39.908 63.2975C38.8162 63.4133 38.07 64.6187 38.3426 65.7515C38.7562 67.4717 41.0018 68.0939 42.5354 67.8965Z" fill="#DACAFF"/>
</g>
<path d="M18.3564 265.291C23.4229 264.319 36.3702 263.754 53.9985 262.265C55.7805 262.115 60.7275 226.245 60.7275 226.245C63.9447 238.792 64.5519 261.348 68.0655 261.078C82.8879 259.937 98.9067 258.124 106.055 257.871C102.503 242.588 99.3003 224.067 98.9985 201.09C93.4659 197.003 62.7279 187.828 58.0845 187.614C49.2081 187.207 22.8264 181.907 19.7835 190.847C16.9933 199.046 15.5694 223.352 16.7748 231.927C19.0921 248.414 16.5398 255.558 18.3564 265.291Z" fill="#7732EF"/>
<path d="M129.792 145.408C132.553 148.557 155.97 159.419 163.819 163.05C167.056 164.547 164.299 184.651 160.791 183.812C148.729 180.926 119.728 167.689 118.468 166.677C108.625 158.775 99.7262 140.549 98.2634 123.311C96.5732 103.39 113.424 95.085 115.786 96.2352C129.479 102.903 125.859 140.919 129.792 145.408Z" fill="#AE8FF7"/>
<path d="M122.276 157.337C124.172 154.466 126.237 151.796 128.31 149.056C128.426 148.903 128.175 148.715 128.045 148.852C125.715 151.297 123.687 154.261 122.013 157.183C121.915 157.355 122.169 157.5 122.276 157.337Z" fill="#8C6ADD"/>
<path d="M129.053 149.959C127.881 152.878 126.546 156.04 126.048 159.159C126.012 159.382 126.305 159.464 126.387 159.252C127.541 156.262 128.257 153.067 129.338 150.038C129.402 149.856 129.122 149.787 129.053 149.959Z" fill="#8C6ADD"/>
<path d="M115.786 96.2348C119.264 104.538 113.113 119.637 112.383 125.373C111.366 133.371 106.247 157.407 104.605 161.164C100.47 170.622 103.537 197.878 98.9984 201.091C87.875 212.967 25.1888 207.321 19.7835 190.848C18.1869 185.982 18.8244 167.622 23.946 156.039C25.5945 152.313 25.6227 132.033 28.5216 115.199C28.9775 112.551 31.9719 88.337 34.5146 87.4976C38.3307 86.237 52.1846 82.6088 57.6014 82.0226C71.1278 80.5574 83.2064 81.9872 96.1142 86.4518C102.937 88.8122 115.786 96.2348 115.786 96.2348Z" fill="#AE8FF7"/>
<path d="M82.837 98.8199C82.3918 102.756 81.6388 106.674 80.9914 110.58C79.7356 118.158 78.4636 125.733 77.179 133.307C74.2876 150.348 71.3596 167.383 68.4358 184.418C67.5376 189.65 66.658 194.884 65.7862 200.119C65.7214 200.509 66.3172 200.676 66.3832 200.284C68.425 188.019 70.606 175.774 72.7012 163.517C75.592 146.612 78.5014 129.706 81.2584 112.777C82.0114 108.15 82.9474 103.49 83.3902 98.8199C83.4244 98.4635 82.8766 98.4713 82.837 98.8199Z" fill="#8C6ADD"/>
<path d="M63.465 85.7605C63.4206 86.2669 76.3254 97.277 83.2392 97.187C88.2792 97.121 95.6994 90.8413 94.7628 90.2599C92.3634 88.7689 92.5134 85.4227 92.943 82.7191C93.4908 79.2751 94.038 75.8311 94.5858 72.3871C90.846 73.4797 86.832 72.2497 83.1696 70.9291C77.3598 68.8345 71.799 66.236 66.0846 63.9602C66.5688 70.6676 65.8044 75.5251 64.4814 77.6317C63.5616 79.0963 63.6252 83.9257 63.465 85.7605Z" fill="#E9A979"/>
<path d="M79.7579 107.794L64.9961 179.188L78.3563 191.295L88.0907 180.079L85.3451 108.475C85.3451 108.475 82.9151 103.988 79.7579 107.794Z" fill="#5C46A6"/>
<path d="M79.4722 107.359C79.5418 107.52 79.618 107.687 79.7578 107.793C79.9096 107.909 80.1106 107.933 80.3002 107.952C81.982 108.126 83.6632 108.3 85.345 108.474C87.088 105.971 88.4206 103.183 89.2732 100.254C88.6876 99.8464 88.1026 99.4384 87.5176 99.0298C86.194 98.107 84.688 97.1392 83.0956 97.3984C81.4744 97.6624 77.9626 99.58 77.5318 101.283C77.1034 102.973 78.8452 105.87 79.4722 107.359Z" fill="#6D58B1"/>
<path d="M57.3235 83.5342C57.9235 88.0126 69.1525 105.749 71.0389 105.817C72.4471 105.868 82.8715 98.071 83.3857 98.1292C83.7499 98.1706 89.5705 104.348 92.7469 106.775C95.2135 103.61 97.4413 93.8841 97.1221 89.9439C96.8581 86.6799 95.5975 85.4872 92.9425 82.7194C92.4919 86.0392 90.0457 91.2411 87.5701 93.6051C86.3773 94.7439 85.1077 95.9536 83.4679 96.3238C81.7999 96.7 76.9099 93.4906 74.5999 91.3C68.7517 85.7548 64.4809 77.6319 64.4809 77.6319C61.3315 79.4181 56.9383 80.662 57.3235 83.5342Z" fill="#8C6ADD"/>
<path d="M110.109 129.048C110.867 125.314 111.524 121.559 111.891 117.764C112.086 115.743 112.207 113.711 112.179 111.68C112.157 109.982 112.163 108.082 111.655 106.448C111.58 106.206 111.188 106.238 111.2 106.509C111.27 108.237 111.584 109.942 111.621 111.68C111.662 113.624 111.579 115.569 111.421 117.507C111.108 121.355 110.507 125.174 109.851 128.977C109.823 129.144 110.075 129.218 110.109 129.048Z" fill="#8C6ADD"/>
<path d="M111.674 128.548C112.493 126.089 113.518 123.581 114.052 121.044C114.076 120.935 113.912 120.848 113.86 120.963C112.791 123.338 112.132 125.976 111.339 128.456C111.271 128.669 111.603 128.759 111.674 128.548Z" fill="#8C6ADD"/>
<path d="M122.882 122.77C123.431 118.752 123.302 116.195 121.785 111.574C126.417 108.38 127.664 115.072 128.708 120.125C130.712 119.612 131.595 118.118 133.57 117.502C135.545 116.887 137.291 115.712 139.086 116.741C140.881 117.77 141.168 120.172 139.921 121.823C142.631 121.95 144.434 124.174 143.047 126.505C144.36 127.362 144.867 128.581 144.732 129.9C144.557 131.618 143.325 132.956 143.325 132.956C144.944 133.831 145.136 138.263 139.449 139.687C131.882 141.581 124.215 143.299 117.314 146.936C114.921 143.112 111.903 139.238 110.057 135.15C115.249 131.987 121.739 131.124 122.882 122.77Z" fill="#F4B88B"/>
<path d="M26.7353 114.142C29.5302 123.716 36.7928 132.662 43.6692 139.887C53.802 150.533 58.1364 155.923 67.7016 163.603C73.1574 167.982 127.639 146.022 127.969 145.328C128.495 144.219 122.554 132.057 119.472 127.297C114.944 129.544 108.422 131.139 103.524 132.385C96.1182 134.267 85.3704 136.132 77.9652 138.014C73.1076 129.593 57.6408 104.117 53.4246 99.5082C48.4146 94.0308 38.9519 83.193 31.509 89.0802C24.3362 94.7538 24.4171 106.201 26.7353 114.142Z" fill="#9D7BEE"/>
<path d="M77.4491 140.313C75.0665 143.889 73.1939 148.088 72.7445 152.398C72.7163 152.669 73.1597 152.725 73.2185 152.462C74.1779 148.196 75.4343 144.24 77.7851 140.509C77.9195 140.296 77.5871 140.106 77.4491 140.313Z" fill="#7732EF"/>
<path d="M79.184 142.741C78.2576 146.41 77.549 150.706 78.3248 154.461C78.3716 154.687 78.7106 154.626 78.7166 154.408C78.764 152.551 78.5798 150.703 78.686 148.841C78.8012 146.819 79.1078 144.818 79.559 142.844C79.6148 142.601 79.2452 142.497 79.184 142.741Z" fill="#7732EF"/>
<path d="M115.435 132.273C117.063 136.385 119.727 140.186 119.956 144.722C119.976 145.128 120.609 145.13 120.589 144.722C120.355 140.097 117.605 136.238 115.825 132.109C115.73 131.889 115.346 132.048 115.435 132.273Z" fill="#7732EF"/>
<path d="M53.0568 99.7241C61.3866 112.471 69.3408 125.432 77.4918 138.291C77.6262 138.504 77.868 138.603 78.1122 138.544C90.75 135.5 103.377 132.411 116.027 129.417C116.795 129.236 116.47 128.041 115.7 128.234C104.247 131.1 92.763 133.85 81.2904 136.64C80.6592 136.794 78.5502 137.701 77.8848 137.469C78.111 137.548 76.8378 135.213 76.7346 135.05C76.1604 134.14 75.5886 133.23 75.0186 132.319C73.6632 130.154 72.3156 127.984 70.9686 125.814C65.4204 116.88 59.9808 107.806 53.7936 99.2933C53.4774 98.8583 52.7514 99.2567 53.0568 99.7241Z" fill="#8C6ADD"/>
<path d="M33.869 128.637C38.2851 135.56 44.0062 141.845 49.6756 147.753C55.207 153.516 61.0984 158.974 67.3342 163.97C67.8496 164.384 68.5894 163.662 68.0698 163.235C62.0218 158.257 56.1994 153.059 50.7466 147.431C44.866 141.361 39.7759 134.715 34.2888 128.313C34.0914 128.082 33.7068 128.382 33.869 128.637Z" fill="#8C6ADD"/>
<path d="M77.3399 82.045C80.5949 84.316 84.0653 85.7008 91.0337 85.1128C99.6665 84.3844 101.894 78.2554 104.861 70.9144C107.325 64.8178 106.95 54.2668 108.964 39.6616C109.561 35.338 101.035 29.6638 97.3427 27.3358C94.9799 25.846 92.2175 25.0924 89.4479 24.7288C81.9635 23.7466 73.9337 25.6924 68.3723 30.7972C59.2619 39.1588 62.1815 49.1344 65.0423 59.3704C67.9121 69.6382 68.4605 75.8494 77.3399 82.045Z" fill="#F4B88B"/>
<path d="M70.9413 36.5877C86.9835 31.9167 100.172 33.8889 109.26 38.4957C113.3 37.2993 114.8 31.5993 113.276 26.1363C112.172 22.1751 106.829 18.4863 102.809 17.6217C101.873 20.3415 95.9902 21.2097 94.222 20.9823C89.7934 20.4117 88.0905 19.4493 81.9501 19.4493C75.7695 19.4493 68.0691 19.8045 66.8085 27.7569C66.8085 27.7569 58.4158 31.4139 57.907 36.9225C57.1396 45.2355 58.6251 54.0903 58.9371 55.7649C59.3331 57.8871 66.9507 60.2973 67.1055 58.4295C67.5687 52.8477 69.6411 44.0013 70.9413 36.5877Z" fill="#7732EF"/>
<path d="M90.6331 52.9873C89.6791 55.9393 89.9413 59.2219 91.7611 61.8235C92.0419 62.2261 92.4517 62.5429 92.7187 62.9431C93.4651 64.0633 93.2815 63.9811 92.5999 64.6579C91.8145 65.4361 90.4687 65.5147 89.6617 66.3529C89.2507 66.7801 89.6587 67.5349 90.2503 67.3639C91.5463 66.9889 94.7527 65.8213 94.9033 64.1731C94.9879 63.2473 94.2355 62.5987 93.6871 61.9747C91.4719 59.4571 90.9499 56.5003 91.6363 53.2639C91.7749 52.6099 90.8395 52.3471 90.6331 52.9873Z" fill="#C8956E"/>
<path d="M76.8096 49.719C78.1986 48.828 79.419 47.805 81.1524 47.7066C82.5798 47.625 83.217 48.4938 84.4374 48.8472C84.8778 48.9744 85.4862 48.6048 85.425 48.0942C85.2066 46.2768 82.8906 45.7482 81.3408 45.8532C79.2954 45.9918 77.0412 47.1216 76.0878 48.9978C75.8628 49.4406 76.3386 50.0214 76.8096 49.719Z" fill="#B67B4E"/>
<path d="M95.917 48.5668C97.2586 47.1748 98.6164 46.696 100.485 47.368C101.529 47.7442 102.356 48.4984 103.389 48.865C104.139 49.1314 104.571 48.2488 104.315 47.662C103.691 46.2322 101.369 45.5014 99.9634 45.3022C97.864 45.0046 95.8276 45.7936 94.8676 47.7574C94.549 48.4096 95.3626 49.1416 95.917 48.5668Z" fill="#B67B4E"/>
<path d="M82.299 56.4848C82.2738 57.8666 81.6528 58.9766 80.9118 58.9628C80.1702 58.9496 79.5894 57.8186 79.614 56.4368C79.6392 55.055 80.2602 53.945 81.0012 53.9588C81.7428 53.972 82.3236 55.103 82.299 56.4848Z" fill="#451C49"/>
<path d="M100.667 55.7975C100.642 57.1799 100.021 58.2893 99.2794 58.2755C98.5384 58.2623 97.9576 57.1313 97.9822 55.7495C98.0068 54.3677 98.6278 53.2583 99.3694 53.2715C100.11 53.2847 100.691 54.4157 100.667 55.7975Z" fill="#451C49"/>
<path d="M75.4367 62.7676C76.0403 63.052 76.6757 62.9734 77.3327 62.9956C78.0851 63.0208 78.8369 63.0952 79.5887 63.1054C80.5571 63.1186 80.5079 61.7356 79.5887 61.6336C78.8429 61.5508 78.0815 61.573 77.3327 61.6072C76.6901 61.6366 75.9977 61.597 75.4367 61.942C75.1535 62.116 75.0983 62.6086 75.4367 62.7676Z" fill="#E9A979"/>
<path d="M100.767 61.9707C101.438 62.1639 102.132 62.2311 102.83 62.2059C103.463 62.1831 104.168 62.1945 104.525 61.6005C104.685 61.3359 104.573 61.0131 104.328 60.8505C103.829 60.5175 103.272 60.7731 102.718 60.8205C102.122 60.8709 101.523 60.8277 100.928 60.7827C100.233 60.7293 100.128 61.7859 100.767 61.9707Z" fill="#E9A979"/>
<path d="M67.1057 58.4302C66.3365 55.3432 64.9523 51.9706 61.7735 51.8458C61.2767 51.8266 60.7655 51.8602 60.3131 52.0642C59.4527 52.4506 58.9631 53.3722 58.6979 54.277C57.4505 58.5376 58.7027 62.3452 61.5461 65.7556C62.4821 66.8782 64.8335 68.9122 67.1879 67.5154C68.9495 66.4708 67.1057 58.4302 67.1057 58.4302Z" fill="#F4B88B"/>
<path d="M64.9008 56.5539C64.3638 55.6911 63.3606 53.9799 62.1546 54.1131C60.4584 54.3003 60.5124 57.7029 60.5778 58.8657C60.6804 60.7011 61.3374 62.5617 62.6634 63.8739C63.3384 64.5417 64.8024 65.6241 65.7822 64.9605C66.0054 64.8093 66.027 64.3581 65.6976 64.3095C63.5244 63.9891 62.1888 62.4993 61.6068 60.3585C61.4076 59.6253 61.329 58.8645 61.3464 58.1061C61.3596 57.5301 61.3836 56.8083 61.56 56.2845C61.6842 55.9167 62.0088 54.9333 62.5428 54.9687C63.2052 55.0131 63.9852 56.4921 64.3632 56.9685C64.6062 57.2745 65.1036 56.8797 64.9008 56.5539Z" fill="#C8956E"/>
<path d="M95.4456 71.3686C95.4456 71.3686 89.607 72.9568 83.7402 71.29C83.7402 71.29 84.3534 77.7886 90.09 77.632C90.09 77.632 94.2222 77.635 95.4456 71.3686Z" fill="white"/>
<path d="M65.422 58.6015C64.3486 58.8973 63.6184 59.8357 63.7288 60.9727C63.8326 62.0371 64.7674 63.0595 65.8696 63.0547C66.3082 63.0529 66.358 62.4571 65.9692 62.3185C65.2714 62.0695 64.621 61.6783 64.543 60.8629C64.4716 60.1201 64.9756 59.3959 65.6206 59.0731C65.8852 58.9399 65.6992 58.5253 65.422 58.6015Z" fill="#C8956E"/>
<path d="M74.4005 32.3997C76.6967 30.7977 77.6183 27.2913 76.9055 24.6333C76.8461 24.4131 76.4945 24.3981 76.4441 24.6333C76.1957 25.7985 76.4039 27.0117 76.2041 28.1985C75.9563 29.6733 75.3545 31.0155 74.1305 31.9383C73.8629 32.1411 74.1137 32.6001 74.4005 32.3997Z" fill="#936FE9"/>
<path d="M80.5009 31.6346C81.9247 30.5744 83.0941 29.2916 83.9557 27.7322C84.6721 26.4356 85.5427 24.629 85.1959 23.132C85.1473 22.9202 84.8263 22.8758 84.7249 23.0708C84.0361 24.3896 83.9581 25.9544 83.2411 27.314C82.4641 28.7876 81.3613 30.0356 80.0803 31.0898C79.7797 31.337 80.1841 31.8704 80.5009 31.6346Z" fill="#936FE9"/>
<path d="M87.1319 30.7285C88.4687 30.5341 89.2709 29.4715 89.7797 28.2943C90.2939 27.1045 90.9431 25.3093 90.4949 24.0283C90.4019 23.7619 90.0695 23.7799 89.9705 24.0283C89.2079 25.9375 89.7149 29.5543 86.9651 30.1231C86.5619 30.2065 86.7419 30.7855 87.1319 30.7285Z" fill="#936FE9"/>
<path d="M92.8969 30.9313C95.8531 30.5629 97.2781 26.9287 96.4561 24.2875C96.3667 24.0007 95.8687 23.9425 95.8141 24.2875C95.6317 25.4341 95.8411 26.5765 95.4937 27.7153C95.0983 29.0125 94.1617 30.0421 92.8171 30.3421C92.4937 30.4141 92.5573 30.9733 92.8969 30.9313Z" fill="#936FE9"/>
<path d="M100.899 32.1095C103.436 30.2039 103.347 26.2949 102.159 23.6369C102.034 23.3579 101.56 23.4965 101.582 23.7929C101.8 26.7023 102.884 29.2673 100.553 31.6607C100.336 31.8839 100.631 32.3111 100.899 32.1095Z" fill="#936FE9"/>
<path d="M107.084 34.5831C109.168 31.6917 109.76 26.2263 106.559 23.8137C106.253 23.5827 105.939 24.0141 106.078 24.2949C106.905 25.9653 107.853 27.2331 107.98 29.1981C108.099 31.0473 107.589 32.7501 106.566 34.2801C106.349 34.6053 106.862 34.8909 107.084 34.5831Z" fill="#936FE9"/>
<path d="M60.801 48.6211C61.6056 48.5371 62.4096 48.4837 63.2178 48.4603C63.9468 48.4381 64.695 48.4993 65.4054 48.3223C65.7822 48.2281 65.778 47.66 65.4054 47.5628C63.9648 47.1896 62.1432 47.6365 60.7038 47.9029C60.3036 47.9773 60.39 48.6637 60.801 48.6211Z" fill="#936FE9"/>
<path d="M61.5979 44.2345C62.4217 44.0647 63.2533 43.9375 64.0969 43.9405C64.8505 43.9435 65.6011 44.1199 66.3499 44.0833C66.6523 44.0683 66.8377 43.6129 66.5179 43.4629C65.0221 42.7639 62.9377 43.1245 61.4455 43.6831C61.1029 43.8115 61.2331 44.3095 61.5979 44.2345Z" fill="#936FE9"/>
<path d="M62.7486 40.1361C64.011 40.1247 65.2446 40.4679 66.4932 40.4547C66.7548 40.4517 66.8868 40.0659 66.633 39.9393C65.4834 39.3651 63.9972 39.4299 62.7486 39.5175C62.3556 39.5451 62.346 40.1397 62.7486 40.1361Z" fill="#936FE9"/>
<path d="M62.0405 34.8611C62.4539 34.2359 62.9339 33.6659 63.4913 33.1643C64.0091 32.6987 64.6505 32.3789 65.1353 31.8821C65.2745 31.7399 65.1341 31.5059 64.9439 31.5533C64.2371 31.7279 63.6293 32.2961 63.1187 32.7917C62.5517 33.3413 62.0699 33.9647 61.6601 34.6385C61.5119 34.8827 61.8851 35.0963 62.0405 34.8611Z" fill="#936FE9"/>
<path d="M65.6098 35.6622C66.1234 35.1114 66.7108 34.581 67.1188 33.945C67.2586 33.7266 66.9622 33.5526 66.7876 33.6888C66.208 34.1424 65.7466 34.7628 65.2588 35.3106C65.047 35.5482 65.3902 35.8974 65.6098 35.6622Z" fill="#936FE9"/>
<path d="M68.3779 37.0782C68.5963 36.8454 68.8147 36.612 69.0331 36.3792C69.2449 36.153 69.4753 35.9358 69.6013 35.6496C69.7099 35.4024 69.4789 35.1024 69.2107 35.2584C68.9377 35.4162 68.7505 35.6574 68.5495 35.895C68.3419 36.1392 68.1343 36.3834 67.9273 36.6282C67.6651 36.9366 68.0941 37.3818 68.3779 37.0782Z" fill="#936FE9"/>
<path d="M169.229 184.344C168.818 177.717 168.598 170.61 172.105 164.971C176.878 157.293 186.884 154.906 195.904 154.296C208.171 153.466 220.573 154.669 232.452 157.842C235.775 158.73 239.161 159.826 241.76 162.078C246.946 166.571 247.628 174.24 247.846 181.098C248.656 206.578 248.2 232.079 247.745 257.568C247.736 258.07 247.709 258.621 247.37 258.993C247.103 259.286 246.698 259.402 246.316 259.504C241.212 260.877 236.108 262.248 231.003 263.62C227.339 264.605 223.657 265.594 219.883 265.977C215.858 266.385 211.799 266.097 207.767 265.771C196.357 264.847 184.972 263.614 173.629 262.073C172.4 261.828 174.59 247.637 174.81 245.797C175.547 239.602 173.494 232.338 172.814 226.141C171.287 212.239 170.092 198.303 169.229 184.344Z" fill="#504AA8"/>
<path d="M224.597 117.655C224.344 122.646 222.903 127.578 223.257 132.562C223.612 137.546 226.514 145.416 231.429 146.314C222.439 158.083 203.745 161.72 188 158.083C182.759 156.871 175.32 151.194 172.306 146.737C169.681 142.856 166.548 133.729 165.8 129.103C164 117.973 164.346 108.977 168.082 100.096C170.394 94.5992 188.983 88.6328 194.667 88.9634C199.292 89.2322 203.561 90.6769 208.073 91.5043C211.062 92.0521 213.251 91.9819 215.642 94.0873C221.928 99.6217 225.011 109.517 224.597 117.655Z" fill="#7732EF"/>
<path d="M168.649 157.411C153.621 163.97 157.854 205.478 153.799 209.951C150.577 213.506 139.819 216.992 134.098 219.414C119.224 225.711 123.343 240.878 132.936 240.284C154.406 240.299 166.188 228.59 169.887 215.159C172.845 204.413 180.981 171.903 178.645 168.152C176.791 165.175 171.922 155.983 168.649 157.411Z" fill="#7F58DC"/>
<path d="M132.221 222.122C135.663 221.313 144.357 223.169 145.687 228.71C146.871 233.641 144.651 236.933 140.341 237.846C136.033 238.76 128.24 237.179 125.854 232.487C123.467 227.794 129.261 222.817 132.221 222.122Z" fill="#E9A979"/>
<path d="M146.744 234.18C146.66 234.75 144.675 238.575 144.173 240.102C143.974 240.709 140.388 238.898 142.549 234.978C142.955 234.242 141.934 232.487 141.002 231.572C140.631 234.287 141.381 236.343 140.388 238.898C140.075 239.704 139.575 240.619 138.713 240.694C137.538 240.797 136.981 234.477 135.977 232.934C135.157 233.732 137.234 240.698 134.6 240.698C131.859 241.806 131.81 233.795 131.256 231.84C130.782 235.294 132.436 240.802 130.191 240.762C128.736 239.945 127.278 236.287 127.7 232.317C127.7 232.317 127.595 240.035 124.994 239.302C124.098 239.049 124.184 232.99 125.016 230.596C125.848 228.202 127.1 226.75 128.876 224.485C130.076 222.954 138.296 224.769 140.24 224.841C141.656 224.893 147.458 229.337 146.744 234.18Z" fill="#F4B88B"/>
<path d="M229.475 158.501C231.243 159.826 235.563 167.92 235.481 170.243C235.259 176.571 234.591 182.884 233.485 189.119C230.204 207.594 224.512 230.464 229.475 248.562C208.179 248.62 182.078 250.491 160.939 247.901C160.869 231.578 167.515 231.249 167.19 214.929C167.086 209.746 160.81 200.483 160.939 195.69C161.132 188.571 166.504 185.017 167.19 179.501C168.298 170.585 166.333 159.11 168.65 157.411C173.194 154.08 176.982 152.302 178.74 151.801C185.452 149.889 186.882 151.265 193.818 150.319C206.702 148.562 218.93 150.593 229.475 158.501Z" fill="#936FE9"/>
<path d="M167.059 204.993C172.122 207.56 177.005 207.21 181.686 203.896C182.07 203.624 181.745 203.087 181.322 203.273C179.351 204.138 177.54 205.356 175.427 205.878C172.596 206.577 169.862 205.748 167.272 204.629C167.029 204.524 166.812 204.868 167.059 204.993Z" fill="#6438CC"/>
<path d="M186.869 203.285C193.743 208.855 201.496 208.088 209.269 204.97C209.696 204.799 209.704 204.008 209.148 204.077C205.471 204.532 202.273 206.371 198.484 206.443C194.407 206.521 190.534 205.166 187.243 202.799C186.961 202.596 186.595 203.063 186.869 203.285Z" fill="#6438CC"/>
<path d="M192.679 199.922H210.197V189.5H192.679V199.922Z" fill="white"/>
<path d="M199.935 188.203C199.935 188.193 199.932 188.185 199.932 188.175C199.932 187.309 200.634 186.608 201.499 186.608C202.365 186.608 203.066 187.309 203.066 188.175C203.066 188.185 203.064 188.193 203.064 188.203H204.662V191.295H198.281V188.203H199.935Z" fill="#A18CCD"/>
<path d="M204.245 197.318H207.885V192.898H204.245V197.318Z" fill="#D3C8E9"/>
<path d="M195.091 193.734H202.07V193.184H195.091V193.734Z" fill="#D3C8E9"/>
<path d="M195.091 195.385H202.07V194.835H195.091V195.385Z" fill="#D3C8E9"/>
<path d="M195.091 197.033H202.07V196.483H195.091V197.033Z" fill="#D3C8E9"/>
<path d="M188.75 145.739C185.844 146.833 180.85 149.35 176.325 155.8C171.8 162.25 171.05 166.341 171.05 166.341L177.919 170.263L172.499 177.4L185.652 192.076L210.877 177.1L207.05 170.263L215.434 166.341C215.434 166.341 217.7 149.57 208.328 144.389C201.856 140.81 195.101 143.35 188.75 145.739Z" fill="#CFCEEC"/>
<path d="M210.874 151.215C210.954 151.432 210.197 156.423 208.274 162.007C206.251 167.887 197.954 173.5 190.1 173.5C184.396 173.5 180.876 167.72 180.103 162.7C179.6 159.435 179.869 155.291 180.262 155.057C181.639 154.235 184.213 153.957 185.342 152.373C186.153 151.235 185.807 148.86 185.651 147.753C185.177 144.384 181.222 140.993 180.748 137.624C184.378 138.756 188.314 137.626 191.911 136.402C197.615 134.46 203.086 132.023 208.7 129.902C207.532 135.121 207.812 144.027 209.236 149.571C209.66 151.224 210.874 151.215 210.874 151.215Z" fill="#E9A979"/>
<path d="M185.652 189.311C191.723 185.311 197.066 180.45 200.256 176.049C202.975 172.299 205.301 169.154 208.275 162.006C201.993 164.862 186.35 166.341 180.103 162.699C180.103 162.699 179.334 160.701 180.575 170.262C181.618 178.299 182.895 184.114 185.652 189.311Z" fill="white"/>
<path d="M161.403 223.249C159.095 223.976 157.274 225.709 155.38 227.213C153.067 229.05 152.129 230.448 150.599 232.975C149.07 235.502 149.848 240.105 152.122 238.979C152.86 238.385 151.622 232.488 158.05 230.495C155.015 234.041 153.784 237.482 154.985 241.044C156.842 240.699 157.48 237.886 158.365 236.68C160.097 234.32 161.715 232.958 163.831 232.111C160.939 234.802 160.34 237.687 159.431 240.699C161.563 242.466 163.184 237.907 164.456 236.68C165.728 235.454 165.728 235.454 168.262 234.193C165.959 236.644 163.775 240.715 165.217 241.807C168.081 240.277 169.909 235.868 173.098 235.027C176.325 238.979 179.287 235.62 182.38 235.359C183.111 231.612 183.842 227.864 184.573 224.118C184.573 225.142 163.12 222.709 161.403 223.249Z" fill="#F4B88B"/>
<path d="M239.121 180.999C240.921 196.276 240.044 228.361 234.295 233.43C221.862 244.393 179.329 239.839 178.491 239.328C177.425 238.675 174.325 227.644 176.288 222.202C188.966 216.321 218.067 216.397 218.055 215.614C217.977 210.565 216.174 193.375 216.34 187.311C216.488 181.936 215.943 174.693 217.751 169.629C219.125 165.78 223.101 155.95 229.475 158.499C234.35 160.449 238.224 173.387 239.121 180.999Z" fill="#754CD6"/>
<path d="M219.651 164.539C214.013 177.298 215.196 192.147 216.526 205.665C216.708 207.519 216.904 209.371 217.103 211.223C217.27 212.772 218.159 215.209 216.514 215.765C214.795 216.345 212.31 216.106 210.49 216.253C208.5 216.412 206.51 216.574 204.52 216.746C196.431 217.445 188.387 218.427 180.427 220.05C179.724 220.192 180.021 221.27 180.723 221.125C193.082 218.577 205.626 217.75 218.173 216.696C218.437 216.675 218.742 216.468 218.709 216.161C216.934 199.512 213.769 180.813 220.259 164.796C220.399 164.449 219.802 164.194 219.651 164.539Z" fill="#6438CC"/>
<path d="M220.711 217.234C222.356 218.476 223.983 219.738 225.499 221.138C226.769 222.31 227.848 223.781 229.224 224.812C229.645 225.127 230.126 224.531 229.904 224.132C228.994 222.49 227.271 221.135 225.865 219.924C224.387 218.651 222.819 217.492 221.137 216.505C220.655 216.222 220.289 216.914 220.711 217.234Z" fill="#6438CC"/>
<path d="M219.863 219.232C220.838 221.32 221.762 223.433 222.525 225.609C223.127 227.321 223.452 229.205 224.36 230.78C224.541 231.094 225.041 230.957 225.041 230.595C225.038 226.726 222.415 222.131 220.544 218.835C220.289 218.386 219.653 218.78 219.863 219.232Z" fill="#6438CC"/>
<path d="M179.128 224.297C178.628 228.077 178.954 232.991 181.327 236.158C181.543 236.445 182.055 236.294 181.944 235.897C181.437 234.087 180.593 232.427 180.202 230.572C179.765 228.504 179.67 226.405 179.784 224.297C179.808 223.865 179.182 223.892 179.128 224.297Z" fill="#6438CC"/>
<path d="M198.112 144.734C194.814 147.8 189.653 149.57 185.652 149.57C181.261 149.57 176.241 143.145 173.402 136.678C168.6 125.739 169.91 116.8 171.4 106C171.959 101.952 176.757 98.1665 180.252 96.0491C182.488 94.6943 185.087 94.0355 187.685 93.7415C194.707 92.9477 202.19 94.9043 207.31 99.7751C215.697 107.755 212.796 117.043 209.947 126.575C207.088 136.138 205.535 137.832 198.112 144.734Z" fill="#F4B88B"/>
<path d="M185.131 120.831C184.757 125.079 181.247 127.556 180.041 131.355C179.298 133.692 182.792 134.38 184.493 134.956C185.107 135.163 185.447 134.367 185.081 133.945C184.231 132.966 182.4 133.113 181.668 132.245C180.972 131.419 182.456 129.852 182.982 129.015C184.542 126.533 186.213 123.861 186.171 120.831C186.162 120.151 185.189 120.173 185.131 120.831Z" fill="#C8956E"/>
<path d="M193.844 123.585C193.844 124.879 194.407 125.928 195.101 125.928C195.794 125.928 196.357 124.879 196.357 123.585C196.357 122.291 195.794 121.242 195.101 121.242C194.407 121.242 193.844 122.291 193.844 123.585Z" fill="#281E50"/>
<path d="M176.662 122.634C176.662 123.928 177.226 124.977 177.919 124.977C178.613 124.977 179.176 123.928 179.176 122.634C179.176 121.34 178.613 120.291 177.919 120.291C177.226 120.291 176.662 121.34 176.662 122.634Z" fill="#281E50"/>
<path d="M200.184 128.778C199.673 128.425 198.997 128.459 198.394 128.418C197.695 128.372 196.981 128.336 196.282 128.403C195.356 128.492 195.316 129.867 196.282 129.875C196.985 129.88 197.69 129.82 198.394 129.807C199.015 129.795 199.616 129.885 200.184 129.603C200.53 129.432 200.456 128.966 200.184 128.778Z" fill="#E9A979"/>
<path d="M176.325 127.257C175.767 127.286 175.204 127.318 174.647 127.257C174.13 127.2 173.586 126.934 173.125 127.276C172.873 127.464 172.786 127.735 172.929 128.027C173.218 128.62 173.961 128.611 174.542 128.641C175.199 128.675 175.852 128.62 176.486 128.445C177.127 128.268 177.021 127.222 176.325 127.257Z" fill="#E9A979"/>
<path d="M172.662 115.687C174.174 112.927 177.313 113.878 179.765 114.346C179.983 114.387 180.054 114.102 179.856 114.02C177.367 112.996 173.731 112.648 172.338 115.498C172.233 115.712 172.544 115.901 172.662 115.687Z" fill="#B67B4E"/>
<path d="M191.829 115.492C194.236 113.704 196.858 114.108 199.239 115.639C199.449 115.774 199.648 115.48 199.495 115.308C197.499 113.069 193.72 113.359 191.574 115.161C191.392 115.312 191.636 115.635 191.829 115.492Z" fill="#B67B4E"/>
<path d="M179.6 137.2C179.6 137.2 185.188 139.08 191.084 136.678C191.084 136.678 190.4 143.35 185.652 143.35C180.575 143.35 179.6 137.2 179.6 137.2Z" fill="white"/>
<path d="M197.337 102.511C198.112 106.465 206.971 126.37 213.593 128.353C213.86 128.433 214.164 128.501 214.403 128.359C214.599 128.241 214.696 128.013 214.779 127.799C216.605 123.142 224.675 114.736 224.675 113.993C224.675 96.1201 215.434 88.9435 208.155 89.4823C207.443 89.5345 206.765 89.9593 206.061 89.8375C205.353 89.7157 204.8 89.1811 204.249 88.7185C199.711 84.9091 191.28 83.5441 185.652 85.3975C174.863 88.9507 170.124 95.4745 168.082 100.097C166.232 104.284 166.779 111.462 168.95 111.834C173.065 112.539 193.031 106.962 197.337 102.511Z" fill="#7732EF"/>
<path d="M206.531 125.007L206.577 124.726C207.35 121.85 210.285 118.716 213.134 119.587C217.2 120.831 215.275 129.189 211.988 133.192C211.119 134.25 209.937 135.304 208.575 135.168C206.667 134.977 205.848 132.634 205.784 130.718C205.718 128.791 205.972 126.853 206.531 125.007Z" fill="#F4B88B"/>
<path d="M209.477 124.698C210.052 124.051 210.714 123.377 211.454 122.924C213.713 121.539 213.417 125.768 213.13 127.01C212.581 129.387 210.49 132.768 207.7 131.655C207.416 131.542 207.127 131.934 207.298 132.179C208.18 133.439 209.96 132.764 210.953 132.013C212.752 130.653 213.812 128.368 214.064 126.165C214.207 124.914 214.371 121.706 212.427 121.731C211.087 121.75 209.659 123.287 208.94 124.284C208.713 124.598 209.221 124.988 209.477 124.698Z" fill="#C8956E"/>
<path d="M209.014 127.418C209.907 127.441 209.916 128.627 209.52 129.164C209.129 129.694 208.342 129.85 208.043 130.413C207.97 130.551 208.025 130.774 208.204 130.805C209.205 130.978 210.455 129.647 210.574 128.71C210.692 127.771 210.035 126.73 209.014 126.799C208.619 126.826 208.612 127.408 209.014 127.418Z" fill="#C8956E"/>
<path d="M200.968 102.579C203.041 107.796 205.457 113.278 208.769 117.835C208.957 118.092 209.341 117.875 209.198 117.584C206.684 112.464 203.838 107.579 201.533 102.34C201.394 102.023 200.838 102.252 200.968 102.579Z" fill="#420F9B"/>
<path d="M204.809 100.472C207.416 105.432 209.805 110.994 213.083 115.539C213.29 115.826 213.862 115.666 213.709 115.275C211.643 110.009 208.271 104.999 205.489 100.075C205.239 99.6322 204.574 100.025 204.809 100.472Z" fill="#420F9B"/>
<path d="M207.914 97.9167C210.554 99.5943 212.757 101.818 214.232 104.597C215.631 107.235 215.949 109.804 216.539 112.67C216.603 112.977 217.014 112.867 217.046 112.601C217.749 106.518 213.135 100.394 208.232 97.3743C207.886 97.1613 207.575 97.7007 207.914 97.9167Z" fill="#420F9B"/>
<path d="M212.194 95.0906C218.703 99.8726 221.822 107.858 219.86 115.751C219.718 116.319 220.589 116.56 220.737 115.993C222.822 107.973 219.569 99.0152 212.531 94.5158C212.163 94.2806 211.857 94.8422 212.194 95.0906Z" fill="#420F9B"/>
<path d="M219.309 123.35C218.533 131.287 218.976 141.794 226.447 146.698C226.806 146.933 227.227 146.392 226.908 146.102C220.174 139.978 219.614 131.99 220.04 123.35C220.063 122.874 219.354 122.89 219.309 123.35Z" fill="#420F9B"/>
<path d="M215.586 133.899C215.591 139.359 217.496 145.655 221.899 149.199C222.11 149.368 222.499 149.145 222.311 148.881C218.954 144.145 216.463 139.873 216.195 133.899C216.178 133.509 215.586 133.505 215.586 133.899Z" fill="#420F9B"/>
<path d="M212.617 139.021C212.773 142.392 214.252 146.109 217.066 148.13C217.369 148.347 217.636 147.898 217.435 147.651C215.244 144.947 213.68 142.461 213.188 138.943C213.143 138.619 212.603 138.697 212.617 139.021Z" fill="#420F9B"/>
<path d="M171.563 108.018C178.412 106.707 185.268 104.376 191.333 100.889C191.761 100.643 191.385 100.023 190.949 100.234C184.613 103.307 178.266 105.807 171.418 107.493C171.075 107.578 171.222 108.083 171.563 108.018Z" fill="#420F9B"/>
<path d="M173.187 102.402C176.363 100.453 179.672 98.8734 183.306 97.9812C187.043 97.0644 190.556 97.4142 194.308 97.1796C194.576 97.1628 194.646 96.7806 194.372 96.7008C187.499 94.6986 178.453 97.8834 172.946 101.989C172.707 102.169 172.919 102.568 173.187 102.402Z" fill="#420F9B"/>
<path d="M175.663 96.0781C178.604 94.9375 181.632 93.3679 184.731 92.7277C188.793 91.8883 192.654 93.1219 196.513 94.2577C196.967 94.3915 197.151 93.6997 196.707 93.5527C193.327 92.4361 189.66 91.3567 186.06 91.7887C182.394 92.2291 178.838 94.2469 175.515 95.7271C175.319 95.8147 175.46 96.1573 175.663 96.0781Z" fill="#420F9B"/>
<path d="M183.628 88.9935C189.482 87.0165 194.519 88.2411 199.811 91.0203C200.14 91.1937 200.551 90.7371 200.231 90.4755C195.631 86.7123 188.858 86.4627 183.503 88.5411C183.228 88.6485 183.338 89.0913 183.628 88.9935Z" fill="#420F9B"/>
<path d="M257.301 242.202H3.4988C1.84274 242.202 0.5 243.545 0.5 245.201V272.501C0.5 274.158 1.84274 275.5 3.4988 275.5H257.301C258.958 275.5 260.3 274.158 260.3 272.501V245.201C260.3 243.545 258.958 242.202 257.301 242.202Z" fill="#631EDB"/>
<path d="M7.70038 252.118C23.2368 252.843 38.8905 252.39 54.4422 252.408C70.2228 252.426 86.0028 252.421 101.783 252.424C133.144 252.428 164.505 252.433 195.866 252.438C213.444 252.441 231.022 252.445 248.6 252.451C249.439 252.451 249.44 251.148 248.6 251.148C185.879 251.166 123.157 251.112 60.435 251.183C42.8916 251.203 25.226 250.661 7.70038 251.481C7.29046 251.5 7.2895 252.098 7.70038 252.118Z" fill="#7732EF"/>
<path d="M9.4996 258.54C25.69 259.306 42.0418 258.742 58.2496 258.747C66.1762 258.749 74.1034 258.752 82.03 258.754C90.2812 258.757 98.7892 259.351 107 258.503C107.517 258.449 107.518 257.75 107 257.697C98.983 256.868 90.6808 257.442 82.6246 257.445C74.4994 257.447 66.3748 257.45 58.2496 257.452C42.0424 257.458 25.69 256.894 9.4996 257.659C8.93314 257.686 8.9317 258.513 9.4996 258.54Z" fill="#7732EF"/>
<path d="M9.8001 265.835C15.2859 266.399 20.9386 266.115 26.4501 266.128C31.9354 266.139 37.6504 266.583 43.1001 265.966C43.5693 265.913 43.5705 265.288 43.1001 265.235C37.649 264.618 31.9357 265.063 26.4501 265.074C20.9388 265.087 15.2847 264.802 9.8001 265.366C9.49914 265.397 9.49872 265.804 9.8001 265.835Z" fill="#7732EF"/>
<path d="M11.6005 269.415C17.8147 269.922 24.5905 270.208 30.8005 269.617C31.3363 269.566 31.3372 268.834 30.8005 268.783C24.5915 268.191 17.8173 268.477 11.6005 268.984C11.3235 269.007 11.323 269.392 11.6005 269.415Z" fill="#7732EF"/>
<path d="M53.9794 236.845H151.991L146.379 173.5H48.3682L53.9794 236.845Z" fill="#C8B6F3"/>
<path d="M50.6122 236.845H148.623L143.012 173.5H45.001L50.6122 236.845Z" fill="#DDCFFF"/>
<path d="M50.6122 236.845H72.5494L66.9382 173.5H45.001L50.6122 236.845Z" fill="#D3C1FF"/>
<path d="M50.6123 236.846L184.63 236.873V242.203L50.6123 242.177V236.846Z" fill="#AE8FF7"/>
<path d="M148.624 236.846L184.631 236.873V242.203L148.624 242.177V236.846Z" fill="#9873F0"/>
<path d="M85.7944 205.505C86.0014 206.383 86.3416 207.254 86.95 207.921C87.5584 208.587 88.471 209.022 89.3638 208.888C90.7366 208.683 91.5952 207.305 92.8204 206.652C93.8164 206.12 95.0734 206.111 96.0766 206.628C97.2766 207.246 98.2678 208.586 99.6058 208.409C100.761 208.257 101.525 207.046 101.741 205.901C102.716 200.721 100.13 194.651 93.85 194.31C88.4194 194.016 84.709 200.903 85.7944 205.505Z" fill="#EDECF8"/>
</svg>
