<svg width="222" height="228" viewBox="0 0 222 228" fill="none" xmlns="http://www.w3.org/2000/svg">
<path d="M219.198 170.441H2.80329C1.34427 170.441 0.150391 169.248 0.150391 167.789C0.150391 166.33 1.34427 165.137 2.80329 165.137H219.198C220.657 165.137 221.85 166.33 221.85 167.789C221.85 169.248 220.657 170.441 219.198 170.441Z" fill="#DFDFDD"/>
<path d="M11.7725 162.729H205.367V51.4909H11.7725V162.729Z" fill="#AE8FF7"/>
<path d="M212.212 168.014H6.4707V162.728H212.212V168.014Z" fill="#A3ABB8"/>
<path d="M74.5264 73.8272V156.604H107.73L156.395 73.8272H74.5264Z" fill="#7732EF"/>
<path d="M177.612 73.8272L128.947 156.604H132.216L180.881 73.8272H177.612Z" fill="#7732EF"/>
<path d="M162.773 73.8272L114.108 156.604H125.759L174.422 73.8272H162.773Z" fill="#7732EF"/>
<path d="M186.734 90.569L147.912 156.604H186.734V90.569Z" fill="#7732EF"/>
<path d="M186.734 73.8272H180.881L132.216 156.604H147.912L186.734 90.569V73.8272Z" fill="#7732EF"/>
<path d="M156.395 73.8272L107.73 156.604H114.108L162.773 73.8272H156.395Z" fill="#7732EF"/>
<path d="M174.422 73.8272L125.759 156.604H128.947L177.612 73.8272H174.422Z" fill="#7732EF"/>
<path d="M76.9688 75.8944V154.535H108.513L154.746 75.8944H76.9688Z" fill="#DACAFF"/>
<path d="M174.901 75.8944L128.669 154.535H131.775L178.007 75.8944H174.901Z" fill="#DACAFF"/>
<path d="M160.804 75.8944L114.571 154.535H125.639L171.872 75.8944H160.804Z" fill="#DACAFF"/>
<path d="M183.569 91.7998L146.688 154.535H183.569V91.7998Z" fill="#DACAFF"/>
<path d="M183.568 75.8944H178.007L131.774 154.535H146.686L183.568 91.7998V75.8944Z" fill="white"/>
<path d="M154.746 75.8944L108.513 154.535H114.571L160.804 75.8944H154.746Z" fill="white"/>
<path d="M171.872 75.8944L125.64 154.535H128.669L174.901 75.8944H171.872Z" fill="white"/>
<path d="M171.92 86.248H168.814L169.053 85.8424C170.398 85.7386 171.655 85.3804 172.756 84.826L171.92 86.248Z" fill="#87A6C0"/>
<path d="M183.566 86.248H171.92L172.756 84.826C174.711 83.8414 176.175 82.2382 176.771 80.3386C177.624 83.0596 180.259 85.1723 183.566 85.7297V86.248Z" fill="#9F8CEA"/>
<path d="M165.785 86.248H154.718L155.503 84.9124C157.546 83.9368 159.081 82.2952 159.694 80.3386C160.516 82.96 162.992 85.0168 166.13 85.6624L165.785 86.248Z" fill="#AE8FF7"/>
<path d="M148.658 86.248H139.918L139.894 85.822C139.867 85.3222 139.781 84.8387 139.645 84.3773C141.089 83.4587 142.186 82.1741 142.745 80.6885C143.666 83.1287 146.035 85.0265 149.008 85.6529L148.658 86.248ZM93.0372 83.1412L89.6016 82.6091C90.5154 81.4391 91.0464 80.0398 91.0464 78.5362V78.4438C91.0464 80.2258 91.7928 81.8614 93.0372 83.1412Z" fill="#AE8FF7"/>
<path d="M154.717 86.248H148.658L149.008 85.6529C149.695 85.7975 150.414 85.8742 151.155 85.8742C152.736 85.8742 154.22 85.5244 155.502 84.9124L154.717 86.248Z" fill="#A0B5BE"/>
<path d="M168.815 86.248H165.785L166.13 85.6624C166.803 85.8004 167.508 85.8742 168.233 85.8742C168.51 85.8742 168.783 85.8634 169.053 85.8424L168.815 86.248Z" fill="#A0B5BE"/>
<path d="M20.0049 162.729H59.24V79.4431H20.0049V162.729Z" fill="#7732EF"/>
<path d="M22.8799 127.732H56.1829V82.2986H22.8799V127.732Z" fill="#936FE9"/>
<path d="M25.9243 133.69C25.9243 134.539 25.2427 135.229 24.4021 135.229C23.5615 135.229 22.8799 134.539 22.8799 133.69C22.8799 132.84 23.5615 132.151 24.4021 132.151C25.2427 132.151 25.9243 132.84 25.9243 133.69Z" fill="#D3D4D3"/>
<path d="M25.9246 133.69C25.9246 133.69 25.9288 133.537 25.855 133.286C25.7908 133.039 25.5736 132.69 25.186 132.509C24.8104 132.329 24.2932 132.352 23.9332 132.618C23.7592 132.751 23.6266 132.924 23.533 133.105C23.4496 133.314 23.3944 133.453 23.401 133.69C23.3878 134.093 23.5858 134.492 23.932 134.765C24.0166 134.827 24.1258 134.886 24.2146 134.917C24.3244 134.959 24.4516 134.978 24.5494 134.988C24.7708 135.003 24.9934 134.959 25.1866 134.873C25.5742 134.69 25.7908 134.341 25.8556 134.094C25.9288 133.844 25.9246 133.69 25.9246 133.69ZM25.9246 133.69C25.9036 133.664 26.0362 134.364 25.3156 135.063C25.1356 135.228 24.8932 135.371 24.6016 135.448C24.4426 135.483 24.3028 135.507 24.145 135.504C23.9638 135.503 23.8066 135.474 23.6344 135.425C23.2954 135.327 22.9648 135.112 22.7338 134.799C22.4878 134.493 22.3756 134.087 22.3594 133.69C22.3696 133.325 22.4902 132.868 22.7314 132.58C22.9636 132.267 23.2924 132.05 23.6326 131.953C24.3136 131.742 24.9586 131.982 25.3162 132.316C26.0362 133.016 25.9036 133.715 25.9246 133.69Z" fill="#936FE9"/>
<path d="M23.8379 83.2554V116.15L40.8539 83.2554H23.8379Z" fill="#DACAFF"/>
<path d="M45.5513 83.2544L23.8379 125.23V126.6H28.7681L51.1907 83.2544H45.5513Z" fill="#DACAFF"/>
<path d="M53.5404 83.2544L31.1172 126.6H32.5896L55.0128 83.2544H53.5404Z" fill="#DACAFF"/>
<path d="M55.4063 84.7622L33.7637 126.6H55.4063V84.7622Z" fill="#DACAFF"/>
<path d="M40.8549 83.2548L23.8389 116.15V125.23L45.5523 83.2548H40.8549Z" fill="#ECF6FD"/>
<path d="M51.1912 83.2544L28.7686 126.6H31.117L53.5402 83.2544H51.1912Z" fill="#ECF6FD"/>
<path d="M55.4066 83.2544H55.013L32.5898 126.6H33.764L55.4066 84.7622V83.2544Z" fill="#ECF6FD"/>
<path d="M202.386 85.9688C198.264 85.9688 194.813 83.5945 193.833 80.3869C192.938 83.1715 190.171 85.3105 186.734 85.7797V73.8277H180.88H177.611H174.422H162.772H156.394H121.166V69.9283C121.166 65.9557 117.916 62.7056 113.943 62.7056C109.971 62.7056 106.721 65.9557 106.721 69.9283V73.8277H74.5258V80.3131L73.5796 80.1662C73.4404 79.6424 73.3666 79.0969 73.3666 78.5377V78.4453C73.3666 79.0135 73.291 79.5673 73.147 80.0989L47.2408 76.0826C46.9162 76.0321 46.5934 76.0075 46.2748 76.0075C43.891 76.0075 41.7196 77.3696 40.6498 79.4438H21.6124C21.5602 79.1174 21.5332 78.7837 21.5332 78.4453C21.5332 78.7837 21.5062 79.1174 21.4528 79.4438H20.0039V82.5974C18.3928 84.575 15.6628 85.8757 12.5667 85.8757C12.2984 85.8757 12.0337 85.8619 11.7715 85.8421V61.6868H21.5332H38.6104H39.2128H55.6876H56.2894H73.3666V61.7797H91.0462V61.6868H108.726H125.803H126.099H142.573H142.918H159.392H159.995H176.469H177.072H194.149V61.7797H205.365V85.5265C204.434 85.8079 203.433 85.9688 202.386 85.9688Z" fill="#936FE9"/>
<path d="M76.9684 80.6914L74.5264 80.3128V73.8274H106.721V75.8956H76.9684V80.6914ZM155.179 75.8956H154.746H121.167V73.8274H156.395L155.179 75.8956Z" fill="#7732EF"/>
<path d="M179.664 75.8945H176.396L177.612 73.8263H180.881L179.664 75.8945Z" fill="#7732EF"/>
<path d="M173.206 75.8945H161.557L162.772 73.8263H174.422L173.206 75.8945Z" fill="#7732EF"/>
<path d="M185.309 85.875C184.713 85.875 184.131 85.8252 183.568 85.7304V75.8952H179.664L180.88 73.827H186.734V85.779C186.27 85.842 185.794 85.875 185.309 85.875Z" fill="#7732EF"/>
<path d="M161.557 75.8945H155.179L156.394 73.8263H162.772L161.557 75.8945Z" fill="#7732EF"/>
<path d="M176.396 75.8945H173.207L174.423 73.8263H177.612L176.396 75.8945Z" fill="#7732EF"/>
<path d="M183.568 85.7305C183.568 85.7305 183.567 85.7305 183.566 85.7305V75.8953H178.007H179.664H183.568V85.7305Z" fill="#CCD5E0"/>
<path d="M169.053 85.8438L174.902 75.8957H178.007L172.756 84.8274C171.655 85.3818 170.398 85.7399 169.053 85.8438Z" fill="#DDCFFF"/>
<path d="M183.566 85.7305C180.259 85.1731 177.624 83.0605 176.771 80.3395C176.175 82.2391 174.711 83.8423 172.756 84.8269L178.007 75.8953H183.566V85.7305Z" fill="#936FE9"/>
<path d="M166.129 85.6641C162.991 85.0185 160.516 82.9617 159.694 80.3403C159.08 82.2969 157.546 83.9385 155.502 84.9141L160.804 75.8961H171.872L166.129 85.6641Z" fill="#DDCFFF"/>
<path d="M149.009 85.6543C146.035 85.0279 143.667 83.1301 142.746 80.6899C142.186 82.1755 141.09 83.4601 139.646 84.3787C138.858 81.7051 136.371 79.7785 133.504 79.7785C133.386 79.7785 133.267 79.7815 133.147 79.7881C132.14 79.8445 131.199 80.1337 130.372 80.6011C128.373 79.0441 125.864 78.1141 123.149 78.1141H121.013C121.114 77.6353 121.167 77.1385 121.167 76.6303V75.8959H154.746L149.009 85.6543ZM94.8949 83.4307L93.038 83.1427C91.7936 81.8629 91.0471 80.2273 91.0471 78.4453V78.5377C91.0471 80.0413 90.5162 81.4405 89.6024 82.6105L78.5995 80.9041L78.5935 80.9431L78.2497 80.8903L77.4823 80.7709L76.9688 80.6917V75.8959H106.722V76.6303C106.722 77.1385 106.774 77.6353 106.876 78.1141H104.74C100.64 78.1141 97.0111 80.2339 94.8949 83.4307Z" fill="#DDCFFF"/>
<path d="M151.156 85.875C150.415 85.875 149.696 85.7982 149.009 85.6536L154.746 75.8952H160.805L155.503 84.9132C154.22 85.5252 152.737 85.875 151.156 85.875Z" fill="#936FE9"/>
<path d="M168.233 85.875C167.508 85.875 166.804 85.8012 166.13 85.6632L171.872 75.8952H174.902L169.053 85.8432C168.783 85.8642 168.51 85.875 168.233 85.875Z" fill="#936FE9"/>
<path d="M20.0039 82.5977V79.4441H21.4528C21.2656 80.6009 20.757 81.6731 20.0039 82.5977ZM22.879 82.3883C22.2256 81.5129 21.7834 80.5145 21.6124 79.4441H40.6498C40.3474 80.0309 40.1332 80.6746 40.0264 81.3604C39.9778 81.676 39.9532 81.9898 39.952 82.3H39.9022C39.4672 81.6976 39.1306 81.0394 38.9116 80.3404C38.6926 81.0394 38.356 81.6976 37.921 82.3H22.879V82.3883Z" fill="#7732EF"/>
<path d="M23.8387 83.4473C23.4829 83.1197 23.1619 82.7651 22.8799 82.3871V82.2989H37.9219C37.6783 82.6361 37.4035 82.9553 37.1017 83.2547H23.8387V83.4473ZM39.9529 82.3673C39.9361 82.3445 39.9199 82.3217 39.9031 82.2989H39.9529C39.9529 82.3217 39.9529 82.3445 39.9529 82.3673Z" fill="#A72D34"/>
<path d="M6.13281 47.6836V64.057C6.13281 68.0662 9.89361 71.3164 14.5331 71.3164C19.1725 71.3164 22.9338 68.0662 22.9338 64.057V47.6836H6.13281Z" fill="#7732EF"/>
<path d="M22.9336 47.6836V64.057C22.9336 68.0662 26.6944 71.3164 31.3336 71.3164C35.9734 71.3164 39.7342 68.0662 39.7342 64.057V47.6836H22.9336Z" fill="#C9B8D0"/>
<path d="M39.7344 47.6836V64.057C39.7344 68.0662 43.4958 71.3164 48.135 71.3164C52.7748 71.3164 56.5356 68.0662 56.5356 64.057V47.6836H39.7344Z" fill="#7732EF"/>
<path d="M56.5352 47.6836V64.057C56.5352 68.0662 60.296 71.3164 64.9358 71.3164C69.575 71.3164 73.3358 68.0662 73.3358 64.057V47.6836H56.5352Z" fill="#C9B8D0"/>
<path d="M73.3359 47.7734V64.1463C73.3359 68.1555 77.0973 71.4062 81.7365 71.4062C86.3757 71.4062 90.1371 68.1555 90.1371 64.1463V47.7734H73.3359Z" fill="#7732EF"/>
<path d="M90.1367 47.6836V64.057C90.1367 68.0662 93.8975 71.3164 98.5373 71.3164C103.177 71.3164 106.937 68.0662 106.937 64.057V47.6836H90.1367Z" fill="#C9B8D0"/>
<path d="M106.938 47.6836V64.057C106.938 68.0662 110.699 71.3164 115.338 71.3164C119.978 71.3164 123.738 68.0662 123.738 64.057V47.6836H106.938Z" fill="#7732EF"/>
<path d="M123.448 47.6836V64.057C123.448 68.0662 127.209 71.3164 131.848 71.3164C136.488 71.3164 140.249 68.0662 140.249 64.057V47.6836H123.448Z" fill="#C9B8D0"/>
<path d="M140.004 47.6836V64.057C140.004 68.0662 143.765 71.3164 148.405 71.3164C153.044 71.3164 156.805 68.0662 156.805 64.057V47.6836H140.004Z" fill="#7732EF"/>
<path d="M173.605 47.6836V64.057C173.605 68.0662 177.366 71.3164 182.006 71.3164C186.645 71.3164 190.407 68.0662 190.407 64.057V47.6836H173.605Z" fill="#7732EF"/>
<path d="M156.805 47.6836V64.057C156.805 68.0662 160.565 71.3164 165.205 71.3164C169.844 71.3164 173.605 68.0662 173.605 64.057V47.6836H156.805Z" fill="#C9B8D0"/>
<path d="M190.406 47.7734V64.1463C190.406 68.1555 194.166 71.4062 198.807 71.4062C203.446 71.4062 207.207 68.1555 207.207 64.1463V47.7734H190.406Z" fill="#C9B8D0"/>
<path d="M182.833 31.6061H29.745L6.70508 47.623H205.872L182.833 31.6061Z" fill="#AE8FF7"/>
<path d="M22.9336 47.6836L40.7626 31.6066H52.9774L39.7342 47.6836H22.9336Z" fill="#F4FBFC"/>
<path d="M207.208 47.6523L189.556 31.5747H178.786L190.574 47.6523H207.208Z" fill="#F4FBFC"/>
<path d="M173.606 47.6536L163.007 31.6066L150.112 31.576L156.805 47.6836L173.606 47.6536Z" fill="#F4FBFC"/>
<path d="M56.5352 47.6523L68.021 31.6053L80.6408 31.5747L73.3358 47.6523H56.5352Z" fill="#F4FBFC"/>
<path d="M90.1367 47.6523L97.1603 31.5747L109.852 31.6053L106.938 47.6523H90.1367Z" fill="#F4FBFC"/>
<path d="M140.004 47.6836L133.226 31.576L120.533 31.6066L123.448 47.6536L140.004 47.6836Z" fill="#F4FBFC"/>
<path d="M55.0127 157.799H23.8379V139.204H55.0127V157.799Z" fill="#936FE9"/>
<mask id="mask0_467_27777" style="mask-type:luminance" maskUnits="userSpaceOnUse" x="23" y="83" width="18" height="7">
<path d="M37.4147 89.9023H23.8379V83.447C25.4543 84.9386 27.7835 85.8746 30.3731 85.8746C33.0713 85.8746 35.4821 84.857 37.1009 83.2544H40.0217C40.0781 83.6288 40.1675 83.9948 40.2881 84.3482L37.4147 89.9023Z" fill="white"/>
</mask>
<g mask="url(#mask0_467_27777)">
<path d="M23.8379 89.9023H40.288V83.2543H23.8379V89.9023Z" fill="#AE8FF7"/>
</g>
<path d="M47.7517 89.9023H42.1123L43.1809 87.8377C43.8217 88.1995 44.5369 88.4539 45.3043 88.5733L48.2071 89.0233L47.7517 89.9023Z" fill="#87A6C0"/>
<path d="M51.5724 89.9023H50.1006L50.3808 89.36L51.744 89.5718L51.5724 89.9023Z" fill="#87A6C0"/>
<path d="M53.8793 89.9023H52.7471L52.8311 89.7403L53.8793 89.9023Z" fill="#87A6C0"/>
<path d="M42.1124 89.9023H37.415L40.2884 84.3482C40.7888 85.8158 41.819 87.0691 43.181 87.8377L42.1124 89.9023Z" fill="#A0B5BE"/>
<path d="M50.101 89.9023H47.752L48.2074 89.0233L50.3812 89.36L50.101 89.9023Z" fill="#A0B5BE"/>
<path d="M52.7465 89.9023H51.5723L51.7439 89.5718L52.8305 89.7403L52.7465 89.9023Z" fill="#A0B5BE"/>
<path d="M30.3741 85.875C27.7845 85.875 25.4553 84.939 23.8389 83.4474V83.2548H37.1019C35.4831 84.8574 33.0723 85.875 30.3741 85.875Z" fill="#7996AD"/>
<path d="M29.6855 31.6055H189.292V16.4492H29.6855V31.6055Z" fill="#936FE9"/>
<path d="M163.251 31.9805H56.4665C47.7791 31.9805 40.6709 24.8723 40.6709 16.1849C40.6709 7.49748 47.7791 0.389269 56.4665 0.389269H163.251C171.939 0.389269 179.047 7.49748 179.047 16.1849C179.047 24.8723 171.939 31.9805 163.251 31.9805Z" fill="#7732EF"/>
<path d="M163.024 30.2129H56.6949C49.0647 30.2129 42.8223 23.9705 42.8223 16.3403C42.8223 8.71008 49.0647 2.46768 56.6949 2.46768H163.024C170.654 2.46768 176.897 8.71008 176.897 16.3403C176.897 23.9705 170.654 30.2129 163.024 30.2129Z" fill="#AE8FF7"/>
<path d="M182.069 36.0527L165.905 35.9939L163.254 31.9805C164.425 31.9805 165.567 31.8509 166.668 31.6061H178.809L182.069 36.0527ZM151.927 35.9435L135.039 35.8829L133.396 31.9805H150.281L151.927 35.9435Z" fill="#AE8FF7"/>
<path d="M194.521 36.0977L182.069 36.0527L178.809 31.6061H189.293L194.52 36.0965L194.521 36.0977Z" fill="#D3DADA"/>
<path d="M165.904 35.9941L151.927 35.9438L150.28 31.9807H163.251C163.252 31.9807 163.253 31.9807 163.253 31.9807L165.904 35.9941Z" fill="#D3DADA"/>
<path d="M24.168 35.4824L29.7444 31.6064L24.1686 35.4824" fill="#DEDCDB"/>
<path d="M121.301 35.832L109.093 35.7876L109.784 31.9794H120.601L121.301 35.832ZM95.3412 35.7384L78.7758 35.6784L80.4564 31.9794H96.9834L95.3412 35.7384ZM65.1402 35.6292L49.7082 35.5734L52.977 31.605H53.0502C54.1512 31.8498 55.2942 31.9794 56.466 31.9794H67.7526L65.1402 35.6292ZM36.4146 35.5254L24.168 35.481L29.7444 31.605H40.7622L36.4146 35.5254Z" fill="#AE8FF7"/>
<path d="M49.7086 35.5742L36.415 35.5262L40.7626 31.6058H52.9774L49.7086 35.5742Z" fill="#D3DADA"/>
<path d="M78.7762 35.6797L65.1406 35.6305L67.753 31.9807H80.4568L78.7762 35.6797Z" fill="#D3DADA"/>
<path d="M109.093 35.7891L95.3418 35.7399L96.984 31.9809H109.785L109.093 35.7891Z" fill="#D3DADA"/>
<path d="M135.038 35.8828L121.301 35.833L120.601 31.9804H133.396L135.038 35.8828Z" fill="#D3DADA"/>
<path d="M163.252 31.9805H56.4666C55.2948 31.9805 54.1518 31.8509 53.0508 31.6061H166.667C165.567 31.8509 164.425 31.9805 163.254 31.9805C163.253 31.9805 163.252 31.9805 163.252 31.9805Z" fill="#7732EF"/>
<path d="M151.437 227.611H74.3752C72.9664 227.611 71.8145 226.459 71.8145 225.051C71.8145 223.642 72.9664 222.489 74.3752 222.489H151.437C152.845 222.489 153.997 223.642 153.997 225.051C153.997 226.459 152.845 227.611 151.437 227.611Z" fill="#DFDFDD"/>
<path d="M129.925 134.778L127.733 95.4899C127.542 92.0621 130.19 89.1011 133.618 88.9103C137.045 88.7189 140.006 91.3667 140.197 94.7945L142.389 134.083C142.581 137.51 139.933 140.471 136.505 140.662C133.078 140.854 130.117 138.206 129.925 134.778Z" fill="#F4B88B"/>
<path d="M128.275 107.4L127.111 86.5354C126.914 83.02 129.631 79.9834 133.146 79.7866C136.661 79.591 139.698 82.3066 139.894 85.822L141.058 106.687L128.275 107.4Z" fill="#7732EF"/>
<path d="M140.924 107.822L140.861 106.7H140.863L140.926 107.822H140.924Z" fill="#CCD5E0"/>
<path d="M134.945 108.154V107.029L138.583 106.826L140.862 106.699L140.924 107.821L134.945 108.154Z" fill="#D4A17B"/>
<path d="M141.065 106.787L128.513 107.488C127.647 107.536 126.898 106.866 126.849 106C126.801 105.133 127.471 104.385 128.338 104.336L140.889 103.636C141.756 103.587 142.505 104.257 142.554 105.124C142.602 105.99 141.932 106.739 141.065 106.787Z" fill="#571BBF"/>
<path d="M145.214 133.193C145.214 137.505 141.719 141 137.407 141C133.096 141 129.601 137.505 129.601 133.193C129.601 128.882 133.096 125.386 137.407 125.386C141.719 125.386 145.214 128.882 145.214 133.193Z" fill="#F4B88B"/>
<path d="M45.3043 88.5745L88.3597 95.2495C91.7947 95.7823 95.0413 93.4075 95.5741 89.9719C96.1063 86.5369 93.7315 83.2903 90.2965 82.7581L47.2411 76.0825C43.8061 75.5497 40.5595 77.9245 40.0267 81.3601C39.4945 84.7951 41.8693 88.0417 45.3043 88.5745Z" fill="#F4B88B"/>
<path d="M76.6367 93.5548L97.2875 96.7564C100.767 97.2958 104.055 94.8904 104.595 91.4116C105.134 87.9322 102.729 84.6442 99.2495 84.1048L78.5987 80.9026L76.6367 93.5548Z" fill="#7732EF"/>
<path d="M76.6565 93.4297L75.5459 93.2581L77.4821 80.7703L78.2495 80.8897L78.5927 80.9425L76.6565 93.4297Z" fill="#D4A17B"/>
<path d="M78.6006 80.8973L76.674 93.3203C76.5408 94.1783 77.1342 94.9889 77.9916 95.1221C78.8496 95.2547 79.6608 94.6619 79.7934 93.8039L81.7194 81.3809C81.8526 80.5229 81.2598 79.7123 80.4018 79.5791C79.5438 79.4465 78.7332 80.0393 78.6006 80.8973Z" fill="#571BBF"/>
<path d="M38.748 80.2815C38.748 84.3579 42.0522 87.6621 46.1286 87.6621C50.205 87.6621 53.5098 84.3579 53.5098 80.2815C53.5098 76.2051 50.205 72.9003 46.1286 72.9003C42.0522 72.9003 38.748 76.2051 38.748 80.2815Z" fill="#F4B88B"/>
<path d="M114.247 223.041H96.5459V143.425H114.247V223.041Z" fill="#6423D6"/>
<path d="M130.607 223.041H112.906V143.425H130.607V223.041Z" fill="#5218B7"/>
<path d="M125.659 154.705H102.23C97.122 154.705 92.9424 150.526 92.9424 145.418V132.474C92.9424 127.365 97.122 123.186 102.23 123.186H125.659C130.766 123.186 134.945 127.365 134.945 132.474V145.418C134.945 150.526 130.766 154.705 125.659 154.705Z" fill="#5218B7"/>
<path d="M113.944 83.8516C109.971 83.8516 106.721 80.6014 106.721 76.6288V69.9268C106.721 65.9542 109.971 62.704 113.944 62.704C117.916 62.704 121.166 65.9542 121.166 69.9268V76.6288C121.166 80.6014 117.916 83.8516 113.944 83.8516Z" fill="#EC8172"/>
<path d="M115.866 73.9844H112.021C109.106 73.9844 106.721 71.5988 106.721 68.684V58.1366C106.721 55.2212 109.106 52.8362 112.021 52.8362H115.866C118.781 52.8362 121.166 55.2212 121.166 58.1366V68.684C121.166 71.5988 118.781 73.9844 115.866 73.9844Z" fill="#E2786F"/>
<path d="M132.304 138.025H95.3364C94.02 138.025 92.9424 136.948 92.9424 135.632V89.9108C92.9424 83.4224 98.2512 78.1136 104.74 78.1136H123.149C129.637 78.1136 134.945 83.4224 134.945 89.9108V135.384C134.945 136.837 133.757 138.025 132.304 138.025Z" fill="#AE8FF7"/>
<path d="M124.82 80.0059H103.069C102.845 80.0059 102.663 79.8235 102.663 79.6003V75.4621C102.663 75.2389 102.845 75.0565 103.069 75.0565H124.82C125.043 75.0565 125.225 75.2389 125.225 75.4621V79.6003C125.225 79.8235 125.043 80.0059 124.82 80.0059Z" fill="#936FE9"/>
<path d="M113.432 64.0801C103.563 64.0801 95.4883 56.0053 95.4883 46.1371V29.6647C95.4883 19.7965 103.563 11.7217 113.432 11.7217C123.301 11.7217 131.375 19.7965 131.375 29.6647V46.1371C131.375 56.0053 123.301 64.0801 113.432 64.0801Z" fill="#182331"/>
<path d="M101.324 35.8081C101.324 38.2393 99.3526 40.2109 96.9214 40.2109C94.4896 40.2109 92.5186 38.2393 92.5186 35.8081C92.5186 33.3769 94.4896 31.4059 96.9214 31.4059C99.3526 31.4059 101.324 33.3769 101.324 35.8081Z" fill="#F4B88B"/>
<path d="M99.6307 35.8074C99.6307 37.3044 98.4175 38.5176 96.9211 38.5176C95.4241 38.5176 94.2109 37.3044 94.2109 35.8074C94.2109 34.311 95.4241 33.0972 96.9211 33.0972C98.4175 33.0972 99.6307 34.311 99.6307 35.8074Z" fill="#EC8172"/>
<path d="M134.522 35.8081C134.522 38.2393 132.551 40.2109 130.119 40.2109C127.688 40.2109 125.717 38.2393 125.717 35.8081C125.717 33.3769 127.688 31.4059 130.119 31.4059C132.551 31.4059 134.522 33.3769 134.522 35.8081Z" fill="#F4B88B"/>
<path d="M132.83 35.8074C132.83 37.3044 131.616 38.5176 130.119 38.5176C128.622 38.5176 127.409 37.3044 127.409 35.8074C127.409 34.311 128.622 33.0972 130.119 33.0972C131.616 33.0972 132.83 34.311 132.83 35.8074Z" fill="#EC8172"/>
<path d="M113.433 72.748C104.255 72.748 96.7461 65.2391 96.7461 56.0615V31.6517C96.7461 22.4741 104.255 14.9645 113.433 14.9645C122.611 14.9645 130.119 22.4741 130.119 31.6517V56.0615C130.119 65.2391 122.611 72.748 113.433 72.748Z" fill="#F4B88B"/>
<path d="M113.433 69.1018C104.255 69.1018 96.7461 61.5929 96.7461 52.4153V56.0615C96.7461 65.2391 104.255 72.748 113.433 72.748C122.611 72.748 130.119 65.2391 130.119 56.0615V52.4153C130.119 61.5929 122.611 69.1018 113.433 69.1018Z" fill="#F3AC7C"/>
<path d="M106.868 34.8966C106.868 35.6754 106.237 36.3066 105.458 36.3066C104.679 36.3066 104.048 35.6754 104.048 34.8966C104.048 34.1178 104.679 33.4866 105.458 33.4866C106.237 33.4866 106.868 34.1178 106.868 34.8966Z" fill="#172332"/>
<path d="M124.134 34.8966C124.134 35.6754 123.503 36.3066 122.724 36.3066C121.945 36.3066 121.313 35.6754 121.313 34.8966C121.313 34.1178 121.945 33.4866 122.724 33.4866C123.503 33.4866 124.134 34.1178 124.134 34.8966Z" fill="#172332"/>
<path d="M114.091 45.1641C112.615 45.1641 111.408 43.9569 111.408 42.4815V37.0473C111.408 35.5719 112.615 34.3641 114.091 34.3641C115.566 34.3641 116.773 35.5719 116.773 37.0473V42.4815C116.773 43.9569 115.566 45.1641 114.091 45.1641Z" fill="#EC8172"/>
<path d="M108.037 32.5918H102.51C101.857 32.5918 101.323 32.0584 101.323 31.4056C101.323 30.7528 101.857 30.2188 102.51 30.2188H108.037C108.69 30.2188 109.224 30.7528 109.224 31.4056C109.224 32.0584 108.69 32.5918 108.037 32.5918Z" fill="#E4A173"/>
<path d="M108.037 32.041H102.51C101.857 32.041 101.323 31.507 101.323 30.8542C101.323 30.202 101.857 29.668 102.51 29.668H108.037C108.69 29.668 109.224 30.202 109.224 30.8542C109.224 31.507 108.69 32.041 108.037 32.041Z" fill="#172332"/>
<path d="M125.487 32.5918H119.96C119.307 32.5918 118.773 32.0584 118.773 31.4056C118.773 30.7528 119.307 30.2188 119.96 30.2188H125.487C126.14 30.2188 126.674 30.7528 126.674 31.4056C126.674 32.0584 126.14 32.5918 125.487 32.5918Z" fill="#E4A173"/>
<path d="M125.487 32.041H119.96C119.307 32.041 118.773 31.507 118.773 30.8542C118.773 30.202 119.307 29.668 119.96 29.668H125.487C126.14 29.668 126.674 30.202 126.674 30.8542C126.674 31.507 126.14 32.041 125.487 32.041Z" fill="#172332"/>
<path d="M119.442 54.3212C119.442 54.8918 119.353 55.4426 119.186 55.958C118.495 58.115 116.475 59.6738 114.092 59.6738C113.285 59.6738 112.518 59.4956 111.833 59.1734C110.006 58.3232 108.739 56.4704 108.739 54.3212C108.739 53.996 108.767 53.6786 108.826 53.369C109.273 50.8694 111.46 48.971 114.092 48.971C116.721 48.971 118.909 50.8694 119.356 53.369C119.414 53.6786 119.442 53.996 119.442 54.3212Z" fill="#7732EF"/>
<path d="M119.356 53.3691H108.826C109.273 50.8695 111.461 48.9711 114.092 48.9711C116.722 48.9711 118.91 50.8695 119.356 53.3691Z" fill="#FBFDED"/>
<path d="M119.186 55.958C118.496 58.115 116.476 59.6738 114.092 59.6738C113.286 59.6738 112.519 59.4956 111.834 59.1734C111.95 56.8028 113.91 54.9146 116.313 54.9146C117.405 54.9146 118.41 55.3082 119.186 55.958Z" fill="#AE8FF7"/>
<path d="M105.181 17.1626C105.181 17.1626 110.804 27.7778 129.561 27.38C129.561 27.38 128.479 17.189 117.226 15.131C117.226 15.131 109.477 12.9986 105.181 17.1626Z" fill="#E4A173"/>
<path d="M105.068 16.5132C105.068 16.5132 111.715 27.195 129.775 26.8122C129.775 26.8122 128.524 16.947 117.688 14.9652C117.688 14.9652 109.205 12.5046 105.068 16.5132Z" fill="#182331"/>
<path d="M118.035 76.4318C118.035 76.9106 117.647 77.2988 117.168 77.2988C116.689 77.2988 116.302 76.9106 116.302 76.4318C116.302 75.953 116.689 75.5654 117.168 75.5654C117.647 75.5654 118.035 75.953 118.035 76.4318Z" fill="white"/>
<path d="M112.843 76.4318C112.843 76.9106 112.456 77.2988 111.977 77.2988C111.498 77.2988 111.11 76.9106 111.11 76.4318C111.11 75.953 111.498 75.5654 111.977 75.5654C112.456 75.5654 112.843 75.953 112.843 76.4318Z" fill="white"/>
<path d="M138.232 225.051H113.054C112.973 225.051 112.906 224.984 112.906 224.902V220.22H138.232C139.378 220.22 140.315 221.158 140.315 222.304V222.966C140.315 224.113 139.378 225.051 138.232 225.051Z" fill="#171C1D"/>
<path d="M87.6742 225.051H112.851C112.933 225.051 113 224.984 113 224.902V220.22H87.6742C86.5276 220.22 85.5898 221.158 85.5898 222.304V222.966C85.5898 224.113 86.5276 225.051 87.6742 225.051Z" fill="#100F0D"/>
<path d="M113.52 138.025H115.51V75.056H113.52V138.025Z" fill="#8059DD"/>
<path d="M92.9424 138.025H134.945V133.618H92.9424V138.025Z" fill="#100F0D"/>
<path d="M116.806 139.484H112.225C111.084 139.484 110.071 138.904 109.468 138.025H119.563C118.959 138.904 117.947 139.484 116.806 139.484Z" fill="#1A2D37"/>
<path d="M118.989 133.619H115.51V132.803H116.806C117.638 132.803 118.402 133.111 118.989 133.619ZM113.52 133.619H110.042C110.629 133.111 111.393 132.803 112.225 132.803H113.52V133.619Z" fill="#316FA7"/>
<path d="M113.52 133.619H115.51V132.803H113.52V133.619Z" fill="#2D6396"/>
<path d="M119.562 138.025H109.467C109.099 137.488 108.883 136.84 108.883 136.143C108.883 135.138 109.333 134.232 110.041 133.618H113.52H115.51H118.988C119.697 134.232 120.147 135.138 120.147 136.143C120.147 136.84 119.931 137.488 119.562 138.025Z" fill="#12110F"/>
<path d="M116.805 138.947H112.225C110.387 138.947 108.883 137.443 108.883 135.606C108.883 133.767 110.387 132.263 112.225 132.263H116.805C118.642 132.263 120.147 133.767 120.147 135.606C120.147 137.443 118.642 138.947 116.805 138.947Z" fill="#E9EAEA"/>
<path d="M116.34 138.391H112.689C111.224 138.391 110.025 137.192 110.025 135.727C110.025 134.261 111.224 133.063 112.689 133.063H116.34C117.806 133.063 119.005 134.261 119.005 135.727C119.005 137.192 117.806 138.391 116.34 138.391Z" fill="#BBBCBD"/>
<path d="M118.657 92.8955V97.2479C118.657 100.378 121.219 102.939 124.349 102.939C127.48 102.939 130.04 100.378 130.04 97.2479V92.8955H118.657Z" fill="#7732EF"/>
<path d="M113.52 122.023L109.746 117.822L111.785 81.1308H113.52V122.023ZM115.51 121.428V81.1308H117.05L118.749 117.822L115.51 121.428Z" fill="#6624D8"/>
<path d="M114.247 122.834L113.52 122.024V81.1316H115.51V121.429L114.247 122.834Z" fill="#6523D9"/>
<path d="M118.749 116.815L114.248 121.826L109.746 116.815L111.785 80.1244H117.05L118.749 116.815Z" fill="#7732EF"/>
<path d="M116.549 81.1016H112.155C111.582 81.1016 111.113 80.633 111.113 80.0606V78.7304C111.113 78.1574 111.582 77.6888 112.155 77.6888H116.549C117.122 77.6888 117.591 78.1574 117.591 78.7304V80.0606C117.591 80.633 117.122 81.1016 116.549 81.1016Z" fill="#6820E6"/>
<path d="M59.2387 113.588H33.4033V78.1129H59.2387V113.588Z" fill="white"/>
<path d="M52.1661 77.539C52.1661 80.0998 49.2657 82.1758 45.6885 82.1758C42.1113 82.1758 39.2109 80.0998 39.2109 77.539C39.2109 74.9776 42.1113 72.9016 45.6885 72.9016C49.2657 72.9016 52.1661 74.9776 52.1661 77.539Z" fill="#F4B88B"/>
<path d="M57.7464 109.481C57.7464 111.105 56.43 112.422 54.8058 112.422C53.1816 112.422 51.8652 111.105 51.8652 109.481C51.8652 107.857 53.1816 106.54 54.8058 106.54C56.43 106.54 57.7464 107.857 57.7464 109.481Z" fill="#D3D4D3"/>
<path d="M56.6079 85.416H36.3609C35.9307 85.416 35.5791 85.0644 35.5791 84.6348C35.5791 84.2052 35.9307 83.853 36.3609 83.853H56.6079C57.0375 83.853 57.3891 84.2052 57.3891 84.6348C57.3891 85.0644 57.0375 85.416 56.6079 85.416Z" fill="#E9EAEA"/>
<path d="M56.6079 88.7288H36.3609C35.9307 88.7288 35.5791 88.3772 35.5791 87.9476C35.5791 87.5174 35.9307 87.1658 36.3609 87.1658H56.6079C57.0375 87.1658 57.3891 87.5174 57.3891 87.9476C57.3891 88.3772 57.0375 88.7288 56.6079 88.7288Z" fill="#E9EAEA"/>
<path d="M56.6079 97.7812H36.3609C35.9307 97.7812 35.5791 97.4296 35.5791 97C35.5791 96.5704 35.9307 96.2188 36.3609 96.2188H56.6079C57.0375 96.2188 57.3891 96.5704 57.3891 97C57.3891 97.4296 57.0375 97.7812 56.6079 97.7812Z" fill="#E9EAEA"/>
<path d="M56.6079 101.08H36.3609C35.9307 101.08 35.5791 100.729 35.5791 100.299C35.5791 99.8695 35.9307 99.5179 36.3609 99.5179H56.6079C57.0375 99.5179 57.3891 99.8695 57.3891 100.299C57.3891 100.729 57.0375 101.08 56.6079 101.08Z" fill="#E9EAEA"/>
<path d="M51.0837 92.3867H36.3609C35.9307 92.3867 35.5791 92.0351 35.5791 91.6055C35.5791 91.1753 35.9307 90.8243 36.3609 90.8243H51.0837C51.5133 90.8243 51.8649 91.1753 51.8649 91.6055C51.8649 92.0351 51.5133 92.3867 51.0837 92.3867Z" fill="#E9EAEA"/>
<path d="M51.0837 103.91H36.3609C35.9307 103.91 35.5791 103.559 35.5791 103.129C35.5791 102.699 35.9307 102.348 36.3609 102.348H51.0837C51.5133 102.348 51.8649 102.699 51.8649 103.129C51.8649 103.559 51.5133 103.91 51.0837 103.91Z" fill="#E9EAEA"/>
</svg>
