<svg width="42" height="42" viewBox="0 0 42 42" fill="none" xmlns="http://www.w3.org/2000/svg">
<g clip-path="url(#clip0_73_6301)">
<mask id="mask0_73_6301" style="mask-type:luminance" maskUnits="userSpaceOnUse" x="0" y="0" width="42" height="43">
<path d="M0 0.000125885H42V42.0001H0V0.000125885Z" fill="white"/>
</mask>
<g mask="url(#mask0_73_6301)">
<path d="M16.5718 25.6758C20.5691 29.6654 25.5952 30.9251 25.5952 30.9251L30.0029 26.3499C31.5028 24.853 33.2241 25.1836 35.4389 26.3313L37.7746 27.6433C39.3622 28.535 40.3646 30.21 40.3608 32.031C40.3607 32.0452 40.3607 32.0593 40.3606 32.0735C40.3502 33.4548 39.7866 35.0267 38.3921 36.4212C34.9887 39.8247 30.3275 40.3919 26.4975 40.3581C20.0347 40.301 14.2586 36.1589 10.0093 31.9095C5.75996 27.6602 1.69916 21.9661 1.64207 15.5032C1.60819 11.6732 2.14886 7.01217 5.55225 3.6087C6.94678 2.21417 8.51875 1.65061 9.89991 1.64019C9.91418 1.64011 9.92837 1.64003 9.94256 1.64003C11.7635 1.63626 13.4384 2.63859 14.3302 4.22623L15.6421 6.56182C16.6265 8.6126 17.1205 10.4981 15.6236 11.9979L11.2124 16.5703C11.2124 16.5703 12.5821 21.6784 16.5718 25.6758Z" stroke="#181818" stroke-width="2" stroke-miterlimit="10" stroke-linecap="round"/>
<path d="M40.3613 19.6876C40.3613 9.72058 32.2815 1.64075 22.3145 1.64075" stroke="#181818" stroke-width="2" stroke-miterlimit="10"/>
<path d="M27.2363 19.6876C27.2363 16.9694 25.0327 14.7657 22.3145 14.7657" stroke="#181818" stroke-width="2" stroke-miterlimit="10"/>
<path d="M33.7988 19.6876C33.7988 13.345 28.6571 8.20325 22.3145 8.20325" stroke="#181818" stroke-width="2" stroke-miterlimit="10"/>
</g>
</g>
<defs>
<clipPath id="clip0_73_6301">
<rect width="42" height="42" fill="white"/>
</clipPath>
</defs>
</svg>
