<svg width="43" height="54" viewBox="0 0 43 54" fill="none" xmlns="http://www.w3.org/2000/svg">
<g opacity="0.4">
<mask id="path-1-outside-1_91_14803" maskUnits="userSpaceOnUse" x="0" y="0" width="43" height="54" fill="black">
<rect fill="white" width="43" height="54"/>
<path d="M27.62 21.95C36.44 23.35 40.92 28.81 40.92 36.02C40.92 44.28 34.55 51.84 20.62 51.84C13.76 51.84 6.69 49.95 1.93 46.59L6.34 37.91C10.05 40.71 15.23 42.32 20.34 42.32C26.01 42.32 29.51 40.01 29.51 36.02C29.51 32.31 26.78 30 20.34 30H15.16V22.51L25.24 11.1H4.38V2H38.68V9.35L27.62 21.95Z"/>
</mask>
<path d="M27.62 21.95L27.0563 21.4552L26.159 22.4775L27.5024 22.6907L27.62 21.95ZM1.93 46.59L1.26135 46.2503L0.967514 46.8286L1.49749 47.2027L1.93 46.59ZM6.34 37.91L6.79181 37.3114L6.07699 36.7719L5.67135 37.5703L6.34 37.91ZM15.16 30H14.41V30.75H15.16V30ZM15.16 22.51L14.5979 22.0134L14.41 22.2262V22.51H15.16ZM25.24 11.1L25.8021 11.5966L26.9033 10.35H25.24V11.1ZM4.38 11.1H3.63V11.85H4.38V11.1ZM4.38 2V1.25H3.63V2H4.38ZM38.68 2H39.43V1.25H38.68V2ZM38.68 9.35L39.2437 9.84476L39.43 9.63247V9.35H38.68ZM28.1837 22.4448L29.1053 21.3948L27.978 20.4052L27.0563 21.4552L28.1837 22.4448ZM30.9487 19.2948L32.792 17.1948L31.6647 16.2052L29.8213 18.3052L30.9487 19.2948ZM34.6353 15.0948L36.4787 12.9948L35.3513 12.0052L33.508 14.1052L34.6353 15.0948ZM38.322 10.8948L39.2437 9.84476L38.1163 8.85523L37.1947 9.90523L38.322 10.8948ZM39.43 9.35V7.5125H37.93V9.35H39.43ZM39.43 3.8375V2H37.93V3.8375H39.43ZM38.68 1.25H37.2508V2.75H38.68V1.25ZM34.3925 1.25H31.5342V2.75H34.3925V1.25ZM28.6758 1.25H25.8175V2.75H28.6758V1.25ZM22.9592 1.25H20.1008V2.75H22.9592V1.25ZM17.2425 1.25H14.3842V2.75H17.2425V1.25ZM11.5258 1.25H8.6675V2.75H11.5258V1.25ZM5.80917 1.25H4.38V2.75H5.80917V1.25ZM3.63 2V3.1375H5.13V2H3.63ZM3.63 5.4125V7.6875H5.13V5.4125H3.63ZM3.63 9.9625V11.1H5.13V9.9625H3.63ZM4.38 11.85H6.11833V10.35H4.38V11.85ZM9.595 11.85H13.0717V10.35H9.595V11.85ZM16.5483 11.85H20.025V10.35H16.5483V11.85ZM23.5017 11.85H25.24V10.35H23.5017V11.85ZM24.6779 10.6034L23.8379 11.5543L24.9621 12.5474L25.8021 11.5966L24.6779 10.6034ZM22.1579 13.4559L20.4779 15.3576L21.6021 16.3507L23.2821 14.4491L22.1579 13.4559ZM18.7979 17.2593L17.1179 19.1609L18.2421 20.1541L19.9221 18.2524L18.7979 17.2593ZM15.4379 21.0626L14.5979 22.0134L15.7221 23.0066L16.5621 22.0557L15.4379 21.0626ZM14.41 22.51V24.3825H15.91V22.51H14.41ZM14.41 28.1275V30H15.91V28.1275H14.41ZM15.16 30.75H16.455V29.25H15.16V30.75ZM19.045 30.75H20.34V29.25H19.045V30.75ZM20.34 30.75C20.8686 30.75 21.3693 30.766 21.8429 30.7972L21.9415 29.3005C21.4324 29.2669 20.8987 29.25 20.34 29.25V30.75ZM24.7462 31.2594C25.8149 31.5592 26.6286 31.9771 27.2308 32.4779L28.1899 31.3245C27.3912 30.6604 26.3752 30.1584 25.1512 29.8151L24.7462 31.2594ZM28.6036 34.6646C28.7072 35.0786 28.76 35.5302 28.76 36.02H30.26C30.26 35.4227 30.1956 34.8475 30.0587 34.3004L28.6036 34.6646ZM28.76 36.02C28.76 36.5072 28.7014 36.9581 28.5908 37.3736L30.0404 37.7594C30.1867 37.2094 30.26 36.6282 30.26 36.02H28.76ZM27.1878 39.6142C26.561 40.1673 25.7406 40.623 24.7282 40.9556L25.1962 42.3807C26.3634 41.9973 27.3732 41.4512 28.1804 40.7388L27.1878 39.6142ZM21.839 41.5102C21.361 41.5498 20.8611 41.57 20.34 41.57V43.07C20.8998 43.07 21.4412 43.0483 21.9629 43.005L21.839 41.5102ZM20.34 41.57C19.738 41.57 19.1346 41.5469 18.5327 41.5015L18.4198 42.9973C19.0587 43.0455 19.6997 43.07 20.34 43.07V41.57ZM14.9549 40.965C13.7651 40.6961 12.6058 40.3411 11.4998 39.9065L10.9512 41.3026C12.13 41.7658 13.3623 42.143 14.6243 42.4281L14.9549 40.965ZM8.27336 38.3156C7.75596 38.0006 7.26103 37.6655 6.79181 37.3114L5.8882 38.5086C6.39898 38.8941 6.93534 39.2571 7.49343 39.5968L8.27336 38.3156ZM5.67135 37.5703L5.1201 38.6553L6.4574 39.3347L7.00865 38.2497L5.67135 37.5703ZM4.0176 40.8253L2.9151 42.9953L4.2524 43.6747L5.3549 41.5047L4.0176 40.8253ZM1.8126 45.1653L1.26135 46.2503L2.59865 46.9297L3.1499 45.8447L1.8126 45.1653ZM1.49749 47.2027C1.95366 47.5247 2.42923 47.833 2.922 48.1273L3.6911 46.8394C3.22938 46.5637 2.78593 46.2762 2.36251 45.9773L1.49749 47.2027ZM5.92793 49.6635C6.93594 50.1029 7.98962 50.4953 9.07648 50.8389L9.52862 49.4087C8.48876 49.0799 7.48446 48.7057 6.52743 48.2885L5.92793 49.6635ZM12.3152 51.6982C13.3977 51.9335 14.5005 52.1236 15.6131 52.2669L15.8047 50.7792C14.7341 50.6413 13.6737 50.4585 12.6338 50.2325L12.3152 51.6982ZM18.9466 52.5536C19.5047 52.5778 20.063 52.59 20.62 52.59V51.09C20.0849 51.09 19.5483 51.0783 19.0116 51.055L18.9466 52.5536ZM20.62 52.59C21.1213 52.59 21.6135 52.5804 22.0964 52.5615L22.0377 51.0626C21.5747 51.0808 21.1022 51.09 20.62 51.09V52.59ZM25.0447 52.3179C26.0647 52.1865 27.0371 52.009 27.9621 51.7887L27.6146 50.3295C26.7433 50.537 25.8231 50.7053 24.853 50.8302L25.0447 52.3179ZM30.8152 50.9213C31.7884 50.5549 32.6957 50.1337 33.5375 49.6632L32.8057 48.3538C32.0319 48.7863 31.1928 49.1764 30.2867 49.5175L30.8152 50.9213ZM36.0377 47.972C36.8439 47.3155 37.5624 46.6029 38.1939 45.8436L37.0406 44.8845C36.4719 45.5682 35.8227 46.2127 35.0906 46.8089L36.0377 47.972ZM39.8892 43.3223C40.3696 42.4201 40.751 41.4784 41.0355 40.5096L39.5963 40.0869C39.3399 40.96 38.9968 41.8068 38.5652 42.6172L39.8892 43.3223ZM41.601 37.532C41.6471 37.0311 41.67 36.5266 41.67 36.02H40.17C40.17 36.4814 40.1492 36.94 40.1073 37.3946L41.601 37.532ZM41.67 36.02C41.67 35.5497 41.6517 35.0856 41.6151 34.6285L40.1199 34.7483C40.1532 35.1645 40.17 35.5885 40.17 36.02H41.67ZM41.1465 31.8698C40.9011 30.9503 40.5692 30.0705 40.1504 29.2373L38.8102 29.911C39.1813 30.6494 39.4774 31.4327 39.6973 32.2566L41.1465 31.8698ZM38.6185 26.8669C38.0347 26.1478 37.3688 25.4834 36.6225 24.8793L35.6787 26.0452C36.3458 26.5851 36.9373 27.176 37.454 27.8124L38.6185 26.8669ZM34.2892 23.331C33.5009 22.9048 32.6528 22.5297 31.7457 22.2087L31.2453 23.6228C32.0831 23.9193 32.8597 24.2633 33.5758 24.6505L34.2892 23.331ZM29.0906 21.4618C28.6505 21.3668 28.1995 21.2826 27.7376 21.2093L27.5024 22.6907C27.938 22.7599 28.3619 22.8391 28.7744 22.928L29.0906 21.4618ZM27.62 21.95L26.4927 20.9605L24.6981 23.005L27.3848 23.4314L27.62 21.95ZM1.93 46.59L0.592701 45.9106L0.00502849 47.0673L1.06498 47.8155L1.93 46.59ZM6.34 37.91L7.24361 36.7127L5.81398 35.6338L5.0027 37.2306L6.34 37.91ZM15.16 30H13.66V31.5H15.16V30ZM15.16 22.51L14.0358 21.5169L13.66 21.9423V22.51H15.16ZM25.24 11.1L26.3642 12.0931L28.5667 9.6H25.24V11.1ZM4.38 11.1H2.88V12.6H4.38V11.1ZM4.38 2V0.499996H2.88V2H4.38ZM38.68 2H40.18V0.499996H38.68V2ZM38.68 9.35L39.8073 10.3395L40.18 9.91495V9.35H38.68ZM28.7473 22.9395L29.669 21.8895L27.4144 19.9105L26.4927 20.9605L28.7473 22.9395ZM31.5123 19.7895L33.3556 17.6895L31.101 15.7105L29.2577 17.8105L31.5123 19.7895ZM35.199 15.5895L37.0423 13.4895L34.7877 11.5105L32.9444 13.6105L35.199 15.5895ZM38.8856 11.3895L39.8073 10.3395L37.5527 8.36047L36.631 9.41047L38.8856 11.3895ZM40.18 9.35V7.5125H37.18V9.35H40.18ZM40.18 3.8375V2H37.18V3.8375H40.18ZM38.68 0.499996H37.2508V3.5H38.68V0.499996ZM34.3925 0.499996H31.5342V3.5H34.3925V0.499996ZM28.6758 0.499996H25.8175V3.5H28.6758V0.499996ZM22.9592 0.499996H20.1008V3.5H22.9592V0.499996ZM17.2425 0.499996H14.3842V3.5H17.2425V0.499996ZM11.5258 0.499996H8.6675V3.5H11.5258V0.499996ZM5.80917 0.499996H4.38V3.5H5.80917V0.499996ZM2.88 2V3.1375H5.88V2H2.88ZM2.88 5.4125V7.6875H5.88V5.4125H2.88ZM2.88 9.9625V11.1H5.88V9.9625H2.88ZM4.38 12.6H6.11833V9.6H4.38V12.6ZM9.595 12.6H13.0717V9.6H9.595V12.6ZM16.5483 12.6H20.025V9.6H16.5483V12.6ZM23.5017 12.6H25.24V9.6H23.5017V12.6ZM24.1158 10.1069L23.2758 11.0577L25.5242 13.0439L26.3642 12.0931L24.1158 10.1069ZM21.5958 12.9594L19.9158 14.861L22.1642 16.8473L23.8442 14.9456L21.5958 12.9594ZM18.2358 16.7627L16.5558 18.6644L18.8042 20.6506L20.4842 18.7489L18.2358 16.7627ZM14.8758 20.566L14.0358 21.5169L16.2842 23.5031L17.1242 22.5523L14.8758 20.566ZM13.66 22.51V24.3825H16.66V22.51H13.66ZM13.66 28.1275V30H16.66V28.1275H13.66ZM15.16 31.5H16.455V28.5H15.16V31.5ZM19.045 31.5H20.34V28.5H19.045V31.5ZM20.34 31.5C20.8535 31.5 21.3377 31.5156 21.7936 31.5456L21.9908 28.5521C21.464 28.5174 20.9138 28.5 20.34 28.5V31.5ZM24.5436 31.9815C25.5348 32.2595 26.2473 32.6354 26.7513 33.0545L28.6694 30.7479C27.7725 30.0021 26.6554 29.4581 25.3538 29.093L24.5436 31.9815ZM27.876 34.8466C27.963 35.1942 28.01 35.584 28.01 36.02H31.01C31.01 35.369 30.9398 34.7319 30.7863 34.1183L27.876 34.8466ZM28.01 36.02C28.01 36.4466 27.9587 36.8324 27.866 37.1808L30.7652 37.9522C30.9294 37.3351 31.01 36.6887 31.01 36.02H28.01ZM26.6915 39.0518C26.155 39.5254 25.4292 39.9359 24.4941 40.243L25.4303 43.0932C26.6749 42.6844 27.7792 42.0931 28.6766 41.3011L26.6915 39.0518ZM21.777 40.7627C21.321 40.8005 20.8417 40.82 20.34 40.82V43.82C20.9191 43.82 21.4812 43.7975 22.0248 43.7525L21.777 40.7627ZM20.34 40.82C19.7571 40.82 19.1726 40.7977 18.5891 40.7536L18.3634 43.7451C19.0208 43.7947 19.6806 43.82 20.34 43.82V40.82ZM15.1202 40.2334C13.9665 39.9727 12.8437 39.6287 11.7741 39.2085L10.6769 42.0006C11.8921 42.4781 13.1609 42.8664 14.459 43.1596L15.1202 40.2334ZM8.66333 37.6749C8.16627 37.3723 7.69206 37.0512 7.24361 36.7127L5.43639 39.1073C5.96795 39.5085 6.52504 39.8854 7.10346 40.2375L8.66333 37.6749ZM5.0027 37.2306L4.45145 38.3156L7.12605 39.6744L7.6773 38.5894L5.0027 37.2306ZM3.34895 40.4856L2.24645 42.6556L4.92105 44.0144L6.02355 41.8444L3.34895 40.4856ZM1.14395 44.8256L0.592701 45.9106L3.2673 47.2694L3.81855 46.1844L1.14395 44.8256ZM1.06498 47.8155C1.53752 48.149 2.02916 48.4676 2.53745 48.7712L4.07564 46.1955C3.62945 45.9291 3.20206 45.6519 2.79502 45.3645L1.06498 47.8155ZM5.62819 50.351C6.66167 50.8016 7.74006 51.203 8.85041 51.554L9.75469 48.6935C8.73833 48.3722 7.75872 48.0071 6.82718 47.601L5.62819 50.351ZM12.1559 52.4311C13.2597 52.671 14.3837 52.8648 15.5173 53.0107L15.9005 50.0353C14.8509 49.9002 13.8117 49.721 12.7931 49.4996L12.1559 52.4311ZM18.9141 53.3029C19.4829 53.3275 20.052 53.34 20.62 53.34V50.34C20.0958 50.34 19.5701 50.3285 19.0441 50.3057L18.9141 53.3029ZM20.62 53.34C21.1309 53.34 21.6329 53.3302 22.1258 53.3109L22.0083 50.3132C21.5553 50.3309 21.0926 50.34 20.62 50.34V53.34ZM25.1405 53.0618C26.1855 52.9272 27.1839 52.745 28.1359 52.5183L27.4408 49.5999C26.5965 49.801 25.7023 49.9646 24.7572 50.0864L25.1405 53.0618ZM31.0794 51.6232C32.0863 51.2442 33.0277 50.8073 33.9034 50.3179L32.4398 47.6991C31.6999 48.1126 30.895 48.4871 30.0225 48.8155L31.0794 51.6232ZM36.5113 48.5536C37.3545 47.8669 38.1076 47.1203 38.7705 46.3232L36.464 44.4049C35.9267 45.0508 35.3121 45.6613 34.617 46.2273L36.5113 48.5536ZM40.5512 43.6748C41.056 42.7267 41.4565 41.7376 41.7551 40.7209L38.8767 39.8756C38.6343 40.7008 38.3103 41.5002 37.9032 42.2647L40.5512 43.6748ZM42.3478 37.6008C42.3961 37.0766 42.42 36.5491 42.42 36.02H39.42C39.42 36.4588 39.4002 36.8945 39.3605 37.3258L42.3478 37.6008ZM42.42 36.02C42.42 35.5302 42.401 35.0462 42.3627 34.5685L39.3723 34.8083C39.404 35.2039 39.42 35.608 39.42 36.02H42.42ZM41.8712 31.6764C41.613 30.7091 41.2631 29.7811 40.8205 28.9005L38.1401 30.2479C38.4874 30.9388 38.7655 31.6739 38.9726 32.45L41.8712 31.6764ZM39.2008 26.3941C38.5834 25.6338 37.8804 24.9326 37.0943 24.2963L35.2068 26.6281C35.8342 27.136 36.3886 27.6901 36.8718 28.2852L39.2008 26.3941ZM34.6459 22.6713C33.8216 22.2256 32.9376 21.835 31.9959 21.5017L30.995 24.3298C31.7983 24.6141 32.5391 24.9426 33.2191 25.3102L34.6459 22.6713ZM29.2488 20.7286C28.7948 20.6307 28.3303 20.544 27.8552 20.4685L27.3848 23.4314C27.8072 23.4985 28.2176 23.5752 28.6162 23.6612L29.2488 20.7286Z" fill="#7732EF" mask="url(#path-1-outside-1_91_14803)"/>
</g>
</svg>
