<svg width="100" height="100" viewBox="0 0 100 100" fill="none" xmlns="http://www.w3.org/2000/svg">
<path fill-rule="evenodd" clip-rule="evenodd" d="M47.8235 70.9652C33.9309 116.78 23.9955 93.3057 22.8225 54.2885C1.57679 26.8289 20.061 -8.51152 49.7489 15.4119C79.4313 -8.51132 97.9209 26.8291 76.6696 54.2887C75.4963 93.3057 65.5612 116.78 51.6686 70.9654C51.4104 70.101 50.6469 69.534 49.7489 69.534C48.8451 69.534 48.0873 70.1008 47.8235 70.9652Z" fill="#D2BFFF"/>
<path d="M52.0287 13.6836C54.1953 15.3283 56.4125 16.6248 58.6635 17.6072C61.3746 18.7973 64.1475 19.5381 66.9654 19.9143L66.6063 22.6592C63.5359 22.2494 60.516 21.4412 57.5578 20.1445C54.9027 18.9826 52.2982 17.4277 49.75 15.4127C50.5188 14.7893 51.2766 14.2225 52.0287 13.6836Z" fill="#7E6AD3"/>
<path fill-rule="evenodd" clip-rule="evenodd" d="M87.8857 67.8379L90.7879 73.5971L96.5469 76.499L90.7879 79.3955L87.8857 85.1545L84.9838 79.3955L79.2246 76.499L84.9838 73.5971L87.8857 67.8379Z" fill="#AE8FF7"/>
<path fill-rule="evenodd" clip-rule="evenodd" d="M35.9405 95.3585C28.5087 100.298 23.6253 80.9159 22.8226 54.287C5.84289 32.3397 14.2402 5.36843 33.4484 7.62488C17.4566 9.65691 11.6075 34.0966 27.229 54.287C27.8575 75.2241 31.0122 91.6819 35.9405 95.3585Z" fill="#7E6AD3"/>
<path d="M80.217 12.7832L80.8457 12.6484C85.3924 11.6437 89.3272 11.2957 92.3864 11.6605C95.6307 12.0478 97.977 13.2379 99.1727 15.3092C100.346 17.3355 100.245 19.884 99.0325 22.7859C97.893 25.5252 95.7375 28.6404 92.7344 31.9691L91.8082 33.0019L89.7537 31.1496L90.6799 30.1168C93.4752 27.0183 95.4567 24.1668 96.4783 21.7252C97.3485 19.6371 97.4887 17.9195 96.7815 16.6959C96.0518 15.4385 94.4184 14.692 92.0608 14.4113C89.4506 14.1025 86.0547 14.3888 82.075 15.214C81.5137 14.3435 80.8963 13.5297 80.217 12.7832ZM62.3953 52.2605L63.5741 51.542L65.0166 53.8996L63.8323 54.6236C63.4506 54.8537 62.9903 55.1289 62.4627 55.4318C57.3885 58.3619 45.5895 64.5588 34.2061 68.6508C22.3623 72.9168 10.8891 74.8476 7.11702 68.6564L7.03284 68.5105C5.61273 66.0576 6.07855 62.8076 8.11058 59.0805C10.0471 55.5273 13.443 51.4465 17.9842 47.1637L18.1694 46.9896C18.5959 47.826 19.0619 48.6568 19.5559 49.4875C15.3797 53.4615 12.2813 57.1943 10.5356 60.3994C8.98069 63.2564 8.53167 65.5802 9.42425 67.124V67.1297C9.44105 67.1633 9.42425 67.124 9.4803 67.2195C12.343 71.9178 22.559 69.9082 33.2744 66.0519C44.4502 62.033 56.0696 55.9314 61.0764 53.0406C61.5926 52.7431 62.0362 52.4793 62.3953 52.2605Z" fill="#5D4EB5"/>
<path fill-rule="evenodd" clip-rule="evenodd" d="M79.8195 64.1959C90.1029 64.1959 98.4889 55.8098 98.4889 45.5266C98.4889 35.2434 90.1027 26.8516 79.8195 26.8516C69.5363 26.8516 61.1445 35.2432 61.1445 45.5266C61.1445 55.81 69.5361 64.1959 79.8195 64.1959Z" fill="#5D4EB5"/>
<path fill-rule="evenodd" clip-rule="evenodd" d="M76.6258 34.4688H83.0137V42.3328H90.8721V48.7205H83.0137V56.5846H76.6258V48.7205H68.7617V42.3328H76.6258V34.4688Z" fill="white"/>
<path fill-rule="evenodd" clip-rule="evenodd" d="M14.0609 3.85938L18.7703 13.2109L28.1219 17.9203L18.7703 22.6297L14.0609 31.9812L9.35156 22.6297L0 17.9203L9.35156 13.2109L14.0609 3.85938Z" fill="#AE8FF7"/>
</svg>
