<svg width="44" height="54" viewBox="0 0 44 54" fill="none" xmlns="http://www.w3.org/2000/svg">
<g opacity="0.4">
<mask id="path-1-outside-1_91_14805" maskUnits="userSpaceOnUse" x="0" y="0" width="44" height="54" fill="black">
<rect fill="white" width="44" height="54"/>
<path d="M21.27 42.76H42.34V52H5.31V44.65L24.21 26.8C28.55 22.67 29.32 20.15 29.32 17.77C29.32 13.92 26.66 11.68 21.48 11.68C17.28 11.68 13.71 13.29 11.33 16.58L3.07 11.26C6.85 5.73 13.71 2.16 22.53 2.16C33.45 2.16 40.73 7.76 40.73 16.65C40.73 21.41 39.4 25.75 32.54 32.12L21.27 42.76Z"/>
</mask>
<path d="M21.27 42.76L20.7551 42.2146L19.3831 43.51H21.27V42.76ZM42.34 42.76H43.09V42.01H42.34V42.76ZM42.34 52V52.75H43.09V52H42.34ZM5.31 52H4.56V52.75H5.31V52ZM5.31 44.65L4.79503 44.1047L4.56 44.3267V44.65H5.31ZM24.21 26.8L24.725 27.3453L24.727 27.3433L24.21 26.8ZM11.33 16.58L10.9239 17.2105L11.5212 17.5953L11.9377 17.0196L11.33 16.58ZM3.07 11.26L2.45083 10.8368L2.01584 11.4731L2.66389 11.8905L3.07 11.26ZM32.54 32.12L32.0296 31.5704L32.0251 31.5746L32.54 32.12ZM21.7849 43.3054L22.724 42.4187L21.6943 41.328L20.7551 42.2146L21.7849 43.3054ZM24.6024 40.6454L26.4807 38.872L25.451 37.7813L23.5726 39.5546L24.6024 40.6454ZM28.359 37.0987L30.2374 35.3254L29.2076 34.2346L27.3293 36.008L28.359 37.0987ZM32.1157 33.552L33.0549 32.6654L32.0251 31.5746L31.086 32.4613L32.1157 33.552ZM33.0503 32.6696C33.4363 32.3112 33.8054 31.9588 34.1584 31.6118L33.1068 30.5421C32.7646 30.8786 32.4057 31.2212 32.0297 31.5704L33.0503 32.6696ZM36.272 29.3842C37.0049 28.5486 37.6415 27.7424 38.1928 26.9583L36.9658 26.0955C36.4486 26.8311 35.8459 27.5953 35.1443 28.3951L36.272 29.3842ZM39.801 24.2754C40.2987 23.2679 40.6616 22.2892 40.9198 21.322L39.4705 20.9351C39.2381 21.8057 38.9104 22.6915 38.4561 23.6111L39.801 24.2754ZM41.428 18.2095C41.4645 17.6899 41.48 17.1709 41.48 16.65H39.98C39.98 17.1413 39.9654 17.6248 39.9317 18.1043L41.428 18.2095ZM41.48 16.65C41.48 16.0674 41.4501 15.497 41.391 14.9394L39.8994 15.0976C39.9527 15.6011 39.98 16.1187 39.98 16.65H41.48ZM40.6307 11.5835C40.2347 10.4825 39.7052 9.45613 39.0525 8.51205L37.8187 9.36506C38.3974 10.2022 38.8672 11.1124 39.2192 12.0911L40.6307 11.5835ZM36.7503 5.94715C35.9073 5.21281 34.9654 4.56198 33.9353 3.999L33.2159 5.31526C34.1567 5.82942 35.0085 6.41917 35.765 7.07818L36.7503 5.94715ZM30.8158 2.65127C29.7821 2.30729 28.6882 2.03267 27.5404 1.83009L27.2797 3.30726C28.3598 3.49789 29.3822 3.7551 30.3422 4.07454L30.8158 2.65127ZM24.206 1.45414C23.6567 1.4248 23.0979 1.41 22.53 1.41V2.91C23.0719 2.91 23.604 2.92412 24.126 2.95201L24.206 1.45414ZM22.53 1.41C22.0474 1.41 21.5703 1.42045 21.0988 1.44112L21.1645 2.93968C21.6138 2.91998 22.069 2.91 22.53 2.91V1.41ZM18.2458 1.69872C17.2769 1.83301 16.3364 2.01302 15.4261 2.2364L15.7836 3.69318C16.6427 3.48234 17.5327 3.3119 18.4518 3.18452L18.2458 1.69872ZM12.6728 3.07653C11.7529 3.4157 10.8714 3.80333 10.0309 4.23632L10.7178 5.56979C11.5028 5.16542 12.3281 4.80234 13.1917 4.48391L12.6728 3.07653ZM7.55169 5.72564C6.74783 6.28474 5.9939 6.89168 5.29301 7.54253L6.3137 8.64171C6.96225 8.03947 7.6612 7.47661 8.40818 6.95707L7.55169 5.72564ZM3.31594 9.66841C3.01245 10.0476 2.72394 10.4372 2.45083 10.8368L3.68917 11.6832C3.94093 11.3149 4.20699 10.9556 4.487 10.6057L3.31594 9.66841ZM2.66389 11.8905L3.69639 12.5555L4.50861 11.2945L3.47611 10.6295L2.66389 11.8905ZM5.76139 13.8855L7.82639 15.2155L8.63861 13.9545L6.57361 12.6245L5.76139 13.8855ZM9.89139 16.5455L10.9239 17.2105L11.7361 15.9495L10.7036 15.2845L9.89139 16.5455ZM11.9377 17.0196C12.2121 16.6402 12.5026 16.2856 12.8083 15.9552L11.7071 14.9366C11.3599 15.312 11.0313 15.7133 10.7223 16.1404L11.9377 17.0196ZM14.903 14.2036C15.6689 13.7168 16.497 13.3303 17.3799 13.044L16.9173 11.6171C15.9185 11.941 14.975 12.3805 14.0984 12.9377L14.903 14.2036ZM20.0865 12.4945C20.5407 12.4515 21.0055 12.43 21.48 12.43V10.93C20.9601 10.93 20.4482 10.9536 19.9453 11.0011L20.0865 12.4945ZM21.48 12.43C21.9516 12.43 22.3986 12.4494 22.8211 12.4871L22.9546 10.9931C22.4842 10.951 21.9925 10.93 21.48 10.93V12.43ZM25.3692 13.0339C26.2408 13.3644 26.9137 13.8179 27.4105 14.369L28.5247 13.3647C27.8454 12.611 26.9614 12.0334 25.901 11.6313L25.3692 13.0339ZM28.4532 16.5147C28.5301 16.9018 28.57 17.3201 28.57 17.77H30.07C30.07 17.2317 30.0223 16.7149 29.9245 16.2225L28.4532 16.5147ZM28.57 17.77C28.57 18.1761 28.5459 18.5785 28.4837 18.989L29.9667 19.2139C30.0424 18.7152 30.07 18.2361 30.07 17.77H28.57ZM27.7241 21.2886C27.3995 21.9261 26.9542 22.6227 26.3448 23.3979L27.5241 24.3249C28.1835 23.486 28.6849 22.7075 29.0608 21.9691L27.7241 21.2886ZM24.6272 25.3362C24.337 25.6331 24.0261 25.9397 23.693 26.2567L24.727 27.3433C25.0723 27.0147 25.3962 26.6954 25.6999 26.3846L24.6272 25.3362ZM23.695 26.2547L22.5138 27.3704L23.5437 28.4609L24.725 27.3453L23.695 26.2547ZM20.1513 29.6016L17.7888 31.8329L18.8187 32.9234L21.1812 30.6921L20.1513 29.6016ZM15.4263 34.0641L13.0638 36.2954L14.0937 37.3859L16.4562 35.1546L15.4263 34.0641ZM10.7013 38.5266L8.33878 40.7579L9.36872 41.8484L11.7312 39.6171L10.7013 38.5266ZM5.97628 42.9891L4.79503 44.1047L5.82497 45.1953L7.00622 44.0796L5.97628 42.9891ZM4.56 44.65V46.4875H6.06V44.65H4.56ZM4.56 50.1625V52H6.06V50.1625H4.56ZM5.31 52.75H6.85292V51.25H5.31V52.75ZM9.93875 52.75H13.0246V51.25H9.93875V52.75ZM16.1104 52.75H19.1963V51.25H16.1104V52.75ZM22.2821 52.75H25.3679V51.25H22.2821V52.75ZM28.4538 52.75H31.5396V51.25H28.4538V52.75ZM34.6254 52.75H37.7113V51.25H34.6254V52.75ZM40.7971 52.75H42.34V51.25H40.7971V52.75ZM43.09 52V50.845H41.59V52H43.09ZM43.09 48.535V46.225H41.59V48.535H43.09ZM43.09 43.915V42.76H41.59V43.915H43.09ZM42.34 42.01H41.0231V43.51H42.34V42.01ZM38.3894 42.01H35.7556V43.51H38.3894V42.01ZM33.1219 42.01H30.4881V43.51H33.1219V42.01ZM27.8544 42.01H25.2206V43.51H27.8544V42.01ZM22.5869 42.01H21.27V43.51H22.5869V42.01ZM21.27 42.76L20.2403 41.6693L17.4962 44.26H21.27V42.76ZM42.34 42.76H43.84V41.26H42.34V42.76ZM42.34 52V53.5H43.84V52H42.34ZM5.31 52H3.81V53.5H5.31V52ZM5.31 44.65L4.28006 43.5595L3.81 44.0034V44.65H5.31ZM24.21 26.8L25.2399 27.8905L25.244 27.8866L24.21 26.8ZM11.33 16.58L10.5178 17.8411L11.7125 18.6105L12.5453 17.4592L11.33 16.58ZM3.07 11.26L1.83165 10.4135L0.961672 11.6863L2.25778 12.5211L3.07 11.26ZM32.54 32.12L31.5193 31.0208L31.5103 31.0293L32.54 32.12ZM22.2997 43.8507L23.2389 42.964L21.1794 40.7826L20.2403 41.6693L22.2997 43.8507ZM25.1172 41.1907L26.9956 39.4174L24.9361 37.236L23.0578 39.0093L25.1172 41.1907ZM28.8739 37.644L30.7522 35.8707L28.6928 33.6893L26.8144 35.4626L28.8739 37.644ZM32.6306 34.0974L33.5697 33.2107L31.5103 31.0293L30.5711 31.916L32.6306 34.0974ZM33.5607 33.2192C33.9516 32.8562 34.3258 32.4989 34.6841 32.1467L32.5811 30.0072C32.2441 30.3385 31.8905 30.6762 31.5193 31.0208L33.5607 33.2192ZM36.8359 29.8788C37.5844 29.0253 38.2379 28.1981 38.8064 27.3897L36.3523 25.6641C35.8521 26.3754 35.2664 27.1186 34.5805 27.9006L36.8359 29.8788ZM40.4734 24.6076C40.9928 23.5562 41.3733 22.5311 41.6444 21.5155L38.7459 20.7417C38.5264 21.5639 38.2162 22.4033 37.7837 23.2789L40.4734 24.6076ZM42.1762 18.2621C42.2141 17.7225 42.23 17.1857 42.23 16.65H39.23C39.23 17.1265 39.2158 17.5923 39.1836 18.0517L42.1762 18.2621ZM42.23 16.65C42.23 16.0417 42.1988 15.4449 42.1368 14.8604L39.1535 15.1767C39.2041 15.6532 39.23 16.1444 39.23 16.65H42.23ZM41.3364 11.3297C40.9185 10.1675 40.3591 9.08311 39.6695 8.08554L37.2018 9.79156C37.7435 10.5752 38.1835 11.4274 38.5134 12.3449L41.3364 11.3297ZM37.2429 5.38163C36.3567 4.60963 35.3698 3.92827 34.295 3.34087L32.8563 5.97339C33.7524 6.46313 34.5591 7.02235 35.2724 7.6437L37.2429 5.38163ZM31.0526 1.93964C29.982 1.58339 28.8524 1.30006 27.6707 1.09151L27.1493 4.04585C28.1956 4.2305 29.1823 4.479 30.1054 4.78617L31.0526 1.93964ZM24.246 0.70521C23.6831 0.675137 23.1109 0.66 22.53 0.66V3.66C23.0588 3.66 23.5776 3.67378 24.0859 3.70094L24.246 0.70521ZM22.53 0.66C22.0366 0.66 21.5485 0.670683 21.0659 0.691835L21.1973 3.68896C21.6356 3.66974 22.0799 3.66 22.53 3.66V0.66ZM18.1429 0.955826C17.1491 1.09356 16.1832 1.27836 15.2474 1.50802L15.9624 4.42157C16.7959 4.217 17.6605 4.05135 18.5547 3.92742L18.1429 0.955826ZM12.4133 2.37284C11.4653 2.72238 10.5558 3.12228 9.68743 3.56959L11.0613 6.23653C11.8185 5.84647 12.6157 5.49566 13.4511 5.1876L12.4133 2.37284ZM7.12345 5.10992C6.29114 5.6888 5.50973 6.31779 4.78266 6.99294L6.82404 9.1913C7.44642 8.61336 8.11789 8.07254 8.83643 7.57278L7.12345 5.10992ZM2.73041 9.19974C2.41517 9.59357 2.11544 9.99837 1.83165 10.4135L4.30835 12.1065C4.54943 11.7538 4.80426 11.4096 5.07253 11.0744L2.73041 9.19974ZM2.25778 12.5211L3.29028 13.1861L4.91472 10.6639L3.88222 9.99893L2.25778 12.5211ZM5.35528 14.5161L7.42028 15.8461L9.04472 13.3239L6.97972 11.9939L5.35528 14.5161ZM9.48528 17.1761L10.5178 17.8411L12.1422 15.3189L11.1097 14.6539L9.48528 17.1761ZM12.5453 17.4592C12.8025 17.1037 13.074 16.7723 13.3588 16.4645L11.1565 14.4273C10.7885 14.8252 10.4409 15.2499 10.1147 15.7008L12.5453 17.4592ZM15.3053 14.8365C16.0159 14.3849 16.7862 14.025 17.6113 13.7574L16.6859 10.9037C15.6293 11.2463 14.628 11.7123 13.696 12.3047L15.3053 14.8365ZM20.1571 13.2411C20.587 13.2005 21.0282 13.18 21.48 13.18V10.18C20.9375 10.18 20.402 10.2046 19.8748 10.2544L20.1571 13.2411ZM21.48 13.18C21.9312 13.18 22.3558 13.1985 22.7544 13.2341L23.0213 10.246C22.527 10.2019 22.013 10.18 21.48 10.18V13.18ZM25.1033 13.7351C25.8806 14.0299 26.4479 14.4213 26.8534 14.8712L29.0818 12.8626C28.3112 12.0076 27.3217 11.3679 26.1669 10.93L25.1033 13.7351ZM27.7176 16.6608C27.784 16.9953 27.82 17.3644 27.82 17.77H30.82C30.82 17.1875 30.7684 16.6214 30.6601 16.0765L27.7176 16.6608ZM27.82 17.77C27.82 18.1461 27.7977 18.5102 27.7422 18.8765L30.7083 19.3263C30.7906 18.7836 30.82 18.2661 30.82 17.77H27.82ZM27.0557 20.9483C26.7568 21.5354 26.3396 22.191 25.7552 22.9345L28.1138 24.7884C28.7982 23.9177 29.3276 23.0982 29.7292 22.3094L27.0557 20.9483ZM24.0908 24.812C23.8074 25.102 23.503 25.4022 23.176 25.7134L25.244 27.8866C25.5955 27.5522 25.9258 27.2265 26.2363 26.9088L24.0908 24.812ZM23.1801 25.7095L21.9988 26.8251L24.0587 29.0061L25.2399 27.8905L23.1801 25.7095ZM19.6363 29.0564L17.2738 31.2876L19.3337 33.4686L21.6962 31.2374L19.6363 29.0564ZM14.9113 33.5189L12.5488 35.7501L14.6087 37.9311L16.9712 35.6999L14.9113 33.5189ZM10.1863 37.9814L7.82381 40.2126L9.88369 42.3936L12.2462 40.1624L10.1863 37.9814ZM5.46131 42.4439L4.28006 43.5595L6.33994 45.7405L7.52118 44.6249L5.46131 42.4439ZM3.81 44.65V46.4875H6.81V44.65H3.81ZM3.81 50.1625V52H6.81V50.1625H3.81ZM5.31 53.5H6.85292V50.5H5.31V53.5ZM9.93875 53.5H13.0246V50.5H9.93875V53.5ZM16.1104 53.5H19.1963V50.5H16.1104V53.5ZM22.2821 53.5H25.3679V50.5H22.2821V53.5ZM28.4538 53.5H31.5396V50.5H28.4538V53.5ZM34.6254 53.5H37.7113V50.5H34.6254V53.5ZM40.7971 53.5H42.34V50.5H40.7971V53.5ZM43.84 52V50.845H40.84V52H43.84ZM43.84 48.535V46.225H40.84V48.535H43.84ZM43.84 43.915V42.76H40.84V43.915H43.84ZM42.34 41.26H41.0231V44.26H42.34V41.26ZM38.3894 41.26H35.7556V44.26H38.3894V41.26ZM33.1219 41.26H30.4881V44.26H33.1219V41.26ZM27.8544 41.26H25.2206V44.26H27.8544V41.26ZM22.5869 41.26H21.27V44.26H22.5869V41.26Z" fill="#7732EF" mask="url(#path-1-outside-1_91_14805)"/>
</g>
</svg>
