<svg width="80" height="80" viewBox="0 0 80 80" fill="none" xmlns="http://www.w3.org/2000/svg">
<path d="M58.6987 19.267C58.6987 24.5618 56.7999 29.1449 53.0542 32.8912C49.3085 36.637 44.7247 38.5358 39.4299 38.5358H39.4208C34.1327 38.5339 29.552 36.6351 25.8063 32.8912C22.0599 29.1449 20.1617 24.5618 20.1617 19.267C20.1617 13.974 22.0599 9.39026 25.8063 5.64453C29.5502 1.90002 34.1309 0.00183106 39.4208 0H39.4299C44.7229 0 49.3066 1.8988 53.0542 5.64453C56.7999 9.39026 58.6987 13.974 58.6987 19.267Z" fill="#FFCEBF"/>
<path d="M73.3075 66.2415C73.3075 70.4187 71.9788 73.8007 69.3616 76.2915C66.7749 78.7531 63.3539 80 59.1943 80H20.6738C16.5143 80 13.0933 78.7531 10.5084 76.2915C7.8894 73.7988 6.5625 70.4175 6.5625 66.2415C6.5625 64.635 6.6156 63.0457 6.7218 61.5173C6.82983 59.9548 7.04834 58.2544 7.37061 56.4606C7.69531 54.6521 8.11279 52.9425 8.61267 51.38C9.13147 49.7626 9.83337 48.1671 10.7019 46.6388C11.604 45.0525 12.6636 43.6707 13.8513 42.533C15.0964 41.3422 16.6187 40.3857 18.3783 39.6887C20.1318 38.9954 22.0758 38.6438 24.1559 38.6438C24.9719 38.6438 25.7623 38.9777 27.2858 39.9701C28.2391 40.592 29.3378 41.3 30.5505 42.0752C31.5979 42.7429 33.0164 43.3691 34.7699 43.9349C36.311 44.4336 37.8754 44.7119 39.4208 44.7601C39.5911 44.7662 39.7614 44.7693 39.9316 44.7693C41.6479 44.7693 43.3838 44.4879 45.0952 43.9349C46.8488 43.3691 48.269 42.7429 49.3158 42.0752C50.5414 41.2921 51.64 40.5847 52.5793 39.9719C54.104 38.9777 54.8932 38.6438 55.7111 38.6438C57.7893 38.6438 59.7333 38.9954 61.488 39.6887C63.2477 40.3857 64.7699 41.344 66.0138 42.533C67.2034 43.6707 68.2629 45.0525 69.1644 46.6388C70.0336 48.1683 70.7367 49.7626 71.2537 51.3782C71.7542 52.9425 72.1729 54.6521 72.4976 56.4618C72.818 58.2574 73.0371 59.9579 73.1445 61.5161C73.2526 63.0396 73.3057 64.6289 73.3075 66.2415Z" fill="#AE8FF7"/>
<path d="M39.4299 38.5358H39.4208V0H39.4299C44.7229 0 49.3066 1.8988 53.0542 5.64453C56.7999 9.39026 58.6987 13.974 58.6987 19.267C58.6987 24.5618 56.7999 29.1449 53.0542 32.8912C49.3085 36.637 44.7247 38.5358 39.4299 38.5358Z" fill="#FFB09E"/>
<path d="M73.3075 66.2415C73.3075 70.4187 71.9788 73.8007 69.3616 76.2915C66.7749 78.7531 63.3539 80 59.1943 80H39.4208V44.7601C39.5911 44.7662 39.7614 44.7693 39.9316 44.7693C41.6479 44.7693 43.3838 44.4879 45.0952 43.9349C46.8488 43.3691 48.269 42.7429 49.3158 42.0752C50.5414 41.2921 51.64 40.5847 52.5793 39.9719C54.104 38.9777 54.8932 38.6438 55.7111 38.6438C57.7893 38.6438 59.7333 38.9954 61.488 39.6887C63.2477 40.3857 64.7699 41.344 66.0138 42.533C67.2034 43.6707 68.2629 45.0525 69.1644 46.6388C70.0336 48.1683 70.7367 49.7626 71.2537 51.3782C71.7542 52.9425 72.1729 54.6521 72.4976 56.4618C72.818 58.2574 73.0371 59.9579 73.1445 61.5161C73.2526 63.0396 73.3057 64.6289 73.3075 66.2415Z" fill="#936FE9"/>
</svg>
