<svg width="85" height="366" viewBox="0 0 85 366" fill="none" xmlns="http://www.w3.org/2000/svg">
<g style="mix-blend-mode:overlay">
<path d="M0 365.308L6.02039 347.885L81.8212 164.223L43.3062 177.052L4.01055 347.885L0 365.308Z" fill="#914BFB"/>
<path d="M84.0485 0L77.8524 17.9733L5.58203 188.783L43.307 177.053L79.9148 17.9733L84.0485 0Z" fill="#A05AFB"/>
</g>
<path d="M15.1484 299.476L18.999 288.333L67.4801 170.865L42.8466 179.071L17.7137 288.333L15.1484 299.476Z" fill="#DDCFFF"/>
<path d="M68.9048 65.8311L64.9418 77.3264L18.7188 186.574L42.8471 179.071L66.2609 77.3264L68.9048 65.8311Z" fill="#DDCFFF"/>
<path d="M43.834 145.518L33.8891 164.871L30.412 148.393L12.1094 152.315L21.7496 196.455L36.7982 193.231L63.4176 141.321L43.834 145.518Z" fill="#6A43C5"/>
<path d="M67.0349 188.89L73.879 172.209L70.7452 170.776C68.8492 169.91 66.6014 169.411 64.0617 169.295C61.637 169.186 59.0107 169.43 56.257 170.02C52.4111 170.844 48.9582 172.25 45.995 174.201C42.8105 176.297 40.2906 178.912 38.5054 181.973C36.6581 185.141 35.7212 188.576 35.7212 192.185C35.7212 195.035 36.3734 197.354 37.6604 199.095L37.6142 199.073L30.0273 216.367L33.0494 217.936C35.015 218.957 37.5183 219.593 40.4901 219.827C43.3714 220.054 46.4489 219.822 49.6361 219.139C53.4463 218.323 56.8872 216.921 59.8657 214.97C63.0608 212.876 65.5951 210.264 67.3989 207.204C69.2712 204.028 70.2206 200.601 70.2206 197.018C70.2206 193.801 69.3604 191.271 67.6612 189.495C67.4584 189.283 67.2496 189.081 67.0349 188.89Z" fill="#6A43C5"/>
<path d="M57.7767 145.105L36.2492 187.086L26.687 189.135L18.8906 153.438L28.8447 151.305L33.7486 174.543L47.7735 147.249L57.7767 145.105Z" fill="white"/>
<path d="M43.2391 213.125C40.6893 212.925 38.6129 212.409 37.0117 211.577L40.8368 202.857C42.5693 203.696 44.4161 204.217 46.3783 204.419C48.3395 204.622 50.3007 204.513 52.2627 204.092C54.1256 203.693 55.5725 203.09 56.6021 202.282C57.6318 201.474 58.1472 200.554 58.1472 199.521C58.1472 198.632 57.681 198.038 56.7496 197.739C55.817 197.441 54.3712 197.217 52.4091 197.068C50.1863 196.903 48.3395 196.65 46.8687 196.306C45.3968 195.964 44.1294 195.23 43.0677 194.105C42.0049 192.98 41.4744 191.314 41.4744 189.107C41.4744 186.438 42.1442 183.955 43.4848 181.657C44.8252 179.359 46.7372 177.392 49.2218 175.756C51.7063 174.122 54.6159 172.946 57.9507 172.231C60.4022 171.706 62.6902 171.492 64.8157 171.588C66.9403 171.685 68.7711 172.084 70.3081 172.786L66.7769 181.39C65.4363 180.753 63.9575 180.367 62.3392 180.232C60.7209 180.099 59.0616 180.214 57.3622 180.579C55.4331 180.992 53.9211 181.654 52.8262 182.565C51.7304 183.476 51.1839 184.465 51.1839 185.532C51.1839 186.458 51.6572 187.069 52.6056 187.363C53.5531 187.659 55.024 187.877 57.0192 188.019C59.242 188.148 61.0809 188.376 62.5357 188.705C63.9896 189.034 65.2398 189.746 66.2866 190.838C67.3323 191.93 67.8557 193.544 67.8557 195.679C67.8557 198.314 67.1769 200.781 65.8213 203.082C64.4637 205.384 62.5357 207.355 60.0352 208.993C57.5336 210.632 54.632 211.805 51.3303 212.513C48.4868 213.122 45.7897 213.327 43.2391 213.125Z" fill="white"/>
</svg>
