<svg width="100" height="100" viewBox="0 0 100 100" fill="none" xmlns="http://www.w3.org/2000/svg">
<g clip-path="url(#clip0_73_9084)">
<path d="M87.2868 34.2344H8.91548C6.98071 34.2344 5.41235 35.8027 5.41235 37.7375V47.1477H90.7901V37.7375C90.7899 35.8029 89.2215 34.2344 87.2868 34.2344Z" fill="#9F8CEA"/>
<path d="M58.8349 14.7783L51.7376 86.6269C51.5593 88.4318 49.9517 89.7503 48.1468 89.572L12.1859 86.0197C10.381 85.8413 9.06244 84.2337 9.24076 82.4288L16.338 10.5804C16.5163 8.77553 18.124 7.45697 19.9288 7.63529L55.8898 11.1876C57.6945 11.3658 59.013 12.9734 58.8349 14.7783Z" fill="#DACAFF"/>
<path d="M55.8897 11.1876L19.9287 7.63529C18.1238 7.45697 16.5162 8.77553 16.3379 10.5804L15.7012 17.0265C16.2406 16.7525 16.8607 16.6214 17.5074 16.6853L53.4684 20.2376C55.2732 20.416 56.5918 22.0236 56.4135 23.8285L49.9529 89.2312C50.9187 88.7406 51.623 87.7853 51.7373 86.6273L58.8346 14.7787C59.0131 12.9736 57.6943 11.366 55.8897 11.1876Z" fill="#9F8CEA"/>
<path d="M20.1482 20.7691L14.9707 73.1846C14.8966 73.9348 15.2498 74.666 15.8896 75.0648C17.6527 76.1641 19.0179 77.8131 19.7681 79.7492C20.0378 80.4451 20.682 80.925 21.4246 80.9984L40.0666 82.8399C40.8091 82.9133 41.5349 82.5686 41.9353 81.9389C43.0498 80.1871 44.7113 78.8369 46.6554 78.1039C47.3609 77.8379 47.8503 77.19 47.9244 76.4398L53.1019 24.0244C53.1759 23.2742 52.8228 22.543 52.183 22.1441C50.4199 21.0449 49.0546 19.3959 48.3044 17.4598C48.0347 16.7641 47.3906 16.284 46.648 16.2105L28.006 14.3691C27.2634 14.2957 26.5376 14.6404 26.1373 15.2701C25.0228 17.0219 23.3613 18.3721 21.4171 19.1051C20.7119 19.3711 20.2224 20.0189 20.1482 20.7691Z" fill="#AE8FF7"/>
<path d="M52.1832 22.1441C50.4201 21.0449 49.0549 19.3959 48.3047 17.4598C48.035 16.7639 47.3908 16.284 46.6482 16.2105L28.0062 14.3691C27.2637 14.2957 26.5379 14.6404 26.1373 15.2701C25.0229 17.0219 23.3613 18.3721 21.4172 19.1051C20.7117 19.3711 20.2223 20.0189 20.1482 20.7691L19.9512 22.7645L44.1061 25.076C44.8486 25.1494 45.493 25.6293 45.7625 26.3252C46.5127 28.2611 47.8779 29.9103 49.641 31.0096C50.2809 31.4084 50.634 32.1396 50.56 32.8898L46.0693 78.3496C46.2619 78.2621 46.4568 78.1791 46.6555 78.1041C47.3609 77.8381 47.8504 77.1902 47.9244 76.44L53.102 24.0246C53.1762 23.2742 52.8229 22.543 52.1832 22.1441Z" fill="#7E6AD3"/>
<path d="M89.3257 25.4832L48.6677 85.1449C47.6464 86.6435 45.6035 87.0306 44.1048 86.0093L14.2435 65.6595C12.7449 64.6382 12.3578 62.5953 13.3791 61.0966L54.0373 1.43492C55.0585 -0.0637158 57.1015 -0.450825 58.6002 0.570464L88.4615 20.9203C89.9601 21.9416 90.347 23.9843 89.3257 25.4832Z" fill="#DACAFF"/>
<path d="M88.4609 20.9203L58.5996 0.570516C57.101 -0.450773 55.058 -0.063859 54.0367 1.43497L50.559 6.53829C50.8607 6.63263 51.1541 6.77169 51.4291 6.95899L81.2904 27.3088C82.7891 28.3301 83.1762 30.3731 82.1549 31.8717L44.9746 86.4303C46.3184 86.8506 47.8334 86.3689 48.6674 85.1451L89.3254 25.4832C90.3465 23.9844 89.9596 21.9416 88.4609 20.9203Z" fill="#9F8CEA"/>
<path d="M52.5008 12.2038L22.8397 55.7286C22.4151 56.3516 22.3748 57.1626 22.7452 57.8192C23.7661 59.6288 24.1741 61.7304 23.9047 63.7893C23.808 64.5292 24.1434 65.2593 24.76 65.6794L40.2401 76.2286C40.8567 76.6489 41.6588 76.694 42.3122 76.3333C44.1299 75.3298 46.235 74.9409 48.2926 75.229C49.0393 75.3335 49.7793 74.9995 50.2039 74.3764L79.8651 30.8518C80.2897 30.2288 80.3299 29.4179 79.9594 28.7612C78.9385 26.9516 78.5305 24.8501 78.7998 22.7913C78.8965 22.0514 78.5612 21.3214 77.9446 20.9012L62.4645 10.3518C61.8479 9.93152 61.0457 9.88641 60.3924 10.2471C58.5746 11.2507 56.4696 11.6395 54.412 11.3514C53.6655 11.2466 52.9252 11.5807 52.5008 12.2038Z" fill="#AE8FF7"/>
<path d="M79.959 28.7609C78.9381 26.9513 78.5303 24.8498 78.7994 22.791C78.8961 22.0511 78.5607 21.3211 77.9441 20.9007L62.4641 10.3515C61.8475 9.93141 61.0453 9.8861 60.392 10.2468C58.5744 11.2504 56.4691 11.6392 54.4115 11.3509C53.6648 11.2464 52.9248 11.5804 52.5002 12.2035L51.2641 14.0173L70.6105 27.0584C71.2271 27.4787 71.5627 28.2086 71.4658 28.9484C71.1967 31.0072 71.6047 33.1088 72.6254 34.9183C72.9957 35.575 72.9555 36.3861 72.5309 37.0089L46.541 75.1474C47.1236 75.1218 47.7098 75.1472 48.2924 75.2289C49.0391 75.3336 49.7791 74.9994 50.2037 74.3763L79.8647 30.8515C80.2893 30.2285 80.3295 29.4175 79.959 28.7609Z" fill="#7E6AD3"/>
<path d="M55.8945 49.8809C61.7615 49.8809 66.5176 45.1248 66.5176 39.2578C66.5176 33.3909 61.7615 28.6348 55.8945 28.6348C50.0276 28.6348 45.2715 33.3909 45.2715 39.2578C45.2715 45.1248 50.0276 49.8809 55.8945 49.8809Z" fill="#DACAFF"/>
<path d="M88.5004 100H6.66196C3.87173 100 1.60962 97.7381 1.60962 94.9477V44.9491C1.60962 42.1588 3.87153 39.8967 6.66196 39.8967H88.5004C91.2907 39.8967 93.5528 42.1586 93.5528 44.9491V94.9477C93.5528 97.7381 91.2909 100 88.5004 100Z" fill="#9F8CEA"/>
<path d="M88.5 39.8965H79.3086C82.0988 39.8965 84.3609 42.1586 84.3609 44.9488V94.9475C84.3609 97.7377 82.0988 99.9998 79.3086 99.9998H88.5C91.2902 99.9998 93.5523 97.7379 93.5523 94.9475V44.9488C93.5523 42.1586 91.2902 39.8965 88.5 39.8965Z" fill="#9F8CEA"/>
<path d="M96.5596 60.291H78.14C72.8063 60.291 68.4824 64.6148 68.4824 69.9486C68.4824 75.2824 72.8063 79.6063 78.14 79.6063H96.5596C97.5705 79.6063 98.39 78.7867 98.39 77.7758V62.1215C98.39 61.1107 97.5705 60.291 96.5596 60.291Z" fill="#7E6AD3"/>
<path d="M96.56 60.291H87.336C88.3469 60.291 89.1665 61.1105 89.1665 62.1215V75.3072C89.1665 76.3854 88.2924 77.2594 87.2143 77.2594H78.1403C73.204 77.2594 69.1354 73.5551 68.5561 68.775C68.5094 69.16 68.4827 69.551 68.4827 69.9484C68.4827 75.2822 72.8065 79.6061 78.1403 79.6061H87.3358H96.5598C97.5707 79.6061 98.3903 78.7865 98.3903 77.7756V75.4289V62.1215C98.3905 61.1107 97.5709 60.291 96.56 60.291Z" fill="#5D4EB5"/>
<path d="M88.5004 39.8967H6.66196C3.87173 39.8967 1.60962 42.1588 1.60962 44.9491V50.4858H93.5528V44.9491C93.5528 42.1588 91.2909 39.8967 88.5004 39.8967Z" fill="#7E6AD3"/>
<path d="M92.6891 42.1242C92.5074 41.8555 92.3006 41.6051 92.0721 41.3766C92.0693 41.3738 92.0666 41.3715 92.0639 41.3687C91.8375 41.1434 91.59 40.9391 91.3242 40.7596C91.257 40.7143 91.1887 40.6703 91.1191 40.6281C91.0158 40.5654 90.9094 40.5074 90.8014 40.452C90.7314 40.416 90.6605 40.3818 90.5887 40.349C89.9518 40.0592 89.2447 39.8965 88.4994 39.8965H79.3086C82.0986 39.8967 84.3603 42.1586 84.3603 44.9488V50.4853H93.5518V44.9488C93.5518 44.0768 93.3309 43.2564 92.942 42.5406C92.8645 42.3977 92.7799 42.2586 92.6891 42.1242Z" fill="#5D4EB5"/>
<path d="M6.66196 99.9992H88.5004C91.2907 99.9992 93.5528 97.7371 93.5528 94.9469V89.4102H1.60962V94.9469C1.60962 97.7371 3.87153 99.9992 6.66196 99.9992Z" fill="#7E6AD3"/>
<path d="M84.3614 89.4102V94.9469C84.3614 94.9498 84.3614 94.9527 84.3614 94.9555C84.3606 95.4221 83.97 95.7945 83.5034 95.7945H6.66196C3.87173 95.7945 1.60962 93.5324 1.60962 90.7422V94.9467C1.60962 97.7373 3.87153 99.9992 6.66196 99.9992H79.3092H88.5006C88.6004 99.9992 88.6993 99.9955 88.7975 99.9898C88.8282 99.9881 88.8586 99.9852 88.8891 99.9828C88.9577 99.9775 89.0258 99.9713 89.0936 99.9633C89.1272 99.9594 89.1608 99.9551 89.1944 99.9506C89.2618 99.9414 89.3286 99.9305 89.395 99.9188C89.4245 99.9135 89.4541 99.9088 89.4834 99.9029C89.5774 99.8844 89.6708 99.8641 89.7627 99.8402H89.7631C89.8036 99.8299 89.843 99.8176 89.8831 99.8063C90.0829 99.7494 90.2782 99.6822 90.4672 99.6023C90.5428 99.5703 90.6174 99.5367 90.6911 99.5012C90.7647 99.4656 90.8374 99.4285 90.9088 99.3896L90.909 99.3895C91.052 99.3117 91.1909 99.2273 91.3252 99.1367L91.3254 99.1365L91.3256 99.1363C91.4401 99.059 91.5502 98.9764 91.6575 98.8902C91.6626 98.8861 91.6678 98.8822 91.6727 98.8781C91.7815 98.7902 91.8862 98.6977 91.9874 98.6012C92.1063 98.4875 92.2198 98.3684 92.3272 98.2437V98.2436C92.4952 98.0486 92.6489 97.841 92.786 97.6219C92.7897 97.616 92.7936 97.6102 92.7973 97.6043C92.8477 97.5229 92.8965 97.4404 92.9424 97.3561C92.9424 97.3561 92.9426 97.3557 92.9428 97.3553V97.3551C93.0649 97.1303 93.17 96.8947 93.2573 96.6508C93.2672 96.623 93.2762 96.5947 93.2858 96.5668C93.3069 96.5045 93.327 96.4416 93.3457 96.3783C93.3551 96.3461 93.3643 96.3139 93.3733 96.2814C93.3907 96.2178 93.4067 96.1535 93.4215 96.0887C93.4284 96.0592 93.4358 96.0297 93.442 96C93.4618 95.9068 93.4797 95.8129 93.4942 95.718C93.4942 95.7174 93.4944 95.717 93.4944 95.7164V95.7156C93.5114 95.6047 93.5233 95.492 93.5329 95.3787C93.5352 95.35 93.5374 95.3213 93.5395 95.2926C93.5473 95.1783 93.5526 95.0633 93.5526 94.9469V90.7424V89.4104L84.3614 89.4102Z" fill="#5D4EB5"/>
<path d="M78.4844 74.4334C80.961 74.4334 82.9686 72.4258 82.9686 69.9493C82.9686 67.4727 80.961 65.4651 78.4844 65.4651C76.0079 65.4651 74.0002 67.4727 74.0002 69.9493C74.0002 72.4258 76.0079 74.4334 78.4844 74.4334Z" fill="white"/>
</g>
<defs>
<clipPath id="clip0_73_9084">
<rect width="100" height="100" fill="white"/>
</clipPath>
</defs>
</svg>
