<svg width="32" height="32" viewBox="0 0 32 32" fill="none" xmlns="http://www.w3.org/2000/svg">
<path d="M28.69 17.74C28.88 16.82 29 15.9 29 15C29 7.28 22.72 1 15 1C7.28 1 1 7.28 1 15C1 22.72 7.28 29 15 29C15.9 29 16.82 28.88 17.74 28.69C19.15 30.11 21.1 31 23.25 31C27.52 31 31 27.52 31 23.25C31 21.1 30.12 19.15 28.69 17.74ZM15 27C8.38 27 3 21.62 3 15C3 8.38 8.38 3 15 3C21.62 3 27 8.38 27 15C27 15.47 26.97 15.94 26.91 16.42C26.45 16.17 25.97 15.98 25.46 15.82C25.48 15.54 25.5 15.26 25.5 14.99C25.5 9.2 20.79 4.49 15 4.49C9.21 4.49 4.5 9.21 4.5 15C4.5 20.79 9.21 25.5 15 25.5C15.27 25.5 15.54 25.49 15.83 25.46C15.98 25.97 16.18 26.45 16.43 26.91C15.95 26.97 15.48 27 15.01 27H15ZM15.5 23.25C15.5 23.33 15.5 23.4 15.51 23.48C15.34 23.49 15.16 23.5 15 23.5C10.31 23.5 6.5 19.69 6.5 15C6.5 10.31 10.31 6.5 15 6.5C19.69 6.5 23.5 10.31 23.5 15C23.5 15.17 23.49 15.34 23.48 15.51C23.4 15.51 23.33 15.5 23.25 15.5C18.98 15.5 15.5 18.98 15.5 23.25ZM23.25 29C20.08 29 17.5 26.42 17.5 23.25C17.5 20.08 20.08 17.5 23.25 17.5C26.42 17.5 29 20.08 29 23.25C29 26.42 26.42 29 23.25 29Z" fill="black"/>
<path d="M22.5802 21.58H25.2502C25.8002 21.58 26.2502 21.13 26.2502 20.58C26.2502 20.03 25.8002 19.58 25.2502 19.58H24.2502V19.25C24.2502 18.7 23.8002 18.25 23.2502 18.25C22.7002 18.25 22.2502 18.7 22.2502 19.25V19.62C21.1202 19.78 20.2502 20.75 20.2502 21.92C20.2502 23.21 21.3002 24.25 22.5802 24.25H23.9102C24.0902 24.25 24.2402 24.4 24.2402 24.58C24.2402 24.76 24.0902 24.91 23.9102 24.91H21.2402C20.6902 24.91 20.2402 25.36 20.2402 25.91C20.2402 26.46 20.6902 26.91 21.2402 26.91H22.2402V27.24C22.2402 27.79 22.6902 28.24 23.2402 28.24C23.7902 28.24 24.2402 27.79 24.2402 27.24V26.87C25.3702 26.71 26.2402 25.74 26.2402 24.57C26.2402 23.28 25.1902 22.24 23.9102 22.24H22.5802C22.4002 22.24 22.2502 22.09 22.2502 21.91C22.2502 21.73 22.4002 21.58 22.5802 21.58Z" fill="black"/>
<path d="M15.0004 9.5C14.4504 9.5 14.0004 9.95 14.0004 10.5V14.46L9.95042 17.16C9.49042 17.47 9.37042 18.09 9.67042 18.55C9.86042 18.84 10.1804 19 10.5004 19C10.6904 19 10.8804 18.95 11.0504 18.83L15.5504 15.83C15.8304 15.64 16.0004 15.33 16.0004 15V10.5C16.0004 9.95 15.5504 9.5 15.0004 9.5Z" fill="black"/>
</svg>
