<svg width="19" height="20" viewBox="0 0 19 20" fill="none" xmlns="http://www.w3.org/2000/svg">
<path d="M17.9676 17.7878C17.2774 16.0679 15.161 12.957 12.8544 9.85519C15.0303 7.37012 17.0046 5.10661 17.5182 4.46707C18.5546 3.17657 18.4835 2.62383 16.5414 2.61469C15.1496 2.60784 14.6681 2.44111 13.7463 3.4027C13.2052 3.96686 12.0404 5.34872 10.7013 7.03208C8.5597 4.28206 6.57632 1.9112 5.74169 1.03869C4.54937 -0.206129 3.92569 0.0108575 2.12345 0.0199938C-0.389601 0.0336982 -0.483611 0.748611 0.860045 2.41826C1.60754 3.35016 4.74656 6.94072 7.96124 10.6089C6.29887 12.8679 4.81305 15.0789 4.3109 16.3328C3.64595 17.991 5.12489 18.7151 6.38371 17.2533C7.07617 16.447 8.48633 14.839 10.0799 13.0209C12.3132 15.5676 14.3264 17.8654 15.2849 18.98C16.9128 20.8712 18.8297 19.9348 17.9676 17.7878Z" fill="#ED1C24"/>
</svg>
